<svg width="261" height="52" viewBox="0 0 261 52" fill="none" xmlns="http://www.w3.org/2000/svg">
<path d="M13.2051 35.9883H11.6963V31.8574L11.7109 31.1787L11.7354 30.4365C11.4847 30.6872 11.3105 30.8516 11.2129 30.9297L10.3926 31.5889L9.66504 30.6807L11.9648 28.8496H13.2051V35.9883ZM17.7852 31.4277C18.4753 31.4277 19.0238 31.6214 19.4307 32.0088C19.8408 32.3962 20.0459 32.9268 20.0459 33.6006C20.0459 34.3981 19.8001 35.0117 19.3086 35.4414C18.8171 35.8711 18.1139 36.0859 17.1992 36.0859C16.4049 36.0859 15.7637 35.9574 15.2754 35.7002V34.3965C15.5326 34.5332 15.832 34.6455 16.1738 34.7334C16.5156 34.818 16.8395 34.8604 17.1455 34.8604C18.0667 34.8604 18.5273 34.4827 18.5273 33.7275C18.5273 33.0081 18.0505 32.6484 17.0967 32.6484C16.9242 32.6484 16.7337 32.6663 16.5254 32.7021C16.3171 32.7347 16.1478 32.7705 16.0176 32.8096L15.417 32.4873L15.6855 28.8496H19.5576V30.1289H17.0088L16.877 31.5303L17.0479 31.4961C17.2464 31.4505 17.4922 31.4277 17.7852 31.4277ZM25.8516 32.4189C25.8516 33.6657 25.6465 34.5885 25.2363 35.1875C24.8294 35.7865 24.2012 36.0859 23.3516 36.0859C22.528 36.0859 21.9062 35.7767 21.4863 35.1582C21.0697 34.5397 20.8613 33.6266 20.8613 32.4189C20.8613 31.1592 21.0648 30.2314 21.4717 29.6357C21.8786 29.0368 22.5052 28.7373 23.3516 28.7373C24.1751 28.7373 24.7969 29.0498 25.2168 29.6748C25.64 30.2998 25.8516 31.2145 25.8516 32.4189ZM22.3604 32.4189C22.3604 33.2946 22.4352 33.9229 22.585 34.3037C22.738 34.6813 22.9935 34.8701 23.3516 34.8701C23.7031 34.8701 23.957 34.6781 24.1133 34.2939C24.2695 33.9098 24.3477 33.2848 24.3477 32.4189C24.3477 31.5433 24.2679 30.915 24.1084 30.5342C23.9521 30.1501 23.6999 29.958 23.3516 29.958C22.9967 29.958 22.7428 30.1501 22.5898 30.5342C22.4368 30.915 22.3604 31.5433 22.3604 32.4189ZM30.1338 30.0068C29.7367 30.0068 29.4095 30.1224 29.1523 30.3535C28.8952 30.5814 28.7292 30.9134 28.6543 31.3496H30.6221V32.209H28.5811L28.5713 32.3799V32.6094L28.5811 32.7705H30.3145V33.6396H28.6641C28.8301 34.4307 29.3525 34.8262 30.2314 34.8262C30.6969 34.8262 31.1445 34.7334 31.5742 34.5479V35.7979C31.1966 35.9899 30.7197 36.0859 30.1436 36.0859C29.346 36.0859 28.6901 35.8695 28.1758 35.4365C27.6615 35.0036 27.3376 34.4046 27.2041 33.6396H26.5352V32.7705H27.1113C27.0983 32.6956 27.0918 32.5947 27.0918 32.4678L27.1016 32.209H26.5352V31.3496H27.1846C27.305 30.5618 27.6289 29.9401 28.1562 29.4844C28.6836 29.0254 29.3428 28.7959 30.1338 28.7959C30.7458 28.7959 31.3187 28.9294 31.8525 29.1963L31.374 30.3291C31.1494 30.2282 30.9395 30.1501 30.7441 30.0947C30.5488 30.0361 30.3454 30.0068 30.1338 30.0068Z" fill="#F5FDFC"/>
<path d="M61.1865 30.4463C61.1865 30.8923 61.0514 31.2715 60.7812 31.584C60.5111 31.8965 60.1318 32.1113 59.6436 32.2285V32.2578C60.2197 32.3294 60.6559 32.5052 60.9521 32.7852C61.2484 33.0618 61.3965 33.4362 61.3965 33.9082C61.3965 34.5951 61.1475 35.1305 60.6494 35.5146C60.1514 35.8955 59.4401 36.0859 58.5156 36.0859C57.7409 36.0859 57.054 35.9574 56.4551 35.7002V34.416C56.7318 34.556 57.0361 34.6699 57.3682 34.7578C57.7002 34.8457 58.029 34.8896 58.3545 34.8896C58.8525 34.8896 59.2204 34.805 59.458 34.6357C59.6956 34.4665 59.8145 34.1947 59.8145 33.8203C59.8145 33.485 59.6777 33.2474 59.4043 33.1074C59.1309 32.9674 58.6947 32.8975 58.0957 32.8975H57.5537V31.7402H58.1055C58.6589 31.7402 59.0625 31.6686 59.3164 31.5254C59.5736 31.3789 59.7021 31.1299 59.7021 30.7783C59.7021 30.238 59.3636 29.9678 58.6865 29.9678C58.4521 29.9678 58.2129 30.0068 57.9688 30.085C57.7279 30.1631 57.4593 30.2982 57.1631 30.4902L56.4648 29.4502C57.1159 28.9814 57.8923 28.7471 58.7939 28.7471C59.5329 28.7471 60.1156 28.8968 60.542 29.1963C60.9717 29.4958 61.1865 29.9124 61.1865 30.4463ZM67.1387 32.4189C67.1387 33.6657 66.9336 34.5885 66.5234 35.1875C66.1165 35.7865 65.4883 36.0859 64.6387 36.0859C63.8151 36.0859 63.1934 35.7767 62.7734 35.1582C62.3568 34.5397 62.1484 33.6266 62.1484 32.4189C62.1484 31.1592 62.3519 30.2314 62.7588 29.6357C63.1657 29.0368 63.7923 28.7373 64.6387 28.7373C65.4622 28.7373 66.084 29.0498 66.5039 29.6748C66.9271 30.2998 67.1387 31.2145 67.1387 32.4189ZM63.6475 32.4189C63.6475 33.2946 63.7223 33.9229 63.8721 34.3037C64.0251 34.6813 64.2806 34.8701 64.6387 34.8701C64.9902 34.8701 65.2441 34.6781 65.4004 34.2939C65.5566 33.9098 65.6348 33.2848 65.6348 32.4189C65.6348 31.5433 65.555 30.915 65.3955 30.5342C65.2393 30.1501 64.987 29.958 64.6387 29.958C64.2839 29.958 64.0299 30.1501 63.877 30.5342C63.724 30.915 63.6475 31.5433 63.6475 32.4189ZM72.8516 32.4189C72.8516 33.6657 72.6465 34.5885 72.2363 35.1875C71.8294 35.7865 71.2012 36.0859 70.3516 36.0859C69.528 36.0859 68.9062 35.7767 68.4863 35.1582C68.0697 34.5397 67.8613 33.6266 67.8613 32.4189C67.8613 31.1592 68.0648 30.2314 68.4717 29.6357C68.8786 29.0368 69.5052 28.7373 70.3516 28.7373C71.1751 28.7373 71.7969 29.0498 72.2168 29.6748C72.64 30.2998 72.8516 31.2145 72.8516 32.4189ZM69.3604 32.4189C69.3604 33.2946 69.4352 33.9229 69.585 34.3037C69.738 34.6813 69.9935 34.8701 70.3516 34.8701C70.7031 34.8701 70.957 34.6781 71.1133 34.2939C71.2695 33.9098 71.3477 33.2848 71.3477 32.4189C71.3477 31.5433 71.2679 30.915 71.1084 30.5342C70.9521 30.1501 70.6999 29.958 70.3516 29.958C69.9967 29.958 69.7428 30.1501 69.5898 30.5342C69.4368 30.915 69.3604 31.5433 69.3604 32.4189ZM77.1338 30.0068C76.7367 30.0068 76.4095 30.1224 76.1523 30.3535C75.8952 30.5814 75.7292 30.9134 75.6543 31.3496H77.6221V32.209H75.5811L75.5713 32.3799V32.6094L75.5811 32.7705H77.3145V33.6396H75.6641C75.8301 34.4307 76.3525 34.8262 77.2314 34.8262C77.6969 34.8262 78.1445 34.7334 78.5742 34.5479V35.7979C78.1966 35.9899 77.7197 36.0859 77.1436 36.0859C76.346 36.0859 75.6901 35.8695 75.1758 35.4365C74.6615 35.0036 74.3376 34.4046 74.2041 33.6396H73.5352V32.7705H74.1113C74.0983 32.6956 74.0918 32.5947 74.0918 32.4678L74.1016 32.209H73.5352V31.3496H74.1846C74.305 30.5618 74.6289 29.9401 75.1562 29.4844C75.6836 29.0254 76.3428 28.7959 77.1338 28.7959C77.7458 28.7959 78.3187 28.9294 78.8525 29.1963L78.374 30.3291C78.1494 30.2282 77.9395 30.1501 77.7441 30.0947C77.5488 30.0361 77.3454 30.0068 77.1338 30.0068Z" fill="#FEFFFF"/>
<path d="M101.072 31.4277C101.762 31.4277 102.311 31.6214 102.718 32.0088C103.128 32.3962 103.333 32.9268 103.333 33.6006C103.333 34.3981 103.087 35.0117 102.596 35.4414C102.104 35.8711 101.401 36.0859 100.486 36.0859C99.6921 36.0859 99.0508 35.9574 98.5625 35.7002V34.3965C98.8197 34.5332 99.1191 34.6455 99.4609 34.7334C99.8027 34.818 100.127 34.8604 100.433 34.8604C101.354 34.8604 101.814 34.4827 101.814 33.7275C101.814 33.0081 101.338 32.6484 100.384 32.6484C100.211 32.6484 100.021 32.6663 99.8125 32.7021C99.6042 32.7347 99.4349 32.7705 99.3047 32.8096L98.7041 32.4873L98.9727 28.8496H102.845V30.1289H100.296L100.164 31.5303L100.335 31.4961C100.534 31.4505 100.779 31.4277 101.072 31.4277ZM109.139 32.4189C109.139 33.6657 108.934 34.5885 108.523 35.1875C108.117 35.7865 107.488 36.0859 106.639 36.0859C105.815 36.0859 105.193 35.7767 104.773 35.1582C104.357 34.5397 104.148 33.6266 104.148 32.4189C104.148 31.1592 104.352 30.2314 104.759 29.6357C105.166 29.0368 105.792 28.7373 106.639 28.7373C107.462 28.7373 108.084 29.0498 108.504 29.6748C108.927 30.2998 109.139 31.2145 109.139 32.4189ZM105.647 32.4189C105.647 33.2946 105.722 33.9229 105.872 34.3037C106.025 34.6813 106.281 34.8701 106.639 34.8701C106.99 34.8701 107.244 34.6781 107.4 34.2939C107.557 33.9098 107.635 33.2848 107.635 32.4189C107.635 31.5433 107.555 30.915 107.396 30.5342C107.239 30.1501 106.987 29.958 106.639 29.958C106.284 29.958 106.03 30.1501 105.877 30.5342C105.724 30.915 105.647 31.5433 105.647 32.4189ZM114.852 32.4189C114.852 33.6657 114.646 34.5885 114.236 35.1875C113.829 35.7865 113.201 36.0859 112.352 36.0859C111.528 36.0859 110.906 35.7767 110.486 35.1582C110.07 34.5397 109.861 33.6266 109.861 32.4189C109.861 31.1592 110.065 30.2314 110.472 29.6357C110.879 29.0368 111.505 28.7373 112.352 28.7373C113.175 28.7373 113.797 29.0498 114.217 29.6748C114.64 30.2998 114.852 31.2145 114.852 32.4189ZM111.36 32.4189C111.36 33.2946 111.435 33.9229 111.585 34.3037C111.738 34.6813 111.993 34.8701 112.352 34.8701C112.703 34.8701 112.957 34.6781 113.113 34.2939C113.27 33.9098 113.348 33.2848 113.348 32.4189C113.348 31.5433 113.268 30.915 113.108 30.5342C112.952 30.1501 112.7 29.958 112.352 29.958C111.997 29.958 111.743 30.1501 111.59 30.5342C111.437 30.915 111.36 31.5433 111.36 32.4189ZM119.134 30.0068C118.737 30.0068 118.41 30.1224 118.152 30.3535C117.895 30.5814 117.729 30.9134 117.654 31.3496H119.622V32.209H117.581L117.571 32.3799V32.6094L117.581 32.7705H119.314V33.6396H117.664C117.83 34.4307 118.353 34.8262 119.231 34.8262C119.697 34.8262 120.145 34.7334 120.574 34.5479V35.7979C120.197 35.9899 119.72 36.0859 119.144 36.0859C118.346 36.0859 117.69 35.8695 117.176 35.4365C116.661 35.0036 116.338 34.4046 116.204 33.6396H115.535V32.7705H116.111C116.098 32.6956 116.092 32.5947 116.092 32.4678L116.102 32.209H115.535V31.3496H116.185C116.305 30.5618 116.629 29.9401 117.156 29.4844C117.684 29.0254 118.343 28.7959 119.134 28.7959C119.746 28.7959 120.319 28.9294 120.853 29.1963L120.374 30.3291C120.149 30.2282 119.939 30.1501 119.744 30.0947C119.549 30.0361 119.345 30.0068 119.134 30.0068Z" fill="#FAFFFE"/>
<path d="M141.183 35.9883L143.863 30.1289H140.343V28.8594H145.465V29.8066L142.765 35.9883H141.183ZM148.785 31.4277C149.475 31.4277 150.024 31.6214 150.431 32.0088C150.841 32.3962 151.046 32.9268 151.046 33.6006C151.046 34.3981 150.8 35.0117 150.309 35.4414C149.817 35.8711 149.114 36.0859 148.199 36.0859C147.405 36.0859 146.764 35.9574 146.275 35.7002V34.3965C146.533 34.5332 146.832 34.6455 147.174 34.7334C147.516 34.818 147.84 34.8604 148.146 34.8604C149.067 34.8604 149.527 34.4827 149.527 33.7275C149.527 33.0081 149.05 32.6484 148.097 32.6484C147.924 32.6484 147.734 32.6663 147.525 32.7021C147.317 32.7347 147.148 32.7705 147.018 32.8096L146.417 32.4873L146.686 28.8496H150.558V30.1289H148.009L147.877 31.5303L148.048 31.4961C148.246 31.4505 148.492 31.4277 148.785 31.4277ZM156.852 32.4189C156.852 33.6657 156.646 34.5885 156.236 35.1875C155.829 35.7865 155.201 36.0859 154.352 36.0859C153.528 36.0859 152.906 35.7767 152.486 35.1582C152.07 34.5397 151.861 33.6266 151.861 32.4189C151.861 31.1592 152.065 30.2314 152.472 29.6357C152.879 29.0368 153.505 28.7373 154.352 28.7373C155.175 28.7373 155.797 29.0498 156.217 29.6748C156.64 30.2998 156.852 31.2145 156.852 32.4189ZM153.36 32.4189C153.36 33.2946 153.435 33.9229 153.585 34.3037C153.738 34.6813 153.993 34.8701 154.352 34.8701C154.703 34.8701 154.957 34.6781 155.113 34.2939C155.27 33.9098 155.348 33.2848 155.348 32.4189C155.348 31.5433 155.268 30.915 155.108 30.5342C154.952 30.1501 154.7 29.958 154.352 29.958C153.997 29.958 153.743 30.1501 153.59 30.5342C153.437 30.915 153.36 31.5433 153.36 32.4189ZM161.134 30.0068C160.737 30.0068 160.41 30.1224 160.152 30.3535C159.895 30.5814 159.729 30.9134 159.654 31.3496H161.622V32.209H159.581L159.571 32.3799V32.6094L159.581 32.7705H161.314V33.6396H159.664C159.83 34.4307 160.353 34.8262 161.231 34.8262C161.697 34.8262 162.145 34.7334 162.574 34.5479V35.7979C162.197 35.9899 161.72 36.0859 161.144 36.0859C160.346 36.0859 159.69 35.8695 159.176 35.4365C158.661 35.0036 158.338 34.4046 158.204 33.6396H157.535V32.7705H158.111C158.098 32.6956 158.092 32.5947 158.092 32.4678L158.102 32.209H157.535V31.3496H158.185C158.305 30.5618 158.629 29.9401 159.156 29.4844C159.684 29.0254 160.343 28.7959 161.134 28.7959C161.746 28.7959 162.319 28.9294 162.853 29.1963L162.374 30.3291C162.149 30.2282 161.939 30.1501 161.744 30.0947C161.549 30.0361 161.345 30.0068 161.134 30.0068Z" fill="#F8FDFC"/>
<path d="M233.294 35.29C233.294 35.0166 233.367 34.8099 233.514 34.6699C233.66 34.5299 233.873 34.46 234.153 34.46C234.424 34.46 234.632 34.5316 234.778 34.6748C234.928 34.818 235.003 35.0231 235.003 35.29C235.003 35.5472 234.928 35.7507 234.778 35.9004C234.629 36.0469 234.42 36.1201 234.153 36.1201C233.88 36.1201 233.668 36.0485 233.519 35.9053C233.369 35.7588 233.294 35.5537 233.294 35.29ZM236.146 35.29C236.146 35.0166 236.219 34.8099 236.365 34.6699C236.512 34.5299 236.725 34.46 237.005 34.46C237.275 34.46 237.483 34.5316 237.63 34.6748C237.78 34.818 237.854 35.0231 237.854 35.29C237.854 35.5472 237.78 35.7507 237.63 35.9004C237.48 36.0469 237.272 36.1201 237.005 36.1201C236.731 36.1201 236.52 36.0485 236.37 35.9053C236.22 35.7588 236.146 35.5537 236.146 35.29ZM238.997 35.29C238.997 35.0166 239.07 34.8099 239.217 34.6699C239.363 34.5299 239.576 34.46 239.856 34.46C240.127 34.46 240.335 34.5316 240.481 34.6748C240.631 34.818 240.706 35.0231 240.706 35.29C240.706 35.5472 240.631 35.7507 240.481 35.9004C240.332 36.0469 240.123 36.1201 239.856 36.1201C239.583 36.1201 239.371 36.0485 239.222 35.9053C239.072 35.7588 238.997 35.5537 238.997 35.29Z" fill="#F8FDFC"/>
<path d="M184.849 35.9883H183.34V31.8574L183.354 31.1787L183.379 30.4365C183.128 30.6872 182.954 30.8516 182.856 30.9297L182.036 31.5889L181.309 30.6807L183.608 28.8496H184.849V35.9883ZM191.782 32.4189C191.782 33.6657 191.577 34.5885 191.167 35.1875C190.76 35.7865 190.132 36.0859 189.282 36.0859C188.459 36.0859 187.837 35.7767 187.417 35.1582C187 34.5397 186.792 33.6266 186.792 32.4189C186.792 31.1592 186.995 30.2314 187.402 29.6357C187.809 29.0368 188.436 28.7373 189.282 28.7373C190.106 28.7373 190.728 29.0498 191.147 29.6748C191.571 30.2998 191.782 31.2145 191.782 32.4189ZM188.291 32.4189C188.291 33.2946 188.366 33.9229 188.516 34.3037C188.669 34.6813 188.924 34.8701 189.282 34.8701C189.634 34.8701 189.888 34.6781 190.044 34.2939C190.2 33.9098 190.278 33.2848 190.278 32.4189C190.278 31.5433 190.199 30.915 190.039 30.5342C189.883 30.1501 189.631 29.958 189.282 29.958C188.927 29.958 188.674 30.1501 188.521 30.5342C188.368 30.915 188.291 31.5433 188.291 32.4189ZM197.495 32.4189C197.495 33.6657 197.29 34.5885 196.88 35.1875C196.473 35.7865 195.845 36.0859 194.995 36.0859C194.172 36.0859 193.55 35.7767 193.13 35.1582C192.713 34.5397 192.505 33.6266 192.505 32.4189C192.505 31.1592 192.708 30.2314 193.115 29.6357C193.522 29.0368 194.149 28.7373 194.995 28.7373C195.819 28.7373 196.44 29.0498 196.86 29.6748C197.284 30.2998 197.495 31.2145 197.495 32.4189ZM194.004 32.4189C194.004 33.2946 194.079 33.9229 194.229 34.3037C194.382 34.6813 194.637 34.8701 194.995 34.8701C195.347 34.8701 195.601 34.6781 195.757 34.2939C195.913 33.9098 195.991 33.2848 195.991 32.4189C195.991 31.5433 195.911 30.915 195.752 30.5342C195.596 30.1501 195.343 29.958 194.995 29.958C194.64 29.958 194.386 30.1501 194.233 30.5342C194.08 30.915 194.004 31.5433 194.004 32.4189ZM203.208 32.4189C203.208 33.6657 203.003 34.5885 202.593 35.1875C202.186 35.7865 201.558 36.0859 200.708 36.0859C199.884 36.0859 199.263 35.7767 198.843 35.1582C198.426 34.5397 198.218 33.6266 198.218 32.4189C198.218 31.1592 198.421 30.2314 198.828 29.6357C199.235 29.0368 199.862 28.7373 200.708 28.7373C201.532 28.7373 202.153 29.0498 202.573 29.6748C202.996 30.2998 203.208 31.2145 203.208 32.4189ZM199.717 32.4189C199.717 33.2946 199.792 33.9229 199.941 34.3037C200.094 34.6813 200.35 34.8701 200.708 34.8701C201.06 34.8701 201.313 34.6781 201.47 34.2939C201.626 33.9098 201.704 33.2848 201.704 32.4189C201.704 31.5433 201.624 30.915 201.465 30.5342C201.309 30.1501 201.056 29.958 200.708 29.958C200.353 29.958 200.099 30.1501 199.946 30.5342C199.793 30.915 199.717 31.5433 199.717 32.4189ZM207.49 30.0068C207.093 30.0068 206.766 30.1224 206.509 30.3535C206.252 30.5814 206.086 30.9134 206.011 31.3496H207.979V32.209H205.938L205.928 32.3799V32.6094L205.938 32.7705H207.671V33.6396H206.021C206.187 34.4307 206.709 34.8262 207.588 34.8262C208.053 34.8262 208.501 34.7334 208.931 34.5479V35.7979C208.553 35.9899 208.076 36.0859 207.5 36.0859C206.702 36.0859 206.047 35.8695 205.532 35.4365C205.018 35.0036 204.694 34.4046 204.561 33.6396H203.892V32.7705H204.468C204.455 32.6956 204.448 32.5947 204.448 32.4678L204.458 32.209H203.892V31.3496H204.541C204.661 30.5618 204.985 29.9401 205.513 29.4844C206.04 29.0254 206.699 28.7959 207.49 28.7959C208.102 28.7959 208.675 28.9294 209.209 29.1963L208.73 30.3291C208.506 30.2282 208.296 30.1501 208.101 30.0947C207.905 30.0361 207.702 30.0068 207.49 30.0068Z" fill="#F8FDFC"/>
<path d="M220.322 31.5652L215 22H255.318L261 31.5652L255.318 42H215L220.322 31.5652Z" fill="#C4C4C4" fill-opacity="0.5"/>
<path d="M257.871 25.8832C259.596 24.0347 261.274 20.329 259.657 18.0503C258.523 16.4451 256.294 16.2618 253.035 15.9763C251.916 15.8785 250.473 15.761 248.637 16.1479C247.122 16.4572 243.647 17.1725 243.222 19.0354C242.772 20.9687 245.622 24.0551 248.588 24.8427C250.012 25.2253 251.506 25.0838 252.809 26.3241C253.491 26.9824 253.58 27.4832 254.206 27.7007C255.644 28.1826 257.499 26.284 257.871 25.8832Z" fill="#C4C4C4" fill-opacity="0.5"/>
<path d="M0 42V22H40.6101L46 31.6137L40.6101 42H0Z" fill="#C4C4C4" fill-opacity="0.5"/>
<path d="M49.3216 31.5652L44 22H84.3176L90 31.5652L84.3176 42H44L49.3216 31.5652Z" fill="#C4C4C4" fill-opacity="0.5"/>
<path d="M92.2059 31.5652L87 22H126.441L132 31.5652L126.441 42H87L92.2059 31.5652Z" fill="#C4C4C4" fill-opacity="0.5"/>
<path d="M134.322 31.5652L129 22H169.318L175 31.5652L169.318 42H129L134.322 31.5652Z" fill="#C4C4C4" fill-opacity="0.5"/>
<path d="M177.322 31.5652L172 22H212.318L218 31.5652L212.318 42H172L177.322 31.5652Z" fill="#C4C4C4" fill-opacity="0.5"/>
<path d="M257.871 25.8832C259.596 24.0347 261.274 20.329 259.657 18.0503C258.523 16.4451 256.294 16.2618 253.035 15.9763C251.916 15.8785 250.473 15.761 248.637 16.1479C247.122 16.4572 243.647 17.1725 243.222 19.0354C242.772 20.9687 245.622 24.0551 248.588 24.8427C250.012 25.2253 251.506 25.0838 252.809 26.3241C253.491 26.9824 253.58 27.4832 254.206 27.7007C255.644 28.1826 257.499 26.284 257.871 25.8832Z" fill="#C4C4C4"/>
<path d="M38.8713 25.8871C40.5957 24.0386 42.2739 20.3329 40.6573 18.0543C39.5233 16.449 37.2942 16.2657 34.0347 15.9802C32.9158 15.8824 31.4726 15.7649 29.6366 16.1518C28.122 16.4611 24.6473 17.1764 24.2219 19.0393C23.772 20.9726 26.622 24.059 29.5876 24.8466C31.0125 25.2292 32.5057 25.0877 33.8087 26.328C34.4911 26.9863 34.5803 27.4871 35.2057 27.7046C36.6441 28.1865 38.4985 26.2879 38.8713 25.8871Z" fill="#C4C4C4"/>
<path d="M85.8713 25.8871C87.5957 24.0386 89.2739 20.3329 87.6573 18.0543C86.5233 16.449 84.2942 16.2657 81.0347 15.9802C79.9158 15.8824 78.4726 15.7649 76.6366 16.1518C75.122 16.4611 71.6473 17.1764 71.2219 19.0393C70.772 20.9726 73.622 24.059 76.5876 24.8466C78.0125 25.2292 79.5057 25.0877 80.8087 26.328C81.4911 26.9863 81.5803 27.4871 82.2057 27.7046C83.6441 28.1865 85.4985 26.2879 85.8713 25.8871Z" fill="#C4C4C4"/>
<path d="M125.871 25.8871C127.596 24.0386 129.274 20.3329 127.657 18.0543C126.523 16.449 124.294 16.2657 121.035 15.9802C119.916 15.8824 118.473 15.7649 116.637 16.1518C115.122 16.4611 111.647 17.1764 111.222 19.0393C110.772 20.9726 113.622 24.059 116.588 24.8466C118.012 25.2292 119.506 25.0877 120.809 26.328C121.491 26.9863 121.58 27.4871 122.206 27.7046C123.644 28.1865 125.499 26.2879 125.871 25.8871Z" fill="#C4C4C4"/>
<path d="M169.871 25.891C171.596 24.0425 173.274 20.3369 171.657 18.0582C170.523 16.4529 168.294 16.2697 165.035 15.9841C163.916 15.8863 162.473 15.7688 160.637 16.1557C159.122 16.465 155.647 17.1803 155.222 19.0432C154.772 20.9765 157.622 24.0629 160.588 24.8505C162.012 25.2331 163.506 25.0916 164.809 26.3319C165.491 26.9902 165.58 27.491 166.206 27.7085C167.644 28.1904 169.499 26.2919 169.871 25.891Z" fill="#C4C4C4"/>
<path d="M213.871 25.8949C215.596 24.0465 217.274 20.3408 215.657 18.0621C214.523 16.4568 212.294 16.2736 209.035 15.988C207.916 15.8902 206.473 15.7727 204.637 16.1596C203.122 16.4689 199.647 17.1842 199.222 19.0471C198.772 20.9804 201.622 24.0668 204.588 24.8544C206.012 25.237 207.506 25.0955 208.809 26.3358C209.491 26.9941 209.58 27.4949 210.206 27.7124C211.644 28.1943 213.499 26.2958 213.871 25.8949Z" fill="#C4C4C4"/>
<path d="M13.2051 36H11.6963V31.8691L11.7109 31.1904L11.7354 30.4482C11.4847 30.6989 11.3105 30.8633 11.2129 30.9414L10.3926 31.6006L9.66504 30.6924L11.9648 28.8613H13.2051V36ZM17.7852 31.4395C18.4753 31.4395 19.0238 31.6331 19.4307 32.0205C19.8408 32.4079 20.0459 32.9385 20.0459 33.6123C20.0459 34.4098 19.8001 35.0234 19.3086 35.4531C18.8171 35.8828 18.1139 36.0977 17.1992 36.0977C16.4049 36.0977 15.7637 35.9691 15.2754 35.7119V34.4082C15.5326 34.5449 15.832 34.6572 16.1738 34.7451C16.5156 34.8298 16.8395 34.8721 17.1455 34.8721C18.0667 34.8721 18.5273 34.4945 18.5273 33.7393C18.5273 33.0199 18.0505 32.6602 17.0967 32.6602C16.9242 32.6602 16.7337 32.6781 16.5254 32.7139C16.3171 32.7464 16.1478 32.7822 16.0176 32.8213L15.417 32.499L15.6855 28.8613H19.5576V30.1406H17.0088L16.877 31.542L17.0479 31.5078C17.2464 31.4622 17.4922 31.4395 17.7852 31.4395ZM25.8516 32.4307C25.8516 33.6774 25.6465 34.6003 25.2363 35.1992C24.8294 35.7982 24.2012 36.0977 23.3516 36.0977C22.528 36.0977 21.9062 35.7884 21.4863 35.1699C21.0697 34.5514 20.8613 33.6383 20.8613 32.4307C20.8613 31.1709 21.0648 30.2432 21.4717 29.6475C21.8786 29.0485 22.5052 28.749 23.3516 28.749C24.1751 28.749 24.7969 29.0615 25.2168 29.6865C25.64 30.3115 25.8516 31.2262 25.8516 32.4307ZM22.3604 32.4307C22.3604 33.3063 22.4352 33.9346 22.585 34.3154C22.738 34.693 22.9935 34.8818 23.3516 34.8818C23.7031 34.8818 23.957 34.6898 24.1133 34.3057C24.2695 33.9215 24.3477 33.2965 24.3477 32.4307C24.3477 31.555 24.2679 30.9268 24.1084 30.5459C23.9521 30.1618 23.6999 29.9697 23.3516 29.9697C22.9967 29.9697 22.7428 30.1618 22.5898 30.5459C22.4368 30.9268 22.3604 31.555 22.3604 32.4307ZM30.1338 30.0186C29.7367 30.0186 29.4095 30.1341 29.1523 30.3652C28.8952 30.5931 28.7292 30.9251 28.6543 31.3613H30.6221V32.2207H28.5811L28.5713 32.3916V32.6211L28.5811 32.7822H30.3145V33.6514H28.6641C28.8301 34.4424 29.3525 34.8379 30.2314 34.8379C30.6969 34.8379 31.1445 34.7451 31.5742 34.5596V35.8096C31.1966 36.0016 30.7197 36.0977 30.1436 36.0977C29.346 36.0977 28.6901 35.8812 28.1758 35.4482C27.6615 35.0153 27.3376 34.4163 27.2041 33.6514H26.5352V32.7822H27.1113C27.0983 32.7074 27.0918 32.6064 27.0918 32.4795L27.1016 32.2207H26.5352V31.3613H27.1846C27.305 30.5736 27.6289 29.9518 28.1562 29.4961C28.6836 29.0371 29.3428 28.8076 30.1338 28.8076C30.7458 28.8076 31.3187 28.9411 31.8525 29.208L31.374 30.3408C31.1494 30.2399 30.9395 30.1618 30.7441 30.1064C30.5488 30.0479 30.3454 30.0186 30.1338 30.0186Z" fill="#F5FDFC" fill-opacity="0.75"/>
<path d="M61.1865 30.458C61.1865 30.904 61.0514 31.2832 60.7812 31.5957C60.5111 31.9082 60.1318 32.123 59.6436 32.2402V32.2695C60.2197 32.3411 60.6559 32.5169 60.9521 32.7969C61.2484 33.0736 61.3965 33.4479 61.3965 33.9199C61.3965 34.6068 61.1475 35.1423 60.6494 35.5264C60.1514 35.9072 59.4401 36.0977 58.5156 36.0977C57.7409 36.0977 57.054 35.9691 56.4551 35.7119V34.4277C56.7318 34.5677 57.0361 34.6816 57.3682 34.7695C57.7002 34.8574 58.029 34.9014 58.3545 34.9014C58.8525 34.9014 59.2204 34.8167 59.458 34.6475C59.6956 34.4782 59.8145 34.2064 59.8145 33.832C59.8145 33.4967 59.6777 33.2591 59.4043 33.1191C59.1309 32.9792 58.6947 32.9092 58.0957 32.9092H57.5537V31.752H58.1055C58.6589 31.752 59.0625 31.6803 59.3164 31.5371C59.5736 31.3906 59.7021 31.1416 59.7021 30.79C59.7021 30.2497 59.3636 29.9795 58.6865 29.9795C58.4521 29.9795 58.2129 30.0186 57.9688 30.0967C57.7279 30.1748 57.4593 30.3099 57.1631 30.502L56.4648 29.4619C57.1159 28.9932 57.8923 28.7588 58.7939 28.7588C59.5329 28.7588 60.1156 28.9085 60.542 29.208C60.9717 29.5075 61.1865 29.9242 61.1865 30.458ZM67.1387 32.4307C67.1387 33.6774 66.9336 34.6003 66.5234 35.1992C66.1165 35.7982 65.4883 36.0977 64.6387 36.0977C63.8151 36.0977 63.1934 35.7884 62.7734 35.1699C62.3568 34.5514 62.1484 33.6383 62.1484 32.4307C62.1484 31.1709 62.3519 30.2432 62.7588 29.6475C63.1657 29.0485 63.7923 28.749 64.6387 28.749C65.4622 28.749 66.084 29.0615 66.5039 29.6865C66.9271 30.3115 67.1387 31.2262 67.1387 32.4307ZM63.6475 32.4307C63.6475 33.3063 63.7223 33.9346 63.8721 34.3154C64.0251 34.693 64.2806 34.8818 64.6387 34.8818C64.9902 34.8818 65.2441 34.6898 65.4004 34.3057C65.5566 33.9215 65.6348 33.2965 65.6348 32.4307C65.6348 31.555 65.555 30.9268 65.3955 30.5459C65.2393 30.1618 64.987 29.9697 64.6387 29.9697C64.2839 29.9697 64.0299 30.1618 63.877 30.5459C63.724 30.9268 63.6475 31.555 63.6475 32.4307ZM72.8516 32.4307C72.8516 33.6774 72.6465 34.6003 72.2363 35.1992C71.8294 35.7982 71.2012 36.0977 70.3516 36.0977C69.528 36.0977 68.9062 35.7884 68.4863 35.1699C68.0697 34.5514 67.8613 33.6383 67.8613 32.4307C67.8613 31.1709 68.0648 30.2432 68.4717 29.6475C68.8786 29.0485 69.5052 28.749 70.3516 28.749C71.1751 28.749 71.7969 29.0615 72.2168 29.6865C72.64 30.3115 72.8516 31.2262 72.8516 32.4307ZM69.3604 32.4307C69.3604 33.3063 69.4352 33.9346 69.585 34.3154C69.738 34.693 69.9935 34.8818 70.3516 34.8818C70.7031 34.8818 70.957 34.6898 71.1133 34.3057C71.2695 33.9215 71.3477 33.2965 71.3477 32.4307C71.3477 31.555 71.2679 30.9268 71.1084 30.5459C70.9521 30.1618 70.6999 29.9697 70.3516 29.9697C69.9967 29.9697 69.7428 30.1618 69.5898 30.5459C69.4368 30.9268 69.3604 31.555 69.3604 32.4307ZM77.1338 30.0186C76.7367 30.0186 76.4095 30.1341 76.1523 30.3652C75.8952 30.5931 75.7292 30.9251 75.6543 31.3613H77.6221V32.2207H75.5811L75.5713 32.3916V32.6211L75.5811 32.7822H77.3145V33.6514H75.6641C75.8301 34.4424 76.3525 34.8379 77.2314 34.8379C77.6969 34.8379 78.1445 34.7451 78.5742 34.5596V35.8096C78.1966 36.0016 77.7197 36.0977 77.1436 36.0977C76.346 36.0977 75.6901 35.8812 75.1758 35.4482C74.6615 35.0153 74.3376 34.4163 74.2041 33.6514H73.5352V32.7822H74.1113C74.0983 32.7074 74.0918 32.6064 74.0918 32.4795L74.1016 32.2207H73.5352V31.3613H74.1846C74.305 30.5736 74.6289 29.9518 75.1562 29.4961C75.6836 29.0371 76.3428 28.8076 77.1338 28.8076C77.7458 28.8076 78.3187 28.9411 78.8525 29.208L78.374 30.3408C78.1494 30.2399 77.9395 30.1618 77.7441 30.1064C77.5488 30.0479 77.3454 30.0186 77.1338 30.0186Z" fill="#FEFFFF" fill-opacity="0.75"/>
<path d="M101.072 31.4395C101.762 31.4395 102.311 31.6331 102.718 32.0205C103.128 32.4079 103.333 32.9385 103.333 33.6123C103.333 34.4098 103.087 35.0234 102.596 35.4531C102.104 35.8828 101.401 36.0977 100.486 36.0977C99.6921 36.0977 99.0508 35.9691 98.5625 35.7119V34.4082C98.8197 34.5449 99.1191 34.6572 99.4609 34.7451C99.8027 34.8298 100.127 34.8721 100.433 34.8721C101.354 34.8721 101.814 34.4945 101.814 33.7393C101.814 33.0199 101.338 32.6602 100.384 32.6602C100.211 32.6602 100.021 32.6781 99.8125 32.7139C99.6042 32.7464 99.4349 32.7822 99.3047 32.8213L98.7041 32.499L98.9727 28.8613H102.845V30.1406H100.296L100.164 31.542L100.335 31.5078C100.534 31.4622 100.779 31.4395 101.072 31.4395ZM109.139 32.4307C109.139 33.6774 108.934 34.6003 108.523 35.1992C108.117 35.7982 107.488 36.0977 106.639 36.0977C105.815 36.0977 105.193 35.7884 104.773 35.1699C104.357 34.5514 104.148 33.6383 104.148 32.4307C104.148 31.1709 104.352 30.2432 104.759 29.6475C105.166 29.0485 105.792 28.749 106.639 28.749C107.462 28.749 108.084 29.0615 108.504 29.6865C108.927 30.3115 109.139 31.2262 109.139 32.4307ZM105.647 32.4307C105.647 33.3063 105.722 33.9346 105.872 34.3154C106.025 34.693 106.281 34.8818 106.639 34.8818C106.99 34.8818 107.244 34.6898 107.4 34.3057C107.557 33.9215 107.635 33.2965 107.635 32.4307C107.635 31.555 107.555 30.9268 107.396 30.5459C107.239 30.1618 106.987 29.9697 106.639 29.9697C106.284 29.9697 106.03 30.1618 105.877 30.5459C105.724 30.9268 105.647 31.555 105.647 32.4307ZM114.852 32.4307C114.852 33.6774 114.646 34.6003 114.236 35.1992C113.829 35.7982 113.201 36.0977 112.352 36.0977C111.528 36.0977 110.906 35.7884 110.486 35.1699C110.07 34.5514 109.861 33.6383 109.861 32.4307C109.861 31.1709 110.065 30.2432 110.472 29.6475C110.879 29.0485 111.505 28.749 112.352 28.749C113.175 28.749 113.797 29.0615 114.217 29.6865C114.64 30.3115 114.852 31.2262 114.852 32.4307ZM111.36 32.4307C111.36 33.3063 111.435 33.9346 111.585 34.3154C111.738 34.693 111.993 34.8818 112.352 34.8818C112.703 34.8818 112.957 34.6898 113.113 34.3057C113.27 33.9215 113.348 33.2965 113.348 32.4307C113.348 31.555 113.268 30.9268 113.108 30.5459C112.952 30.1618 112.7 29.9697 112.352 29.9697C111.997 29.9697 111.743 30.1618 111.59 30.5459C111.437 30.9268 111.36 31.555 111.36 32.4307ZM119.134 30.0186C118.737 30.0186 118.41 30.1341 118.152 30.3652C117.895 30.5931 117.729 30.9251 117.654 31.3613H119.622V32.2207H117.581L117.571 32.3916V32.6211L117.581 32.7822H119.314V33.6514H117.664C117.83 34.4424 118.353 34.8379 119.231 34.8379C119.697 34.8379 120.145 34.7451 120.574 34.5596V35.8096C120.197 36.0016 119.72 36.0977 119.144 36.0977C118.346 36.0977 117.69 35.8812 117.176 35.4482C116.661 35.0153 116.338 34.4163 116.204 33.6514H115.535V32.7822H116.111C116.098 32.7074 116.092 32.6064 116.092 32.4795L116.102 32.2207H115.535V31.3613H116.185C116.305 30.5736 116.629 29.9518 117.156 29.4961C117.684 29.0371 118.343 28.8076 119.134 28.8076C119.746 28.8076 120.319 28.9411 120.853 29.208L120.374 30.3408C120.149 30.2399 119.939 30.1618 119.744 30.1064C119.549 30.0479 119.345 30.0186 119.134 30.0186Z" fill="#FAFFFE" fill-opacity="0.75"/>
<path d="M141.183 36L143.863 30.1406H140.343V28.8711H145.465V29.8184L142.765 36H141.183ZM148.785 31.4395C149.475 31.4395 150.024 31.6331 150.431 32.0205C150.841 32.4079 151.046 32.9385 151.046 33.6123C151.046 34.4098 150.8 35.0234 150.309 35.4531C149.817 35.8828 149.114 36.0977 148.199 36.0977C147.405 36.0977 146.764 35.9691 146.275 35.7119V34.4082C146.533 34.5449 146.832 34.6572 147.174 34.7451C147.516 34.8298 147.84 34.8721 148.146 34.8721C149.067 34.8721 149.527 34.4945 149.527 33.7393C149.527 33.0199 149.05 32.6602 148.097 32.6602C147.924 32.6602 147.734 32.6781 147.525 32.7139C147.317 32.7464 147.148 32.7822 147.018 32.8213L146.417 32.499L146.686 28.8613H150.558V30.1406H148.009L147.877 31.542L148.048 31.5078C148.246 31.4622 148.492 31.4395 148.785 31.4395ZM156.852 32.4307C156.852 33.6774 156.646 34.6003 156.236 35.1992C155.829 35.7982 155.201 36.0977 154.352 36.0977C153.528 36.0977 152.906 35.7884 152.486 35.1699C152.07 34.5514 151.861 33.6383 151.861 32.4307C151.861 31.1709 152.065 30.2432 152.472 29.6475C152.879 29.0485 153.505 28.749 154.352 28.749C155.175 28.749 155.797 29.0615 156.217 29.6865C156.64 30.3115 156.852 31.2262 156.852 32.4307ZM153.36 32.4307C153.36 33.3063 153.435 33.9346 153.585 34.3154C153.738 34.693 153.993 34.8818 154.352 34.8818C154.703 34.8818 154.957 34.6898 155.113 34.3057C155.27 33.9215 155.348 33.2965 155.348 32.4307C155.348 31.555 155.268 30.9268 155.108 30.5459C154.952 30.1618 154.7 29.9697 154.352 29.9697C153.997 29.9697 153.743 30.1618 153.59 30.5459C153.437 30.9268 153.36 31.555 153.36 32.4307ZM161.134 30.0186C160.737 30.0186 160.41 30.1341 160.152 30.3652C159.895 30.5931 159.729 30.9251 159.654 31.3613H161.622V32.2207H159.581L159.571 32.3916V32.6211L159.581 32.7822H161.314V33.6514H159.664C159.83 34.4424 160.353 34.8379 161.231 34.8379C161.697 34.8379 162.145 34.7451 162.574 34.5596V35.8096C162.197 36.0016 161.72 36.0977 161.144 36.0977C160.346 36.0977 159.69 35.8812 159.176 35.4482C158.661 35.0153 158.338 34.4163 158.204 33.6514H157.535V32.7822H158.111C158.098 32.7074 158.092 32.6064 158.092 32.4795L158.102 32.2207H157.535V31.3613H158.185C158.305 30.5736 158.629 29.9518 159.156 29.4961C159.684 29.0371 160.343 28.8076 161.134 28.8076C161.746 28.8076 162.319 28.9411 162.853 29.208L162.374 30.3408C162.149 30.2399 161.939 30.1618 161.744 30.1064C161.549 30.0479 161.345 30.0186 161.134 30.0186Z" fill="#F8FDFC" fill-opacity="0.75"/>
<path d="M184.849 36H183.34V31.8691L183.354 31.1904L183.379 30.4482C183.128 30.6989 182.954 30.8633 182.856 30.9414L182.036 31.6006L181.309 30.6924L183.608 28.8613H184.849V36ZM191.782 32.4307C191.782 33.6774 191.577 34.6003 191.167 35.1992C190.76 35.7982 190.132 36.0977 189.282 36.0977C188.459 36.0977 187.837 35.7884 187.417 35.1699C187 34.5514 186.792 33.6383 186.792 32.4307C186.792 31.1709 186.995 30.2432 187.402 29.6475C187.809 29.0485 188.436 28.749 189.282 28.749C190.106 28.749 190.728 29.0615 191.147 29.6865C191.571 30.3115 191.782 31.2262 191.782 32.4307ZM188.291 32.4307C188.291 33.3063 188.366 33.9346 188.516 34.3154C188.669 34.693 188.924 34.8818 189.282 34.8818C189.634 34.8818 189.888 34.6898 190.044 34.3057C190.2 33.9215 190.278 33.2965 190.278 32.4307C190.278 31.555 190.199 30.9268 190.039 30.5459C189.883 30.1618 189.631 29.9697 189.282 29.9697C188.927 29.9697 188.674 30.1618 188.521 30.5459C188.368 30.9268 188.291 31.555 188.291 32.4307ZM197.495 32.4307C197.495 33.6774 197.29 34.6003 196.88 35.1992C196.473 35.7982 195.845 36.0977 194.995 36.0977C194.172 36.0977 193.55 35.7884 193.13 35.1699C192.713 34.5514 192.505 33.6383 192.505 32.4307C192.505 31.1709 192.708 30.2432 193.115 29.6475C193.522 29.0485 194.149 28.749 194.995 28.749C195.819 28.749 196.44 29.0615 196.86 29.6865C197.284 30.3115 197.495 31.2262 197.495 32.4307ZM194.004 32.4307C194.004 33.3063 194.079 33.9346 194.229 34.3154C194.382 34.693 194.637 34.8818 194.995 34.8818C195.347 34.8818 195.601 34.6898 195.757 34.3057C195.913 33.9215 195.991 33.2965 195.991 32.4307C195.991 31.555 195.911 30.9268 195.752 30.5459C195.596 30.1618 195.343 29.9697 194.995 29.9697C194.64 29.9697 194.386 30.1618 194.233 30.5459C194.08 30.9268 194.004 31.555 194.004 32.4307ZM203.208 32.4307C203.208 33.6774 203.003 34.6003 202.593 35.1992C202.186 35.7982 201.558 36.0977 200.708 36.0977C199.884 36.0977 199.263 35.7884 198.843 35.1699C198.426 34.5514 198.218 33.6383 198.218 32.4307C198.218 31.1709 198.421 30.2432 198.828 29.6475C199.235 29.0485 199.862 28.749 200.708 28.749C201.532 28.749 202.153 29.0615 202.573 29.6865C202.996 30.3115 203.208 31.2262 203.208 32.4307ZM199.717 32.4307C199.717 33.3063 199.792 33.9346 199.941 34.3154C200.094 34.693 200.35 34.8818 200.708 34.8818C201.06 34.8818 201.313 34.6898 201.47 34.3057C201.626 33.9215 201.704 33.2965 201.704 32.4307C201.704 31.555 201.624 30.9268 201.465 30.5459C201.309 30.1618 201.056 29.9697 200.708 29.9697C200.353 29.9697 200.099 30.1618 199.946 30.5459C199.793 30.9268 199.717 31.555 199.717 32.4307ZM207.49 30.0186C207.093 30.0186 206.766 30.1341 206.509 30.3652C206.252 30.5931 206.086 30.9251 206.011 31.3613H207.979V32.2207H205.938L205.928 32.3916V32.6211L205.938 32.7822H207.671V33.6514H206.021C206.187 34.4424 206.709 34.8379 207.588 34.8379C208.053 34.8379 208.501 34.7451 208.931 34.5596V35.8096C208.553 36.0016 208.076 36.0977 207.5 36.0977C206.702 36.0977 206.047 35.8812 205.532 35.4482C205.018 35.0153 204.694 34.4163 204.561 33.6514H203.892V32.7822H204.468C204.455 32.7074 204.448 32.6064 204.448 32.4795L204.458 32.2207H203.892V31.3613H204.541C204.661 30.5736 204.985 29.9518 205.513 29.4961C206.04 29.0371 206.699 28.8076 207.49 28.8076C208.102 28.8076 208.675 28.9411 209.209 29.208L208.73 30.3408C208.506 30.2399 208.296 30.1618 208.101 30.1064C207.905 30.0479 207.702 30.0186 207.49 30.0186Z" fill="#F8FDFC" fill-opacity="0.75"/>
<path d="M233.294 35.3018C233.294 35.0283 233.367 34.8216 233.514 34.6816C233.66 34.5417 233.873 34.4717 234.153 34.4717C234.424 34.4717 234.632 34.5433 234.778 34.6865C234.928 34.8298 235.003 35.0348 235.003 35.3018C235.003 35.5589 234.928 35.7624 234.778 35.9121C234.629 36.0586 234.42 36.1318 234.153 36.1318C233.88 36.1318 233.668 36.0602 233.519 35.917C233.369 35.7705 233.294 35.5654 233.294 35.3018ZM236.146 35.3018C236.146 35.0283 236.219 34.8216 236.365 34.6816C236.512 34.5417 236.725 34.4717 237.005 34.4717C237.275 34.4717 237.483 34.5433 237.63 34.6865C237.78 34.8298 237.854 35.0348 237.854 35.3018C237.854 35.5589 237.78 35.7624 237.63 35.9121C237.48 36.0586 237.272 36.1318 237.005 36.1318C236.731 36.1318 236.52 36.0602 236.37 35.917C236.22 35.7705 236.146 35.5654 236.146 35.3018ZM238.997 35.3018C238.997 35.0283 239.07 34.8216 239.217 34.6816C239.363 34.5417 239.576 34.4717 239.856 34.4717C240.127 34.4717 240.335 34.5433 240.481 34.6865C240.631 34.8298 240.706 35.0348 240.706 35.3018C240.706 35.5589 240.631 35.7624 240.481 35.9121C240.332 36.0586 240.123 36.1318 239.856 36.1318C239.583 36.1318 239.371 36.0602 239.222 35.917C239.072 35.7705 238.997 35.5654 238.997 35.3018Z" fill="#F8FDFC" fill-opacity="0.75"/>
<path d="M145.667 21.6667V13C145.667 5.82183 139.098 0 131 0C122.902 0 116.333 5.82183 116.333 13V21.6667H109V52H153V21.6667H145.667ZM133.444 38.3998V43.3333H128.556V38.3998C127.101 37.648 126.111 36.2678 126.111 34.6667C126.111 32.2747 128.301 30.3333 131 30.3333C133.699 30.3333 135.889 32.2747 135.889 34.6667C135.889 36.2657 134.901 37.648 133.444 38.3998ZM121.222 21.6667V13C121.222 8.22033 125.608 4.33333 131 4.33333C136.39 4.33333 140.778 8.22033 140.778 13V21.6667H121.222Z" fill="#185F56"/>
</svg>
