<svg width="262" height="29" viewBox="0 0 262 29" fill="none" xmlns="http://www.w3.org/2000/svg">
<path d="M7.68 17.3L6.35 18.53L5.65 17.7L7.79 15.92H8.88V23H7.68V17.3ZM11.318 19.46C11.318 18.9 11.3613 18.4233 11.448 18.03C11.5413 17.63 11.6613 17.2967 11.808 17.03C11.9546 16.7567 12.118 16.54 12.298 16.38C12.4846 16.2133 12.6713 16.09 12.858 16.01C13.0513 15.9233 13.2346 15.8667 13.408 15.84C13.588 15.8133 13.7446 15.8 13.878 15.8C14.0113 15.8 14.1646 15.8133 14.338 15.84C14.518 15.8667 14.7013 15.9233 14.888 16.01C15.0813 16.09 15.268 16.2133 15.448 16.38C15.6346 16.54 15.8013 16.7567 15.948 17.03C16.0946 17.2967 16.2113 17.63 16.298 18.03C16.3913 18.4233 16.438 18.9 16.438 19.46C16.438 20.02 16.3913 20.5 16.298 20.9C16.2113 21.2933 16.0946 21.6267 15.948 21.9C15.8013 22.1667 15.6346 22.3833 15.448 22.55C15.268 22.71 15.0813 22.8333 14.888 22.92C14.7013 23 14.518 23.0533 14.338 23.08C14.1646 23.1067 14.0113 23.12 13.878 23.12C13.7446 23.12 13.588 23.1067 13.408 23.08C13.2346 23.0533 13.0513 23 12.858 22.92C12.6713 22.8333 12.4846 22.71 12.298 22.55C12.118 22.3833 11.9546 22.1667 11.808 21.9C11.6613 21.6267 11.5413 21.2933 11.448 20.9C11.3613 20.5 11.318 20.02 11.318 19.46ZM12.518 19.46C12.518 19.68 12.5313 19.9367 12.558 20.23C12.5913 20.5167 12.6546 20.79 12.748 21.05C12.8413 21.31 12.978 21.53 13.158 21.71C13.338 21.89 13.578 21.98 13.878 21.98C14.178 21.98 14.418 21.89 14.598 21.71C14.778 21.53 14.9146 21.31 15.008 21.05C15.1013 20.79 15.1613 20.5167 15.188 20.23C15.2213 19.9367 15.238 19.68 15.238 19.46C15.238 19.24 15.2213 18.9867 15.188 18.7C15.1613 18.4067 15.1013 18.13 15.008 17.87C14.9146 17.61 14.778 17.39 14.598 17.21C14.418 17.03 14.178 16.94 13.878 16.94C13.578 16.94 13.338 17.03 13.158 17.21C12.978 17.39 12.8413 17.61 12.748 17.87C12.6546 18.13 12.5913 18.4067 12.558 18.7C12.5313 18.9867 12.518 19.24 12.518 19.46ZM17.2359 19.46C17.2359 18.9 17.2793 18.4233 17.3659 18.03C17.4593 17.63 17.5793 17.2967 17.7259 17.03C17.8726 16.7567 18.0359 16.54 18.2159 16.38C18.4026 16.2133 18.5893 16.09 18.7759 16.01C18.9693 15.9233 19.1526 15.8667 19.3259 15.84C19.5059 15.8133 19.6626 15.8 19.7959 15.8C19.9293 15.8 20.0826 15.8133 20.2559 15.84C20.4359 15.8667 20.6193 15.9233 20.8059 16.01C20.9993 16.09 21.1859 16.2133 21.3659 16.38C21.5526 16.54 21.7193 16.7567 21.8659 17.03C22.0126 17.2967 22.1293 17.63 22.2159 18.03C22.3093 18.4233 22.3559 18.9 22.3559 19.46C22.3559 20.02 22.3093 20.5 22.2159 20.9C22.1293 21.2933 22.0126 21.6267 21.8659 21.9C21.7193 22.1667 21.5526 22.3833 21.3659 22.55C21.1859 22.71 20.9993 22.8333 20.8059 22.92C20.6193 23 20.4359 23.0533 20.2559 23.08C20.0826 23.1067 19.9293 23.12 19.7959 23.12C19.6626 23.12 19.5059 23.1067 19.3259 23.08C19.1526 23.0533 18.9693 23 18.7759 22.92C18.5893 22.8333 18.4026 22.71 18.2159 22.55C18.0359 22.3833 17.8726 22.1667 17.7259 21.9C17.5793 21.6267 17.4593 21.2933 17.3659 20.9C17.2793 20.5 17.2359 20.02 17.2359 19.46ZM18.4359 19.46C18.4359 19.68 18.4493 19.9367 18.4759 20.23C18.5093 20.5167 18.5726 20.79 18.6659 21.05C18.7593 21.31 18.8959 21.53 19.0759 21.71C19.2559 21.89 19.4959 21.98 19.7959 21.98C20.0959 21.98 20.3359 21.89 20.5159 21.71C20.6959 21.53 20.8326 21.31 20.9259 21.05C21.0193 20.79 21.0793 20.5167 21.1059 20.23C21.1393 19.9367 21.1559 19.68 21.1559 19.46C21.1559 19.24 21.1393 18.9867 21.1059 18.7C21.0793 18.4067 21.0193 18.13 20.9259 17.87C20.8326 17.61 20.6959 17.39 20.5159 17.21C20.3359 17.03 20.0959 16.94 19.7959 16.94C19.4959 16.94 19.2559 17.03 19.0759 17.21C18.8959 17.39 18.7593 17.61 18.6659 17.87C18.5726 18.13 18.5093 18.4067 18.4759 18.7C18.4493 18.9867 18.4359 19.24 18.4359 19.46ZM23.1539 19.46C23.1539 18.9 23.1972 18.4233 23.2839 18.03C23.3772 17.63 23.4972 17.2967 23.6439 17.03C23.7906 16.7567 23.9539 16.54 24.1339 16.38C24.3206 16.2133 24.5072 16.09 24.6939 16.01C24.8872 15.9233 25.0706 15.8667 25.2439 15.84C25.4239 15.8133 25.5806 15.8 25.7139 15.8C25.8472 15.8 26.0006 15.8133 26.1739 15.84C26.3539 15.8667 26.5372 15.9233 26.7239 16.01C26.9172 16.09 27.1039 16.2133 27.2839 16.38C27.4706 16.54 27.6372 16.7567 27.7839 17.03C27.9306 17.2967 28.0472 17.63 28.1339 18.03C28.2272 18.4233 28.2739 18.9 28.2739 19.46C28.2739 20.02 28.2272 20.5 28.1339 20.9C28.0472 21.2933 27.9306 21.6267 27.7839 21.9C27.6372 22.1667 27.4706 22.3833 27.2839 22.55C27.1039 22.71 26.9172 22.8333 26.7239 22.92C26.5372 23 26.3539 23.0533 26.1739 23.08C26.0006 23.1067 25.8472 23.12 25.7139 23.12C25.5806 23.12 25.4239 23.1067 25.2439 23.08C25.0706 23.0533 24.8872 23 24.6939 22.92C24.5072 22.8333 24.3206 22.71 24.1339 22.55C23.9539 22.3833 23.7906 22.1667 23.6439 21.9C23.4972 21.6267 23.3772 21.2933 23.2839 20.9C23.1972 20.5 23.1539 20.02 23.1539 19.46ZM24.3539 19.46C24.3539 19.68 24.3672 19.9367 24.3939 20.23C24.4272 20.5167 24.4906 20.79 24.5839 21.05C24.6772 21.31 24.8139 21.53 24.9939 21.71C25.1739 21.89 25.4139 21.98 25.7139 21.98C26.0139 21.98 26.2539 21.89 26.4339 21.71C26.6139 21.53 26.7506 21.31 26.8439 21.05C26.9372 20.79 26.9972 20.5167 27.0239 20.23C27.0572 19.9367 27.0739 19.68 27.0739 19.46C27.0739 19.24 27.0572 18.9867 27.0239 18.7C26.9972 18.4067 26.9372 18.13 26.8439 17.87C26.7506 17.61 26.6139 17.39 26.4339 17.21C26.2539 17.03 26.0139 16.94 25.7139 16.94C25.4139 16.94 25.1739 17.03 24.9939 17.21C24.8139 17.39 24.6772 17.61 24.5839 17.87C24.4906 18.13 24.4272 18.4067 24.3939 18.7C24.3672 18.9867 24.3539 19.24 24.3539 19.46ZM37.4709 22.75C37.2775 22.8767 37.0242 22.98 36.7109 23.06C36.4042 23.14 36.0709 23.18 35.7109 23.18C35.2575 23.18 34.8542 23.1167 34.5009 22.99C34.1542 22.8633 33.8542 22.69 33.6009 22.47C33.3475 22.25 33.1409 21.9967 32.9809 21.71C32.8209 21.4167 32.7009 21.1067 32.6209 20.78H31.7809L32.0609 19.92H32.5109C32.5042 19.8867 32.5009 19.85 32.5009 19.81C32.5009 19.77 32.5009 19.7333 32.5009 19.7V19.48C32.5009 19.4 32.5009 19.32 32.5009 19.24C32.5075 19.1533 32.5175 19.0733 32.5309 19H31.8109L32.1109 18.14H32.6609C32.7609 17.7733 32.9075 17.4433 33.1009 17.15C33.2942 16.8567 33.5242 16.6067 33.7909 16.4C34.0642 16.1867 34.3709 16.0233 34.7109 15.91C35.0575 15.7967 35.4309 15.74 35.8309 15.74C36.1509 15.74 36.4509 15.7733 36.7309 15.84C37.0175 15.9 37.2509 15.9767 37.4309 16.07L37.0509 17.07C36.8975 16.9767 36.7075 16.9067 36.4809 16.86C36.2542 16.8133 36.0175 16.79 35.7709 16.79C35.5709 16.79 35.3709 16.82 35.1709 16.88C34.9709 16.94 34.7842 17.0267 34.6109 17.14C34.4442 17.2533 34.2942 17.3933 34.1609 17.56C34.0342 17.7267 33.9375 17.92 33.8709 18.14H36.7509L36.4709 19H33.6809C33.6609 19.14 33.6509 19.3033 33.6509 19.49V19.7C33.6509 19.74 33.6509 19.78 33.6509 19.82C33.6575 19.8533 33.6642 19.8867 33.6709 19.92H36.2309L35.9609 20.78H33.8209C33.8675 20.9667 33.9475 21.1433 34.0609 21.31C34.1742 21.47 34.3142 21.61 34.4809 21.73C34.6475 21.85 34.8375 21.9467 35.0509 22.02C35.2642 22.0867 35.4975 22.12 35.7509 22.12C36.2509 22.12 36.6875 22.01 37.0609 21.79L37.4709 22.75Z" fill="#185F56" fill-opacity="0.5"/>
<path d="M0 29V9H40.6101L46 18.6137L40.6101 29H0Z" fill="#98D0C8"/>
<path d="M49.3216 18.5652L44 9H84.3176L90 18.5652L84.3176 29H44L49.3216 18.5652Z" fill="#92DBA6"/>
<path d="M92.2059 18.5652L87 9H126.441L132 18.5652L126.441 29H87L92.2059 18.5652Z" fill="#9DE27C"/>
<path d="M134.322 18.5652L129 9H169.318L175 18.5652L169.318 29H129L134.322 18.5652Z" fill="#9ECB0A"/>
<path d="M177.322 18.5652L172 9H212.318L218 18.5652L212.318 29H172L177.322 18.5652Z" fill="#25AD32"/>
<path d="M220.322 18.5652L215 9H255.318L261 18.5652L255.318 29H215L220.322 18.5652Z" fill="#C4C4C4"/>
<path d="M38.8713 12.8832C40.5957 11.0347 42.2739 7.32904 40.6573 5.05035C39.5233 3.44512 37.2942 3.26184 34.0347 2.97629C32.9158 2.87845 31.4726 2.76096 29.6366 3.1479C28.122 3.45719 24.6473 4.17246 24.2219 6.03536C23.772 7.96873 26.622 11.0551 29.5876 11.8427C31.0125 12.2253 32.5057 12.0838 33.8087 13.3241C34.4911 13.9824 34.5803 14.4832 35.2057 14.7007C36.6441 15.1826 38.4985 13.284 38.8713 12.8832Z" fill="#98D0C8" stroke="#161616" stroke-width="0.230003" stroke-miterlimit="10"/>
<path d="M30.2085 9.55078V8.69629H32.0439V9.55078H30.2085ZM35.1475 11H34.0913V8.1084L34.1016 7.6333L34.1187 7.11377C33.9432 7.28923 33.8213 7.4043 33.7529 7.45898L33.1787 7.92041L32.6694 7.28467L34.2793 6.00293H35.1475V11Z" fill="white"/>
<path d="M85.8713 12.8832C87.5957 11.0347 89.2739 7.32904 87.6573 5.05035C86.5233 3.44512 84.2942 3.26184 81.0347 2.97629C79.9158 2.87845 78.4726 2.76096 76.6366 3.1479C75.122 3.45719 71.6473 4.17246 71.2219 6.03536C70.772 7.96873 73.622 11.0551 76.5876 11.8427C78.0125 12.2253 79.5057 12.0838 80.8087 13.3241C81.4911 13.9824 81.5803 14.4832 82.2057 14.7007C83.6441 15.1826 85.4985 13.284 85.8713 12.8832Z" fill="#92DBA6" stroke="#161616" stroke-width="0.230003" stroke-miterlimit="10"/>
<path d="M77.2085 9.55078V8.69629H79.0439V9.55078H77.2085ZM82.1475 11H81.0913V8.1084L81.1016 7.6333L81.1187 7.11377C80.9432 7.28923 80.8213 7.4043 80.7529 7.45898L80.1787 7.92041L79.6694 7.28467L81.2793 6.00293H82.1475V11Z" fill="white"/>
<path d="M125.871 12.8832C127.596 11.0347 129.274 7.32904 127.657 5.05035C126.523 3.44512 124.294 3.26184 121.035 2.97629C119.916 2.87845 118.473 2.76096 116.637 3.1479C115.122 3.45719 111.647 4.17246 111.222 6.03536C110.772 7.96873 113.622 11.0551 116.588 11.8427C118.012 12.2253 119.506 12.0838 120.809 13.3241C121.491 13.9824 121.58 14.4832 122.206 14.7007C123.644 15.1826 125.499 13.284 125.871 12.8832Z" fill="#9DE27C" stroke="#161616" stroke-width="0.230003" stroke-miterlimit="10"/>
<path d="M117.208 9.55078V8.69629H119.044V9.55078H117.208ZM123.029 11H119.536V10.2651L120.791 8.99707C121.162 8.61654 121.405 8.35335 121.519 8.20752C121.632 8.05941 121.715 7.92269 121.765 7.79736C121.815 7.67204 121.84 7.54215 121.84 7.40771C121.84 7.20719 121.784 7.05794 121.672 6.95996C121.563 6.86198 121.416 6.81299 121.231 6.81299C121.038 6.81299 120.85 6.85742 120.667 6.94629C120.485 7.03516 120.295 7.16162 120.097 7.32568L119.522 6.64551C119.769 6.43587 119.972 6.28776 120.134 6.20117C120.296 6.11458 120.473 6.0485 120.664 6.00293C120.855 5.95508 121.07 5.93115 121.307 5.93115C121.619 5.93115 121.895 5.98812 122.134 6.10205C122.373 6.21598 122.559 6.37549 122.691 6.58057C122.823 6.78564 122.889 7.02035 122.889 7.28467C122.889 7.51481 122.848 7.73128 122.766 7.93408C122.686 8.1346 122.561 8.34082 122.39 8.55273C122.222 8.76465 121.923 9.06657 121.495 9.4585L120.852 10.0635V10.1113H123.029V11Z" fill="white"/>
<path d="M169.871 12.8832C171.596 11.0347 173.274 7.32904 171.657 5.05035C170.523 3.44512 168.294 3.26184 165.035 2.97629C163.916 2.87845 162.473 2.76096 160.637 3.1479C159.122 3.45719 155.647 4.17246 155.222 6.03536C154.772 7.96873 157.622 11.0551 160.588 11.8427C162.012 12.2253 163.506 12.0838 164.809 13.3241C165.491 13.9824 165.58 14.4832 166.206 14.7007C167.644 15.1826 169.499 13.284 169.871 12.8832Z" fill="#9ECB0A" stroke="#161616" stroke-width="0.230003" stroke-miterlimit="10"/>
<path d="M161.208 9.55078V8.69629H163.044V9.55078H161.208ZM167.029 11H163.536V10.2651L164.791 8.99707C165.162 8.61654 165.405 8.35335 165.519 8.20752C165.632 8.05941 165.715 7.92269 165.765 7.79736C165.815 7.67204 165.84 7.54215 165.84 7.40771C165.84 7.20719 165.784 7.05794 165.672 6.95996C165.563 6.86198 165.416 6.81299 165.231 6.81299C165.038 6.81299 164.85 6.85742 164.667 6.94629C164.485 7.03516 164.295 7.16162 164.097 7.32568L163.522 6.64551C163.769 6.43587 163.972 6.28776 164.134 6.20117C164.296 6.11458 164.473 6.0485 164.664 6.00293C164.855 5.95508 165.07 5.93115 165.307 5.93115C165.619 5.93115 165.895 5.98812 166.134 6.10205C166.373 6.21598 166.559 6.37549 166.691 6.58057C166.823 6.78564 166.889 7.02035 166.889 7.28467C166.889 7.51481 166.848 7.73128 166.766 7.93408C166.686 8.1346 166.561 8.34082 166.39 8.55273C166.222 8.76465 165.923 9.06657 165.495 9.4585L164.852 10.0635V10.1113H167.029V11Z" fill="white"/>
<path d="M213.871 12.8832C215.596 11.0347 217.274 7.32904 215.657 5.05035C214.523 3.44512 212.294 3.26184 209.035 2.97629C207.916 2.87845 206.473 2.76096 204.637 3.1479C203.122 3.45719 199.647 4.17246 199.222 6.03536C198.772 7.96873 201.622 11.0551 204.588 11.8427C206.012 12.2253 207.506 12.0838 208.809 13.3241C209.491 13.9824 209.58 14.4832 210.206 14.7007C211.644 15.1826 213.499 13.284 213.871 12.8832Z" fill="#25AD32" stroke="#161616" stroke-width="0.230003" stroke-miterlimit="10"/>
<path d="M205.208 9.55078V8.69629H207.044V9.55078H205.208ZM210.834 7.12061C210.834 7.43278 210.74 7.69824 210.551 7.91699C210.362 8.13574 210.096 8.28613 209.754 8.36816V8.38867C210.158 8.4388 210.463 8.56185 210.67 8.75781C210.878 8.9515 210.981 9.21354 210.981 9.54395C210.981 10.0247 210.807 10.3996 210.458 10.6685C210.11 10.9351 209.612 11.0684 208.965 11.0684C208.423 11.0684 207.942 10.9784 207.522 10.7983V9.89941C207.716 9.9974 207.929 10.0771 208.162 10.1387C208.394 10.2002 208.624 10.231 208.852 10.231C209.201 10.231 209.458 10.1717 209.625 10.0532C209.791 9.93473 209.874 9.74447 209.874 9.48242C209.874 9.24772 209.778 9.08138 209.587 8.9834C209.396 8.88542 209.09 8.83643 208.671 8.83643H208.292V8.02637H208.678C209.065 8.02637 209.348 7.97624 209.525 7.87598C209.705 7.77344 209.795 7.59912 209.795 7.35303C209.795 6.97477 209.558 6.78564 209.084 6.78564C208.92 6.78564 208.753 6.81299 208.582 6.86768C208.413 6.92236 208.225 7.01693 208.018 7.15137L207.529 6.42334C207.985 6.09521 208.528 5.93115 209.16 5.93115C209.677 5.93115 210.085 6.03597 210.383 6.24561C210.684 6.45524 210.834 6.74691 210.834 7.12061Z" fill="white"/>
<path d="M257.871 12.8832C259.596 11.0347 261.274 7.32904 259.657 5.05035C258.523 3.44512 256.294 3.26184 253.035 2.97629C251.916 2.87845 250.473 2.76096 248.637 3.1479C247.122 3.45719 243.647 4.17246 243.222 6.03536C242.772 7.96873 245.622 11.0551 248.588 11.8427C250.012 12.2253 251.506 12.0838 252.809 13.3241C253.491 13.9824 253.58 14.4832 254.206 14.7007C255.644 15.1826 257.499 13.284 257.871 12.8832Z" fill="#C4C4C4" stroke="#161616" stroke-width="0.230003" stroke-miterlimit="10"/>
<path d="M13.2051 23H11.6963V18.8691L11.7109 18.1904L11.7354 17.4482C11.4847 17.6989 11.3105 17.8633 11.2129 17.9414L10.3926 18.6006L9.66504 17.6924L11.9648 15.8613H13.2051V23ZM17.7852 18.4395C18.4753 18.4395 19.0238 18.6331 19.4307 19.0205C19.8408 19.4079 20.0459 19.9385 20.0459 20.6123C20.0459 21.4098 19.8001 22.0234 19.3086 22.4531C18.8171 22.8828 18.1139 23.0977 17.1992 23.0977C16.4049 23.0977 15.7637 22.9691 15.2754 22.7119V21.4082C15.5326 21.5449 15.832 21.6572 16.1738 21.7451C16.5156 21.8298 16.8395 21.8721 17.1455 21.8721C18.0667 21.8721 18.5273 21.4945 18.5273 20.7393C18.5273 20.0199 18.0505 19.6602 17.0967 19.6602C16.9242 19.6602 16.7337 19.6781 16.5254 19.7139C16.3171 19.7464 16.1478 19.7822 16.0176 19.8213L15.417 19.499L15.6855 15.8613H19.5576V17.1406H17.0088L16.877 18.542L17.0479 18.5078C17.2464 18.4622 17.4922 18.4395 17.7852 18.4395ZM25.8516 19.4307C25.8516 20.6774 25.6465 21.6003 25.2363 22.1992C24.8294 22.7982 24.2012 23.0977 23.3516 23.0977C22.528 23.0977 21.9062 22.7884 21.4863 22.1699C21.0697 21.5514 20.8613 20.6383 20.8613 19.4307C20.8613 18.1709 21.0648 17.2432 21.4717 16.6475C21.8786 16.0485 22.5052 15.749 23.3516 15.749C24.1751 15.749 24.7969 16.0615 25.2168 16.6865C25.64 17.3115 25.8516 18.2262 25.8516 19.4307ZM22.3604 19.4307C22.3604 20.3063 22.4352 20.9346 22.585 21.3154C22.738 21.693 22.9935 21.8818 23.3516 21.8818C23.7031 21.8818 23.957 21.6898 24.1133 21.3057C24.2695 20.9215 24.3477 20.2965 24.3477 19.4307C24.3477 18.555 24.2679 17.9268 24.1084 17.5459C23.9521 17.1618 23.6999 16.9697 23.3516 16.9697C22.9967 16.9697 22.7428 17.1618 22.5898 17.5459C22.4368 17.9268 22.3604 18.555 22.3604 19.4307ZM30.1338 17.0186C29.7367 17.0186 29.4095 17.1341 29.1523 17.3652C28.8952 17.5931 28.7292 17.9251 28.6543 18.3613H30.6221V19.2207H28.5811L28.5713 19.3916V19.6211L28.5811 19.7822H30.3145V20.6514H28.6641C28.8301 21.4424 29.3525 21.8379 30.2314 21.8379C30.6969 21.8379 31.1445 21.7451 31.5742 21.5596V22.8096C31.1966 23.0016 30.7197 23.0977 30.1436 23.0977C29.346 23.0977 28.6901 22.8812 28.1758 22.4482C27.6615 22.0153 27.3376 21.4163 27.2041 20.6514H26.5352V19.7822H27.1113C27.0983 19.7074 27.0918 19.6064 27.0918 19.4795L27.1016 19.2207H26.5352V18.3613H27.1846C27.305 17.5736 27.6289 16.9518 28.1562 16.4961C28.6836 16.0371 29.3428 15.8076 30.1338 15.8076C30.7458 15.8076 31.3187 15.9411 31.8525 16.208L31.374 17.3408C31.1494 17.2399 30.9395 17.1618 30.7441 17.1064C30.5488 17.0479 30.3454 17.0186 30.1338 17.0186Z" fill="#F5FDFC"/>
<path d="M61.1865 17.458C61.1865 17.904 61.0514 18.2832 60.7812 18.5957C60.5111 18.9082 60.1318 19.123 59.6436 19.2402V19.2695C60.2197 19.3411 60.6559 19.5169 60.9521 19.7969C61.2484 20.0736 61.3965 20.4479 61.3965 20.9199C61.3965 21.6068 61.1475 22.1423 60.6494 22.5264C60.1514 22.9072 59.4401 23.0977 58.5156 23.0977C57.7409 23.0977 57.054 22.9691 56.4551 22.7119V21.4277C56.7318 21.5677 57.0361 21.6816 57.3682 21.7695C57.7002 21.8574 58.029 21.9014 58.3545 21.9014C58.8525 21.9014 59.2204 21.8167 59.458 21.6475C59.6956 21.4782 59.8145 21.2064 59.8145 20.832C59.8145 20.4967 59.6777 20.2591 59.4043 20.1191C59.1309 19.9792 58.6947 19.9092 58.0957 19.9092H57.5537V18.752H58.1055C58.6589 18.752 59.0625 18.6803 59.3164 18.5371C59.5736 18.3906 59.7021 18.1416 59.7021 17.79C59.7021 17.2497 59.3636 16.9795 58.6865 16.9795C58.4521 16.9795 58.2129 17.0186 57.9688 17.0967C57.7279 17.1748 57.4593 17.3099 57.1631 17.502L56.4648 16.4619C57.1159 15.9932 57.8923 15.7588 58.7939 15.7588C59.5329 15.7588 60.1156 15.9085 60.542 16.208C60.9717 16.5075 61.1865 16.9242 61.1865 17.458ZM67.1387 19.4307C67.1387 20.6774 66.9336 21.6003 66.5234 22.1992C66.1165 22.7982 65.4883 23.0977 64.6387 23.0977C63.8151 23.0977 63.1934 22.7884 62.7734 22.1699C62.3568 21.5514 62.1484 20.6383 62.1484 19.4307C62.1484 18.1709 62.3519 17.2432 62.7588 16.6475C63.1657 16.0485 63.7923 15.749 64.6387 15.749C65.4622 15.749 66.084 16.0615 66.5039 16.6865C66.9271 17.3115 67.1387 18.2262 67.1387 19.4307ZM63.6475 19.4307C63.6475 20.3063 63.7223 20.9346 63.8721 21.3154C64.0251 21.693 64.2806 21.8818 64.6387 21.8818C64.9902 21.8818 65.2441 21.6898 65.4004 21.3057C65.5566 20.9215 65.6348 20.2965 65.6348 19.4307C65.6348 18.555 65.555 17.9268 65.3955 17.5459C65.2393 17.1618 64.987 16.9697 64.6387 16.9697C64.2839 16.9697 64.0299 17.1618 63.877 17.5459C63.724 17.9268 63.6475 18.555 63.6475 19.4307ZM72.8516 19.4307C72.8516 20.6774 72.6465 21.6003 72.2363 22.1992C71.8294 22.7982 71.2012 23.0977 70.3516 23.0977C69.528 23.0977 68.9062 22.7884 68.4863 22.1699C68.0697 21.5514 67.8613 20.6383 67.8613 19.4307C67.8613 18.1709 68.0648 17.2432 68.4717 16.6475C68.8786 16.0485 69.5052 15.749 70.3516 15.749C71.1751 15.749 71.7969 16.0615 72.2168 16.6865C72.64 17.3115 72.8516 18.2262 72.8516 19.4307ZM69.3604 19.4307C69.3604 20.3063 69.4352 20.9346 69.585 21.3154C69.738 21.693 69.9935 21.8818 70.3516 21.8818C70.7031 21.8818 70.957 21.6898 71.1133 21.3057C71.2695 20.9215 71.3477 20.2965 71.3477 19.4307C71.3477 18.555 71.2679 17.9268 71.1084 17.5459C70.9521 17.1618 70.6999 16.9697 70.3516 16.9697C69.9967 16.9697 69.7428 17.1618 69.5898 17.5459C69.4368 17.9268 69.3604 18.555 69.3604 19.4307ZM77.1338 17.0186C76.7367 17.0186 76.4095 17.1341 76.1523 17.3652C75.8952 17.5931 75.7292 17.9251 75.6543 18.3613H77.6221V19.2207H75.5811L75.5713 19.3916V19.6211L75.5811 19.7822H77.3145V20.6514H75.6641C75.8301 21.4424 76.3525 21.8379 77.2314 21.8379C77.6969 21.8379 78.1445 21.7451 78.5742 21.5596V22.8096C78.1966 23.0016 77.7197 23.0977 77.1436 23.0977C76.346 23.0977 75.6901 22.8812 75.1758 22.4482C74.6615 22.0153 74.3376 21.4163 74.2041 20.6514H73.5352V19.7822H74.1113C74.0983 19.7074 74.0918 19.6064 74.0918 19.4795L74.1016 19.2207H73.5352V18.3613H74.1846C74.305 17.5736 74.6289 16.9518 75.1562 16.4961C75.6836 16.0371 76.3428 15.8076 77.1338 15.8076C77.7458 15.8076 78.3187 15.9411 78.8525 16.208L78.374 17.3408C78.1494 17.2399 77.9395 17.1618 77.7441 17.1064C77.5488 17.0479 77.3454 17.0186 77.1338 17.0186Z" fill="#FEFFFF"/>
<path d="M101.072 18.4395C101.762 18.4395 102.311 18.6331 102.718 19.0205C103.128 19.4079 103.333 19.9385 103.333 20.6123C103.333 21.4098 103.087 22.0234 102.596 22.4531C102.104 22.8828 101.401 23.0977 100.486 23.0977C99.6921 23.0977 99.0508 22.9691 98.5625 22.7119V21.4082C98.8197 21.5449 99.1191 21.6572 99.4609 21.7451C99.8027 21.8298 100.127 21.8721 100.433 21.8721C101.354 21.8721 101.814 21.4945 101.814 20.7393C101.814 20.0199 101.338 19.6602 100.384 19.6602C100.211 19.6602 100.021 19.6781 99.8125 19.7139C99.6042 19.7464 99.4349 19.7822 99.3047 19.8213L98.7041 19.499L98.9727 15.8613H102.845V17.1406H100.296L100.164 18.542L100.335 18.5078C100.534 18.4622 100.779 18.4395 101.072 18.4395ZM109.139 19.4307C109.139 20.6774 108.934 21.6003 108.523 22.1992C108.117 22.7982 107.488 23.0977 106.639 23.0977C105.815 23.0977 105.193 22.7884 104.773 22.1699C104.357 21.5514 104.148 20.6383 104.148 19.4307C104.148 18.1709 104.352 17.2432 104.759 16.6475C105.166 16.0485 105.792 15.749 106.639 15.749C107.462 15.749 108.084 16.0615 108.504 16.6865C108.927 17.3115 109.139 18.2262 109.139 19.4307ZM105.647 19.4307C105.647 20.3063 105.722 20.9346 105.872 21.3154C106.025 21.693 106.281 21.8818 106.639 21.8818C106.99 21.8818 107.244 21.6898 107.4 21.3057C107.557 20.9215 107.635 20.2965 107.635 19.4307C107.635 18.555 107.555 17.9268 107.396 17.5459C107.239 17.1618 106.987 16.9697 106.639 16.9697C106.284 16.9697 106.03 17.1618 105.877 17.5459C105.724 17.9268 105.647 18.555 105.647 19.4307ZM114.852 19.4307C114.852 20.6774 114.646 21.6003 114.236 22.1992C113.829 22.7982 113.201 23.0977 112.352 23.0977C111.528 23.0977 110.906 22.7884 110.486 22.1699C110.07 21.5514 109.861 20.6383 109.861 19.4307C109.861 18.1709 110.065 17.2432 110.472 16.6475C110.879 16.0485 111.505 15.749 112.352 15.749C113.175 15.749 113.797 16.0615 114.217 16.6865C114.64 17.3115 114.852 18.2262 114.852 19.4307ZM111.36 19.4307C111.36 20.3063 111.435 20.9346 111.585 21.3154C111.738 21.693 111.993 21.8818 112.352 21.8818C112.703 21.8818 112.957 21.6898 113.113 21.3057C113.27 20.9215 113.348 20.2965 113.348 19.4307C113.348 18.555 113.268 17.9268 113.108 17.5459C112.952 17.1618 112.7 16.9697 112.352 16.9697C111.997 16.9697 111.743 17.1618 111.59 17.5459C111.437 17.9268 111.36 18.555 111.36 19.4307ZM119.134 17.0186C118.737 17.0186 118.41 17.1341 118.152 17.3652C117.895 17.5931 117.729 17.9251 117.654 18.3613H119.622V19.2207H117.581L117.571 19.3916V19.6211L117.581 19.7822H119.314V20.6514H117.664C117.83 21.4424 118.353 21.8379 119.231 21.8379C119.697 21.8379 120.145 21.7451 120.574 21.5596V22.8096C120.197 23.0016 119.72 23.0977 119.144 23.0977C118.346 23.0977 117.69 22.8812 117.176 22.4482C116.661 22.0153 116.338 21.4163 116.204 20.6514H115.535V19.7822H116.111C116.098 19.7074 116.092 19.6064 116.092 19.4795L116.102 19.2207H115.535V18.3613H116.185C116.305 17.5736 116.629 16.9518 117.156 16.4961C117.684 16.0371 118.343 15.8076 119.134 15.8076C119.746 15.8076 120.319 15.9411 120.853 16.208L120.374 17.3408C120.149 17.2399 119.939 17.1618 119.744 17.1064C119.549 17.0479 119.345 17.0186 119.134 17.0186Z" fill="#FAFFFE"/>
<path d="M141.183 23L143.863 17.1406H140.343V15.8711H145.465V16.8184L142.765 23H141.183ZM148.785 18.4395C149.475 18.4395 150.024 18.6331 150.431 19.0205C150.841 19.4079 151.046 19.9385 151.046 20.6123C151.046 21.4098 150.8 22.0234 150.309 22.4531C149.817 22.8828 149.114 23.0977 148.199 23.0977C147.405 23.0977 146.764 22.9691 146.275 22.7119V21.4082C146.533 21.5449 146.832 21.6572 147.174 21.7451C147.516 21.8298 147.84 21.8721 148.146 21.8721C149.067 21.8721 149.527 21.4945 149.527 20.7393C149.527 20.0199 149.05 19.6602 148.097 19.6602C147.924 19.6602 147.734 19.6781 147.525 19.7139C147.317 19.7464 147.148 19.7822 147.018 19.8213L146.417 19.499L146.686 15.8613H150.558V17.1406H148.009L147.877 18.542L148.048 18.5078C148.246 18.4622 148.492 18.4395 148.785 18.4395ZM156.852 19.4307C156.852 20.6774 156.646 21.6003 156.236 22.1992C155.829 22.7982 155.201 23.0977 154.352 23.0977C153.528 23.0977 152.906 22.7884 152.486 22.1699C152.07 21.5514 151.861 20.6383 151.861 19.4307C151.861 18.1709 152.065 17.2432 152.472 16.6475C152.879 16.0485 153.505 15.749 154.352 15.749C155.175 15.749 155.797 16.0615 156.217 16.6865C156.64 17.3115 156.852 18.2262 156.852 19.4307ZM153.36 19.4307C153.36 20.3063 153.435 20.9346 153.585 21.3154C153.738 21.693 153.993 21.8818 154.352 21.8818C154.703 21.8818 154.957 21.6898 155.113 21.3057C155.27 20.9215 155.348 20.2965 155.348 19.4307C155.348 18.555 155.268 17.9268 155.108 17.5459C154.952 17.1618 154.7 16.9697 154.352 16.9697C153.997 16.9697 153.743 17.1618 153.59 17.5459C153.437 17.9268 153.36 18.555 153.36 19.4307ZM161.134 17.0186C160.737 17.0186 160.41 17.1341 160.152 17.3652C159.895 17.5931 159.729 17.9251 159.654 18.3613H161.622V19.2207H159.581L159.571 19.3916V19.6211L159.581 19.7822H161.314V20.6514H159.664C159.83 21.4424 160.353 21.8379 161.231 21.8379C161.697 21.8379 162.145 21.7451 162.574 21.5596V22.8096C162.197 23.0016 161.72 23.0977 161.144 23.0977C160.346 23.0977 159.69 22.8812 159.176 22.4482C158.661 22.0153 158.338 21.4163 158.204 20.6514H157.535V19.7822H158.111C158.098 19.7074 158.092 19.6064 158.092 19.4795L158.102 19.2207H157.535V18.3613H158.185C158.305 17.5736 158.629 16.9518 159.156 16.4961C159.684 16.0371 160.343 15.8076 161.134 15.8076C161.746 15.8076 162.319 15.9411 162.853 16.208L162.374 17.3408C162.149 17.2399 161.939 17.1618 161.744 17.1064C161.549 17.0479 161.345 17.0186 161.134 17.0186Z" fill="#F8FDFC"/>
<path d="M184.849 23H183.34V18.8691L183.354 18.1904L183.379 17.4482C183.128 17.6989 182.954 17.8633 182.856 17.9414L182.036 18.6006L181.309 17.6924L183.608 15.8613H184.849V23ZM191.782 19.4307C191.782 20.6774 191.577 21.6003 191.167 22.1992C190.76 22.7982 190.132 23.0977 189.282 23.0977C188.459 23.0977 187.837 22.7884 187.417 22.1699C187 21.5514 186.792 20.6383 186.792 19.4307C186.792 18.1709 186.995 17.2432 187.402 16.6475C187.809 16.0485 188.436 15.749 189.282 15.749C190.106 15.749 190.728 16.0615 191.147 16.6865C191.571 17.3115 191.782 18.2262 191.782 19.4307ZM188.291 19.4307C188.291 20.3063 188.366 20.9346 188.516 21.3154C188.669 21.693 188.924 21.8818 189.282 21.8818C189.634 21.8818 189.888 21.6898 190.044 21.3057C190.2 20.9215 190.278 20.2965 190.278 19.4307C190.278 18.555 190.199 17.9268 190.039 17.5459C189.883 17.1618 189.631 16.9697 189.282 16.9697C188.927 16.9697 188.674 17.1618 188.521 17.5459C188.368 17.9268 188.291 18.555 188.291 19.4307ZM197.495 19.4307C197.495 20.6774 197.29 21.6003 196.88 22.1992C196.473 22.7982 195.845 23.0977 194.995 23.0977C194.172 23.0977 193.55 22.7884 193.13 22.1699C192.713 21.5514 192.505 20.6383 192.505 19.4307C192.505 18.1709 192.708 17.2432 193.115 16.6475C193.522 16.0485 194.149 15.749 194.995 15.749C195.819 15.749 196.44 16.0615 196.86 16.6865C197.284 17.3115 197.495 18.2262 197.495 19.4307ZM194.004 19.4307C194.004 20.3063 194.079 20.9346 194.229 21.3154C194.382 21.693 194.637 21.8818 194.995 21.8818C195.347 21.8818 195.601 21.6898 195.757 21.3057C195.913 20.9215 195.991 20.2965 195.991 19.4307C195.991 18.555 195.911 17.9268 195.752 17.5459C195.596 17.1618 195.343 16.9697 194.995 16.9697C194.64 16.9697 194.386 17.1618 194.233 17.5459C194.08 17.9268 194.004 18.555 194.004 19.4307ZM203.208 19.4307C203.208 20.6774 203.003 21.6003 202.593 22.1992C202.186 22.7982 201.558 23.0977 200.708 23.0977C199.884 23.0977 199.263 22.7884 198.843 22.1699C198.426 21.5514 198.218 20.6383 198.218 19.4307C198.218 18.1709 198.421 17.2432 198.828 16.6475C199.235 16.0485 199.862 15.749 200.708 15.749C201.532 15.749 202.153 16.0615 202.573 16.6865C202.996 17.3115 203.208 18.2262 203.208 19.4307ZM199.717 19.4307C199.717 20.3063 199.792 20.9346 199.941 21.3154C200.094 21.693 200.35 21.8818 200.708 21.8818C201.06 21.8818 201.313 21.6898 201.47 21.3057C201.626 20.9215 201.704 20.2965 201.704 19.4307C201.704 18.555 201.624 17.9268 201.465 17.5459C201.309 17.1618 201.056 16.9697 200.708 16.9697C200.353 16.9697 200.099 17.1618 199.946 17.5459C199.793 17.9268 199.717 18.555 199.717 19.4307ZM207.49 17.0186C207.093 17.0186 206.766 17.1341 206.509 17.3652C206.252 17.5931 206.086 17.9251 206.011 18.3613H207.979V19.2207H205.938L205.928 19.3916V19.6211L205.938 19.7822H207.671V20.6514H206.021C206.187 21.4424 206.709 21.8379 207.588 21.8379C208.053 21.8379 208.501 21.7451 208.931 21.5596V22.8096C208.553 23.0016 208.076 23.0977 207.5 23.0977C206.702 23.0977 206.047 22.8812 205.532 22.4482C205.018 22.0153 204.694 21.4163 204.561 20.6514H203.892V19.7822H204.468C204.455 19.7074 204.448 19.6064 204.448 19.4795L204.458 19.2207H203.892V18.3613H204.541C204.661 17.5736 204.985 16.9518 205.513 16.4961C206.04 16.0371 206.699 15.8076 207.49 15.8076C208.102 15.8076 208.675 15.9411 209.209 16.208L208.73 17.3408C208.506 17.2399 208.296 17.1618 208.101 17.1064C207.905 17.0479 207.702 17.0186 207.49 17.0186Z" fill="#F8FDFC"/>
<path d="M233.294 22.3018C233.294 22.0283 233.367 21.8216 233.514 21.6816C233.66 21.5417 233.873 21.4717 234.153 21.4717C234.424 21.4717 234.632 21.5433 234.778 21.6865C234.928 21.8298 235.003 22.0348 235.003 22.3018C235.003 22.5589 234.928 22.7624 234.778 22.9121C234.629 23.0586 234.42 23.1318 234.153 23.1318C233.88 23.1318 233.668 23.0602 233.519 22.917C233.369 22.7705 233.294 22.5654 233.294 22.3018ZM236.146 22.3018C236.146 22.0283 236.219 21.8216 236.365 21.6816C236.512 21.5417 236.725 21.4717 237.005 21.4717C237.275 21.4717 237.483 21.5433 237.63 21.6865C237.78 21.8298 237.854 22.0348 237.854 22.3018C237.854 22.5589 237.78 22.7624 237.63 22.9121C237.48 23.0586 237.272 23.1318 237.005 23.1318C236.731 23.1318 236.52 23.0602 236.37 22.917C236.22 22.7705 236.146 22.5654 236.146 22.3018ZM238.997 22.3018C238.997 22.0283 239.07 21.8216 239.217 21.6816C239.363 21.5417 239.576 21.4717 239.856 21.4717C240.127 21.4717 240.335 21.5433 240.481 21.6865C240.631 21.8298 240.706 22.0348 240.706 22.3018C240.706 22.5589 240.631 22.7624 240.481 22.9121C240.332 23.0586 240.123 23.1318 239.856 23.1318C239.583 23.1318 239.371 23.0602 239.222 22.917C239.072 22.7705 238.997 22.5654 238.997 22.3018Z" fill="#F8FDFC"/>
<path d="M254.167 7.5V6.5C254.167 5.67175 253.42 5 252.5 5C251.58 5 250.833 5.67175 250.833 6.5V7.5H250V11H255V7.5H254.167ZM252.778 9.43075V10H252.222V9.43075C252.057 9.344 251.944 9.18475 251.944 9C251.944 8.724 252.193 8.5 252.5 8.5C252.807 8.5 253.056 8.724 253.056 9C253.056 9.1845 252.943 9.344 252.778 9.43075ZM251.389 7.5V6.5C251.389 5.9485 251.887 5.5 252.5 5.5C253.113 5.5 253.611 5.9485 253.611 6.5V7.5H251.389Z" fill="#FAFFFE"/>
<path d="M7.68 17.3L6.35 18.53L5.65 17.7L7.79 15.92H8.88V23H7.68V17.3ZM11.318 19.46C11.318 18.9 11.3613 18.4233 11.448 18.03C11.5413 17.63 11.6613 17.2967 11.808 17.03C11.9546 16.7567 12.118 16.54 12.298 16.38C12.4846 16.2133 12.6713 16.09 12.858 16.01C13.0513 15.9233 13.2346 15.8667 13.408 15.84C13.588 15.8133 13.7446 15.8 13.878 15.8C14.0113 15.8 14.1646 15.8133 14.338 15.84C14.518 15.8667 14.7013 15.9233 14.888 16.01C15.0813 16.09 15.268 16.2133 15.448 16.38C15.6346 16.54 15.8013 16.7567 15.948 17.03C16.0946 17.2967 16.2113 17.63 16.298 18.03C16.3913 18.4233 16.438 18.9 16.438 19.46C16.438 20.02 16.3913 20.5 16.298 20.9C16.2113 21.2933 16.0946 21.6267 15.948 21.9C15.8013 22.1667 15.6346 22.3833 15.448 22.55C15.268 22.71 15.0813 22.8333 14.888 22.92C14.7013 23 14.518 23.0533 14.338 23.08C14.1646 23.1067 14.0113 23.12 13.878 23.12C13.7446 23.12 13.588 23.1067 13.408 23.08C13.2346 23.0533 13.0513 23 12.858 22.92C12.6713 22.8333 12.4846 22.71 12.298 22.55C12.118 22.3833 11.9546 22.1667 11.808 21.9C11.6613 21.6267 11.5413 21.2933 11.448 20.9C11.3613 20.5 11.318 20.02 11.318 19.46ZM12.518 19.46C12.518 19.68 12.5313 19.9367 12.558 20.23C12.5913 20.5167 12.6546 20.79 12.748 21.05C12.8413 21.31 12.978 21.53 13.158 21.71C13.338 21.89 13.578 21.98 13.878 21.98C14.178 21.98 14.418 21.89 14.598 21.71C14.778 21.53 14.9146 21.31 15.008 21.05C15.1013 20.79 15.1613 20.5167 15.188 20.23C15.2213 19.9367 15.238 19.68 15.238 19.46C15.238 19.24 15.2213 18.9867 15.188 18.7C15.1613 18.4067 15.1013 18.13 15.008 17.87C14.9146 17.61 14.778 17.39 14.598 17.21C14.418 17.03 14.178 16.94 13.878 16.94C13.578 16.94 13.338 17.03 13.158 17.21C12.978 17.39 12.8413 17.61 12.748 17.87C12.6546 18.13 12.5913 18.4067 12.558 18.7C12.5313 18.9867 12.518 19.24 12.518 19.46ZM17.2359 19.46C17.2359 18.9 17.2793 18.4233 17.3659 18.03C17.4593 17.63 17.5793 17.2967 17.7259 17.03C17.8726 16.7567 18.0359 16.54 18.2159 16.38C18.4026 16.2133 18.5893 16.09 18.7759 16.01C18.9693 15.9233 19.1526 15.8667 19.3259 15.84C19.5059 15.8133 19.6626 15.8 19.7959 15.8C19.9293 15.8 20.0826 15.8133 20.2559 15.84C20.4359 15.8667 20.6193 15.9233 20.8059 16.01C20.9993 16.09 21.1859 16.2133 21.3659 16.38C21.5526 16.54 21.7193 16.7567 21.8659 17.03C22.0126 17.2967 22.1293 17.63 22.2159 18.03C22.3093 18.4233 22.3559 18.9 22.3559 19.46C22.3559 20.02 22.3093 20.5 22.2159 20.9C22.1293 21.2933 22.0126 21.6267 21.8659 21.9C21.7193 22.1667 21.5526 22.3833 21.3659 22.55C21.1859 22.71 20.9993 22.8333 20.8059 22.92C20.6193 23 20.4359 23.0533 20.2559 23.08C20.0826 23.1067 19.9293 23.12 19.7959 23.12C19.6626 23.12 19.5059 23.1067 19.3259 23.08C19.1526 23.0533 18.9693 23 18.7759 22.92C18.5893 22.8333 18.4026 22.71 18.2159 22.55C18.0359 22.3833 17.8726 22.1667 17.7259 21.9C17.5793 21.6267 17.4593 21.2933 17.3659 20.9C17.2793 20.5 17.2359 20.02 17.2359 19.46ZM18.4359 19.46C18.4359 19.68 18.4493 19.9367 18.4759 20.23C18.5093 20.5167 18.5726 20.79 18.6659 21.05C18.7593 21.31 18.8959 21.53 19.0759 21.71C19.2559 21.89 19.4959 21.98 19.7959 21.98C20.0959 21.98 20.3359 21.89 20.5159 21.71C20.6959 21.53 20.8326 21.31 20.9259 21.05C21.0193 20.79 21.0793 20.5167 21.1059 20.23C21.1393 19.9367 21.1559 19.68 21.1559 19.46C21.1559 19.24 21.1393 18.9867 21.1059 18.7C21.0793 18.4067 21.0193 18.13 20.9259 17.87C20.8326 17.61 20.6959 17.39 20.5159 17.21C20.3359 17.03 20.0959 16.94 19.7959 16.94C19.4959 16.94 19.2559 17.03 19.0759 17.21C18.8959 17.39 18.7593 17.61 18.6659 17.87C18.5726 18.13 18.5093 18.4067 18.4759 18.7C18.4493 18.9867 18.4359 19.24 18.4359 19.46ZM23.1539 19.46C23.1539 18.9 23.1972 18.4233 23.2839 18.03C23.3772 17.63 23.4972 17.2967 23.6439 17.03C23.7906 16.7567 23.9539 16.54 24.1339 16.38C24.3206 16.2133 24.5072 16.09 24.6939 16.01C24.8872 15.9233 25.0706 15.8667 25.2439 15.84C25.4239 15.8133 25.5806 15.8 25.7139 15.8C25.8472 15.8 26.0006 15.8133 26.1739 15.84C26.3539 15.8667 26.5372 15.9233 26.7239 16.01C26.9172 16.09 27.1039 16.2133 27.2839 16.38C27.4706 16.54 27.6372 16.7567 27.7839 17.03C27.9306 17.2967 28.0472 17.63 28.1339 18.03C28.2272 18.4233 28.2739 18.9 28.2739 19.46C28.2739 20.02 28.2272 20.5 28.1339 20.9C28.0472 21.2933 27.9306 21.6267 27.7839 21.9C27.6372 22.1667 27.4706 22.3833 27.2839 22.55C27.1039 22.71 26.9172 22.8333 26.7239 22.92C26.5372 23 26.3539 23.0533 26.1739 23.08C26.0006 23.1067 25.8472 23.12 25.7139 23.12C25.5806 23.12 25.4239 23.1067 25.2439 23.08C25.0706 23.0533 24.8872 23 24.6939 22.92C24.5072 22.8333 24.3206 22.71 24.1339 22.55C23.9539 22.3833 23.7906 22.1667 23.6439 21.9C23.4972 21.6267 23.3772 21.2933 23.2839 20.9C23.1972 20.5 23.1539 20.02 23.1539 19.46ZM24.3539 19.46C24.3539 19.68 24.3672 19.9367 24.3939 20.23C24.4272 20.5167 24.4906 20.79 24.5839 21.05C24.6772 21.31 24.8139 21.53 24.9939 21.71C25.1739 21.89 25.4139 21.98 25.7139 21.98C26.0139 21.98 26.2539 21.89 26.4339 21.71C26.6139 21.53 26.7506 21.31 26.8439 21.05C26.9372 20.79 26.9972 20.5167 27.0239 20.23C27.0572 19.9367 27.0739 19.68 27.0739 19.46C27.0739 19.24 27.0572 18.9867 27.0239 18.7C26.9972 18.4067 26.9372 18.13 26.8439 17.87C26.7506 17.61 26.6139 17.39 26.4339 17.21C26.2539 17.03 26.0139 16.94 25.7139 16.94C25.4139 16.94 25.1739 17.03 24.9939 17.21C24.8139 17.39 24.6772 17.61 24.5839 17.87C24.4906 18.13 24.4272 18.4067 24.3939 18.7C24.3672 18.9867 24.3539 19.24 24.3539 19.46ZM37.4709 22.75C37.2775 22.8767 37.0242 22.98 36.7109 23.06C36.4042 23.14 36.0709 23.18 35.7109 23.18C35.2575 23.18 34.8542 23.1167 34.5009 22.99C34.1542 22.8633 33.8542 22.69 33.6009 22.47C33.3475 22.25 33.1409 21.9967 32.9809 21.71C32.8209 21.4167 32.7009 21.1067 32.6209 20.78H31.7809L32.0609 19.92H32.5109C32.5042 19.8867 32.5009 19.85 32.5009 19.81C32.5009 19.77 32.5009 19.7333 32.5009 19.7V19.48C32.5009 19.4 32.5009 19.32 32.5009 19.24C32.5075 19.1533 32.5175 19.0733 32.5309 19H31.8109L32.1109 18.14H32.6609C32.7609 17.7733 32.9075 17.4433 33.1009 17.15C33.2942 16.8567 33.5242 16.6067 33.7909 16.4C34.0642 16.1867 34.3709 16.0233 34.7109 15.91C35.0575 15.7967 35.4309 15.74 35.8309 15.74C36.1509 15.74 36.4509 15.7733 36.7309 15.84C37.0175 15.9 37.2509 15.9767 37.4309 16.07L37.0509 17.07C36.8975 16.9767 36.7075 16.9067 36.4809 16.86C36.2542 16.8133 36.0175 16.79 35.7709 16.79C35.5709 16.79 35.3709 16.82 35.1709 16.88C34.9709 16.94 34.7842 17.0267 34.6109 17.14C34.4442 17.2533 34.2942 17.3933 34.1609 17.56C34.0342 17.7267 33.9375 17.92 33.8709 18.14H36.7509L36.4709 19H33.6809C33.6609 19.14 33.6509 19.3033 33.6509 19.49V19.7C33.6509 19.74 33.6509 19.78 33.6509 19.82C33.6575 19.8533 33.6642 19.8867 33.6709 19.92H36.2309L35.9609 20.78H33.8209C33.8675 20.9667 33.9475 21.1433 34.0609 21.31C34.1742 21.47 34.3142 21.61 34.4809 21.73C34.6475 21.85 34.8375 21.9467 35.0509 22.02C35.2642 22.0867 35.4975 22.12 35.7509 22.12C36.2509 22.12 36.6875 22.01 37.0609 21.79L37.4709 22.75Z" fill="#185F56" fill-opacity="0.5"/>
<path d="M0 29V9H40.6101L46 18.6137L40.6101 29H0Z" fill="#98D0C8"/>
<path d="M49.3216 18.5652L44 9H84.3176L90 18.5652L84.3176 29H44L49.3216 18.5652Z" fill="#92DBA6"/>
<path d="M92.2059 18.5652L87 9H126.441L132 18.5652L126.441 29H87L92.2059 18.5652Z" fill="#9DE27C"/>
<path d="M134.322 18.5652L129 9H169.318L175 18.5652L169.318 29H129L134.322 18.5652Z" fill="#9ECB0A"/>
<path d="M177.322 18.5652L172 9H212.318L218 18.5652L212.318 29H172L177.322 18.5652Z" fill="#25AD32"/>
<path d="M220.322 18.5652L215 9H255.318L261 18.5652L255.318 29H215L220.322 18.5652Z" fill="#C4C4C4"/>
<path d="M38.8713 12.8832C40.5957 11.0347 42.2739 7.32904 40.6573 5.05035C39.5233 3.44512 37.2942 3.26184 34.0347 2.97629C32.9158 2.87845 31.4726 2.76096 29.6366 3.1479C28.122 3.45719 24.6473 4.17246 24.2219 6.03536C23.772 7.96873 26.622 11.0551 29.5876 11.8427C31.0125 12.2253 32.5057 12.0838 33.8087 13.3241C34.4911 13.9824 34.5803 14.4832 35.2057 14.7007C36.6441 15.1826 38.4985 13.284 38.8713 12.8832Z" fill="#98D0C8" stroke="#161616" stroke-width="0.230003" stroke-miterlimit="10"/>
<path d="M30.2085 9.55078V8.69629H32.0439V9.55078H30.2085ZM35.1475 11H34.0913V8.1084L34.1016 7.6333L34.1187 7.11377C33.9432 7.28923 33.8213 7.4043 33.7529 7.45898L33.1787 7.92041L32.6694 7.28467L34.2793 6.00293H35.1475V11Z" fill="white"/>
<path d="M85.8713 12.8832C87.5957 11.0347 89.2739 7.32904 87.6573 5.05035C86.5233 3.44512 84.2942 3.26184 81.0347 2.97629C79.9158 2.87845 78.4726 2.76096 76.6366 3.1479C75.122 3.45719 71.6473 4.17246 71.2219 6.03536C70.772 7.96873 73.622 11.0551 76.5876 11.8427C78.0125 12.2253 79.5057 12.0838 80.8087 13.3241C81.4911 13.9824 81.5803 14.4832 82.2057 14.7007C83.6441 15.1826 85.4985 13.284 85.8713 12.8832Z" fill="#92DBA6" stroke="#161616" stroke-width="0.230003" stroke-miterlimit="10"/>
<path d="M77.2085 9.55078V8.69629H79.0439V9.55078H77.2085ZM82.1475 11H81.0913V8.1084L81.1016 7.6333L81.1187 7.11377C80.9432 7.28923 80.8213 7.4043 80.7529 7.45898L80.1787 7.92041L79.6694 7.28467L81.2793 6.00293H82.1475V11Z" fill="white"/>
<path d="M125.871 12.8832C127.596 11.0347 129.274 7.32904 127.657 5.05035C126.523 3.44512 124.294 3.26184 121.035 2.97629C119.916 2.87845 118.473 2.76096 116.637 3.1479C115.122 3.45719 111.647 4.17246 111.222 6.03536C110.772 7.96873 113.622 11.0551 116.588 11.8427C118.012 12.2253 119.506 12.0838 120.809 13.3241C121.491 13.9824 121.58 14.4832 122.206 14.7007C123.644 15.1826 125.499 13.284 125.871 12.8832Z" fill="#9DE27C" stroke="#161616" stroke-width="0.230003" stroke-miterlimit="10"/>
<path d="M117.208 9.55078V8.69629H119.044V9.55078H117.208ZM123.029 11H119.536V10.2651L120.791 8.99707C121.162 8.61654 121.405 8.35335 121.519 8.20752C121.632 8.05941 121.715 7.92269 121.765 7.79736C121.815 7.67204 121.84 7.54215 121.84 7.40771C121.84 7.20719 121.784 7.05794 121.672 6.95996C121.563 6.86198 121.416 6.81299 121.231 6.81299C121.038 6.81299 120.85 6.85742 120.667 6.94629C120.485 7.03516 120.295 7.16162 120.097 7.32568L119.522 6.64551C119.769 6.43587 119.972 6.28776 120.134 6.20117C120.296 6.11458 120.473 6.0485 120.664 6.00293C120.855 5.95508 121.07 5.93115 121.307 5.93115C121.619 5.93115 121.895 5.98812 122.134 6.10205C122.373 6.21598 122.559 6.37549 122.691 6.58057C122.823 6.78564 122.889 7.02035 122.889 7.28467C122.889 7.51481 122.848 7.73128 122.766 7.93408C122.686 8.1346 122.561 8.34082 122.39 8.55273C122.222 8.76465 121.923 9.06657 121.495 9.4585L120.852 10.0635V10.1113H123.029V11Z" fill="white"/>
<path d="M169.871 12.8832C171.596 11.0347 173.274 7.32904 171.657 5.05035C170.523 3.44512 168.294 3.26184 165.035 2.97629C163.916 2.87845 162.473 2.76096 160.637 3.1479C159.122 3.45719 155.647 4.17246 155.222 6.03536C154.772 7.96873 157.622 11.0551 160.588 11.8427C162.012 12.2253 163.506 12.0838 164.809 13.3241C165.491 13.9824 165.58 14.4832 166.206 14.7007C167.644 15.1826 169.499 13.284 169.871 12.8832Z" fill="#9ECB0A" stroke="#161616" stroke-width="0.230003" stroke-miterlimit="10"/>
<path d="M161.208 9.55078V8.69629H163.044V9.55078H161.208ZM167.029 11H163.536V10.2651L164.791 8.99707C165.162 8.61654 165.405 8.35335 165.519 8.20752C165.632 8.05941 165.715 7.92269 165.765 7.79736C165.815 7.67204 165.84 7.54215 165.84 7.40771C165.84 7.20719 165.784 7.05794 165.672 6.95996C165.563 6.86198 165.416 6.81299 165.231 6.81299C165.038 6.81299 164.85 6.85742 164.667 6.94629C164.485 7.03516 164.295 7.16162 164.097 7.32568L163.522 6.64551C163.769 6.43587 163.972 6.28776 164.134 6.20117C164.296 6.11458 164.473 6.0485 164.664 6.00293C164.855 5.95508 165.07 5.93115 165.307 5.93115C165.619 5.93115 165.895 5.98812 166.134 6.10205C166.373 6.21598 166.559 6.37549 166.691 6.58057C166.823 6.78564 166.889 7.02035 166.889 7.28467C166.889 7.51481 166.848 7.73128 166.766 7.93408C166.686 8.1346 166.561 8.34082 166.39 8.55273C166.222 8.76465 165.923 9.06657 165.495 9.4585L164.852 10.0635V10.1113H167.029V11Z" fill="white"/>
<path d="M213.871 12.8832C215.596 11.0347 217.274 7.32904 215.657 5.05035C214.523 3.44512 212.294 3.26184 209.035 2.97629C207.916 2.87845 206.473 2.76096 204.637 3.1479C203.122 3.45719 199.647 4.17246 199.222 6.03536C198.772 7.96873 201.622 11.0551 204.588 11.8427C206.012 12.2253 207.506 12.0838 208.809 13.3241C209.491 13.9824 209.58 14.4832 210.206 14.7007C211.644 15.1826 213.499 13.284 213.871 12.8832Z" fill="#25AD32" stroke="#161616" stroke-width="0.230003" stroke-miterlimit="10"/>
<path d="M205.208 9.55078V8.69629H207.044V9.55078H205.208ZM210.834 7.12061C210.834 7.43278 210.74 7.69824 210.551 7.91699C210.362 8.13574 210.096 8.28613 209.754 8.36816V8.38867C210.158 8.4388 210.463 8.56185 210.67 8.75781C210.878 8.9515 210.981 9.21354 210.981 9.54395C210.981 10.0247 210.807 10.3996 210.458 10.6685C210.11 10.9351 209.612 11.0684 208.965 11.0684C208.423 11.0684 207.942 10.9784 207.522 10.7983V9.89941C207.716 9.9974 207.929 10.0771 208.162 10.1387C208.394 10.2002 208.624 10.231 208.852 10.231C209.201 10.231 209.458 10.1717 209.625 10.0532C209.791 9.93473 209.874 9.74447 209.874 9.48242C209.874 9.24772 209.778 9.08138 209.587 8.9834C209.396 8.88542 209.09 8.83643 208.671 8.83643H208.292V8.02637H208.678C209.065 8.02637 209.348 7.97624 209.525 7.87598C209.705 7.77344 209.795 7.59912 209.795 7.35303C209.795 6.97477 209.558 6.78564 209.084 6.78564C208.92 6.78564 208.753 6.81299 208.582 6.86768C208.413 6.92236 208.225 7.01693 208.018 7.15137L207.529 6.42334C207.985 6.09521 208.528 5.93115 209.16 5.93115C209.677 5.93115 210.085 6.03597 210.383 6.24561C210.684 6.45524 210.834 6.74691 210.834 7.12061Z" fill="white"/>
<path d="M257.871 12.8832C259.596 11.0347 261.274 7.32904 259.657 5.05035C258.523 3.44512 256.294 3.26184 253.035 2.97629C251.916 2.87845 250.473 2.76096 248.637 3.1479C247.122 3.45719 243.647 4.17246 243.222 6.03536C242.772 7.96873 245.622 11.0551 248.588 11.8427C250.012 12.2253 251.506 12.0838 252.809 13.3241C253.491 13.9824 253.58 14.4832 254.206 14.7007C255.644 15.1826 257.499 13.284 257.871 12.8832Z" fill="#C4C4C4" stroke="#161616" stroke-width="0.230003" stroke-miterlimit="10"/>
<path d="M13.2051 23H11.6963V18.8691L11.7109 18.1904L11.7354 17.4482C11.4847 17.6989 11.3105 17.8633 11.2129 17.9414L10.3926 18.6006L9.66504 17.6924L11.9648 15.8613H13.2051V23ZM17.7852 18.4395C18.4753 18.4395 19.0238 18.6331 19.4307 19.0205C19.8408 19.4079 20.0459 19.9385 20.0459 20.6123C20.0459 21.4098 19.8001 22.0234 19.3086 22.4531C18.8171 22.8828 18.1139 23.0977 17.1992 23.0977C16.4049 23.0977 15.7637 22.9691 15.2754 22.7119V21.4082C15.5326 21.5449 15.832 21.6572 16.1738 21.7451C16.5156 21.8298 16.8395 21.8721 17.1455 21.8721C18.0667 21.8721 18.5273 21.4945 18.5273 20.7393C18.5273 20.0199 18.0505 19.6602 17.0967 19.6602C16.9242 19.6602 16.7337 19.6781 16.5254 19.7139C16.3171 19.7464 16.1478 19.7822 16.0176 19.8213L15.417 19.499L15.6855 15.8613H19.5576V17.1406H17.0088L16.877 18.542L17.0479 18.5078C17.2464 18.4622 17.4922 18.4395 17.7852 18.4395ZM25.8516 19.4307C25.8516 20.6774 25.6465 21.6003 25.2363 22.1992C24.8294 22.7982 24.2012 23.0977 23.3516 23.0977C22.528 23.0977 21.9062 22.7884 21.4863 22.1699C21.0697 21.5514 20.8613 20.6383 20.8613 19.4307C20.8613 18.1709 21.0648 17.2432 21.4717 16.6475C21.8786 16.0485 22.5052 15.749 23.3516 15.749C24.1751 15.749 24.7969 16.0615 25.2168 16.6865C25.64 17.3115 25.8516 18.2262 25.8516 19.4307ZM22.3604 19.4307C22.3604 20.3063 22.4352 20.9346 22.585 21.3154C22.738 21.693 22.9935 21.8818 23.3516 21.8818C23.7031 21.8818 23.957 21.6898 24.1133 21.3057C24.2695 20.9215 24.3477 20.2965 24.3477 19.4307C24.3477 18.555 24.2679 17.9268 24.1084 17.5459C23.9521 17.1618 23.6999 16.9697 23.3516 16.9697C22.9967 16.9697 22.7428 17.1618 22.5898 17.5459C22.4368 17.9268 22.3604 18.555 22.3604 19.4307ZM30.1338 17.0186C29.7367 17.0186 29.4095 17.1341 29.1523 17.3652C28.8952 17.5931 28.7292 17.9251 28.6543 18.3613H30.6221V19.2207H28.5811L28.5713 19.3916V19.6211L28.5811 19.7822H30.3145V20.6514H28.6641C28.8301 21.4424 29.3525 21.8379 30.2314 21.8379C30.6969 21.8379 31.1445 21.7451 31.5742 21.5596V22.8096C31.1966 23.0016 30.7197 23.0977 30.1436 23.0977C29.346 23.0977 28.6901 22.8812 28.1758 22.4482C27.6615 22.0153 27.3376 21.4163 27.2041 20.6514H26.5352V19.7822H27.1113C27.0983 19.7074 27.0918 19.6064 27.0918 19.4795L27.1016 19.2207H26.5352V18.3613H27.1846C27.305 17.5736 27.6289 16.9518 28.1562 16.4961C28.6836 16.0371 29.3428 15.8076 30.1338 15.8076C30.7458 15.8076 31.3187 15.9411 31.8525 16.208L31.374 17.3408C31.1494 17.2399 30.9395 17.1618 30.7441 17.1064C30.5488 17.0479 30.3454 17.0186 30.1338 17.0186Z" fill="#F5FDFC"/>
<path d="M61.1865 17.458C61.1865 17.904 61.0514 18.2832 60.7812 18.5957C60.5111 18.9082 60.1318 19.123 59.6436 19.2402V19.2695C60.2197 19.3411 60.6559 19.5169 60.9521 19.7969C61.2484 20.0736 61.3965 20.4479 61.3965 20.9199C61.3965 21.6068 61.1475 22.1423 60.6494 22.5264C60.1514 22.9072 59.4401 23.0977 58.5156 23.0977C57.7409 23.0977 57.054 22.9691 56.4551 22.7119V21.4277C56.7318 21.5677 57.0361 21.6816 57.3682 21.7695C57.7002 21.8574 58.029 21.9014 58.3545 21.9014C58.8525 21.9014 59.2204 21.8167 59.458 21.6475C59.6956 21.4782 59.8145 21.2064 59.8145 20.832C59.8145 20.4967 59.6777 20.2591 59.4043 20.1191C59.1309 19.9792 58.6947 19.9092 58.0957 19.9092H57.5537V18.752H58.1055C58.6589 18.752 59.0625 18.6803 59.3164 18.5371C59.5736 18.3906 59.7021 18.1416 59.7021 17.79C59.7021 17.2497 59.3636 16.9795 58.6865 16.9795C58.4521 16.9795 58.2129 17.0186 57.9688 17.0967C57.7279 17.1748 57.4593 17.3099 57.1631 17.502L56.4648 16.4619C57.1159 15.9932 57.8923 15.7588 58.7939 15.7588C59.5329 15.7588 60.1156 15.9085 60.542 16.208C60.9717 16.5075 61.1865 16.9242 61.1865 17.458ZM67.1387 19.4307C67.1387 20.6774 66.9336 21.6003 66.5234 22.1992C66.1165 22.7982 65.4883 23.0977 64.6387 23.0977C63.8151 23.0977 63.1934 22.7884 62.7734 22.1699C62.3568 21.5514 62.1484 20.6383 62.1484 19.4307C62.1484 18.1709 62.3519 17.2432 62.7588 16.6475C63.1657 16.0485 63.7923 15.749 64.6387 15.749C65.4622 15.749 66.084 16.0615 66.5039 16.6865C66.9271 17.3115 67.1387 18.2262 67.1387 19.4307ZM63.6475 19.4307C63.6475 20.3063 63.7223 20.9346 63.8721 21.3154C64.0251 21.693 64.2806 21.8818 64.6387 21.8818C64.9902 21.8818 65.2441 21.6898 65.4004 21.3057C65.5566 20.9215 65.6348 20.2965 65.6348 19.4307C65.6348 18.555 65.555 17.9268 65.3955 17.5459C65.2393 17.1618 64.987 16.9697 64.6387 16.9697C64.2839 16.9697 64.0299 17.1618 63.877 17.5459C63.724 17.9268 63.6475 18.555 63.6475 19.4307ZM72.8516 19.4307C72.8516 20.6774 72.6465 21.6003 72.2363 22.1992C71.8294 22.7982 71.2012 23.0977 70.3516 23.0977C69.528 23.0977 68.9062 22.7884 68.4863 22.1699C68.0697 21.5514 67.8613 20.6383 67.8613 19.4307C67.8613 18.1709 68.0648 17.2432 68.4717 16.6475C68.8786 16.0485 69.5052 15.749 70.3516 15.749C71.1751 15.749 71.7969 16.0615 72.2168 16.6865C72.64 17.3115 72.8516 18.2262 72.8516 19.4307ZM69.3604 19.4307C69.3604 20.3063 69.4352 20.9346 69.585 21.3154C69.738 21.693 69.9935 21.8818 70.3516 21.8818C70.7031 21.8818 70.957 21.6898 71.1133 21.3057C71.2695 20.9215 71.3477 20.2965 71.3477 19.4307C71.3477 18.555 71.2679 17.9268 71.1084 17.5459C70.9521 17.1618 70.6999 16.9697 70.3516 16.9697C69.9967 16.9697 69.7428 17.1618 69.5898 17.5459C69.4368 17.9268 69.3604 18.555 69.3604 19.4307ZM77.1338 17.0186C76.7367 17.0186 76.4095 17.1341 76.1523 17.3652C75.8952 17.5931 75.7292 17.9251 75.6543 18.3613H77.6221V19.2207H75.5811L75.5713 19.3916V19.6211L75.5811 19.7822H77.3145V20.6514H75.6641C75.8301 21.4424 76.3525 21.8379 77.2314 21.8379C77.6969 21.8379 78.1445 21.7451 78.5742 21.5596V22.8096C78.1966 23.0016 77.7197 23.0977 77.1436 23.0977C76.346 23.0977 75.6901 22.8812 75.1758 22.4482C74.6615 22.0153 74.3376 21.4163 74.2041 20.6514H73.5352V19.7822H74.1113C74.0983 19.7074 74.0918 19.6064 74.0918 19.4795L74.1016 19.2207H73.5352V18.3613H74.1846C74.305 17.5736 74.6289 16.9518 75.1562 16.4961C75.6836 16.0371 76.3428 15.8076 77.1338 15.8076C77.7458 15.8076 78.3187 15.9411 78.8525 16.208L78.374 17.3408C78.1494 17.2399 77.9395 17.1618 77.7441 17.1064C77.5488 17.0479 77.3454 17.0186 77.1338 17.0186Z" fill="#FEFFFF"/>
<path d="M101.072 18.4395C101.762 18.4395 102.311 18.6331 102.718 19.0205C103.128 19.4079 103.333 19.9385 103.333 20.6123C103.333 21.4098 103.087 22.0234 102.596 22.4531C102.104 22.8828 101.401 23.0977 100.486 23.0977C99.6921 23.0977 99.0508 22.9691 98.5625 22.7119V21.4082C98.8197 21.5449 99.1191 21.6572 99.4609 21.7451C99.8027 21.8298 100.127 21.8721 100.433 21.8721C101.354 21.8721 101.814 21.4945 101.814 20.7393C101.814 20.0199 101.338 19.6602 100.384 19.6602C100.211 19.6602 100.021 19.6781 99.8125 19.7139C99.6042 19.7464 99.4349 19.7822 99.3047 19.8213L98.7041 19.499L98.9727 15.8613H102.845V17.1406H100.296L100.164 18.542L100.335 18.5078C100.534 18.4622 100.779 18.4395 101.072 18.4395ZM109.139 19.4307C109.139 20.6774 108.934 21.6003 108.523 22.1992C108.117 22.7982 107.488 23.0977 106.639 23.0977C105.815 23.0977 105.193 22.7884 104.773 22.1699C104.357 21.5514 104.148 20.6383 104.148 19.4307C104.148 18.1709 104.352 17.2432 104.759 16.6475C105.166 16.0485 105.792 15.749 106.639 15.749C107.462 15.749 108.084 16.0615 108.504 16.6865C108.927 17.3115 109.139 18.2262 109.139 19.4307ZM105.647 19.4307C105.647 20.3063 105.722 20.9346 105.872 21.3154C106.025 21.693 106.281 21.8818 106.639 21.8818C106.99 21.8818 107.244 21.6898 107.4 21.3057C107.557 20.9215 107.635 20.2965 107.635 19.4307C107.635 18.555 107.555 17.9268 107.396 17.5459C107.239 17.1618 106.987 16.9697 106.639 16.9697C106.284 16.9697 106.03 17.1618 105.877 17.5459C105.724 17.9268 105.647 18.555 105.647 19.4307ZM114.852 19.4307C114.852 20.6774 114.646 21.6003 114.236 22.1992C113.829 22.7982 113.201 23.0977 112.352 23.0977C111.528 23.0977 110.906 22.7884 110.486 22.1699C110.07 21.5514 109.861 20.6383 109.861 19.4307C109.861 18.1709 110.065 17.2432 110.472 16.6475C110.879 16.0485 111.505 15.749 112.352 15.749C113.175 15.749 113.797 16.0615 114.217 16.6865C114.64 17.3115 114.852 18.2262 114.852 19.4307ZM111.36 19.4307C111.36 20.3063 111.435 20.9346 111.585 21.3154C111.738 21.693 111.993 21.8818 112.352 21.8818C112.703 21.8818 112.957 21.6898 113.113 21.3057C113.27 20.9215 113.348 20.2965 113.348 19.4307C113.348 18.555 113.268 17.9268 113.108 17.5459C112.952 17.1618 112.7 16.9697 112.352 16.9697C111.997 16.9697 111.743 17.1618 111.59 17.5459C111.437 17.9268 111.36 18.555 111.36 19.4307ZM119.134 17.0186C118.737 17.0186 118.41 17.1341 118.152 17.3652C117.895 17.5931 117.729 17.9251 117.654 18.3613H119.622V19.2207H117.581L117.571 19.3916V19.6211L117.581 19.7822H119.314V20.6514H117.664C117.83 21.4424 118.353 21.8379 119.231 21.8379C119.697 21.8379 120.145 21.7451 120.574 21.5596V22.8096C120.197 23.0016 119.72 23.0977 119.144 23.0977C118.346 23.0977 117.69 22.8812 117.176 22.4482C116.661 22.0153 116.338 21.4163 116.204 20.6514H115.535V19.7822H116.111C116.098 19.7074 116.092 19.6064 116.092 19.4795L116.102 19.2207H115.535V18.3613H116.185C116.305 17.5736 116.629 16.9518 117.156 16.4961C117.684 16.0371 118.343 15.8076 119.134 15.8076C119.746 15.8076 120.319 15.9411 120.853 16.208L120.374 17.3408C120.149 17.2399 119.939 17.1618 119.744 17.1064C119.549 17.0479 119.345 17.0186 119.134 17.0186Z" fill="#FAFFFE"/>
<path d="M141.183 23L143.863 17.1406H140.343V15.8711H145.465V16.8184L142.765 23H141.183ZM148.785 18.4395C149.475 18.4395 150.024 18.6331 150.431 19.0205C150.841 19.4079 151.046 19.9385 151.046 20.6123C151.046 21.4098 150.8 22.0234 150.309 22.4531C149.817 22.8828 149.114 23.0977 148.199 23.0977C147.405 23.0977 146.764 22.9691 146.275 22.7119V21.4082C146.533 21.5449 146.832 21.6572 147.174 21.7451C147.516 21.8298 147.84 21.8721 148.146 21.8721C149.067 21.8721 149.527 21.4945 149.527 20.7393C149.527 20.0199 149.05 19.6602 148.097 19.6602C147.924 19.6602 147.734 19.6781 147.525 19.7139C147.317 19.7464 147.148 19.7822 147.018 19.8213L146.417 19.499L146.686 15.8613H150.558V17.1406H148.009L147.877 18.542L148.048 18.5078C148.246 18.4622 148.492 18.4395 148.785 18.4395ZM156.852 19.4307C156.852 20.6774 156.646 21.6003 156.236 22.1992C155.829 22.7982 155.201 23.0977 154.352 23.0977C153.528 23.0977 152.906 22.7884 152.486 22.1699C152.07 21.5514 151.861 20.6383 151.861 19.4307C151.861 18.1709 152.065 17.2432 152.472 16.6475C152.879 16.0485 153.505 15.749 154.352 15.749C155.175 15.749 155.797 16.0615 156.217 16.6865C156.64 17.3115 156.852 18.2262 156.852 19.4307ZM153.36 19.4307C153.36 20.3063 153.435 20.9346 153.585 21.3154C153.738 21.693 153.993 21.8818 154.352 21.8818C154.703 21.8818 154.957 21.6898 155.113 21.3057C155.27 20.9215 155.348 20.2965 155.348 19.4307C155.348 18.555 155.268 17.9268 155.108 17.5459C154.952 17.1618 154.7 16.9697 154.352 16.9697C153.997 16.9697 153.743 17.1618 153.59 17.5459C153.437 17.9268 153.36 18.555 153.36 19.4307ZM161.134 17.0186C160.737 17.0186 160.41 17.1341 160.152 17.3652C159.895 17.5931 159.729 17.9251 159.654 18.3613H161.622V19.2207H159.581L159.571 19.3916V19.6211L159.581 19.7822H161.314V20.6514H159.664C159.83 21.4424 160.353 21.8379 161.231 21.8379C161.697 21.8379 162.145 21.7451 162.574 21.5596V22.8096C162.197 23.0016 161.72 23.0977 161.144 23.0977C160.346 23.0977 159.69 22.8812 159.176 22.4482C158.661 22.0153 158.338 21.4163 158.204 20.6514H157.535V19.7822H158.111C158.098 19.7074 158.092 19.6064 158.092 19.4795L158.102 19.2207H157.535V18.3613H158.185C158.305 17.5736 158.629 16.9518 159.156 16.4961C159.684 16.0371 160.343 15.8076 161.134 15.8076C161.746 15.8076 162.319 15.9411 162.853 16.208L162.374 17.3408C162.149 17.2399 161.939 17.1618 161.744 17.1064C161.549 17.0479 161.345 17.0186 161.134 17.0186Z" fill="#F8FDFC"/>
<path d="M184.849 23H183.34V18.8691L183.354 18.1904L183.379 17.4482C183.128 17.6989 182.954 17.8633 182.856 17.9414L182.036 18.6006L181.309 17.6924L183.608 15.8613H184.849V23ZM191.782 19.4307C191.782 20.6774 191.577 21.6003 191.167 22.1992C190.76 22.7982 190.132 23.0977 189.282 23.0977C188.459 23.0977 187.837 22.7884 187.417 22.1699C187 21.5514 186.792 20.6383 186.792 19.4307C186.792 18.1709 186.995 17.2432 187.402 16.6475C187.809 16.0485 188.436 15.749 189.282 15.749C190.106 15.749 190.728 16.0615 191.147 16.6865C191.571 17.3115 191.782 18.2262 191.782 19.4307ZM188.291 19.4307C188.291 20.3063 188.366 20.9346 188.516 21.3154C188.669 21.693 188.924 21.8818 189.282 21.8818C189.634 21.8818 189.888 21.6898 190.044 21.3057C190.2 20.9215 190.278 20.2965 190.278 19.4307C190.278 18.555 190.199 17.9268 190.039 17.5459C189.883 17.1618 189.631 16.9697 189.282 16.9697C188.927 16.9697 188.674 17.1618 188.521 17.5459C188.368 17.9268 188.291 18.555 188.291 19.4307ZM197.495 19.4307C197.495 20.6774 197.29 21.6003 196.88 22.1992C196.473 22.7982 195.845 23.0977 194.995 23.0977C194.172 23.0977 193.55 22.7884 193.13 22.1699C192.713 21.5514 192.505 20.6383 192.505 19.4307C192.505 18.1709 192.708 17.2432 193.115 16.6475C193.522 16.0485 194.149 15.749 194.995 15.749C195.819 15.749 196.44 16.0615 196.86 16.6865C197.284 17.3115 197.495 18.2262 197.495 19.4307ZM194.004 19.4307C194.004 20.3063 194.079 20.9346 194.229 21.3154C194.382 21.693 194.637 21.8818 194.995 21.8818C195.347 21.8818 195.601 21.6898 195.757 21.3057C195.913 20.9215 195.991 20.2965 195.991 19.4307C195.991 18.555 195.911 17.9268 195.752 17.5459C195.596 17.1618 195.343 16.9697 194.995 16.9697C194.64 16.9697 194.386 17.1618 194.233 17.5459C194.08 17.9268 194.004 18.555 194.004 19.4307ZM203.208 19.4307C203.208 20.6774 203.003 21.6003 202.593 22.1992C202.186 22.7982 201.558 23.0977 200.708 23.0977C199.884 23.0977 199.263 22.7884 198.843 22.1699C198.426 21.5514 198.218 20.6383 198.218 19.4307C198.218 18.1709 198.421 17.2432 198.828 16.6475C199.235 16.0485 199.862 15.749 200.708 15.749C201.532 15.749 202.153 16.0615 202.573 16.6865C202.996 17.3115 203.208 18.2262 203.208 19.4307ZM199.717 19.4307C199.717 20.3063 199.792 20.9346 199.941 21.3154C200.094 21.693 200.35 21.8818 200.708 21.8818C201.06 21.8818 201.313 21.6898 201.47 21.3057C201.626 20.9215 201.704 20.2965 201.704 19.4307C201.704 18.555 201.624 17.9268 201.465 17.5459C201.309 17.1618 201.056 16.9697 200.708 16.9697C200.353 16.9697 200.099 17.1618 199.946 17.5459C199.793 17.9268 199.717 18.555 199.717 19.4307ZM207.49 17.0186C207.093 17.0186 206.766 17.1341 206.509 17.3652C206.252 17.5931 206.086 17.9251 206.011 18.3613H207.979V19.2207H205.938L205.928 19.3916V19.6211L205.938 19.7822H207.671V20.6514H206.021C206.187 21.4424 206.709 21.8379 207.588 21.8379C208.053 21.8379 208.501 21.7451 208.931 21.5596V22.8096C208.553 23.0016 208.076 23.0977 207.5 23.0977C206.702 23.0977 206.047 22.8812 205.532 22.4482C205.018 22.0153 204.694 21.4163 204.561 20.6514H203.892V19.7822H204.468C204.455 19.7074 204.448 19.6064 204.448 19.4795L204.458 19.2207H203.892V18.3613H204.541C204.661 17.5736 204.985 16.9518 205.513 16.4961C206.04 16.0371 206.699 15.8076 207.49 15.8076C208.102 15.8076 208.675 15.9411 209.209 16.208L208.73 17.3408C208.506 17.2399 208.296 17.1618 208.101 17.1064C207.905 17.0479 207.702 17.0186 207.49 17.0186Z" fill="#F8FDFC"/>
<path d="M233.294 22.3018C233.294 22.0283 233.367 21.8216 233.514 21.6816C233.66 21.5417 233.873 21.4717 234.153 21.4717C234.424 21.4717 234.632 21.5433 234.778 21.6865C234.928 21.8298 235.003 22.0348 235.003 22.3018C235.003 22.5589 234.928 22.7624 234.778 22.9121C234.629 23.0586 234.42 23.1318 234.153 23.1318C233.88 23.1318 233.668 23.0602 233.519 22.917C233.369 22.7705 233.294 22.5654 233.294 22.3018ZM236.146 22.3018C236.146 22.0283 236.219 21.8216 236.365 21.6816C236.512 21.5417 236.725 21.4717 237.005 21.4717C237.275 21.4717 237.483 21.5433 237.63 21.6865C237.78 21.8298 237.854 22.0348 237.854 22.3018C237.854 22.5589 237.78 22.7624 237.63 22.9121C237.48 23.0586 237.272 23.1318 237.005 23.1318C236.731 23.1318 236.52 23.0602 236.37 22.917C236.22 22.7705 236.146 22.5654 236.146 22.3018ZM238.997 22.3018C238.997 22.0283 239.07 21.8216 239.217 21.6816C239.363 21.5417 239.576 21.4717 239.856 21.4717C240.127 21.4717 240.335 21.5433 240.481 21.6865C240.631 21.8298 240.706 22.0348 240.706 22.3018C240.706 22.5589 240.631 22.7624 240.481 22.9121C240.332 23.0586 240.123 23.1318 239.856 23.1318C239.583 23.1318 239.371 23.0602 239.222 22.917C239.072 22.7705 238.997 22.5654 238.997 22.3018Z" fill="#F8FDFC"/>
<path d="M254.167 7.5V6.5C254.167 5.67175 253.42 5 252.5 5C251.58 5 250.833 5.67175 250.833 6.5V7.5H250V11H255V7.5H254.167ZM252.778 9.43075V10H252.222V9.43075C252.057 9.344 251.944 9.18475 251.944 9C251.944 8.724 252.193 8.5 252.5 8.5C252.807 8.5 253.056 8.724 253.056 9C253.056 9.1845 252.943 9.344 252.778 9.43075ZM251.389 7.5V6.5C251.389 5.9485 251.887 5.5 252.5 5.5C253.113 5.5 253.611 5.9485 253.611 6.5V7.5H251.389Z" fill="#FAFFFE"/>
</svg>
