<svg width="25" height="25" viewBox="0 0 25 25" fill="none" xmlns="http://www.w3.org/2000/svg">
<path d="M10.78 15.238V14.248C10.78 13.984 10.792 13.762 10.816 13.582C10.852 13.39 10.906 13.222 10.978 13.078C11.062 12.922 11.164 12.778 11.284 12.646C11.416 12.502 11.572 12.334 11.752 12.142L13.138 10.738C13.438 10.438 13.588 10.048 13.588 9.568C13.588 9.1 13.432 8.722 13.12 8.434C12.82 8.134 12.436 7.984 11.968 7.984C11.464 7.984 11.05 8.158 10.726 8.506C10.402 8.842 10.216 9.256 10.168 9.748L7.864 9.568C7.936 8.992 8.086 8.482 8.314 8.038C8.542 7.582 8.836 7.198 9.196 6.886C9.568 6.574 9.994 6.34 10.474 6.184C10.954 6.016 11.482 5.932 12.058 5.932C12.598 5.932 13.096 6.01 13.552 6.166C14.02 6.322 14.422 6.55 14.758 6.85C15.106 7.138 15.376 7.504 15.568 7.948C15.76 8.38 15.856 8.878 15.856 9.442C15.856 9.838 15.802 10.186 15.694 10.486C15.586 10.786 15.442 11.062 15.262 11.314C15.082 11.566 14.872 11.806 14.632 12.034C14.404 12.262 14.158 12.502 13.894 12.754C13.726 12.91 13.582 13.048 13.462 13.168C13.342 13.288 13.24 13.414 13.156 13.546C13.084 13.666 13.03 13.81 12.994 13.978C12.958 14.134 12.94 14.326 12.94 14.554V15.238H10.78ZM10.42 17.74C10.42 17.356 10.558 17.026 10.834 16.75C11.122 16.474 11.464 16.336 11.86 16.336C12.244 16.336 12.58 16.468 12.868 16.732C13.156 16.996 13.3 17.32 13.3 17.704C13.3 18.088 13.156 18.418 12.868 18.694C12.592 18.97 12.256 19.108 11.86 19.108C11.668 19.108 11.482 19.072 11.302 19C11.134 18.928 10.984 18.832 10.852 18.712C10.72 18.592 10.612 18.448 10.528 18.28C10.456 18.112 10.42 17.932 10.42 17.74Z" fill="#CCCCCC"/>
<circle cx="12.5" cy="12.5" r="11.5" stroke="#CCCCCC" stroke-width="2"/>
</svg>
