<svg width="135" height="28" viewBox="0 0 135 28" fill="none" xmlns="http://www.w3.org/2000/svg">
<path d="M35.3237 19.4478C35.2407 20.5952 34.8159 21.4985 34.0493 22.1577C33.2876 22.8169 32.2817 23.1465 31.0317 23.1465C29.6646 23.1465 28.5879 22.6875 27.8018 21.7695C27.0205 20.8467 26.6299 19.582 26.6299 17.9756V17.3237C26.6299 16.2983 26.8105 15.395 27.1719 14.6138C27.5332 13.8325 28.0483 13.2344 28.7173 12.8193C29.3911 12.3994 30.1724 12.1895 31.061 12.1895C32.2915 12.1895 33.2827 12.519 34.0347 13.1782C34.7866 13.8374 35.2212 14.7627 35.3384 15.9541H33.1411C33.0874 15.2656 32.8945 14.7676 32.5625 14.46C32.2354 14.1475 31.7349 13.9912 31.061 13.9912C30.3286 13.9912 29.7793 14.2549 29.4131 14.7822C29.0518 15.3047 28.8662 16.1177 28.8564 17.2212V18.0269C28.8564 19.1792 29.0298 20.0215 29.3765 20.5537C29.728 21.0859 30.2798 21.3521 31.0317 21.3521C31.7104 21.3521 32.2158 21.1982 32.5479 20.8906C32.8848 20.5781 33.0776 20.0972 33.1265 19.4478H35.3237ZM36.2979 18.9644C36.2979 18.1782 36.4492 17.4775 36.752 16.8623C37.0547 16.2471 37.4893 15.771 38.0557 15.4341C38.627 15.0972 39.2886 14.9287 40.0405 14.9287C41.1099 14.9287 41.9814 15.2559 42.6553 15.9102C43.334 16.5645 43.7124 17.4531 43.7905 18.5762L43.8052 19.1182C43.8052 20.334 43.4658 21.3105 42.7871 22.0479C42.1084 22.7803 41.1978 23.1465 40.0552 23.1465C38.9126 23.1465 37.9995 22.7803 37.3159 22.0479C36.6372 21.3154 36.2979 20.3193 36.2979 19.0596V18.9644ZM38.4146 19.1182C38.4146 19.8701 38.5562 20.4463 38.8394 20.8467C39.1226 21.2422 39.5278 21.4399 40.0552 21.4399C40.5679 21.4399 40.9683 21.2446 41.2563 20.854C41.5444 20.4585 41.6885 19.8286 41.6885 18.9644C41.6885 18.2271 41.5444 17.6558 41.2563 17.2505C40.9683 16.8452 40.563 16.6426 40.0405 16.6426C39.5229 16.6426 39.1226 16.8452 38.8394 17.2505C38.5562 17.6509 38.4146 18.2734 38.4146 19.1182ZM49.562 17.0601C49.2739 17.021 49.02 17.0015 48.8003 17.0015C47.9995 17.0015 47.4746 17.2725 47.2256 17.8145V23H45.1089V15.0752H47.1084L47.167 16.02C47.5918 15.2925 48.1802 14.9287 48.9321 14.9287C49.1665 14.9287 49.3862 14.9604 49.5913 15.0239L49.562 17.0601ZM49.9941 18.9644C49.9941 18.1782 50.1455 17.4775 50.4482 16.8623C50.751 16.2471 51.1855 15.771 51.752 15.4341C52.3232 15.0972 52.9849 14.9287 53.7368 14.9287C54.8062 14.9287 55.6777 15.2559 56.3516 15.9102C57.0303 16.5645 57.4087 17.4531 57.4868 18.5762L57.5015 19.1182C57.5015 20.334 57.1621 21.3105 56.4834 22.0479C55.8047 22.7803 54.894 23.1465 53.7515 23.1465C52.6089 23.1465 51.6958 22.7803 51.0122 22.0479C50.3335 21.3154 49.9941 20.3193 49.9941 19.0596V18.9644ZM52.1108 19.1182C52.1108 19.8701 52.2524 20.4463 52.5356 20.8467C52.8188 21.2422 53.2241 21.4399 53.7515 21.4399C54.2642 21.4399 54.6646 21.2446 54.9526 20.854C55.2407 20.4585 55.3848 19.8286 55.3848 18.9644C55.3848 18.2271 55.2407 17.6558 54.9526 17.2505C54.6646 16.8452 54.2593 16.6426 53.7368 16.6426C53.2192 16.6426 52.8188 16.8452 52.5356 17.2505C52.2524 17.6509 52.1108 18.2734 52.1108 19.1182ZM60.7534 15.0752L60.8193 15.9907C61.3857 15.2827 62.145 14.9287 63.0972 14.9287C63.937 14.9287 64.562 15.1753 64.9722 15.6685C65.3823 16.1616 65.5923 16.8989 65.6021 17.8804V23H63.4854V17.9316C63.4854 17.4824 63.3877 17.1577 63.1924 16.9575C62.9971 16.7524 62.6724 16.6499 62.2183 16.6499C61.6226 16.6499 61.1758 16.9038 60.8779 17.4116V23H58.7612V15.0752H60.7534ZM71.8057 23C71.708 22.8096 71.6372 22.5728 71.5933 22.2896C71.0806 22.8608 70.4141 23.1465 69.5938 23.1465C68.8174 23.1465 68.1729 22.9219 67.6602 22.4727C67.1523 22.0234 66.8984 21.457 66.8984 20.7734C66.8984 19.9336 67.2085 19.2891 67.8286 18.8398C68.4536 18.3906 69.3545 18.1636 70.5312 18.1587H71.5054V17.7046C71.5054 17.3384 71.4102 17.0454 71.2197 16.8257C71.0342 16.606 70.7388 16.4961 70.3335 16.4961C69.9771 16.4961 69.6963 16.5815 69.4912 16.7524C69.291 16.9233 69.1909 17.1577 69.1909 17.4556H67.0742C67.0742 16.9966 67.2158 16.5718 67.499 16.1812C67.7822 15.7905 68.1826 15.4854 68.7002 15.2656C69.2178 15.041 69.7988 14.9287 70.4434 14.9287C71.4199 14.9287 72.1938 15.1753 72.7651 15.6685C73.3413 16.1567 73.6294 16.8452 73.6294 17.7339V21.1689C73.6343 21.9209 73.7393 22.4897 73.9443 22.8755V23H71.8057ZM70.0552 21.5278C70.3677 21.5278 70.6558 21.4595 70.9194 21.3228C71.1831 21.1812 71.3784 20.9932 71.5054 20.7588V19.3965H70.7144C69.6548 19.3965 69.0908 19.7627 69.0225 20.4951L69.0151 20.6196C69.0151 20.8833 69.1079 21.1006 69.2935 21.2715C69.479 21.4424 69.7329 21.5278 70.0552 21.5278ZM79.3716 19.2866H75.248V17.5801H79.3716V19.2866ZM89.5815 19.4478C89.4985 20.5952 89.0737 21.4985 88.3071 22.1577C87.5454 22.8169 86.5396 23.1465 85.2896 23.1465C83.9224 23.1465 82.8457 22.6875 82.0596 21.7695C81.2783 20.8467 80.8877 19.582 80.8877 17.9756V17.3237C80.8877 16.2983 81.0684 15.395 81.4297 14.6138C81.791 13.8325 82.3062 13.2344 82.9751 12.8193C83.6489 12.3994 84.4302 12.1895 85.3188 12.1895C86.5493 12.1895 87.5405 12.519 88.2925 13.1782C89.0444 13.8374 89.479 14.7627 89.5962 15.9541H87.3989C87.3452 15.2656 87.1523 14.7676 86.8203 14.46C86.4932 14.1475 85.9927 13.9912 85.3188 13.9912C84.5864 13.9912 84.0371 14.2549 83.6709 14.7822C83.3096 15.3047 83.124 16.1177 83.1143 17.2212V18.0269C83.1143 19.1792 83.2876 20.0215 83.6343 20.5537C83.9858 21.0859 84.5376 21.3521 85.2896 21.3521C85.9683 21.3521 86.4736 21.1982 86.8057 20.8906C87.1426 20.5781 87.3354 20.0972 87.3843 19.4478H89.5815ZM93.1191 23H90.9951V11.75H93.1191V23ZM97.1035 23H94.9795V15.0752H97.1035V23ZM94.855 13.0244C94.855 12.707 94.96 12.4458 95.1699 12.2407C95.3848 12.0356 95.6753 11.9331 96.0415 11.9331C96.4028 11.9331 96.6909 12.0356 96.9058 12.2407C97.1206 12.4458 97.228 12.707 97.228 13.0244C97.228 13.3467 97.1182 13.6104 96.8984 13.8154C96.6836 14.0205 96.3979 14.123 96.0415 14.123C95.6851 14.123 95.397 14.0205 95.1772 13.8154C94.9624 13.6104 94.855 13.3467 94.855 13.0244ZM102.15 21.4399C102.541 21.4399 102.858 21.3325 103.102 21.1177C103.346 20.9028 103.473 20.6172 103.483 20.2607H105.468C105.463 20.7979 105.316 21.291 105.028 21.7402C104.74 22.1846 104.345 22.5312 103.842 22.7803C103.344 23.0244 102.792 23.1465 102.187 23.1465C101.054 23.1465 100.16 22.7876 99.5059 22.0698C98.8516 21.3472 98.5244 20.3511 98.5244 19.0815V18.9424C98.5244 17.7217 98.8491 16.7476 99.4985 16.02C100.148 15.2925 101.039 14.9287 102.172 14.9287C103.163 14.9287 103.957 15.2119 104.552 15.7783C105.153 16.3398 105.458 17.0894 105.468 18.0269H103.483C103.473 17.6167 103.346 17.2847 103.102 17.0308C102.858 16.772 102.536 16.6426 102.135 16.6426C101.642 16.6426 101.269 16.8232 101.015 17.1846C100.766 17.541 100.641 18.1221 100.641 18.9277V19.1475C100.641 19.9629 100.766 20.5488 101.015 20.9053C101.264 21.2617 101.642 21.4399 102.15 21.4399ZM109.555 19.8213L108.793 20.583V23H106.676V11.75H108.793V17.9829L109.203 17.4556L111.232 15.0752H113.773L110.91 18.3784L114.022 23H111.591L109.555 19.8213ZM118.19 23.1465C117.028 23.1465 116.081 22.79 115.348 22.0771C114.621 21.3643 114.257 20.4146 114.257 19.228V19.0229C114.257 18.2271 114.411 17.5166 114.718 16.8916C115.026 16.2617 115.46 15.7783 116.022 15.4414C116.588 15.0996 117.233 14.9287 117.956 14.9287C119.04 14.9287 119.892 15.2705 120.512 15.9541C121.137 16.6377 121.449 17.6069 121.449 18.8618V19.7261H116.403C116.471 20.2437 116.676 20.6587 117.018 20.9712C117.365 21.2837 117.802 21.4399 118.329 21.4399C119.145 21.4399 119.782 21.1445 120.241 20.5537L121.281 21.7183C120.963 22.1675 120.534 22.519 119.992 22.7729C119.45 23.022 118.849 23.1465 118.19 23.1465ZM117.948 16.6426C117.528 16.6426 117.187 16.7842 116.923 17.0674C116.664 17.3506 116.498 17.7559 116.425 18.2832H119.369V18.1147C119.359 17.646 119.232 17.2847 118.988 17.0308C118.744 16.772 118.397 16.6426 117.948 16.6426ZM127.111 17.0601C126.823 17.021 126.569 17.0015 126.349 17.0015C125.548 17.0015 125.023 17.2725 124.774 17.8145V23H122.658V15.0752H124.657L124.716 16.02C125.141 15.2925 125.729 14.9287 126.481 14.9287C126.715 14.9287 126.935 14.9604 127.14 15.0239L127.111 17.0601Z" fill="#5D8F88"/>
<path d="M14.664 13.396L17.2433 10.6089C17.1958 10.1258 17.2511 9.25986 17.7347 9.25265C18.3392 9.24364 19.1509 10.3339 19.4362 10.7483C19.7214 11.1627 19.504 11.5566 18.9946 11.7038C18.4851 11.8509 18.3244 11.6765 17.8737 12.0275C17.5133 12.3082 16.2517 13.6734 15.666 14.321" stroke="black" stroke-width="0.253312"/>
<path d="M16.301 15.2414L17.3133 14.6731C17.3925 14.3742 17.624 13.7995 17.9156 13.8919C18.2801 14.0074 18.9605 15.0253 18.9774 15.8483C18.9909 16.5067 18.3377 16.309 18.0094 16.1279L16.7867 16.481" stroke="black" stroke-width="0.253312"/>
<path d="M16.8681 17.3961L20.4693 17.9567C20.8528 17.8827 21.7101 17.8191 22.0724 18.156C22.5252 18.5772 21.9319 19.9629 21.5243 20.0806C21.1167 20.1983 20.1466 19.7058 19.6066 19.365C19.1746 19.0923 17.5831 18.6615 16.8567 18.5033" stroke="black" stroke-width="0.253312"/>
<path d="M15.328 21.4284C15.9725 21.8126 17.2905 23.0252 17.1981 23.3169C17.2993 23.7108 17.1543 24.4334 15.9641 24.3356C15.649 24.1617 14.9348 22.6826 14.6171 21.9649" stroke="black" stroke-width="0.253312"/>
<path d="M13.3662 22.6018C13.5404 22.8826 13.8402 23.3259 13.631 23.5188C13.3695 23.7599 12.8747 23.958 12.5679 23.6602C12.3225 23.422 12.3865 23.0319 12.4491 22.8666" stroke="black" stroke-width="0.253312"/>
<path d="M9.90634 22.6631C9.66025 23.2125 9.19457 24.4031 9.3005 24.7699C9.43293 25.2284 10.1067 25.5915 10.4246 25.6044C10.7597 25.618 11.5465 25.6667 11.5443 24.8946C11.5421 24.1225 11.2466 23.1591 11.4572 22.9327" stroke="black" stroke-width="0.253312"/>
<path d="M6.99122 20.0829C6.55006 20.3391 5.58357 20.9973 5.53192 21.2771C5.46737 21.6269 6.9277 22.8611 7.26961 22.7071C7.54314 22.584 7.93007 21.8724 8.08934 21.532" stroke="black" stroke-width="0.253312"/>
<path d="M6.47982 16.9738C5.9749 17.0093 4.74324 16.9786 4.25872 16.677C3.65307 16.3 2.67608 15.975 2.29114 16.3621C1.90619 16.7493 1.50422 18.5958 2.61815 18.6411C2.95326 18.6547 4.22691 18.2869 4.73637 18.1397C5.03027 18.0548 5.98729 17.944 6.41748 18.0958" stroke="black" stroke-width="0.253312"/>
<path d="M7.90085 13.9988L6.43261 12.5462C5.69937 12.5556 4.39255 12.3627 5.03113 11.5159C5.6697 10.6691 6.5139 10.4069 6.85617 10.3817C7.88411 10.692 7.11808 11.2885 7.28287 11.8591C7.44767 12.4297 8.26244 13.0849 8.64922 13.3411" stroke="black" stroke-width="0.253312"/>
<path d="M11.6676 12.3847L11.7311 11.2072C11.4361 10.7589 11.0293 9.80926 11.7629 9.59738C12.68 9.33253 13.5924 9.95325 13.6071 10.0583C13.7112 10.801 13.3252 10.8021 13.0568 11.2107C12.8422 11.5377 12.8632 12.2602 12.9005 12.5806" stroke="black" stroke-width="0.253312"/>
<path d="M9.79847 16.2959C9.74118 16.5117 9.63307 16.6861 9.51111 16.7951C9.3882 16.905 9.26465 16.9389 9.16378 16.9121C9.06292 16.8853 8.97242 16.7946 8.92022 16.6382C8.86842 16.483 8.86107 16.278 8.91835 16.0622C8.97564 15.8465 9.08375 15.6721 9.20572 15.563C9.32862 15.4531 9.45217 15.4193 9.55304 15.4461C9.6539 15.4729 9.7444 15.5635 9.7966 15.7199C9.8484 15.8751 9.85575 16.0802 9.79847 16.2959Z" stroke="black" stroke-width="0.253312"/>
<path d="M11.554 18.7505C11.372 18.8316 11.1959 18.864 11.0614 18.856C10.9198 18.8477 10.8612 18.7996 10.845 18.7631C10.8287 18.7265 10.8321 18.6508 10.9206 18.54C11.0047 18.4347 11.1465 18.3254 11.3285 18.2444C11.5104 18.1633 11.6865 18.1309 11.821 18.1389C11.9627 18.1472 12.0212 18.1953 12.0375 18.2318C12.0538 18.2684 12.0503 18.3441 11.9618 18.4549C11.8778 18.5602 11.7359 18.6695 11.554 18.7505Z" stroke="black" stroke-width="0.253312"/>
<path d="M11.6569 16.699C11.5114 16.8351 11.3556 16.9232 11.2259 16.9597C11.0893 16.9981 11.0183 16.9718 10.9909 16.9425C10.9636 16.9133 10.9421 16.8407 10.9895 16.707C11.0346 16.58 11.1329 16.4304 11.2784 16.2943C11.4239 16.1583 11.5797 16.0701 11.7094 16.0337C11.846 15.9953 11.917 16.0216 11.9444 16.0508C11.9717 16.08 11.9932 16.1527 11.9458 16.2864C11.9008 16.4133 11.8024 16.563 11.6569 16.699Z" stroke="black" stroke-width="0.253312"/>
<path d="M14.4607 19.3693C14.4727 19.5681 14.4411 19.7444 14.3865 19.8675C14.3289 19.9972 14.2634 20.0351 14.2234 20.0375C14.1835 20.0399 14.1138 20.0102 14.0411 19.8884C13.972 19.7727 13.9195 19.6015 13.9075 19.4027C13.8955 19.2038 13.9271 19.0276 13.9817 18.9044C14.0392 18.7748 14.1048 18.7368 14.1448 18.7344C14.1847 18.732 14.2544 18.7618 14.3271 18.8836C14.3961 18.9992 14.4487 19.1704 14.4607 19.3693Z" stroke="black" stroke-width="0.253312"/>
<path d="M13.7715 14.9128C14.0078 15.0007 14.1972 15.1279 14.314 15.2566C14.4355 15.3906 14.4551 15.4966 14.4316 15.5598C14.4081 15.6229 14.324 15.6904 14.1444 15.7124C13.972 15.7335 13.7454 15.706 13.5092 15.6181C13.2729 15.5303 13.0835 15.4031 12.9667 15.2744C12.8452 15.1404 12.8256 15.0344 12.8491 14.9712C12.8726 14.908 12.9567 14.8406 13.1362 14.8186C13.3087 14.7975 13.5352 14.825 13.7715 14.9128Z" stroke="black" stroke-width="0.253312"/>
<path d="M10.7054 20.4975C10.8762 20.561 11.0115 20.6524 11.0936 20.743C11.1805 20.8388 11.185 20.9042 11.1741 20.9335C11.1632 20.9628 11.117 21.0094 10.9886 21.0251C10.8674 21.04 10.7052 21.0208 10.5344 20.9572C10.3636 20.8937 10.2283 20.8023 10.1461 20.7118C10.0592 20.616 10.0547 20.5505 10.0656 20.5212C10.0765 20.492 10.1227 20.4454 10.2511 20.4296C10.3724 20.4148 10.5346 20.434 10.7054 20.4975Z" stroke="black" stroke-width="0.253312"/>
<path d="M8.79871 19.0278C8.82691 19.1592 8.82326 19.2781 8.80036 19.3619C8.77558 19.4526 8.74065 19.468 8.73432 19.4693C8.728 19.4707 8.68986 19.471 8.63003 19.3984C8.57476 19.3314 8.52268 19.2245 8.49448 19.0931C8.46628 18.9616 8.46993 18.8428 8.49283 18.759C8.51761 18.6682 8.55255 18.6529 8.55887 18.6515C8.56519 18.6502 8.60333 18.6498 8.66316 18.7224C8.71844 18.7895 8.77051 18.8964 8.79871 19.0278Z" stroke="black" stroke-width="0.253312"/>
<path fill-rule="evenodd" clip-rule="evenodd" d="M14.5422 21.8371C14.1042 22.14 13.6104 22.3781 13.0705 22.534C12.5223 22.6923 11.9692 22.7536 11.4294 22.728L11.3553 22.9617L11.3524 22.9776C11.9398 23.0128 12.5431 22.95 13.1408 22.7774C13.7062 22.6141 14.2235 22.3649 14.6826 22.0481L14.5422 21.8371ZM6.81814 19.0839C7.28916 20.7148 8.5107 21.9253 9.99883 22.4484L9.94174 22.6968C8.36687 22.1526 7.07224 20.8767 6.57477 19.1542C6.46732 18.7821 6.40245 18.4079 6.37726 18.0367L6.6378 18.1192C6.66598 18.4401 6.72541 18.7628 6.81814 19.0839ZM6.66418 17.0057C6.92507 15.0849 8.28621 13.404 10.2683 12.8316C11.7828 12.3941 13.3358 12.6976 14.5395 13.5281L14.7498 13.3662C13.4767 12.459 11.8165 12.1207 10.198 12.5882C8.10163 13.1936 6.66669 14.9799 6.4074 17.015L6.66418 17.0057ZM16.5206 16.2817C16.3231 15.5977 15.9935 14.9877 15.5677 14.4713L15.6826 14.2147C16.1689 14.7767 16.5442 15.4505 16.764 16.2114C16.8856 16.6323 16.9526 17.0561 16.9694 17.4751L16.7103 17.3702C16.6875 17.0087 16.6253 16.6441 16.5206 16.2817ZM16.6698 18.3945C16.5117 19.5001 15.9891 20.5242 15.1935 21.3005L15.3695 21.4828C16.1969 20.6757 16.7434 19.6135 16.9154 18.4657L16.6698 18.3945Z" fill="black"/>
<path d="M13.3654 22.5988C13.5397 22.8797 13.8395 23.323 13.6303 23.5159C13.3687 23.757 12.874 23.9551 12.5672 23.6573C12.3218 23.4191 12.3857 23.029 12.4484 22.8637" stroke="black" stroke-width="0.253312"/>
<path d="M10.7414 18.9137C11.0192 19.067 11.2936 19.2666 11.6114 19.2882C11.8862 19.3068 12.1975 19.1259 12.2987 18.8695C12.375 18.676 12.3502 18.5265 12.2948 18.3347C12.2761 18.2698 12.2559 18.2545 12.1894 18.2406C12.1014 18.2222 12.1566 18.2186 12.1055 18.3112" stroke="black" stroke-width="0.253312" stroke-linecap="round" stroke-linejoin="round"/>
<path d="M14.2026 20.156C14.4372 20.0883 14.9363 20.036 15.0651 19.8026C15.1737 19.6058 15.0585 19.2331 14.8876 19.0978C14.7046 18.953 14.5014 18.8442 14.3497 18.6796" stroke="black" stroke-width="0.253312" stroke-linecap="round" stroke-linejoin="round"/>
<path d="M12.7299 15.2368C12.7772 15.4008 12.8083 15.5127 12.9393 15.6311C13.1136 15.7886 13.2789 15.9293 13.4978 16.0202C13.6675 16.0906 13.8418 16.141 14.019 16.0898C14.2973 16.0095 14.5874 15.8913 14.4923 15.5621" stroke="black" stroke-width="0.253312" stroke-linecap="round" stroke-linejoin="round"/>
<path d="M10.9837 17.0448C11.2082 16.98 11.4361 16.9663 11.6607 16.9014C11.7734 16.8689 11.8988 16.8456 11.9633 16.7358C12.0659 16.5612 12.1257 16.3049 12.0682 16.1059" stroke="black" stroke-width="0.253312" stroke-linecap="round" stroke-linejoin="round"/>
<path d="M9.06035 16.9747C9.2908 16.9139 9.54781 16.9435 9.73567 16.7855C9.92625 16.6252 9.95919 16.5131 9.9232 16.2563C9.9014 16.1007 9.98544 15.2997 9.6476 15.3973" stroke="black" stroke-width="0.253312" stroke-linecap="round" stroke-linejoin="round"/>
<path d="M8.76496 19.5627C8.96067 19.4957 8.95145 19.2155 8.90108 19.0411C8.84733 18.855 8.77844 18.7408 8.60407 18.6446" stroke="black" stroke-width="0.253312" stroke-linecap="round" stroke-linejoin="round"/>
<path d="M9.98938 20.6431C10.1043 20.7289 10.2483 20.7589 10.36 20.8431C10.4485 20.9098 10.6089 20.8746 10.7107 20.904C10.7926 20.9276 11.1444 20.9267 11.1631 20.8255" stroke="black" stroke-width="0.253312" stroke-linecap="round" stroke-linejoin="round"/>
<path d="M6.69536 19.0768L6.45598 18.248C6.45598 18.248 6.48852 18.4729 6.51282 18.6165C6.55098 18.842 6.56344 18.971 6.62372 19.1916C6.72256 19.5534 6.99046 20.0792 6.99046 20.0792L6.61232 20.2988C6.61232 20.2988 6.64857 20.6237 6.70851 20.823C6.76252 21.0026 6.78475 21.1129 6.89188 21.2668C6.98727 21.4038 7.0945 21.4341 7.19866 21.5646C7.29272 21.6824 7.31579 21.7692 7.40355 21.8918C7.49536 22.02 7.65939 22.2042 7.65939 22.2042L8.07266 21.5329C8.07266 21.5329 8.44822 21.8411 8.70774 22.0119C9.13609 22.2936 9.8749 22.6131 9.8749 22.6131C9.8749 22.6131 8.85567 24.0092 9.28378 24.7709C9.52326 25.1969 9.79539 25.4473 10.2766 25.5328L10.2956 25.5362C10.8206 25.6296 11.3281 25.72 11.4993 25.1797C11.6725 24.6329 11.4224 23.7668 11.436 23.4317L11.4564 22.9291L12.447 22.9189C12.447 22.9189 12.308 23.2439 12.3757 23.4363C12.4682 23.6991 12.4934 23.8439 12.9813 23.8134C13.4693 23.7828 13.5492 23.6528 13.6651 23.5055C13.8572 23.2613 13.3131 22.6688 13.415 22.6394C13.5169 22.61 14.3558 22.2021 14.666 22.0021C14.666 22.0021 15.5093 23.9664 15.721 24.126C15.9327 24.2857 16.4636 24.5187 16.8939 24.1736C17.3241 23.8286 17.2362 23.3204 17.1385 23.1095C17.0061 22.651 15.3272 21.4248 15.3272 21.4248C15.3272 21.4248 15.8548 20.8631 16.1764 20.3516C16.495 19.8447 16.6073 19.389 16.661 19.1629C16.661 19.1629 15.7073 19.5889 15.7496 19.7352C15.7918 19.8815 15.8325 20.0016 15.7773 20.1573C15.6919 20.3985 15.4035 20.4595 15.2265 20.5119C14.9393 20.5971 14.6607 20.7238 14.3608 20.7489C14.1121 20.7698 13.8654 20.7611 13.635 20.8789C13.3253 21.0373 13.1603 21.3969 12.8928 21.6089C12.6891 21.7703 12.4483 21.7105 12.2303 21.6119C12.0969 21.5516 12.0335 21.5106 11.8854 21.516C11.7578 21.5206 11.6257 21.578 11.5036 21.6132C11.3204 21.6661 11.1761 21.7229 10.9934 21.6418C10.8645 21.5847 10.7747 21.5197 10.64 21.5817C10.3998 21.6921 10.1286 21.7614 9.86353 21.7668C9.30545 21.7783 8.90253 21.3932 8.54231 21.0085C8.2894 20.7385 8.0998 20.4099 7.83914 20.1485C7.66548 19.9744 7.42115 19.9007 7.21573 19.7753C6.91169 19.5897 6.79112 19.4084 6.69536 19.0768Z" fill="black"/>
<path d="M11.6938 11.632C11.9193 11.3419 11.8934 11.5211 12.1633 11.4937C12.45 11.4646 12.5758 11.1444 12.7392 10.9439C12.9609 10.6722 13.226 10.5138 13.5629 10.4165" stroke="black" stroke-width="0.253312" stroke-linecap="round" stroke-linejoin="round"/>
<path d="M6.75481 12.9137C6.97218 12.851 7.09861 12.8042 7.31238 12.8761C7.44582 12.9209 7.53101 12.9792 7.67844 12.9366" stroke="black" stroke-width="0.253312" stroke-linecap="round" stroke-linejoin="round"/>
<path d="M7.62115 12.9051C7.74747 12.8687 7.99212 12.7232 7.95873 12.9042" stroke="black" stroke-width="0.253312" stroke-linecap="round" stroke-linejoin="round"/>
<path d="M6.5722 20.3027C6.69027 20.7115 6.7408 21.1239 7.03047 21.4252C7.15894 21.5589 7.28634 21.715 7.36829 21.88C7.45124 22.047 7.57052 22.1149 7.66695 22.255" stroke="black" stroke-width="0.253312" stroke-linecap="round" stroke-linejoin="round"/>
<path d="M12.4156 23.4897C12.6519 23.4688 12.9328 23.4695 13.154 23.5768C13.2661 23.6312 13.4987 23.5148 13.6194 23.4799" stroke="black" stroke-width="0.253312" stroke-linecap="round" stroke-linejoin="round"/>
<path d="M11.2246 20.7885L11.1736 20.8032C11.1736 20.8032 11.0679 20.9143 10.817 20.9062C10.5664 20.8981 10.1707 20.7708 10.037 20.6899C10.0736 20.753 10.1862 20.9008 10.3438 20.9877C10.5407 21.0964 10.9925 21.1315 11.1815 21.0217C11.3328 20.9339 11.2732 20.8297 11.2246 20.7885Z" fill="black"/>
<path d="M14.5565 19.3291C14.6216 19.7077 14.3617 19.9925 14.2236 20.0876C14.5587 20.1012 14.9153 19.9982 15.0387 19.8522C15.1297 19.7445 15.1327 19.6043 15.0738 19.4005C14.9855 19.0948 14.555 18.8144 14.3142 18.6815C14.3678 18.7397 14.4913 18.9505 14.5565 19.3291Z" fill="black"/>
<path d="M11.6413 18.7916C11.269 19.0316 10.9035 18.9127 10.7673 18.8232C10.9186 19.0923 11.3754 19.5528 11.9922 19.2422C12.609 18.9316 12.3542 18.4569 12.1496 18.2584C12.1353 18.3362 12.0135 18.5516 11.6413 18.7916Z" fill="black"/>
<path d="M8.77367 19.5648C8.83896 19.4723 8.95778 19.2467 8.91069 19.0836C8.8584 18.9026 8.74267 18.6527 8.63572 18.5841C8.58225 18.5644 8.55764 18.5603 8.596 18.5674C8.60901 18.5698 8.6223 18.5755 8.63572 18.5841C8.74481 18.6244 8.97404 18.7296 9.0341 18.9376C9.07824 19.0904 9.15181 19.3452 9.0284 19.4912C8.92967 19.608 8.81744 19.5889 8.77367 19.5648Z" fill="black"/>
<path d="M9.19616 17.0141C9.43391 16.9454 9.90466 16.677 9.88567 16.1526C9.86875 15.6851 9.79357 15.4918 9.74644 15.4382C9.74101 15.4335 9.73573 15.4289 9.73063 15.4246C9.73538 15.4272 9.7407 15.4317 9.74644 15.4382C9.89631 15.5692 10.1623 15.8596 10.1404 16.079C10.1121 16.3632 10.0328 16.662 9.9094 16.8081C9.84095 16.8891 9.37842 17.0718 9.19616 17.0141Z" fill="black"/>
<path d="M11.0303 17.037C11.0283 17.0373 11.0264 17.0375 11.0244 17.0377C11.0264 17.0375 11.0283 17.0372 11.0303 17.037C11.2443 17.0103 11.5867 16.8738 11.7954 16.6495C11.9481 16.4853 12.0664 16.302 12.0835 16.161C12.05 16.0407 12.0216 15.9726 12.0558 16.0223C12.0819 16.0602 12.09 16.1076 12.0835 16.161C12.1429 16.3746 12.2181 16.7526 11.9856 16.9257C11.6252 17.194 11.2612 17.0111 11.0303 17.037Z" fill="black"/>
<path d="M13.796 15.7404C13.5014 15.7037 12.9768 15.3882 12.7455 15.1606C12.7798 15.2795 12.8806 15.5521 13.0092 15.6916C13.17 15.866 13.1632 16.0335 13.8119 16.1774C14.4605 16.3212 14.6757 15.1551 14.5093 15.5344C14.3428 15.9136 14.1968 15.7902 13.796 15.7404Z" fill="black"/>
<path d="M17.5682 15.4241C17.2711 15.4657 16.6331 15.3078 16.3512 15.2236C16.5386 15.5669 16.7085 16.206 16.77 16.4826C17.0293 16.2973 17.7889 16.1883 18.0584 16.1657C18.3207 16.1436 18.285 16.539 18.8352 16.1798C18.8501 16.17 18.8655 16.1597 18.8814 16.1488C18.9919 16.0727 18.9652 15.7382 18.938 15.5804C18.8603 15.5661 18.6263 15.5711 18.312 15.7061C17.9977 15.841 17.8942 15.6611 17.8818 15.5543C17.901 15.4936 17.8653 15.3825 17.5682 15.4241Z" fill="black"/>
<path d="M12.8838 12.582C12.7669 12.4833 12.0335 12.4412 11.6815 12.4325L11.6645 11.6094C11.6766 11.5876 11.7284 11.5248 11.8389 11.4487C11.977 11.3536 11.9702 11.5212 12.3268 11.4182C12.6835 11.3152 12.6314 10.9438 12.8058 10.7831C12.9801 10.6223 13.5541 10.1254 13.6277 10.3801C13.7013 10.6348 13.3741 10.8397 13.0401 11.2122C12.7061 11.5846 13.0298 12.7054 12.8838 12.582Z" fill="black"/>
<path d="M6.79526 12.9054L7.87634 13.9731C7.96352 13.8927 8.1655 13.7129 8.276 13.6369L8.69038 13.3516L8.04058 12.8217C7.93379 12.8342 7.70276 12.8751 7.63301 12.9394C7.54584 13.0198 7.5017 12.867 7.20282 12.7877C6.96373 12.7243 6.83149 12.8397 6.79526 12.9054Z" fill="black"/>
</svg>
