<?xml version="1.0" encoding="utf-8"?>
<!-- Generator: Adobe Illustrator 24.0.2, SVG Export Plug-In . SVG Version: 6.00 Build 0)  -->
<svg version="1.1" id="Ebene_1" xmlns="http://www.w3.org/2000/svg" xmlns:xlink="http://www.w3.org/1999/xlink" x="0px" y="0px"
	 viewBox="0 0 297 210" style="enable-background:new 0 0 297 210;" xml:space="preserve">
<style type="text/css">
	.st0{display:none;}
	.st1{display:inline;}
	.st2{display:none;fill:#FFFFFF;}
	.st3{display:none;opacity:0.5;fill:#020203;enable-background:new    ;}
	.st4{fill:#020203;}
	.st5{display:none;fill:#020203;}
	.st6{fill:#030405;}
	.st7{fill:#040405;}
	.st8{fill:#161718;}
	.st9{fill:#2D2E2E;}
	.st10{fill:#313132;}
	.st11{fill:#343535;}
	.st12{fill:#414242;}
	.st13{fill:#474848;}
	.st14{fill:#262728;}
	.st15{fill:#99D1C8;}
	.st16{fill:#B2B2B2;}
	.st17{fill:#040406;}
	.st18{fill:#040506;}
</style>
<g id="Ebene_1_1_" class="st0">
	<g class="st1">
		<polyline class="st2" points="194.4,80.2 188.4,84.5 185,89.2 188.4,98.8 193.9,96.8 201.1,91.5 198.4,86.1 194.4,80.2 		"/>
		<path class="st2" d="M189.4,105.8c0,0-0.7,7.5-0.5,10c0.3,3.4,0.8,6.4,0.8,6.4l8.2,2.2l6.2,1.4l1.2-7.3l0.3-6.8l-0.5-4.2l-7.9-1.3
			L189.4,105.8z"/>
		<path class="st2" d="M199.1,125.2c0,0,10.4,3.8,13.2,6.1c1,0.8,3.2,4.2,3.2,4.2l4.7-9h-11.5L199.1,125.2"/>
		<polygon class="st2" points="191.1,131 190,153.9 198.1,142.9 201.8,133.9 196.6,131.4 		"/>
		<path class="st2" d="M218.8,159.1c-2-0.7-2.6-0.7-2.7-0.6c-0.2,0.3,0.6,1,1.1,1.4c0.1,0.2,1.4,1.5,2.6,1.1c0.4-0.2,0.9-0.6,0.8-1
			C220.5,159.7,220.1,159.6,218.8,159.1z"/>
		<path class="st2" d="M164.9,58.3l-1.5,6.1l-0.4,6.8c0,0,2.9,5,4.4,6.1c3.4,2.4,7.6,2.2,10,3.4c1.1,0.6,4.2,2.9,4.2,2.9l7.6-6
			l1.7-2.1l-6.3-6.1c0,0-7.4-5.8-11.1-7.7c-2-1-8.2-3.3-8.2-3.3"/>
		<path class="st2" d="M214,102.5c-0.2-3.9-1.4-7.2-3.7-10.1c-0.8-1-1.6-1.8-2.8-2.4c-1.9-1-3.6-0.3-4.3,1.7
			c-0.3,0.8-0.4,1.7-0.5,2.6c-0.2,1.6,0.2,3.1,0.8,4.6c0.6,1.6,1,3.3,1.9,4.7c1,1.5,2.2,2.9,3.9,3.7s3.1,0.3,3.9-1.3
			C213.9,104.9,214,103.6,214,102.5z"/>
		<path class="st2" d="M147.4,55.7c0,0,1.6,2.2,1.8,2.7c0.8,2.6,0.9,3,0.9,3l7.5,3.8c0,0,0.3-1.7,0.4-2.5c0.1-1.4,0.1-6.1,0.1-6.1
			s-3.6-0.6-5.3-0.9C150.7,55.6,147.4,55.7,147.4,55.7z"/>
		<path class="st2" d="M141.2,69c0,0,0.9,7.7,2.3,9.6c0.5,0.8,2.9,1.1,2.9,1.1s-0.9-3.1-1.2-4.3c-0.2-0.9-0.4-3.4-0.4-4.2
			c0-0.9,0.8-3.5,0.8-3.5L141.2,69z"/>
		<path class="st2" d="M103.8,48l-1.2,2.5c0,0,1.8,4.4,2.7,4.1C106.3,54.2,103.8,48,103.8,48z"/>
		<path class="st3" d="M117.7,32.8l4.3,8.8l4,17l1,0.3L124.4,43l-3.2-8.2c0,0-0.2-2.1-1.1-2.1C118.8,32.7,117.7,32.8,117.7,32.8z"/>
		<path class="st2" d="M131.7,56.7c2.2-0.6,0.5,0,2.7-0.6c-0.1-0.2-0.1-0.4-0.1-0.6c-0.7-2.9-1.2-5.9-1.5-8.8
			c-0.5-5.1,0.5-10,2.2-14.8c0.7-1.9,1.4-3.9,2-5.8c0.4-1.4,0.4-2.9,0.6-4.5c-3,1.3-6,1.5-9.1,1.7C125.3,23.4,131.5,55.6,131.7,56.7
			z"/>
		<path class="st2" d="M141.2,68.1c0.9,0,1.9-0.2,3-0.8c2.2-0.9,3.7-2.4,4.5-4.7c0.8-2.2,0-4.5-1.8-6.1c-1.3-1.1-2.5-1.4-4.2-1.8
			C140.4,54.8,139.4,68,141.2,68.1z"/>
		<path class="st2" d="M224.9,132.7c0-1.4-0.3-3-0.7-3.9c-0.8-1.6-2-2-3.5-1.1c-0.6,0.4-1.2,0.8-1.7,1.4c-1,1.2-2.8,3.6-3.1,7
			c0.8,1.3,3.5,3.5,4,4.1c1.5,2.1,0.9,2.8,1.5,2.1C223.8,139.5,224.7,136.2,224.9,132.7z"/>
		<path class="st2" d="M238.1,119.1c0.3-0.7,0.6-1.1,0.6-1.6c0.1-1.4,0.1-2.8,0-4.2c-0.3-3.2-0.9-6.2-2.3-9.1c-0.5-1-1.1-2-1.8-2.9
			c-0.6-0.8-1.2-0.6-1.5,0.3c-0.2,0.6-0.3,1.3-0.3,2c-0.1,4.1,0.9,8.1,2.5,11.9c0.4,0.9,1,1.8,1.5,2.6
			C237.1,118.5,237.6,118.7,238.1,119.1z"/>
		<path class="st2" d="M177.1,47c1.3-0.1,1.6-0.5,1.2-1.7c-0.1-0.4-0.3-0.8-0.5-1.1c-0.7-0.9-1.3-1.9-2-2.7
			c-2.6-2.8-5.7-4.9-9.2-6.5c-0.5-0.2-1.1-0.3-1.7-0.3c-0.9,0-1.3,0.5-1,1.4c0.2,0.6,0.5,1.2,0.8,1.7c2.6,3.7,6,6.5,10.1,8.4
			C175.6,46.5,176.4,46.7,177.1,47z"/>
		<path class="st2" d="M214.1,71.4c-0.1-0.3-0.1-0.8-0.2-1.2c-0.5-2.4-1.7-4.5-3-6.6c-1.4-2.2-3.3-4-5.4-5.6
			c-0.5-0.4-1.2-0.5-1.8-0.5c-0.5,0-0.8,0.3-1,0.9c-0.2,1.1-0.1,2.1,0.2,3.1c1.1,3.5,3,6.4,5.6,9c1,1,2.1,2,3.4,2.5
			C213.3,73.6,214.1,73.1,214.1,71.4z"/>
		<path class="st2" d="M151.6,90c-0.2,0,2.5,5.4,7.1,9.1c4.7,3.8,8.2,9.6,8.9,9.5c2.1-0.3,3.1-1.5,2.9-3.6c-0.1-1.4-0.6-2.6-1.2-3.8
			c-2.5-4.2-6-7.3-10.4-9.4C157.3,91,154.7,90.1,151.6,90z"/>
		<path class="st2" d="M139.1,108.5c-0.5,0.2-0.6,1.1-0.4,2.1c0.4,1.8,1,2.5,0.8,3.5c-0.3,1.2-1.1,2.2-0.9,2.7
			c0.2,0.4,1,0.6,1.6,0.3c1.5-0.6,2.2-3.6,1.3-5.9C141,109.6,139.7,108.2,139.1,108.5z"/>
		<path class="st3" d="M144,109.7c0.5,0.6,0.8,2.1,0.8,2.9c-0.1,5.8-2.8,10-2.8,10c-1,1.6-5,7.6-11.3,7.8c-1.4,0-3.1,0.2-4.4-0.8
			c-3.6-2.9-0.6-11.6-0.4-11.6c0.1,0-0.8,2.2,0.3,5c0.4,1,1.4,2.2,3.3,2.8c2,0.6,3.9,0.2,6.1-1.4c2.4-1.8,3.8-3.7,4.5-4.8
			c1.6-2.3,2.6-3.8,2.7-5.9c0.1-2.7-0.8-5.1-0.8-5.1S143.6,109.3,144,109.7z"/>
		<path class="st2" d="M133.2,93"/>
		<path class="st2" d="M115.1,90.2c-1,0.1-2,2.1-1.6,3.7c0.1,0.2,0.5,1.6,1.7,1.9c1.4,0.4,3-0.9,3.1-2.1c0-0.6-0.6-1.2-1.8-2.4
			C115.9,90.5,115.5,90.2,115.1,90.2z"/>
		<path class="st3" d="M155.3,124.5c0,0-1.5,1-2.1,2.1c-1.6,3.5,1.2,8.9,5.3,11.8c3.3,2.3,8.6,3.7,11,1.7c1.1-0.9,1.2-3.2,1.2-3.2
			s-1.7,0.6-3.6,0.9c-3.3,0.5-6.2-1.5-7.1-2.2c-0.7-0.5-4-2.9-4.6-6.7C155,126.6,155.3,124.5,155.3,124.5z"/>
		<path class="st3" d="M148.6,91.7c0,0-1.3,1-1.4,1.1c-1.9,3,0.9,9.7,5.1,14.2c5.2,5.4,12,6.8,14.9,5.8c0.5-0.2,1.8-0.6,2.3-1.8
			c0.4-1-0.5-2.6-0.5-2.6s-0.6,0.2-0.8,0.4c-1.5,1.7-7.8,0.2-12.6-3.9c-1.9-1.6-6.1-4.7-6.4-9.3C149.1,94.1,148.6,91.7,148.6,91.7z"
			/>
		<path class="st2" d="M133.2,137.1c-1.2,1-1.2,3.4-0.9,4.6c0.7,3.3,4.7,5.3,5.5,4.8c2.1-1.4-0.2-2.8-1.3-3.6
			c-0.7-0.5-2-1.5-2.2-2.4c-0.3-1.3,0.7-2.9,0.4-3.2C134.4,137,133.7,136.7,133.2,137.1z"/>
		<path class="st2" d="M161.3,124.2c-0.2,0.1-0.4,0.4-0.5,0.7c-0.2,0.9,1.4,1.8,2.5,2.7c3.5,2.7,4.8,7,6.3,6.9
			c0.8-0.1,1.3-1.6,1.1-2.4c-0.8-2.9-4.3-7.7-8-8.1C162.1,124,161.6,124.2,161.3,124.2z"/>
		<path class="st3" d="M153.7,158.4c0,0,0.4,4.9,1.1,6.5l3.6,6.8c0,0,6-1.7,7.7-2.3c6.7-2.2,11.6-6.1,11.6-6.1l3.2,2.9l5.3-3.3
			l-2.6-3.7c5.6-3.1,5.8-5.8,6.3-5.4c-0.3-0.9-7.7,3.1-24.2,4.2C158.4,158.6,153.7,158.4,153.7,158.4z"/>
		<path class="st3" d="M150.4,158.4l0.1,6l-0.9,5.1l-2.2,3.4l-6.9-0.7l-6.3-1.1l-0.5,2.5l0.2,5c0,0-2.8-3.2-4.1-4
			c-1.2-0.7-5.7-1.7-5.7-1.7l2-4.4c0,0-6.8-2.6-9.7-4.4c-2.3-1.5-9.1-6.1-9.1-6.1l-2.8-2.7l-2.2,3.2c0,0-2.5-0.5-4.2-4.4
			c-0.5-1.1-4.2-2.6-4.2-2.6l4.9-2.9l-2.8-4.2l-2.2-3.1l3.8-1.3l3.1-4.5l3.3-4.1l9-1.9c0,0,8.8,8.6,11.2,11.8
			c5.7,7.6,5.7,9.6,8.1,11.5C136,156.2,150.4,158.4,150.4,158.4z"/>
		<path class="st3" d="M98.9,79.3c0,0-3.4,4.9-4.4,6.6c-2.5,4.2-3.8,10.2-3.8,10.2l-3-1.7c0,0,0.8,4.9,0.8,6.2
			c0,1.5-1.1,5.1-1.1,5.1l0.4,0.8l-0.2,8.3l0.2,6.2l-5.1,1.4l-9.4-0.1c0,0,2.4,4.4,3.1,5.7c0.6,1.2,2,4.4,2,4.4l5.3-1.9l0.8-3.4
			l3.6-3.6l6,0.8l9.4,0.7c0,0-6.7-11.5-6.9-17.1c-0.1-2.2,2.6-6.2,2.8-8.5C100,94.6,98.9,79.3,98.9,79.3"/>
		<path class="st3" d="M104.1,97.7c-0.6-0.2-3.9,4.3-4.2,10c-0.1,2-0.1,3.5,0.8,4.4c2.4,2.3,9.4-1.1,13.6-4.4
			c0.6-0.5,9.2-7.6,7.6-13.9c-0.4-1.7-2.2-3.3-2.2-3.3s0,2.1-0.5,4.4c-0.5,2.2-1.7,4.3-4.9,7.8c-4.7,5.1-6.8,4.6-7.8,4.6
			c-0.3,0-1.2,0.1-2.2-1C101.8,103.6,104.7,98,104.1,97.7z"/>
		<path class="st3" d="M131.2,143.3c0,0,0.5,3.4,3.2,5.4c1,0.8,6,4.6,10.9,2.2c2.7-1.3,4.7-4.2,4.9-7.1c0.3-5.1-4.8-8.9-4.8-8.8
			c0,0,3.4,2.7,3.2,6.3c-0.1,2.6-1.9,5.4-4,6.6c-2.8,1.5-6.2,0.6-7.2,0.4C133,147.2,131.2,143.3,131.2,143.3z"/>
		<g>
			<path class="st4" d="M98.3,148.4c-1.5-2.4-3.6-4.3-4.5-6.9c-6-1-9.2-4.7-10.5-10.4c-2.4,0.8-4.6,2-6.7,3.3
				c-3.2,2-6.5,3.7-10.1,4.8c-0.3,0.1-0.7,0.2-1.1,0.3c-1.2,0.3-2.2,0-3.1-0.8c-1.3-1.2-2-2.7-2.7-4.3c-1.4-3.3-2-6.8-2-10.3
				c0-1.1,0.1-2.2,0.7-3.2s1.2-1.3,2.3-1.1c0.9,0.1,1.9,0.1,2.8,0.2c3.3,0.5,6.7,1.1,10,1.7c4.4,0.7,8.8,0.8,13.1-0.3
				c0.4-0.1,0.8-0.2,1.3-0.4c-0.6-4.8-0.6-9.6,0.1-14.5c-1.5-0.2-2.9-0.2-4.3,0.1c-1.6,0.3-3.1,0.6-4.7,1c-1.1,0.2-1.9-0.2-2.5-1
				c-0.5-0.6-0.8-1.4-1.1-2.2c-0.7-2.3-0.7-4.7-0.4-7.1c0.2-2.3,0.9-4.4,1.8-6.5c0.5-1.1,1.1-2,2.1-2.7c0.9-0.7,2.1-0.7,2.8,0
				c1.2,1,2.5,2,3.7,3c1.4,1.2,2.7,2.6,4.1,3.8c0.2,0.2,0.5,0.4,0.9,0.7c3.1-10,8.6-18.3,16.2-25.3c-0.2-0.3-0.3-0.5-0.4-0.6
				c-3.4-3.3-6.8-6.6-10.8-9.1c-1.3-0.8-2.6-1.5-3.9-2.3c-1.8-1.1-2.1-2-1.4-4c0.7-2.3,2.1-4.2,3.7-5.9c1.1-1.2,2.3-2.4,3.6-3.4
				c1.1-0.9,2.4-1.6,3.8-1.7c0.9-0.1,1.6,0.2,2.2,0.9c2.3,2.8,3.2,6.1,3.8,9.5c0.7,4,2.1,7.6,4.3,11c0.2,0.4,0.5,0.7,0.8,1.1
				c3.6-2.5,7.4-4.6,11.4-6.3c-0.3-1.4-0.6-2.8-1-4.1c-0.9-3.2-1.4-6.6-2.7-9.7c-0.6-1.3-1.2-2.7-1.8-4c-0.5-1.1-1.3-1.9-2.4-2.5
				c-0.5-0.3-1.1-0.6-1.6-0.9c-0.9-0.7-1.2-1.6-1-2.7c0.3-1.2,1.1-2,2.1-2.6c1.1-0.6,2.3-0.9,3.5-1c0.3,0,0.5-0.1,0.8-0.1
				c-0.3-1.7-0.7-3.4-0.8-5.1c-0.1-1.6-0.1-3.3-0.1-5c0-1,0.5-1.7,1.5-2c1.6-0.4,3.2-0.9,4.9-1.2c2.9-0.4,5.8-0.4,8.7-0.1
				c1.1,0.1,2.3,0.3,3.4,0.5c0.9,0.2,1.2,0.8,1.1,1.7c-0.1,0.6-0.1,1.2,0,1.8c0.1,2.7-0.6,5.2-1.6,7.7c-2.2,5.2-3.3,10.6-2.8,16.3
				c0.2,2.6,0.8,5.1,1.2,7.7c0.1,0.3,0.2,0.7,0.3,0.9c1.5-0.4,2.9-0.9,4.3-1.2c1.9-0.4,3.8-0.1,5.6,0.6c0.5,0.2,1,0.4,1.5,0.4
				c3.7,0,7.4,0.3,11.1,1c0.1,0,0.2,0,0.2,0c0-1.1-0.1-2.2,0-3.4c0.3-2.9,0.6-5.9,1-8.8c0-0.3,0.2-0.6,0.3-0.9
				c1.2-2.7,2.3-5.4,4-7.9c0.4-0.7,1-1,1.7-0.9c1.1,0.2,2.3,0.3,3.3,0.8c4.1,1.9,7.5,4.7,10,8.5c0.5,0.7,0.7,1.5,1,2.3
				c0.3,0.7-0.1,1.3-0.5,1.8c-1.6,1.9-3.7,3-6,3.9c-3.1,1.3-5.4,3.6-7.1,6.6c0.4,0.2,0.7,0.4,1,0.5c3.4,1.2,6.6,2.8,9.8,4.5
				c1.2,0.7,2.4,1.6,3.5,2.4c1.8,1.3,3.6,2.7,5.5,3.9c1.8,1.2,3.1,2.8,4.6,4.4c0.4,0.5,0.9,0.9,1.4,1.5c1.3-1.8,2.6-3.4,3.8-5.1
				c1.9-2.9,3.8-5.9,5.6-8.8c0.5-0.7,0.8-1.5,0.8-2.4c0.1-1.7,1.4-2.4,3.1-1.8c2,0.7,3.6,2,4.9,3.7c2.2,2.7,4.1,5.6,5,9
				c0.2,0.9,0.2,1.9,0.2,2.9c0,0.9-0.6,1.4-1.4,1.6c-1.5,0.4-3,0.8-4.6,0.7c-3.2-0.2-6.1,0.7-8.9,2.2c-1.3,0.7-2.6,1.5-3.9,2.2
				c-0.3,0.2-0.5,0.4-0.7,0.5c2.1,3.7,4.1,7.3,6.2,11c0.8-1.3,2.3-1.4,3.6-1.9c1.2-0.4,2.5,0,3.6,0.7c2.4,1.6,3.8,3.9,4.9,6.4
				c1,2.2,1.4,4.6,1.6,7.1c1.5,0,3,0.1,4.4,0c2.6-0.2,5.2-0.4,7.8-0.9c2-0.4,3.9-1.1,5.8-1.7c0.6-0.2,1.1-0.2,1.5,0.2
				c0.6,0.6,1.2,1.3,1.7,2.1c0.6,1.1,1.1,2.3,1.6,3.6c0.9,2.8,1.7,5.6,1.8,8.5c0.1,1.3,0,2.6-0.3,3.8c-0.3,1.3-1,1.7-2.3,1.3
				s-2.7-0.8-3.8-1.5c-3.8-2.4-8.1-3.3-12.4-4.2c-4.8-1-9.6-1-14.4-1c-0.1,0-0.2,0-0.4,0.1c-0.1,2.1-0.2,4.1-0.4,6.2
				c-0.2,2-0.5,4-0.8,6.1c1.2,0.4,2.6,0.4,3.9,0.6c3.4,0.4,6.8-0.2,10.1-0.2c1.4,0,2.8,0.4,4.2,0.8c0.8,0.2,1.4,0.8,1.6,1.5
				c0.4,0.9,0.8,1.9,0.9,2.9c0.3,3.7-0.5,7.2-2.5,10.3c-0.8,1.3-1.8,2.3-3.1,3.1c-1,0.6-2.1,0.5-3.1-0.1c-2.3-1.2-4.2-3.1-6.1-4.8
				c-2.5-2.2-5.2-4.1-8.2-5.4c-1.6,3.4-3.2,6.7-4.8,9.9c2.5,2,5,4.1,7.6,6.1c1.5,1.2,3.1,2.2,4.7,3.3c2.7,1.8,5.8,2.8,8.9,3.6
				c1.5,0.4,3,0.9,4.1,2.1c1,1,1.1,1.7,0.5,2.9c-0.9,1.6-1.7,3.1-2.7,4.6c-0.3,0.5-0.7,0.9-1.2,1.2c-1.1,0.7-1.8,0.6-2.7-0.2
				c-1.1-1-2.2-2.1-3.2-3.2c-3.6-3.8-7.2-7.7-11.5-10.7c-2.3-1.6-4.5-3.4-7.1-4.6c-0.2-0.1-0.4-0.2-0.7-0.3c-3,4-6.4,7.7-10.5,10.9
				c1.4,1.3,2.7,2.5,4,3.7c4.1,3.7,8.5,6.8,13.2,9.6c1.8,1,3.6,2.1,5.2,3.4c0.7,0.6,0.9,1.4,0.7,2.3c-0.3,1.8-1.1,3.3-2.1,4.8
				c-1.5,2.3-3.3,4.2-5.5,5.8c-0.7,0.5-1.4,1-2.1,1.4c-0.6,0.3-1.3,0.5-2,0.6c-0.9,0.1-1.5-0.4-1.9-1.2c-0.2-0.5-0.5-1-0.7-1.5
				c-0.6-1.3-1.4-2.6-1.9-3.9c-2.9-7.2-6.6-13.8-11.7-19.7c-0.3-0.4-0.6-0.7-0.8-1c-3.3,1.6-6.3,3.3-9.5,4.6s-6.6,2.2-9.7,3.2
				c0.5,1.8,1,3.6,1.4,5.5c0.2,1.3,0.1,2.6,0.2,3.9c0,0.4-0.1,0.7,0,1.1c0.1,1.1-0.3,1.9-1.3,2.2c-1.1,0.4-2.2,0.8-3.3,0.9
				c-3.3,0.3-6.5-0.1-9.6-1.5c-1-0.4-1.9-1-2.6-1.8c-0.5-0.5-0.7-1.1-0.6-1.8c0.4-1.8,0.9-3.5,2-5c0.5-0.7,1-1.4,1.6-2.2
				c-4.2-0.4-8.3-0.9-12.4-1.3c-0.4,1.5-0.3,3-0.2,4.5c0.1,1.5,0.3,3.1,0.3,4.6c0,0.9,0,1.8-0.2,2.7c-0.2,1.2-1.1,1.8-2.1,2.1
				c-1.5,0.5-3,0.6-4.6,0.4c-2.3-0.2-4.4-0.9-6.4-2c-1-0.5-1.8-1.3-2.3-2.3c-0.3-0.7-0.2-1.4,0.1-2.1c1.1-2.6,2.8-4.7,4.5-6.9
				c0.8-1.1,1.5-2.3,2.4-3.6c-7.8-3.3-15-7.4-21-13.4c-0.9,1.1-1.7,2.3-2.3,3.6c-0.7,1.6-1.2,3.3-1.9,5c-0.6,1.6-1.2,3.2-1.9,4.7
				c-0.3,0.7-1.2,1.1-2.1,0.9c-1.2-0.3-2.5-0.6-3.6-1.1c-3.5-1.8-6.7-4-9.2-7.1c-0.6-0.7-1.2-1.6-1.6-2.4c-0.8-1.8-0.4-2.5,1-3.5
				c1.1-0.8,2.3-1.4,3.5-1.9c1.9-0.9,3.9-1.7,5.9-2.4c1.8-0.7,3.5-1.7,5.1-2.9C98,148.7,98.2,148.5,98.3,148.4z M149.1,150.9
				c0.1,0,0.2,0,0.3-0.1c0.1,0.3,0.3,0.5,0.4,0.8c0.2,0.9,0.4,1.8,0.6,2.7c0.7,3.9,1,7.7,0.4,11.6c-0.3,2.1-0.9,4.1-2,5.8
				c-1,1.4-2,2.8-3,4.2c-0.5,0.8-1.1,1.6-1.3,2.6c5.6-1.5,10.7-0.8,15.7,2.5c-0.1-1.3-0.2-2.4-0.4-3.5c-0.5-3-1.7-5.7-3.2-8.2
				c-3.1-5.1-3.7-10.7-3.6-16.4c0-0.2,0.2-0.4,0.4-0.9c0.5,0.7,0.6,1.3,0.6,1.9c0.1,1.8,0.1,3.6,0.2,5.5c0.3,4.3,2.3,8,4.3,11.7
				c5.9-0.8,16.7-5.5,19.1-7.7c-1.1-1.4-2.7-2.4-3.4-4.1c0.6-0.4,0.9-0.1,1.2,0.2c1.1,1.2,2.1,2.4,3.2,3.5c2.7,2.7,5,5.6,6.9,8.8
				c2.7,4.5,5.2,9.1,6.9,14.1c0.3,0.7,0.7,1.4,1.1,2.3c2.3-5.5,5.8-9.6,11.2-12.1c-0.9-0.5-1.7-1-2.5-1.4c-4.2-2.1-8-4.9-11.7-7.8
				c-3.7-2.9-6.8-6.4-10.6-9.2c-0.3-0.2-0.4-0.5-0.6-0.8c0.1-0.1,0.2-0.2,0.2-0.3c1.7,0.4,2.7,1.9,4.1,2.7c3-2.4,5.8-5.1,8.2-8.1
				c0.8-1,1.8-1.8,2.2-3c0-0.2,0.6-0.3,0.9-0.2c0.2,0,0.5,0.3,0.7,0.4c5,2.7,9.4,6.1,13.5,10c2.3,2.2,4.3,4.5,6.5,6.8
				c0.6,0.7,1.4,1.2,2.1,1.7c0.9,0.6,1.5,0.5,2.1-0.4c1-1.4,1.9-2.9,2.7-4.5c0.7-1.4,0.5-2.2-0.9-2.9c-1.1-0.6-2.2-1-3.4-1.3
				c-4.3-1.1-8.2-3-11.7-5.6c-3.2-2.4-6.3-4.9-9.4-7.4c-0.3-0.2-0.1-0.2-0.2-0.3c0.3-0.6,0.6-1.4,0.8-1.9c0.9-1.7,1.8-3.4,2.6-5.1
				c0.6-1.2,1-2.5,1.6-3.8c-2.1-0.9-4-1.6-6-2c-2.4-0.5-4.8-0.7-7.2-0.3c-0.6,0.1-1.3,0.1-1.9-0.6c0.6-0.1,1.1-0.2,1.6-0.2
				c2.2-0.1,4.5-0.3,6.7-0.1c2.7,0.2,5.1,1.3,7.6,2.3c2,0.8,3.8,2,5.6,3.3c2.1,1.6,4,3.4,6,5.1c0.3,0.3,0.7,0.6,1.1,0.9
				c-1.1-6.2,0.3-11.4,4.9-15.7c-1,0-1.8-0.1-2.7,0c-2.6,0.2-5.1,0.4-7.7,0.3c-2.6-0.1-5.1-0.5-7.6-1c-2.3-0.4-4.6-0.9-6.8-1.4
				c-1.1-0.2-2.2-0.4-3.3-0.7c-1.2-0.3-2.3-0.7-3.5-1.1c-0.2-0.1-0.5-0.2-0.7-0.3c0.2-0.5,0.6-0.5,1-0.4c0.9,0.2,1.8,0.3,2.7,0.5
				c3.9,0.8,7.7,1.7,11.6,2.6c0.3,0.1,0.7,0.1,1.2,0.1c0.3-2.5,0.7-4.8,0.9-7.2c0.2-3.1,0.3-6.2-0.1-9.4c-0.1-1.1-0.1-1.1-1.2-1.3
				c-4.3-0.9-8.6-1.2-12.9-1.3c-1.9,0-3.7,0.3-5.6,0.4c-0.2,0-0.5,0-0.7,0c0-0.1-0.1-0.2-0.1-0.4c0-0.1,0-0.2,0-0.4
				c2.5-0.7,5-0.7,7.5-0.6c2.6,0.1,5.1,0.3,7.7,0.6c2.5,0.3,4.9,0.8,7.4,1.3c-2.1-2.2-3.6-4.8-4.4-7.7c-0.8-2.8-1.2-5.7-0.2-8.7
				c-3,2.4-5.8,5-9.2,6.6s-7,2.8-10.8,3.6c-0.1-0.3-0.2-0.6-0.3-0.9c6.9-1.5,13.3-4,18.4-8.9c-1.7-3.9-3.7-7.6-6.2-11
				c-5.5,3.4-9,8.5-13,13.5c0-0.5-0.1-0.8,0-1c0.1-0.3,0.3-0.5,0.4-0.7c1.6-2,3.1-4,4.7-5.9c1-1.2,1.9-2.3,3-3.3
				c3.2-2.8,6.7-5,10.5-6.8c2.9-1.4,5.9-2.3,9.2-1.9c0.5,0.1,1-0.1,1.5-0.1c-2.2-1.5-3.9-3.4-5.4-5.5s-2.7-4.4-3.5-6.9
				c-0.2,0.1-0.3,0.2-0.3,0.2c-1.8,2.9-3.5,5.7-5.4,8.6c-2.6,4-5.7,7.6-9.6,10.4c-1.4,1-2.7,2.2-4.1,3.3c-0.9,0.7-1.7,1.4-2.6,2.1
				c-0.5,0.4-1,0.4-1.6,0c4.2-3.4,8.6-6.5,12.6-10.3c-1.2-1.2-2.2-2.4-3.4-3.4c-2.2-1.8-4.5-3.4-6.7-5.2c-3.2-2.7-6.8-4.8-10.6-6.5
				c-1.6-0.7-3.2-1.3-4.9-2c-0.3,0.6-0.5,1.1-0.7,1.6c-0.9,2.9-1.4,5.8-1.5,8.8c0,1,0,2,0,2.9c0,0.2-0.2,0.5-0.3,0.7
				c-0.7-0.3-0.7-0.8-0.7-1.3c-0.1-2.3,0.1-4.6,0.5-6.9c0.5-2.6,1-5.3,2.6-7.6c1.9-2.9,4.3-5.2,7.6-6.5c1.2-0.5,2.3-1.1,3.4-1.6
				c0.4-0.2,0.7-0.5,1-0.8c-6.2-2.1-10.9-5.8-14.2-11.5c-0.4,0.9-0.9,1.8-1.3,2.7c-0.7,1.8-1.6,3.7-2,5.6c-0.6,3-0.9,6-0.8,9.1
				c0.1,2.5,0,5,0,7.6c0,0.9,0,1.9-0.2,2.8c-0.4,2-0.8,3.9-1.2,5.8c-0.1,0.6-0.2,1.2-0.4,1.8c-0.1,0.4-0.1,1-0.8,0.9
				c-0.5-0.1-0.3-0.6-0.2-1c0.2-0.7,0.3-1.3,0.5-2c0.5-2.4,1.3-4.9,1.3-7.4c0-1.1,0-2.1,0-3.2c0-0.7,0.1-1.4,0.2-2.2
				c-3.6-0.6-7-1.2-10.8-1c0.5,0.6,0.8,1,1.2,1.3c1.7,1.9,2.1,4.8,0.6,7.2c-0.4,0.6-0.8,1.1-1.2,1.7c-0.7,1.3-1.5,2.5-2.1,3.8
				c-0.4,0.9-0.5,1.9-0.4,3c0.3,2.3,0.9,4.4,1.7,6.6c0.1,0.3,0.4,0.7-0.1,0.9c-0.5,0.2-0.6-0.3-0.8-0.6c-0.1-0.2-0.2-0.4-0.3-0.7
				c-0.4-1.4-0.9-2.9-1.2-4.3c-0.5-2.2-0.5-4.4,0.6-6.5c0-0.1,0-0.2,0.1-0.4c-2.8,1.4-5.6,1.6-8.8,0.8c0.3,0.4,0.4,0.6,0.5,0.8
				c1.1,1.7,1.7,3.5,1.7,5.5c0,2.8-0.1,5.6-0.2,8.4v0.1c-0.1,0.2-0.3,0.6-0.4,0.6c-0.4,0-0.5-0.3-0.5-0.7c0-1.5,0.1-2.9,0.1-4.4
				c0-1.8,0.2-3.7,0-5.5c-0.3-2.8-2-4.8-4.1-6.6c-2.7-2.3-3.3-5.9-1.4-8.8c0.1-0.2,0.3-0.5,0.6-0.9c-2.1,0.6-4,1.1-6,1.7
				c-0.6-3.4-1.2-6.7-1.7-10c-0.4-2.3-0.6-4.7-1.5-6.9c-0.4-1-0.8-2-1.2-3c-0.7-1.8-1.5-3.6-2.1-5.4c-0.2-0.6-0.6-0.8-1.2-0.8
				c-1.3,0.1-2.6,0.4-3.7,1.1c-0.5,0.4-1,0.9-1.3,1.4c-0.6,0.9-0.3,1.7,0.6,2.3c0.4,0.3,0.8,0.5,1.3,0.7c1.4,0.6,2.3,1.6,2.9,3
				s1.2,2.8,1.8,4.2c1.3,3.2,1.8,6.6,2.7,9.8c0.3,1.2,0.5,2.5,0.8,3.7c0.2,0.8,0.3,0.9-0.4,1.1c-3.3,1.2-6.3,2.9-9.2,4.8
				c-0.7,0.5-1.5,1-2.3,1.5c0.8,1,1.5,2,2.3,2.9c1.1,1.3,2.3,2.5,3.5,3.7c0.2,0.3,0.6,0.6,0.3,0.9c-0.4,0.4-0.7,0-1-0.3
				c-0.4-0.4-0.8-0.9-1.2-1.3c-2-1.9-3.7-4.1-5.2-6.4c-1.8-2.9-3.5-6-4.3-9.4c-0.5-2.1-0.9-4.2-1.4-6.3c-0.4-1.5-0.8-2.9-1.8-4.2
				c-2.1,5.5-5.8,9.5-11.2,12c1.2,0.7,2.4,1.2,3.5,1.9c4.6,3,8.7,6.6,12.3,10.7c1.8,2,3.2,4.2,4.8,6.3c0.2,0.3,0.4,0.6,0.4,0.9
				c0,0.2-0.1,0.4-0.2,0.6c-0.2-0.1-0.5-0.1-0.6-0.2c-0.2-0.2-0.3-0.5-0.5-0.7c-1.5-2.4-3.3-4.5-5.1-6.6c-7.1,6.1-13.9,16-16.4,25.1
				c1,0.5,2,1.1,3.1,1.6s2.2,0.8,3.3,1.2c0.4,0.1,0.9,0.2,0.8,1c-0.4-0.1-0.9-0.1-1.3-0.2c-4.1-1.1-7.5-3.4-10.4-6.5
				c-0.8-0.9-1.8-1.7-3-2.7c1.1,5.6,0.5,10.7-2.4,15.6c0.4-0.1,0.8-0.1,1.1-0.2c3.9-1,7.6-0.6,11.2,1c0.3,0.1,0.6,0.2,0.8,0.4
				c0.1,0.1,0.2,0.4,0.2,0.5c-0.1,0.1-0.3,0.3-0.5,0.3c-0.3,0-0.6-0.2-0.9-0.3c-1.4-0.5-2.8-1-4.4-1.2c-0.7,5.6-0.8,11.2,0.3,16.5
				c1.4,0.2,2.6,0.4,3.8,0.7c0.9,0.2,1.7,0.5,2.6,0.6c0.8,0.1,1.6,0.2,2.4,0.2c3.8,0.4,7.6,0.3,11.3-0.7c0.5-0.1,1-0.1,1.6-0.1
				c-0.7,0.8-0.7,0.8-1.4,1c-3.8,1-7.7,0.9-11.5,0.6c-0.7-0.1-1.4-0.1-2.3-0.2c3.3,2.7,5.2,6,5.2,10.1c0.2-0.2,0.4-0.5,0.5-0.7
				c1.3-2.2,3-3.8,5.5-4.3c2-0.4,4-0.6,6-0.9c0.4,0,0.8,0.2,1.2,0.3c0,0.1,0,0.2,0,0.3c-0.4,0.1-0.8,0.3-1.2,0.3
				c-1.3,0.1-2.6,0.2-3.9,0.4c-2.8,0.4-5.1,1.5-6.7,3.9c-0.9,1.4-1.7,2.7-2.7,4c-0.4,0.6-0.9,1.2-1.5,1.6c-0.9,0.6-1.9,0.9-2.9,1.4
				c1.2,2.2,2.5,4.4,4.2,6.4c0.2-0.2,0.4-0.2,0.5-0.3c1.8-1.8,3.6-3.5,5.4-5.3c1.3-1.4,2.5-2.9,3.7-4.4c0.2-0.3,0.4-0.7,1-0.7
				c-0.1,0.3-0.2,0.6-0.3,0.8c-0.5,0.7-0.9,1.4-1.5,2.1c-1.5,1.7-3.1,3.5-4.7,5.2c-3,3.3-6.5,5.7-10.6,7.4c-2.4,0.9-4.8,2-7.2,3
				c-0.2,0.1-0.4,0.3-0.8,0.5c3.3,0.7,5.9,2.3,8.4,4.2s4.7,4.1,6.3,7.1c0.6-1.8,1.2-3.3,1.5-4.9c0.8-3.6,2.9-6.5,5-9.3
				c1.6-2.2,3.7-4,5.7-5.9c1.3-1.2,2.7-2.3,4-3.4c0.3-0.3,0.7-0.7,1.4-0.2c-4.3,3.4-8.2,7.1-11.4,11.4c4.3,5,16,11.6,21,13.3
				c0.4-1.2,0.9-2.3,1.2-3.5c0.4-1.5,0.7-3,1.1-4.5c0.1-0.4,0.1-1,0.9-1.1c0,0.3,0.1,0.6,0,0.9c-0.1,0.5-0.2,1-0.3,1.5
				c-0.7,3.6-1.8,7-3.9,10c-1.2,1.7-2.5,3.4-3.8,5.1c-0.3,0.4-0.6,0.9-1,1.5c5-1.2,9.4-0.2,13.4,2.9c-0.1-1.2-0.2-2.3-0.3-3.3
				c-0.4-3.1-0.3-6.2,0.3-9.3c0.3-1.7,0.8-3.3,1.1-5c0.2-1.1,0.4-2.1,0.6-3.2c0.1-0.4,0.2-0.7,0.6-0.6c0.2,0.1,0.3,0.5,0.4,0.8
				c0,0.1,0,0.2,0,0.2c-0.5,2-0.9,4-1.4,6c-0.3,1.3-0.6,2.6-0.9,4.1c4.5,0.6,8.8,1.1,13.1,1.2c1.9-2.7,2.6-5.6,2.7-8.8
				c0.1-3.7-0.3-7.4-1-11C149,152,149.1,151.5,149.1,150.9z M119,22.2c0.2,1.9,0.2,3.7,0.5,5.5c0.2,1.5,0.6,2.9,1.1,4.3
				c1,2.7,2.2,5.3,3.3,8c0.5,1.2,1,2.4,1.3,3.7c0.7,3.6,1.3,7.3,2,11c0.2,1.1,0.3,2.1,0.5,3.3c2.2-0.6,4.4-1.2,6.5-1.8
				c-0.1-0.2-0.1-0.4-0.1-0.6c-0.7-2.9-1.2-5.9-1.5-8.8c-0.5-5.1,0.5-10,2.2-14.8c0.7-1.9,1.4-3.9,2-5.8c0.4-1.4,0.4-2.9,0.6-4.5
				c-3,1.3-6,1.5-9.1,1.7C125.3,23.4,122.2,23.3,119,22.2z M206,112.3c1.4-0.1,2.6-0.2,3.8-0.2c4.2-0.1,8.4,0.5,12.5,1.3
				c4.2,0.8,8.2,2.1,11.8,4.4c0.5,0.3,1.1,0.5,1.8,0.9c-2.9-5.6-4.3-11.2-3.6-17.3c-1.2,0.4-2.3,0.9-3.5,1.2
				c-3.2,0.7-6.5,1.1-9.8,1.2c-1.3,0.1-2.6,0.1-3.9,0.1c-0.2,0.6-0.3,1.1-0.4,1.5c-0.8,2.6-2.3,3.5-5,3.1c-1.3-0.2-2.6-0.4-4-0.6
				C205.8,109.4,205.9,110.7,206,112.3z M88,123.5c-0.1-0.5-0.2-1-0.3-1.4c-0.3,0.1-0.6,0.1-0.8,0.2c-3.9,1-7.9,1.3-11.9,0.6
				c-2.7-0.5-5.4-0.9-8.1-1.4c-1.6-0.3-3.2-0.5-4.9-0.8c0.1,0.2,0.1,0.3,0.1,0.4c2.9,3.9,3.9,8.3,4.2,13c0.1,1.6-0.2,3.1-0.8,4.7
				c0.4-0.1,0.7-0.2,1-0.3c2.1-0.9,4.2-1.8,6.2-2.9c2.6-1.3,5-2.9,7.5-4.3c1-0.5,2-0.9,3-1.3C83.5,126.9,84.8,124.6,88,123.5z
				 M93.9,140.5c0.4-0.1,1-0.1,1.5-0.2c2.3-0.7,3.8-2.7,3.8-5.3c0.1-3.5-1.4-6.3-3.9-8.5c-1.5-1.3-3.2-2.1-5.2-2.2
				c-2.5-0.1-4.9,1-5.7,3.8c-0.4,1.3-0.3,2.6-0.1,3.9c0.3,2.1,1.4,3.9,2.9,5.4C89.1,139.2,91.1,140.5,93.9,140.5z M140.1,68.1
				c1.5-0.1,2.8-0.3,4.1-0.8c2.2-0.9,3.7-2.4,4.5-4.7c0.8-2.2,0-4.5-1.8-6.1c-1.3-1.1-3.1-1.6-4.2-1.8c-1.9,0-3.1-0.5-6.3,0.8
				c-0.1,0.1-1.6,1.1-2.6,2.2c-1.7,1.9-2.2,4.9-0.4,7.2C135.1,67.3,137.5,68,140.1,68.1z M214.1,102.5c-0.2-3.9-1.4-7.2-3.7-10.1
				c-0.8-1-1.6-1.8-2.8-2.4c-1.9-1-3.6-0.3-4.3,1.7c-0.3,0.8-0.4,1.7-0.5,2.6c-0.2,1.6,0.2,3.1,0.8,4.6c0.6,1.6,1,3.3,1.9,4.7
				c1,1.5,2.2,2.9,3.9,3.7s3.1,0.3,3.9-1.3C214,104.8,214.1,103.6,214.1,102.5z M224.9,132.7c0-1.4-0.3-3-0.7-3.9
				c-0.8-1.6-2-2-3.5-1.1c-0.6,0.4-1.2,0.8-1.7,1.4c-2.5,3.3-3.6,7.1-3.2,11.2c0.1,0.8,0.4,1.6,0.7,2.3c0.5,1.1,1.5,1.5,2.6,1.2
				c0.9-0.2,1.6-0.7,2.2-1.4C223.8,139.5,224.7,136.2,224.9,132.7z M82.9,95.3c0-0.6,0-1.3-0.1-2c-0.2-1.2-0.4-2.5-1-3.5
				c-0.9-1.6-2.1-1.7-3.2-0.3c-0.8,1-1.5,2.1-1.9,3.4c-0.8,2.5-1.2,5-1.1,7.6c0.1,1.7,0.2,3.3,1,4.8c0.9,1.7,2.2,1.8,3.3,0.3
				c0.6-0.7,1-1.6,1.4-2.4C82.4,100.8,82.8,98.2,82.9,95.3z M214.1,71.5c-0.1-0.3-0.1-0.8-0.2-1.2c-0.5-2.4-1.7-4.5-3-6.6
				c-1.4-2.2-3.3-4-5.4-5.6c-0.5-0.4-1.2-0.5-1.8-0.5c-0.5,0-0.8,0.3-1,0.9c-0.2,1.1-0.1,2.1,0.2,3.1c1.1,3.5,3,6.4,5.6,9
				c1,1,2.1,2,3.4,2.5C213.3,73.7,214.1,73.1,214.1,71.5z M65.5,134.7c-0.1-4-0.9-7.5-2.5-10.7c-0.5-1-1.1-1.9-1.9-2.7
				c-1-1-1.9-0.8-2.2,0.5s-0.5,2.6-0.5,4s0.3,2.8,0.6,4.2c0.6,2.7,1.5,5.2,3.1,7.5c0.3,0.4,0.8,0.8,1.2,1.1c0.5,0.3,1,0.2,1.3-0.3
				c0.2-0.3,0.4-0.7,0.5-1.1C65.4,136.2,65.4,135.3,65.5,134.7z M96.5,169.4c1.7,0,2.1-0.5,1.6-1.7c-0.3-0.7-0.7-1.4-1.2-2
				c-2.8-3.6-6.4-6.3-10.6-8c-0.7-0.3-1.5-0.4-2.3-0.5c-1.1-0.1-1.4,0.4-1,1.4c0.3,0.7,0.6,1.3,1,1.9c2.4,3.2,5.5,5.8,9.1,7.6
				C94.3,168.8,95.5,169.3,96.5,169.4z M90.4,55.7c0,1.2,0.6,1.7,1.8,1.4c0.7-0.2,1.3-0.4,1.9-0.8c2.5-1.4,4.5-3.4,6.2-5.8
				c1-1.4,1.9-2.8,2.2-4.4c0.4-1.8-0.4-2.6-2.1-1.8c-1.5,0.6-2.9,1.4-4.2,2.4c-1.8,1.4-3.3,3.3-4.5,5.3
				C91.1,53.2,90.4,54.3,90.4,55.7z M177.1,46.9c1.3-0.1,1.6-0.5,1.2-1.7c-0.1-0.4-0.3-0.8-0.5-1.1c-0.7-0.9-1.3-1.9-2-2.7
				c-2.6-2.8-5.7-4.9-9.2-6.5c-0.5-0.2-1.1-0.3-1.7-0.3c-0.9,0-1.3,0.5-1,1.4c0.2,0.6,0.5,1.2,0.8,1.7c2.6,3.7,6,6.5,10.1,8.4
				C175.5,46.5,176.3,46.6,177.1,46.9z M206.3,178.9c0-1.6-0.4-2-1.5-1.8c-0.6,0.1-1.2,0.4-1.8,0.7c-3.3,1.9-5.7,4.7-7.5,8
				c-0.6,1-1,2-1.1,3.2s0.3,1.6,1.4,1.4c1.2-0.3,2.4-0.6,3.4-1.5c2.4-2.2,4.6-4.5,6.1-7.4C205.8,180.6,206.1,179.5,206.3,178.9z
				 M149,178.5c-0.7,0.1-1.9,0.3-3.1,0.5c-0.9,0.2-1.7,0.6-1.9,1.5c-0.1,0.9,0.7,1.4,1.4,1.9c1.6,1.1,3.5,1.6,5.4,2
				c2.3,0.4,4.6,0.6,6.9-0.1c0.6-0.2,1.1-0.5,1.6-0.8c0.6-0.5,0.7-0.9,0.2-1.5c-0.4-0.5-0.9-1-1.4-1.3
				C155.5,179.2,152.5,178.7,149,178.5z M123.9,178.8c-0.6,0.1-1.6,0.2-2.5,0.5c-1.9,0.6-2.1,1.8-0.8,3.2c0.8,0.8,1.8,1.5,2.9,1.9
				c2.3,0.8,4.6,1.3,7.1,0.9c0.8-0.1,1.6-0.4,2.3-0.8c0.8-0.5,0.9-1.2,0.4-2c-0.3-0.5-0.8-0.9-1.3-1.3
				C129.7,179.5,127,178.9,123.9,178.8z M238,119.3c0.3-0.7,0.6-1.1,0.6-1.6c0.1-1.4,0.1-2.8,0-4.2c-0.3-3.2-0.9-6.2-2.3-9.1
				c-0.5-1-1.1-2-1.8-2.9c-0.6-0.8-1.2-0.6-1.5,0.3c-0.2,0.6-0.3,1.3-0.3,2c-0.1,4.1,0.9,8.1,2.5,11.9c0.4,0.9,1,1.8,1.5,2.6
				C237.1,118.6,237.5,118.8,238,119.3z M119.4,21.1c0,0.1,0,0.2,0,0.3c0.3,0.1,0.5,0.4,0.8,0.4c1,0.2,2,0.5,3,0.5
				c2.2,0.1,4.4,0.1,6.6,0c2.1-0.1,4.2-0.4,6.2-1.2c0.5-0.2,1-0.2,1.2-0.8c-0.9-0.8-1.9-1.1-2.9-1.1c-2.2-0.1-4.4-0.2-6.6-0.1
				c-2.4,0.1-4.7,0.4-7,1.2C120.3,20.6,119.9,20.8,119.4,21.1z"/>
			<path class="st4" d="M148.1,93c-0.4,0.2-0.7,0.3-1.3,0.5c0.3-0.4,0.3-0.6,0.5-0.8c0.4-0.5,0.9-0.9,1.3-1.4
				c1.4-1.8,3.3-2.1,5.4-1.9c4,0.4,7.2,2.5,10.2,5c2.2,1.8,4,3.9,5.3,6.4c0.9,1.7,1.6,3.5,1.2,5.5c-0.1,0.7-0.4,1.4-0.9,1.9
				c-0.7,0.7-1.2,1.5-1.6,2.3c-0.1,0.3-0.4,0.5-0.6,0.8c-0.5-0.5-0.5-0.5-0.1-1.5c-1.3-0.1-2.6-0.1-3.8-0.3
				c-3.7-0.8-6.8-2.7-9.5-5.2c-1.3-1.2-2.5-2.5-3.6-3.9C149.2,98.2,148.1,95.9,148.1,93z M153.2,90.3c-0.2,0-0.4,0-0.6,0
				c-2.4,0.1-3.8,1.6-3.4,3.9c0.2,1.1,2.2,8.6,13.9,13.9c1.2,0.4,2.5,0.6,3.9,0.4c2.1-0.3,3.1-1.5,2.9-3.6c-0.1-1.4-0.6-2.6-1.2-3.8
				c-2.5-4.2-6-7.3-10.4-9.4C156.7,91.1,155.1,90.3,153.2,90.3z"/>
			<path class="st4" d="M120.3,92.5c-1.2,6.4-4.7,11-10.4,14.1c-0.6,0.3-1.4,0.6-2.1,0.7c-0.7,0.2-1.5,0.2-2.2,0.3
				c-0.1,0.7,1.1,1.1,0.7,1.9c-0.1,0-0.2,0-0.2,0c-1.1-1.4-2.4-2.7-3.4-4.1c-0.8-1.2-0.6-2.6-0.4-3.9c0.5-2.7,1.7-5,3.4-7.2
				c2-2.7,4.5-4.7,7.5-6.1c1.2-0.6,2.5-0.7,3.7-0.4c1.1,0.2,1.9,0.8,2.4,1.7c0.7,1.1,1.3,2.3,1.9,3.4c0.2,0.4,0.4,0.9,0.2,1.5
				C121,93.8,121,92.9,120.3,92.5z M103.3,102.9c0,0.2,0,0.3,0,0.5c0.1,2.2,1.6,3.5,3.8,3.1c1-0.2,2.1-0.5,3-1
				c4.2-2.5,7.2-6,8.7-10.7c0.4-1.1,0.5-2.3,0.3-3.5c-0.3-1.7-1.4-2.5-3.1-2.5c-1.3,0-2.6,0.4-3.8,1.1c-3.5,2-6,5-7.7,8.5
				C103.8,99.8,103.3,101.3,103.3,102.9z"/>
			<path class="st4" d="M143.9,109.4c-0.4,0.1-0.6,0.2-0.9,0.2c0,0.2,0.1,0.4,0.1,0.7c0.6,2.2,0.2,4.3-0.7,6.4
				c-1.6,3.8-4.2,6.7-7.9,8.5c-2.2,1.1-4.5,1.4-6.9,0.2c-0.1,0-0.1,0-0.3,0c0,0.4,0.1,0.8,0.1,1.1c-0.1,0-0.2,0.1-0.2,0.1
				c-0.1-0.2-0.4-0.5-0.4-0.7c-0.2-1-0.6-1.8-1.1-2.7c-0.6-1.1-0.8-2.4-0.6-3.6c0.9-6.4,4.6-10.7,10.6-13c1-0.4,2.1-0.5,3-0.3
				c0.8,0.1,1.5,0.5,1.6,0.5c0.5,0.3,0.8,0.5,1.2,0.8C142.1,108.1,142.9,108.7,143.9,109.4z M138,107.3c-1.6,0-3,0.4-4.3,1.2
				c-3.1,1.8-5.4,4.4-6.7,7.7c-0.9,2.3-1.4,4.6,0,7c0.5,0.9,1.2,1.5,2.1,1.9c1.3,0.5,2.7,0.4,4-0.1c4.9-1.9,7.9-5.5,9.3-10.5
				c0.3-1.2,0.4-2.3,0.1-3.5C141.9,108.5,140,107.2,138,107.3z"/>
			<path class="st4" d="M169.9,139c-0.8,0.2-1.2,0.1-1.3-0.6c-6.1,0.5-11.9-3.4-13.6-8.9c-0.3-1.1-0.6-2.1-0.3-3.3
				c0.1-0.3-0.2-0.7-0.3-1.2c1.9-2.5,4.4-3.5,7.6-2.8c4.5,0.9,7.6,3.6,9.6,7.6c0.7,1.5,1.1,3.1,0.7,4.7c-0.2,0.8-0.6,1.6-1.1,2.1
				C170.6,137.4,170,138,169.9,139z M166.2,137.6c4.1,0,6.1-2.4,5.2-5.8c-0.3-1-0.7-2-1.3-2.9c-1.6-2.7-4.1-4.4-6.9-5.6
				c-1.4-0.6-2.8-0.7-4.3-0.4c-2.1,0.5-3.3,2-3.4,4.1c0,0.6,0.1,1.1,0.2,1.7c0.6,2.3,2,4.2,3.8,5.8
				C161.6,136.3,164,137.5,166.2,137.6z"/>
			<path class="st4" d="M149.4,142.1c-0.7,1.1-1.3,2.1-1.9,3.1c-1.7,2.5-4.2,3.5-7.1,3.5c-3.1-0.1-5.9-1.2-8.2-3.4
				c-2.4-2.3-2.7-5.2-1-8c0.5-0.8,1-1.7,1.5-2.4c0.5-0.3,0.9-0.5,1.4-0.8c1.2-0.7,2.4-1.4,3.6-2c0.3-0.1,0.6-0.1,1-0.1
				c1.8,0,3.4,0.7,5,1.6c2.5,1.5,4.2,3.6,4.9,6.5c0.1,0.7,0.1,1.4,0.2,2.1C149,142.1,149.2,142.1,149.4,142.1z M140.8,147.9
				c0.4-0.1,1.2-0.1,1.9-0.3c3.9-1,6.7-4.8,4.3-9.4c-1.4-2.7-3.7-4.1-6.5-5c-1.3-0.4-2.6-0.3-3.8,0.3c-2,0.9-3.6,2.2-4.7,4.1
				c-1.7,2.8-1.3,5.4,1.1,7.5C135.2,146.8,137.7,147.8,140.8,147.9z"/>
		</g>
		<path class="st5" d="M150.6,118.4"/>
	</g>
	<path class="st4" d="M236,139.5"/>
</g>
<g class="st0">
	<path class="st1" d="M206.6,130.4c1.5-0.1,3.8-0.2,6-0.3c2.3-0.2,4.5,0.3,6.7,1c0.7,0.2,1.2,0.8,1.5,1.6c1.7,3.7,1.4,7.4,0.2,11.1
		c-0.9,2.9-2.4,5.6-4.9,7.5c-1.5,1.1-3,1.2-4.6,0.3c-2.4-1.4-4.3-3.2-6.3-5c-2.8-2.5-5.9-4.8-9.3-6.4c-0.6-0.3-0.8-0.2-1,0.4
		c-1.6,3.4-3.3,6.8-4.9,10.1c-0.2,0.4-0.3,0.6,0.1,1c4.2,3.3,8.2,6.7,12.6,9.7c3.6,2.5,7.6,4,11.8,5c1.7,0.4,3.4,1.1,4.6,2.5
		c1.1,1.1,1.2,2.1,0.4,3.4c-1,1.7-2,3.4-3,5c-0.3,0.5-0.6,0.9-1,1.3c-1.5,1.2-2.5,1.2-3.9-0.1c-3.2-3.1-6.2-6.4-9.3-9.5
		c-4.6-4.6-9.9-8.5-15.6-11.7c-0.6-0.4-1-0.3-1.5,0.3c-3.2,4.2-6.8,8.1-10.9,11.4c-0.5,0.4-0.6,0.6-0.1,1.1
		c6.3,6.1,13.2,11.4,20.9,15.7c1.5,0.8,2.9,1.8,4.2,2.8c1,0.8,1.3,1.8,1.1,3c-0.4,2-1.3,3.8-2.5,5.5c-2.2,3.4-5.1,6.1-8.6,8.2
		c-0.7,0.4-1.4,0.6-2.2,0.8c-1.4,0.2-2.1-0.2-2.7-1.5c-1.4-3-2.9-6-4.2-9.1c-3.2-7.5-7.5-14.3-12.8-20.5c-0.3-0.4-0.6-0.4-1-0.2
		c-2.4,1.2-4.8,2.4-7.1,3.6c-4.3,2.1-8.9,3.5-13.5,4.8c-0.9,0.3-1,0.6-0.7,1.4c1.2,3.7,1.7,7.5,1.5,11.4c-0.1,1.3-0.4,1.9-1.7,2.4
		c-2.6,1-5.2,1.2-7.9,1c-2.5-0.2-4.8-0.8-7.1-1.9c-1-0.4-1.8-1-2.6-1.7c-0.9-0.9-1.1-1.8-0.9-3c0.6-2.6,1.8-4.9,3.5-7
		c0.1-0.2,0.4-0.4,0.3-0.6c-0.1-0.2-0.4-0.1-0.6-0.2c-4.2-0.4-8.3-0.9-12.5-1.3c-0.7-0.1-1,0-1.1,0.8c-0.3,2.1,0,4.2,0.1,6.3
		c0.1,1.9,0.2,3.8,0.1,5.8c-0.1,1.7-1,2.7-2.6,3.2c-3.3,1-6.6,0.5-9.8-0.5c-1.2-0.4-2.3-0.9-3.3-1.5c-0.8-0.4-1.4-1-1.9-1.7
		c-0.8-1-0.8-2.1-0.3-3.2c0.7-1.6,1.5-3.1,2.6-4.5c1.7-2.3,3.4-4.6,4.9-6.9c0.4-0.6,0.2-0.8-0.3-1c-7.1-3-13.8-6.7-19.7-11.7
		c-1.1-0.9-2.2-1.9-3.3-2.9c-0.4-0.4-0.6-0.4-1,0.1c-1.4,1.8-2.3,3.9-3.1,6.1c-1,2.8-2,5.6-3.2,8.3c-0.6,1.3-1.5,1.8-2.9,1.5
		c-6.5-1.6-11.5-5.4-15.6-10.6c-0.5-0.7-1-1.5-1.3-2.3c-0.4-1.3-0.2-2.1,0.8-2.9c1.3-1.1,2.8-1.9,4.4-2.6c2.7-1.2,5.4-2.2,8.1-3.3
		c1.5-0.6,3-1.5,4.3-2.5c0.8-0.6,0.9-1,0.3-1.8c-0.9-1.2-1.8-2.4-2.7-3.6c-0.7-1-1.4-2-1.9-3.2c-0.1-0.3-0.3-0.6-0.7-0.6
		c-6.2-1.2-9.8-5-11.4-10.9c-0.3-1-0.3-1-1.3-0.6c-2.4,0.9-4.6,2.2-6.8,3.5c-3.9,2.4-8,4.5-12.4,5.7c-1.9,0.5-3.3,0.1-4.6-1.3
		c-1.7-2-2.7-4.3-3.5-6.8c-1.2-3.7-1.8-7.6-1.4-11.5c0.1-0.7,0.4-1.4,0.7-2c0.5-0.9,1.3-1.3,2.4-1.3c3.4,0.2,6.8,0.8,10.1,1.4
		c4.4,0.8,8.8,1.6,13.4,1.5c2.5-0.1,5-0.5,7.4-1.1c0.7-0.2,0.9-0.5,0.8-1.2c-0.5-4.1-0.5-8.3-0.2-12.5c0.1-0.9,0.1-1.7,0.3-2.6
		c0.1-0.7-0.1-0.9-0.8-1c-2.6-0.2-5,0.4-7.5,0.9c-0.8,0.2-1.5,0.4-2.3,0.5c-1.1,0.2-2-0.2-2.6-1.1c-1.2-1.6-1.7-3.5-1.9-5.5
		c-0.4-4.6,0.4-9,2.3-13.1c0.6-1.2,1.4-2.3,2.5-3.1c1.1-0.7,2.2-0.6,3.2,0.2c3.1,2.4,6,5,8.8,7.6c0.1,0.1,0.2,0.2,0.3,0.2
		c0.9,0.8,0.9,0.8,1.3-0.3c3.5-10.7,9.5-19.8,17.7-27.5c0.8-0.8,0.8-0.8,0-1.6c-4.8-4.8-9.9-9.3-16-12.5c-0.6-0.3-1.2-0.7-1.8-1.2
		c-0.9-0.7-1.2-1.7-1-2.8c0.5-2.4,1.6-4.5,3.2-6.3c1.8-2.1,3.7-4.2,5.9-5.9c1.1-0.8,2.3-1.4,3.6-1.7c1.4-0.3,2.5,0.1,3.3,1.2
		c2.1,2.6,3.2,5.6,3.8,8.8c0.7,3.7,1.5,7.3,3.1,10.7c0.8,1.6,1.7,3.1,2.6,4.6c0.3,0.5,0.6,0.6,1.1,0.2c3.8-2.6,7.7-4.8,11.9-6.6
		c0.4-0.2,0.6-0.4,0.5-0.9c-1.8-6.8-2.9-13.7-6.2-20c-0.6-1.1-1.4-2-2.5-2.7c-0.6-0.3-1.1-0.6-1.7-1c-1.5-0.9-2.1-2.4-1.4-4
		c0.5-1.1,1.3-1.9,2.4-2.5c1.2-0.6,2.5-1,3.9-1.1c0.7,0,1-0.1,0.8-1c-0.9-3.5-0.8-7.1-0.9-10.7c0-1.3,0.6-2.1,1.9-2.5
		c5.4-1.8,10.9-2.1,16.6-1.4c0.9,0.1,1.9,0.2,2.8,0.4c1,0.2,1.6,0.7,1.6,1.5c-0.1,1.6,0.1,3.1,0,4.7c-0.3,2.8-1.2,5.4-2.3,8
		c-1.8,4.5-2.9,9.2-2.9,14c0,3.4,0.4,6.7,1.1,10c0.2,1,0.4,1.9,0.5,2.9c0.1,0.6,0.4,0.8,1.1,0.6c1.1-0.4,2.2-0.6,3.3-1
		c2.5-0.7,4.9-0.5,7.2,0.4c0.9,0.3,1.7,0.5,2.7,0.5c3.9,0.1,7.7,0.4,11.5,1.1c0.5,0.1,0.8,0,0.7-0.6c-0.2-4,0.5-7.9,1-11.9
		c0.4-3.6,2.4-6.6,4-9.8c0.4-0.8,0.9-1.5,1.4-2.2c0.5-0.7,1.1-0.9,1.9-0.8c4.2,0.4,7.4,2.7,10.5,5.2c1.8,1.5,3.3,3.2,4.6,5.1
		c0.7,1,1.1,2.1,1.5,3.2c0.2,0.6,0.1,1.1-0.3,1.6c-1,1.4-2.3,2.4-3.7,3.3c-1.2,0.7-2.5,1.3-3.8,1.8c-3.4,1.4-5.8,3.9-7.7,7
		c-0.2,0.4-0.2,0.6,0.2,0.8c0.7,0.3,1.5,0.6,2.2,0.9c6.1,2.4,11.7,5.5,16.9,9.6c1.1,0.9,2.3,1.6,3.4,2.4c2.2,1.5,3.8,3.5,5.6,5.4
		c1.2,1.3,1.2,1.3,2.3-0.1c3.7-4.8,6.8-10,10.1-15.1c0.4-0.6,0.6-1.3,0.6-2c0.2-2.3,1.5-3.2,3.7-2.4c1.5,0.5,2.9,1.3,4.1,2.5
		c3.2,3.4,5.8,7.1,7.2,11.6c0.4,1.3,0.5,2.7,0.4,4.1c0,0.9-0.6,1.6-1.5,1.9c-2.1,0.5-4.1,1-6.3,0.9c-3.2-0.2-6.1,0.8-8.9,2.2
		c-1.7,0.9-3.3,1.9-5,2.8c-0.7,0.4-0.9,0.7-0.4,1.5c2.2,3.7,4.2,7.4,6.3,11.1c0.3,0.5,0.3,0.5,0.8,0.1c2.5-1.7,5.7-2.7,8.4-0.5
		c3.4,2.6,5.1,6.2,6.3,10.2c0.4,1.4,0.6,2.9,0.7,4.3c0,0.6,0.2,0.8,0.9,0.8c6.7,0.1,13.3-0.5,19.6-2.9c1.5-0.6,1.8-0.4,2.9,0.8
		c1.8,2.1,2.7,4.6,3.5,7.1c1.2,3.7,2,7.4,1.7,11.3c-0.1,0.8-0.2,1.6-0.5,2.3c-0.4,1-1,1.4-2,1.1c-1.6-0.4-3.2-0.8-4.6-1.7
		c-3.6-2.3-7.6-3.4-11.7-4.4c-6.4-1.6-12.8-1.8-19.3-1.8c-0.6,0-0.8,0.1-0.8,0.8c-0.1,4.1-0.6,8.1-1.1,12.1
		c-0.2,1.5-0.1,1.6,1.3,1.7C201.6,130.2,203.7,130.5,206.6,130.4z M115.2,193.7c-0.1-1.3-0.2-2.4-0.3-3.4c-0.3-2.6-0.4-5.2-0.1-7.8
		c0.4-4.3,1.7-8.3,2.4-12.6c0.1-0.4,0.1-1,0.6-0.9c0.6,0.1,0.6,0.7,0.6,1.2c0,0.1-0.1,0.3-0.1,0.4c-0.8,3.5-1.6,7-2.4,10.5
		c-0.1,0.5-0.1,0.8,0.5,0.8c1,0.1,2,0.2,3.1,0.4c3.5,0.5,7.1,0.8,10.6,0.9c0.6,0,0.9-0.2,1.2-0.6c1.6-2.5,2.4-5.2,2.6-8.1
		c0.3-4.7-0.1-9.3-1-13.9c-0.1-0.6-0.3-1.5,0.2-1.6c0.6-0.1,0.7,0.8,0.8,1.4c1.2,5.2,1.8,10.4,1.1,15.7c-0.4,2.8-1.2,5.5-2.9,7.8
		c-1.3,1.8-2.6,3.5-3.8,5.4c-0.3,0.5-0.6,0.9-0.6,1.6c6.4-1.7,12.3-0.8,17.9,2.8c0-0.3,0-0.5,0-0.7c-0.2-4.2-1.4-8.1-3.5-11.7
		c-0.9-1.5-1.8-3-2.4-4.6c-2-4.9-2.4-10-2.3-15.3c0-0.4,0.2-0.8,0.5-1.2c0.5,0.6,0.7,1.1,0.7,1.8c0.1,1.3,0.1,2.6,0.2,4
		c0.1,2,0.1,4.1,0.6,6.1c0.8,3.4,2.5,6.4,4,9.5c0.4,0.7,0.8,0.8,1.5,0.7c3.2-0.7,6.4-1.7,9.4-2.9c3.6-1.4,7.1-2.9,10.3-4.9
		c1.7-1.1,1.5-0.8,0.3-2.1c-0.9-1-1.9-1.8-2.6-3c-0.1-0.2-0.4-0.4-0.2-0.7c0.2-0.2,0.6-0.2,0.9-0.1c0.2,0.1,0.4,0.3,0.6,0.5
		c1.9,2,3.8,3.9,5.6,6c6.2,7,10.5,15.2,13.8,23.9c0.4,1,0.9,2,1.5,3.1c2.7-6.2,6.7-11,12.8-13.8c-0.1-0.1-0.1-0.2-0.2-0.2
		c-1.4-0.7-2.7-1.5-4.1-2.2c-6.5-3.6-12.3-8.1-17.7-13.2c-2.1-2-4.3-4-6.6-5.7c-0.4-0.3-0.9-0.6-0.6-1.1c0.3-0.6,0.8,0,1.2,0.1
		c0.2,0.1,0.5,0.2,0.7,0.4c0.8,0.6,1.6,1.3,2.4,1.9c0.4,0.4,0.7,0.3,1.2,0c4-3.2,7.4-7,10.6-10.9c0.3-0.3,0.5-0.7,0.7-1.1
		c0.4-0.7,0.9-0.9,1.7-0.5c3.2,1.9,6.4,3.8,9.4,6.1c5.3,4,9.8,8.9,14.3,13.7c0.8,0.8,1.7,1.5,2.6,2.1c0.9,0.5,1.4,0.4,2-0.4
		c1.3-1.8,2.5-3.7,3.4-5.8c0.6-1.3,0.3-2.1-1-2.9c-1.2-0.7-2.4-1.2-3.6-1.5c-4.7-1.2-9.2-3.1-13.1-6c-4-2.9-7.8-6-11.7-9.1
		c-0.4-0.3-0.4-0.6-0.2-1c0.5-1.2,1-2.4,1.6-3.5c1.4-2.6,2.7-5.2,3.7-7.9c0.2-0.4,0.2-0.6-0.3-0.8c-4.8-2-9.7-3.2-14.9-2.4
		c-0.8,0.1-1.5-0.1-2.1-0.8c1.2-0.3,2.3-0.3,3.4-0.4c2.3-0.1,4.7-0.3,7,0c4.2,0.7,8,2.3,11.7,4.4c3.7,2.2,6.8,5.2,10.1,8
		c0.3,0.2,0.5,0.6,1,0.7c-1.2-6.9,0.4-12.9,5.6-17.8c-2.3-0.3-4.5,0-6.7,0.2c-3.7,0.2-7.3,0.1-10.9-0.5c-4.3-0.7-8.5-1.7-12.8-2.5
		c-2.2-0.4-4.3-1.1-6.3-1.9c-0.2-0.1-0.6-0.1-0.5-0.4c0.1-0.3,0.4-0.4,0.7-0.4c0.1,0,0.3,0,0.4,0c1,0.2,2,0.4,3,0.6
		c4.6,1,9.2,2,13.8,3.1c1,0.2,1.1,0.1,1.2-0.9c0.2-2,0.5-4.1,0.7-6.1c0.4-4.1,0.5-8.3,0-12.5c-0.1-0.7-0.4-1-1.1-1.1
		c-2.5-0.5-5-0.9-7.6-1.1c-3.4-0.3-6.9-0.6-10.3-0.3c-1.4,0.1-2.7,0.2-4.1,0.3c-0.4,0-0.6-0.1-0.7-0.5c-0.1-0.4,0.1-0.6,0.5-0.6
		c1-0.2,2-0.5,3-0.5c5.9-0.3,11.7,0.2,17.5,1.1c1.6,0.3,3.2,0.6,5.1,0.9c-2.4-2.7-4-5.5-5-8.8c-0.9-3.2-1.3-6.5-0.3-10
		c-1,0.8-1.8,1.4-2.6,2.1c-5.7,5.1-12.6,7.8-20,9.5c-0.6,0.1-0.6-0.2-0.8-0.6c-0.2-0.5,0.2-0.5,0.5-0.6c1.9-0.4,3.8-0.9,5.7-1.6
		c5.4-1.8,10.3-4.3,14.5-8.1c0.3-0.3,0.5-0.5,0.3-1c-1.8-4.1-3.9-8-6.5-11.6c-0.4-0.5-0.6-0.5-1.1-0.2c-1.8,1.2-3.5,2.6-5.1,4.1
		c-3.3,3.2-6,6.9-8.9,10.5c-0.1,0.2-0.2,0.4-0.5,0.4c-0.2-0.9-0.1-1.1,0.5-2c1-1.2,1.9-2.5,2.9-3.7c2.1-2.5,3.9-5.2,6.4-7.3
		c3.8-3.3,8.1-5.8,12.6-7.9c3.2-1.4,6.4-2.2,9.9-1.8c0.4,0,0.8-0.1,1.3-0.1c-4.9-3.8-8.1-8.6-10.2-14.3c-0.2,0.3-0.3,0.4-0.4,0.5
		c-1.8,2.9-3.7,5.9-5.5,8.8c-2.4,3.8-5.1,7.4-8.6,10.4c-3.6,3-7.3,5.9-10.9,8.8c-0.6,0.5-1.2,0.5-2,0c1.6-1.2,3.1-2.4,4.6-3.6
		c3.2-2.5,6.5-5,9.5-7.8c0.3-0.3,0.7-0.5,0.2-0.9c-1.5-1.5-2.8-3-4.5-4.3c-1.7-1.3-3.4-2.5-5-3.9c-5.7-4.9-12.2-8.4-19.2-11
		c-0.5-0.2-0.7-0.1-0.9,0.4c-0.3,0.8-0.7,1.6-0.9,2.5c-1.1,3.9-1.5,7.9-1.4,12c0,0.4,0,1-0.5,1c-0.4,0-0.7-0.5-0.7-1
		c0-0.2,0-0.3,0-0.5c-0.2-3.7,0.3-7.3,1.2-10.8c1.6-6.5,5.4-11,11.5-13.7c1.2-0.5,2.4-1.1,3.6-1.7c0.4-0.2,0.9-0.4,1.1-0.9
		c-7-2.4-12.5-6.7-16.3-13.2c-1.4,2.6-2.5,5.1-3.3,7.7c-1.3,4.3-1.5,8.7-1.4,13.1c0.1,5.3,0.3,10.6-1.2,15.7c-0.4,1.5-0.6,3.1-1,4.7
		c-0.1,0.5-0.3,0.9-0.9,0.8c-0.6-0.2-0.4-0.7-0.3-1.1c0.1-0.6,0.3-1.1,0.4-1.7c0.6-2.9,1.6-5.8,1.7-8.8c0.1-2.1-0.1-4.2,0.2-6.3
		c0-0.4-0.1-0.5-0.4-0.5c-2.3-0.3-4.6-0.7-6.9-1c-1.6-0.2-3.2-0.3-4.8,0c0.2,0.5,0.5,0.7,0.7,1c2.6,2.7,2.9,6.2,0.8,9.2
		c-1.3,1.8-2.3,3.7-3.4,5.7c-0.3,0.6-0.5,1.2-0.6,1.9c-0.2,2.3,0.4,4.4,1,6.5c0.3,1.1,0.7,2.1,1.1,3.2c0.1,0.4,0.2,0.7-0.2,0.9
		c-0.4,0.2-0.7-0.1-0.8-0.4c-0.2-0.4-0.4-0.9-0.6-1.3c-0.5-1.6-0.9-3.2-1.3-4.8c-0.4-1.6-0.5-3.3-0.2-4.9c0.2-1,0.6-1.9,0.9-2.9
		c-1.6,0.8-3.2,1.2-4.9,1.4c-1.6,0.1-3.3-0.1-5-0.4c0.2,0.4,0.3,0.6,0.4,0.8c1.5,2.2,2.1,4.7,2,7.3c-0.1,2.8-0.1,5.6-0.2,8.4
		c0,0.5-0.1,1.2-0.7,1.2c-0.6,0-0.5-0.7-0.5-1.2c0.1-2.9,0.1-5.7,0.2-8.6c0.1-2.7-0.4-5.2-2.2-7.4c-0.8-1-1.7-1.9-2.7-2.8
		c-2.2-1.9-3.2-4.3-2.8-7.2c0.2-1.4,0.9-2.6,1.7-3.9c-0.3,0.1-0.4,0.1-0.5,0.1c-1.9,0.5-3.7,1.1-5.6,1.6c-0.3,0.1-0.7,0.3-0.8-0.4
		c-0.4-2.4-0.8-4.7-1.2-7.1c-0.5-3.2-0.9-6.4-1.7-9.5c-1.1-4.3-3.2-8.2-4.6-12.4c-0.2-0.5-0.6-0.8-1.2-0.7c-1.6,0.1-3.2,0.3-4.5,1.3
		c-2.7,2.1-2.3,3.6,0.5,4.8c1.7,0.7,2.8,2,3.6,3.6c3.2,6.6,4.6,13.8,6.2,20.9c0.1,0.5,0,0.8-0.5,1c-4.1,1.4-7.7,3.6-11.3,6
		c-0.7,0.4-1.8,0.8-1.8,1.4c0,0.6,0.8,1.3,1.3,1.9c1.5,2,3.2,3.7,5,5.5c0.3,0.3,1,0.7,0.5,1.3c-0.5,0.6-0.9-0.1-1.2-0.4
		c-2-2.2-4.2-4.3-5.9-6.7c-3.1-4.4-5.7-9-6.8-14.4c-0.6-2.7-1-5.5-1.9-8.1c-0.3-0.9-0.7-1.8-1.4-2.6c-2.5,6.3-6.7,10.9-12.8,13.7
		c1.5,0.9,3,1.5,4.3,2.4c4.4,2.9,8.4,6.3,12.1,10.2c2.8,2.9,5.1,6.1,7.4,9.4c0.4,0.5,0.8,1.2,0.2,1.6c-0.6,0.4-0.9-0.3-1.2-0.8
		c-1.6-2.5-3.5-4.7-5.4-7c-0.5-0.7-0.8-0.6-1.4-0.1c-5.3,4.8-9.6,10.3-13.1,16.4c-2.1,3.6-3.8,7.3-5,11.3c-0.2,0.6,0,0.8,0.5,1.1
		c2.1,1.2,4.4,2.2,6.7,2.9c0.3,0.1,0.7,0.2,0.9,0.5c0.1,0.2,0.2,0.4,0.1,0.6c-0.1,0.3-0.3,0.1-0.5,0.1c-0.5,0-1-0.1-1.5-0.3
		c-4.5-1.3-8.3-3.9-11.5-7.3c-1-1.1-2.2-2.1-3.5-3.1c0.6,3.1,0.7,6.2,0.3,9.2c-0.4,3-1.5,5.8-3,8.5c0.5,0.1,0.8,0,1.2-0.1
		c4.6-1.2,9-0.6,13.3,1.3c0.4,0.2,0.9,0.4,0.7,0.9c-0.2,0.6-0.7,0.4-1.2,0.2c-1.5-0.6-3.1-1.1-4.7-1.4c-0.5-0.1-0.8-0.1-0.9,0.6
		c-0.5,3.8-0.6,7.7-0.4,11.5c0.1,2.1,0.4,4.1,0.7,6.1c0.1,0.3,0.1,0.7,0.6,0.8c2,0.2,4,0.9,6,1.2c5.4,0.9,10.9,1.1,16.3-0.2
		c0.8-0.2,1.5-0.3,2.4-0.2c-0.4,0.9-1.2,1.1-2,1.3c-3.3,0.7-6.6,1-9.9,0.8c-1.8-0.1-3.5-0.2-5.5-0.4c1.8,1.5,3.2,3.2,4.3,5.1
		c1.1,1.9,1.5,4,1.6,6.4c0.4-0.6,0.7-1.1,1-1.5c1.5-2.3,3.6-3.8,6.4-4.3c1.7-0.3,3.4-0.5,5.1-0.7c0.7-0.1,1.5-0.3,2.2,0
		c0.2,0.1,0.6,0.1,0.6,0.4c0,0.4-0.4,0.3-0.6,0.4c-1.3,0.3-2.6,0.3-3.8,0.4c-4.4,0.3-8,2-10.1,6.1c0,0.1-0.1,0.1-0.1,0.2
		c-1.7,2.7-3.4,5.4-6.8,6.3c-0.5,0.1-0.3,0.4-0.1,0.7c1.2,2.1,2.5,4.2,3.9,6.1c0.5,0.7,0.8,0.7,1.4,0.1c3.6-3.6,7.5-7.1,10.5-11.3
		c0.2-0.3,0.5-0.6,1-0.5c-0.1,0.6-0.3,1-0.6,1.4c-2,3-4.6,5.4-7,8.1c-3.4,3.7-7.4,6.5-12,8.4c-2.7,1.1-5.4,2.2-8.1,3.4
		c-0.4,0.2-0.9,0.3-1.1,0.7c7.1,2.3,12.6,6.6,16.7,12.9c0.6-1.6,1.2-3.1,1.5-4.8c0.5-2.4,1.4-4.6,2.6-6.7c2.1-3.3,4.4-6.5,7.2-9.1
		c2.4-2.3,4.9-4.4,7.4-6.5c0.2-0.1,0.3-0.3,0.5-0.3c0.3-0.2,0.8-0.1,0.9,0.1c0.2,0.3-0.2,0.4-0.4,0.6c-2.5,2-4.9,4.1-7.1,6.4
		c-1.8,1.8-3.5,3.8-5.1,5.8c-0.3,0.4-0.3,0.7,0,1c0.6,0.5,1.1,1.1,1.7,1.6c6.4,5.5,13.7,9.7,21.4,13c0.6,0.2,0.8,0.1,1-0.5
		c1.1-2.8,1.6-5.7,2.4-8.6c0.1-0.2,0.1-0.5,0.2-0.7c0.1-0.3,0.4-0.5,0.7-0.4c0.3,0.1,0.2,0.4,0.2,0.7c-0.1,0.8-0.2,1.5-0.4,2.3
		c-0.8,4-2,7.8-4.3,11.1c-1.1,1.5-2.2,3-3.3,4.5c-0.8,1-1.6,2-2.3,3.3C105.5,189.1,110.5,190.2,115.2,193.7z M98.1,11.1
		c0.2,1.7,0.3,3.7,0.6,5.7c0.6,3.3,2,6.3,3.3,9.4c1.8,4.3,3.5,8.5,4.1,13.2c0.5,3.7,1.4,7.3,1.9,11c0.1,0.5,0.2,0.8,0.9,0.6
		c1.7-0.5,3.4-1,5.1-1.4c1.7-0.5,1.7-0.5,1.3-2.1c-0.8-3.4-1.4-6.8-1.6-10.3c-0.4-5.6,0.8-10.9,2.7-16.2c1.3-3.6,2.8-7.1,2.9-11.1
		c0-0.4,0.1-0.7-0.5-0.5c-2.4,1-4.8,1.3-7.4,1.5c-4.1,0.3-8.2,0.2-12.2-0.8C98,9.7,98,9.7,98.1,11.1z M229.3,101.7
		c-0.3-0.1-0.4,0-0.6,0c-1.2,0.4-2.5,0.9-3.8,1.2c-4.4,0.9-8.8,1.3-13.3,1.4c-0.7,0-1.5-0.2-2,0.1c-0.6,0.3-0.5,1.2-0.7,1.9
		c-0.9,2.7-2.7,3.8-5.5,3.4c-1.4-0.2-2.8-0.4-4.2-0.6c-0.5-0.1-0.6,0.1-0.6,0.5c0.1,1.3,0.2,2.5,0.3,3.8c0,0.5,0.2,0.6,0.7,0.6
		c0.9-0.1,1.8-0.1,2.7-0.2c4.8-0.2,9.6,0.4,14.3,1.2c5.4,1,10.5,2.5,15.2,5.5c0.5,0.3,1,0.5,1.8,0.8
		C230.2,115,228.6,108.6,229.3,101.7z M36.2,144.7c0.3,0.1,0.7-0.2,1-0.3c3.5-1.5,6.9-3.1,10.2-5c2.8-1.6,5.4-3.4,8.5-4.5
		c0.3-0.1,0.5-0.3,0.5-0.6c0.4-3.3,1.9-5.7,5.1-6.9c0.2-0.1,0.4-0.1,0.4-0.4c0-1-0.3-1.3-1.3-1.1c-3.9,1-8,1.5-12,0.9
		c-4.2-0.6-8.3-1.4-12.4-2.1c-1.4-0.2-2.7-0.4-4.3-0.7C36,130.4,37.8,137.2,36.2,144.7z M74.9,138.6c-0.1-3.2-2.3-6.6-6.1-9.1
		c-1.6-1.1-3.5-1.5-5.5-1.4c-3.1,0.2-5.3,2.3-5.7,5.3c-0.8,5.6,3.2,11.6,8.7,13.1c1.5,0.4,3.1,0.4,4.6-0.1
		C73.5,145.5,74.9,143.2,74.9,138.6z M123.8,47.2c-3-0.1-5.4,0.6-7.5,2.4c-2.8,2.5-3.8,5.9-2.2,8.6c1.1,1.9,2.6,3.3,4.8,3.9
		c3.3,1,6.4,0.6,9.4-0.9c1.6-0.8,2.7-2.1,3.5-3.7c2.2-4.1-0.2-7.7-3-9.2C127.2,47.6,125.4,47.2,123.8,47.2z M195.1,94.8
		c1.1,3.9,1.9,8.5,5.5,11.9c0.7,0.7,1.5,1.2,2.3,1.6c1.8,0.8,3.3,0.3,4.3-1.4c0.8-1.4,1.1-2.8,1-4.4c-0.2-4.1-1.5-7.9-4-11.1
		c-1-1.3-2.1-2.5-3.7-3.2c-2.1-1-3.9-0.3-4.7,1.9C195.3,91.4,195.2,92.8,195.1,94.8z M210.2,145.2c0,1.4,0.3,2.7,0.9,4
		c0.5,1.1,1.3,1.6,2.5,1.5c1.2-0.1,2.2-0.8,3-1.7c2.8-3.3,4-7.1,4.1-11.3c0.1-1.7-0.2-3.4-1.1-4.9c-0.8-1.4-2.1-1.7-3.5-0.9
		c-0.8,0.4-1.5,0.9-2,1.6C211.4,136.9,210.1,140.8,210.2,145.2z M55.9,94.3c0-0.7,0.1-1.3,0-2c-0.2-1.6-0.4-3.2-1.3-4.6
		c-1-1.5-2.2-1.6-3.3-0.2c-1.1,1.3-1.9,2.7-2.4,4.2c-1.2,3.6-1.5,7.3-1,11.1c0.2,1.3,0.5,2.6,1.4,3.7c0.8,1.1,1.9,1.2,2.9,0.2
		c0.5-0.5,0.9-1,1.2-1.6C55.2,101.8,55.9,98.2,55.9,94.3z M195,53c0,0.3,0,0.6,0,0.9c0,0.2,0,0.3,0.1,0.5c1.4,5.6,4.7,9.9,9.1,13.5
		c0.6,0.5,1.4,0.8,2.2,1c1,0.2,1.4-0.2,1.7-1.1c0.3-1.1,0-2.1-0.3-3c-1.7-5.6-4.9-10-9.6-13.4c-0.7-0.5-1.6-0.8-2.4-0.4
		C194.9,51.3,195,52.2,195,53z M35.8,139.4c-0.1-3.3-0.7-6.5-1.9-9.7c-0.8-2-1.7-3.8-3.3-5.3c-1.1-1-2-0.8-2.4,0.7
		c-0.3,1.4-0.6,2.8-0.6,4.2c0.2,4.8,1.4,9.3,4,13.4c0.3,0.5,0.8,1,1.3,1.4c1,0.8,1.6,0.7,2.1-0.5C35.6,142.4,35.8,141,35.8,139.4z
		 M72.3,180.3c1.5,0,1.9-0.6,1.2-2.2c-0.3-0.6-0.6-1.2-1.1-1.8c-3.2-4.2-7.3-7.3-12.2-9.4c-1-0.4-2-0.6-3.1-0.7
		c-1-0.1-1.4,0.4-1,1.4c0.4,1,0.9,1.9,1.5,2.8c3.1,4.1,7.1,7,11.7,9.2C70.2,180,71.1,180.3,72.3,180.3z M64.8,48.2
		c-0.1,1.6,0.6,2.2,2.2,1.7c0.5-0.1,1.1-0.3,1.5-0.6c4.3-2.4,7.4-5.9,9.7-10.3c0.5-0.9,0.7-1.9,0.7-3c-0.1-0.9-0.5-1.3-1.3-1.2
		c-0.3,0-0.7,0.1-1,0.3c-4.5,1.8-7.9,4.9-10.2,9C65.6,45.5,64.8,46.7,64.8,48.2z M199.2,191.2c0-1.7-0.5-2.1-1.9-1.8
		c-1.1,0.2-2.1,0.8-3,1.4c-3.7,2.5-6.2,5.8-8.2,9.8c-0.4,0.8-0.6,1.7-0.6,2.7c-0.1,1.2,0.4,1.7,1.7,1.4c1.8-0.4,3.3-1.1,4.6-2.4
		c2.5-2.4,4.8-4.9,6.4-8.1C198.6,193.2,199,192.1,199.2,191.2z M151.5,24c-1.3,0-1.7,0.6-1.4,1.7c0.3,0.9,0.7,1.7,1.3,2.4
		c3.1,4.2,7,7.3,11.8,9.4c0.9,0.4,1.8,0.8,2.8,0.6c0.7-0.1,1.1-0.5,0.9-1.3c-0.2-0.7-0.4-1.3-0.8-1.9c-3.1-4.9-7.6-8.1-12.8-10.5
		C152.7,24.1,152,24,151.5,24z M139.1,198.2c0.5,0,1.2-0.1,1.8-0.2c1.3-0.2,2.5-0.5,3.6-1.2c0.8-0.6,0.9-1,0.3-1.8
		c-0.5-0.6-1-1.2-1.7-1.5c-3.7-1.9-7.5-2.7-11.6-2.2c-1.2,0.1-2.4,0.2-3.5,0.8c-1.3,0.7-1.4,1.8-0.3,2.8c0.7,0.6,1.4,1,2.2,1.4
		C132.7,197.5,135.7,198,139.1,198.2z M109.3,198.9c1.8,0,3.2-0.2,4.3-0.8c1.4-0.7,1.6-1.6,0.6-2.8c-0.2-0.2-0.4-0.4-0.6-0.6
		c-2.2-1.9-4.8-2.8-7.7-3.2c-1.9-0.3-3.8-0.1-5.6,0.5c-1.6,0.6-2,1.8-0.9,3.2c0.5,0.6,1.1,1.2,1.8,1.6
		C103.7,198.3,106.4,198.8,109.3,198.9z M236.7,118c-0.1-4.5-0.7-8.5-2.5-12.4c-0.6-1.4-1.4-2.8-2.4-4c-0.6-0.7-1.1-0.6-1.5,0.2
		c-0.3,0.6-0.4,1.3-0.4,1.9c-0.2,5.1,0.9,10,3,14.7c0.6,1.3,1.2,2.6,2.5,3.4c0.5,0.3,0.6,0.2,0.8-0.3
		C236.9,120.3,236.5,119,236.7,118z M111.2,5.9c-2.2,0-4.3,0-6.4,0.3c-2,0.3-4.1,0.5-5.9,1.8c-0.2,0.1-0.5,0.2-0.4,0.5
		c0,0.2,0.3,0.4,0.5,0.4c0.9,0.2,1.8,0.5,2.7,0.6c3.6,0.3,7.3,0.3,10.9,0c1.9-0.2,3.8-0.7,5.6-1.4c0.3-0.1,0.7-0.2,0.7-0.6
		c0.1-0.4-0.4-0.5-0.6-0.6c-0.5-0.3-1.1-0.5-1.7-0.6C114.8,6,112.9,6.1,111.2,5.9z"/>
	<path class="st1" d="M131.6,91.9c-0.4,0.1-0.8,0.3-1.3,0.5c1.1-2.9,4.2-4.9,7.3-4.9c2.1,0.1,4.2,0.5,6.1,1.4
		c5.5,2.8,10.1,6.5,13.1,12.1c1,1.9,1.7,3.8,1.3,5.9c-0.2,1-0.5,1.8-1.2,2.5c-0.8,0.8-1.4,1.8-1.9,2.8c-0.1,0.3-0.3,0.8-0.7,0.6
		c-0.4-0.2-0.5-0.6-0.3-1c0.3-0.7-0.2-0.6-0.5-0.6c-3.7,0-7.1-1.1-10.3-3c-2-1.2-3.7-2.7-5.4-4.3C134.3,100.6,132,97.2,131.6,91.9z
		 M137.6,88.6c-0.5,0-1,0-1.5,0.1c-1.9,0.3-3.1,1.6-3.1,3.4c0,0.7,0.1,1.4,0.3,2c1,2.9,2.7,5.4,4.9,7.6c2.9,3,6.3,5.2,10,7
		c1.6,0.8,3.2,1.1,5,1c2.9-0.1,4.3-1.8,3.8-4.7c-0.2-1.5-0.8-3-1.6-4.3c-2.8-4.4-6.5-7.9-11.2-10.2C142.1,89.6,140,88.7,137.6,88.6z
		"/>
	<path class="st1" d="M100.8,93.3c-0.6-0.6-0.5-1.6-1.3-2c-0.3,1.3-0.6,2.6-1.1,3.8c-2,5.7-5.9,9.7-11.2,12.5
		c-1.3,0.7-2.8,0.9-4.3,1c-0.6,0.1-0.5,0.2-0.3,0.6c0.3,0.4,0.7,0.6,0.6,1.2c0,0.2,0.1,0.4-0.1,0.4c-0.2,0.1-0.3-0.1-0.4-0.2
		c-1.3-1.6-2.8-3.1-3.9-4.8c-0.9-1.4-0.7-2.9-0.3-4.3c1.8-7.4,6.4-12.5,13.2-15.7c1.5-0.7,3-0.6,4.5,0c0.9,0.3,1.5,0.9,2,1.7
		c0.8,1.3,1.5,2.7,2.3,4C100.8,92.1,100.9,92.6,100.8,93.3z M79.7,103.1c0,0.4,0,0.9,0.1,1.3c0.2,1.9,1.8,3.2,3.6,3
		c1.5-0.2,2.9-0.5,4.2-1.3c4.5-2.7,7.9-6.4,9.7-11.4c0.5-1.4,0.8-2.8,0.7-4.4c-0.1-2.3-1.6-3.6-3.9-3.5c-1.5,0.1-2.8,0.5-4.1,1.2
		c-3.8,2.2-6.5,5.2-8.6,9.1C80.6,99,79.7,101,79.7,103.1z"/>
	<path class="st1" d="M126.9,110.8c-1.1,0-1.1,0.6-0.9,1.3c0.5,1.8,0.3,3.5-0.2,5.3c-1.7,5.5-5.1,9.7-10.5,12.1
		c-2.3,1-4.6,1.2-6.9,0.2c-0.7-0.3-0.9-0.2-0.7,0.5c0,0.2,0.1,0.4-0.1,0.5c-0.2,0.1-0.3-0.1-0.3-0.2c-0.6-2.5-2.6-4.5-2.3-7.3
		c0.3-2.9,1.1-5.7,2.7-8.2c2.5-3.9,6-6.4,10.4-7.8c2-0.7,3.9-0.2,5.5,1C124.6,109,125.6,109.8,126.9,110.8z M125.4,114.5
		c0-0.5-0.1-0.9-0.1-1.2c-0.3-3.1-2.6-5.1-5.7-5c-1.9,0.1-3.6,0.7-5.2,1.8c-4.5,3-7.5,7-8,12.5c-0.4,4.2,2.8,8.2,8.1,6.1
		c2.8-1.1,5.2-2.7,7.1-5C123.7,121,125.1,117.9,125.4,114.5z"/>
	<path class="st1" d="M146.3,125.3c4.4,0.3,8.3,2.5,11.2,6.6c1.2,1.7,2.2,3.6,2.4,5.7c0.2,1.6-0.2,3.1-1.2,4.5
		c-0.7,0.9-1.5,1.7-1.7,2.8c-0.1,0.4-1.1,0.5-1.4,0.1c-0.3-0.6-0.8-0.5-1.2-0.5c-6.5-0.2-11.4-3.1-14.3-9c-0.8-1.6-1.3-3.4-0.9-5.2
		c0-0.1,0-0.2,0-0.3c-0.6-1.1,0.1-1.7,0.8-2.3C141.6,126,143.5,125.3,146.3,125.3z M146.1,126.2c-3.3,0-5.4,1.7-5.7,4.6
		c-0.1,1.1,0.1,2.2,0.5,3.2c1.4,3.7,4.1,6.3,7.5,8.1c1.9,1,3.8,1.5,6,1.1c3.4-0.5,5.3-3.1,4.3-6.4c-1.6-5.6-5.6-8.8-11-10.5
		C147.2,126.3,146.6,126.3,146.1,126.2z"/>
	<path class="st1" d="M133.3,148.6c-1,1.6-1.8,3.3-3,4.6c-2.3,2.6-5.2,3.4-8.5,3.1c-3.2-0.3-6-1.5-8.4-3.7c-2.9-2.7-3.3-5.9-1.4-9.4
		c1.1-1.9,2.4-3.5,4.5-4.4c0.6-0.3,1.2-0.6,1.8-1c1.5-1,3.1-1,4.7-0.5c4.5,1.4,7.9,4,9.3,8.7c0.2,0.7,0.2,1.4,0.3,2
		C132.5,148.4,132.5,148.8,133.3,148.6z M122.6,155.3c1.2,0,2.2-0.1,3.1-0.4c5.2-1.5,7.2-6.4,4.5-11.1c-1.8-3.1-4.6-4.8-8-5.6
		c-0.7-0.2-1.5-0.2-2.2,0c-3.2,0.9-5.7,2.8-7.3,5.7c-1.6,3-1.1,5.8,1.4,8C116.7,154.2,119.6,155.2,122.6,155.3z"/>
</g>
<g>
	<path class="st6" d="M131.6,155.4c0.3-0.5,0.3-1-0.1-1.5c-1-1.2-1.9-2.5-2.8-3.8c-0.5-0.6-0.9-1.2-1.1-2c-0.2-0.7-0.6-0.9-1.3-1
		c-5.3-1.1-8.4-4.6-9.9-9.7c-0.3-1.1-0.3-1.1-1.3-0.7c-2.1,0.8-4.1,1.9-6.1,3.2c-3.6,2.2-7.3,4.1-11.3,5.2c-1.6,0.5-2.9,0-4-1.2
		c-1.7-1.8-2.5-4.1-3.3-6.4c-1-3-1.4-6-1.3-9.1c0-1.1,0.2-2.1,0.8-3c0.5-0.8,1.2-1.2,2.2-1.1c3.1,0.2,6.2,0.7,9.3,1.3
		c4,0.7,8,1.5,12.1,1.3c2.3-0.1,4.5-0.4,6.8-1c0.5-0.1,0.7-0.3,0.6-0.9c-0.4-3-0.4-6.1-0.3-9.1c0.1-1.6,0.2-3.2,0.4-4.7
		c0.1-0.7-0.1-0.8-0.7-0.8c-2.6-0.2-5,0.5-7.5,1c-0.3,0.1-0.6,0.1-0.8,0.2c-1.4,0.3-2.3,0-3.2-1.2c-1-1.4-1.4-3-1.5-4.7
		c-0.4-4.2,0.3-8.2,2.1-12c0.5-1.1,1.2-2.1,2.2-2.7c1-0.7,2-0.6,2.9,0.1c2.8,2.2,5.4,4.5,7.9,6.9c0.3,0.3,0.7,0.6,1,0.9
		c0.7-1.7,1.2-3.5,1.9-5.1c3.3-8,8.2-14.9,14.5-20.8c0.7-0.7,0.8-0.7,0-1.4c-4.4-4.4-9.1-8.5-14.6-11.4c-2.7-1.5-2.9-2.3-1.9-5.2
		c0.5-1.5,1.4-2.9,2.4-4.1c1.6-2,3.4-3.8,5.4-5.4c1-0.8,2.1-1.3,3.3-1.5c1.2-0.2,2.2,0.1,3,1.1c1.9,2.4,2.9,5.1,3.5,8.1
		c0.7,3.4,1.4,6.8,3,10c0.7,1.4,1.5,2.7,2.3,4c0.3,0.4,0.5,0.4,0.9,0.1c3.5-2.4,7.1-4.4,11-6.1c0.3-0.1,0.5-0.2,0.4-0.6
		c-1.2-4.5-2-9.1-3.6-13.5c-0.6-1.7-1.4-3.3-2.2-5c-0.4-1-1.2-1.7-2.1-2.2c-0.5-0.3-1-0.6-1.6-0.9c-1.4-0.8-1.9-2.3-1.2-3.8
		c0.9-1.9,2.6-2.6,4.5-3c0.5-0.1,1-0.1,1.5-0.2c0.4,0,0.6-0.2,0.4-0.6c-0.9-3.3-0.8-6.6-0.9-9.9c0-1.2,0.5-1.9,1.7-2.3
		c4.9-1.6,10-1.9,15.1-1.3c0.8,0.1,1.7,0.2,2.5,0.4c0.9,0.1,1.5,0.6,1.4,1.4c-0.1,1.4,0.1,2.8,0,4.3c-0.3,2.5-1.1,4.9-2,7.2
		c-1.7,4.1-2.6,8.4-2.7,12.9c0,3,0.4,6,0.9,8.9c0.2,0.9,0.4,1.9,0.5,2.8c0.1,0.5,0.3,0.5,0.8,0.4c1.6-0.5,3.1-1,4.7-1.2
		c1.7-0.2,3.4,0.1,5,0.7c0.8,0.3,1.6,0.5,2.4,0.5c3.5,0.1,7,0.3,10.5,1c0.5,0.1,0.7,0.1,0.7-0.5c-0.2-3.2,0.4-6.4,0.7-9.6
		c0.4-4.5,2.7-8.2,4.9-11.9c0.4-0.7,1.1-0.9,1.9-0.9c3.8,0.4,6.7,2.5,9.5,4.8c1.6,1.3,3,3,4.2,4.7c0.6,0.9,0.9,1.8,1.3,2.8
		c0.2,0.5,0,1-0.3,1.4c-0.9,1.3-2.1,2.2-3.4,3c-1.1,0.6-2.2,1.1-3.4,1.6c-3.1,1.3-5.4,3.6-7.1,6.4c-0.2,0.3-0.2,0.5,0.2,0.6
		c0.7,0.3,1.3,0.6,2,0.8c5.6,2.2,10.7,5,15.4,8.8c1,0.8,2.1,1.5,3.1,2.2c2,1.4,3.5,3.2,5.1,4.9c1.1,1.1,1.1,1.1,2-0.1
		c3.4-4.3,6.2-9.1,9.2-13.7c0.4-0.6,0.5-1.2,0.6-1.8c0.1-2,1.3-2.9,3.3-2.2c1.4,0.5,2.8,1.2,3.8,2.4c2.9,3.1,5.3,6.5,6.6,10.6
		c0.4,1.2,0.4,2.4,0.4,3.6c0,0.9-0.6,1.4-1.5,1.7c-1.9,0.5-3.8,0.8-5.8,0.7c-2.7-0.1-5.2,0.7-7.6,1.9c-1.7,0.9-3.3,1.8-5,2.7
		c-0.5,0.3-0.7,0.6-0.4,1.2c2,3.4,3.9,6.8,5.8,10.2c0.2,0.4,0.3,0.4,0.7,0.1c2.1-1.6,5.2-2.5,7.6-0.6c3.1,2.4,4.7,5.7,5.8,9.4
		c0.4,1.3,0.6,2.6,0.6,3.9c0,0.6,0.2,0.7,0.7,0.7c6.1,0.1,12.1-0.5,17.9-2.6c1.3-0.5,1.6-0.4,2.6,0.7c1.8,2,2.6,4.5,3.4,7
		c1,3.2,1.6,6.4,1.4,9.8c-0.1,0.7-0.2,1.4-0.5,2.1c-0.3,0.8-0.9,1.2-1.8,0.9c-1.6-0.4-3.2-0.9-4.7-1.8c-3.1-2-6.6-2.8-10.2-3.7
		c-5.8-1.4-11.6-1.6-17.5-1.6c-0.5,0-0.7,0.2-0.7,0.7c-0.2,4-0.6,7.9-1.2,11.8c-0.1,0.6,0.3,0.6,0.7,0.7c2.1,0.3,4.2,0.6,6.4,0.6
		c2.1-0.1,4.1-0.2,6.2-0.3c2.1-0.2,4.2,0.3,6.2,0.9c0.7,0.2,1.1,0.7,1.4,1.4c1.7,3.7,1.2,7.3-0.1,10.9c-0.9,2.3-2.1,4.4-4.2,6
		c-1.4,1-2.7,1.1-4.1,0.2c-2.2-1.2-4-2.9-5.8-4.6c-2.6-2.3-5.4-4.4-8.5-5.8c-0.4-0.2-0.6-0.2-0.8,0.3c-1.5,3.1-3,6.2-4.5,9.4
		c-0.1,0.3-0.2,0.5,0.1,0.8c3.9,3.1,7.6,6.3,11.7,9c3.2,2.2,6.7,3.4,10.4,4.4c1.6,0.4,3.1,1,4.2,2.2c1,1,1.1,1.9,0.4,3.1
		c-0.9,1.6-1.8,3.1-2.7,4.6c-0.3,0.5-0.6,0.9-1.1,1.2c-1.3,1-2.2,1-3.4-0.2c-3-2.8-5.7-5.9-8.6-8.8c-4.2-4.1-8.9-7.5-13.9-10.4
		c-0.6-0.3-1-0.3-1.4,0.3c-2.9,3.8-6.1,7.3-9.9,10.3c-0.3,0.3-0.6,0.4-0.1,0.9c5.3,5.1,11.1,9.7,17.5,13.4c1.8,1,3.5,2.1,5.2,3.3
		c1.1,0.8,1.5,1.8,1.2,3.1c-0.3,1.4-0.9,2.7-1.6,3.9c-2.1,3.5-4.9,6.2-8.4,8.3c-0.6,0.4-1.3,0.6-2,0.7c-1.3,0.2-1.8-0.2-2.5-1.5
		c-1.8-3.5-3.3-7.2-5-10.8c-2.7-5.8-6.3-11.1-10.4-16c-0.3-0.4-0.6-0.3-0.9-0.1c-3.4,1.7-6.7,3.5-10.2,4.9c-2.8,1.1-5.6,1.9-8.4,2.7
		c-0.7,0.2-0.9,0.4-0.7,1.2c0.5,1.7,1,3.5,1.3,5.3c0.2,1.8,0.2,3.7,0.1,5.6c0,0.8-0.6,1.3-1.4,1.6c-2.4,1-4.9,1.2-7.4,1
		c-2.2-0.2-4.3-0.8-6.4-1.7c-0.9-0.4-1.6-0.9-2.3-1.5c-0.9-0.8-1-1.7-0.8-2.8c0.5-2.4,1.7-4.4,3.1-6.3c0.1-0.2,0.3-0.4,0.5-0.7
		c-1.3-0.1-2.5-0.3-3.7-0.4c-2.8-0.3-5.6-0.6-8.5-0.9c-0.6-0.1-0.8,0.1-0.9,0.7c-0.3,1.9,0,3.8,0.1,5.7c0.1,1.8,0.2,3.5,0.1,5.3
		c-0.1,1.5-0.9,2.4-2.3,2.9c-3,1-6,0.5-8.9-0.5c-1-0.3-2-0.8-3-1.4c-0.8-0.4-1.4-1-1.9-1.7c-0.6-0.8-0.6-1.7-0.3-2.6
		c0.3-0.9,0.7-1.7,1.3-2.5c0.2,0,0.4,0.1,0.6,0c4.2-1,8.1-0.3,11.7,1.9c0.4,0.3,0.9,0.6,1.4,0.8c0.1-0.7,0-1.3-0.1-1.9
		c-0.6-4.6-0.3-9.1,0.9-13.6c0.4-1.6,0.7-3.3,1-5c0-0.2,0-0.3,0.1-0.5c0.2-0.5,0.1-1.1,0.9-1c0.4,0,0.7,0.7,0.6,1.4
		c-0.2,1.2-0.5,2.4-0.8,3.7c-0.4,1.9-0.9,3.8-1.3,5.7c-0.2,0.8-0.1,0.9,0.7,1c3.3,0.4,6.6,0.9,10,1c0.5,0,1,0.1,1.6,0.2
		c0.6,0,1-0.2,1.3-0.7c1.3-2.3,2-4.7,2.2-7.3c0.2-4.2-0.2-8.3-1-12.3c-0.1-0.4-0.1-0.9,0.1-1.3c0.1-0.5,0.5-0.5,0.8-0.1
		c0.2,0.3,0.3,0.7,0.4,1c0.6,2.6,1,5.1,1.2,7.8c0.2,2.5,0,4.9-0.3,7.4c-0.4,3.1-1.8,5.7-3.7,8.1c-0.8,1.1-1.6,2.2-2.3,3.4
		c-0.1,0.2-0.4,0.5-0.3,0.8c0.2,0.3,0.5,0.1,0.8,0c4.9-1,9.5-0.4,13.8,2.1c0,0,0.1,0.1,0.1,0.1c0.3,0.1,0.5,0.4,0.8,0.3
		c0.3-0.2,0.1-0.6,0.1-0.9c-0.3-3.9-1.7-7.4-3.7-10.7c-2.3-3.9-3.4-8.1-3.7-12.5c-0.1-1.4-0.1-2.8-0.1-4.1c0-0.5,0.1-0.9,0.3-1.3
		c0.2-0.4,0.5-0.4,0.7,0c0.2,0.3,0.4,0.7,0.4,1.2c0,1,0.2,2.1,0.2,3.1c-0.2,4.3,0.8,8.4,2.9,12.2c0.4,0.8,0.8,1.6,1.2,2.4
		c0.3,0.6,0.7,0.8,1.3,0.6c2.3-0.4,4.4-1.1,6.6-1.9c3.7-1.3,7.3-2.9,10.7-4.8c1.6-0.9,1.5-0.9,0.3-2.2c-0.7-0.7-1.4-1.4-1.9-2.2
		c-0.2-0.3-0.5-0.7-0.1-1c0.4-0.3,0.8-0.2,1.1,0c0.5,0.4,1,0.9,1.4,1.4c0.9,1.1,1.8,2.1,2.8,3c2.3,2.3,4.3,4.9,6,7.6
		c2.8,4.5,5.4,9.2,7.3,14.1c0.5,1.2,0.9,2.4,1.5,3.7c1.2-2.6,2.6-5,4.5-7.1c1.9-2.1,4.1-3.7,6.7-5c-0.6-0.5-1.3-0.8-2-1.1
		c-5.6-2.9-10.7-6.6-15.4-10.8c-2.7-2.4-5.3-5-8.2-7.1c-0.4-0.3-1-0.7-0.6-1.3c0.4-0.6,1-0.2,1.5,0.1c0.8,0.4,1.5,1,2.2,1.7
		c0.7,0.7,0.9,0.6,1.7,0c2.9-2.5,5.6-5.2,8.1-8.2c0.7-0.8,1.4-1.6,1.9-2.6c0.3-0.6,1-0.6,1.7-0.2c2.2,1.2,4.3,2.5,6.3,3.9
		c4.2,2.9,8,6.4,11.5,10.1c1.3,1.4,2.6,2.8,3.9,4.2c0.6,0.6,1.3,1.1,2,1.5c0.8,0.5,1.1,0.4,1.7-0.3c1.2-1.6,2.2-3.3,3-5.2
		c0.5-1,0.2-1.6-0.8-2.2c-1.5-0.9-3.1-1.3-4.7-1.8c-4.4-1.2-8.4-3.3-12-6.1c-2.9-2.3-5.9-4.6-8.8-6.9c-0.8-0.7-0.8-0.8-0.4-1.8
		c0.5-1.2,1-2.3,1.6-3.4c1.1-2,2-4.1,2.9-6.2c0.2-0.5,0.2-0.8-0.4-1c-3.3-1.4-6.8-2.2-10.4-2.3c-0.9,0-1.7,0.1-2.6,0.3
		c-0.6,0.1-1.1,0-1.6-0.3c-0.2-0.1-0.4-0.3-0.3-0.5c0-0.3,0.3-0.4,0.5-0.4c0.5-0.1,1-0.1,1.5-0.1c1.7-0.1,3.4-0.2,5.1-0.2
		c2.6,0,5.1,0.7,7.6,1.6c4.5,1.7,8.4,4.4,11.9,7.6c1,0.9,2,1.7,3.2,2.8c-0.9-6.1,0.5-11.3,4.9-15.7c-2.1-0.1-4.1,0.1-6.2,0.3
		c-1.8,0.1-3.6,0.1-5.5-0.1c-5.9-0.5-11.5-2-17.3-3.2c-1.3-0.3-2.5-0.8-3.8-1.2c-0.3-0.1-0.9-0.2-0.7-0.7c0.1-0.5,0.6-0.6,1.1-0.5
		c1.5,0.2,3.1,0.6,4.6,0.9c3.4,0.7,6.9,1.5,10.3,2.3c1.2,0.3,1.2,0.2,1.4-1c0.7-4.5,1-9.1,0.9-13.7c0-0.9-0.1-1.8-0.3-2.6
		c-0.1-0.5-0.3-0.7-0.8-0.8c-2.6-0.6-5.3-0.9-8-1.1c-2-0.1-4-0.3-6.1-0.3c-1.8,0-3.5,0.3-5.3,0.4c-0.3,0-0.5,0.1-0.8,0
		c-0.4-0.1-0.6-0.3-0.7-0.7c-0.1-0.4,0.1-0.6,0.5-0.7c0.7-0.3,1.4-0.4,2.1-0.5c2.6-0.3,5.2-0.1,7.8,0c1.4,0.1,2.8,0.2,4.3,0.3
		c2.6,0.2,5.2,0.7,7.7,1.2c0.3,0,0.5,0.1,0.8,0.1c-3.8-4.7-5.5-9.9-4.6-15.9c-1.1,0.8-2.1,1.7-3.2,2.6c-4.1,3.4-8.9,5.4-13.9,6.8
		c-0.9,0.2-1.8,0.5-2.7,0.7c-0.5,0.1-0.9,0-1.1-0.6c-0.1-0.6,0.3-0.8,0.7-0.9c2.9-0.6,5.8-1.5,8.6-2.7c3.3-1.4,6.4-3.2,9.1-5.6
		c0.7-0.6,0.8-0.8,0.4-1.7c-1.5-3.3-3.3-6.6-5.4-9.6c-0.3-0.5-0.7-0.6-1.2-0.2c-2.1,1.5-4.1,3.2-5.8,5.1c-2.3,2.5-4.3,5.2-6.4,7.8
		c-0.2,0.3-0.5,0.7-0.8,0.5c-0.4-0.2-0.2-0.7-0.1-1.1c0.1-0.3,0.2-0.5,0.4-0.7c2.2-2.9,4.4-5.8,6.9-8.5c2.7-3,6-5.2,9.5-7.1
		c1.8-1,3.7-1.9,5.7-2.6c2.3-0.9,4.7-1.1,7.1-0.9c0.2,0,0.4,0,0.7-0.1c-0.3-0.3-0.6-0.5-0.9-0.7c-3.4-3-5.8-6.5-7.5-10.7
		c-0.1-0.3-0.1-0.7-0.4-0.7c-0.3,0-0.4,0.4-0.5,0.6c-2.2,3.5-4.3,7.1-6.7,10.4c-2.2,3.1-4.8,5.9-7.8,8.1c-2.5,1.8-4.7,3.8-7.1,5.7
		c-0.3,0.2-0.6,0.5-0.9,0.6c-0.4,0.2-0.8,0.3-1.2,0.1c-0.5-0.2-0.6-0.5-0.2-0.9c0.5-0.5,1.1-0.9,1.7-1.4c2.9-2.3,5.9-4.6,8.8-7
		c0.5-0.4,0.9-0.9,1.5-1.3c0.7-0.6,0.7-0.8,0.1-1.4c-1.3-1.4-2.7-2.7-4.3-3.9c-3-2.3-5.9-4.7-9-6.9c-3.7-2.5-7.7-4.3-11.8-5.9
		c-0.6-0.2-0.8,0-1,0.5c-0.8,2-1.2,4.1-1.6,6.3c-0.3,1.9-0.4,3.9-0.3,5.8c0,0.3,0,0.7-0.1,1c-0.1,0.3-0.2,0.6-0.6,0.6
		c-0.4,0-0.6-0.2-0.7-0.5c-0.1-0.2-0.1-0.4-0.1-0.6c-0.2-4.1,0.2-8.2,1.6-12.2c1.7-4.8,4.9-8.3,9.6-10.4c1.2-0.5,2.3-1,3.5-1.6
		c0.3-0.2,0.6-0.3,0.9-0.7c-6.1-2.2-10.9-6-14.3-11.5c-0.5,0.7-0.8,1.4-1.1,2c-2.1,4.4-3.1,8.9-3,13.8c0,2.4-0.1,4.7,0,7.1
		c0.2,3.6-0.5,7-1.3,10.5c-0.3,1.1-0.4,2.3-0.7,3.4c-0.1,0.3-0.1,0.6-0.4,0.8c-0.2,0.2-0.5,0.3-0.8,0.1c-0.3-0.1-0.5-0.3-0.4-0.7
		c0-0.3,0.1-0.6,0.2-0.8c0.6-2.6,1.3-5.1,1.7-7.7c0-0.2,0.1-0.5,0.1-0.7c0-2-0.1-4,0.2-5.9c0.1-0.5,0-0.7-0.6-0.8
		c-2.3-0.3-4.7-0.8-7-0.9c-0.7,0-1.3-0.2-1.9-0.1c-0.2,0-0.5,0-0.6,0.2c-0.1,0.3,0.2,0.4,0.3,0.6c1.6,1.8,2.3,3.8,1.8,6.2
		c-0.2,1-0.8,1.9-1.4,2.7c-1,1.3-1.7,2.8-2.5,4.2c-0.8,1.5-1,3-0.7,4.6c0.3,2,0.9,4,1.6,5.9c0.3,0.8,0.2,1.3-0.2,1.4
		c-0.7,0.2-1-0.4-1.2-0.9c-1-2.5-1.8-5.1-1.9-7.9c-0.1-1.4,0.3-2.7,0.9-4.1c-2.7,1.2-5.3,1.3-8,0.8c-0.2,0.3,0,0.5,0.1,0.7
		c1,1.7,1.5,3.6,1.5,5.7c0,2.7-0.2,5.5-0.2,8.2c0,0.1,0,0,0,0.1c0,0.8-0.4,1.4-0.8,1.3c-0.7-0.2-0.7-0.8-0.6-1.3
		c0.2-2.5,0-5.1,0.2-7.6c0.3-3.7-1.2-6.6-4-8.9c-1.8-1.5-2.9-3.4-3-5.8c-0.1-1.3,0.3-2.6,1-3.7c0.1-0.2,0.3-0.4,0.4-0.7
		c-1.5,0.4-2.9,0.8-4.3,1.2c-0.2,0.1-0.5,0.2-0.7,0.2c-0.7,0.2-0.9,0.1-1-0.7c-0.4-2.4-0.8-4.8-1.2-7.2c-0.5-2.8-0.8-5.7-1.6-8.5
		c-0.6-2.1-1.5-4-2.3-6c-0.5-1.3-1-2.5-1.5-3.8c-0.4-1-0.8-1.2-1.9-1.1c-1.6,0.3-3.1,0.7-4.1,2.1c-0.7,1-0.7,1.7,0.4,2.4
		c0.4,0.3,0.9,0.5,1.3,0.7c1.6,0.7,2.5,1.9,3.2,3.4c2.6,5.4,3.8,11.2,5.2,16.9c0.1,0.5,0.2,1.1,0.3,1.6c0.2,0.9,0.1,1.2-0.8,1.6
		c-3.8,1.4-7.3,3.5-10.6,5.7c-0.9,0.6-0.9,0.6-0.2,1.5c1.5,1.9,3.1,3.7,4.8,5.4c0.2,0.2,0.5,0.5,0.7,0.8c0.2,0.3,0.2,0.6,0,0.9
		c-0.3,0.3-0.6,0.2-0.9,0c-0.2-0.1-0.3-0.3-0.5-0.4c-3.8-3.6-6.9-7.8-9.2-12.5c-1.3-2.7-2.1-5.5-2.7-8.4c-0.4-1.9-0.7-3.8-1.4-5.7
		c-0.2-0.5-0.3-0.9-0.6-1.4c-0.1-0.2-0.1-0.4-0.4-0.5c-0.3,0-0.3,0.3-0.4,0.5c-0.3,0.6-0.5,1.2-0.8,1.8c-2.3,4.2-5.6,7.4-9.8,9.5
		c-0.1,0-0.1,0.1-0.2,0.2c0.2,0.2,0.4,0.3,0.6,0.4c4.4,2.3,8.2,5.4,11.8,8.8c3.3,3.1,6,6.6,8.6,10.2c0.3,0.4,0.5,0.7,0.6,1.2
		c0.1,0.4,0,0.7-0.3,0.9c-0.3,0.2-0.6,0.1-0.9-0.2c-0.2-0.2-0.3-0.3-0.4-0.5c-1.4-2.2-3.1-4.2-4.7-6.2c-0.5-0.6-0.6-0.6-1.2-0.1
		c-1.3,1.3-2.6,2.5-3.9,3.9c-2.9,3.2-5.4,6.6-7.5,10.3c-1.9,3.2-3.4,6.6-4.6,10.1c-0.3,1-0.2,1.1,0.7,1.6c1.7,0.9,3.5,1.7,5.3,2.2
		c0.1,0,0.2,0.1,0.4,0.1c0.5,0.2,0.9,0.5,0.8,1.1c-0.2,0.6-0.7,0.3-1.1,0.3c-1.7-0.3-3.2-0.9-4.7-1.7c-2.1-1.1-4-2.5-5.7-4.2
		c-1-1-2-2.1-3.2-3c-0.2-0.1-0.3-0.3-0.6-0.3c0.1,0.8,0.2,1.5,0.3,2.3c0.2,4.1-0.2,8.1-2.2,11.8c0,0.1-0.1,0.2-0.1,0.3
		c-0.1,0.2-0.4,0.5-0.2,0.7c0.2,0.2,0.4,0,0.7,0c2.8-0.6,5.6-0.7,8.4,0c1.2,0.3,2.4,0.8,3.6,1.3c0.4,0.2,0.7,0.4,0.7,0.9
		c0,0.5-0.5,0.7-1.2,0.5c-0.9-0.3-1.8-0.6-2.7-0.9c-0.4-0.1-0.9-0.2-1.4-0.3c-0.6-0.2-0.9,0.1-0.9,0.7c-0.1,1.4-0.3,2.7-0.3,4.1
		c-0.1,3.7-0.1,7.3,0.6,11c0.1,0.7,0.4,1,1.1,1.1c2,0.2,4,1,6,1.2c4.5,0.5,9,0.7,13.4-0.4c0.6-0.1,1.1-0.3,1.7-0.2
		c0.2,0,0.4,0,0.5,0.2c0.1,0.3-0.1,0.4-0.2,0.6c-0.3,0.3-0.6,0.5-1.1,0.6c-3.2,0.8-6.5,1.1-9.8,0.8c-1.2-0.1-2.4-0.1-3.6-0.2
		c-0.2,0-0.4-0.1-0.6-0.1c0,0,0,0,0,0.1c0.1-0.1,0,0.1,0.1,0c3,2.5,4.8,5.9,4.9,9.6c1.1-1.8,2.4-3.4,4.4-4.3
		c1.3-0.6,2.7-0.7,4.1-0.9c1.1-0.2,2.3-0.3,3.4-0.5c0.5-0.1,1.1-0.1,1.6,0.2c0.2,0.1,0.3,0.3,0.3,0.5c0,0.2-0.2,0.4-0.4,0.4
		c-0.7,0.2-1.3,0.3-2,0.3c-1.9,0.1-3.7,0.3-5.5,0.9c-1.9,0.6-3.3,1.8-4.4,3.4c-0.9,1.3-1.8,2.7-2.8,4.1c-0.9,1.4-2.1,2.3-3.7,2.9
		c-1,0.4-1,0.4-0.5,1.3c0.9,1.6,1.9,3.2,3,4.6c0.6,0.8,0.8,0.8,1.5,0.1c3.1-3.1,6.4-6.1,9-9.7c0.3-0.4,0.7-1,1.2-0.6
		c0.5,0.3,0,0.9-0.2,1.2c-0.7,1.3-1.7,2.4-2.7,3.4c-1.9,2.1-3.8,4.2-5.8,6.1c-0.8,0.7-1.6,1.4-2.4,2c-0.3,0.2-0.5,0.4-0.8,0.4
		C131.7,155.6,131.6,155.6,131.6,155.4z"/>
	<path class="st7" d="M158.3,181.5c0.9-1.4,1.8-2.7,2.7-4.1c0.4-0.5,0.2-0.7-0.3-0.9c-5.6-2.4-10.9-5.2-15.7-8.8
		c-1.8-1.3-3.5-2.8-5.1-4.4c-0.6-0.6-0.8-0.4-1.2,0.1c-1.5,2-2.3,4.3-3.2,6.6c-0.8,2.1-1.6,4.2-2.5,6.4c-0.5,1.2-1.3,1.6-2.6,1.3
		c-5.9-1.4-10.5-4.9-14.2-9.7c-0.5-0.7-0.9-1.4-1.2-2.2c-0.3-1-0.1-1.8,0.7-2.5c0.5-0.4,1.1-0.9,1.7-1.2c0.1-0.1,0.2,0,0.3,0.1
		c0.2,0.3,0.6,0.3,0.9,0.4c3.8,1.2,7,3.5,9.9,6.1c1.6,1.4,2.9,3,4,5c0.6-1.2,1-2.4,1.2-3.6c0.6-3.3,2.2-6.2,4.1-8.8
		c1.1-1.6,2.2-3.2,3.6-4.6c1.6-1.6,3.2-3.2,5-4.6c1-0.8,1.9-1.6,2.9-2.4c0.3-0.3,0.6-0.6,1.1-0.6c0.3,0,0.7,0,0.8,0.3
		c0.1,0.3-0.2,0.5-0.3,0.6c-1.1,0.9-2.1,1.8-3.2,2.7c-2.8,2.5-5.4,5.2-7.7,8.1c-0.4,0.5-0.3,0.8,0.1,1.3c2.6,2.7,5.7,4.8,8.8,6.8
		c3.6,2.3,7.3,4.4,11.3,6c0.9,0.4,1,0.4,1.3-0.6c0.8-2.3,1.3-4.7,1.9-7.1c0.1-0.4,0.2-0.8,0.5-1.1c0.2-0.2,0.4-0.3,0.6-0.2
		c0.2,0.1,0.3,0.3,0.3,0.5c0,0.4,0,0.8-0.1,1.2c-0.5,2.8-1.2,5.6-2.4,8.2c-0.9,2.1-2.3,3.9-3.7,5.7c-0.1,0.1-0.2,0.2-0.4,0.3
		C158.4,181.7,158.3,181.6,158.3,181.5z"/>
	<path class="st8" d="M117.9,162.2c-0.1,0-0.1-0.1-0.2-0.1c2.1-1.3,4.4-2.2,6.7-3.1c0.8-0.3,1.5-0.5,2.3-0.8c0.2-0.1,0.2,0,0.2,0.2
		c-0.1,0.3-0.3,0.4-0.6,0.5c-2.7,1.1-5.4,2.2-8.1,3.4C118.2,162.3,118,162.4,117.9,162.2z"/>
	<path class="st9" d="M158.3,181.5c0,0.1,0.1,0.1,0.1,0.2c-0.2,0.9-0.7,1.4-1.4,1.9c-0.1,0-0.2-0.1-0.1-0.2
		C157.3,182.7,157.8,182.1,158.3,181.5z"/>
	<path class="st10" d="M126.9,158.4c-0.1,0-0.1-0.1-0.2-0.1c0.8-0.4,1.6-0.9,2.5-1.2c0,0.1,0.1,0.1,0,0.2
		C128.6,157.8,127.9,158.3,126.9,158.4z"/>
	<path class="st11" d="M156.9,183.3c0,0.1,0.1,0.1,0.1,0.2c-0.1,0.7-0.6,1.3-1.1,1.8c-0.1,0-0.2-0.1-0.2-0.2
		C156,184.5,156.4,183.9,156.9,183.3z"/>
	<path class="st12" d="M131.6,155.4c0.1,0.1,0.1,0.1,0.2,0.2c-0.2,0.7-0.8,0.9-1.4,1c-0.1,0-0.2-0.1-0.2-0.2
		C130.7,156.1,131.2,155.8,131.6,155.4z"/>
	<path class="st13" d="M130.2,156.4c0.1,0,0.1,0.1,0.2,0.1c-0.2,0.5-0.5,0.8-1.1,0.6c0,0,0-0.1,0-0.1
		C129.5,156.7,129.9,156.6,130.2,156.4z"/>
	<path class="st14" d="M155.7,185.1c0.1,0.1,0.1,0.1,0.2,0.2c0.1,0.2,0,0.3,0,0.5c-0.3,0.3-0.3-0.1-0.4-0.2
		C155.5,185.4,155.6,185.3,155.7,185.1z"/>
	<path class="st15" d="M155.8,185.8c-0.4-0.2,0.1-0.3,0-0.5c0.4-0.6,0.8-1.2,1.2-1.7c0.5-0.6,0.9-1.3,1.4-1.9
		c3.5-4,5.4-8.7,6.3-13.9c0.1-0.5,0.3-0.9,0.2-1.4c0-0.2,0.1-0.4-0.2-0.5c-0.2,0-0.4,0.1-0.5,0.2c-0.2,0.2-0.3,0.5-0.3,0.8
		c-0.7,2.7-1.2,5.4-2.2,7.9c-0.2,0.5-0.3,0.6-0.9,0.4c-7.1-3-13.7-6.9-19.6-11.9c-0.7-0.6-1.6-1.1-1.7-1.9c-0.1-0.7,0.9-1.4,1.4-2
		c2.9-3.6,6.3-6.7,9.9-9.6c0.1-0.1,0.3-0.2,0.4-0.4c-0.4-0.4-0.8-0.4-1.2-0.1c-4.8,4-9.6,8.1-13,13.5c-1.4,2.2-2.5,4.5-3,7.1
		c-0.3,1.4-0.9,2.8-1.3,4.2c-0.3-0.1-0.3-0.3-0.4-0.4c-3.4-5.4-8.2-9.1-14.3-11.1c-0.1,0-0.8,0.2-0.4-0.4c2.5-1.2,5.2-2.2,7.8-3.3
		c0.4-0.2,0.8-0.4,1.3-0.6c0.8-0.4,1.7-0.7,2.3-1.2c0.4-0.1,0.8-0.3,1.1-0.6c0.5-0.3,1-0.5,1.4-0.9c1.6-1,3-2.2,4.3-3.6
		c2.5-2.7,5.1-5.2,7.2-8.2c0.3-0.4,0.5-0.8,0.5-1.3c-0.5,0-0.7,0.2-0.9,0.5c-2.8,3.8-6.2,7-9.6,10.3c-0.4,0.4-0.7,0.4-1.1-0.1
		c-1.4-1.8-2.6-3.7-3.7-5.7c-0.1-0.2-0.3-0.4,0.1-0.6c3-0.8,4.5-3.2,6-5.5c0.3-0.4,0.5-0.8,0.8-1.2c1.7-2.9,4.3-4.2,7.5-4.5
		c1.4-0.2,2.9-0.3,4.3-0.5c0.3,0,0.8,0,0.8-0.4c0-0.5-0.5-0.4-0.8-0.5c-1-0.2-2,0.2-3,0.3c-1.3,0.2-2.7,0.4-4,0.7
		c-2.2,0.5-3.8,1.9-5.1,3.7c-0.3,0.4-0.5,0.8-0.9,1.4c-0.1-4.3-2-7.5-5-10.2c0.1-0.4,0.4-0.2,0.7-0.2c3,0.2,5.9,0.5,8.9,0.2
		c1.5-0.2,3-0.4,4.5-0.7c0.6-0.2,1-0.5,1.4-1.1c-1.2-0.2-2.3,0.2-3.4,0.4c-3.3,0.7-6.6,0.6-9.9,0.4c-3.1-0.1-6.1-1.2-9.2-1.6
		c-0.6-0.1-0.5-0.6-0.5-0.9c-0.2-1.6-0.5-3.2-0.6-4.8c-0.2-3.7-0.1-7.4,0.4-11.1c0.1-0.5,0.3-0.5,0.6-0.4c1.5,0.3,3,0.8,4.4,1.3
		c0.4,0.2,0.9,0.3,1.1-0.2c0.2-0.5-0.3-0.7-0.6-0.9c-3.9-1.8-8-2.3-12.2-1.2c-0.3,0.1-0.6,0.1-1,0.1c1.4-2.5,2.3-5,2.7-7.7
		c0.4-2.7,0.3-5.4-0.3-8.1c0.2-0.2,0.3,0,0.5,0.1c1,0.8,1.9,1.6,2.8,2.5c3,3.2,6.6,5.6,11,6.7c0.2,0.1,0.5,0.1,0.7,0.1
		c0.2,0,0.4,0.2,0.5-0.1c0.1-0.3,0-0.6-0.3-0.7c-0.2-0.1-0.4-0.2-0.6-0.3c-2.1-0.6-4.1-1.5-6.1-2.6c-0.5-0.3-0.5-0.5-0.4-1
		c2-6.6,5.5-12.5,9.7-17.9c2.1-2.7,4.4-5.2,6.9-7.4c0.4-0.3,0.5-0.4,0.9,0.1c1.8,2.2,3.7,4.4,5.2,6.9c0.2,0.3,0.6,0.6,0.9,0.4
		c0.3-0.2,0.3-0.6,0.1-1c-0.1-0.2-0.2-0.3-0.3-0.5c-4.8-7.2-10.8-13.2-18-17.9c-0.6-0.4-1.2-0.7-1.8-1c-0.6-0.3-1.2-0.6-1.8-1
		c5.6-2.6,9.4-6.7,11.7-12.5c0.6,0.6,0.9,1.3,1.2,2c1,2.6,1.4,5.3,2,7.9c1,4.8,3.3,8.9,6.1,12.8c1.6,2.3,3.6,4.3,5.6,6.3
		c0.3,0.3,0.5,0.6,0.9,0.2c0.5-0.4,0-0.7-0.2-1c-1.5-1.5-2.9-3-4.2-4.6c-0.5-0.6-1-1.3-1.6-2c-0.2-0.3-0.3-0.4,0.1-0.7
		c3.7-2.5,7.5-4.9,11.7-6.4c0.4-0.2,0.5-0.4,0.4-0.8c-1.5-6.5-2.7-13.2-5.8-19.2c-0.7-1.4-1.7-2.4-3.1-3c0,0-0.1,0-0.1-0.1
		c-2.5-1.1-2.7-2.5-0.6-4.2c1.2-1,2.7-1.3,4.3-1.4c0.4,0,0.8,0.2,1,0.6c1.3,3.8,3.2,7.4,4.2,11.2c0.7,2.8,1,5.8,1.5,8.7
		c0.4,2.2,0.7,4.3,1.1,6.5c0.1,0.5,0.3,0.3,0.6,0.3c1.9-0.5,3.7-1.1,5.7-1.6c-0.8,1.2-1.4,2.3-1.6,3.5c-0.4,2.6,0.5,4.8,2.5,6.5
		c0.8,0.7,1.5,1.4,2.2,2.2c1.8,2,2.3,4.4,2.2,7c-0.1,2.6-0.1,5.2-0.2,7.8c0,0.5-0.1,1.1,0.5,1.1c0.5,0,0.6-0.6,0.6-1.1
		c0-2.6,0.1-5.1,0.2-7.7c0.1-2.4-0.5-4.6-1.8-6.7c-0.1-0.1-0.2-0.3-0.2-0.4c0,0,0-0.1-0.1-0.3c3.1,0.7,6,0.5,8.8-0.8
		c0.2,0.1,0,0.3,0,0.4c-1.1,2.4-1.1,4.9-0.4,7.4c0.4,1.4,0.7,2.9,1.2,4.2c0.1,0.2,0.2,0.5,0.3,0.7c0.2,0.3,0.4,0.5,0.7,0.4
		c0.4-0.2,0.3-0.5,0.2-0.8c-0.2-0.6-0.4-1.2-0.6-1.8c-0.6-1.9-1.1-3.7-1.2-5.7c-0.1-1.1,0.1-2.2,0.7-3.2c0.9-1.7,1.9-3.5,3-5.1
		c1.9-2.6,1.5-5.9-0.8-8.2c-0.3-0.3-0.5-0.6-0.8-0.9c1.6-0.3,3.1-0.1,4.6,0c2,0.2,4.1,0.6,6.1,0.9c0.3,0,0.5,0,0.4,0.4
		c-0.3,1.9-0.1,3.8-0.2,5.8c-0.1,2.8-1,5.4-1.5,8c-0.1,0.5-0.3,1-0.4,1.5c-0.1,0.4-0.3,0.8,0.3,1c0.5,0.1,0.7-0.2,0.8-0.7
		c0.4-1.4,0.5-2.9,0.9-4.3c1.3-4.7,1.1-9.5,1.1-14.3c-0.1-4.2,0.1-8.3,1.4-12.3c0.7-2.1,1.6-4.2,2.6-6.1c0.1-0.1,0.1-0.2,0.3-0.3
		c3.4,5.8,8.3,9.7,14.7,11.9c-0.2,0.5-0.7,0.7-1.1,0.9c-1.1,0.5-2.2,1.1-3.4,1.6c-5.5,2.5-9,6.7-10.3,12.5c-0.7,3.2-1.1,6.4-1,9.7
		c0,0.6,0.1,1.3,0.7,1.3c0.5,0,0.4-0.8,0.4-1.2c-0.1-3.8,0.3-7.5,1.4-11.2c0.7-2.3,0.6-2.2,2.9-1.4c6.5,2.4,12.1,6.2,17.4,10.5
		c2.4,2,5,3.8,7.1,6.1c0.4,0.5,0.4,0.6,0,1c-3.7,3.4-7.7,6.3-11.6,9.5c-0.4,0.3-0.7,0.6-1.1,0.9c0.7,0.5,1.3,0.5,1.8,0
		c3.2-2.5,6.4-5,9.5-7.6c3.3-2.7,5.9-6.1,8.1-9.7c1.7-2.7,3.4-5.4,5-8c0.1-0.1,0.2-0.3,0.3-0.5c1.9,5.2,4.8,9.6,9.2,13
		c-0.6,0.3-1.3,0.1-1.9,0.1c-2.9-0.2-5.6,0.5-8.2,1.7c-4.2,1.9-8,4.2-11.5,7.2c-2.2,1.9-3.9,4.3-5.8,6.5c-0.9,1.1-1.8,2.2-2.7,3.4
		c-0.4,0.5-0.8,1.1-0.5,1.9c0.3,0,0.3-0.2,0.4-0.4c2.5-3.1,4.8-6.3,7.7-9.2c1.6-1.6,3.3-3,5.1-4.2c0.4-0.2,0.6-0.3,0.9,0.1
		c2.4,3.3,4.3,6.9,6,10.6c0.2,0.4,0,0.6-0.3,0.8c-3.7,3.4-8,5.7-12.8,7.3c-1.8,0.6-3.7,1.1-5.6,1.6c-0.2,0.1-0.6,0-0.4,0.4
		c0.1,0.3,0.1,0.8,0.7,0.7c6.7-1.5,13-3.9,18.1-8.6c0.7-0.6,1.4-1.1,2.1-1.7c0,0,0.1,0,0.1,0c-1.2,6.4,0.7,11.8,4.8,16.7
		c-1.6-0.3-3.1-0.6-4.6-0.8c-5.3-0.8-10.5-1.3-15.8-1c-0.9,0-1.8,0.3-2.8,0.5c-0.4,0.1-0.5,0.3-0.4,0.6c0.1,0.3,0.2,0.5,0.6,0.4
		c1.3-0.1,2.5-0.2,3.8-0.3c3.1-0.3,6.2,0,9.4,0.3c2.3,0.2,4.6,0.6,6.9,1c0.6,0.1,0.9,0.3,1,1c0.5,4.2,0.3,8.3-0.1,12.5
		c-0.2,1.5-0.4,2.9-0.6,4.4c-0.1,0.9-0.2,1-1.1,0.8c-3.9-0.9-7.9-1.8-11.8-2.6c-1.2-0.3-2.3-0.5-3.5-0.7c-0.2,0-0.3,0-0.5,0
		c-0.3,0-0.5,0.2-0.5,0.4c-0.1,0.3,0.3,0.3,0.4,0.3c2.4,0.9,4.9,1.5,7.5,2.1c3.7,0.7,7.3,1.6,11,2.1c2.9,0.4,5.8,0.5,8.8,0.3
		c2-0.1,4-0.4,6.1-0.2c-2.2,2.1-3.8,4.5-4.7,7.4c-0.9,2.9-0.9,5.8-0.4,8.8c-0.8-0.5-1.4-1.1-2-1.6c-2.6-2.2-5.1-4.6-8-6.3
		c-3.3-1.9-6.8-3.4-10.6-4c-2.1-0.4-4.3-0.1-6.4,0c-1,0-2,0-3.1,0.3c0.5,0.6,1.2,0.8,1.9,0.7c4.8-0.8,9.2,0.4,13.6,2.2
		c0.5,0.2,0.4,0.4,0.2,0.8c-1,2.5-2.1,4.8-3.4,7.2c-0.6,1.1-1,2.2-1.5,3.2c-0.2,0.3-0.1,0.5,0.2,0.8c3.7,3,7.3,6,11.2,8.7
		c3.4,2.4,7.2,4,11.3,5c1.2,0.3,2.3,0.8,3.4,1.4c1.1,0.6,1.4,1.4,0.9,2.5c-0.9,1.9-1.9,3.7-3.2,5.3c-0.5,0.7-1,0.7-1.7,0.3
		c-0.9-0.5-1.7-1.1-2.4-1.9c-3.9-4.2-7.7-8.4-12.3-11.9c-2.9-2.3-6.1-4.3-9.3-6.1c-0.7-0.4-1.2-0.2-1.5,0.5c-0.2,0.3-0.4,0.7-0.6,1
		c-2.9,3.5-6,7-9.6,9.9c-0.4,0.4-0.7,0.3-1.1,0c-0.8-0.6-1.6-1.3-2.4-1.9c-0.1-0.1-0.3-0.2-0.5-0.3c-0.3-0.1-0.7-0.5-1-0.1
		c-0.3,0.4,0.1,0.7,0.4,1c3.8,2.8,7.1,6.4,10.8,9.4c4.5,3.7,9.3,6.9,14.6,9.6c0.3,0.1,0.5,0.3,0.8,0.5c-5.6,2.6-9.3,6.9-11.7,12.6
		c-0.5-1-1-1.9-1.3-2.8c-3.1-7.9-7-15.4-12.6-21.8c-1.6-1.8-3.3-3.6-4.9-5.3c-0.2-0.2-0.4-0.4-0.6-0.5c-0.2-0.1-0.5-0.1-0.7,0.1
		c-0.3,0.2,0,0.4,0.1,0.6c0.6,1.2,1.7,2.1,2.6,3.1c0.7,0.8,0.8,0.8-0.1,1.4c-3.1,2-6.4,3.4-9.8,4.7c-2.8,1.1-5.6,2-8.5,2.6
		c-0.7,0.1-1,0-1.4-0.6c-1.4-2.8-2.9-5.5-3.6-8.6c-0.4-1.8-0.5-3.7-0.6-5.6c0-1.2-0.1-2.3-0.1-3.5c0-0.6-0.2-1.1-0.6-1.6
		c-0.2,0.4-0.5,0.7-0.5,1.1c-0.1,4.6,0.3,9.2,2,13.6c0.6,1.6,1.5,3,2.3,4.5c2,3.4,3.1,7.1,3.2,11.3c-5.1-3.3-10.5-4.1-16.3-2.6
		c0.1-0.6,0.3-1.1,0.6-1.6c1-1.7,2.2-3.3,3.4-4.9c1.5-2.1,2.2-4.5,2.6-7c0.7-4.9,0.1-9.6-1-14.4c-0.1-0.4-0.2-0.7-0.4-1
		c-0.1-0.1-0.1-0.3-0.3-0.3c-0.2,0-0.2,0.2-0.2,0.4c-0.2,0.8,0.1,1.5,0.2,2.2c0.7,3.9,1,7.7,0.7,11.7c-0.2,2.7-0.9,5.1-2.4,7.4
		c-0.2,0.4-0.5,0.5-0.9,0.5c-3.3-0.1-6.5-0.4-9.7-0.9c-0.9-0.1-1.9-0.3-2.8-0.3c-0.5,0-0.6-0.2-0.5-0.7c0.7-3.2,1.5-6.4,2.2-9.5
		c0-0.1,0.1-0.3,0.1-0.4c0-0.4,0-1-0.5-1.1c-0.6-0.1-0.6,0.5-0.6,0.9c-0.6,3.8-1.8,7.5-2.2,11.4c-0.2,2.4-0.2,4.8,0.1,7.2
		c0.1,0.9,0.2,1.9,0.3,3C165.3,185.7,160.8,184.6,155.8,185.8z"/>
	<path class="st15" d="M173.1,21.4c0.1,3-0.8,5.7-1.9,8.5c-1.3,3.5-2.4,7-2.9,10.7c-0.4,3.1-0.3,6.3,0.1,9.4c0.3,2.3,0.8,4.6,1.3,7
		c0.1,0.4,0,0.7-0.5,0.8c-1.8,0.5-3.7,1-5.5,1.5c-0.7,0.2-0.8-0.1-0.8-0.6c-0.3-2.7-1-5.4-1.4-8.1c-0.7-5.2-2.3-10.1-4.5-14.8
		c-1.1-2.4-2.1-4.8-2.5-7.5c-0.3-2-0.4-4-0.6-6c0-0.3,0.1-0.4,0.4-0.3c2.5,0.8,5,1,7.6,1.1c3.7,0.1,7.3-0.2,10.8-1.6
		C172.8,21.4,173,21.4,173.1,21.4z"/>
	<path class="st15" d="M276.8,123.2c-0.7-0.3-1.2-0.5-1.6-0.8c-4-2.5-8.3-3.9-12.9-4.8c-4.6-0.9-9.1-1.5-13.8-1.3
		c-0.8,0-1.7,0.1-2.5,0.2c-0.3,0-0.5,0-0.5-0.4c-0.1-1.3-0.2-2.7-0.3-4.1c1.5,0.2,2.9,0.4,4.3,0.6c2.6,0.4,4.2-0.6,5.1-3.1
		c0.2-0.6,0.1-1.4,0.6-1.7c0.5-0.3,1.2-0.1,1.8-0.1c4.1-0.1,8.2-0.4,12.2-1.3c1.3-0.3,2.6-0.8,4-1.3
		C272.4,111.6,273.9,117.4,276.8,123.2z"/>
	<path class="st15" d="M97.8,144.3c1.5-6.8-0.2-13-3.9-18.8c1.7,0.3,3.3,0.5,4.8,0.8c3.8,0.6,7.5,1.5,11.4,1.8
		c3.4,0.3,6.7-0.1,10-0.9c0.2-0.1,0.7-0.5,0.8,0.2c0.1,0.4,0.5,0.9-0.3,1.3c-2.7,1.1-4,3.2-4.4,6c0,0.3-0.1,0.6-0.4,0.7
		c-2.8,1-5.2,2.7-7.7,4.1c-3,1.7-6.1,3.2-9.3,4.6C98.4,144.2,98.1,144.4,97.8,144.3z"/>
	<path class="st15" d="M132.9,138.8c0.1,4.2-1.2,6.3-3.6,7.1c-1.7,0.6-3.4,0.5-4.9-0.2c-3.6-1.7-6.3-4.3-7-8.4
		c-0.2-1.3-0.3-2.6,0.1-3.9c0.6-2.2,2.4-3.8,4.7-4c1.8-0.2,3.4,0.1,5,1C130.7,132.6,132.8,135.7,132.9,138.8z"/>
	<path class="st15" d="M176.1,70c-2.9-0.1-5.3-1-7-3.3c-1.7-2.3-1.5-5.3,0.4-7.5c3.5-4.2,9.3-3.8,12.6-2c3.7,2,4.4,6.4,1.6,9.8
		c-1.5,1.7-3.4,2.6-5.6,2.9C177.3,69.9,176.6,70,176.1,70z"/>
	<path class="st15" d="M242.1,98.5c0.1-1.2,0.2-2.5,0.6-3.7c0.8-2,2.4-2.7,4.4-1.7c1.4,0.7,2.4,1.8,3.3,3c2.2,3,3.3,6.3,3.5,10
		c0.1,1.4-0.2,2.7-0.9,4c-0.9,1.6-2.3,2.1-4,1.3c-2.2-1-3.7-2.8-4.6-4.9c-1-2.1-1.8-4.3-2.3-6.6C242.1,99.4,242.1,99,242.1,98.5z"/>
	<path class="st15" d="M255.7,144.6c0.1-4.1,1.2-7.3,3.4-10.2c0.6-0.8,1.4-1.4,2.3-1.8c1.1-0.5,2.1-0.2,2.8,0.8
		c0.6,0.9,0.9,1.9,1,2.9c0.4,4.6-0.8,8.7-3.9,12.2c-0.6,0.7-1.4,1.1-2.3,1.3c-1.1,0.2-2-0.2-2.5-1.3
		C255.9,147.3,255.7,145.9,255.7,144.6z"/>
	<path class="st15" d="M115.7,98.7c0,3.4-0.6,6.7-2.3,9.7c-0.4,0.6-0.7,1.2-1.3,1.7c-0.8,0.8-1.7,0.7-2.4-0.2
		c-0.8-1-1.2-2.2-1.3-3.5c-0.4-3.4-0.1-6.7,0.9-10c0.5-1.5,1.2-2.8,2.2-3.9c1.1-1.3,2.1-1.2,3,0.2c0.8,1.3,1,2.7,1.2,4.1
		C115.8,97.4,115.7,98.1,115.7,98.7z"/>
	<path class="st15" d="M241.9,61.1c0-0.7-0.1-1.5,0.7-1.9c0.8-0.4,1.6-0.1,2.2,0.4c4.3,3.1,7.2,7.2,8.7,12.2
		c0.3,0.9,0.5,1.7,0.3,2.7c-0.2,0.9-0.7,1.2-1.6,1c-0.7-0.1-1.3-0.5-1.9-0.9c-4.1-3.2-7-7.1-8.3-12.2
		C241.9,61.9,241.9,61.5,241.9,61.1z"/>
	<path class="st15" d="M97.4,139.7c0,1.3-0.1,2.6-0.7,3.8c-0.5,1-1,1.1-1.9,0.4c-0.5-0.4-0.9-0.8-1.2-1.3c-2.3-3.7-3.4-7.8-3.5-12.1
		c-0.1-1.3,0.2-2.6,0.5-3.9c0.3-1.4,1.1-1.6,2.2-0.6c1.8,1.7,2.7,3.9,3.4,6.1C97,134.6,97.4,137.1,97.4,139.7z"/>
	<path class="st15" d="M123.8,56.8c0-1.3,0.7-2.5,1.3-3.6c2.1-3.8,5.2-6.6,9.2-8.2c0.3-0.1,0.7-0.2,1-0.2c0.7,0,1,0.3,1.1,1
		c0.1,1-0.1,1.9-0.6,2.7c-2,4-4.8,7.3-8.8,9.5c-0.4,0.2-0.9,0.4-1.4,0.5C124.3,58.8,123.8,58.3,123.8,56.8z"/>
	<path class="st15" d="M233.3,197.5c0-1.5,0.7-2.7,1.4-3.9c1.8-3.2,4.1-5.9,7.3-7.7c0.7-0.4,1.4-0.8,2.3-0.9
		c0.9-0.1,1.3,0.1,1.4,1.1c0.1,1.3-0.5,2.4-1,3.5c-1.4,2.7-3.4,4.9-5.6,7c-1.2,1.2-2.6,1.9-4.2,2.2
		C233.6,199,233.2,198.7,233.3,197.5z"/>
	<path class="st15" d="M202.4,34.8c0.4,0,0.9,0.1,1.3,0.3c4,1.8,7.6,4.1,10.4,7.5c0.8,1,1.7,1.9,2.1,3.2c0.2,0.5,0.5,1.1,0,1.5
		c-0.5,0.4-1.1,0.4-1.7,0.2c-4.9-1.6-8.7-4.7-11.9-8.7c-0.6-0.8-1.1-1.6-1.4-2.5C200.8,35.4,201.2,34.8,202.4,34.8z"/>
	<path class="st15" d="M191.2,192.9c-3-0.1-5.8-0.6-8.4-1.8c-0.8-0.4-1.5-0.8-2.1-1.4c-0.8-0.7-0.7-1.6,0.2-2.2
		c1-0.8,2.3-0.8,3.5-0.9c3.6-0.4,7.1,0.3,10.3,2c0.7,0.3,1.2,0.9,1.7,1.5c0.5,0.7,0.5,1.1-0.3,1.6c-1,0.7-2.2,1-3.4,1.2
		C192.2,192.8,191.7,192.8,191.2,192.9z"/>
	<path class="st15" d="M164.1,193.6c-2.5-0.1-5-0.6-7.2-1.9c-0.7-0.4-1.3-0.9-1.7-1.6c-0.9-1.2-0.6-2.1,0.7-2.7
		c1.2-0.5,2.4-0.8,3.7-0.7c2.6,0.2,5.2,0.7,7.4,2.2c0.6,0.4,1.2,0.9,1.7,1.5c0.7,1,0.5,1.8-0.5,2.4
		C166.9,193.4,165.5,193.6,164.1,193.6z"/>
	<path class="st15" d="M279.8,120.2c-0.2,0.9,0.2,2.1-0.4,3.2c-0.2,0.3-0.2,0.3-0.5,0.1c-1.3-0.7-1.9-2-2.4-3.3
		c-1.9-4.2-2.9-8.5-2.7-13.1c0-0.6,0.1-1.2,0.3-1.7c0.3-0.9,0.8-0.9,1.4-0.2c1.3,1.7,2.3,3.5,2.9,5.5
		C279.3,113.8,279.8,116.8,279.8,120.2z"/>
	<path class="st15" d="M161.6,21.9c-2,0-4,0.1-6-0.5c-0.1,0-0.3-0.1-0.5-0.1c-0.3-0.1-0.7-0.2-0.8-0.5c-0.1-0.3,0.4-0.4,0.6-0.5
		c1.4-1,3.1-1.2,4.7-1.4c3.7-0.5,7.4-0.4,11.1-0.1c0.6,0.1,1.2,0.3,1.7,0.7c0.2,0.1,0.4,0.2,0.4,0.4c0,0.3-0.3,0.4-0.5,0.5
		c-1.5,0.6-3,1-4.6,1.3C165.8,21.8,163.7,21.9,161.6,21.9z"/>
	<path class="st16" d="M129.9,129.9c-0.2,0.1-0.5-0.1-0.7,0.2c-0.1-0.1-0.2-0.1-0.2-0.2c-0.1-0.1,0.1-0.1,0.2-0.1
		C129.5,129.8,129.7,129.8,129.9,129.9z"/>
	<path class="st15" d="M130.4,176.7c-0.9,0-1.6-0.3-2.4-0.6c-4.2-2-7.9-4.7-10.7-8.4c-0.6-0.7-1-1.6-1.3-2.4c-0.3-0.9,0-1.3,0.9-1.2
		c1,0.1,1.9,0.2,2.8,0.6c4.4,1.9,8.1,4.7,11,8.5c0.4,0.5,0.7,1,1,1.6C132.3,176.1,132,176.7,130.4,176.7z"/>
	<path class="st17" d="M184.4,96.4c-0.4,0.2-0.9,0.3-1.3,0.5c2.7-3.9,4.2-5.1,9.2-4.2c1.3,0.2,2.6,0.7,3.7,1.3
		c5,2.7,9.2,6.3,11.6,11.6c0.7,1.7,1.1,3.4,0.6,5.1c-0.1,0.5-0.3,0.9-0.6,1.2c-0.8,0.9-1.5,1.7-2,2.8c-0.1,0.3-0.3,0.8-0.7,0.6
		c-0.4-0.2-0.4-0.7-0.2-1.1c0-0.1,0-0.2,0.1-0.3c-1.4-0.2-2.8-0.1-4.2-0.4c-3.8-0.9-7-2.9-9.9-5.6c-2.2-2.1-4.3-4.4-5.4-7.3
		C184.8,99.3,184.5,97.9,184.4,96.4z"/>
	<path class="st18" d="M156.4,97.8c-0.5-0.6-0.5-1.4-1.1-1.9c-0.3,1-0.5,2-0.8,2.9c-1.7,5.4-5.3,9.2-10.3,11.9c-1.2,0.7-2.6,0.8-4,1
		c-0.5,0-0.5,0.2-0.3,0.5c0.2,0.4,0.7,0.6,0.6,1.1c0,0.1,0,0.3-0.1,0.3c-0.1,0.1-0.3,0-0.3-0.1c-1.2-1.5-2.7-2.9-3.7-4.6
		c-0.7-1.2-0.5-2.5-0.2-3.8c1.6-6.7,5.8-11.4,12-14.2c1.3-0.6,2.7-0.5,4.1,0c0.8,0.3,1.4,0.8,1.8,1.5c0.7,1.2,1.4,2.4,2,3.7
		C156.5,96.6,156.5,97.1,156.4,97.8z"/>
	<path class="st18" d="M162.6,130.4c0,0.3,0,0.4,0,0.5c0,0.2,0.2,0.6-0.1,0.7c-0.3,0.1-0.5-0.3-0.5-0.5c-0.3-1.3-1-2.3-1.5-3.5
		c-0.8-1.7-0.4-3.5,0-5.2c1.5-6.1,5.5-9.9,11.2-11.9c1.7-0.6,3.4-0.4,4.9,0.6c1.1,0.7,2.2,1.6,3.4,2.5c-1.1,0.1-0.9,0.7-0.8,1.4
		c0.4,1.7,0.2,3.3-0.3,4.9c-1.6,4.7-4.4,8.2-8.9,10.4c-2.3,1.1-4.7,1.4-7,0.3C163,130.5,162.9,130.5,162.6,130.4z"/>
	<path class="st18" d="M197.7,126.8c5.4,0.2,10.9,4.6,12.3,10.2c0.5,1.9,0.2,3.7-1.1,5.3c-0.6,0.7-1.1,1.3-1.3,2.3
		c-0.1,0.4-1,0.5-1.2,0.1c-0.3-0.6-0.8-0.4-1.3-0.5c-5.7-0.2-10-2.7-12.7-7.9c-0.8-1.6-1.3-3.3-1-5.1c0-0.1,0-0.2,0-0.3
		c-0.5-0.9,0.1-1.5,0.7-2.1C193.5,127.4,195.2,126.7,197.7,126.8z"/>
	<path class="st18" d="M185.9,147.9c-0.9,1.4-1.6,2.8-2.5,3.9c-2.1,2.6-4.9,3.3-8,3.1c-2.9-0.2-5.5-1.4-7.6-3.4
		c-2.6-2.5-3-5.4-1.3-8.5c1-1.8,2.2-3.2,4-4c0.5-0.2,1.1-0.5,1.6-0.9c1.4-1,2.9-1,4.5-0.5c4,1.3,7.1,3.6,8.3,7.9
		c0.2,0.6,0.2,1.2,0.3,1.8C185.2,147.8,185.3,148.1,185.9,147.9z"/>
	<path class="st15" d="M189.9,93.5c2,0,3.8,0.8,5.6,1.6c4.5,2.1,7.9,5.3,10.5,9.5c0.7,1.2,1.2,2.5,1.4,3.9c0.4,2.5-0.9,4-3.5,4.2
		c-1.6,0.1-3.1-0.2-4.5-0.9c-3.3-1.6-6.4-3.6-9-6.3c-2-2-3.6-4.3-4.5-7c-0.2-0.6-0.3-1.2-0.3-1.8c0-1.7,1.2-2.8,2.9-3
		C189,93.5,189.4,93.5,189.9,93.5z"/>
	<path class="st15" d="M137.3,106.7c0-1.1,0.2-2.2,0.6-3.2c1.8-4.4,4.6-8,8.7-10.4c1.2-0.7,2.4-1.1,3.8-1.1c2.1-0.1,3.4,1.1,3.5,3.2
		c0.1,1.4-0.3,2.8-0.8,4.1c-1.7,4.5-4.7,7.8-8.8,10.2c-1.2,0.7-2.4,1-3.8,1.1c-1.7,0.2-3.1-1.1-3.3-2.8
		C137.4,107.4,137.4,107,137.3,106.7z"/>
	<path class="st15" d="M178.7,117.6c-0.6,3.9-2.6,7.7-6.4,10.4c-1.6,1.1-3.3,2.1-5.3,2.4c-2,0.3-3.8-0.6-4.8-2.4
		c-1-1.9-1-3.9-0.4-5.9c1.4-4.4,4.1-7.6,8.2-9.8c1.5-0.8,3.1-1.1,4.7-0.8C177.2,111.8,178.8,114.1,178.7,117.6z"/>
	<path class="st15" d="M192.3,132.5c-0.2-2.3,1.3-4.3,3.6-4.7c1.5-0.3,2.9-0.1,4.4,0.4c3.9,1.6,6.9,4.1,8.4,8.2
		c0.2,0.5,0.3,1,0.4,1.5c0.4,2.9-1.2,4.8-4.1,5.2c-1.9,0.3-3.7-0.1-5.3-1c-3.5-1.9-6.2-4.4-7.2-8.4
		C192.4,133.3,192.4,132.9,192.3,132.5z"/>
	<path class="st15" d="M176.4,154c-2.9-0.1-5.5-1.1-7.8-3c-2.4-2-2.8-4.6-1.3-7.4c1.5-2.7,3.7-4.4,6.6-5.2c0.7-0.2,1.3-0.1,2,0
		c3.4,0.9,6.1,2.6,7.6,5.9c1.7,3.8,0.2,7.4-3.7,9C178.8,153.8,177.6,154,176.4,154z"/>
</g>
</svg>
