<svg width="192" height="183" viewBox="0 0 192 183" fill="none" xmlns="http://www.w3.org/2000/svg">
<path d="M42.5149 137.787C42.8149 137.287 42.8149 136.787 42.4149 136.287C41.4149 135.087 40.5149 133.787 39.6149 132.487C39.1149 131.887 38.7149 131.287 38.5149 130.487C38.3149 129.787 37.9149 129.587 37.2149 129.487C31.9149 128.387 28.8149 124.887 27.3149 119.787C27.0149 118.687 27.0149 118.687 26.0149 119.087C23.9149 119.887 21.9149 120.987 19.9149 122.287C16.3149 124.487 12.6149 126.387 8.6149 127.487C7.0149 127.987 5.7149 127.487 4.6149 126.287C2.9149 124.487 2.1149 122.187 1.3149 119.887C0.314904 116.887 -0.0850986 113.887 0.0149014 110.787C0.0149014 109.687 0.214904 108.687 0.814904 107.787C1.3149 106.987 2.0149 106.587 3.0149 106.687C6.1149 106.887 9.2149 107.387 12.3149 107.987C16.3149 108.687 20.3149 109.487 24.4149 109.287C26.7149 109.187 28.9149 108.887 31.2149 108.287C31.7149 108.187 31.9149 107.987 31.8149 107.387C31.4149 104.387 31.4149 101.287 31.5149 98.2866C31.6149 96.6866 31.7149 95.0866 31.9149 93.5866C32.0149 92.8866 31.8149 92.7866 31.2149 92.7866C28.6149 92.5866 26.2149 93.2866 23.7149 93.7866C23.4149 93.8866 23.1149 93.8866 22.9149 93.9866C21.5149 94.2866 20.6149 93.9866 19.7149 92.7866C18.7149 91.3866 18.3149 89.7866 18.2149 88.0866C17.8149 83.8866 18.5149 79.8866 20.3149 76.0866C20.8149 74.9866 21.5149 73.9866 22.5149 73.3866C23.5149 72.6866 24.5149 72.7866 25.4149 73.4866C28.2149 75.6866 30.8149 77.9866 33.3149 80.3866C33.6149 80.6866 34.0149 80.9866 34.3149 81.2866C35.0149 79.5866 35.5149 77.7866 36.2149 76.1866C39.5149 68.1866 44.4149 61.2866 50.7149 55.3866C51.4149 54.6866 51.5149 54.6866 50.7149 53.9866C46.3149 49.5866 41.6149 45.4866 36.1149 42.5866C33.4149 41.0866 33.2149 40.2866 34.2149 37.3866C34.7149 35.8866 35.6149 34.4866 36.6149 33.2866C38.2149 31.2866 40.0149 29.4866 42.0149 27.8866C43.0149 27.0866 44.1149 26.5866 45.3149 26.3866C46.5149 26.1866 47.5149 26.4866 48.3149 27.4866C50.2149 29.8866 51.2149 32.5866 51.8149 35.5866C52.5149 38.9866 53.2149 42.3866 54.8149 45.5866C55.5149 46.9866 56.3149 48.2866 57.1149 49.5866C57.4149 49.9866 57.6149 49.9866 58.0149 49.6866C61.5149 47.2866 65.1149 45.2866 69.0149 43.5866C69.3149 43.4866 69.5149 43.3866 69.4149 42.9866C68.2149 38.4866 67.4149 33.8866 65.8149 29.4866C65.2149 27.7866 64.4149 26.1866 63.6149 24.4866C63.2149 23.4866 62.4149 22.7866 61.5149 22.2866C61.0149 21.9866 60.5149 21.6866 59.9149 21.3866C58.5149 20.5866 58.0149 19.0866 58.7149 17.5866C59.6149 15.6866 61.3149 14.9866 63.2149 14.5866C63.7149 14.4866 64.2149 14.4866 64.7149 14.3866C65.1149 14.3866 65.3149 14.1866 65.1149 13.7866C64.2149 10.4866 64.3149 7.18662 64.2149 3.88662C64.2149 2.68662 64.7149 1.98662 65.9149 1.58662C70.8149 -0.0133762 75.9149 -0.313377 81.0149 0.286623C81.8149 0.386623 82.7149 0.486622 83.5149 0.686622C84.4149 0.786622 85.0149 1.28662 84.9149 2.08662C84.8149 3.48662 85.0149 4.88662 84.9149 6.38662C84.6149 8.88662 83.8149 11.2866 82.9149 13.5866C81.2149 17.6866 80.3149 21.9866 80.2149 26.4866C80.2149 29.4866 80.6149 32.4866 81.1149 35.3866C81.3149 36.2866 81.5149 37.2866 81.6149 38.1866C81.7149 38.6866 81.9149 38.6866 82.4149 38.5866C84.0149 38.0866 85.5149 37.5866 87.1149 37.3866C88.8149 37.1866 90.5149 37.4866 92.1149 38.0866C92.9149 38.3866 93.7149 38.5866 94.5149 38.5866C98.0149 38.6866 101.515 38.8866 105.015 39.5866C105.515 39.6866 105.715 39.6866 105.715 39.0866C105.515 35.8866 106.115 32.6866 106.415 29.4866C106.815 24.9866 109.115 21.2866 111.315 17.5866C111.715 16.8866 112.415 16.6866 113.215 16.6866C117.015 17.0866 119.915 19.1866 122.715 21.4866C124.315 22.7866 125.715 24.4866 126.915 26.1866C127.515 27.0866 127.815 27.9866 128.215 28.9866C128.415 29.4866 128.215 29.9866 127.915 30.3866C127.015 31.6866 125.815 32.5866 124.515 33.3866C123.415 33.9866 122.315 34.4866 121.115 34.9866C118.015 36.2866 115.715 38.5866 114.015 41.3866C113.815 41.6866 113.815 41.8866 114.215 41.9866C114.915 42.2866 115.515 42.5866 116.215 42.7866C121.815 44.9866 126.915 47.7866 131.615 51.5866C132.615 52.3866 133.715 53.0866 134.715 53.7866C136.715 55.1866 138.215 56.9866 139.815 58.6866C140.915 59.7866 140.915 59.7866 141.815 58.5866C145.215 54.2866 148.015 49.4866 151.015 44.8866C151.415 44.2866 151.515 43.6866 151.615 43.0866C151.715 41.0866 152.915 40.1866 154.915 40.8866C156.315 41.3866 157.715 42.0866 158.715 43.2866C161.615 46.3866 164.015 49.7866 165.315 53.8866C165.715 55.0866 165.715 56.2866 165.715 57.4866C165.715 58.3866 165.115 58.8866 164.215 59.1866C162.315 59.6866 160.415 59.9866 158.415 59.8866C155.715 59.7866 153.215 60.5866 150.815 61.7866C149.115 62.6866 147.515 63.5866 145.815 64.4866C145.315 64.7866 145.115 65.0866 145.415 65.6866C147.415 69.0866 149.315 72.4866 151.215 75.8866C151.415 76.2866 151.515 76.2866 151.915 75.9866C154.015 74.3866 157.115 73.4866 159.515 75.3866C162.615 77.7866 164.215 81.0866 165.315 84.7866C165.715 86.0866 165.915 87.3866 165.915 88.6866C165.915 89.2866 166.115 89.3866 166.615 89.3866C172.715 89.4866 178.715 88.8866 184.515 86.7866C185.815 86.2866 186.115 86.3866 187.115 87.4866C188.915 89.4866 189.715 91.9866 190.515 94.4866C191.515 97.6866 192.115 100.887 191.915 104.287C191.815 104.987 191.715 105.687 191.415 106.387C191.115 107.187 190.515 107.587 189.615 107.287C188.015 106.887 186.415 106.387 184.915 105.487C181.815 103.487 178.315 102.687 174.715 101.787C168.915 100.387 163.115 100.187 157.215 100.187C156.715 100.187 156.515 100.387 156.515 100.887C156.315 104.887 155.915 108.787 155.315 112.687C155.215 113.287 155.615 113.287 156.015 113.387C158.115 113.687 160.215 113.987 162.415 113.987C164.515 113.887 166.515 113.787 168.615 113.687C170.715 113.487 172.815 113.987 174.815 114.587C175.515 114.787 175.915 115.287 176.215 115.987C177.915 119.687 177.415 123.287 176.115 126.887C175.215 129.187 174.015 131.287 171.915 132.887C170.515 133.887 169.215 133.987 167.815 133.087C165.615 131.887 163.815 130.187 162.015 128.487C159.415 126.187 156.615 124.087 153.515 122.687C153.115 122.487 152.915 122.487 152.715 122.987C151.215 126.087 149.715 129.187 148.215 132.387C148.115 132.687 148.015 132.887 148.315 133.187C152.215 136.287 155.915 139.487 160.015 142.187C163.215 144.387 166.715 145.587 170.415 146.587C172.015 146.987 173.515 147.587 174.615 148.787C175.615 149.787 175.715 150.687 175.015 151.887C174.115 153.487 173.215 154.987 172.315 156.487C172.015 156.987 171.715 157.387 171.215 157.687C169.915 158.687 169.015 158.687 167.815 157.487C164.815 154.687 162.115 151.587 159.215 148.687C155.015 144.587 150.315 141.187 145.315 138.287C144.715 137.987 144.315 137.987 143.915 138.587C141.015 142.387 137.815 145.887 134.015 148.887C133.715 149.187 133.415 149.287 133.915 149.787C139.215 154.887 145.015 159.487 151.415 163.187C153.215 164.187 154.915 165.287 156.615 166.487C157.715 167.287 158.115 168.287 157.815 169.587C157.515 170.987 156.915 172.287 156.215 173.487C154.115 176.987 151.315 179.687 147.815 181.787C147.215 182.187 146.515 182.387 145.815 182.487C144.515 182.687 144.015 182.287 143.315 180.987C141.515 177.487 140.015 173.787 138.315 170.187C135.615 164.387 132.015 159.087 127.915 154.187C127.615 153.787 127.315 153.887 127.015 154.087C123.615 155.787 120.315 157.587 116.815 158.987C114.015 160.087 111.215 160.887 108.415 161.687C107.715 161.887 107.515 162.087 107.715 162.887C108.215 164.587 108.715 166.387 109.015 168.187C109.215 169.987 109.215 171.887 109.115 173.787C109.115 174.587 108.515 175.087 107.715 175.387C105.315 176.387 102.815 176.587 100.315 176.387C98.1149 176.187 96.0149 175.587 93.9149 174.687C93.0149 174.287 92.3149 173.787 91.6149 173.187C90.7149 172.387 90.6149 171.487 90.8149 170.387C91.3149 167.987 92.5149 165.987 93.9149 164.087C94.0149 163.887 94.2149 163.687 94.4149 163.387C93.1149 163.287 91.9149 163.087 90.7149 162.987C87.9149 162.687 85.1149 162.387 82.2149 162.087C81.6149 161.987 81.4149 162.187 81.3149 162.787C81.0149 164.687 81.3149 166.587 81.4149 168.487C81.5149 170.287 81.6149 171.987 81.5149 173.787C81.4149 175.287 80.6149 176.187 79.2149 176.687C76.2149 177.687 73.2149 177.187 70.3149 176.187C69.3149 175.887 68.3149 175.387 67.3149 174.787C66.5149 174.387 65.9149 173.787 65.4149 173.087C64.8149 172.287 64.8149 171.387 65.1149 170.487C65.4149 169.587 65.8149 168.787 66.4149 167.987C66.6149 167.987 66.8149 168.087 67.0149 167.987C71.2149 166.987 75.1149 167.687 78.7149 169.887C79.1149 170.187 79.6149 170.487 80.1149 170.687C80.2149 169.987 80.1149 169.387 80.0149 168.787C79.4149 164.187 79.7149 159.687 80.9149 155.187C81.3149 153.587 81.6149 151.887 81.9149 150.187C81.9149 149.987 81.9149 149.887 82.0149 149.687C82.2149 149.187 82.1149 148.587 82.9149 148.687C83.3149 148.687 83.6149 149.387 83.5149 150.087C83.3149 151.287 83.0149 152.487 82.7149 153.787C82.3149 155.687 81.8149 157.587 81.4149 159.487C81.2149 160.287 81.3149 160.387 82.1149 160.487C85.4149 160.887 88.7149 161.387 92.1149 161.487C92.6149 161.487 93.1149 161.587 93.7149 161.687C94.3149 161.687 94.7149 161.487 95.0149 160.987C96.3149 158.687 97.0149 156.287 97.2149 153.687C97.4149 149.487 97.0149 145.387 96.2149 141.387C96.1149 140.987 96.1149 140.487 96.3149 140.087C96.4149 139.587 96.8149 139.587 97.1149 139.987C97.3149 140.287 97.4149 140.687 97.5149 140.987C98.1149 143.587 98.5149 146.087 98.7149 148.787C98.9149 151.287 98.7149 153.687 98.4149 156.187C98.0149 159.287 96.6149 161.887 94.7149 164.287C93.9149 165.387 93.1149 166.487 92.4149 167.687C92.3149 167.887 92.0149 168.187 92.1149 168.487C92.3149 168.787 92.6149 168.587 92.9149 168.487C97.8149 167.487 102.415 168.087 106.715 170.587L106.815 170.687C107.115 170.787 107.315 171.087 107.615 170.987C107.915 170.787 107.715 170.387 107.715 170.087C107.415 166.187 106.015 162.687 104.015 159.387C101.715 155.487 100.615 151.287 100.315 146.887C100.215 145.487 100.215 144.087 100.215 142.787C100.215 142.287 100.315 141.887 100.515 141.487C100.715 141.087 101.015 141.087 101.215 141.487C101.415 141.787 101.615 142.187 101.615 142.687C101.615 143.687 101.815 144.787 101.815 145.787C101.615 150.087 102.615 154.187 104.715 157.987C105.115 158.787 105.515 159.587 105.915 160.387C106.215 160.987 106.615 161.187 107.215 160.987C109.515 160.587 111.615 159.887 113.815 159.087C117.515 157.787 121.115 156.187 124.515 154.287C126.115 153.387 126.015 153.387 124.815 152.087C124.115 151.387 123.415 150.687 122.915 149.887C122.715 149.587 122.415 149.187 122.815 148.887C123.215 148.587 123.615 148.687 123.915 148.887C124.415 149.287 124.915 149.787 125.315 150.287C126.215 151.387 127.115 152.387 128.115 153.287C130.415 155.587 132.415 158.187 134.115 160.887C136.915 165.387 139.515 170.087 141.415 174.987C141.915 176.187 142.315 177.387 142.915 178.687C144.115 176.087 145.515 173.687 147.415 171.587C149.315 169.487 151.515 167.887 154.115 166.587C153.515 166.087 152.815 165.787 152.115 165.487C146.515 162.587 141.415 158.887 136.715 154.687C134.015 152.287 131.415 149.687 128.515 147.587C128.115 147.287 127.515 146.887 127.915 146.287C128.315 145.687 128.915 146.087 129.415 146.387C130.215 146.787 130.915 147.387 131.615 148.087C132.315 148.787 132.515 148.687 133.315 148.087C136.215 145.587 138.915 142.887 141.415 139.887C142.115 139.087 142.815 138.287 143.315 137.287C143.615 136.687 144.315 136.687 145.015 137.087C147.215 138.287 149.315 139.587 151.315 140.987C155.515 143.887 159.315 147.387 162.815 151.087C164.115 152.487 165.415 153.887 166.715 155.287C167.315 155.887 168.015 156.387 168.715 156.787C169.515 157.287 169.815 157.187 170.415 156.487C171.615 154.887 172.615 153.187 173.415 151.287C173.915 150.287 173.615 149.687 172.615 149.087C171.115 148.187 169.515 147.787 167.915 147.287C163.515 146.087 159.515 143.987 155.915 141.187C153.015 138.887 150.015 136.587 147.115 134.287C146.315 133.587 146.315 133.487 146.715 132.487C147.215 131.287 147.715 130.187 148.315 129.087C149.415 127.087 150.315 124.987 151.215 122.887C151.415 122.387 151.415 122.087 150.815 121.887C147.515 120.487 144.015 119.687 140.415 119.587C139.515 119.587 138.715 119.687 137.815 119.887C137.215 119.987 136.715 119.887 136.215 119.587C136.015 119.487 135.815 119.287 135.915 119.087C135.915 118.787 136.215 118.687 136.415 118.687C136.915 118.587 137.415 118.587 137.915 118.587C139.615 118.487 141.315 118.387 143.015 118.387C145.615 118.387 148.115 119.087 150.615 119.987C155.115 121.687 159.015 124.387 162.515 127.587C163.515 128.487 164.515 129.287 165.715 130.387C164.815 124.287 166.215 119.087 170.615 114.687C168.515 114.587 166.515 114.787 164.415 114.987C162.615 115.087 160.815 115.087 158.915 114.887C153.015 114.387 147.415 112.887 141.615 111.687C140.315 111.387 139.115 110.887 137.815 110.487C137.515 110.387 136.915 110.287 137.115 109.787C137.215 109.287 137.715 109.187 138.215 109.287C139.715 109.487 141.315 109.887 142.815 110.187C146.215 110.887 149.715 111.687 153.115 112.487C154.315 112.787 154.315 112.687 154.515 111.487C155.215 106.987 155.515 102.387 155.415 97.7866C155.415 96.8866 155.315 95.9866 155.115 95.1866C155.015 94.6866 154.815 94.4866 154.315 94.3866C151.715 93.7866 149.015 93.4866 146.315 93.2866C144.315 93.1866 142.315 92.9866 140.215 92.9866C138.415 92.9866 136.715 93.2866 134.915 93.3866C134.615 93.3866 134.415 93.4866 134.115 93.3866C133.715 93.2866 133.515 93.0866 133.415 92.6866C133.315 92.2866 133.515 92.0866 133.915 91.9866C134.615 91.6866 135.315 91.5866 136.015 91.4866C138.615 91.1866 141.215 91.3866 143.815 91.4866C145.215 91.5866 146.615 91.6866 148.115 91.7866C150.715 91.9866 153.315 92.4866 155.815 92.9866C156.115 92.9866 156.315 93.0866 156.615 93.0866C152.815 88.3866 151.115 83.1866 152.015 77.1866C150.915 77.9866 149.915 78.8866 148.815 79.7866C144.715 83.1866 139.915 85.1866 134.915 86.5866C134.015 86.7866 133.115 87.0866 132.215 87.2866C131.715 87.3866 131.315 87.2866 131.115 86.6866C131.015 86.0866 131.415 85.8866 131.815 85.7866C134.715 85.1866 137.615 84.2866 140.415 83.0866C143.715 81.6866 146.815 79.8866 149.515 77.4866C150.215 76.8866 150.315 76.6866 149.915 75.7866C148.415 72.4866 146.615 69.1866 144.515 66.1866C144.215 65.6866 143.815 65.5866 143.315 65.9866C141.215 67.4866 139.215 69.1866 137.515 71.0866C135.215 73.5866 133.215 76.2866 131.115 78.8866C130.915 79.1866 130.615 79.5866 130.315 79.3866C129.915 79.1866 130.115 78.6866 130.215 78.2866C130.315 77.9866 130.415 77.7866 130.615 77.5866C132.815 74.6866 135.015 71.7866 137.515 69.0866C140.215 66.0866 143.515 63.8866 147.015 61.9866C148.815 60.9866 150.715 60.0866 152.715 59.3866C155.015 58.4866 157.415 58.2866 159.815 58.4866C160.015 58.4866 160.215 58.4866 160.515 58.3866C160.215 58.0866 159.915 57.8866 159.615 57.6866C156.215 54.6866 153.815 51.1866 152.115 46.9866C152.015 46.6866 152.015 46.2866 151.715 46.2866C151.415 46.2866 151.315 46.6866 151.215 46.8866C149.015 50.3866 146.915 53.9866 144.515 57.2866C142.315 60.3866 139.715 63.1866 136.715 65.3866C134.215 67.1866 132.015 69.1866 129.615 71.0866C129.315 71.2866 129.015 71.5866 128.715 71.6866C128.315 71.8866 127.915 71.9866 127.515 71.7866C127.015 71.5866 126.915 71.2866 127.315 70.8866C127.815 70.3866 128.415 69.9866 129.015 69.4866C131.915 67.1866 134.915 64.8866 137.815 62.4866C138.315 62.0866 138.715 61.5866 139.315 61.1866C140.015 60.5866 140.015 60.3866 139.415 59.7866C138.115 58.3866 136.715 57.0866 135.115 55.8866C132.115 53.5866 129.215 51.1866 126.115 48.9866C122.415 46.4866 118.415 44.6866 114.315 43.0866C113.715 42.8866 113.515 43.0866 113.315 43.5866C112.515 45.5866 112.115 47.6866 111.715 49.8866C111.415 51.7866 111.315 53.7866 111.415 55.6866C111.415 55.9866 111.415 56.3866 111.315 56.6866C111.215 56.9866 111.115 57.2866 110.715 57.2866C110.315 57.2866 110.115 57.0866 110.015 56.7866C109.915 56.5866 109.915 56.3866 109.915 56.1866C109.715 52.0866 110.115 47.9866 111.515 43.9866C113.215 39.1866 116.415 35.6866 121.115 33.5866C122.315 33.0866 123.415 32.5866 124.615 31.9866C124.915 31.7866 125.215 31.6866 125.515 31.2866C119.415 29.0866 114.615 25.2866 111.215 19.7866C110.715 20.4866 110.415 21.1866 110.115 21.7866C108.015 26.1866 107.015 30.6866 107.115 35.5866C107.115 37.9866 107.015 40.2866 107.115 42.6866C107.315 46.2866 106.615 49.6866 105.815 53.1866C105.515 54.2866 105.415 55.4866 105.115 56.5866C105.015 56.8866 105.015 57.1866 104.715 57.3866C104.515 57.5866 104.215 57.6866 103.915 57.4866C103.615 57.3866 103.415 57.1866 103.515 56.7866C103.515 56.4866 103.615 56.1866 103.715 55.9866C104.315 53.3866 105.015 50.8866 105.415 48.2866C105.415 48.0866 105.515 47.7866 105.515 47.5866C105.515 45.5866 105.415 43.5866 105.715 41.6866C105.815 41.1866 105.715 40.9866 105.115 40.8866C102.815 40.5866 100.415 40.0866 98.1149 39.9866C97.4149 39.9866 96.8149 39.7866 96.2149 39.8866C96.0149 39.8866 95.7149 39.8866 95.6149 40.0866C95.5149 40.3866 95.8149 40.4866 95.9149 40.6866C97.5149 42.4866 98.2149 44.4866 97.7149 46.8866C97.5149 47.8866 96.9149 48.7866 96.3149 49.5866C95.3149 50.8866 94.6149 52.3866 93.8149 53.7866C93.0149 55.2866 92.8149 56.7866 93.1149 58.3866C93.4149 60.3866 94.0149 62.3866 94.7149 64.2866C95.0149 65.0866 94.9149 65.5866 94.5149 65.6866C93.8149 65.8866 93.5149 65.2866 93.3149 64.7866C92.3149 62.2866 91.5149 59.6866 91.4149 56.8866C91.3149 55.4866 91.7149 54.1866 92.3149 52.7866C89.6149 53.9866 87.0149 54.0866 84.3149 53.5866C84.1149 53.8866 84.3149 54.0866 84.4149 54.2866C85.4149 55.9866 85.9149 57.8866 85.9149 59.9866C85.9149 62.6866 85.7149 65.4866 85.7149 68.1866C85.7149 68.2866 85.7149 68.1866 85.7149 68.2866C85.7149 69.0866 85.3149 69.6866 84.9149 69.5866C84.2149 69.3866 84.2149 68.7866 84.3149 68.2866C84.5149 65.7866 84.3149 63.1866 84.5149 60.6866C84.8149 56.9866 83.3149 54.0866 80.5149 51.7866C78.7149 50.2866 77.6149 48.3866 77.5149 45.9866C77.4149 44.6866 77.8149 43.3866 78.5149 42.2866C78.6149 42.0866 78.8149 41.8866 78.9149 41.5866C77.4149 41.9866 76.0149 42.3866 74.6149 42.7866C74.4149 42.8866 74.1149 42.9866 73.9149 42.9866C73.2149 43.1866 73.0149 43.0866 72.9149 42.2866C72.5149 39.8866 72.1149 37.4866 71.7149 35.0866C71.2149 32.2866 70.9149 29.3866 70.1149 26.5866C69.5149 24.4866 68.6149 22.5866 67.8149 20.5866C67.3149 19.2866 66.8149 18.0866 66.3149 16.7866C65.9149 15.7866 65.5149 15.5866 64.4149 15.6866C62.8149 15.9866 61.3149 16.3866 60.3149 17.7866C59.6149 18.7866 59.6149 19.4866 60.7149 20.1866C61.1149 20.4866 61.6149 20.6866 62.0149 20.8866C63.6149 21.5866 64.5149 22.7866 65.2149 24.2866C67.8149 29.6866 69.0149 35.4866 70.4149 41.1866C70.5149 41.6866 70.6149 42.2866 70.7149 42.7866C70.9149 43.6866 70.8149 43.9866 69.9149 44.3866C66.1149 45.7866 62.6149 47.8866 59.3149 50.0866C58.4149 50.6866 58.4149 50.6866 59.1149 51.5866C60.6149 53.4866 62.2149 55.2866 63.9149 56.9866C64.1149 57.1866 64.4149 57.4866 64.6149 57.7866C64.8149 58.0866 64.8149 58.3866 64.6149 58.6866C64.3149 58.9866 64.0149 58.8866 63.7149 58.6866C63.5149 58.5866 63.4149 58.3866 63.2149 58.2866C59.4149 54.6866 56.3149 50.4866 54.0149 45.7866C52.7149 43.0866 51.9149 40.2866 51.3149 37.3866C50.9149 35.4866 50.6149 33.5866 49.9149 31.6866C49.7149 31.1866 49.6149 30.7866 49.3149 30.2866C49.2149 30.0866 49.2149 29.8866 48.9149 29.7866C48.6149 29.7866 48.6149 30.0866 48.5149 30.2866C48.2149 30.8866 48.0149 31.4866 47.7149 32.0866C45.4149 36.2866 42.1149 39.4866 37.9149 41.5866C37.8149 41.5866 37.8149 41.6866 37.7149 41.7866C37.9149 41.9866 38.1149 42.0866 38.3149 42.1866C42.7149 44.4866 46.5149 47.5866 50.1149 50.9866C53.4149 54.0866 56.1149 57.5866 58.7149 61.1866C59.0149 61.5866 59.2149 61.8866 59.3149 62.3866C59.4149 62.7866 59.3149 63.0866 59.0149 63.2866C58.7149 63.4866 58.4149 63.3866 58.1149 63.0866C57.9149 62.8866 57.8149 62.7866 57.7149 62.5866C56.3149 60.3866 54.6149 58.3866 53.0149 56.3866C52.5149 55.7866 52.4149 55.7866 51.8149 56.2866C50.5149 57.5866 49.2149 58.7866 47.9149 60.1866C45.0149 63.3866 42.5149 66.7866 40.4149 70.4866C38.5149 73.6866 37.0149 77.0866 35.8149 80.5866C35.5149 81.5866 35.6149 81.6866 36.5149 82.1866C38.2149 83.0866 40.0149 83.8866 41.8149 84.3866C41.9149 84.3866 42.0149 84.4866 42.2149 84.4866C42.7149 84.6866 43.1149 84.9866 43.0149 85.5866C42.8149 86.1866 42.3149 85.8866 41.9149 85.8866C40.2149 85.5866 38.7149 84.9866 37.2149 84.1866C35.1149 83.0866 33.2149 81.6866 31.5149 79.9866C30.5149 78.9866 29.5149 77.8866 28.3149 76.9866C28.1149 76.8866 28.0149 76.6866 27.7149 76.6866C27.8149 77.4866 27.9149 78.1866 28.0149 78.9866C28.2149 83.0866 27.8149 87.0866 25.8149 90.7866C25.8149 90.8866 25.7149 90.9866 25.7149 91.0866C25.6149 91.2866 25.3149 91.5866 25.5149 91.7866C25.7149 91.9866 25.9149 91.7866 26.2149 91.7866C29.0149 91.1866 31.8149 91.0866 34.6149 91.7866C35.8149 92.0866 37.0149 92.5866 38.2149 93.0866C38.6149 93.2866 38.9149 93.4866 38.9149 93.9866C38.9149 94.4866 38.4149 94.6866 37.7149 94.4866C36.8149 94.1866 35.9149 93.8866 35.0149 93.5866C34.6149 93.4866 34.1149 93.3866 33.6149 93.2866C33.0149 93.0866 32.7149 93.3866 32.7149 93.9866C32.6149 95.3866 32.4149 96.6866 32.4149 98.0866C32.3149 101.787 32.3149 105.387 33.0149 109.087C33.1149 109.787 33.4149 110.087 34.1149 110.187C36.1149 110.387 38.1149 111.187 40.1149 111.387C44.6149 111.887 49.1149 112.087 53.5149 110.987C54.1149 110.887 54.6149 110.687 55.2149 110.787C55.4149 110.787 55.6149 110.787 55.7149 110.987C55.8149 111.287 55.6149 111.387 55.5149 111.587C55.2149 111.887 54.9149 112.087 54.4149 112.187C51.2149 112.987 47.9149 113.287 44.6149 112.987C43.4149 112.887 42.2149 112.887 41.0149 112.787C40.8149 112.787 40.6149 112.687 40.4149 112.687C40.4149 112.687 40.4149 112.687 40.4149 112.787C40.5149 112.687 40.4149 112.887 40.5149 112.787C43.5149 115.287 45.3149 118.687 45.4149 122.387C46.5149 120.587 47.8149 118.987 49.8149 118.087C51.1149 117.487 52.5149 117.387 53.9149 117.187C55.0149 116.987 56.2149 116.887 57.3149 116.687C57.8149 116.587 58.4149 116.587 58.9149 116.887C59.1149 116.987 59.2149 117.187 59.2149 117.387C59.2149 117.587 59.0149 117.787 58.8149 117.787C58.1149 117.987 57.5149 118.087 56.8149 118.087C54.9149 118.187 53.1149 118.387 51.3149 118.987C49.4149 119.587 48.0149 120.787 46.9149 122.387C46.0149 123.687 45.1149 125.087 44.1149 126.487C43.2149 127.887 42.0149 128.787 40.4149 129.387C39.4149 129.787 39.4149 129.787 39.9149 130.687C40.8149 132.287 41.8149 133.887 42.9149 135.287C43.5149 136.087 43.7149 136.087 44.4149 135.387C47.5149 132.287 50.8149 129.287 53.4149 125.687C53.7149 125.287 54.1149 124.687 54.6149 125.087C55.1149 125.387 54.6149 125.987 54.4149 126.287C53.7149 127.587 52.7149 128.687 51.7149 129.687C49.8149 131.787 47.9149 133.887 45.9149 135.787C45.1149 136.487 44.3149 137.187 43.5149 137.787C43.2149 137.987 43.0149 138.187 42.7149 138.187C42.6149 137.987 42.5149 137.987 42.5149 137.787Z" fill="#030405"/>
<path d="M69.2149 163.886C70.1149 162.486 71.0149 161.186 71.9149 159.786C72.3149 159.286 72.1149 159.086 71.6149 158.886C66.0149 156.486 60.7149 153.686 55.9149 150.086C54.1149 148.786 52.4149 147.286 50.8149 145.686C50.2149 145.086 50.0149 145.286 49.6149 145.786C48.1149 147.786 47.3149 150.086 46.4149 152.386C45.6149 154.486 44.8149 156.586 43.9149 158.786C43.4149 159.986 42.6149 160.386 41.3149 160.086C35.4149 158.686 30.8149 155.186 27.1149 150.386C26.6149 149.686 26.2149 148.986 25.9149 148.186C25.6149 147.186 25.8149 146.386 26.6149 145.686C27.1149 145.286 27.7149 144.786 28.3149 144.486C28.4149 144.386 28.5149 144.486 28.6149 144.586C28.8149 144.886 29.2149 144.886 29.5149 144.986C33.3149 146.186 36.5149 148.486 39.4149 151.086C41.0149 152.486 42.3149 154.086 43.4149 156.086C44.0149 154.886 44.4149 153.686 44.6149 152.486C45.2149 149.186 46.8149 146.286 48.7149 143.686C49.8149 142.086 50.9149 140.486 52.3149 139.086C53.9149 137.486 55.5149 135.886 57.3149 134.486C58.3149 133.686 59.2149 132.886 60.2149 132.086C60.5149 131.786 60.8149 131.486 61.3149 131.486C61.6149 131.486 62.0149 131.486 62.1149 131.786C62.2149 132.086 61.9149 132.286 61.8149 132.386C60.7149 133.286 59.7149 134.186 58.6149 135.086C55.8149 137.586 53.2149 140.286 50.9149 143.186C50.5149 143.686 50.6149 143.986 51.0149 144.486C53.6149 147.186 56.7149 149.286 59.8149 151.286C63.4149 153.586 67.1149 155.686 71.1149 157.286C72.0149 157.686 72.1149 157.686 72.4149 156.686C73.2149 154.386 73.7149 151.986 74.3149 149.586C74.4149 149.186 74.5149 148.786 74.8149 148.486C75.0149 148.286 75.2149 148.186 75.4149 148.286C75.6149 148.386 75.7149 148.586 75.7149 148.786C75.7149 149.186 75.7149 149.586 75.6149 149.986C75.1149 152.786 74.4149 155.586 73.2149 158.186C72.3149 160.286 70.9149 162.086 69.5149 163.886C69.4149 163.986 69.3149 164.086 69.1149 164.186C69.3149 164.086 69.2149 163.986 69.2149 163.886Z" fill="#040405"/>
<path d="M28.8149 144.587C28.7149 144.587 28.7149 144.487 28.6149 144.487C30.7149 143.187 33.0149 142.287 35.3149 141.387C36.1149 141.087 36.8149 140.887 37.6149 140.587C37.8149 140.487 37.8149 140.587 37.8149 140.787C37.7149 141.087 37.5149 141.187 37.2149 141.287C34.5149 142.387 31.8149 143.487 29.1149 144.687C29.1149 144.687 28.9149 144.787 28.8149 144.587Z" fill="#161718"/>
<path d="M69.2149 163.887C69.2149 163.987 69.3149 163.987 69.3149 164.087C69.1149 164.987 68.6149 165.487 67.9149 165.987C67.8149 165.987 67.7149 165.887 67.8149 165.787C68.2149 165.087 68.7149 164.487 69.2149 163.887Z" fill="#2D2E2E"/>
<path d="M37.8149 140.786C37.7149 140.786 37.7149 140.686 37.6149 140.686C38.4149 140.286 39.2149 139.786 40.1149 139.486C40.1149 139.586 40.2149 139.586 40.1149 139.686C39.5149 140.186 38.8149 140.686 37.8149 140.786Z" fill="#313132"/>
<path d="M67.8149 165.687C67.8149 165.787 67.9149 165.787 67.9149 165.887C67.8149 166.587 67.3149 167.187 66.8149 167.687C66.7149 167.687 66.6149 167.587 66.6149 167.487C66.9149 166.887 67.3149 166.287 67.8149 165.687Z" fill="#343535"/>
<path d="M42.5149 137.787C42.6149 137.887 42.6149 137.887 42.7149 137.987C42.5149 138.687 41.9149 138.887 41.3149 138.987C41.2149 138.987 41.1149 138.887 41.1149 138.787C41.6149 138.487 42.1149 138.187 42.5149 137.787Z" fill="#414242"/>
<path d="M41.1148 138.787C41.2148 138.787 41.2148 138.887 41.3148 138.887C41.1148 139.387 40.8148 139.687 40.2148 139.487V139.387C40.4148 139.087 40.8148 138.987 41.1148 138.787Z" fill="#474848"/>
<path d="M66.6149 167.486C66.7149 167.586 66.7149 167.586 66.8149 167.686C66.9149 167.886 66.8149 167.986 66.8149 168.186C66.5149 168.486 66.5149 168.086 66.4149 167.986C66.4149 167.786 66.5149 167.686 66.6149 167.486Z" fill="#262728"/>
<path d="M66.7149 168.187C66.3149 167.987 66.8149 167.887 66.7149 167.687C67.1149 167.087 67.5149 166.487 67.9149 165.987C68.4149 165.387 68.8149 164.687 69.3149 164.087C72.8149 160.087 74.7149 155.387 75.6149 150.187C75.7149 149.687 75.9149 149.287 75.8149 148.787C75.8149 148.587 75.9149 148.387 75.6149 148.287C75.4149 148.287 75.2149 148.387 75.1149 148.487C74.9149 148.687 74.8149 148.987 74.8149 149.287C74.1149 151.987 73.6149 154.687 72.6149 157.187C72.4149 157.687 72.3149 157.787 71.7149 157.587C64.6149 154.587 58.0149 150.687 52.1149 145.687C51.4149 145.087 50.5149 144.587 50.4149 143.787C50.3149 143.087 51.3149 142.387 51.8149 141.787C54.7149 138.187 58.1149 135.087 61.7149 132.187C61.8149 132.087 62.0149 131.987 62.1149 131.787C61.7149 131.387 61.3149 131.387 60.9149 131.687C56.1149 135.687 51.3149 139.787 47.9149 145.187C46.5149 147.387 45.4149 149.687 44.9149 152.287C44.6149 153.687 44.0149 155.087 43.6149 156.487C43.3149 156.387 43.3149 156.187 43.2149 156.087C39.8149 150.687 35.0149 146.987 28.9149 144.987C28.8149 144.987 28.1149 145.187 28.5149 144.587C31.0149 143.387 33.7149 142.387 36.3149 141.287C36.7149 141.087 37.1149 140.887 37.6149 140.687C38.4149 140.287 39.3149 139.987 39.9149 139.487C40.3149 139.387 40.7149 139.187 41.0149 138.887C41.5149 138.587 42.0149 138.387 42.4149 137.987C44.0149 136.987 45.4149 135.787 46.7149 134.387C49.2149 131.687 51.8149 129.187 53.9149 126.187C54.2149 125.787 54.4149 125.387 54.4149 124.887C53.9149 124.887 53.7149 125.087 53.5149 125.387C50.7149 129.187 47.3149 132.387 43.9149 135.687C43.5149 136.087 43.2149 136.087 42.8149 135.587C41.4149 133.787 40.2149 131.887 39.1149 129.887C39.0149 129.687 38.8149 129.487 39.2149 129.287C42.2149 128.487 43.7149 126.087 45.2149 123.787C45.5149 123.387 45.7149 122.987 46.0149 122.587C47.7149 119.687 50.3149 118.387 53.5149 118.087C54.9149 117.887 56.4149 117.787 57.8149 117.587C58.1149 117.587 58.6149 117.587 58.6149 117.187C58.6149 116.687 58.1149 116.787 57.8149 116.687C56.8149 116.487 55.8149 116.887 54.8149 116.987C53.5149 117.187 52.1149 117.387 50.8149 117.687C48.6149 118.187 47.0149 119.587 45.7149 121.387C45.4149 121.787 45.2149 122.187 44.8149 122.787C44.7149 118.487 42.8149 115.287 39.8149 112.587C39.9149 112.187 40.2149 112.387 40.5149 112.387C43.5149 112.587 46.4149 112.887 49.4149 112.587C50.9149 112.387 52.4149 112.187 53.9149 111.887C54.5149 111.687 54.9149 111.387 55.3149 110.787C54.1149 110.587 53.0149 110.987 51.9149 111.187C48.6149 111.887 45.3149 111.787 42.0149 111.587C38.9149 111.487 35.9149 110.387 32.8149 109.987C32.2149 109.887 32.3149 109.387 32.3149 109.087C32.1149 107.487 31.8149 105.887 31.7149 104.287C31.5149 100.587 31.6149 96.8871 32.1149 93.1871C32.2149 92.6871 32.4149 92.6871 32.7149 92.7871C34.2149 93.0871 35.7149 93.5871 37.1149 94.0871C37.5149 94.2871 38.0149 94.3871 38.2149 93.8871C38.4149 93.3871 37.9149 93.1871 37.6149 92.9871C33.7149 91.1871 29.6149 90.6871 25.4149 91.7871C25.1149 91.8871 24.8149 91.8871 24.4149 91.8871C25.8149 89.3871 26.7149 86.8871 27.1149 84.1871C27.5149 81.4871 27.4149 78.7871 26.8149 76.0871C27.0149 75.8871 27.1149 76.0871 27.3149 76.1871C28.3149 76.9871 29.2149 77.7871 30.1149 78.6871C33.1149 81.8871 36.7149 84.2871 41.1149 85.3871C41.3149 85.4871 41.6149 85.4871 41.8149 85.4871C42.0149 85.4871 42.2149 85.6871 42.3149 85.3871C42.4149 85.0871 42.3149 84.7871 42.0149 84.6871C41.8149 84.5871 41.6149 84.4871 41.4149 84.3871C39.3149 83.7871 37.3149 82.8871 35.3149 81.7871C34.8149 81.4871 34.8149 81.2871 34.9149 80.7871C36.9149 74.1871 40.4149 68.2871 44.6149 62.8871C46.7149 60.1871 49.0149 57.6871 51.5149 55.4871C51.9149 55.1871 52.0149 55.0871 52.4149 55.5871C54.2149 57.7871 56.1149 59.9871 57.6149 62.4871C57.8149 62.7871 58.2149 63.0871 58.5149 62.8871C58.8149 62.6871 58.8149 62.2871 58.6149 61.8871C58.5149 61.6871 58.4149 61.5871 58.3149 61.3871C53.5149 54.1871 47.5149 48.1871 40.3149 43.4871C39.7149 43.0871 39.1149 42.7871 38.5149 42.4871C37.9149 42.1871 37.3149 41.8871 36.7149 41.4871C42.3149 38.8871 46.1149 34.7871 48.4149 28.9871C49.0149 29.5871 49.3149 30.2871 49.6149 30.9871C50.6149 33.5871 51.0149 36.2871 51.6149 38.8871C52.6149 43.6871 54.9149 47.7871 57.7149 51.6871C59.3149 53.9871 61.3149 55.9871 63.3149 57.9871C63.6149 58.2871 63.8149 58.5871 64.2149 58.1871C64.7149 57.7871 64.2149 57.4871 64.0149 57.1871C62.5149 55.6871 61.1149 54.1871 59.8149 52.5871C59.3149 51.9871 58.8149 51.2871 58.2149 50.5871C58.0149 50.2871 57.9149 50.1871 58.3149 49.8871C62.0149 47.3871 65.8149 44.9871 70.0149 43.4871C70.4149 43.2871 70.5149 43.0871 70.4149 42.6871C68.9149 36.1871 67.7149 29.4871 64.6149 23.4871C63.9149 22.0871 62.9149 21.0871 61.5149 20.4871C61.5149 20.4871 61.4149 20.4871 61.4149 20.3871C58.9149 19.2871 58.7149 17.8871 60.8149 16.1871C62.0149 15.1871 63.5149 14.8871 65.1149 14.7871C65.5149 14.7871 65.9149 14.9871 66.1149 15.3871C67.4149 19.1871 69.3149 22.7871 70.3149 26.5871C71.0149 29.3871 71.3149 32.3871 71.8149 35.2871C72.2149 37.4871 72.5149 39.5871 72.9149 41.7871C73.0149 42.2871 73.2149 42.0871 73.5149 42.0871C75.4149 41.5871 77.2149 40.9871 79.2149 40.4871C78.4149 41.6871 77.8149 42.7871 77.6149 43.9871C77.2149 46.5871 78.1149 48.7871 80.1149 50.4871C80.9149 51.1871 81.6149 51.8871 82.3149 52.6871C84.1149 54.6871 84.6149 57.0871 84.5149 59.6871C84.4149 62.2871 84.4149 64.8871 84.3149 67.4871C84.3149 67.9871 84.2149 68.5871 84.8149 68.5871C85.3149 68.5871 85.4149 67.9871 85.4149 67.4871C85.4149 64.8871 85.5149 62.3871 85.6149 59.7871C85.7149 57.3871 85.1149 55.1871 83.8149 53.0871C83.7149 52.9871 83.6149 52.7871 83.6149 52.6871C83.6149 52.6871 83.6149 52.5871 83.5149 52.3871C86.6149 53.0871 89.5149 52.8871 92.3149 51.5871C92.5149 51.6871 92.3149 51.8871 92.3149 51.9871C91.2149 54.3871 91.2149 56.8871 91.9149 59.3871C92.3149 60.7871 92.6149 62.2871 93.1149 63.5871C93.2149 63.7871 93.3149 64.0871 93.4149 64.2871C93.6149 64.5871 93.8149 64.7871 94.1149 64.6871C94.5149 64.4871 94.4149 64.1871 94.3149 63.8871C94.1149 63.2871 93.9149 62.6871 93.7149 62.0871C93.1149 60.1871 92.6149 58.3871 92.5149 56.3871C92.4149 55.2871 92.6149 54.1871 93.2149 53.1871C94.1149 51.4871 95.1149 49.6871 96.2149 48.0871C98.1149 45.4871 97.7149 42.1871 95.4149 39.8871C95.1149 39.5871 94.9149 39.2871 94.6149 38.9871C96.2149 38.6871 97.7149 38.8871 99.2149 38.9871C101.215 39.1871 103.315 39.5871 105.315 39.8871C105.615 39.8871 105.815 39.8871 105.715 40.2871C105.415 42.1871 105.615 44.0871 105.515 46.0871C105.415 48.8871 104.515 51.4871 104.015 54.0871C103.915 54.5871 103.715 55.0871 103.615 55.5871C103.515 55.9871 103.315 56.3871 103.915 56.5871C104.415 56.6871 104.615 56.3871 104.715 55.8871C105.115 54.4871 105.215 52.9871 105.615 51.5871C106.915 46.8871 106.715 42.0871 106.715 37.2871C106.615 33.0871 106.815 28.9871 108.115 24.9871C108.815 22.8871 109.715 20.7871 110.715 18.8871C110.815 18.7871 110.815 18.6871 111.015 18.5871C114.415 24.3871 119.315 28.2871 125.715 30.4871C125.515 30.9871 125.015 31.1871 124.615 31.3871C123.515 31.8871 122.415 32.4871 121.215 32.9871C115.715 35.4871 112.215 39.6871 110.915 45.4871C110.215 48.6871 109.815 51.8871 109.915 55.1871C109.915 55.7871 110.015 56.4871 110.615 56.4871C111.115 56.4871 111.015 55.6871 111.015 55.2871C110.915 51.4871 111.315 47.7871 112.415 44.0871C113.115 41.7871 113.015 41.8871 115.315 42.6871C121.815 45.0871 127.415 48.8871 132.715 53.1871C135.115 55.1871 137.715 56.9871 139.815 59.2871C140.215 59.7871 140.215 59.8871 139.815 60.2871C136.115 63.6871 132.115 66.5871 128.215 69.7871C127.815 70.0871 127.515 70.3871 127.115 70.6871C127.815 71.1871 128.415 71.1871 128.915 70.6871C132.115 68.1871 135.315 65.6871 138.415 63.0871C141.715 60.3871 144.315 56.9871 146.515 53.3871C148.215 50.6871 149.915 47.9871 151.515 45.3871C151.615 45.2871 151.715 45.0871 151.815 44.8871C153.715 50.0871 156.615 54.4871 161.015 57.8871C160.415 58.1871 159.715 57.9871 159.115 57.9871C156.215 57.7871 153.515 58.4871 150.915 59.6871C146.715 61.5871 142.915 63.8871 139.415 66.8871C137.215 68.7871 135.515 71.1871 133.615 73.3871C132.715 74.4871 131.815 75.5871 130.915 76.7871C130.515 77.2871 130.115 77.8871 130.415 78.6871C130.715 78.6871 130.715 78.4871 130.815 78.2871C133.315 75.1871 135.615 71.9871 138.515 69.0871C140.115 67.4871 141.815 66.0871 143.615 64.8871C144.015 64.6871 144.215 64.5871 144.515 64.9871C146.915 68.2871 148.815 71.8871 150.515 75.5871C150.715 75.9871 150.515 76.1871 150.215 76.3871C146.515 79.7871 142.215 82.0871 137.415 83.6871C135.615 84.2871 133.715 84.7871 131.815 85.2871C131.615 85.3871 131.215 85.2871 131.415 85.6871C131.515 85.9871 131.515 86.4871 132.115 86.3871C138.815 84.8871 145.115 82.4871 150.215 77.7871C150.915 77.1871 151.615 76.6871 152.315 76.0871H152.415C151.215 82.4871 153.115 87.8871 157.215 92.7871C155.615 92.4871 154.115 92.1871 152.615 91.9871C147.315 91.1871 142.115 90.6871 136.815 90.9871C135.915 90.9871 135.015 91.2871 134.015 91.4871C133.615 91.5871 133.515 91.7871 133.615 92.0871C133.715 92.3871 133.815 92.5871 134.215 92.4871C135.515 92.3871 136.715 92.2871 138.015 92.1871C141.115 91.8871 144.215 92.1871 147.415 92.4871C149.715 92.6871 152.015 93.0871 154.315 93.4871C154.915 93.5871 155.215 93.7871 155.315 94.4871C155.815 98.6871 155.615 102.787 155.215 106.987C155.015 108.487 154.815 109.887 154.615 111.387C154.515 112.287 154.415 112.387 153.515 112.187C149.615 111.287 145.615 110.387 141.715 109.587C140.515 109.287 139.415 109.087 138.215 108.887C138.015 108.887 137.915 108.887 137.715 108.887C137.415 108.887 137.215 109.087 137.215 109.287C137.115 109.587 137.515 109.587 137.615 109.587C140.015 110.487 142.515 111.087 145.115 111.687C148.815 112.387 152.415 113.287 156.115 113.787C159.015 114.187 161.915 114.287 164.915 114.087C166.915 113.987 168.915 113.687 171.015 113.887C168.815 115.987 167.215 118.387 166.315 121.287C165.415 124.187 165.415 127.087 165.915 130.087C165.115 129.587 164.515 128.987 163.915 128.487C161.315 126.287 158.815 123.887 155.915 122.187C152.615 120.287 149.115 118.787 145.315 118.187C143.215 117.787 141.015 118.087 138.915 118.187C137.915 118.187 136.915 118.187 135.815 118.487C136.315 119.087 137.015 119.287 137.715 119.187C142.515 118.387 146.915 119.587 151.315 121.387C151.815 121.587 151.715 121.787 151.515 122.187C150.515 124.687 149.415 126.987 148.115 129.387C147.515 130.487 147.115 131.587 146.615 132.587C146.415 132.887 146.515 133.087 146.815 133.387C150.515 136.387 154.115 139.387 158.015 142.087C161.415 144.487 165.215 146.087 169.315 147.087C170.515 147.387 171.615 147.887 172.715 148.487C173.815 149.087 174.115 149.887 173.615 150.987C172.715 152.887 171.715 154.687 170.415 156.287C169.915 156.987 169.415 156.987 168.715 156.587C167.815 156.087 167.015 155.487 166.315 154.687C162.415 150.487 158.615 146.287 154.015 142.787C151.115 140.487 147.915 138.487 144.715 136.687C144.015 136.287 143.515 136.487 143.215 137.187C143.015 137.487 142.815 137.887 142.615 138.187C139.715 141.687 136.615 145.187 133.015 148.087C132.615 148.487 132.315 148.387 131.915 148.087C131.115 147.487 130.315 146.787 129.515 146.187C129.415 146.087 129.215 145.987 129.015 145.887C128.715 145.787 128.315 145.387 128.015 145.787C127.715 146.187 128.115 146.487 128.415 146.787C132.215 149.587 135.515 153.187 139.215 156.187C143.715 159.887 148.515 163.087 153.815 165.787C154.115 165.887 154.315 166.087 154.615 166.287C149.015 168.887 145.315 173.187 142.915 178.887C142.415 177.887 141.915 176.987 141.615 176.087C138.515 168.187 134.615 160.687 129.015 154.287C127.415 152.487 125.715 150.687 124.115 148.987C123.915 148.787 123.715 148.587 123.515 148.487C123.315 148.387 123.015 148.387 122.815 148.587C122.515 148.787 122.815 148.987 122.915 149.187C123.515 150.387 124.615 151.287 125.515 152.287C126.215 153.087 126.315 153.087 125.415 153.687C122.315 155.687 119.015 157.087 115.615 158.387C112.815 159.487 110.015 160.387 107.115 160.987C106.415 161.087 106.115 160.987 105.715 160.387C104.315 157.587 102.815 154.887 102.115 151.787C101.715 149.987 101.615 148.087 101.515 146.187C101.515 144.987 101.415 143.887 101.415 142.687C101.415 142.087 101.215 141.587 100.815 141.087C100.615 141.487 100.315 141.787 100.315 142.187C100.215 146.787 100.615 151.387 102.315 155.787C102.915 157.387 103.815 158.787 104.615 160.287C106.615 163.687 107.715 167.387 107.815 171.587C102.715 168.287 97.3149 167.487 91.5149 168.987C91.6149 168.387 91.8149 167.887 92.1149 167.387C93.1149 165.687 94.3149 164.087 95.5149 162.487C97.0149 160.387 97.7149 157.987 98.1149 155.487C98.8149 150.587 98.2149 145.887 97.1149 141.087C97.0149 140.687 96.9149 140.387 96.7149 140.087C96.6149 139.987 96.6149 139.787 96.4149 139.787C96.2149 139.787 96.2149 139.987 96.2149 140.187C96.0149 140.987 96.3149 141.687 96.4149 142.387C97.1149 146.287 97.4149 150.087 97.1149 154.087C96.9149 156.787 96.2149 159.187 94.7149 161.487C94.5149 161.887 94.2149 161.987 93.8149 161.987C90.5149 161.887 87.3149 161.587 84.1149 161.087C83.2149 160.987 82.2149 160.787 81.3149 160.787C80.8149 160.787 80.7149 160.587 80.8149 160.087C81.5149 156.887 82.3149 153.687 83.0149 150.587C83.0149 150.487 83.1149 150.287 83.1149 150.187C83.1149 149.787 83.1149 149.187 82.6149 149.087C82.0149 148.987 82.0149 149.587 82.0149 149.987C81.4149 153.787 80.2149 157.487 79.8149 161.387C79.6149 163.787 79.6149 166.187 79.9149 168.587C80.0149 169.487 80.1149 170.487 80.2149 171.587C76.2149 168.087 71.7149 166.987 66.7149 168.187Z" fill="#9F3744"/>
<path d="M84.015 3.78711C84.115 6.78711 83.2149 9.48711 82.1149 12.2871C80.8149 15.7871 79.715 19.2871 79.215 22.9871C78.815 26.0871 78.9149 29.2871 79.3149 32.3871C79.6149 34.6871 80.1149 36.9871 80.6149 39.3871C80.7149 39.7871 80.6149 40.0871 80.1149 40.1871C78.3149 40.6871 76.4149 41.1871 74.6149 41.6871C73.9149 41.8871 73.8149 41.5871 73.8149 41.0871C73.5149 38.3871 72.8149 35.6871 72.4149 32.9871C71.7149 27.7871 70.1149 22.8871 67.9149 18.1871C66.8149 15.7871 65.8149 13.3871 65.4149 10.6871C65.1149 8.68711 65.0149 6.68711 64.8149 4.68711C64.8149 4.38711 64.915 4.28711 65.215 4.38711C67.715 5.18711 70.2149 5.38711 72.8149 5.48711C76.5149 5.58711 80.1149 5.28711 83.6149 3.88711C83.7149 3.78711 83.915 3.78711 84.015 3.78711Z" fill="#9F3744"/>
<path d="M187.715 105.586C187.015 105.286 186.515 105.086 186.115 104.786C182.115 102.286 177.815 100.886 173.215 99.9863C168.615 99.0863 164.115 98.4863 159.415 98.6863C158.615 98.6863 157.715 98.7863 156.915 98.8863C156.615 98.8863 156.415 98.8863 156.415 98.4863C156.315 97.1863 156.215 95.7863 156.115 94.3863C157.615 94.5863 159.015 94.7863 160.415 94.9863C163.015 95.3863 164.615 94.3863 165.515 91.8863C165.715 91.2863 165.615 90.4863 166.115 90.1863C166.615 89.8863 167.315 90.0863 167.915 90.0863C172.015 89.9863 176.115 89.6863 180.115 88.7863C181.415 88.4863 182.715 87.9863 184.115 87.4863C183.315 93.9863 184.815 99.7863 187.715 105.586Z" fill="#9F3744"/>
<path d="M8.71494 126.687C10.2149 119.887 8.51494 113.687 4.81494 107.887C6.51494 108.187 8.11494 108.387 9.61494 108.687C13.4149 109.287 17.1149 110.187 21.0149 110.487C24.4149 110.787 27.7149 110.387 31.0149 109.587C31.2149 109.487 31.7149 109.087 31.8149 109.787C31.9149 110.187 32.3149 110.687 31.5149 111.087C28.8149 112.187 27.5149 114.287 27.1149 117.087C27.1149 117.387 27.0149 117.687 26.7149 117.787C23.9149 118.787 21.5149 120.487 19.0149 121.887C16.0149 123.587 12.9149 125.087 9.71494 126.487C9.31494 126.587 9.01494 126.787 8.71494 126.687Z" fill="#9F3744"/>
<path d="M43.8149 121.187C43.9149 125.387 42.6149 127.487 40.2149 128.287C38.5149 128.887 36.8149 128.787 35.3149 128.087C31.7149 126.387 29.0149 123.787 28.3149 119.687C28.1149 118.387 28.0149 117.087 28.4149 115.787C29.0149 113.587 30.8149 111.987 33.1149 111.787C34.9149 111.587 36.5149 111.887 38.1149 112.787C41.6149 114.987 43.7149 118.087 43.8149 121.187Z" fill="#9F3744"/>
<path d="M87.015 52.3869C84.115 52.2869 81.715 51.3869 80.015 49.0869C78.315 46.7869 78.5149 43.7869 80.4149 41.5869C83.9149 37.3869 89.715 37.7869 93.015 39.5869C96.715 41.5869 97.4149 45.9869 94.6149 49.3869C93.1149 51.0869 91.215 51.9869 89.015 52.2869C88.215 52.2869 87.515 52.3869 87.015 52.3869Z" fill="#9F3744"/>
<path d="M153.015 80.8871C153.115 79.6871 153.215 78.3871 153.615 77.1871C154.415 75.1871 156.015 74.4871 158.015 75.4871C159.415 76.1871 160.415 77.2871 161.315 78.4871C163.515 81.4871 164.615 84.7871 164.815 88.4871C164.915 89.8871 164.615 91.1871 163.915 92.4871C163.015 94.0871 161.615 94.5871 159.915 93.7871C157.715 92.7871 156.215 90.9871 155.315 88.8871C154.315 86.7871 153.515 84.5871 153.015 82.2871C153.015 81.7871 153.015 81.3871 153.015 80.8871Z" fill="#9F3744"/>
<path d="M166.615 126.987C166.715 122.887 167.815 119.687 170.015 116.787C170.615 115.987 171.415 115.387 172.315 114.987C173.415 114.487 174.415 114.787 175.115 115.787C175.715 116.687 176.015 117.687 176.115 118.687C176.515 123.287 175.315 127.387 172.215 130.887C171.615 131.587 170.815 131.987 169.915 132.187C168.815 132.387 167.915 131.987 167.415 130.887C166.815 129.687 166.615 128.287 166.615 126.987Z" fill="#9F3744"/>
<path d="M26.6149 81.0863C26.6149 84.4863 26.0149 87.7863 24.3149 90.7863C23.9149 91.3863 23.6149 91.9863 23.0149 92.4863C22.2149 93.2863 21.3149 93.1863 20.6149 92.2863C19.8149 91.2863 19.4149 90.0863 19.3149 88.7863C18.9149 85.3863 19.2149 82.0863 20.2149 78.7863C20.7149 77.2863 21.4149 75.9863 22.4149 74.8863C23.5149 73.5863 24.5149 73.6863 25.4149 75.0863C26.2149 76.3863 26.4149 77.7863 26.6149 79.1863C26.7149 79.7863 26.6149 80.4863 26.6149 81.0863Z" fill="#9F3744"/>
<path d="M152.815 43.4867C152.815 42.7867 152.715 41.9867 153.515 41.5867C154.315 41.1867 155.115 41.4867 155.715 41.9867C160.015 45.0867 162.915 49.1867 164.415 54.1867C164.715 55.0867 164.915 55.8867 164.715 56.8867C164.515 57.7867 164.015 58.0867 163.115 57.8867C162.415 57.7867 161.815 57.3867 161.215 56.9867C157.115 53.7867 154.215 49.8867 152.915 44.7867C152.815 44.2867 152.815 43.8867 152.815 43.4867Z" fill="#9F3744"/>
<path d="M8.31486 122.087C8.31486 123.387 8.21485 124.687 7.61485 125.887C7.11485 126.887 6.61486 126.987 5.71486 126.287C5.21486 125.887 4.81485 125.487 4.51485 124.987C2.21485 121.287 1.11485 117.187 1.01485 112.887C0.914855 111.587 1.21485 110.287 1.51485 108.987C1.81485 107.587 2.61486 107.387 3.71486 108.387C5.51486 110.087 6.41485 112.287 7.11485 114.487C7.91485 116.987 8.31486 119.487 8.31486 122.087Z" fill="#9F3744"/>
<path d="M34.7148 39.1865C34.7148 37.8865 35.4148 36.6865 36.0148 35.5865C38.1148 31.7865 41.2148 28.9865 45.2148 27.3865C45.5148 27.2865 45.9148 27.1865 46.2148 27.1865C46.9148 27.1865 47.2148 27.4865 47.3148 28.1865C47.4148 29.1865 47.2148 30.0865 46.7148 30.8865C44.7148 34.8865 41.9148 38.1865 37.9148 40.3865C37.5148 40.5865 37.0148 40.7865 36.5148 40.8865C35.2148 41.1865 34.7148 40.6865 34.7148 39.1865Z" fill="#9F3744"/>
<path d="M144.215 179.886C144.215 178.386 144.915 177.186 145.615 175.986C147.415 172.786 149.715 170.086 152.915 168.286C153.615 167.886 154.315 167.486 155.215 167.386C156.115 167.286 156.515 167.486 156.615 168.486C156.715 169.786 156.115 170.886 155.615 171.986C154.215 174.686 152.215 176.886 150.015 178.986C148.815 180.186 147.415 180.886 145.815 181.186C144.515 181.386 144.115 181.086 144.215 179.886Z" fill="#9F3744"/>
<path d="M113.315 17.1865C113.715 17.1865 114.215 17.2865 114.615 17.4865C118.615 19.2865 122.215 21.5865 125.015 24.9865C125.815 25.9865 126.715 26.8865 127.115 28.1865C127.315 28.6865 127.615 29.2865 127.115 29.6865C126.615 30.0865 126.015 30.0865 125.415 29.8865C120.515 28.2865 116.715 25.1865 113.515 21.1865C112.915 20.3865 112.415 19.5865 112.115 18.6865C111.715 17.7865 112.115 17.1865 113.315 17.1865Z" fill="#9F3744"/>
<path d="M102.115 175.287C99.115 175.187 96.315 174.687 93.715 173.487C92.915 173.087 92.215 172.687 91.615 172.087C90.815 171.387 90.915 170.487 91.815 169.887C92.815 169.087 94.115 169.087 95.315 168.987C98.915 168.587 102.415 169.287 105.615 170.987C106.315 171.287 106.815 171.887 107.315 172.487C107.815 173.187 107.815 173.587 107.015 174.087C106.015 174.787 104.815 175.087 103.615 175.287C103.115 175.187 102.615 175.187 102.115 175.287Z" fill="#9F3744"/>
<path d="M75.0149 175.987C72.5149 175.887 70.0149 175.387 67.8149 174.087C67.1149 173.687 66.5149 173.187 66.1149 172.487C65.2149 171.287 65.5149 170.387 66.8149 169.787C68.0149 169.287 69.2149 168.987 70.5149 169.087C73.1149 169.287 75.7149 169.787 77.9149 171.287C78.5149 171.687 79.1149 172.187 79.6149 172.787C80.3149 173.787 80.1149 174.587 79.1149 175.187C77.8149 175.787 76.4149 175.987 75.0149 175.987Z" fill="#9F3744"/>
<path d="M190.715 102.586C190.515 103.486 190.915 104.686 190.315 105.786C190.115 106.086 190.115 106.086 189.815 105.886C188.515 105.186 187.915 103.886 187.415 102.586C185.515 98.3863 184.515 94.0863 184.715 89.4863C184.715 88.8863 184.815 88.2863 185.015 87.7863C185.315 86.8863 185.815 86.8863 186.415 87.5863C187.715 89.2863 188.715 91.0863 189.315 93.0863C190.215 96.1863 190.715 99.1863 190.715 102.586Z" fill="#9F3744"/>
<path d="M72.5149 4.28652C70.5149 4.28652 68.5149 4.38652 66.5149 3.78652C66.4149 3.78652 66.2149 3.68652 66.0149 3.68652C65.7149 3.58652 65.3149 3.48652 65.2149 3.18652C65.1149 2.88652 65.6149 2.78652 65.8149 2.68652C67.2149 1.68652 68.9149 1.48652 70.5149 1.28652C74.2149 0.786524 77.9149 0.886523 81.6149 1.18652C82.2149 1.28652 82.8148 1.48652 83.3148 1.88652C83.5148 1.98652 83.7149 2.08652 83.7149 2.28652C83.7149 2.58652 83.4149 2.68652 83.2149 2.78652C81.7149 3.38652 80.2149 3.78652 78.6149 4.08652C76.7149 4.18652 74.6149 4.28652 72.5149 4.28652Z" fill="#9F3744"/>
<path d="M40.8149 112.287C40.6149 112.387 40.3149 112.187 40.1149 112.487C40.0149 112.387 39.9149 112.387 39.9149 112.287C39.8149 112.187 40.0149 112.187 40.1149 112.187C40.4149 112.187 40.6149 112.187 40.8149 112.287Z" fill="#B2B2B2"/>
<path d="M41.3149 159.087C40.4149 159.087 39.7149 158.787 38.9149 158.487C34.7149 156.487 31.0149 153.787 28.2149 150.087C27.6149 149.387 27.2149 148.487 26.9149 147.687C26.6149 146.787 26.9149 146.387 27.8149 146.487C28.8149 146.587 29.7149 146.687 30.6149 147.087C35.0149 148.987 38.7149 151.787 41.6149 155.587C42.0149 156.087 42.3149 156.587 42.6149 157.187C43.2149 158.487 42.9149 159.087 41.3149 159.087Z" fill="#9F3744"/>
<path d="M95.3149 78.7864C94.9149 78.9864 94.4149 79.0864 94.0149 79.2864C96.7149 75.3864 98.2149 74.1864 103.215 75.0864C104.515 75.2864 105.815 75.7864 106.915 76.3864C111.915 79.0864 116.115 82.6864 118.515 87.9864C119.215 89.6864 119.615 91.3864 119.115 93.0864C119.015 93.5864 118.815 93.9864 118.515 94.2864C117.715 95.1864 117.015 95.9864 116.515 97.0864C116.415 97.3864 116.215 97.8864 115.815 97.6864C115.415 97.4864 115.415 96.9864 115.615 96.5864C115.615 96.4864 115.615 96.3864 115.715 96.2864C114.315 96.0864 112.915 96.1864 111.515 95.8864C107.715 94.9864 104.515 92.9864 101.615 90.2864C99.4149 88.1864 97.3149 85.8864 96.2149 82.9864C95.7149 81.6864 95.4149 80.2864 95.3149 78.7864Z" fill="#040406"/>
<path d="M67.3148 80.1864C66.8148 79.5864 66.8149 78.7864 66.2149 78.2864C65.9149 79.2864 65.7148 80.2864 65.4148 81.1864C63.7148 86.5864 60.1148 90.3864 55.1148 93.0864C53.9148 93.7864 52.5148 93.8864 51.1148 94.0864C50.6148 94.0864 50.6148 94.2864 50.8148 94.5864C51.0148 94.9864 51.5148 95.1864 51.4148 95.6864C51.4148 95.7864 51.4148 95.9864 51.3148 95.9864C51.2148 96.0864 51.0149 95.9864 51.0149 95.8864C49.8149 94.3864 48.3148 92.9864 47.3148 91.2864C46.6148 90.0864 46.8148 88.7864 47.1148 87.4864C48.7148 80.7864 52.9148 76.0864 59.1148 73.2864C60.4148 72.6864 61.8149 72.7864 63.2149 73.2864C64.0149 73.5864 64.6149 74.0864 65.0149 74.7864C65.7149 75.9864 66.4149 77.1864 67.0149 78.4864C67.4149 78.9864 67.4148 79.4864 67.3148 80.1864Z" fill="#040506"/>
<path d="M73.5149 112.786C73.5149 113.086 73.5149 113.186 73.5149 113.286C73.5149 113.486 73.7149 113.886 73.4149 113.986C73.1149 114.086 72.9149 113.686 72.9149 113.486C72.6149 112.186 71.9149 111.186 71.4149 109.986C70.6149 108.286 71.0149 106.486 71.4149 104.786C72.9149 98.6863 76.9149 94.8863 82.6149 92.8863C84.3149 92.2863 86.0149 92.4863 87.5149 93.4863C88.6149 94.1863 89.7149 95.0863 90.9149 95.9863C89.8149 96.0863 90.0149 96.6863 90.1149 97.3863C90.5149 99.0863 90.3149 100.686 89.8149 102.286C88.2149 106.986 85.4149 110.486 80.9149 112.686C78.6149 113.786 76.2149 114.086 73.9149 112.986C73.9149 112.886 73.8149 112.886 73.5149 112.786Z" fill="#040506"/>
<path d="M108.615 109.186C114.015 109.386 119.515 113.786 120.915 119.386C121.415 121.286 121.115 123.086 119.815 124.686C119.215 125.386 118.715 125.986 118.515 126.986C118.415 127.386 117.515 127.486 117.315 127.086C117.015 126.486 116.515 126.686 116.015 126.586C110.315 126.386 106.015 123.886 103.315 118.686C102.515 117.086 102.015 115.386 102.315 113.586C102.315 113.486 102.315 113.386 102.315 113.286C101.815 112.386 102.415 111.786 103.015 111.186C104.415 109.786 106.115 109.086 108.615 109.186Z" fill="#040506"/>
<path d="M96.8149 130.287C95.9149 131.687 95.2149 133.087 94.3149 134.187C92.2149 136.787 89.4149 137.487 86.3149 137.287C83.4149 137.087 80.8149 135.887 78.7149 133.887C76.1149 131.387 75.7149 128.487 77.4149 125.387C78.4149 123.587 79.6149 122.187 81.4149 121.387C81.9149 121.187 82.5149 120.887 83.0149 120.487C84.4149 119.487 85.9149 119.487 87.5149 119.987C91.5149 121.287 94.6149 123.587 95.8149 127.887C96.0149 128.487 96.0149 129.087 96.1149 129.687C96.1149 130.187 96.2149 130.487 96.8149 130.287Z" fill="#040506"/>
<path d="M100.815 75.8867C102.815 75.8867 104.615 76.6867 106.415 77.4867C110.915 79.5867 114.315 82.7867 116.915 86.9867C117.615 88.1867 118.115 89.4867 118.315 90.8867C118.715 93.3867 117.415 94.8867 114.815 95.0867C113.215 95.1867 111.715 94.8867 110.315 94.1867C107.015 92.5867 103.915 90.5867 101.315 87.8867C99.3149 85.8867 97.7149 83.5867 96.8149 80.8867C96.6149 80.2867 96.5149 79.6867 96.5149 79.0867C96.5149 77.3867 97.7149 76.2867 99.4149 76.0867C99.9149 75.8867 100.315 75.8867 100.815 75.8867Z" fill="#9F3744"/>
<path d="M48.2149 89.0866C48.2149 87.9866 48.4149 86.8867 48.8149 85.8867C50.6149 81.4867 53.4149 77.8867 57.5149 75.4867C58.7149 74.7867 59.9149 74.3867 61.3149 74.3867C63.4149 74.2867 64.7149 75.4866 64.8149 77.5866C64.9149 78.9866 64.5149 80.3867 64.0149 81.6867C62.3149 86.1867 59.3149 89.4867 55.2149 91.8867C54.0149 92.5867 52.8149 92.8867 51.4149 92.9867C49.7149 93.1867 48.3149 91.8867 48.1149 90.1867C48.3149 89.7867 48.3149 89.3866 48.2149 89.0866Z" fill="#9F3744"/>
<path d="M89.6149 99.9866C89.0149 103.887 87.0149 107.687 83.2149 110.387C81.6149 111.487 79.9149 112.487 77.9149 112.787C75.9149 113.087 74.1149 112.187 73.1149 110.387C72.1149 108.487 72.1149 106.487 72.7149 104.487C74.1149 100.087 76.8149 96.8866 80.9149 94.6866C82.4149 93.8866 84.0149 93.5866 85.6149 93.8866C88.1149 94.1866 89.7149 96.4866 89.6149 99.9866Z" fill="#9F3744"/>
<path d="M103.215 114.887C103.015 112.587 104.515 110.587 106.815 110.187C108.315 109.887 109.715 110.087 111.215 110.587C115.115 112.187 118.115 114.687 119.615 118.787C119.815 119.287 119.915 119.787 120.015 120.287C120.415 123.187 118.815 125.087 115.915 125.487C114.015 125.787 112.215 125.387 110.615 124.487C107.115 122.587 104.415 120.087 103.415 116.087C103.315 115.687 103.315 115.287 103.215 114.887Z" fill="#9F3744"/>
<path d="M87.3149 136.386C84.4149 136.286 81.8149 135.286 79.5149 133.386C77.1149 131.386 76.7149 128.786 78.2149 125.986C79.7149 123.286 81.9149 121.586 84.8149 120.786C85.5149 120.586 86.1149 120.686 86.8149 120.786C90.2149 121.686 92.9149 123.386 94.4149 126.686C96.1149 130.486 94.6149 134.086 90.7149 135.686C89.7149 136.186 88.5149 136.386 87.3149 136.386Z" fill="#9F3744"/>
</svg>
