<svg width="315" height="292" viewBox="0 0 315 292" fill="none" xmlns="http://www.w3.org/2000/svg">
<path fill-rule="evenodd" clip-rule="evenodd" d="M131.5 41L131.998 42.3833C126.345 46.4813 123.222 47.6725 117.748 49.7597C115.966 50.4395 113.934 51.2142 111.485 52.2154L110.5 50L109 45.5L107 42L105 40H102L98 42L92.5 47L88.5 52.5L86.5 57V58.8893C82.2775 59.2774 78.0412 59.4335 73.8156 59.5892C59.3235 60.1232 44.9571 60.6525 31.7051 70.521C8.20511 88.021 -9.65557 173.163 22.2051 224.521C57.7507 281.82 141.205 309.521 186.205 278.521C203.903 266.329 216.341 247.333 224.555 226.883C228.084 231.541 233.639 239.194 234 241C234.4 243 241.167 256.833 244.5 263.5L245.5 265.5L249 264.5L256 259.5L261 253.5L264 246.5L262.5 243.5L261 241L250 235.5L235 224L228.995 217.533C235.266 211.323 244.384 201.309 249 193C248.398 187.129 248.82 180.848 249.504 174.678L257.5 177.5L263 180.5L268.5 184L273.5 189L278 192.5L280.5 194H283L285.5 192.5L287.5 190L289 188.5L290 187L286.5 185.5L280.5 170.5L267.5 168L254 165L250.806 164.201C251.672 157.278 252.293 150.926 251.419 146H263H282L294.5 149.5L302 152L307.5 155L310.161 155.887C310.372 156.122 310.5 156.188 310.5 156L310.161 155.887C309.47 155.118 307.893 152.531 307 151L304.5 145L303.5 138.5L303 132V128.5L303.5 127.5L300 128.5L295.5 130L289.5 130.5L283.5 131.5H276.5L260 110.5L257.5 111L253.5 114.5L250.29 117.309C252.544 109.876 255.808 101.232 259.31 91.9535L259.311 91.9523L259.312 91.9497L259.313 91.9475C259.829 90.58 260.35 89.1988 260.874 87.8057L264.5 87H269L273.5 86L270 74.5L266.879 71.3786C267.674 69.1021 268.452 66.8139 269.205 64.521C280.128 31.2553 196.388 -11.3783 156.05 22.2989L156.5 20L158.5 4.5L157.5 3L153 2H148H141.5L137 3L133.5 4L131 5L130.5 6.5V10.6783V15.7691L131.5 19.5L133 22.5H129.5L126.5 23.5L124 25.5L122.5 27.5V30L124.5 32L128 34L129.5 36L131.5 41ZM245.5 200.5L250 203L256 207L262.5 211.5L268 216.5L273.5 223L279.5 228.5L281.5 230H284L289.5 219.5L289 217L285.5 215.5L281.5 214L276.5 212.5L270.5 209.5L264 205L258 200.5L254 197.5L250 194L245.5 200.5Z" fill="#98D0C8"/>
<path d="M245.322 95.4775L236.141 102.057L230.939 109.249L236.141 123.938L244.557 120.878L255.574 112.768L251.442 104.505L245.322 95.4775Z" fill="white"/>
<path d="M237.671 134.648C237.671 134.648 236.6 146.124 236.906 149.95C237.365 155.152 238.13 159.743 238.13 159.743L250.677 163.109L260.164 165.251L262 154.081L262.459 143.676L261.694 137.25L249.606 135.26L237.671 134.648Z" fill="white"/>
<path d="M252.513 164.333C252.513 164.333 268.427 170.148 272.711 173.667C274.241 174.891 277.607 180.094 277.607 180.094L284.799 166.323H267.203L252.513 164.333Z" fill="white"/>
<path d="M240.272 173.208L238.589 208.248L250.983 191.417L256.645 177.645L248.688 173.82L240.272 173.208Z" fill="white"/>
<path d="M282.657 216.205C279.597 215.134 278.679 215.134 278.526 215.287C278.22 215.746 279.444 216.817 280.209 217.429C280.362 217.735 282.351 219.724 284.187 219.112C284.799 218.806 285.564 218.194 285.411 217.582C285.258 217.123 284.646 216.97 282.657 216.205Z" fill="white"/>
<path d="M200.183 61.9678L197.888 71.3016L197.276 81.7064C197.276 81.7064 201.713 89.3571 204.008 91.0402C209.211 94.7126 215.637 94.4065 219.31 96.2427C220.993 97.1607 225.736 100.68 225.736 100.68L237.365 91.4993L239.966 88.286L230.326 78.9522C230.326 78.9522 219.004 70.0775 213.342 67.1702C210.282 65.6401 200.795 62.1208 200.795 62.1208" fill="white"/>
<path d="M275.312 129.599C275.006 123.631 273.17 118.582 269.651 114.145C268.427 112.614 267.203 111.39 265.366 110.472C262.459 108.942 259.858 110.013 258.787 113.073C258.328 114.298 258.175 115.675 258.022 117.052C257.716 119.5 258.328 121.795 259.246 124.09C260.164 126.539 260.776 129.14 262.153 131.282C263.683 133.577 265.519 135.719 268.121 136.944C270.722 138.168 272.864 137.403 274.088 134.954C275.159 133.271 275.312 131.282 275.312 129.599Z" fill="white"/>
<path d="M173.406 57.9899C173.406 57.9899 175.854 61.3562 176.16 62.1212C177.384 66.0996 177.537 66.7116 177.537 66.7116L189.013 72.5261C189.013 72.5261 189.472 69.9249 189.625 68.7008C189.778 66.5586 189.778 59.367 189.778 59.367C189.778 59.367 184.27 58.4489 181.668 57.9899C178.455 57.8369 173.406 57.9899 173.406 57.9899Z" fill="white"/>
<path d="M163.919 78.3402C163.919 78.3402 165.296 90.1222 167.438 93.0295C168.203 94.2536 171.876 94.7126 171.876 94.7126C171.876 94.7126 170.498 89.9692 170.039 88.1331C169.733 86.756 169.427 82.9306 169.427 81.7065C169.427 80.3294 170.651 76.3511 170.651 76.3511L163.919 78.3402Z" fill="white"/>
<path d="M106.692 46.207L104.856 50.0324C104.856 50.0324 107.61 56.7649 108.987 56.3059C110.517 55.6938 106.692 46.207 106.692 46.207Z" fill="white"/>
<path d="M149.383 59.5191C152.749 58.601 150.148 59.5191 153.514 58.601C153.361 58.295 153.361 57.9889 153.361 57.6829C152.29 53.2455 151.525 48.6551 151.066 44.2178C150.301 36.4141 151.831 28.9165 154.432 21.5719C155.503 18.6646 156.574 15.6044 157.492 12.6971C158.104 10.5549 158.104 8.25973 158.41 5.81152C153.82 7.80069 149.23 8.10672 144.486 8.41274C139.59 8.56576 149.077 57.8359 149.383 59.5191Z" fill="white"/>
<path d="M163.919 76.9632C165.296 76.9632 166.826 76.6572 168.509 75.7391C171.876 74.362 174.171 72.0668 175.395 68.5475C176.619 65.1812 175.395 61.6619 172.641 59.2137C170.651 57.5306 168.815 57.0715 166.214 56.4595C162.695 56.6125 161.165 76.8102 163.919 76.9632Z" fill="white"/>
<path d="M291.991 175.809C291.991 173.667 291.532 171.219 290.92 169.842C289.695 167.393 287.859 166.781 285.564 168.159C284.646 168.771 283.728 169.383 282.963 170.301C281.433 172.137 278.679 175.809 278.219 181.012C279.444 183.001 283.575 186.367 284.34 187.285C286.635 190.498 285.717 191.57 286.635 190.498C290.308 186.214 291.685 181.165 291.991 175.809Z" fill="white"/>
<path d="M312.188 155C312.647 153.929 313.106 153.317 313.106 152.552C313.259 150.409 313.259 148.267 313.106 146.125C312.647 141.229 311.729 136.638 309.587 132.201C308.822 130.671 307.904 129.141 306.833 127.763C305.915 126.539 304.997 126.845 304.538 128.222C304.232 129.141 304.079 130.212 304.079 131.283C303.926 137.556 305.456 143.677 307.904 149.491C308.516 150.868 309.434 152.246 310.199 153.47C310.658 154.082 311.423 154.388 312.188 155Z" fill="white"/>
<path d="M218.851 44.678C220.84 44.525 221.299 43.913 220.687 42.0768C220.534 41.4648 220.228 40.8527 219.922 40.3937C218.85 39.0165 217.932 37.4864 216.861 36.2623C212.883 31.9779 208.14 28.7647 202.784 26.3165C202.019 26.0104 201.101 25.8574 200.183 25.8574C198.806 25.8574 198.194 26.6225 198.653 27.9996C198.959 28.9177 199.418 29.8358 199.877 30.6008C203.855 36.2623 209.058 40.5467 215.331 43.4539C216.555 43.913 217.779 44.219 218.851 44.678Z" fill="white"/>
<path d="M275.465 82.0125C275.312 81.5534 275.312 80.7883 275.159 80.1763C274.394 76.504 272.558 73.2907 270.569 70.0774C268.427 66.7112 265.519 63.9569 262.306 61.5087C261.541 60.8967 260.47 60.7437 259.552 60.7437C258.787 60.7437 258.328 61.2027 258.022 62.1208C257.716 63.8039 257.869 65.334 258.328 66.8642C260.011 72.2196 262.918 76.657 266.897 80.6353C268.427 82.1655 270.11 83.6956 272.099 84.4607C274.241 85.3787 275.465 84.6137 275.465 82.0125Z" fill="white"/>
<path d="M179.832 110.472C179.526 110.472 183.657 118.735 190.696 124.396C197.888 130.211 203.243 139.086 204.314 138.933C207.528 138.474 209.058 136.637 208.752 133.424C208.599 131.282 207.834 129.446 206.915 127.61C203.09 121.183 197.735 116.44 191.002 113.226C188.554 112.002 184.576 110.625 179.832 110.472Z" fill="white"/>
<path d="M160.706 138.78C159.94 139.086 159.787 140.463 160.094 141.993C160.706 144.747 161.624 145.818 161.318 147.348C160.859 149.185 159.634 150.715 159.94 151.48C160.247 152.092 161.471 152.398 162.389 151.939C164.684 151.021 165.755 146.43 164.378 142.911C163.613 140.463 161.624 138.321 160.706 138.78Z" fill="white"/>
<path d="M123.982 110.779C122.452 110.932 120.922 113.992 121.534 116.44C121.687 116.746 122.299 118.889 124.135 119.348C126.278 119.96 128.726 117.97 128.879 116.134C128.879 115.216 127.961 114.298 126.125 112.462C125.207 111.238 124.595 110.779 123.982 110.779Z" fill="white"/>
<path d="M151.678 182.542C149.842 184.072 149.842 187.744 150.301 189.58C151.372 194.63 157.492 197.69 158.716 196.925C161.93 194.783 158.41 192.64 156.727 191.416C155.656 190.651 153.667 189.121 153.361 187.744C152.902 185.755 154.432 183.307 153.973 182.848C153.514 182.389 152.443 181.93 151.678 182.542Z" fill="white"/>
<path d="M194.674 162.804C194.368 162.957 194.062 163.416 193.909 163.875C193.603 165.252 196.052 166.629 197.735 168.006C203.09 172.137 205.079 178.717 207.375 178.564C208.599 178.411 209.364 176.116 209.058 174.892C207.834 170.454 202.478 163.11 196.817 162.498C195.899 162.498 195.133 162.804 194.674 162.804Z" fill="white"/>
<path d="M127.961 22.9494L134.54 36.4145L140.661 62.4267L142.191 62.8858L138.213 38.5567L133.316 26.0097C133.316 26.0097 133.01 22.7964 131.633 22.7964C129.644 22.7964 127.961 22.9494 127.961 22.9494Z" fill="black"/>
<path d="M168.203 140.615C168.968 141.533 169.427 143.829 169.427 145.053C169.274 153.927 165.143 160.354 165.143 160.354C163.613 162.802 157.492 171.983 147.852 172.289C145.71 172.289 143.109 172.595 141.12 171.065C135.611 166.627 140.202 153.315 140.508 153.315C140.661 153.315 139.284 156.682 140.967 160.966C141.579 162.496 143.109 164.332 146.016 165.25C149.077 166.168 151.984 165.556 155.35 163.108C159.022 160.354 161.165 157.447 162.236 155.764C164.684 152.244 166.214 149.949 166.367 146.736C166.52 142.604 165.143 138.932 165.143 138.932C165.143 138.932 167.591 140.003 168.203 140.615Z" fill="black"/>
<path d="M185.494 163.262C185.494 163.262 183.199 164.792 182.281 166.475C179.832 171.831 184.117 180.094 190.39 184.531C195.44 188.05 203.549 190.192 207.222 187.132C208.905 185.755 209.058 182.236 209.058 182.236C209.058 182.236 206.457 183.154 203.549 183.613C198.5 184.378 194.063 181.318 192.685 180.247C191.614 179.482 186.565 175.809 185.647 169.995C185.035 166.475 185.494 163.262 185.494 163.262Z" fill="black"/>
<path d="M175.242 113.074C175.242 113.074 173.252 114.604 173.099 114.757C170.192 119.348 174.477 129.6 180.903 136.485C188.86 144.748 199.265 146.89 203.702 145.36C204.467 145.054 206.456 144.442 207.221 142.606C207.833 141.076 206.456 138.627 206.456 138.627C206.456 138.627 205.538 138.933 205.232 139.239C202.937 141.841 193.297 139.545 185.952 133.272C183.045 130.824 176.619 126.08 176.16 119.042C176.007 116.747 175.242 113.074 175.242 113.074Z" fill="black"/>
<path d="M183.046 215.133C183.046 215.133 183.658 222.63 184.729 225.079L190.237 235.483C190.237 235.483 199.418 232.882 202.019 231.964C212.271 228.598 219.769 222.63 219.769 222.63L224.665 227.068L232.775 222.018L228.796 216.357C237.365 211.613 237.671 207.482 238.436 208.094C237.977 206.717 226.654 212.838 201.407 214.521C190.237 215.439 183.046 215.133 183.046 215.133Z" fill="black"/>
<path d="M177.996 215.134L178.149 224.315L176.772 232.118L173.406 237.321L162.848 236.25L153.208 234.566L152.443 238.392L152.749 246.042C152.749 246.042 148.465 241.146 146.476 239.922C144.639 238.851 137.754 237.321 137.754 237.321L140.814 230.588C140.814 230.588 130.409 226.61 125.972 223.856C122.453 221.56 112.048 214.522 112.048 214.522L107.763 210.39L104.397 215.287C104.397 215.287 100.572 214.522 97.9705 208.554C97.2055 206.871 91.544 204.576 91.544 204.576L99.0416 200.139L94.7573 193.712L91.391 188.969L97.2055 186.979L101.949 180.094L106.998 173.82L120.769 170.913C120.769 170.913 134.235 184.072 137.907 188.969C146.629 200.598 146.629 203.658 150.301 206.565C155.962 211.768 177.996 215.134 177.996 215.134Z" fill="black"/>
<path d="M99.1946 94.0996C99.1946 94.0996 93.9922 101.597 92.4621 104.198C88.6367 110.625 86.6476 119.806 86.6476 119.806L82.0572 117.205C82.0572 117.205 83.2813 124.702 83.2813 126.691C83.2813 128.987 81.5981 134.495 81.5981 134.495L82.2102 135.719L81.9042 148.419L82.2102 157.906L74.4065 160.048L60.0233 159.895C60.0233 159.895 63.6956 166.628 64.7667 168.617C65.6848 170.453 67.827 175.349 67.827 175.349L75.9367 172.442L77.1608 167.24L82.6692 161.731L91.85 162.955L106.233 164.027C106.233 164.027 95.9814 146.43 95.6753 137.861C95.5223 134.495 99.6537 128.374 99.9597 124.855C100.878 117.511 99.1946 94.0996 99.1946 94.0996Z" fill="black"/>
<path d="M107.151 122.254C106.233 121.948 101.184 128.834 100.725 137.556C100.572 140.616 100.572 142.911 101.949 144.288C105.621 147.807 116.332 142.605 122.758 137.556C123.677 136.79 136.836 125.927 134.387 116.287C133.775 113.686 131.021 111.237 131.021 111.237C131.021 111.237 131.021 114.451 130.256 117.97C129.491 121.336 127.655 124.549 122.758 129.905C115.567 137.709 112.354 136.943 110.823 136.943C110.364 136.943 108.987 137.096 107.457 135.413C103.632 131.282 108.069 122.713 107.151 122.254Z" fill="black"/>
<path d="M148.618 192.028C148.618 192.028 149.383 197.231 153.514 200.291C155.044 201.515 162.695 207.33 170.193 203.657C174.324 201.668 177.384 197.231 177.69 192.793C178.149 184.99 170.346 179.175 170.346 179.328C170.346 179.328 175.548 183.46 175.242 188.968C175.089 192.946 172.335 197.231 169.121 199.067C164.837 201.362 159.635 199.985 158.104 199.679C151.372 197.996 148.618 192.028 148.618 192.028Z" fill="black"/>
<path d="M98.2763 199.832C95.9811 196.16 92.7678 193.253 91.3907 189.274C82.2099 187.744 77.3135 182.083 75.3243 173.361C71.652 174.585 68.2857 176.421 65.0725 178.41C60.176 181.471 55.1266 184.072 49.6182 185.755C49.1591 185.908 48.5471 186.061 47.935 186.214C46.0989 186.673 44.5687 186.214 43.1916 184.99C41.2024 183.154 40.1314 180.859 39.0603 178.41C36.9181 173.361 36 168.006 36 162.65C36 160.967 36.153 159.284 37.0711 157.754C37.9892 156.224 38.9072 155.765 40.5904 156.071C41.9675 156.224 43.4976 156.224 44.8748 156.377C49.9242 157.142 55.1266 158.06 60.176 158.978C66.9086 160.049 73.6412 160.202 80.2207 158.519C80.8328 158.366 81.4448 158.213 82.2099 157.907C81.2918 150.562 81.2918 143.217 82.3629 135.72C80.0677 135.414 77.9256 135.414 75.7834 135.873C73.3352 136.332 71.04 136.791 68.5918 137.403C66.9086 137.709 65.6845 137.097 64.7664 135.873C64.0014 134.955 63.5423 133.731 63.0833 132.507C62.0122 128.987 62.0122 125.315 62.4712 121.643C62.7773 118.123 63.8484 114.91 65.2255 111.697C65.9905 110.014 66.9086 108.637 68.4387 107.565C69.8159 106.494 71.652 106.494 72.7231 107.565C74.5593 109.096 76.5484 110.626 78.3846 112.156C80.5268 113.992 82.5159 116.134 84.6581 117.97C84.9642 118.276 85.4232 118.582 86.0352 119.041C90.7786 103.74 99.1944 91.04 110.823 80.3291C110.517 79.8701 110.364 79.5641 110.211 79.411C105.009 74.3616 99.8064 69.3122 93.6859 65.4869C91.6967 64.2628 89.7076 63.1917 87.7184 61.9676C84.9642 60.2844 84.5051 58.9073 85.5762 55.8471C86.6473 52.3278 88.7895 49.4205 91.2377 46.8193C92.9208 44.9831 94.757 43.147 96.7461 41.6169C98.4293 40.2397 100.418 39.1687 102.561 39.0156C103.938 38.8626 105.009 39.3217 105.927 40.3927C109.446 44.6771 110.823 49.7265 111.741 54.929C112.813 61.0495 114.955 66.558 118.321 71.7604C118.627 72.3725 119.086 72.8315 119.545 73.4436C125.054 69.6182 130.868 66.405 136.989 63.8037C136.53 61.6616 136.07 59.5194 135.458 57.5302C134.081 52.6338 133.316 47.4313 131.327 42.6879C130.409 40.6988 129.491 38.5566 128.573 36.5674C127.808 34.8843 126.584 33.6602 124.901 32.7421C124.135 32.2831 123.217 31.824 122.452 31.365C121.075 30.2939 120.616 28.9168 120.922 27.2336C121.381 25.3975 122.605 24.1734 124.135 23.2553C125.819 22.3372 127.655 21.8782 129.491 21.7252C129.95 21.7252 130.256 21.5722 130.715 21.5722C130.256 18.9709 129.644 16.3697 129.491 13.7685C129.338 11.3203 129.338 8.71907 129.338 6.11785C129.338 4.58772 130.103 3.51663 131.633 3.05759C134.081 2.44554 136.53 1.68047 139.131 1.22143C143.568 0.60938 148.005 0.609382 152.443 1.06842C154.126 1.22143 155.962 1.52746 157.645 1.83349C159.022 2.13951 159.481 3.05759 159.328 4.43471C159.175 5.35278 159.175 6.27086 159.328 7.18894C159.481 11.3203 158.41 15.1456 156.88 18.9709C153.514 26.9276 151.831 35.1903 152.596 43.912C152.902 47.8904 153.82 51.7157 154.432 55.694C154.585 56.1531 154.738 56.7651 154.891 57.0712C157.186 56.4591 159.328 55.694 161.471 55.235C164.378 54.623 167.285 55.082 170.039 56.1531C170.804 56.4591 171.569 56.7651 172.335 56.7651C177.996 56.7651 183.658 57.2242 189.319 58.2953C189.472 58.2953 189.625 58.2953 189.625 58.2953C189.625 56.6121 189.472 54.929 189.625 53.0928C190.084 48.6554 190.543 44.0651 191.155 39.6277C191.155 39.1686 191.461 38.7096 191.614 38.2506C193.45 34.1192 195.133 29.9879 197.735 26.1625C198.347 25.0915 199.265 24.6324 200.336 24.7854C202.019 25.0915 203.855 25.2445 205.385 26.0095C211.659 28.9168 216.861 33.2011 220.687 39.0156C221.452 40.0867 221.758 41.3108 222.217 42.5349C222.676 43.606 222.064 44.5241 221.452 45.2892C219.004 48.1964 215.79 49.8796 212.271 51.2567C207.528 53.2458 204.008 56.7651 201.407 61.3555C202.019 61.6616 202.478 61.9676 202.937 62.1206C208.14 63.9567 213.036 66.405 217.932 69.0062C219.769 70.0773 221.605 71.4544 223.288 72.6785C226.042 74.6677 228.796 76.8098 231.704 78.646C234.458 80.4821 236.447 82.9303 238.742 85.3786C239.354 86.1436 240.119 86.7557 240.884 87.6738C242.874 84.9195 244.863 82.4713 246.699 79.8701C249.606 75.4327 252.513 70.8423 255.268 66.4049C256.033 65.3339 256.492 64.1098 256.492 62.7326C256.645 60.1314 258.634 59.0603 261.235 59.9784C264.295 61.0495 266.744 63.0387 268.733 65.6399C272.099 69.7712 275.006 74.2086 276.383 79.411C276.689 80.7882 276.689 82.3183 276.689 83.8484C276.689 85.2255 275.771 85.9906 274.547 86.2966C272.252 86.9087 269.957 87.5207 267.509 87.3677C262.612 87.0617 258.175 88.4388 253.89 90.734C251.901 91.8051 249.912 93.0292 247.923 94.1003C247.464 94.4063 247.158 94.7124 246.852 94.8654C250.065 100.527 253.125 106.035 256.339 111.697C257.563 109.708 259.858 109.555 261.847 108.79C263.683 108.177 265.672 108.79 267.356 109.861C271.028 112.309 273.17 115.828 274.853 119.653C276.383 123.02 276.995 126.692 277.301 130.517C279.597 130.517 281.892 130.67 284.034 130.517C288.012 130.211 291.991 129.905 295.969 129.14C299.029 128.528 301.937 127.457 304.844 126.539C305.762 126.233 306.527 126.233 307.139 126.845C308.057 127.763 308.975 128.834 309.74 130.058C310.658 131.741 311.423 133.578 312.188 135.567C313.566 139.851 314.79 144.136 314.943 148.573C315.096 150.562 314.943 152.551 314.484 154.387C314.025 156.377 312.953 156.989 310.964 156.377C308.975 155.765 306.833 155.152 305.15 154.081C299.335 150.409 292.756 149.032 286.176 147.655C278.832 146.125 271.487 146.125 264.142 146.125C263.989 146.125 263.836 146.125 263.53 146.278C263.377 149.491 263.224 152.551 262.918 155.765C262.612 158.825 262.153 161.885 261.694 165.098C263.53 165.71 265.672 165.71 267.662 166.016C272.864 166.628 278.067 165.71 283.116 165.71C285.258 165.71 287.4 166.322 289.542 166.934C290.767 167.24 291.685 168.159 291.991 169.23C292.603 170.607 293.215 172.137 293.368 173.667C293.827 179.329 292.603 184.684 289.542 189.427C288.318 191.417 286.788 192.947 284.799 194.171C283.269 195.089 281.586 194.936 280.056 194.018C276.536 192.182 273.629 189.274 270.722 186.673C266.897 183.307 262.765 180.4 258.175 178.41C255.727 183.613 253.278 188.662 250.83 193.559C254.656 196.619 258.481 199.832 262.459 202.893C264.754 204.729 267.203 206.259 269.651 207.942C273.782 210.696 278.526 212.226 283.269 213.45C285.564 214.062 287.859 214.828 289.542 216.664C291.073 218.194 291.226 219.265 290.308 221.101C288.93 223.549 287.706 225.844 286.176 228.14C285.717 228.905 285.105 229.517 284.34 229.976C282.657 231.047 281.586 230.894 280.209 229.67C278.526 228.14 276.842 226.457 275.312 224.773C269.804 218.959 264.295 212.991 257.716 208.401C254.196 205.953 250.83 203.199 246.852 201.362C246.546 201.209 246.24 201.056 245.781 200.903C241.19 207.024 235.988 212.685 229.714 217.582C231.857 219.571 233.846 221.407 235.835 223.243C242.108 228.905 248.841 233.648 256.033 237.932C258.787 239.463 261.541 241.146 263.989 243.135C265.06 244.053 265.366 245.277 265.06 246.654C264.601 249.408 263.377 251.704 261.847 253.999C259.552 257.518 256.798 260.425 253.431 262.874C252.36 263.639 251.289 264.404 250.218 265.016C249.3 265.475 248.229 265.781 247.158 265.934C245.781 266.087 244.863 265.322 244.251 264.098C243.945 263.333 243.486 262.568 243.18 261.802C242.261 259.813 241.037 257.824 240.272 255.835C235.835 244.818 230.173 234.719 222.37 225.691C221.911 225.079 221.452 224.62 221.146 224.161C216.096 226.61 211.506 229.211 206.609 231.2C201.713 233.189 196.511 234.566 191.767 236.096C192.532 238.851 193.297 241.605 193.909 244.512C194.215 246.501 194.062 248.49 194.215 250.48C194.215 251.092 194.062 251.551 194.215 252.163C194.368 253.846 193.756 255.07 192.226 255.529C190.543 256.141 188.86 256.753 187.177 256.906C182.127 257.365 177.231 256.753 172.488 254.611C170.957 253.999 169.58 253.081 168.509 251.857C167.744 251.092 167.438 250.174 167.591 249.102C168.203 246.348 168.968 243.747 170.651 241.452C171.416 240.381 172.182 239.31 173.1 238.085C166.673 237.473 160.4 236.708 154.126 236.096C153.514 238.392 153.667 240.687 153.82 242.982C153.973 245.277 154.279 247.725 154.279 250.021C154.279 251.398 154.279 252.775 153.973 254.152C153.667 255.988 152.29 256.906 150.76 257.365C148.465 258.13 146.169 258.283 143.721 257.977C140.202 257.671 136.989 256.6 133.928 254.917C132.398 254.152 131.174 252.928 130.409 251.398C129.95 250.327 130.103 249.255 130.562 248.184C132.245 244.206 134.846 240.993 137.448 237.626C138.672 235.943 139.743 234.107 141.12 232.118C129.185 227.069 118.168 220.795 108.987 211.614C107.61 213.297 106.386 215.134 105.468 217.123C104.397 219.571 103.632 222.172 102.561 224.773C101.643 227.222 100.724 229.67 99.6534 231.965C99.1944 233.036 97.8172 233.648 96.4401 233.342C94.604 232.883 92.6148 232.424 90.9317 231.659C85.5762 228.905 80.6798 225.538 76.8545 220.795C75.9364 219.724 75.0183 218.347 74.4063 217.123C73.1822 214.368 73.7942 213.297 75.9364 211.767C77.6195 210.543 79.4557 209.625 81.2918 208.86C84.1991 207.483 87.2593 206.259 90.3196 205.188C93.0738 204.117 95.6751 202.586 98.1233 200.75C97.8172 200.291 98.1233 199.985 98.2763 199.832ZM176.007 203.658C176.16 203.658 176.313 203.658 176.466 203.505C176.619 203.964 176.925 204.27 177.078 204.729C177.384 206.106 177.69 207.483 177.996 208.86C179.067 214.828 179.526 220.642 178.608 226.61C178.149 229.823 177.231 232.883 175.548 235.484C174.018 237.626 172.488 239.769 170.957 241.911C170.192 243.135 169.274 244.359 168.968 245.889C177.537 243.594 185.341 244.665 192.991 249.714C192.838 247.725 192.685 246.042 192.379 244.359C191.614 239.769 189.778 235.637 187.483 231.812C182.739 224.008 181.821 215.44 181.974 206.718C181.974 206.412 182.28 206.106 182.586 205.341C183.351 206.412 183.505 207.33 183.505 208.248C183.658 211.002 183.658 213.756 183.811 216.664C184.27 223.243 187.33 228.905 190.39 234.566C199.418 233.342 215.943 226.15 219.616 222.784C217.932 220.642 215.484 219.112 214.413 216.511C215.331 215.899 215.79 216.358 216.249 216.817C217.932 218.653 219.463 220.489 221.146 222.172C225.277 226.304 228.796 230.741 231.704 235.637C235.835 242.523 239.66 249.561 242.261 257.212C242.72 258.283 243.333 259.354 243.945 260.731C247.464 252.316 252.819 246.042 261.082 242.217C259.705 241.452 258.481 240.687 257.257 240.075C250.83 236.861 245.016 232.577 239.354 228.14C233.693 223.702 228.949 218.347 223.135 214.062C222.676 213.756 222.523 213.297 222.217 212.838C222.37 212.685 222.523 212.532 222.523 212.379C225.124 212.991 226.654 215.287 228.796 216.511C233.387 212.838 237.671 208.707 241.343 204.117C242.568 202.586 244.098 201.362 244.71 199.526C244.71 199.22 245.628 199.067 246.087 199.22C246.393 199.22 246.852 199.679 247.158 199.832C254.809 203.964 261.541 209.166 267.815 215.134C271.334 218.5 274.394 222.019 277.76 225.538C278.679 226.61 279.903 227.375 280.974 228.14C282.351 229.058 283.269 228.905 284.187 227.528C285.717 225.385 287.094 223.09 288.318 220.642C289.389 218.5 289.083 217.276 286.941 216.205C285.258 215.287 283.575 214.675 281.739 214.215C275.159 212.532 269.192 209.625 263.836 205.647C258.94 201.974 254.196 198.149 249.453 194.324C248.994 194.018 249.3 194.018 249.147 193.865C249.606 192.947 250.065 191.723 250.371 190.958C251.748 188.356 253.125 185.755 254.349 183.154C255.268 181.318 255.88 179.329 256.798 177.339C253.584 175.962 250.677 174.891 247.617 174.279C243.945 173.514 240.272 173.208 236.6 173.82C235.682 173.973 234.611 173.973 233.693 172.902C234.611 172.749 235.376 172.596 236.141 172.596C239.507 172.443 243.027 172.137 246.393 172.443C250.524 172.749 254.196 174.432 258.022 175.962C261.082 177.186 263.836 179.022 266.591 181.012C269.804 183.46 272.711 186.214 275.771 188.815C276.23 189.274 276.842 189.733 277.454 190.192C275.771 180.706 277.913 172.749 284.952 166.169C283.422 166.169 282.198 166.016 280.821 166.169C276.842 166.475 273.017 166.781 269.039 166.628C265.06 166.475 261.235 165.863 257.41 165.098C253.89 164.486 250.371 163.721 247.005 162.956C245.322 162.65 243.639 162.344 241.955 161.885C240.119 161.426 238.436 160.814 236.6 160.202C236.294 160.049 235.835 159.896 235.529 159.743C235.835 158.978 236.447 158.978 237.059 159.131C238.436 159.437 239.813 159.59 241.19 159.896C247.158 161.12 252.972 162.497 258.94 163.874C259.399 164.027 260.011 164.027 260.776 164.027C261.235 160.202 261.847 156.683 262.153 153.01C262.459 148.267 262.612 143.523 262 138.627C261.847 136.944 261.847 136.944 260.164 136.638C253.584 135.261 247.005 134.802 240.425 134.649C237.518 134.649 234.764 135.108 231.857 135.261C231.551 135.261 231.092 135.261 230.786 135.261C230.786 135.108 230.633 134.955 230.633 134.649C230.633 134.496 230.633 134.343 230.633 134.037C234.458 132.966 238.283 132.966 242.108 133.119C246.087 133.272 249.912 133.578 253.89 134.037C257.716 134.496 261.388 135.261 265.213 136.026C262 132.66 259.705 128.681 258.481 124.244C257.257 119.959 256.645 115.522 258.175 110.932C253.584 114.604 249.3 118.582 244.098 121.031C238.895 123.479 233.387 125.315 227.572 126.539C227.419 126.08 227.266 125.621 227.113 125.162C237.671 122.867 247.464 119.041 255.268 111.544C252.666 105.576 249.606 99.9148 245.781 94.7123C237.365 99.9148 232.01 107.718 225.889 115.369C225.889 114.604 225.736 114.145 225.889 113.839C226.042 113.38 226.348 113.074 226.501 112.768C228.949 109.708 231.245 106.647 233.693 103.74C235.223 101.904 236.6 100.221 238.283 98.6907C243.18 94.4063 248.535 91.04 254.349 88.2858C258.787 86.1436 263.377 84.7665 268.427 85.3786C269.192 85.5316 269.957 85.2255 270.722 85.2255C267.356 82.9304 264.754 80.0231 262.459 76.8098C260.164 73.5966 258.328 70.0773 257.104 66.2519C256.798 66.4049 256.645 66.558 256.645 66.558C253.89 70.9953 251.289 75.2797 248.382 79.7171C244.404 85.8376 239.66 91.3461 233.693 95.6304C231.551 97.1606 229.561 98.9967 227.419 100.68C226.042 101.751 224.818 102.822 223.441 103.893C222.676 104.505 221.911 104.505 220.993 103.893C227.419 98.6907 234.152 93.9473 240.272 88.1328C238.436 86.2966 236.906 84.4605 235.07 82.9304C231.704 80.1761 228.184 77.7279 224.818 74.9737C219.922 70.8423 214.413 67.6291 208.599 65.0278C206.15 63.9567 203.702 63.0387 201.101 61.9676C200.642 62.8857 200.336 63.6507 200.03 64.4158C198.653 68.8532 197.888 73.2905 197.735 77.8809C197.735 79.411 197.735 80.9412 197.735 82.3183C197.735 82.6243 197.429 83.0834 197.276 83.3894C196.205 82.9304 196.205 82.1653 196.205 81.4002C196.052 77.8809 196.358 74.3616 196.97 70.8423C197.735 66.864 198.5 62.7326 200.948 59.2133C203.855 54.776 207.528 51.2567 212.577 49.2675C214.413 48.5024 216.096 47.5844 217.779 46.8193C218.391 46.5133 218.85 46.0542 219.31 45.5952C209.823 42.3819 202.631 36.7204 197.582 27.9987C196.97 29.3758 196.205 30.7529 195.593 32.1301C194.521 34.8843 193.144 37.7915 192.532 40.6988C191.614 45.2892 191.155 49.8796 191.308 54.623C191.461 58.4483 191.308 62.2736 191.308 66.2519C191.308 67.6291 191.308 69.1592 191.002 70.5363C190.39 73.5966 189.778 76.5038 189.166 79.411C189.013 80.3291 188.86 81.2472 188.554 82.1653C188.401 82.7773 188.401 83.6954 187.33 83.5424C186.565 83.3894 186.871 82.6243 187.024 82.0123C187.33 80.9412 187.483 80.0231 187.789 78.952C188.554 75.2797 189.778 71.4544 189.778 67.6291C189.778 65.9459 189.778 64.4158 189.778 62.7326C189.778 61.6616 189.931 60.5905 190.084 59.3664C184.576 58.4483 179.373 57.5302 173.559 57.8362C174.324 58.7543 174.783 59.3664 175.395 59.8254C177.996 62.7326 178.608 67.17 176.313 70.8423C175.701 71.7604 175.089 72.5255 174.477 73.4436C173.406 75.4327 172.182 77.2689 171.263 79.258C170.651 80.6352 170.498 82.1653 170.651 83.8484C171.11 87.3677 172.029 90.581 173.253 93.9473C173.406 94.4063 173.865 95.0184 173.1 95.3244C172.335 95.6304 172.182 94.8654 171.876 94.4063C171.723 94.1003 171.569 93.7943 171.416 93.3352C170.804 91.1931 170.039 88.8979 169.58 86.7557C168.815 83.3894 168.815 80.0231 170.498 76.8098C170.498 76.6568 170.498 76.5038 170.651 76.1978C166.367 78.34 162.083 78.646 157.186 77.4219C157.645 78.0339 157.798 78.34 157.951 78.646C159.634 81.2472 160.553 84.0014 160.553 87.0617C160.553 91.3461 160.4 95.6304 160.247 99.9148V100.068C160.094 100.374 159.787 100.986 159.634 100.986C159.022 100.986 158.869 100.527 158.869 99.9148C158.869 97.6196 159.022 95.4774 159.022 93.1822C159.022 90.428 159.328 87.5207 159.022 84.7665C158.563 80.4821 155.962 77.4219 152.749 74.6676C148.618 71.1484 147.699 65.6399 150.607 61.2025C150.76 60.8965 151.066 60.4374 151.525 59.8254C148.312 60.7435 145.404 61.5085 142.344 62.4266C141.426 57.2242 140.508 52.1747 139.743 47.1253C139.131 43.606 138.825 39.9337 137.448 36.5674C136.836 35.0373 136.223 33.5072 135.611 31.977C134.54 29.2228 133.316 26.4686 132.398 23.7143C132.092 22.7963 131.48 22.4902 130.562 22.4902C128.573 22.6432 126.584 23.1023 124.901 24.1734C124.135 24.7854 123.37 25.5505 122.911 26.3156C121.993 27.6927 122.452 28.9168 123.829 29.8349C124.441 30.2939 125.054 30.5999 125.819 30.9059C127.961 31.824 129.338 33.3542 130.256 35.4963C131.174 37.6385 132.092 39.7807 133.01 41.9229C134.999 46.8193 135.764 52.0217 137.142 56.9181C137.601 58.7543 137.907 60.7435 138.366 62.5796C138.672 63.8037 138.825 63.9567 137.754 64.2628C132.704 66.0989 128.114 68.7001 123.676 71.6074C122.605 72.3725 121.381 73.1375 120.157 73.9026C121.381 75.4327 122.452 76.9628 123.676 78.34C125.36 80.3291 127.196 82.1653 129.032 84.0014C129.338 84.4605 129.95 84.9195 129.491 85.3786C128.879 85.9906 128.42 85.3786 127.961 84.9195C127.349 84.3075 126.737 83.5424 126.125 82.9304C123.064 80.0231 120.463 76.6568 118.168 73.1375C115.414 68.7001 112.813 63.9567 111.588 58.7543C110.823 55.541 110.211 52.3278 109.446 49.1145C108.834 46.8193 108.222 44.6771 106.692 42.6879C103.479 51.1037 97.8172 57.2242 89.5545 61.0495C91.3907 62.1206 93.2268 62.8857 94.91 63.9567C101.949 68.5471 108.222 74.0556 113.731 80.3291C116.485 83.3894 118.627 86.7557 121.075 89.9689C121.381 90.428 121.687 90.887 121.687 91.3461C121.687 91.6521 121.534 91.9581 121.381 92.2641C121.075 92.1111 120.616 92.1111 120.463 91.9581C120.157 91.6521 120.004 91.193 119.698 90.887C117.403 87.2147 114.649 84.0014 111.894 80.7882C101.031 90.122 90.6256 105.27 86.8003 119.194C88.3304 119.959 89.8606 120.878 91.5437 121.643C93.2269 122.408 94.91 122.867 96.5931 123.479C97.2052 123.632 97.9703 123.785 97.8172 125.009C97.2052 124.856 96.4401 124.856 95.8281 124.703C89.5545 123.02 84.3521 119.5 79.9147 114.757C78.6906 113.38 77.1605 112.156 75.3243 110.626C77.0075 119.194 76.0894 126.998 71.652 134.496C72.2641 134.343 72.8761 134.343 73.3352 134.19C79.3027 132.66 84.9641 133.272 90.4726 135.72C90.9317 135.873 91.3907 136.026 91.6967 136.332C91.8497 136.485 92.0027 136.944 92.0027 137.097C91.8497 137.25 91.5437 137.556 91.2377 137.556C90.7786 137.556 90.3196 137.25 89.8606 137.097C87.7184 136.332 85.5762 135.567 83.128 135.261C82.0569 143.83 81.9039 152.398 83.587 160.508C85.7292 160.814 87.5654 161.12 89.4015 161.579C90.7786 161.885 92.0027 162.344 93.3799 162.497C94.604 162.65 95.8281 162.803 97.0522 162.803C102.867 163.415 108.681 163.262 114.343 161.732C115.108 161.579 115.873 161.579 116.791 161.579C115.72 162.803 115.72 162.803 114.649 163.109C108.834 164.639 102.867 164.486 97.0522 164.027C95.9811 163.874 94.91 163.874 93.5329 163.721C98.5823 167.853 101.49 172.902 101.49 179.175C101.796 178.869 102.102 178.41 102.255 178.104C104.244 174.738 106.845 172.29 110.67 171.525C113.731 170.913 116.791 170.607 119.851 170.148C120.463 170.148 121.075 170.454 121.687 170.607C121.687 170.76 121.687 170.913 121.687 171.066C121.075 171.219 120.463 171.525 119.851 171.525C117.862 171.678 115.873 171.831 113.884 172.137C109.599 172.749 106.08 174.432 103.632 178.104C102.255 180.247 101.031 182.236 99.5004 184.225C98.8883 185.143 98.1233 186.061 97.2052 186.673C95.8281 187.591 94.2979 188.05 92.7678 188.815C94.604 192.182 96.5931 195.548 99.1944 198.608C99.5004 198.302 99.8064 198.302 99.9594 198.149C102.714 195.395 105.468 192.794 108.222 190.039C110.211 187.897 112.047 185.602 113.884 183.307C114.19 182.848 114.496 182.236 115.414 182.236C115.261 182.695 115.108 183.154 114.955 183.46C114.19 184.531 113.578 185.602 112.659 186.673C110.364 189.274 107.916 192.029 105.468 194.63C100.878 199.679 95.522 203.352 89.2485 205.953C85.5762 207.33 81.9039 209.013 78.2316 210.543C77.9256 210.696 77.6195 211.002 77.0075 211.308C82.0569 212.379 86.0352 214.828 89.8606 217.735C93.6859 220.642 97.0522 224.008 99.5004 228.599C100.418 225.844 101.337 223.549 101.796 221.101C103.02 215.593 106.233 211.155 109.446 206.871C111.894 203.505 115.108 200.75 118.168 197.843C120.157 196.007 122.299 194.324 124.288 192.641C124.748 192.182 125.36 191.57 126.431 192.335C119.851 197.537 113.884 203.199 108.987 209.778C115.567 217.429 133.469 227.528 141.12 230.129C141.732 228.293 142.497 226.61 142.956 224.773C143.568 222.478 144.027 220.183 144.639 217.888C144.792 217.276 144.792 216.358 146.016 216.205C146.016 216.664 146.169 217.123 146.016 217.582C145.863 218.347 145.71 219.112 145.557 219.877C144.486 225.385 142.803 230.588 139.59 235.178C137.754 237.779 135.764 240.381 133.775 242.982C133.316 243.594 132.857 244.359 132.245 245.277C139.896 243.441 146.628 244.971 152.749 249.714C152.596 247.878 152.443 246.195 152.29 244.665C151.678 239.922 151.831 235.178 152.749 230.435C153.208 227.834 153.973 225.385 154.432 222.784C154.738 221.101 155.044 219.571 155.35 217.888C155.503 217.276 155.656 216.817 156.268 216.97C156.574 217.123 156.727 217.735 156.88 218.194C156.88 218.347 156.88 218.5 156.88 218.5C156.115 221.56 155.503 224.62 154.738 227.681C154.279 229.67 153.82 231.659 153.361 233.954C160.247 234.872 166.826 235.637 173.406 235.79C176.313 231.659 177.384 227.222 177.537 222.325C177.69 216.664 177.078 211.002 176.007 205.494C175.854 205.341 176.007 204.576 176.007 203.658ZM129.95 6.7299C130.256 9.63715 130.256 12.3914 130.715 15.1456C131.021 17.4408 131.633 19.583 132.398 21.7252C133.928 25.8565 135.764 29.8349 137.448 33.9662C138.213 35.8024 138.978 37.6385 139.437 39.6277C140.508 45.1361 141.426 50.7976 142.497 56.4591C142.803 58.1422 142.956 59.6724 143.262 61.5085C146.628 60.5905 149.995 59.6724 153.208 58.7543C153.055 58.4483 153.055 58.1423 153.055 57.8362C151.984 53.3988 151.219 48.8085 150.76 44.3711C149.995 36.5674 151.525 29.0698 154.126 21.7252C155.197 18.8179 156.268 15.7577 157.186 12.8504C157.798 10.7082 157.798 8.41304 158.104 5.96484C153.514 7.954 148.924 8.26003 144.18 8.56606C139.59 8.56606 134.846 8.41304 129.95 6.7299ZM263.071 144.595C265.213 144.442 267.05 144.289 268.886 144.289C275.312 144.136 281.739 145.054 288.012 146.278C294.439 147.502 300.559 149.491 306.068 153.01C306.833 153.469 307.751 153.775 308.822 154.387C304.385 145.819 302.243 137.25 303.314 127.916C301.477 128.528 299.794 129.293 297.958 129.752C293.062 130.823 288.012 131.435 282.963 131.588C280.974 131.741 278.985 131.741 276.995 131.741C276.689 132.66 276.536 133.425 276.383 134.037C275.159 138.015 272.864 139.392 268.733 138.78C266.744 138.474 264.754 138.168 262.612 137.862C262.765 140.157 262.918 142.146 263.071 144.595ZM82.5159 161.732C82.3629 160.967 82.2099 160.202 82.0569 159.59C81.5979 159.743 81.1388 159.743 80.8328 159.896C74.8653 161.426 68.7448 161.885 62.6243 160.814C58.4929 160.049 54.3616 159.437 50.2302 158.672C47.782 158.213 45.3338 157.907 42.7326 157.448C42.8856 157.754 42.8856 157.907 42.8856 158.06C47.323 164.027 48.8531 170.76 49.3121 177.951C49.4651 180.4 49.0061 182.695 48.088 185.143C48.7001 184.99 49.1591 184.837 49.6182 184.684C52.8314 183.307 56.0447 181.93 59.105 180.247C63.0833 178.257 66.7556 175.809 70.5809 173.667C72.1111 172.902 73.6412 172.29 75.1713 171.678C75.6304 166.934 77.6195 163.415 82.5159 161.732ZM91.5437 187.744C92.1558 187.591 93.0738 187.591 93.8389 187.438C97.3582 186.367 99.6534 183.307 99.6534 179.329C99.8064 173.973 97.5112 169.689 93.6859 166.322C91.3907 164.333 88.7895 163.109 85.7292 162.956C81.9039 162.803 78.2316 164.486 77.0075 168.771C76.3954 170.76 76.5484 172.749 76.8545 174.738C77.3135 177.951 78.9966 180.706 81.2918 183.001C84.1991 185.755 87.2593 187.744 91.5437 187.744ZM162.236 76.9628C164.531 76.8098 166.52 76.5038 168.509 75.7387C171.876 74.3616 174.171 72.0664 175.395 68.5471C176.619 65.1808 175.395 61.6616 172.641 59.2133C170.651 57.5302 167.897 56.7651 166.214 56.4591C163.307 56.4591 161.471 55.694 156.574 57.6832C156.421 57.8362 154.126 59.3664 152.596 61.0495C149.995 63.9567 149.23 68.5471 151.984 72.0664C154.585 75.7387 158.257 76.8098 162.236 76.9628ZM275.465 129.599C275.159 123.632 273.323 118.582 269.804 114.145C268.58 112.615 267.356 111.391 265.519 110.473C262.612 108.943 260.011 110.014 258.94 113.074C258.481 114.298 258.328 115.675 258.175 117.052C257.869 119.5 258.481 121.796 259.399 124.091C260.317 126.539 260.929 129.14 262.306 131.282C263.836 133.578 265.672 135.72 268.274 136.944C270.875 138.168 273.017 137.403 274.241 134.955C275.312 133.119 275.465 131.282 275.465 129.599ZM291.991 175.809C291.991 173.667 291.532 171.219 290.92 169.842C289.695 167.394 287.859 166.781 285.564 168.159C284.646 168.771 283.728 169.383 282.963 170.301C279.138 175.35 277.454 181.165 278.067 187.438C278.22 188.662 278.679 189.886 279.138 190.958C279.903 192.641 281.433 193.253 283.116 192.794C284.493 192.488 285.564 191.723 286.482 190.651C290.308 186.214 291.685 181.165 291.991 175.809ZM74.7123 118.582C74.7123 117.664 74.7123 116.593 74.5593 115.522C74.2532 113.686 73.9472 111.697 73.0291 110.167C71.652 107.718 69.8159 107.565 68.1327 109.708C66.9086 111.238 65.8375 112.921 65.2255 114.91C64.0014 118.735 63.3893 122.561 63.5423 126.539C63.6953 129.14 63.8484 131.588 65.0725 133.884C66.4496 136.485 68.4388 136.638 70.1219 134.343C71.04 133.272 71.652 131.894 72.2641 130.67C73.9472 126.998 74.5593 123.02 74.7123 118.582ZM275.465 82.1653C275.312 81.7062 275.312 80.9412 275.159 80.3291C274.394 76.6568 272.558 73.4435 270.569 70.2303C268.427 66.864 265.519 64.1098 262.306 61.6615C261.541 61.0495 260.47 60.8965 259.552 60.8965C258.787 60.8965 258.328 61.3555 258.022 62.2736C257.716 63.9567 257.869 65.4869 258.328 67.017C260.011 72.3725 262.918 76.8098 266.897 80.7882C268.427 82.3183 270.11 83.8484 272.099 84.6135C274.241 85.5316 275.465 84.6135 275.465 82.1653ZM48.088 178.869C47.935 172.749 46.7109 167.394 44.2627 162.497C43.4976 160.967 42.5796 159.59 41.3555 158.366C39.8253 156.836 38.4482 157.142 37.9892 159.131C37.5301 161.12 37.2241 163.109 37.2241 165.251C37.2241 167.394 37.6831 169.536 38.1422 171.678C39.0603 175.809 40.4374 179.635 42.8856 183.154C43.3446 183.766 44.1097 184.378 44.7217 184.837C45.4868 185.296 46.2519 185.143 46.7109 184.378C47.0169 183.919 47.323 183.307 47.476 182.695C47.935 181.165 47.935 179.788 48.088 178.869ZM95.522 231.965C98.1233 231.965 98.7353 231.2 97.9703 229.364C97.5112 228.293 96.8992 227.222 96.1341 226.303C91.8497 220.795 86.3413 216.664 79.9147 214.062C78.8436 213.603 77.6195 213.45 76.3954 213.297C74.7123 213.144 74.2532 213.909 74.8653 215.44C75.3243 216.511 75.7834 217.429 76.3954 218.347C80.0677 223.243 84.8111 227.222 90.3196 229.976C92.1558 231.047 93.9919 231.812 95.522 231.965ZM86.1883 57.9892C86.1883 59.8254 87.1063 60.5905 88.9425 60.1314C90.0136 59.8254 90.9317 59.5194 91.8497 58.9073C95.6751 56.7651 98.7353 53.7049 101.337 50.0326C102.867 47.8904 104.244 45.7482 104.703 43.3C105.315 40.5458 104.091 39.3217 101.49 40.5458C99.1944 41.4638 97.0522 42.6879 95.063 44.2181C92.3088 46.3603 90.0136 49.2675 88.1774 52.3278C87.2593 54.1639 86.1883 55.8471 86.1883 57.9892ZM218.851 44.5241C220.84 44.3711 221.299 43.759 220.687 41.9229C220.534 41.3108 220.228 40.6988 219.922 40.2397C218.851 38.8626 217.932 37.3325 216.861 36.1084C212.883 31.824 208.14 28.6108 202.784 26.1625C202.019 25.8565 201.101 25.7035 200.183 25.7035C198.806 25.7035 198.194 26.4686 198.653 27.8457C198.959 28.7638 199.418 29.6818 199.877 30.4469C203.855 36.1084 209.058 40.3927 215.331 43.3C216.402 43.912 217.626 44.0651 218.851 44.5241ZM263.53 246.501C263.53 244.053 262.918 243.441 261.235 243.747C260.317 243.9 259.399 244.359 258.481 244.818C253.431 247.725 249.759 252.01 247.005 257.059C246.087 258.589 245.475 260.119 245.322 261.956C245.169 263.792 245.781 264.404 247.464 264.098C249.3 263.639 251.136 263.18 252.666 261.802C256.339 258.436 259.705 254.917 262 250.48C262.765 249.102 263.224 247.419 263.53 246.501ZM175.854 245.889C174.783 246.042 172.947 246.348 171.11 246.654C169.733 246.96 168.509 247.572 168.203 248.949C168.05 250.327 169.274 251.092 170.345 251.857C172.794 253.54 175.701 254.305 178.608 254.917C182.127 255.529 185.647 255.835 189.166 254.764C190.084 254.458 190.849 253.999 191.614 253.54C192.532 252.775 192.685 252.163 191.92 251.245C191.308 250.48 190.543 249.714 189.778 249.255C185.8 246.96 181.209 246.195 175.854 245.889ZM137.448 246.348C136.53 246.501 134.999 246.654 133.622 247.113C130.715 248.031 130.409 249.867 132.398 252.01C133.622 253.234 135.152 254.305 136.836 254.917C140.355 256.141 143.874 256.906 147.699 256.294C148.924 256.141 150.148 255.682 151.219 255.07C152.443 254.305 152.596 253.234 151.831 252.01C151.372 251.245 150.607 250.633 149.842 250.021C146.322 247.419 142.191 246.501 137.448 246.348ZM312.035 155.305C312.494 154.234 312.953 153.622 312.953 152.857C313.106 150.715 313.106 148.573 312.953 146.431C312.494 141.534 311.576 136.944 309.434 132.507C308.669 130.976 307.751 129.446 306.68 128.069C305.762 126.845 304.844 127.151 304.385 128.528C304.079 129.446 303.926 130.517 303.926 131.588C303.773 137.862 305.303 143.983 307.751 149.797C308.363 151.174 309.281 152.551 310.046 153.775C310.658 154.234 311.27 154.54 312.035 155.305ZM130.562 5.04676C130.562 5.19977 130.562 5.35279 130.562 5.5058C131.021 5.65881 131.327 6.11785 131.786 6.11785C133.316 6.42387 134.846 6.88291 136.377 6.88291C139.743 7.03593 143.109 7.03593 146.475 6.88291C149.689 6.7299 152.902 6.27086 155.962 5.04676C156.727 4.74073 157.492 4.74073 157.798 3.82265C156.421 2.59855 154.891 2.13951 153.361 2.13951C149.995 1.9865 146.628 1.83348 143.262 1.9865C139.59 2.13951 136.07 2.59855 132.551 3.82265C131.939 4.28169 131.327 4.58772 130.562 5.04676Z" fill="black"/>
<path d="M174.477 115.063C173.865 115.369 173.406 115.522 172.488 115.828C172.947 115.216 172.947 114.91 173.253 114.604C173.865 113.839 174.63 113.227 175.242 112.462C177.384 109.707 180.291 109.248 183.504 109.554C189.625 110.166 194.521 113.38 199.112 117.205C202.478 119.959 205.232 123.173 207.222 126.998C208.599 129.599 209.67 132.353 209.058 135.414C208.905 136.485 208.446 137.556 207.681 138.321C206.609 139.392 205.844 140.616 205.232 141.84C205.079 142.299 204.62 142.605 204.314 143.064C203.549 142.299 203.549 142.299 204.161 140.769C202.172 140.616 200.183 140.616 198.347 140.31C192.685 139.086 187.942 136.179 183.811 132.353C181.821 130.517 179.985 128.528 178.302 126.386C176.16 123.02 174.477 119.5 174.477 115.063ZM182.28 110.932C181.974 110.932 181.668 110.932 181.362 110.932C177.69 111.085 175.548 113.38 176.16 116.899C176.466 118.582 179.526 130.058 197.429 138.168C199.265 138.78 201.254 139.086 203.396 138.78C206.609 138.321 208.14 136.485 207.834 133.271C207.681 131.129 206.915 129.293 205.997 127.457C202.172 121.03 196.817 116.287 190.084 113.074C187.636 112.156 185.188 110.932 182.28 110.932Z" fill="black"/>
<path d="M131.939 114.298C130.103 124.091 124.748 131.13 116.026 135.873C115.108 136.332 113.884 136.791 112.812 136.944C111.741 137.25 110.517 137.25 109.446 137.403C109.293 138.474 111.129 139.086 110.517 140.31C110.364 140.31 110.211 140.31 110.211 140.31C108.528 138.168 106.539 136.179 105.009 134.037C103.785 132.201 104.091 130.059 104.397 128.069C105.162 123.938 106.998 120.419 109.599 117.052C112.659 112.921 116.485 109.861 121.075 107.719C122.911 106.801 124.901 106.648 126.737 107.107C128.42 107.413 129.644 108.331 130.409 109.708C131.48 111.391 132.398 113.227 133.316 114.91C133.622 115.522 133.928 116.287 133.622 117.205C133.01 116.287 133.01 114.91 131.939 114.298ZM105.927 130.212C105.927 130.518 105.927 130.671 105.927 130.977C106.08 134.343 108.375 136.332 111.741 135.72C113.272 135.414 114.955 134.955 116.332 134.19C122.758 130.365 127.349 125.009 129.644 117.818C130.256 116.134 130.409 114.298 130.103 112.462C129.644 109.861 127.961 108.637 125.36 108.637C123.37 108.637 121.381 109.249 119.545 110.32C114.19 113.38 110.364 117.971 107.763 123.326C106.692 125.468 105.927 127.763 105.927 130.212Z" fill="black"/>
<path d="M168.05 140.158C167.438 140.311 167.132 140.464 166.673 140.464C166.673 140.77 166.826 141.076 166.826 141.535C167.744 144.902 167.132 148.115 165.755 151.328C163.307 157.143 159.328 161.58 153.667 164.334C150.301 166.017 146.781 166.476 143.109 164.64C142.956 164.64 142.956 164.64 142.65 164.64C142.65 165.252 142.803 165.864 142.803 166.323C142.65 166.323 142.497 166.476 142.497 166.476C142.344 166.17 141.885 165.711 141.885 165.405C141.579 163.875 140.967 162.651 140.202 161.274C139.284 159.591 138.978 157.602 139.284 155.765C140.661 145.973 146.322 139.393 155.503 135.874C157.033 135.262 158.716 135.109 160.094 135.415C161.318 135.568 162.389 136.18 162.542 136.18C163.307 136.639 163.766 136.945 164.378 137.404C165.296 138.169 166.52 139.087 168.05 140.158ZM159.022 136.945C156.574 136.945 154.432 137.557 152.443 138.781C147.699 141.535 144.18 145.514 142.191 150.563C140.814 154.082 140.049 157.602 142.191 161.274C142.956 162.651 144.027 163.569 145.404 164.181C147.393 164.946 149.536 164.793 151.525 164.028C159.022 161.121 163.613 155.612 165.755 147.962C166.214 146.126 166.367 144.442 165.908 142.606C164.99 138.781 162.083 136.792 159.022 136.945Z" fill="black"/>
<path d="M207.834 185.449C206.609 185.755 205.997 185.602 205.844 184.531C196.511 185.296 187.636 179.328 185.035 170.913C184.576 169.229 184.117 167.699 184.576 165.863C184.729 165.404 184.27 164.792 184.117 164.027C187.024 160.202 190.849 158.672 195.746 159.743C202.631 161.12 207.375 165.251 210.435 171.372C211.506 173.667 212.118 176.115 211.506 178.563C211.2 179.787 210.588 181.011 209.823 181.777C208.905 183.001 207.987 183.919 207.834 185.449ZM202.172 183.307C208.446 183.307 211.506 179.634 210.129 174.432C209.67 172.902 209.058 171.372 208.14 169.995C205.691 165.863 201.866 163.262 197.582 161.426C195.439 160.508 193.297 160.355 191.002 160.814C187.789 161.579 185.953 163.874 185.8 167.087C185.8 168.005 185.953 168.77 186.106 169.689C187.024 173.208 189.166 176.115 191.92 178.563C195.133 181.318 198.806 183.154 202.172 183.307Z" fill="black"/>
<path d="M176.466 190.192C175.395 191.875 174.477 193.405 173.559 194.935C170.957 198.761 167.132 200.291 162.695 200.291C157.951 200.138 153.667 198.455 150.148 195.089C146.475 191.569 146.016 187.132 148.618 182.847C149.383 181.623 150.148 180.246 150.913 179.175C151.678 178.716 152.29 178.41 153.055 177.951C154.891 176.88 156.727 175.809 158.563 174.891C159.022 174.738 159.481 174.738 160.094 174.738C162.848 174.738 165.296 175.809 167.744 177.186C171.569 179.481 174.171 182.694 175.242 187.132C175.395 188.203 175.395 189.274 175.548 190.345C175.854 190.192 176.16 190.192 176.466 190.192ZM163.307 199.067C163.919 198.914 165.143 198.914 166.214 198.608C172.182 197.078 176.466 191.263 172.794 184.225C170.651 180.093 167.132 177.951 162.848 176.574C160.859 175.962 158.869 176.115 157.033 177.033C153.973 178.41 151.525 180.399 149.842 183.307C147.24 187.591 147.852 191.569 151.525 194.782C154.738 197.384 158.563 198.914 163.307 199.067Z" fill="black"/>
</svg>
