<svg width="20" height="27" viewBox="0 0 20 27" fill="none" xmlns="http://www.w3.org/2000/svg">
<path d="M16.6667 11.25V6.75C16.6667 3.02288 13.6811 0 10 0C6.31889 0 3.33333 3.02288 3.33333 6.75V11.25H0V27H20V11.25H16.6667ZM11.1111 19.9384V22.5H8.88889V19.9384C8.22778 19.548 7.77778 18.8314 7.77778 18C7.77778 16.758 8.77333 15.75 10 15.75C11.2267 15.75 12.2222 16.758 12.2222 18C12.2222 18.8302 11.7733 19.548 11.1111 19.9384ZM5.55556 11.25V6.75C5.55556 4.26825 7.54889 2.25 10 2.25C12.45 2.25 14.4444 4.26825 14.4444 6.75V11.25H5.55556Z" fill="#185F56"/>
</svg>
