<?xml version="1.0" encoding="utf-8"?>
<!-- Generator: Adobe Illustrator 24.1.1, SVG Export Plug-In . SVG Version: 6.00 Build 0)  -->
<svg version="1.1"
	 id="svg4" inkscape:version="0.92.4 (5da689c313, 2019-01-14)" sodipodi:docname="G5.Virus Klecks.svg" xmlns:cc="http://creativecommons.org/ns#" xmlns:dc="http://purl.org/dc/elements/1.1/" xmlns:inkscape="http://www.inkscape.org/namespaces/inkscape" xmlns:rdf="http://www.w3.org/1999/02/22-rdf-syntax-ns#" xmlns:sodipodi="http://sodipodi.sourceforge.net/DTD/sodipodi-0.dtd" xmlns:svg="http://www.w3.org/2000/svg"
	 xmlns="http://www.w3.org/2000/svg" xmlns:xlink="http://www.w3.org/1999/xlink" x="0px" y="0px" viewBox="0 0 198.4 198.4"
	 style="enable-background:new 0 0 198.4 198.4;" xml:space="preserve">
<style type="text/css">
	.st0{fill:#B70003;}
	.st1{display:none;fill:#294294;}
	.st2{fill:#FFFFFF;}
</style>
<path class="st0" d="M190,20.6C180.9,4.1,155.4-1.9,136,2c-19.9,4.1-19.4,16-43.9,25.8c-25.3,10.1-34.3,0.8-50.7,9.1
	C16,49.8,4.5,88.9,10.2,119.7c6,32.8,32.6,68.6,73.8,74c51.9,6.8,96.5-38.5,97.5-70.5c0.6-18.5-13.5-31.1-5.2-50.1
	c5.2-11.9,14.9-16.2,16.9-31.2C193.6,39.2,194.9,29.6,190,20.6z"/>
<sodipodi:namedview  bordercolor="#666666" borderopacity="1" gridtolerance="10" guidetolerance="10" id="namedview6" inkscape:current-layer="svg4" inkscape:cx="151.5407" inkscape:cy="109.79305" inkscape:pageopacity="0" inkscape:pageshadow="2" inkscape:window-height="1699" inkscape:window-maximized="1" inkscape:window-width="2736" inkscape:window-x="-13" inkscape:window-y="-13" inkscape:zoom="3.4231221" objecttolerance="10" pagecolor="#ffffff" showgrid="false">
	</sodipodi:namedview>
<g id="Farbe">
	<g>
		<path class="st1" d="M101.5,189.1c-33.1,0-66.2,0-99.3,0c-0.6,0-0.7-0.1-0.7-0.7c0-61.6,0-123.3,0-184.8c0-0.7,0.1-0.8,0.7-0.8
			c66.2,0,132.3,0,198.5,0c0.6,0,0.7,0.1,0.7,0.7c0,61.6,0,123.3,0,184.8c0,0.6-0.1,0.7-0.7,0.7
			C167.7,189.1,134.7,189.1,101.5,189.1z"/>
		<path class="st1" d="M2.4,5.3c0-0.2,0-0.5,0-0.6C2.4,4.3,2.6,4,3,4.1c0.2,0,0.5,0,0.7,0c64,0,128,0,192.1,0c1.3,0,1.3,0,1.3,1.3
			c0.2,0.5,0.1,0.8,0.1,1.3c0,34.8,0,69.5,0,104.3c0,24.8,0,49.7,0,74.6c0,1.5,0,1.5-1.6,1.5c-64,0-127.9,0-191.8,0
			c-1.6,0-1.6,0-1.6-1.5c0.1-59.7,0.1-119.3,0.1-179C2.2,6.1,2.1,5.6,2.4,5.3z"/>
		<path class="st1" d="M2.4,5.3c0,0.3,0,0.8,0,1.1c0,59.7,0,119.4,0,179.1c0,0.2,0,0.5,0,0.8s0.1,0.5,0.5,0.5c0.2,0,0.3,0,0.6,0
			c64.2,0,128.4,0,192.5,0c1.1,0,1,0.1,1-1c0-59.7,0-119.5,0-179.2c0-0.3,0-0.8,0-1.1c0.2,0,0.3,0.2,0.2,0.3c0,0.2,0,0.5,0,0.7
			c0,59.9,0,119.8,0,179.9c0,0.2,0,0.5,0,0.7c0,0.3-0.1,0.5-0.6,0.5c-0.2,0-0.5,0-0.6,0c-64.3,0-128.7,0-193,0
			c-1.3,0-1.1,0.1-1.1-1.1c0-60,0-120,0-180C2.1,6,1.8,5.5,2.4,5.3z"/>
		<path class="st1" d="M196.7,105.6c-0.6-4.1-1.6-8-3.4-11.7c-0.5-0.9-1.1-1.7-1.8-2.5c-0.6-0.6-1.1-0.7-1.8-0.5
			c-2.1,0.6-4,1.4-6.1,1.7c-4.1,0.7-8.3,1.1-12.4,1c-0.5,0-0.6-0.2-0.6-0.7c-0.3-3.8-1.4-7.2-3.6-10.3c-0.8-1.3-1.8-2.3-3.1-3.1
			c-1.4-1-2.9-1.4-4.6-0.7c-1.1,0.5-2.4,0.7-3.2,1.7c-2.1-3.7-4.1-7.3-6.3-11c-0.2-0.3-0.1-0.5,0.1-0.7c3.9-2.3,7.7-4.8,12.4-4.8
			c2.1,0,4.1-0.1,6.1-0.7c1.4-0.5,1.7-0.9,1.7-2.3c0.1-2.9-1-5.3-2.4-7.5c-1.5-2.5-3.1-4.9-5.4-6.7c-1.1-0.9-2.5-1.7-4.1-1.7
			c-1.3,0-2.1,0.7-2.1,1.9c0,1.1-0.5,2.1-1,3c-3,4.6-5.8,9.3-9.3,13.6c-0.1,0.2-0.3,0.3-0.5,0.6c-1.8-1.7-3.3-3.9-5.4-5.4
			c-6.4-4.7-13-9.5-20.8-12c-1.3-0.5-1.3-0.5-0.5-1.6c1.8-2.7,4.2-4.8,7.3-6.1c2.1-0.8,4-1.9,5.6-3.7c0.8-0.8,1-1.6,0.6-2.7
			c-0.9-2.5-2.8-4.3-4.6-6.2c-2.1-1.9-4.5-3.4-7.1-4.7c-1.1-0.5-2.3-0.6-3.4-0.8c-0.7-0.1-1.3,0.2-1.6,0.8c-1.9,2.7-3.3,5.9-4.5,9
			c-0.6,1.4-0.5,3.1-0.7,4.6c-0.2,2.6-0.7,5.4-0.6,8c0.1,0.8-0.5,0.5-0.8,0.3c-1.5-0.2-3-0.5-4.5-0.6c-2.1-0.2-4.2-0.3-6.3-0.3
			c-0.5,0-1,0-1.5-0.2c-2.9-1.3-5.7-1.3-8.7-0.2c-0.3,0.2-0.9,0.2-1.5,0.5c-0.7,0.3-0.9,0-1-0.6c-1.9-8.6-2.1-17,1.6-25.3
			c1.3-2.9,1.9-5.8,1.6-9c0-0.3,0-0.7,0.1-1c0-1-0.3-1.6-1.4-1.8c-1.7-0.3-3.4-0.6-5.3-0.7c-3.9-0.1-8,0.3-12,1.6
			c-1.5,0.5-1.9,1-1.9,2.5c0,3.2,0,6.4,0.8,9.5c0.1,0.6,0.1,0.8-0.7,0.9c-1.3,0-2.5,0.3-3.7,1c-1.4,0.8-2.4,1.8-2.3,3.5
			c0,1,0.5,1.8,1.3,2.2c2.5,1.1,3.9,3.1,5,5.6C70.1,35.1,71,39,72,43c0.3,1.5,0.8,3,1.1,4.5c0.1,0.3,0,0.6-0.3,0.7
			c-3.9,1.7-7.7,3.7-11.1,6.2c-0.6,0.3-0.7,0-0.9-0.3c-1.9-2.9-3.3-5.8-4.2-9.1c-0.7-2.4-0.9-4.9-1.7-7.2c-0.6-1.8-1.4-3.5-2.6-5.1
			c-1.1-1.5-2.1-1.8-3.9-1.3c-1.5,0.3-2.6,1.3-3.7,2.2c-2.1,1.8-3.9,3.7-5.4,5.8c-0.8,1.3-1.4,2.6-1.8,4.1c-0.3,1.3,0,2.3,1.1,3
			c1.3,0.8,2.5,1.6,3.8,2.3c3.6,2.1,6.7,4.8,9.7,7.5c0.9,0.8,1.7,1.7,2.6,2.5c0.2,0.2,0.5,0.6,0,0.9c-7.6,7.2-13.3,15.9-16.5,26.1
			c-0.5-0.2-0.7-0.5-1-0.8c-2.5-2.4-5.2-4.7-7.9-6.9c-1.3-1-2.3-1-3.6,0c-0.7,0.6-1.3,1.3-1.6,2.1c-2.2,4.6-3.1,9.3-1.9,14.3
			c0.2,1,0.7,2.1,1.4,3c0.8,1,1.7,1.3,3,1c2.1-0.5,4-0.9,6.2-1.1c0.9-0.1,1.7,0,2.6,0c0.5,0,0.5,0.2,0.5,0.6
			c-0.5,3.2-0.6,6.5-0.5,9.8c0,1.4,0.1,2.7,0.3,4c0.1,0.7-0.1,0.9-0.7,1c-3.4,0.9-6.9,1.1-10.4,0.9c-3.8-0.2-7.3-1.1-11.1-1.7
			c-2.3-0.3-4.6-0.7-6.9-0.8c-0.7,0-1.3,0.2-1.7,0.8c-0.8,1-1,2.3-1,3.5c0,4.6,0.9,8.9,3.1,13c0.5,0.9,1,1.7,1.7,2.4
			c1,1,2.2,1.3,3.6,0.9c4.1-1,7.8-2.9,11.4-5c2.2-1.4,4.4-2.5,6.8-3.4c0.6-0.2,0.8-0.2,0.9,0.5c0.8,3.1,2.2,5.7,4.8,7.7
			c1.6,1.3,3.4,1.9,5.4,2.3c0.5,0.1,0.8,0.2,1,0.8c0.6,1.5,1.7,2.5,2.8,3.7c0.8,0.9,1.7,1.8,2.4,3c-2.6,2.2-5.6,3.4-8.8,4.6
			c-2.5,0.9-4.9,1.9-7.2,3.4c-0.3,0.2-0.7,0.6-1,0.8c-0.7,0.6-0.8,1.4-0.6,2.2c0.5,1.5,1.4,2.6,2.3,3.8c3.1,3.5,6.8,6.2,11.2,7.8
			c0.6,0.2,1.3,0.3,1.8,0.5c1.1,0.3,2.1-0.1,2.5-1.3c1.4-3.1,2.4-6.2,3.7-9.3c0.6-1.6,1.5-3,2.6-4.3c6.1,6.1,13.3,10.3,21.1,13.5
			c0.5,0.1,0.5,0.3,0.2,0.7c-1.1,2.1-2.3,3.9-3.7,5.7c-1,1.5-1.9,3.2-2.6,4.8c-0.6,1.3-0.5,2.4,0.5,3.4c0.2,0.3,0.6,0.7,0.9,0.8
			c3.8,2.3,7.8,3.4,12.2,2.4c2.1-0.5,2.6-1.4,2.8-3.4c0.1-2.2-0.1-4.2-0.2-6.4c-0.1-1.5-0.2-2.9,0.1-4.3c0.1-0.3,0.1-0.6,0.6-0.6
			c3.9,0.5,7.9,0.8,11.8,1.3c0.2,0,0.5,0.1,0.8,0.1c-0.5,0.6-0.8,1.3-1.3,1.7c-1.4,1.7-2.1,3.7-2.4,5.7c-0.1,0.7,0.1,1.3,0.6,1.7
			c0.6,0.7,1.3,1.3,2.1,1.6c3.8,1.8,7.7,2.4,11.8,1.8c0.9-0.1,1.8-0.6,2.8-0.9s1.3-1,1.4-2.1c0.1-3.7-0.3-7.1-1.5-10.5
			c-0.2-0.6,0-0.8,0.6-0.9c4.6-1.4,9.2-2.7,13.4-4.9c1.8-0.9,3.8-1.8,5.6-2.9c0.3-0.2,0.6-0.1,0.9,0.2c5.6,6.4,9.7,13.6,13,21.4
			c0.8,1.9,1.8,3.8,2.8,5.7c0.1,0.3,0.5,0.6,0.8,0.9c-0.5,0-0.7,0-0.9,0c-48,0-96.1,0-144.1,0c-0.7,0-0.8-0.2-0.8-0.9
			C3,124.8,3,64.6,3,4.6c0-0.7,0.3-0.8,1-0.8c64.1,0,128.2,0,192.3,0c0.7,0,0.9,0.2,0.9,0.9c0,33.2,0,66.4,0,99.6
			C196.7,105.1,196.7,105.3,196.7,105.6z"/>
		<path class="st0" d="M27.5,95.9c1.9-3.5,3-7.4,2.8-11.6c0-1.4-0.3-4.1-0.6-5.7c1.1,0.9,5.2,4.5,6,5.4c3,3.2,3.6,4.2,7.8,5.5
			c0.5,0.1,0.8,0.2,1.3,0.2c0.2,0,0.5,0.1,0.6-0.1s0-0.6-0.2-0.7c-0.1-0.1-0.3-0.2-0.6-0.2c-2.2-0.6-4.2-1.5-6.2-2.6
			c-0.5-0.2-0.6-0.5-0.5-1c1.8-5.9,4.7-11.2,8.4-16.1c2.4-3.3,5.2-6.4,8.3-9.3c0.5-0.3,1.7-1,2.1-0.6c1.8,2.2,3.6,4.3,5,6.6
			c0.2,0.3-0.5,1.6,0,1.3c0.5-0.3,0.2-0.8,0-1.3c-1.6-2.3-3.2-4.6-5-6.6c-3.7-4.2-7.6-6.1-12.3-9.3c-1.1-0.7-3.2-2.1-4.5-2.6
			c-0.2-0.1,0-1.4-0.1-1.7c5.5-2.6,9.4-6.7,11.7-12.6c1,1.4,1.5,2.9,1.8,4.3c0.7,2.7,1,5.6,1.9,8.2c1.9,5.6,5,10.4,9.1,14.6
			c0.7,0.7,1.4,1.4,1.9,2.1c0.2,0.2,0.5,0.5,0.9,0.2c0.3-0.3,0.1-0.6-0.1-0.9c-1.1-1.3-2.4-2.5-3.6-3.8c-0.9-1-1.8-2.3-2.8-3.4
			c3.9-2.6,7.7-5,12-6.6c0.5-0.2,0.8-0.3,0.7-1c-0.9-4.2-1.8-8.5-3.1-12.6c-0.7-2.4-1.8-4.6-2.9-6.9c-0.6-1.4-1.7-0.3-3.1-0.9
			c-0.6-0.2-1.9-1.4-2.4-1.7c-0.8-0.6,0.1-2.4,0.6-3.2c0.9-1.6,2.4-2.2,4.1-2.5c0.3-0.1,0.7-0.1,1-0.1c0.7,0,1.1,0.2,1.4,0.9
			c1.1,3,2.3,5.9,3.4,8.8c0.9,2.3,1.1,4.7,1.6,7.1c0.6,3.4,1.1,6.9,1.7,10.4c0.1,0.3,0.2,0.5,0.6,0.3c1.8-0.6,5.4-1.5,7.5-2.1
			c-0.7,1.1-1.6,2.5-1.8,3.8c-0.6,2.9,0.1,4.7,2.3,6.5c0.6,0.6,0.2,1.6,0.8,2.2c1.9,2.1,2.6,4.6,2.5,7.3c-0.1,2.6-0.1,5.3-0.2,7.8
			c0,0.5-0.2,1.1,0.5,1.1c0.6,0,0.6-0.7,0.6-1.1c0.1-2.7,0.1-5.4,0.2-8.1c0.1-2.1-0.5-3.9-1.5-5.7c-0.2-0.3-0.5-0.8-0.7-1.3
			c3.1,0.7,6.1,0.6,8.9-0.8c0.2,0.1,0.1,0.2,0.1,0.3c-1,2.2-1.1,4.3-0.6,6.6c0.3,1.6,0.9,3.2,1.4,4.8c0.1,0.3,0.2,0.6,0.3,0.8
			c0.2,0.3,0.5,0.7,0.9,0.5c0.3-0.2,0.2-0.6,0.1-0.9c-0.6-1.5-1-3-1.4-4.5c-0.3-1.5-0.7-3-0.5-4.5c0.1-0.5,0.2-1,0.5-1.5
			c1-1.8,2.1-3.7,3.2-5.5c1.8-2.5,1.4-5.9-0.8-8.1c-0.3-0.2-0.6-0.6-0.9-1c0.7-0.2,1.4-0.1,2.1-0.1c3,0,5.8,0.6,8.7,1
			c0.2,0,0.5,0.1,0.5,0.5c-0.3,2.6,1.4,5.1,0.9,7.8c-0.5,2.5-1.3,5.4-1.8,7.9c-0.1,0.3-0.7-0.2,0,0s-0.1,0.5,0,0
			c1.7-6.2,2.3-12.4,2.1-18.6c-0.2-4.1,0.1-8.2,1.4-12.2c0.8-2.3,1.7-4.5,2.9-6.6c3.4,5.9,7.2,9.4,13.8,11.7c-0.3,0.5-1.1,1-1.6,1.3
			c-1,0.5-2.4,1.3-3.4,1.7c-5.7,2.5-6,6.5-7.3,12.5c-0.7,3.1-1.4,6.5-1.3,9.7c0,0.5-1.1,0.9-0.7,1.3c0.2,0.2,0.5,0.2,0.6-0.1
			s0.1-0.7,0.1-1c-0.1-3.9,0.3-7.8,1.5-11.4c0.6-1.9,0.6-1.9,2.5-1.3c5,1.9,9.7,4.3,14,7.7c2.5,2.1,5.2,4,7.7,6.1
			c1.3,1,2.3,2.3,3.6,3.4c0.3,0.3,0,0.5-0.2,0.7c-1.8,1.6-3.7,3.2-5.5,4.7c-2.3,1.8-3.3,4-5.6,5.8c-0.1,0.1,1.7,0,0,0
			c0.1,0.2-1.3,0.3-1,0.3s0.7-0.1,1-0.3c3.3-2.7,6.8-5.3,10-8.1c3.3-2.9,6-6.4,8.3-10.2c1.6-2.5,3.1-5,4.7-7.4
			c0.1-0.1,0.1-0.2,0.3-0.2c1.8,5.1,4.8,9.9,9.2,13.4c-0.5,0.2-1.8,1.5-2.2,1.5c-3.3-0.3-6.4,0.9-9.4,2.3c-4.1,1.9-8.4,4.7-11.8,7.7
			c-1.7,1.5-1.8,2.1-3.3,3.9c-1.3,1.5-2.4,3-3.6,4.6c-0.5,0.6-0.9-0.3-0.6,0.6c0.3,0,0.5-0.3,0.6-0.6c1.9-2.4,3.9-5,6-7.3
			s4.2-4.2,6.8-5.9c0.5-0.3,0.7-0.2,0.9,0.2c2.4,3.3,4.2,6.9,6,10.5c0.2,0.5,0,0.7-0.3,0.9c-3.3,3.1-7.2,5.3-11.5,6.7
			c-2.3,0.8-2.2,2.2-4.6,2.6c-0.2,0-3.1-0.6-3-0.1c0.1,0.3,0.1,0.8,0.7,0.6c6.2-1.5,12.2-3.4,17.1-7.7c1.1-1,2.4-1.9,3.6-2.9
			c-1.3,6.5,2.8,12.8,7,17.8c-2.5-0.5-7.3-0.5-9.7-0.8c-4.6-0.5-9.5-0.8-14.2-0.3c-0.7,0.1-0.7-0.2-1.4-0.1
			c-0.5,0.1-0.6-0.8-0.6-0.3s0.3,0.5,0.6,0.3c1.6-0.1,3.3-0.3,4.9-0.3c5.2-0.1,10.3,0.3,15.4,1.4c0.6,0.1,0.7,0.3,0.8,0.9
			c0.5,4.2,0.3,8.5-0.1,12.6c-0.1,1.5-0.3,3-0.6,4.5c-0.1,0.9-0.2,1-1.1,0.8c-2.8-0.6-5.5-1.3-8.3-1.8c-2.3-0.5-4.7-1-7.1-1.5
			c-0.2,0-0.3,0-0.6,0s-0.6,0.1-0.6,0.5s0.3,0.2,0.5,0.3c2.6,1,5.4,1.6,8,2.2c4.4,0.9,8.6,1.9,13,2.3c3,0.2,6.1,0.1,9.1-0.1
			c1.1-0.1,2.3,0,3.6-0.1c-2.3,2.2-3.9,4.6-4.8,7.5c-0.9,2.9-0.9,5.8-0.3,9c-0.8-0.7-1,0.1-1.6-0.5c-2.6-2.3-5.8-4.8-8.8-6.5
			c-5-2.9-10.1-5.9-16.1-5.3c-1.3,0.1-2.5,0-3.8,0.3c0.5,0.7,0.9-0.1,1.6-0.2c4.8-0.7,9.4,1.3,13.9,3.1c0.5,0.2,0.6,0.3,0.3,0.8
			c-1.1,2.9-2.5,5.5-3.9,8.2c-0.3,0.8,0.2,1.5-0.1,2.3c-0.2,0.6-0.2-0.2,0,0c2.6,2.1,4.9,5.1,7.6,7.3c3.1,2.5,7.8,4,11.6,5.5
			c1.4,0.6,3,0.9,4.4,1.3c1.3,0.3,0.9,1.4,2.1,1.9c1.1,0.6,1.4,1.4,0.8,2.5c-0.9,1.9-1.9,3.7-3.2,5.4c-0.5,0.7-1,0.8-1.8,0.2
			c-1-0.7-3.6-1.7-4.4-2.6c-3.3-3.5-5.2-6.9-8.8-9.9c-3.3-2.7-7-5.3-10.9-7.3c-0.7-0.3-1.1-0.2-1.5,0.5c-0.3,0.7-0.8,1.3-1.4,1.8
			c-2.8,3.3-5.7,6.4-9.1,9.1c-0.5,0.3-0.7,0.3-1,0c-0.6-0.6-1.3-1-1.8-1.5c-0.3-0.2-0.7-0.5-1-0.7c-0.3-0.1-0.7-0.6-0.9-0.1
			c-0.3,0.5,0.1,0.8,0.5,1c1,0.8,2.2,1.7,3.2,2.6c3.2,2.9,7.7,5.4,11.1,8c4,3.1,6.7,4.9,11.1,7.2c0.2,0.1,0.6,1.6,0.9,1.7
			c-5.6,2.6-9.4,7-11.8,12.7c-0.5-1-0.9-1.8-1.3-2.9c-3.1-7.9-7-15.3-12.5-21.7c-1.7-1.9-3.6-3.9-5.4-5.7c-0.1-0.1-0.2-0.2-0.5-0.3
			c-0.3-0.2-0.6-0.2-0.9,0.1c-0.2,0.2,0,0.5,0.1,0.6c0.6,1.1,1.5,1.9,2.4,2.9c1,1,1,1-0.2,1.8c-3.3,2.1-7,3.7-10.8,5
			c-2.5,0.9-5.2,1.8-7.9,2.3c-0.3,0-0.6,0.1-0.7-0.2c-1.5-2.9-3.1-5.7-3.9-8.8c-0.7-2.9-0.6-5.7-0.7-8.7c0-0.8-0.1-1.6-0.7-2.4
			c-0.3,0.3-0.5,0.7-0.5,1c-0.1,5.5,0.5,10.7,3,15.8c1,1.9,2.2,3.7,3,5.7c0.9,2.2,1.6,5.5,1.6,8c-5.2-3.3-10.5-4.2-16.5-2.5
			c0.2-1.1,0.8-1.9,1.4-2.7c0.8-1.1,1.6-2.3,2.5-3.4c1.8-2.4,2.6-5.3,3-8.2c0.5-4.7,0-9.3-1.1-13.7c-0.1-0.5,0.3-0.1,0,0
			c-0.6,0.2,0.2,0.8,0.2,1.3c0.6,2.7,0.9,5.5,1,8.2c0.1,3.1-1.1,5.3-2.2,8.2c-0.3,1-0.9,2.1-1.5,3c-0.2,0.3-0.5,0.5-0.9,0.5
			c-3.3-0.1-6.8-0.5-10.1-0.8c-0.9-0.1-1.7-0.2-2.6-0.3c-0.6,0-0.6-0.2-0.5-0.7c0.7-3.2,1.5-6.4,2.2-9.6c0.1-0.3,0.1-0.7,0-1
			c-0.1-0.2-0.2-0.6-0.5-0.5c-0.3,0-0.5,0.2-0.5,0.6c-0.2,0.9-0.3,1.9-0.6,2.9c-0.5,2.4-1.1,4.8-1.5,7.3c-0.5,3.1-0.5,6.1,0,9.1
			c0.1,0.9,0.1,1.8,0.2,2.9c-4.1-3.2-8.5-4.3-13.5-3.2c0-0.5,0.3-0.7,0.5-0.9c1.5-2.1,2.9-4.2,4.4-6.4c2.1-3.2,3.1-6.7,3.9-10.4
			c0.1-0.6,0.2-1.1,0.3-1.7c0-0.2,0.1-0.5-0.2-0.6c-0.2-0.1-0.3,0.1-0.6,0.2c-0.2,0.2-0.2,0.6-0.3,0.8c-0.7,2.6-1.1,5.3-2.2,7.8
			c-0.2,0.6-0.3,0.7-0.9,0.5c-4.9-1.9-9.5-4.6-13.9-7.5c-2.5-1.7-5-3.5-7.1-5.7c-0.5-0.5-0.5-0.7-0.1-1.1c3.2-4.1,7-7.8,11.1-11
			c0.1-0.1,0.3-0.2,0.6-0.5c-0.5-0.3-0.9-0.3-1.3,0c-3.4,2.9-6.9,5.6-9.7,9.1c-2.4,2.9-4.7,5.9-5.7,9.6c-0.6,1.9-1,4-1.7,5.8
			c0,0.1-0.1,0.2-0.2,0.5c-3.3-5.9-8.6-9.3-14.9-11.6c2.6-1.1,5-2.3,7.6-3.3c3-1.1,5.7-2.7,8-4.9c3.6-3.3,7-6.9,9.9-10.9
			c0.2-0.3,0.5-0.8,0.6-1.3c-0.5-0.1-0.7,0.1-0.9,0.5c-2.8,3.9-6.3,7-9.6,10.3c-0.5,0.5-0.7,0.5-1.1-0.1c-1.4-1.8-2.6-3.8-3.7-5.7
			c-0.2-0.3-0.1-0.6,0.2-0.7c2.5-0.8,4.1-2.6,5.5-4.8c0.5-0.7,0.9-1.4,1.4-2.2c1.6-2.6,4-3.9,6.9-4.3c1.5-0.2,3-0.3,4.6-0.5
			c0.5,0,1.3,0,1.1-0.5c-0.1-0.5-0.8-0.6-1.4-0.5c-1.1,0.1-2.3,0.3-3.4,0.5c-0.9,0.1-1.8,0.2-2.6,0.5c-2.6,0.5-4.5,2.1-5.8,4.2
			c-0.2,0.2-0.3,0.6-0.7,1c-0.1-4.5-2.9-8.3-6.1-11.2c2.5,0.2,5.6,1,8,1c2.3,0,4.6-0.2,6.9-0.8c0.7-0.1,1.4-0.5,1.7-1.3
			c-1.1-0.1-2.2,0.2-3.2,0.5c-3.7,0.8-7.3,0.7-11,0.5c-2.3-0.1-4.5-0.9-6.7-1.3c-0.5-0.1-0.8-0.2-1.3-0.2c-0.9,0.1-0.9-0.5-1-1.1
			c-0.9-5.1-0.8-10.3-0.2-15.4c0.1-1,0.1-1,1.1-0.8c1.4,0.2,2.6,0.8,3.9,1.3c0.2,0.1,0.5,0.1,0.7,0.2c0.2,0,0.5-0.1,0.6-0.2
			c0.1-0.2,0-0.3-0.1-0.6c-0.1-0.2-0.5-0.3-0.7-0.5c-3.9-1.7-7.9-2.2-12.2-1.1c-0.1,0-0.2,0-0.3,0C27.8,96.1,27.5,96.3,27.5,95.9z"
			/>
		<path class="st1" d="M196.7,108.4c0,0.2,0,0.6,0,0.8c0,25.5,0,50.9,0,76.4c0,0.7-0.1,0.9-0.9,0.9c-14.7,0-29.4,0-44,0
			c-0.2,0-0.6,0-0.9,0c1.9-0.9,3.6-2.1,5-3.4c2.6-2.4,4.9-5.3,6-8.7c0.6-2.1,0.3-2.7-1.4-4c-2.4-1.8-5-3.1-7.6-4.7
			c-4.9-3.1-9.4-6.6-13.6-10.7c-0.3-0.3-0.8-0.8-1.1-1s-0.2-0.5,0-0.7c3.9-3.1,7.3-6.7,10.3-10.6c0.3-0.5,0.6-0.3,0.9-0.1
			c2.3,1,4.4,2.6,6.4,4c4.9,3.3,8.9,7.4,13,11.7c1.1,1.3,2.3,2.5,3.7,3.5c1.1,1,1.9,1,3.2,0.1c0.5-0.3,0.8-0.7,1-1.1
			c0.9-1.6,1.8-3.1,2.8-4.7c0.8-1.4,0.6-2.1-0.5-3.2c-1.3-1.3-2.9-1.9-4.5-2.3c-5.3-1.1-9.7-3.8-13.9-7c-2.6-2.1-5.2-4.1-7.8-6.2
			c-0.5-0.3-0.6-0.7-0.2-1.3c1.5-3,3-5.9,4.4-9c0.2-0.5,0.3-0.6,0.9-0.3c3.1,1.5,5.7,3.4,8.3,5.6c1.8,1.6,3.7,3.4,5.8,4.7
			c1.9,1,3.1,1,4.7-0.5c2.5-2.2,3.9-5,4.6-8.1c0.6-2.7,0.7-5.5-0.6-8.2c-0.3-0.8-0.9-1.4-1.8-1.7c-2.6-0.9-5.3-0.9-7.9-0.7
			c-3.6,0.3-7.1,0.2-10.5-0.3c-0.5-0.1-0.7-0.2-0.6-0.8c0.6-3.9,1-7.8,1.1-11.7c0-0.5,0-0.7,0.6-0.7c4.6,0,9.2,0,13.8,0.8
			c3.8,0.7,7.5,1.5,11,2.9c0.9,0.3,1.8,0.8,2.6,1.4c1.5,0.9,3.1,1.5,4.8,1.9c1.4,0.3,2.1,0,2.4-1.4
			C196.4,109.5,196.5,108.9,196.7,108.4C196.6,108.4,196.7,108.4,196.7,108.4z"/>
		<path class="st0" d="M68.1,8C75.7,9.7,80,9.6,87.4,7.5c-0.2,1.7-0.2,3.3-0.7,4.9c-1,3.4-2.5,6.7-3.3,10.3c-0.9,3.7-1.4,7.3-1,11
			c0.3,3.2,0.9,6.3,1.6,9.4c0.1,0.7,1,1,0.5,1.1c-1.8,0.5-3.8,1.5-5.5,1.9c-0.5,0.1-2.1,1.3-2.2,0.7c-0.8-4.7-2.2-10.7-3-15.3
			c-0.5-2.5-0.7-3.2-1.7-5.6c-1.3-3.1-3.4-7.5-4-10.7C67.5,12.9,68.3,10.3,68.1,8z"/>
		<path class="st0" d="M192.9,111.5c-0.5-0.2-2.3-0.7-2.8-0.9c-4.2-2.7-9.4-4.2-14.3-5c-4.5-0.8-9.5-1.7-14-1.5
			c-0.8,0-2.1,0-2.5-0.5c-0.5-0.5,0.1-2.2,0.1-3c0-0.6,0.1-1.3,0-1.8c-0.1-0.6,0.7-0.1,1.3,0c1.3,0.2,2.6,0.5,4,0.6
			c2.6,0.2,2.8-1.1,3.6-3.8c0.5-1.6,1.8-1.1,3.4-1.3c4.2-0.1,8.4-0.5,12.5-1.3c1.1-0.2,2.5-1.5,3.6-1.8c0.1,0,0.1,0.6,0.2,0.7
			C187.3,98.3,190.2,105.8,192.9,111.5z"/>
		<path class="st0" d="M11.5,130.6c1.3-3.3,0.6-6,0-9.2c-0.6-3.3-3-7.3-5-10.2c1.5,0.2,3.8,0.3,5.2,0.6c3.7,0.6,7.5,2.4,11.1,3
			c3.8,0.6,7.7,0.1,11.4-0.8c0.2-0.1,0.7-0.5,0.7,0.2c0,0.5,0.6,0.9-0.3,1.3c-2.6,1-4,3.1-4.4,5.8c-0.1,0.7-0.3,1-1,1.3
			c-2.4,0.9-4.6,3.5-6.9,4.9c-3.4,2.1-6.8,2.4-10.6,3.8C11.6,131.1,11.7,130.6,11.5,130.6z"/>
		<path class="st0" d="M47.8,129c0,2.6-1.6,2.5-3.9,3.7c-1.6,0.7-3.2,0.8-4.8,0.1c-3.9-1.5-6.7-4.1-7.6-8.2c-0.3-1.5-0.5-3,0-4.5
			c0.7-2.3,2.4-5.5,4.8-5.6c3.3-0.2,7.6,2.9,9.6,5.3C47.8,121.7,47.8,126.4,47.8,129z"/>
		<path class="st0" d="M91.5,41.8c1.1,0,2.2,1.3,3.3,1.7c4.7,1.7,6,6.9,2.5,10.5c-1.6,1.8-3.8,2.5-6.2,2.9c-1.9,0.2-3.8,0-5.5-0.8
			c-3-1.4-4.7-4.7-3.8-7.4c0.3-1.1,0.9-2.1,1.7-3C85.7,43.5,88.5,41.5,91.5,41.8z"/>
		<path class="st0" d="M168.7,92.9c0,1.6-0.2,2.7-0.9,3.9c-0.9,1.5-2.3,2.1-3.9,1.3c-2.3-1-3.8-2.9-4.8-5c-0.9-2.1-1.7-4.1-2.2-6.3
			c-0.5-1.9-0.1-3.8,0.6-5.6c0.7-1.7,2.3-2.3,4-1.5c1.5,0.6,2.5,1.7,3.4,2.9C167.4,85.6,168.6,89.2,168.7,92.9z"/>
		<path class="st0" d="M170.5,131.3c0-3.7,1.1-7.1,3.4-10.1c0.6-0.7,1.3-1.3,2.1-1.7c1.3-0.7,2.4-0.3,3.1,0.9c0.8,1.4,1,2.9,0.9,4.5
			c-0.1,3.9-1.3,7.4-3.8,10.4c-0.3,0.5-0.8,0.8-1.3,1c-1.9,1-3.2,0.6-4-1.5C170.7,133.6,170.6,132.6,170.5,131.3z"/>
		<path class="st0" d="M22,89.6c0.1-2.7,0.6-5.9,2.2-8.8c0.3-0.6,0.8-1.3,1.3-1.7c0.9-1.1,2.1-1,2.9,0.2c0.8,1.1,1,2.5,1.3,3.8
			c0.5,4.3-0.1,8.5-2.3,12.2c-0.2,0.5-0.6,0.9-1,1.4c-0.9,1-2.1,1-2.9-0.2c-0.7-0.9-0.9-1.9-1.1-3.1C22.1,92.2,22.1,91.1,22,89.6z"
			/>
		<path class="st0" d="M158,45.4c0.7,0,1.3,0.2,1.8,0.7c4.1,3.2,7,7.2,8.5,12.2c0.2,0.8,0.5,1.6,0.3,2.4c-0.2,1.1-0.8,1.6-1.9,1.1
			c-1-0.3-1.9-0.9-2.8-1.7c-3.4-3.1-6.1-6.7-7.2-11.2c-0.2-0.8-0.2-1.6-0.1-2.5C156.8,45.7,157.3,45.4,158,45.4z"/>
		<path class="st0" d="M11.2,126.2c0,1.6-0.1,2.9-0.6,4.1c-0.5,1.1-1,1.3-2.1,0.5c-1.4-1.1-2.1-2.7-2.8-4.3
			c-1.1-2.6-1.7-5.4-1.9-8.2c-0.1-1.7,0.1-3.3,0.6-5c0.3-1.1,1-1.4,1.9-0.6c0.8,0.7,1.5,1.6,1.9,2.5
			C10.3,118.7,11.1,122.5,11.2,126.2z"/>
		<path class="st0" d="M44.6,163.7c-1.1,0-1.9-0.3-2.9-0.7c-4.1-1.9-7.8-4.7-10.5-8.3c-0.6-0.8-1-1.6-1.4-2.6
			c-0.2-0.8,0-1.3,0.9-1.1c1,0.1,1.9,0.2,2.9,0.7c4.6,1.9,8.3,4.8,11.2,8.7c0.3,0.5,0.6,0.9,0.8,1.5C46.3,163.2,46,163.7,44.6,163.7
			z"/>
		<path class="st0" d="M37.7,43.8c0.1-2.2,0.8-3.4,1.6-4.7c2.2-3.7,5.2-6.4,9.2-7.9c1.5-0.6,2.2,0,2.1,1.6c-0.1,1-0.5,2.1-1,2.9
			c-1.9,3.4-4.5,6.3-7.9,8.2c-0.6,0.3-1.1,0.6-1.7,0.8C38.4,45.2,37.7,44.6,37.7,43.8z"/>
		<path class="st0" d="M160.5,173.7c-0.1,0.8-0.5,1.7-0.9,2.7c-1.5,3-3.7,5.3-6,7.5c-1.3,1.1-2.6,1.7-4.2,2.1
			c-0.9,0.2-1.4-0.2-1.4-1.1s0.2-1.8,0.6-2.6c1.8-3.7,4.2-6.9,7.7-9c0.7-0.5,1.5-0.9,2.3-1.1C159.9,171.7,160.4,172,160.5,173.7z"/>
		<path class="st0" d="M117,21.1c0.5,0,1.1,0.2,1.7,0.5c3.4,1.6,6.7,3.7,9.2,6.5c1.1,1.3,2.3,2.6,2.9,4.2c0.1,0.5,0.3,0.9-0.1,1.3
			s-0.9,0.5-1.5,0.3c-5-1.6-9.1-4.8-12.3-8.9c-0.6-0.7-1-1.5-1.3-2.3C115.2,21.5,115.7,21,117,21.1z"/>
		<path class="st0" d="M105.3,180c-3.2-0.1-6.3-0.7-9.1-2.3c-0.5-0.2-0.9-0.6-1.3-0.9c-0.8-0.7-0.7-1.6,0.1-2.3
			c0.9-0.7,2.1-0.7,3.2-0.8c3.8-0.5,7.3,0.2,10.7,1.9c0.7,0.3,1.3,0.9,1.8,1.6c0.5,0.7,0.5,1-0.2,1.5c-1.4,1-3.1,1.3-4.7,1.4
			C105.7,180,105.6,180,105.3,180z"/>
		<path class="st0" d="M78.2,180.7c-2.8-0.2-5.5-0.7-7.9-2.5c-0.5-0.3-0.8-0.8-1.1-1.3c-0.7-1-0.5-1.8,0.7-2.4
			c1.4-0.7,2.8-0.9,4.2-0.8c3,0.2,5.8,0.9,8.1,2.9c0.7,0.6,1.4,1.1,1.1,2.2c-0.1,0.9-1,1.1-1.8,1.4
			C80.6,180.7,79.4,180.7,78.2,180.7z"/>
		<path class="st0" d="M194.1,110.5c-1.6-0.8-2.3-2.2-2.9-3.7c-1.8-4.1-2.9-8.3-2.6-12.8c0-0.7,0.1-1.3,0.3-1.9c0.3-1,0.9-1,1.6-0.2
			c0.9,1.1,1.6,2.4,2.2,3.7c1.8,4.2,2.4,8.8,2.2,13.4C194.7,109.6,194.3,110.2,194.1,110.5z"/>
		<path class="st0" d="M80.1,4.7c1.4,0,2.8,0,4.1,0c0.9,0,1.7,0.2,2.5,0.7C87,5.5,87.3,5.6,87.2,6c0,0.3-0.3,0.3-0.6,0.5
			c-1.6,0.7-3.3,1.1-5,1.3c-3.2,0.2-6.4,0.1-9.6,0c-0.9,0-1.8-0.2-2.8-0.6C69,7.1,68.5,7,68.5,6.7c0-0.2,0.3-0.3,0.6-0.5
			c1.6-1,3.4-1.3,5.3-1.5C76.2,4.6,78.2,4.6,80.1,4.7z"/>
		<path class="st0" d="M196.2,107.9c0-0.3,0-0.8,0-1.1c0,0,0,0,0.1,0C196.3,107.2,196.3,107.5,196.2,107.9
			C196.2,108,196.2,108,196.2,107.9z"/>
		<path class="st0" d="M27.9,95.9c0.1,0.2,0.3,0.1,0.6,0.2c-0.2,0.1-0.5,0.2-0.7,0.1C27.7,96.1,27.8,96,27.9,95.9z"/>
	</g>
	<path class="st0" d="M47,141.4c-1.6-2.5-4.6-4.6-5.5-7.3c-6.3-1-9.7-4.9-11.1-11c-2.5,0.8-4.8,2.1-7.1,3.4c-3.3,2.1-6.9,3.9-10.7,5
		c-0.3,0.1-0.7,0.2-1.1,0.3c-1.3,0.3-2.3,0-3.3-0.8c-1.4-1.3-2.1-2.9-2.9-4.6c-1.5-3.4-2.1-7.2-2.1-10.9c0-1.1,0.1-2.3,0.7-3.3
		c0.7-1,1.3-1.4,2.4-1.1c1.1,0.2,2.2,0.2,3.1,0.3c3.4,0.6,7.1,1.1,10.5,1.8c4.6,0.7,9.3,0.8,13.9-0.3c0.5-0.1,0.8-0.2,1.4-0.5
		c-0.7-5-0.7-10.1,0.1-15.2c-1.6-0.2-3.1-0.2-4.6,0.1c-1.7,0.3-3.3,0.7-4.9,1c-1.1,0.2-1.9-0.2-2.6-1c-0.6-0.7-0.8-1.5-1.1-2.3
		c-0.7-2.4-0.7-4.9-0.5-7.4c0.2-2.4,0.9-4.6,1.9-6.9c0.6-1.1,1.1-2.1,2.2-2.9c0.9-0.7,2.2-0.7,3,0c1.3,1,2.6,2.1,3.9,3.2
		c1.5,1.3,2.9,2.7,4.4,4c0.2,0.2,0.6,0.5,0.9,0.7C41.2,75.2,47,66.5,55,59.1c-0.2-0.3-0.3-0.6-0.5-0.7c-3.6-3.4-7.2-7-11.4-9.6
		c-1.4-0.8-2.8-1.6-4.1-2.4c-1.9-1.1-2.2-2.1-1.5-4.2c0.7-2.4,2.2-4.5,3.9-6.2c1.1-1.3,2.4-2.5,3.8-3.5c1.1-0.9,2.5-1.7,4-1.8
		c0.9-0.1,1.7,0.2,2.3,0.9c2.4,3,3.3,6.4,4,9.9c0.7,4.2,2.2,8,4.6,11.6c0.2,0.5,0.6,0.7,0.8,1.1c3.8-2.6,7.8-4.8,12-6.6
		c-0.3-1.5-0.7-3-1-4.3c-0.9-3.3-1.5-7-2.9-10.2c-0.7-1.4-1.3-2.9-1.9-4.2c-0.6-1.1-1.4-1.9-2.5-2.6c-0.6-0.3-1.1-0.7-1.7-0.9
		c-0.9-0.7-1.3-1.7-1-2.9c0.3-1.3,1.1-2.1,2.2-2.7c1.1-0.7,2.4-0.9,3.7-1c0.3,0,0.6-0.1,0.8-0.1c-0.3-1.8-0.7-3.5-0.8-5.4
		c0-1.6,0-3.4,0-5.1c0-1,0.6-1.8,1.6-2.1c1.7-0.5,3.3-0.9,5.2-1.3c3.1-0.5,6.1-0.5,9.2-0.1c1.1,0.1,2.4,0.3,3.6,0.6
		c0.9,0.2,1.3,0.8,1.1,1.8c-0.1,0.7-0.1,1.3,0,1.9c0.1,2.9-0.7,5.5-1.7,8.1c-2.3,5.5-3.4,11.2-3,17.2c0.2,2.7,0.8,5.4,1.3,8.1
		c0.1,0.3,0.2,0.7,0.3,0.9c1.6-0.5,3.1-0.9,4.6-1.3c1.9-0.5,4-0.1,6,0.7c0.6,0.2,1,0.5,1.6,0.5c3.9,0,7.8,0.3,11.7,1
		c0.1,0,0.2,0,0.2,0c0-1.1-0.1-2.3,0-3.5c0.3-3.1,0.7-6.2,1-9.3c0-0.3,0.2-0.7,0.3-0.9c1.3-2.9,2.4-5.7,4.2-8.3c0.5-0.7,1-1,1.8-0.9
		c1.1,0.2,2.4,0.3,3.4,0.8c4.4,1.9,7.9,4.9,10.5,8.9c0.6,0.7,0.7,1.6,1,2.4c0.3,0.7-0.1,1.4-0.6,1.9c-1.7,1.9-3.9,3.2-6.3,4.1
		c-3.3,1.4-5.7,3.8-7.5,7c0.5,0.2,0.7,0.5,1,0.6c3.6,1.3,7,3,10.3,4.7c1.3,0.7,2.5,1.7,3.7,2.5c1.9,1.4,3.8,2.9,5.8,4.1
		c1.9,1.3,3.3,3,4.8,4.6c0.5,0.6,0.9,0.9,1.5,1.6c1.4-1.9,2.8-3.5,4-5.4c1.9-3.1,4-6.2,6-9.3c0.6-0.7,0.8-1.6,0.8-2.5
		c0.1-1.8,1.5-2.5,3.3-1.9c2.1,0.7,3.8,2.1,5.2,3.9c2.3,2.9,4.4,5.9,5.3,9.5c0.2,0.9,0.2,1.9,0.2,3.1c0,0.9-0.7,1.5-1.5,1.7
		c-1.6,0.5-3.2,0.8-4.8,0.7c-3.3-0.2-6.4,0.7-9.4,2.3c-1.4,0.7-2.8,1.6-4.1,2.3c-0.3,0.2-0.6,0.5-0.7,0.6c2.2,3.9,4.4,7.7,6.5,11.6
		c0.8-1.4,2.4-1.5,3.8-1.9c1.3-0.5,2.6,0,3.8,0.7c2.5,1.7,4,4.1,5.2,6.7c1,2.3,1.5,4.8,1.7,7.4c1.6,0,3.2,0.1,4.7,0
		c2.8-0.2,5.5-0.5,8.3-0.9c2.1-0.5,4.1-1.1,6.1-1.8c0.7-0.2,1.1-0.2,1.6,0.2c0.7,0.7,1.3,1.4,1.8,2.2c0.7,1.1,1.1,2.4,1.7,3.8
		c0.9,3,1.8,5.9,1.9,8.9c0.1,1.4,0,2.7-0.3,4c-0.3,1.4-1,1.8-2.4,1.4c-1.4-0.5-2.9-0.8-4-1.6c-4-2.5-8.6-3.4-13.1-4.5
		c-5-1-10.1-1-15.3-1c-0.1,0-0.2,0-0.5,0.1c-0.1,2.2-0.2,4.3-0.5,6.5c-0.2,2.1-0.6,4.2-0.8,6.4c1.3,0.5,2.8,0.5,4.1,0.7
		c3.6,0.5,7.2-0.2,10.7-0.2c1.5,0,3,0.5,4.5,0.8c0.8,0.2,1.5,0.8,1.7,1.6c0.5,0.9,0.8,1.9,0.9,3.1c0.3,3.9-0.6,7.5-2.6,10.9
		c-0.8,1.4-1.9,2.4-3.3,3.3c-1,0.7-2.2,0.6-3.3-0.1c-2.4-1.3-4.5-3.3-6.4-5c-2.6-2.3-5.5-4.3-8.6-5.7c-1.7,3.5-3.3,7.1-5,10.4
		c2.6,2.1,5.3,4.3,8,6.4c1.6,1.3,3.3,2.3,4.9,3.4c2.9,1.9,6.1,3,9.4,3.8c1.6,0.5,3.2,0.9,4.4,2.2c1,1,1.1,1.8,0.6,3.1
		c-0.9,1.7-1.8,3.3-2.9,4.8c-0.3,0.6-0.7,0.9-1.3,1.3c-1.1,0.7-1.9,0.7-2.9-0.2c-1.1-1-2.3-2.2-3.3-3.3c-3.8-4-7.6-8.1-12.2-11.2
		c-2.4-1.7-4.7-3.5-7.5-4.8c-0.2-0.1-0.5-0.2-0.7-0.3c-3.2,4.2-6.8,8.1-11.1,11.4c1.5,1.4,2.9,2.6,4.2,3.9
		c4.4,3.9,8.9,7.2,13.9,10.1c1.9,1,3.8,2.2,5.5,3.5c0.7,0.7,0.9,1.5,0.7,2.4c-0.3,1.9-1.1,3.4-2.2,5c-1.6,2.4-3.4,4.5-5.8,6.1
		c-0.7,0.6-1.5,1-2.2,1.5c-0.7,0.3-1.4,0.6-2.1,0.7c-0.9,0.1-1.6-0.5-1.9-1.3c-0.2-0.6-0.6-1-0.7-1.6c-0.7-1.4-1.5-2.7-1.9-4.1
		c-3.1-7.5-7-14.5-12.4-20.7c-0.3-0.5-0.7-0.7-0.8-1c-3.4,1.7-6.7,3.4-10,4.8c-3.3,1.4-7,2.3-10.2,3.3c0.6,1.9,1,3.8,1.5,5.8
		c0.2,1.4,0.1,2.7,0.2,4.1c0,0.5-0.1,0.7,0,1.1c0.1,1.1-0.3,1.9-1.4,2.3c-1.1,0.5-2.3,0.8-3.4,0.9c-3.4,0.3-6.9-0.1-10.1-1.6
		c-1-0.5-1.9-1-2.8-1.9c-0.6-0.6-0.7-1.1-0.7-1.9c0.5-1.9,0.9-3.7,2.1-5.3c0.6-0.7,1-1.5,1.7-2.3c-4.5-0.5-8.7-0.9-13.1-1.4
		c-0.5,1.6-0.3,3.2-0.2,4.7c0.1,1.6,0.3,3.3,0.3,4.8c0,0.9,0,1.9-0.2,2.9c-0.2,1.3-1.1,1.9-2.2,2.2c-1.6,0.6-3.2,0.7-4.8,0.5
		c-2.4-0.2-4.6-0.9-6.8-2.1c-1-0.6-1.9-1.4-2.4-2.4c-0.3-0.7-0.2-1.5,0.1-2.2c1.1-2.7,2.5-4.9,4.4-7.2c0.8-1.1,1.5-2.7,2.4-4
		c-8.3-3.4-15.3-7.5-21.6-13.8c-0.9,1.1-1.8,2.4-2.4,3.8c-0.7,1.7-1.3,3.4-1.9,5.3c-0.7,1.7-1.3,3.3-1.9,4.9
		c-0.3,0.7-1.3,1.1-2.2,0.9c-1.3-0.3-2.6-0.7-3.8-1.1c-3.7-1.9-7.1-4.2-9.7-7.4c-0.7-0.7-1.3-1.7-1.7-2.5c-0.8-1.9-0.5-2.6,1-3.7
		c1.1-0.8,2.4-1.5,3.7-1.9c1.9-0.9,4.1-1.8,6.2-2.5c1.9-0.7,3.7-1.8,5.4-3.1C46.7,141.6,46.8,141.5,47,141.4z M99.8,144
		c0.1,0,0.2,0,0.3-0.1c0.1,0.3,0.3,0.6,0.5,0.8c0.2,0.9,0.5,1.9,0.7,2.9c0.7,4.1,1,8.1,0.5,12.2c-0.3,2.2-0.9,4.3-2.1,6.1
		c-1,1.5-2.1,3-3.2,4.5c-0.6,0.8-1.1,1.7-1.4,2.7c6-1.6,11.2-0.8,16.5,2.6c-0.1-1.4-0.2-2.5-0.5-3.7c-0.6-3.2-1.8-5.9-3.3-8.6
		c-3.3-5.4-3.9-11.2-3.8-17.3c0-0.2,0.2-0.5,0.5-0.9c0.6,0.7,0.7,1.4,0.7,1.9c0.1,1.9,0.1,3.8,0.2,5.8c0.3,4.6,2.4,8.5,4.6,12.4
		c6.2-0.8,17.7-5.8,20.2-8.1c-1.1-1.5-2.9-2.5-3.6-4.3c0.7-0.5,0.9-0.1,1.3,0.2c1.1,1.3,2.2,2.5,3.3,3.7c2.9,2.9,5.3,5.9,7.3,9.3
		c2.9,4.7,5.5,9.6,7.2,14.9c0.3,0.7,0.7,1.5,1.1,2.4c2.4-5.8,6.1-10.1,11.8-12.7c-0.9-0.6-1.8-1-2.6-1.5c-4.5-2.2-8.5-5.1-12.4-8.2
		s-7.2-6.7-11.2-9.7c-0.3-0.2-0.5-0.6-0.7-0.8c0.1-0.1,0.2-0.2,0.2-0.3c1.8,0.5,2.9,1.9,4.4,2.9c3.2-2.5,6.1-5.4,8.6-8.6
		c0.8-1,1.9-1.9,2.3-3.2c0-0.2,0.7-0.3,0.9-0.2c0.2,0,0.6,0.3,0.7,0.5c5.3,2.9,10,6.4,14.2,10.5c2.4,2.3,4.6,4.7,6.9,7.2
		c0.7,0.7,1.5,1.3,2.2,1.8c0.9,0.7,1.6,0.6,2.2-0.5c1-1.5,1.9-3.1,2.9-4.7c0.7-1.5,0.6-2.3-0.9-3.1c-1.1-0.7-2.3-1-3.6-1.4
		c-4.6-1.1-8.6-3.2-12.4-5.9c-3.3-2.5-6.7-5.1-10-7.8c-0.3-0.2-0.1-0.2-0.2-0.3c0.3-0.7,0.7-1.5,0.8-1.9c0.9-1.8,1.9-3.5,2.8-5.4
		c0.7-1.3,1-2.6,1.7-4c-2.2-0.9-4.2-1.7-6.3-2.1c-2.5-0.6-5-0.7-7.6-0.3c-0.7,0.1-1.4,0.1-1.9-0.7c0.7-0.1,1.1-0.2,1.7-0.2
		c2.3-0.1,4.7-0.3,7.1-0.1c2.9,0.2,5.4,1.4,8,2.4c2.1,0.8,4,2.1,6,3.4c2.2,1.7,4.2,3.5,6.3,5.4c0.3,0.3,0.7,0.7,1.1,0.9
		c-1.1-6.5,0.3-12,5.2-16.5c-1,0-1.9-0.1-2.9,0c-2.8,0.2-5.4,0.5-8.1,0.3c-2.8-0.1-5.4-0.6-8-1c-2.4-0.5-4.8-0.9-7.2-1.5
		c-1.1-0.2-2.3-0.5-3.4-0.7c-1.3-0.3-2.4-0.7-3.7-1.1c-0.2-0.1-0.6-0.2-0.7-0.3c0.2-0.6,0.7-0.6,1-0.5c0.9,0.2,1.9,0.3,2.9,0.6
		c4.1,0.8,8.1,1.8,12.3,2.7c0.3,0.1,0.7,0.1,1.3,0.1c0.3-2.6,0.7-5,0.9-7.5c0.2-3.3,0.3-6.5-0.1-9.9c-0.1-1.1-0.1-1.1-1.3-1.4
		c-4.6-0.9-9.1-1.3-13.6-1.4c-1.9,0-3.9,0.3-6,0.5c-0.2,0-0.6,0-0.7,0c0-0.1-0.1-0.2-0.1-0.5c0-0.1,0-0.2,0-0.5
		c2.6-0.7,5.3-0.7,7.9-0.7c2.8,0.1,5.4,0.3,8.1,0.7c2.6,0.3,5.2,0.8,7.8,1.4c-2.2-2.3-3.8-5-4.6-8.1c-0.8-3-1.3-5.9-0.2-9.1
		c-3.2,2.5-6.1,5.3-9.7,7c-3.6,1.7-7.3,3-11.4,3.8c-0.1-0.3-0.2-0.7-0.3-0.9c7.2-1.6,14-4.2,19.4-9.4c-1.8-4.1-3.9-8-6.5-11.6
		c-5.8,3.5-9.5,8.9-13.8,14.2c0-0.6-0.1-0.8,0-1c0.1-0.3,0.3-0.6,0.5-0.7c1.7-2.1,3.3-4.2,4.9-6.2c1-1.3,1.9-2.4,3.2-3.4
		c3.3-3,7.1-5.3,11.1-7.2c3.1-1.5,6.2-2.4,9.7-1.9c0.6,0.1,1-0.1,1.6-0.1c-2.3-1.6-4.1-3.5-5.7-5.8c-1.6-2.2-2.9-4.6-3.7-7.3
		c-0.2,0.1-0.3,0.2-0.3,0.2c-1.9,3.1-3.7,5.9-5.7,9c-2.8,4.2-6,8-10.1,11c-1.5,1-2.9,2.3-4.4,3.4c-0.9,0.7-1.8,1.5-2.8,2.2
		c-0.6,0.5-1,0.5-1.7,0c4.5-3.5,9.1-6.9,13.3-10.9c-1.3-1.3-2.3-2.5-3.6-3.5c-2.3-1.9-4.7-3.5-7.1-5.5c-3.3-2.9-7.2-5-11.2-6.9
		c-1.7-0.7-3.3-1.4-5.2-2.1c-0.3,0.7-0.6,1.1-0.7,1.7c-0.9,3.1-1.5,6.1-1.6,9.3c0,1,0,2.1,0,3.1c0,0.2-0.2,0.6-0.3,0.7
		c-0.7-0.3-0.7-0.8-0.7-1.4c-0.1-2.4,0.1-4.8,0.6-7.3c0.6-2.7,1-5.6,2.8-8c1.9-3.1,4.6-5.5,8-6.9c1.3-0.6,2.4-1.1,3.6-1.7
		c0.5-0.2,0.7-0.6,1-0.8c-6.5-2.2-11.5-6.1-15-12.1c-0.5,0.9-0.9,1.9-1.4,2.9c-0.7,1.9-1.7,3.9-2.1,5.9c-0.7,3.2-0.9,6.3-0.8,9.6
		c0.1,2.6,0,5.3,0,8c0,0.9,0,1.9-0.2,3c-0.5,2.1-0.8,4.1-1.3,6.1c-0.1,0.7-0.2,1.3-0.5,1.9c-0.1,0.5-0.1,1-0.8,0.9
		c-0.6-0.1-0.3-0.7-0.2-1c0.2-0.7,0.3-1.4,0.6-2.1c0.6-2.5,1.4-5.1,1.4-7.8c0-1.1,0-2.2,0-3.3c0-0.7,0.1-1.5,0.2-2.3
		c-3.8-0.7-7.3-1.3-11.4-1c0.6,0.7,0.8,1,1.3,1.4c1.8,1.9,2.2,5,0.7,7.5c-0.5,0.7-0.8,1.1-1.3,1.8c-0.7,1.4-1.6,2.6-2.2,4
		c-0.5,0.9-0.6,1.9-0.5,3.2c0.3,2.4,0.9,4.6,1.8,7c0.1,0.3,0.5,0.7-0.1,0.9c-0.6,0.2-0.7-0.3-0.8-0.7c-0.1-0.2-0.2-0.5-0.3-0.7
		c-0.5-1.5-0.9-3.1-1.3-4.6c-0.6-2.3-0.6-4.6,0.7-6.9c0-0.1,0-0.2,0.1-0.5c-3,1.5-6,1.7-9.3,0.8c0.3,0.5,0.5,0.7,0.6,0.8
		c1.1,1.8,1.8,3.7,1.8,5.8c0,3-0.1,5.9-0.2,8.8v0.1c-0.1,0.2-0.3,0.7-0.5,0.7c-0.5,0-0.6-0.3-0.6-0.7c0-1.6,0.1-3.1,0.1-4.6
		c0-1.9,0.2-3.9,0-5.8c-0.3-3-2.1-5-4.4-7c-2.9-2.4-3.4-6.2-1.5-9.3c0.1-0.2,0.3-0.6,0.7-0.9c-2.2,0.7-4.2,1.1-6.3,1.8
		c-0.7-3.5-1.3-7.1-1.8-10.5c-0.5-2.4-0.7-4.9-1.6-7.3c-0.5-1-0.8-2.1-1.3-3.2c-0.7-1.9-1.6-3.8-2.2-5.7c-0.2-0.7-0.7-0.8-1.3-0.8
		c-1.4,0.1-2.8,0.5-3.9,1.1c-0.6,0.5-1,0.9-1.4,1.5C62.6,23.1,63,24,64,24.6c0.5,0.3,0.8,0.6,1.4,0.7c1.5,0.7,2.4,1.7,3.1,3.2
		s1.3,3,1.9,4.5c1.4,3.3,1.9,7,2.9,10.3c0.3,1.3,0.6,2.6,0.8,3.9c0.2,0.8,0.3,0.9-0.5,1.1c-3.4,1.3-6.7,3.1-9.7,5
		c-0.7,0.6-1.6,1-2.4,1.6c0.8,1,1.6,2.1,2.4,3.1c1.1,1.4,2.4,2.6,3.7,3.9c0.2,0.3,0.7,0.7,0.3,0.9c-0.5,0.5-0.7,0-1-0.3
		c-0.5-0.5-0.8-0.9-1.3-1.4c-2.1-1.9-3.9-4.3-5.5-6.7c-1.9-3.1-3.7-6.3-4.6-9.9c-0.6-2.2-0.9-4.5-1.5-6.6c-0.5-1.6-0.8-3.1-1.9-4.5
		C49.9,39.2,46,43.3,40.3,46c1.3,0.7,2.5,1.3,3.7,1.9c4.8,3.2,9.2,7,13,11.2c1.9,2.1,3.3,4.5,5,6.6c0.2,0.3,0.5,0.7,0.5,0.9
		s-0.1,0.5-0.2,0.7c-0.2-0.1-0.6-0.1-0.7-0.2c-0.2-0.2-0.3-0.6-0.6-0.7c-1.6-2.5-3.4-4.7-5.4-7C48.1,65.9,41,76.3,38.4,85.9
		c1,0.6,2.1,1.1,3.3,1.7c1.1,0.6,2.3,0.8,3.4,1.3c0.5,0.1,0.9,0.2,0.8,1c-0.5-0.1-0.9-0.1-1.4-0.2c-4.4-1.1-7.9-3.5-11-6.9
		c-0.8-0.9-1.9-1.8-3.2-2.9c1.1,5.9,0.6,11.2-2.5,16.5c0.5-0.1,0.8-0.1,1.1-0.2c4.1-1,8-0.7,11.8,1c0.3,0.1,0.7,0.2,0.8,0.5
		c0.1,0.1,0.2,0.5,0.2,0.6c-0.1,0.1-0.3,0.3-0.6,0.3s-0.7-0.2-0.9-0.3c-1.5-0.6-3-1-4.6-1.3c-0.7,5.9-0.8,11.8,0.3,17.4
		c1.5,0.2,2.8,0.5,4,0.7c0.9,0.2,1.8,0.6,2.8,0.7c0.8,0.1,1.7,0.2,2.5,0.2c4,0.5,8,0.3,11.9-0.7c0.6-0.1,1-0.1,1.7-0.1
		c-0.7,0.8-0.7,0.8-1.5,1c-4,1-8.1,0.9-12.2,0.7c-0.7-0.1-1.5-0.1-2.4-0.2c3.4,2.9,5.5,6.3,5.5,10.6c0.2-0.2,0.5-0.6,0.6-0.7
		c1.4-2.3,3.2-4,5.8-4.6c2.1-0.5,4.2-0.7,6.3-0.9c0.5,0,0.8,0.2,1.3,0.3c0,0.1,0,0.2,0,0.3c-0.5,0.1-0.8,0.3-1.3,0.3
		c-1.4,0.1-2.8,0.2-4.1,0.5c-3,0.5-5.4,1.6-7.1,4.1c-0.9,1.5-1.8,2.9-2.9,4.2c-0.5,0.7-0.9,1.3-1.6,1.7c-0.9,0.7-1.9,0.9-3.1,1.5
		c1.3,2.3,2.6,4.6,4.5,6.7c0.2-0.2,0.5-0.2,0.6-0.3c1.9-1.9,3.8-3.7,5.7-5.6c1.4-1.5,2.6-3.1,3.9-4.6c0.2-0.3,0.5-0.7,1-0.7
		c-0.1,0.3-0.2,0.7-0.3,0.8c-0.6,0.7-0.9,1.5-1.6,2.2c-1.6,1.8-3.3,3.7-4.9,5.5c-3.2,3.4-6.4,6.3-10.7,8c-2.5,0.9-5.6,2.5-8.1,3.7
		c-0.2,0.1,5.5,2.3,8.1,4.2s4.9,4.3,6.7,7.4c0.7-1.9,1.3-3.4,1.6-5.1c0.8-3.8,3.1-6.9,5.3-9.8c1.7-2.3,3.9-4.2,6-6.2
		c1.4-1.3,2.9-2.4,4.2-3.5c0.3-0.3,0.7-0.7,1.5-0.2c-4.6,3.5-8.6,7.4-12,12c4.6,5.3,16.9,12.2,22.1,14c0.5-1.3,0.9-2.4,1.3-3.7
		c0.5-1.6,0.7-3.2,1.1-4.7c0.1-0.5,0.1-1,0.9-1.1c0,0.3,0.1,0.7,0,0.9c-0.1,0.6-0.2,1-0.3,1.6c-0.7,3.8-1.9,7.3-4.1,10.5
		c-1.3,1.8-2.3,3.7-3.7,5.5c-0.3,0.5-0.6,0.8-0.9,1.4c5.3-1.3,9.5-0.1,13.6,3.2c-0.1-1.3-0.2-2.4-0.3-3.4c-0.5-3.3-0.3-6.5,0.3-9.8
		c0.3-1.8,0.8-3.4,1.1-5.3c0.2-1.1,0.5-2.2,0.7-3.3c0.1-0.5,0.2-0.7,0.7-0.7c0.2,0.1,0.3,0.6,0.5,0.8c0,0.1,0,0.2,0,0.2
		c-0.6,2.1-0.9,4.2-1.5,6.3c-0.3,1.4-0.7,2.7-0.9,4.3c4.7,0.7,9.3,1.1,13.9,1.3c1.9-2.9,2.8-5.9,2.9-9.3c0.1-3.9-0.3-7.8-1-11.6
		C99.7,145.1,99.8,144.6,99.8,144z M68.1,8.5c0.2,1.9,0.2,3.9,0.6,5.8c0.2,1.6,0.7,3.1,1.1,4.6c1,2.9,2.3,5.6,3.4,8.5
		c0.6,1.3,1,2.5,1.4,3.9c0.7,3.8,1.4,7.7,2.1,11.6c0.2,1.1,0.3,2.2,0.6,3.4c2.3-0.7,4.6-1.3,6.9-1.9C84,44.1,84,43.8,84,43.6
		c-0.7-3.1-1.3-6.2-1.6-9.3C81.8,29,83,23.8,84.7,18.8c0.7-1.9,1.5-4.1,2.1-6.1c0.5-1.5,0.5-3.1,0.7-4.7c-3.1,1.4-6.3,1.6-9.5,1.8
		C74.7,9.9,71.5,9.7,68.1,8.5z M159.9,103.4c1.5-0.1,2.8-0.2,4-0.2c4.5-0.1,8.8,0.6,13.2,1.4c4.5,0.8,8.6,2.2,12.5,4.6
		c0.6,0.3,1.1,0.6,1.9,0.9c-3.1-5.9-4.6-11.8-3.8-18.2c-1.3,0.5-2.4,0.9-3.7,1.3c-3.3,0.7-6.9,1.1-10.3,1.3
		c-1.4,0.1-2.8,0.1-4.1,0.1c-0.2,0.7-0.3,1.1-0.5,1.6c-0.8,2.7-2.4,3.7-5.3,3.3c-1.4-0.2-2.8-0.5-4.2-0.7
		C159.7,100.3,159.8,101.7,159.9,103.4z M35.4,115.2c-0.1-0.6-0.2-1-0.3-1.5c-0.3,0.1-0.7,0.1-0.8,0.2c-4.1,1-8.4,1.4-12.6,0.7
		c-2.9-0.6-5.7-0.9-8.6-1.5c-1.6-0.3-3.3-0.6-5.2-0.9c0.1,0.2,0.1,0.3,0.1,0.5c3.1,4.1,4.1,8.7,4.5,13.7c0.1,1.7-0.2,3.3-0.8,4.9
		c0.5-0.1,0.7-0.2,1-0.3c2.2-0.9,4.5-1.9,6.5-3.1c2.8-1.4,5.3-3.1,7.9-4.6c1-0.6,2.1-0.9,3.2-1.4C30.6,118.7,31.9,116.3,35.4,115.2z
		 M41.6,133c0.5-0.1,1-0.1,1.6-0.2c2.4-0.7,4-2.9,4-5.6c0.1-3.7-1.5-6.6-4.1-8.9c-1.6-1.4-3.3-2.2-5.5-2.3c-2.6-0.1-5.2,1-6,4
		c-0.5,1.4-0.3,2.7-0.1,4.1c0.3,2.2,1.5,4.1,3.1,5.7C36.5,131.7,38.6,133,41.6,133z M90.3,56.9c1.6-0.1,3-0.3,4.4-0.8
		c2.3-0.9,3.9-2.5,4.7-4.9c0.8-2.3,0-4.7-1.9-6.4c-1.4-1.1-3.3-1.7-4.5-1.9c-1.9,0-3.3-0.6-6.7,0.8c-0.1,0.1-1.7,1.1-2.8,2.3
		c-1.8,1.9-2.3,5.1-0.5,7.5C85,56.1,87.6,56.7,90.3,56.9z M168.4,93.1c-0.2-4.1-1.5-7.5-3.9-10.6c-0.8-1-1.7-1.9-3-2.5
		c-1.9-1-3.8-0.3-4.6,1.8c-0.3,0.8-0.5,1.8-0.6,2.7c-0.2,1.7,0.2,3.3,0.8,4.8c0.7,1.7,1,3.4,1.9,4.9c1,1.6,2.3,3.1,4.1,3.9
		s3.3,0.3,4.1-1.4C168.3,95.5,168.4,94.3,168.4,93.1z M179.9,124.8c0-1.5-0.3-3.2-0.7-4.1c-0.8-1.7-2.1-2.1-3.7-1.1
		c-0.7,0.5-1.3,0.8-1.8,1.5c-2.6,3.4-3.8,7.4-3.3,11.8c0.1,0.8,0.5,1.7,0.7,2.4c0.6,1.1,1.6,1.6,2.8,1.3c0.9-0.2,1.7-0.7,2.3-1.5
		C178.7,132,179.6,128.6,179.9,124.8z M30,85.5c0-0.7,0-1.4-0.1-2.1c-0.2-1.3-0.5-2.6-1-3.7c-0.9-1.7-2.2-1.8-3.3-0.3
		c-0.8,1-1.6,2.2-1.9,3.5c-0.8,2.6-1.3,5.3-1.1,8c0.1,1.8,0.2,3.4,1,5c0.9,1.8,2.3,1.9,3.4,0.3c0.7-0.7,1-1.7,1.5-2.5
		C29.4,91.3,29.9,88.5,30,85.5z M168.4,60.4c-0.1-0.3-0.1-0.8-0.2-1.3c-0.6-2.5-1.8-4.7-3.2-7c-1.5-2.3-3.4-4.2-5.7-5.9
		c-0.6-0.5-1.3-0.6-1.9-0.6c-0.6,0-0.8,0.3-1,0.9c-0.2,1.1-0.1,2.2,0.2,3.3c1.1,3.7,3.2,6.7,6,9.5c1,1,2.2,2.1,3.6,2.6
		C167.6,62.7,168.4,62.1,168.4,60.4z M11.6,127c-0.1-4.2-0.9-7.9-2.6-11.2c-0.6-1-1.1-1.9-1.9-2.9c-1-1-1.9-0.8-2.3,0.6
		s-0.6,2.7-0.6,4.2s0.3,3,0.7,4.5c0.7,2.9,1.6,5.5,3.3,7.9c0.3,0.5,0.8,0.8,1.3,1.1c0.6,0.3,1,0.2,1.4-0.3c0.2-0.3,0.5-0.7,0.6-1.1
		C11.5,128.6,11.5,127.5,11.6,127z M44.3,163.4c1.8,0,2.2-0.6,1.7-1.8c-0.3-0.7-0.7-1.5-1.3-2.1c-3-3.8-6.8-6.6-11.2-8.5
		c-0.7-0.3-1.6-0.7-2.2-0.5c-0.5,0.3-0.7,0.4-1,1.6c0.1,0.8,0.5,1.2,0.8,1.7c2.5,3.3,5.8,6.1,9.6,8C42,162.9,43.3,163.3,44.3,163.4z
		 M37.9,43.8c0,1.3,0.7,1.8,1.9,1.5c0.7-0.2,1.4-0.5,1.9-0.8c2.6-1.5,4.7-3.5,6.5-6.1c1-1.5,1.9-3,2.3-4.6c0.5-1.9-0.5-2.7-2.2-1.9
		c-1.6,0.7-3.1,1.5-4.5,2.5c-1.9,1.5-3.4,3.4-4.7,5.6C38.6,41.2,37.9,42.3,37.9,43.8z M129.4,34.6c1.4-0.1,1.7-0.6,1.3-1.8
		c-0.1-0.5-0.3-0.8-0.6-1.1c-0.7-0.9-1.4-1.9-2.1-2.9c-2.8-3-6-5.1-9.7-6.9c-0.6-0.2-1.1-0.3-1.8-0.3c-0.9,0-1.4,0.6-1,1.5
		c0.2,0.7,0.6,1.3,0.8,1.8c2.8,3.9,6.3,6.9,10.7,8.8C127.7,34.1,128.5,34.2,129.4,34.6z M160.3,173.5c0-1.7-0.5-2.1-1.6-1.9
		c-0.7,0.1-1.3,0.5-1.9,0.7c-3.4,1.9-6,4.9-7.9,8.5c-0.7,1-1,2.1-1.1,3.3c-0.1,1.3,0.3,1.7,1.5,1.5c1.3-0.3,2.5-0.7,3.6-1.6
		c2.5-2.3,4.8-4.7,6.4-7.8C159.7,175.2,160,174.1,160.3,173.5z M99.7,173.1c-0.7,0.1-1.9,0.3-3.3,0.6c-0.9,0.2-1.8,0.7-1.9,1.6
		c-0.1,0.9,0.7,1.5,1.5,1.9c1.7,1.1,3.7,1.7,5.7,2.1c2.4,0.5,4.8,0.7,7.3-0.1c0.7-0.2,1.1-0.6,1.7-0.8c0.7-0.6,0.7-0.9,0.2-1.6
		c-0.5-0.6-0.9-1-1.5-1.4C106.6,173.7,103.4,173.3,99.7,173.1z M73.2,173.4c-0.7,0.1-1.7,0.2-2.6,0.6c-1.9,0.7-2.2,1.9-0.8,3.3
		c0.8,0.8,1.9,1.6,3.1,1.9c2.4,0.8,4.8,1.4,7.5,0.9c0.8-0.1,1.7-0.5,2.4-0.8c0.8-0.6,0.9-1.3,0.5-2.1c-0.3-0.6-0.8-0.9-1.4-1.4
		C79.4,174.1,76.5,173.5,73.2,173.4z M193.6,110.7c0.3-0.7,0.7-1.1,0.7-1.7c0.1-1.5,0.1-3,0-4.5c-0.3-3.3-0.9-6.5-2.4-9.6
		c-0.6-1-1.1-2.1-1.9-3.1c-0.7-0.8-1.3-0.7-1.6,0.3c-0.2,0.7-0.3,1.4-0.3,2.1c-0.1,4.3,0.9,8.6,2.6,12.6c0.5,0.9,1,1.9,1.6,2.7
		C192.7,110,193.2,110.3,193.6,110.7z M68.5,7.3c0,0.1,0,0.2,0,0.3c0.3,0.1,0.6,0.5,0.8,0.5c1,0.2,2.1,0.6,3.2,0.6
		c2.3,0.1,4.6,0.1,7,0c2.2-0.2,4.4-0.5,6.5-1.4c0.6-0.2,1-0.2,1.3-0.8c-0.9-0.8-1.9-1.1-3.1-1.1c-2.3-0.1-4.6-0.2-7-0.1
		c-2.5,0.1-4.9,0.5-7.3,1.3C69.4,6.9,69,7.1,68.5,7.3z"/>
	
		<image style="display:none;overflow:visible;enable-background:new    ;" width="213" height="177" xlink:href="../Phase Grün/Grün 1/4A80224B.jpg"  transform="matrix(0.1861 0 0 0.1856 -11.6076 1.3755)">
	</image>
</g>
<g id="Ebene_1_1_">
	<path class="st2" d="M148,69.1l-6.3,4.9l-3.6,4.9l3.6,10.1l5.9-2.6l7.5-5.1l-2.9-5.7L148,69.1z"/>
	<path class="st2" d="M142.4,96.5c0,0-0.7,7.9-0.6,10.5c0.3,3.5,0.8,6.7,0.8,6.7l8.6,2.3l7.7,1.7l0.5-8.3l0.5-6l-0.4-5.3l-9.2-1.4
		L142.4,96.5z"/>
	<path class="st2" d="M152.6,116.9c0,0,11,4,13.9,6.4c1,0.8,3.3,4.5,3.3,4.5l4.9-9.5h-11.9L152.6,116.9z"/>
	<path class="st2" d="M144.2,123.1l-1.1,24.1l8.6-11.6l3.9-9.5l-5.5-2.6L144.2,123.1z"/>
	<path class="st2" d="M173.4,152.6c-2.1-0.7-2.8-0.7-2.9-0.7c-0.2,0.3,0.7,1,1.1,1.5c0.1,0.2,1.5,1.6,2.8,1.1c0.5-0.2,0.9-0.7,0.8-1
		C175.2,153.3,174.8,153.2,173.4,152.6z"/>
	<path class="st2" d="M116.6,46.6L115,53l-0.5,7.2c0,0,3.1,5.3,4.6,6.4c3.6,2.5,8,2.3,10.5,3.5c1.1,0.7,4.5,3.1,4.5,3.1l8-6.3
		l1.8-2.2l-5.7-6.6c0,0-8.7-5.9-12.6-7.9c-2.1-1-8.6-3.4-8.6-3.4"/>
	<path class="st2" d="M168.3,93.1c-0.2-4.1-1.5-7.5-3.9-10.6c-0.8-1-1.7-1.9-3-2.5c-1.9-1-3.8-0.3-4.6,1.8c-0.3,0.8-0.5,1.8-0.6,2.7
		c-0.2,1.7,0.2,3.3,0.8,4.8c0.7,1.7,1,3.4,1.9,4.9c1,1.6,2.3,3.1,4.1,3.9s3.3,0.3,4.1-1.4C168.3,95.6,168.3,94.3,168.3,93.1z"/>
	<path class="st2" d="M98,43.8c0,0,1.7,2.3,1.9,2.9c0.8,2.7,0.9,3.2,0.9,3.2l7.9,4c0,0,0.3-1.8,0.5-2.6c0.1-1.5,0.1-6.4,0.1-6.4
		s-3.8-0.7-5.6-0.9C101.5,43.7,98,43.8,98,43.8z"/>
	<path class="st2" d="M91.5,57.8c0,0,0.9,8.1,2.4,10.1C94.4,68.6,97,69,97,69s-0.9-3.3-1.3-4.6c-0.2-0.9-0.5-3.5-0.5-4.5
		c0-0.9,0.8-3.7,0.8-3.7L91.5,57.8z"/>
	<path class="st2" d="M52,35.7l-1.3,2.6c0,0,1.9,4.6,2.9,4.3C54.6,42.2,52,35.7,52,35.7z"/>
	<path class="st2" d="M81.5,44.9c2.3-0.7,0.6,0,2.9-0.7c-0.1-0.2-0.1-0.5-0.1-0.7c-0.7-3.1-1.3-6.2-1.6-9.3
		c-0.6-5.4,0.6-10.5,2.3-15.6c0.7-1.9,1.5-4.1,2.1-6.1c0.5-1.5,0.5-3.1,0.7-4.7c-3.2,1.4-6.3,1.6-9.6,1.8
		C74.7,9.9,81.2,43.7,81.5,44.9z"/>
	<path class="st2" d="M91.5,56.9c0.9,0,1.9-0.2,3.2-0.8c2.3-0.9,3.9-2.5,4.7-4.9c0.8-2.3,0-4.7-1.9-6.4c-1.4-1.1-2.6-1.5-4.5-1.9
		C90.7,42.9,89.6,56.7,91.5,56.9z"/>
	<path class="st2" d="M179.9,124.8c0-1.5-0.3-3.2-0.7-4.1c-0.8-1.7-2.1-2.1-3.7-1.1c-0.7,0.5-1.3,0.8-1.8,1.5c-1,1.3-3,3.8-3.3,7.3
		c0.8,1.4,3.7,3.7,4.2,4.3c1.6,2.2,0.9,3,1.6,2.2C178.7,132,179.6,128.6,179.9,124.8z"/>
	<path class="st2" d="M193.7,110.5c0.3-0.7,0.7-1.1,0.7-1.7c0.1-1.5,0.1-3,0-4.5c-0.3-3.3-0.9-6.5-2.4-9.6c-0.6-1-1.1-2.1-1.9-3.1
		c-0.7-0.8-1.3-0.7-1.6,0.3c-0.2,0.7-0.3,1.4-0.3,2.1c-0.1,4.3,0.9,8.6,2.6,12.6c0.5,0.9,1,1.9,1.6,2.7
		C192.7,109.9,193.3,110.2,193.7,110.5z"/>
	<path class="st2" d="M129.4,34.7c1.4-0.1,1.7-0.6,1.3-1.8c-0.1-0.5-0.3-0.8-0.6-1.1c-0.7-0.9-1.4-1.9-2.1-2.9c-2.8-3-6-5.1-9.7-6.9
		c-0.6-0.2-1.1-0.3-1.8-0.3c-0.9,0-1.4,0.6-1,1.5c0.2,0.7,0.6,1.3,0.8,1.8c2.8,3.9,6.3,6.9,10.7,8.8
		C127.8,34.1,128.6,34.3,129.4,34.7z"/>
	<path class="st2" d="M168.4,60.3c-0.1-0.3-0.1-0.8-0.2-1.3c-0.6-2.5-1.8-4.7-3.2-7c-1.5-2.3-3.4-4.2-5.7-5.9
		c-0.6-0.5-1.3-0.6-1.9-0.6c-0.6,0-0.8,0.3-1,0.9c-0.2,1.1-0.1,2.2,0.2,3.3c1.1,3.7,3.2,6.7,6,9.5c1,1,2.2,2.1,3.6,2.6
		C167.6,62.7,168.4,62.1,168.4,60.3z"/>
	<path class="st2" d="M102.5,79.8c-0.2,0,2.6,5.7,7.5,9.6c4.9,4,8.6,10.1,9.4,9.9c2.2-0.3,3.3-1.6,3.1-3.8c-0.1-1.5-0.7-2.7-1.3-4
		c-2.6-4.5-6.3-7.7-11-9.9C108.5,81,105.8,80,102.5,79.8z"/>
	<path class="st2" d="M89.3,99.4c-0.6,0.2-0.7,1.1-0.5,2.2c0.5,1.9,1,2.6,0.8,3.7c-0.3,1.3-1.1,2.3-0.9,2.9c0.2,0.5,1,0.7,1.7,0.3
		c1.6-0.7,2.3-3.8,1.4-6.2C91.3,100.5,90,99.1,89.3,99.4z"/>
	<path class="st2" d="M63.9,80.1c-1,0.1-2.1,2.2-1.7,3.9c0.1,0.2,0.6,1.7,1.8,1.9c1.5,0.5,3.2-0.9,3.3-2.2c0-0.7-0.7-1.3-1.9-2.5
		C64.8,80.4,64.4,80.1,63.9,80.1z"/>
	<path class="st2" d="M83.1,129.5c-1.3,1-1.3,3.5-0.9,4.8c0.7,3.4,4.9,5.6,5.8,5c2.2-1.5-0.2-3-1.4-3.8c-0.7-0.6-2.1-1.6-2.3-2.5
		c-0.3-1.4,0.7-3.1,0.5-3.3C84.3,129.4,83.5,129,83.1,129.5z"/>
	<path class="st2" d="M112.7,115.9c-0.2,0.1-0.5,0.5-0.6,0.7c-0.2,0.9,1.5,1.9,2.6,2.9c3.7,2.9,5,7.3,6.7,7.2
		c0.8-0.1,1.4-1.7,1.1-2.5c-0.8-3.1-4.6-8.1-8.5-8.6C113.6,115.6,113,115.9,112.7,115.9z"/>
	<path d="M66.7,19.7l4.6,9.3l4.6,18.2l1.4-0.5l-3.4-16.2l-3.3-8.6c0,0-0.5-2.6-1.4-2.6C67.7,19.1,66.7,19.7,66.7,19.7z"/>
	<path d="M94.4,100.7c0.6,0.7,0.8,2.2,0.8,3.1c-0.1,6.1-3,10.5-3,10.5c-1,1.7-5.3,8-11.9,8.2c-1.5,0-3.3,0.2-4.6-0.8
		c-3.8-3.1-0.7-12.2-0.5-12.2c0.1,0-0.8,2.3,0.3,5.3c0.5,1,1.5,1.6,3.4,2.3c2.1,0.7,4.7,0.3,7-1.4c2.5-1.9,3.4-3.3,4.1-4.4
		c1.7-2.4,2.8-4,2.9-6.2c0.1-2.9-0.8-5.4-0.8-5.4S94,100.2,94.4,100.7z"/>
	<path d="M105.5,116.6c0,0-0.8,0.8-1.4,1.9c-1.7,3.7,1.3,9.4,5.6,12.5c3.4,2.4,9.1,3.9,11.6,1.8c1.1-0.9,1.3-3.3,1.3-3.3
		s-1.8,0.7-3.8,0.9c-3.4,0.6-6.5-1.6-7.5-2.3c-0.7-0.6-4.2-3.1-4.8-7.1C106,118.4,105.5,116.6,105.5,116.6z"/>
	<path d="M99.4,81.7c0,0-1.8,1.8-1.9,1.9c-1.9,3.2,1.4,9.5,5.8,14.2c5.5,5.7,12.6,7.2,15.7,6.1c0.6-0.2,1.9-0.7,2.4-1.9
		c0.5-1-0.6-2.7-0.6-2.7s-0.7,0.2-0.8,0.5c-1.6,1.8-8.3,0.2-13.3-4.1c-1.9-1.7-6.4-4.9-6.8-9.8C99.8,84.2,99.4,81.7,99.4,81.7z"/>
	<path d="M104.9,151.9c0,0,0.5,5.1,1.1,6.9l3.8,7.2c0,0,6.3-1.8,8.1-2.4c7.1-2.3,12.7-5.5,12.7-5.5l2.9,2.2l5.6-3.4l-1.6-3.5
		c6-3.3,4.9-6.5,5.5-6.1c-0.3-0.9-8.1,3.3-25.6,4.5C110,152.1,104.9,151.9,104.9,151.9z"/>
	<path d="M101.2,151.9l0.1,6.3l-0.9,5.4l-2.3,3.5l-7.3-0.7l-6.3-0.3l-1,1.8l0.2,5.3c0,0-3-3.3-4.4-4.2c-1.3-0.7-6-1.8-6-1.8l1.9-3.9
		c0,0-7-3.4-10-5.3c-2.4-1.6-9.6-6.4-9.6-6.4l-3-2.9l-2.3,3.3c0,0-2.6-0.6-4.5-4.7c-0.6-1.1-3.6-2.1-3.6-2.1l4.6-3.8l-3.2-4.2
		l-2.3-3.3c0,0-0.1,0.2,3-1c2.3-0.9,3.9-5.6,3.9-5.6l3.9-3.8c4.5-2.3,7-1.5,10.1-2.2c6.3,5.4,9.2,9.7,11.2,12.6
		c0.3,0.6,1.6,2.3,3.8,5.4c2.9,4.1,4.4,6.2,4.8,6.7C84,148.5,88.6,151.7,101.2,151.9z"/>
	<path d="M46.8,68.6c0,0-3.6,5.1-4.6,7c-2.6,4.5-4,10.7-4,10.7L35.7,84c0,0,0.2,5.7,0.2,7.1c0,1.6-1.1,5.4-1.1,5.4l0.5,0.8l-0.8,7.9
		l0.7,7.3l-5.5,1.5l-10-0.1c0,0,2.5,4.6,3.3,5.9c0.7,1.3,2.1,4.6,2.1,4.6l5.6-1.9l0.8-3.5l3.8-3.8l8,1.3l9.6,0.1l5.7-1.2
		c0,0-14-10.7-14.3-16.7c-0.1-2.3,2.8-6.5,3-8.9C48,84.8,46.8,68.6,46.8,68.6z"/>
	<path d="M52.4,88c-0.7-0.2-4.1,4.6-4.5,10.5c-0.1,2.1-0.1,3.7,0.8,4.6c2.5,2.4,10-1.1,14.3-4.6c0.7-0.6,9.7-8,8-14.6
		c-0.5-1.8-2.3-3.4-2.3-3.4s0,2.2-0.6,4.6c-0.6,2.3-1.8,4.6-5.2,8.2c-4.9,5.4-7.2,4.8-8.3,4.8c-0.3,0-1.3,0.1-2.3-1
		C49.9,94.3,52.9,88.3,52.4,88z"/>
	<path d="M81.3,136.4c0,0,0.2,3.2,2.9,5.3c1,0.8,6.3,4.8,11.5,2.3c2.9-1.4,4.9-4.5,5.2-7.4c0.3-5.4-5-9.4-5-9.3c0,0,3.6,2.9,3.3,6.6
		c-0.1,2.7-2.1,5.1-4.2,6.4c-3,1.6-6.3,0.8-7.3,0.6C83.1,139.7,81.3,136.4,81.3,136.4z"/>
	<path d="M47,141.4c-1.6-2.5-4.6-4.6-5.5-7.3c-6.3-1-9.7-4.9-11.1-11c-2.5,0.8-4.8,2.1-7.1,3.4c-3.3,2.1-6.9,3.9-10.7,5
		c-0.3,0.1-0.7,0.2-1.1,0.3c-1.3,0.3-2.3,0-3.3-0.8c-1.4-1.3-2.1-2.9-2.9-4.6c-1.5-3.4-2.1-7.2-2.1-10.9c0-1.1,0.1-2.3,0.7-3.3
		c0.7-1,1.3-1.4,2.4-1.1c1.1,0.2,2.2,0.2,3.1,0.3c3.4,0.6,7.1,1.1,10.5,1.8c4.6,0.7,9.3,0.8,13.9-0.3c0.5-0.1,0.8-0.2,1.4-0.5
		c-0.7-5-0.7-10.1,0.1-15.2c-1.6-0.2-3.1-0.2-4.6,0.1c-1.7,0.3-3.3,0.7-4.9,1c-1.1,0.2-1.9-0.2-2.6-1c-0.6-0.7-0.8-1.5-1.1-2.3
		c-0.7-2.4-0.7-4.9-0.5-7.4c0.2-2.4,0.9-4.6,1.9-6.9c0.6-1.1,1.1-2.1,2.2-2.9c0.9-0.7,2.2-0.7,3,0c1.3,1,2.6,2.1,3.9,3.2
		c1.5,1.3,2.9,2.7,4.4,4c0.2,0.2,0.6,0.5,0.9,0.7C41.2,75.2,47,66.5,55,59.1c-0.2-0.3-0.3-0.6-0.5-0.7c-3.6-3.4-7.2-7-11.4-9.6
		c-1.4-0.8-2.8-1.6-4.1-2.4c-1.9-1.1-2.2-2.1-1.5-4.2c0.7-2.4,2.2-4.5,3.9-6.2c1.1-1.3,2.4-2.5,3.8-3.5c1.1-0.9,2.5-1.7,4-1.8
		c0.9-0.1,1.7,0.2,2.3,0.9c2.4,3,3.3,6.4,4,9.9c0.7,4.2,2.2,8,4.6,11.6c0.2,0.5,0.6,0.7,0.8,1.1c3.8-2.6,7.8-4.8,12-6.6
		c-0.3-1.5-0.7-3-1-4.3c-0.9-3.3-1.5-7-2.9-10.2c-0.7-1.4-1.3-2.9-1.9-4.2c-0.6-1.1-1.4-1.9-2.5-2.6c-0.6-0.3-1.1-0.7-1.7-0.9
		c-0.9-0.7-1.3-1.7-1-2.9c0.3-1.3,1.1-2.1,2.2-2.7c1.1-0.7,2.4-0.9,3.7-1c0.3,0,0.6-0.1,0.8-0.1c-0.3-1.8-0.7-3.5-0.8-5.4
		c0-1.6,0-3.4,0-5.1c0-1,0.6-1.8,1.6-2.1c1.7-0.5,3.3-0.9,5.2-1.3c3.1-0.5,6.1-0.5,9.2-0.1c1.1,0.1,2.4,0.3,3.6,0.6
		c0.9,0.2,1.3,0.8,1.1,1.8c-0.1,0.7-0.1,1.3,0,1.9c0.1,2.9-0.7,5.5-1.7,8.1c-2.3,5.5-3.4,11.2-3,17.2c0.2,2.7,0.8,5.4,1.3,8.1
		c0.1,0.3,0.2,0.7,0.3,0.9c1.6-0.5,3.1-0.9,4.6-1.3c1.9-0.5,4-0.1,6,0.7c0.6,0.2,1,0.5,1.6,0.5c3.9,0,7.8,0.3,11.7,1
		c0.1,0,0.2,0,0.2,0c0-1.1-0.1-2.3,0-3.5c0.3-3.1,0-3.4,1-9.3c0.6-3,2.8-6.6,4.6-9.3c0.5-0.7,1-1,1.8-0.9c1.1,0.2,2.4,0.3,3.4,0.8
		c4.4,1.9,7.9,4.9,10.5,8.9c0.6,0.7,0.7,1.6,1,2.4c0.3,0.7-0.1,1.4-0.6,1.9c-1.7,1.9-3.9,3.2-6.3,4.1c-3.3,1.4-5.7,3.8-7.5,7
		c0.5,0.2,0.7,0.5,1,0.6c3.6,1.3,7,3,10.3,4.7c1.3,0.7,2.5,1.7,3.7,2.5c1.9,1.4,3.8,2.9,5.8,4.1c1.9,1.3,3.3,3,4.8,4.6
		c0.5,0.6,0.9,0.9,1.5,1.6c1.4-1.9,2.8-3.5,4-5.4c1.9-3.1,4-6.2,6-9.3c0.6-0.7,0.8-1.6,0.8-2.5c0.1-1.8,1.5-2.5,3.3-1.9
		c2.1,0.7,3.8,2.1,5.2,3.9c2.3,2.9,4.4,5.9,5.3,9.5c0.2,0.9,0.2,1.9,0.2,3.1c0,0.9-0.7,1.5-1.5,1.7c-1.6,0.5-3.2,0.8-4.8,0.7
		c-3.3-0.2-6.4,0.7-9.4,2.3c-1.4,0.7-2.8,1.6-4.1,2.3c-0.3,0.2-0.6,0.5-0.7,0.6c2.2,3.8,5.6,10.7,5.7,10.7c1.3,0,2.3-0.8,4.6-1.1
		c1.3-0.5,2.6,0,3.8,0.7c2.5,1.7,4,4.1,5.2,6.7c1,2.3,1.5,4.8,1.7,7.4c1.6,0,3.2,0.1,4.7,0c2.8-0.2,5.5-0.5,8.3-0.9
		c2.1-0.5,4.1-1.1,6.1-1.8c0.7-0.2,1.1-0.2,1.6,0.2c0.7,0.7,1.3,1.4,1.8,2.2c0.7,1.1,1.1,2.4,1.7,3.8c0.9,3,1.8,5.9,1.9,8.9
		c0.1,1.4,0,2.7-0.3,4c-0.3,1.4-1,1.8-2.4,1.4c-1.4-0.5-2.9-0.8-4-1.6c-4-2.5-8.6-3.4-13.1-4.5c-5-1-10.1-1-15.3-1
		c-0.1,0-0.2,0-0.5,0.1c-0.1,2.2-0.2,4.3-0.5,6.5c-0.2,2.1-0.6,4.2-0.8,6.4c1.3,0.5,2.8,0.5,4.1,0.7c3.6,0.5,7.2-0.2,10.7-0.2
		c1.5,0,3,0.5,4.5,0.8c0.8,0.2,1.5,0.8,1.7,1.6c0.5,0.9,0.8,1.9,0.9,3.1c0.3,3.9-0.6,7.5-2.6,10.9c-0.8,1.4-1.9,2.4-3.3,3.3
		c-1,0.7-2.2,0.6-3.3-0.1c-2.4-1.3-4.5-3.3-6.4-5c-2.6-2.3-5.5-4.3-8.6-5.7c-1.7,3.5-3.3,7.1-5,10.4c2.6,2.1,5.3,4.3,8,6.4
		c1.6,1.3,3.3,2.3,4.9,3.4c2.9,1.9,6.1,3,9.4,3.8c1.6,0.5,3.2,0.9,4.4,2.2c1,1,1.1,1.8,0.6,3.1c-0.9,1.7-1.8,3.3-2.9,4.8
		c-0.3,0.6-0.7,0.9-1.3,1.3c-1.1,0.7-2,0.9-3,0c-1.1-1-2.1-2.8-4.3-4c-3.6-4.2-6.5-7.6-11.1-10.7c-2.4-1.7-4.7-3.5-7.5-4.8
		c-0.2-0.1-0.5-0.2-0.7-0.3c-3.2,4.2-6.8,8.1-11.1,11.4c1.5,1.4,2.9,2.6,4.2,3.9c4.4,3.9,8.9,7.2,13.9,10.1c1.9,1,3.8,2.2,5.5,3.5
		c0.7,0.7,0.9,1.5,0.7,2.4c-0.3,1.9-1.1,3.4-2.2,5c-1.6,2.4-3.4,4.5-5.8,6.1c-0.7,0.6-1.5,1-2.2,1.5c-0.7,0.3-1.4,0.6-2.1,0.7
		c-0.9,0.1-1.6-0.5-1.9-1.3c-0.2-0.6-0.7-0.8-0.8-1.4c-0.7-1.4-1.4-2.9-1.8-4.3c-3.1-7.5-7-14.5-12.4-20.7c-0.3-0.5-0.7-0.7-0.8-1
		c-3.4,1.7-6.7,3.4-10,4.8c-3.3,1.4-7,2.3-10.2,3.3c0.6,1.9,1,3.8,1.5,5.8c0.2,1.4,0.1,2.7,0.2,4.1c0,0.5-0.1,0.7,0,1.1
		c0.1,1.1-0.3,1.9-1.4,2.3c-1.1,0.5-2.3,0.8-3.4,0.9c-3.4,0.3-6.9-0.1-10.1-1.6c-1-0.5-1.9-1-2.8-1.9c-0.6-0.6-0.7-1.1-0.7-1.9
		c0.5-1.9,0.9-3.7,2.1-5.3c0.6-0.7,1-1.5,1.7-2.3c-4.5-0.5-8.7-0.9-13.1-1.4c-0.5,1.6-0.3,3.2-0.2,4.7c0.1,1.6,0.3,3.3,0.3,4.8
		c0,0.9,0,1.9-0.2,2.9c-0.2,1.3-1.1,1.9-2.2,2.2c-1.6,0.6-3.2,0.7-4.8,0.5c-2.4-0.2-4.6-0.9-6.8-2.1c-1-0.6-1.9-1.4-2.4-2.4
		c-0.3-0.7-0.2-1.5,0.1-2.2c1.1-2.7,2.5-4.9,4.4-7.2c0.8-1.1,1.5-2.7,2.4-4c-8.3-3.4-15.3-7.5-21.6-13.8c-0.9,1.1-1.8,2.4-2.4,3.8
		c-0.7,1.7-1.3,3.4-1.9,5.3c-0.7,1.7-1.3,3.3-1.9,4.9c-0.3,0.7-1.3,1.1-2.2,0.9c-1.3-0.3-2.6-0.7-3.8-1.1c-3.7-1.9-7.1-4.2-9.7-7.4
		c-0.7-0.7-1.3-1.7-1.7-2.5c-0.8-1.9-0.5-2.6,1-3.7c1.1-0.8,2.4-1.5,3.7-1.9c1.9-0.9,4.1-1.8,6.2-2.5c1.9-0.7,3.7-1.8,5.4-3.1
		C46.7,141.6,46.8,141.5,47,141.4z M99.8,144c0.1,0,0.2,0,0.3-0.1c0.1,0.3,0.3,0.6,0.5,0.8c0.2,0.9,0.5,1.9,0.7,2.9
		c0.7,4.1,1,8.1,0.5,12.2c-0.3,2.2-0.9,4.3-2.1,6.1c-1,1.5-2.1,3-3.2,4.5c-0.6,0.8-1.1,1.7-1.4,2.7c6-1.6,11.2-0.8,16.5,2.6
		c-0.1-1.4-0.2-2.5-0.5-3.7c-0.6-3.2-1.8-5.9-3.3-8.6c-3.3-5.4-3.9-11.2-3.8-17.3c0-0.2,0.2-0.5,0.5-0.9c0.6,0.7,0.7,1.4,0.7,1.9
		c0.1,1.9,0.1,3.8,0.2,5.8c0.3,4.6,2.4,8.5,4.6,12.4c6.2-0.8,18.3-5.4,20.8-7.7c-1.1-1.5-3.5-2.9-4.2-4.7c0.7-0.5,0.9-0.1,1.3,0.2
		c1.1,1.3,2.2,2.5,3.3,3.7c2.9,2.9,5.3,5.9,7.3,9.3c2.9,4.7,5.5,9.6,7.2,14.9c0.3,0.7,0.7,1.5,1.1,2.4c2.4-5.8,6.1-10.1,11.8-12.7
		c-0.9-0.6-1.8-1-2.6-1.5c-4.5-2.2-8.5-5.1-12.4-8.2s-7.2-6.7-11.2-9.7c-0.3-0.2-0.5-0.6-0.7-0.8c0.1-0.1,0.2-0.2,0.2-0.3
		c1.8,0.5,3.6,2.9,5.1,3.9c3.2-2.5,5.4-6.4,7.9-9.6c0.8-1,1.9-1.9,2.3-3.2c0-0.2,0.7-0.3,0.9-0.2c0.2,0,0.6,0.3,0.7,0.5
		c5.3,2.9,10,6.4,14.2,10.5c2.4,2.3,4.6,4.8,6.9,7.2c0.7,0.7,1.5,1.2,2.2,1.8c0.9,0.7,1.6,0.6,2.2-0.5c1-1.5,1.9-3.1,2.9-4.7
		c0.7-1.5,0.6-2.3-0.9-3.1c-1.1-0.7-2.3-1-3.6-1.4c-4.6-1.1-8.6-3.2-12.4-5.9c-3.3-2.5-6.7-5.1-10-7.8c-0.3-0.2-0.1-0.2-0.2-0.3
		c0.3-0.7,0.7-1.5,0.8-1.9c0.9-1.8,1.9-3.5,2.8-5.4c0.7-1.3,1-2.6,1.7-4c-2.2-0.9-4.2-1.7-6.3-2.1c-2.5-0.6-5-0.7-7.6-0.3
		c-0.7,0.1-1.4,0.1-1.9-0.7c0.7-0.1,1.1-0.2,1.7-0.2c2.3-0.1,4.7-0.3,7.1-0.1c2.9,0.2,5.4,1.4,8,2.4c2.1,0.8,4,2.1,6,3.4
		c2.2,1.7,4.2,3.5,6.3,5.4c0.3,0.3,0.7,0.7,1.1,0.9c-1.1-6.5,0.3-12,5.2-16.5c-1,0-1.9-0.1-2.9,0c-2.8,0.2-5.4,0.5-8.1,0.3
		c-2.8-0.1-5.4-0.6-8-1c-2.4-0.5-4.8-0.9-7.2-1.5c-1.1-0.2-2.3-0.5-3.4-0.7c-1.3-0.3-2.4-0.7-3.7-1.1c-0.2-0.1-0.6-0.2-0.7-0.3
		c0.2-0.6,0.7-0.6,1-0.5c0.9,0.2,1.9,0.3,2.9,0.6c4.1,0.8,8.1,1.8,12.3,2.7c0.3,0.1,0.7,0.1,1.3,0.1c0.3-2.6,0.7-5,0.9-7.5
		c0.2-3.3,0.3-6.5-0.1-9.9c-0.1-1.1-0.1-1.1-1.3-1.4c-4.6-0.9-9.1-1.3-13.6-1.4c-1.9,0-3.9,0.3-6,0.5c-0.2,0-0.6,0-0.7,0
		c0-0.1-0.1-0.2-0.1-0.5c0-0.1,0-0.2,0-0.5c2.6-0.7,5.3-0.7,7.9-0.7c2.8,0.1,5.4,0.3,8.1,0.7c2.6,0.3,5.2,0.8,7.8,1.4
		c-2.2-2.3-3.8-5-4.6-8.1c-0.8-3-1.3-5.9-0.2-9.1c-3.2,2.5-6.1,5.3-9.7,7c-3.6,1.7-7.3,3-11.4,3.8c-0.1-0.3-0.2-0.7-0.3-0.9
		c7.2-1.6,13.6-4,19-9.1c-1.8-4.1-3.6-8.2-6.2-11.8c-5.8,3.5-9.5,8.9-13.8,14.2c0-0.6-0.1-0.8,0-1c0.1-0.3,0.3-0.6,0.5-0.7
		c1.7-2.1,3.3-4.2,4.9-6.2c1-1.3,1.9-2.4,3.2-3.4c3.3-3,7.1-5.3,11.1-7.2c3.1-1.5,6.2-2.4,9.7-1.9c0.6,0.1,1-0.1,1.6-0.1
		c-2.3-1.6-4.1-3.5-5.7-5.8c-1.6-2.2-2.9-4.6-3.7-7.3c-0.2,0.1-0.3,0.2-0.3,0.2c-1.9,3.1-3.7,5.9-5.7,9c-2.8,4.2-6,8-10.1,11
		c-1.5,1-2.9,2.3-4.4,3.4c-0.9,0.7-1.8,1.5-2.8,2.2c-0.6,0.5-1,0.5-1.7,0c4.5-3.5,9.1-6.9,13.3-10.9c-1.3-1.3-2.3-2.5-3.6-3.5
		c-2.3-1.9-4.7-3.5-7.1-5.5c-3.3-2.9-7.2-5-11.2-6.9c-1.7-0.7-3.3-1.4-5.2-2.1c-0.3,0.7-0.6,1.1-0.7,1.7c-0.9,3.1-1.5,6.1-1.6,9.3
		c0,1,0,2.1,0,3.1c0,0.2-0.2,0.6-0.3,0.7c-0.7-0.3-0.7-0.8-0.7-1.4c-0.1-2.4,0.1-4.8,0.6-7.3c0.6-2.7,1-5.6,2.8-8
		c1.9-3.1,4.6-5.5,8-6.9c1.3-0.6,2.4-1.1,3.6-1.7c0.5-0.2,0.7-0.6,1-0.8c-6.5-2.2-11.5-6.1-15-12.1c-0.5,0.9-0.9,1.9-1.4,2.9
		c-0.7,1.9-1.7,3.9-2.1,5.9c-0.7,3.2-0.9,6.3-0.8,9.6c0.1,2.6,0,5.3,0,8c0,0.9,0,1.9-0.2,3c-0.5,2.1-0.8,4.1-1.3,6.1
		c-0.1,0.7-0.2,1.3-0.5,1.9c-0.1,0.5-0.1,1-0.8,0.9c-0.6-0.1-0.3-0.7-0.2-1c0.2-0.7,0.3-1.4,0.6-2.1c0.6-2.5,1.4-5.1,1.4-7.8
		c0-1.1,0-2.2,0-3.3c0-0.7,0.1-1.5,0.2-2.3c-3.8-0.7-7.3-1.3-11.4-1c0.6,0.7,0.8,1,1.3,1.4c1.8,1.9,2.2,5,0.7,7.5
		c-0.5,0.7-0.8,1.1-1.3,1.8c-0.7,1.4-1.6,2.6-2.2,4c-0.5,0.9-0.6,1.9-0.5,3.2c0.3,2.4,0.9,4.6,1.8,7c0.1,0.3,0.5,0.7-0.1,0.9
		c-0.6,0.2-0.7-0.3-0.8-0.7c-0.1-0.2-0.2-0.5-0.3-0.7c-0.5-1.5-0.9-3.1-1.3-4.6c-0.6-2.3-0.6-4.6,0.7-6.9c0-0.1,0-0.2,0.1-0.5
		c-3,1.5-6,1.7-9.3,0.8c0.3,0.5,0.5,0.7,0.6,0.8c1.1,1.8,1.8,3.7,1.8,5.8c0,3-0.1,5.9-0.2,8.8V73c-0.1,0.2-0.3,0.7-0.5,0.7
		c-0.5,0-0.6-0.3-0.6-0.7c0-1.6,0.1-3.1,0.1-4.6c0-1.9,0.2-3.9,0-5.8c-0.3-3-2.1-5-4.4-7c-2.9-2.4-3.4-6.2-1.5-9.3
		c0.1-0.2,0.3-0.6,0.7-0.9c-2.2,0.7-4.2,1.1-6.3,1.8c-0.7-3.5-1.3-7.1-1.8-10.5c-0.5-2.4-0.7-4.9-1.6-7.3c-0.5-1-0.8-2.1-1.3-3.2
		c-0.7-1.9-1.6-3.8-2.2-5.7c-0.2-0.7-0.7-0.8-1.3-0.8c-1.4,0.1-2.8,0.5-3.9,1.1c-0.6,0.5-1,0.9-1.4,1.5c-0.7,0.9-0.3,1.8,0.7,2.4
		c0.5,0.3,0.8,0.6,1.4,0.7c1.5,0.7,2.4,1.7,3.1,3.2s1.3,3,1.9,4.5c1.4,3.3,1.9,7,2.9,10.3c0.3,1.3,0.6,2.6,0.8,3.9
		c0.2,0.8,0.3,0.9-0.5,1.1c-3.4,1.3-6.7,3.1-9.7,5c-0.7,0.6-1.6,1-2.4,1.6c0.8,1,1.6,2.1,2.4,3.1c1.1,1.4,2.4,2.6,3.7,3.9
		c0.2,0.3,0.7,0.7,0.3,0.9c-0.5,0.5-0.7,0-1-0.3c-0.5-0.5-0.8-0.9-1.3-1.4c-2.1-1.9-3.9-4.3-5.5-6.7c-1.9-3.1-3.7-6.3-4.6-9.9
		c-0.6-2.2-0.9-4.5-1.5-6.6c-0.5-1.6-0.8-3.1-1.9-4.5c-2.2,5.8-6.1,9.9-11.8,12.6c1.3,0.7,2.5,1.3,3.7,1.9c4.8,3.2,9.2,7,13,11.2
		c1.9,2.1,3.3,4.5,5,6.6c0.2,0.3,0.5,0.7,0.5,0.9s-0.1,0.5-0.2,0.7c-0.2-0.1-0.6-0.1-0.7-0.2c-0.2-0.2-0.3-0.6-0.6-0.7
		c-1.6-2.5-3.4-4.7-5.4-7c-7.7,6.6-15,16.6-17.6,26.2c1,0.6,2.3,1.5,3.5,2.1c1.1,0.6,2.3,0.8,3.4,1.3c0.5,0.1,0.9,0.2,0.8,1
		c-0.5-0.1-0.9-0.1-1.4-0.2c-4.4-1.1-7.9-3.5-11-6.9c-0.8-0.9-1.9-1.8-3.2-2.9c1.1,5.9,0.6,11.2-2.5,16.5c0.5-0.1,0.8-0.1,1.1-0.2
		c4.1-1,8-0.7,11.8,1c0.3,0.1,0.7,0.2,0.8,0.5c0.1,0.1,0.2,0.5,0.2,0.6c-0.1,0.1-0.3,0.3-0.6,0.3s-0.7-0.2-0.9-0.3
		c-1.5-0.6-3-1-4.6-1.3c-0.7,5.9-0.8,11.8,0.3,17.4c1.5,0.2,2.8,0.5,4,0.7c0.9,0.2,1.8,0.6,2.8,0.7c0.8,0.1,1.7,0.2,2.5,0.2
		c4,0.5,8,0.3,11.9-0.7c0.6-0.1,1-0.1,1.7-0.1c-0.7,0.8-0.7,0.8-1.5,1c-4,1-8.1,0.9-12.2,0.7c-0.7-0.1-1.5-0.1-2.4-0.2
		c3.4,2.9,5.5,6.3,5.5,10.6c0.2-0.2,0.5-0.6,0.6-0.7c1.4-2.3,3.2-4,5.8-4.6c2.1-0.5,4.2-0.7,6.3-0.9c0.5,0,0.8,0.2,1.3,0.3
		c0,0.1,0,0.2,0,0.3c-0.5,0.1-0.8,0.3-1.3,0.3c-1.4,0.1-2.8,0.2-4.1,0.5c-3,0.5-5.4,1.6-7.1,4.1c-0.9,1.5-1.8,2.9-2.9,4.2
		c-0.5,0.7-0.9,1.3-1.6,1.7c-0.9,0.7-1.9,0.9-3.1,1.5c1.3,2.3,2.6,4.6,4.5,6.7c0.2-0.2,0.5-0.2,0.6-0.3c1.9-1.9,3.8-3.7,5.7-5.6
		c1.4-1.5,2.6-3.1,3.9-4.6c0.2-0.3,0.5-0.7,1-0.7c-0.1,0.3-0.2,0.7-0.3,0.8c-0.6,0.7-0.9,1.5-1.6,2.2c-1.6,1.8-3.3,3.7-4.9,5.5
		c-3.2,3.4-6.4,6.3-10.7,8c-2.5,0.9-5.6,2.5-8.1,3.7c-0.2,0.1,5.5,2.3,8.1,4.2c2.6,1.9,4.9,4.3,6.7,7.4c0.7-1.9,1.3-3.4,1.6-5.1
		c0.8-3.8,3.1-6.9,5.3-9.8c1.7-2.3,3.9-4.2,6-6.2c1.4-1.3,2.9-2.4,4.2-3.5c0.3-0.3,0.7-0.7,1.5-0.2c-4.6,3.5-8.6,7.4-12,12
		c4.6,5.3,16.9,12.2,22.1,14c0.5-1.3,0.9-2.4,1.3-3.7c0.5-1.6,0.7-3.2,1.1-4.7c0.1-0.5,0.1-1,0.9-1.1c0,0.3,0.1,0.7,0,0.9
		c-0.1,0.6-0.2,1-0.3,1.6c-0.7,3.8-1.9,7.3-4.1,10.5c-1.3,1.8-2.3,3.7-3.7,5.5c-0.3,0.5-0.6,0.8-0.9,1.4c5.3-1.3,9.5-0.1,13.6,3.2
		c-0.1-1.3-0.2-2.4-0.3-3.4c-0.5-3.3-0.3-6.5,0.3-9.8c0.3-1.8,0.8-3.4,1.1-5.3c0.2-1.1,0.5-2.2,0.7-3.3c0.1-0.5,0.2-0.7,0.7-0.7
		c0.2,0.1,0.3,0.6,0.5,0.8c0,0.1,0,0.2,0,0.2c-0.6,2.1-0.9,4.2-1.5,6.3c-0.3,1.4-0.7,2.7-0.9,4.3c4.7,0.7,9.3,1.1,13.9,1.3
		c1.9-2.9,2.8-5.9,2.9-9.3c0.1-3.9-0.3-7.8-1-11.6C99.7,145.1,99.8,144.6,99.8,144z M68.1,8.5c0.2,1.9,0.2,3.9,0.6,5.8
		c0.2,1.6,0.7,3.1,1.1,4.6c1,2.9,2.3,5.6,3.4,8.5c0.6,1.3,1,2.5,1.4,3.9c0.7,3.8,1.4,7.7,2.1,11.6c0.2,1.1,0.3,2.2,0.6,3.4
		c2.3-0.7,4.6-1.3,6.9-1.9C84,44.1,84,43.8,84,43.6c-0.7-3.1-1.3-6.2-1.6-9.3C81.8,29,83,23.8,84.7,18.8c0.7-1.9,1.5-4.1,2.1-6.1
		c0.5-1.5,0.5-3.1,0.7-4.7c-3.1,1.4-6.3,1.6-9.5,1.8C74.7,9.9,71.5,9.7,68.1,8.5z M159.9,103.4c1.5-0.1,2.8-0.2,4-0.2
		c4.5-0.1,8.8,0.6,13.2,1.4c4.5,0.8,8.6,2.2,12.5,4.6c0.6,0.3,1.1,0.6,1.9,0.9c-3.1-5.9-4.6-11.8-3.8-18.2c-1.3,0.5-2.4,0.9-3.7,1.3
		c-3.3,0.7-6.9,1.1-10.3,1.3c-1.4,0.1-2.8,0.1-4.1,0.1c-0.2,0.7-0.3,1.1-0.5,1.6c-0.8,2.7-2.4,3.7-5.3,3.3c-1.4-0.2-2.8-0.5-4.2-0.7
		C159.7,100.3,159.8,101.7,159.9,103.4z M35.4,115.2c-0.1-0.6-0.2-1-0.3-1.5c-0.3,0.1-0.7,0.1-0.8,0.2c-4.1,1-8.4,1.4-12.6,0.7
		c-2.9-0.6-5.7-0.9-8.6-1.5c-1.6-0.3-3.3-0.6-5.2-0.9c0.1,0.2,0.1,0.3,0.1,0.5c3.1,4.1,4.1,8.7,4.5,13.7c0.1,1.7-0.2,3.3-0.8,4.9
		c0.5-0.1,0.7-0.2,1-0.3c2.2-0.9,4.5-1.9,6.5-3.1c2.8-1.4,5.3-3.1,7.9-4.6c1-0.6,2.1-0.9,3.2-1.4C30.6,118.7,31.9,116.3,35.4,115.2z
		 M41.6,133c0.5-0.1,1-0.1,1.6-0.2c2.4-0.7,4-2.9,4-5.6c0.1-3.7-1.5-6.6-4.1-8.9c-1.6-1.4-3.3-2.2-5.5-2.3c-2.6-0.1-5.2,1-6,4
		c-0.5,1.4-0.3,2.7-0.1,4.1c0.3,2.2,1.5,4.1,3.1,5.7C36.5,131.7,38.6,133,41.6,133z M90.3,56.9c1.6-0.1,3-0.3,4.4-0.8
		c2.3-0.9,3.9-2.5,4.7-4.9c0.8-2.3,0-4.7-1.9-6.4c-1.4-1.1-3.3-1.7-4.5-1.9c-1.9,0-3.3-0.6-6.7,0.8c-0.1,0.1-1.7,1.1-2.8,2.3
		c-1.8,1.9-2.3,5.1-0.5,7.5C85,56.1,87.6,56.7,90.3,56.9z M168.4,93.1c-0.2-4.1-1.5-7.5-3.9-10.6c-0.8-1-1.7-1.9-3-2.5
		c-1.9-1-3.8-0.3-4.6,1.8c-0.3,0.8-0.5,1.8-0.6,2.7c-0.2,1.7,0.2,3.3,0.8,4.8c0.7,1.7,1,3.4,1.9,4.9c1,1.6,2.3,3.1,4.1,3.9
		s3.3,0.3,4.1-1.4C168.3,95.5,168.4,94.3,168.4,93.1z M179.9,124.8c0-1.5-0.3-3.2-0.7-4.1c-0.8-1.7-2.1-2.1-3.7-1.1
		c-0.7,0.5-1.3,0.8-1.8,1.5c-2.6,3.4-3.8,7.4-3.3,11.8c0.1,0.8,0.5,1.7,0.7,2.4c0.6,1.1,1.6,1.6,2.8,1.3c0.9-0.2,1.7-0.7,2.3-1.5
		C178.7,132,179.6,128.6,179.9,124.8z M30,85.5c0-0.7,0-1.4-0.1-2.1c-0.2-1.3-0.5-2.6-1-3.7c-0.9-1.7-2.2-1.8-3.3-0.3
		c-0.8,1-1.6,2.2-1.9,3.5c-0.8,2.6-1.3,5.3-1.1,8c0.1,1.8,0.2,3.4,1,5c0.9,1.8,2.3,1.9,3.4,0.3c0.7-0.7,1-1.7,1.5-2.5
		C29.4,91.3,29.9,88.5,30,85.5z M168.4,60.4c-0.1-0.3-0.1-0.8-0.2-1.3c-0.6-2.5-1.8-4.7-3.2-7c-1.5-2.3-3.4-4.2-5.7-5.9
		c-0.6-0.5-1.3-0.6-1.9-0.6c-0.6,0-0.8,0.3-1,0.9c-0.2,1.1-0.1,2.2,0.2,3.3c1.1,3.7,3.2,6.7,6,9.5c1,1,2.2,2.1,3.6,2.6
		C167.6,62.7,168.4,62.1,168.4,60.4z M11.6,127c-0.1-4.2-0.9-7.9-2.6-11.2c-0.6-1-1.1-1.9-1.9-2.9c-1-1-1.9-0.8-2.3,0.6
		s-0.6,2.7-0.6,4.2s0.3,3,0.7,4.5c0.7,2.9,1.6,5.5,3.3,7.9c0.3,0.5,0.8,0.8,1.3,1.1c0.6,0.3,1,0.2,1.4-0.3c0.2-0.3,0.5-0.7,0.6-1.1
		C11.5,128.6,11.5,127.5,11.6,127z M44.3,163.4c1.8,0,2.2-0.6,1.7-1.8c-0.3-0.7-0.7-1.5-1.3-2.1c-3-3.8-6.8-6.6-11.2-8.5
		c-0.7-0.3-1.5-0.6-2.3-0.4c-0.3,0.1-0.6,0.6-0.9,1.4c-0.2,0.7,0.4,1.3,0.7,1.8c2.5,3.3,5.8,6.1,9.6,8
		C42,162.9,43.3,163.3,44.3,163.4z M37.9,43.8c0,1.3,0.7,1.8,1.9,1.5c0.7-0.2,1.4-0.5,1.9-0.8c2.6-1.5,4.7-3.5,6.5-6.1
		c1-1.5,1.9-3,2.3-4.6c0.5-1.9-0.5-2.7-2.2-1.9c-1.6,0.7-3.1,1.5-4.5,2.5c-1.9,1.5-3.4,3.4-4.7,5.6C38.6,41.2,37.9,42.3,37.9,43.8z
		 M129.4,34.6c1.4-0.1,1.7-0.6,1.3-1.8c-0.1-0.5-0.3-0.8-0.6-1.1c-0.7-0.9-1.4-1.9-2.1-2.9c-2.8-3-6-5.1-9.7-6.9
		c-0.6-0.2-1.1-0.3-1.8-0.3c-0.9,0-1.4,0.6-1,1.5c0.2,0.7,0.6,1.3,0.8,1.8c2.8,3.9,6.3,6.9,10.7,8.8
		C127.7,34.1,128.5,34.2,129.4,34.6z M160.3,173.5c0-1.7-0.5-2.1-1.6-1.9c-0.7,0.1-1.3,0.5-1.9,0.7c-3.4,1.9-6,4.9-7.9,8.5
		c-0.7,1-1,2.1-1.1,3.3c-0.1,1.3,0.3,1.7,1.5,1.5c1.3-0.3,2.5-0.7,3.6-1.6c2.5-2.3,4.8-4.7,6.4-7.8
		C159.7,175.2,160,174.1,160.3,173.5z M99.7,173.1c-0.7,0.1-1.9,0.3-3.3,0.6c-0.9,0.2-1.8,0.7-1.9,1.6c-0.1,0.9,0.7,1.5,1.5,1.9
		c1.7,1.1,3.7,1.7,5.7,2.1c2.4,0.5,4.8,0.7,7.3-0.1c0.7-0.2,1.1-0.6,1.7-0.8c0.7-0.6,0.7-0.9,0.2-1.6c-0.5-0.6-0.9-1-1.5-1.4
		C106.6,173.7,103.4,173.3,99.7,173.1z M73.2,173.4c-0.7,0.1-1.7,0.2-2.6,0.6c-1.9,0.7-2.2,1.9-0.8,3.3c0.8,0.8,1.9,1.6,3.1,1.9
		c2.4,0.8,4.8,1.4,7.5,0.9c0.8-0.1,1.7-0.5,2.4-0.8c0.8-0.6,0.9-1.3,0.5-2.1c-0.3-0.6-0.8-0.9-1.4-1.4
		C79.4,174.1,76.5,173.5,73.2,173.4z M193.6,110.7c0.3-0.7,0.7-1.1,0.7-1.7c0.1-1.5,0.1-3,0-4.5c-0.3-3.3-0.9-6.5-2.4-9.6
		c-0.6-1-1.1-2.1-1.9-3.1c-0.7-0.8-1.3-0.7-1.6,0.3c-0.2,0.7-0.3,1.4-0.3,2.1c-0.1,4.3,0.9,8.6,2.6,12.6c0.5,0.9,1,1.9,1.6,2.7
		C192.7,110,193.2,110.3,193.6,110.7z M68.5,7.3c0,0.1,0,0.2,0,0.3c0.3,0.1,0.6,0.5,0.8,0.5c1,0.2,2.1,0.6,3.2,0.6
		c2.3,0.1,4.6,0.1,7,0c2.2-0.2,4.4-0.5,6.5-1.4c0.6-0.2,1-0.2,1.3-0.8c-0.9-0.8-1.9-1.1-3.1-1.1c-2.3-0.1-4.6-0.2-7-0.1
		c-2.5,0.1-4.9,0.5-7.3,1.3C69.4,6.9,69,7.1,68.5,7.3z"/>
	<path d="M98.8,83c-0.5,0.2-0.7,0.3-1.4,0.6c0.3-0.5,0.3-0.7,0.6-0.8c0.5-0.6,0.9-0.9,1.4-1.5c1.5-1.9,3.4-2.2,5.7-1.9
		c4.2,0.5,7.6,2.6,10.8,5.3c2.3,1.9,4.2,4.1,5.6,6.7c0.9,1.8,1.7,3.7,1.3,5.8c-0.1,0.7-0.5,1.5-0.9,1.9c-0.7,0.7-1.3,1.6-1.7,2.4
		c-0.1,0.3-0.5,0.6-0.7,0.8c-0.6-0.6-0.6-0.6-0.1-1.6c-1.4-0.1-2.8-0.1-4-0.3c-3.9-0.8-7.2-2.9-10-5.5c-1.4-1.3-2.6-2.6-3.8-4.1
		C99.9,88.5,98.8,86.1,98.8,83z M104.2,80.2c-0.2,0-0.5,0-0.7,0c-2.5,0.1-4,1.7-3.6,4.1c0.2,1.1,2.3,9,14.7,14.6
		c1.3,0.5,2.6,0.7,4.1,0.5c2.2-0.3,3.3-1.6,3.1-3.8c-0.1-1.5-0.7-2.7-1.3-4c-2.6-4.5-6.3-7.7-11-9.9
		C107.9,81.1,106.1,80.2,104.2,80.2z"/>
	<path d="M69.4,82.5c-1.3,6.7-4.9,11.6-11,14.9c-0.7,0.3-1.5,0.7-2.2,0.7c-0.7,0.2-1.6,0.2-2.3,0.3c-0.1,0.7,1.1,1.1,0.7,1.9
		c-0.1,0-0.2,0-0.2,0c-1.1-1.5-2.5-2.9-3.6-4.3c-0.8-1.3-0.7-2.7-0.5-4.1c0.6-2.9,1.8-5.3,3.6-7.5c2.1-2.9,4.7-4.9,7.9-6.4
		c1.3-0.7,2.6-0.7,3.9-0.5c1.1,0.2,1.9,0.8,2.5,1.8c0.7,1.1,1.4,2.4,1.9,3.5c0.2,0.5,0.5,0.9,0.2,1.6C70.1,83.8,70.1,82.9,69.4,82.5
		z M51.5,93.5c0,0.2,0,0.3,0,0.6c0.1,2.3,1.7,3.7,4,3.3c1-0.2,2.2-0.6,3.2-1c4.5-2.6,7.6-6.3,9.2-11.2c0.5-1.1,0.6-2.4,0.3-3.7
		c-0.3-1.8-1.5-2.6-3.3-2.6c-1.4,0-2.8,0.5-4,1.1c-3.7,2.1-6.3,5.3-8.1,8.9C52,90.3,51.5,91.7,51.5,93.5z"/>
	<path d="M94.3,100.3c-0.5,0.1-0.7,0.2-0.9,0.2c0,0.2,0.1,0.5,0.1,0.7c0.7,2.3,0.2,4.6-0.7,6.7c-1.7,4-4.5,7.1-8.4,8.9
		c-2.3,1.1-4.7,1.5-7.3,0.2c-0.1,0-0.1,0-0.3,0c0,0.5,0.1,0.8,0.1,1.1c-0.1,0-0.2,0.1-0.2,0.1c-0.1-0.2-0.5-0.6-0.5-0.7
		c-0.2-1-0.7-1.9-1.1-2.9c-0.7-1.1-0.8-2.5-0.7-3.8c0.9-6.7,4.8-11.2,11.2-13.7c1-0.5,2.2-0.6,3.2-0.3c0.8,0.1,1.6,0.6,1.7,0.6
		c0.6,0.3,0.8,0.6,1.3,0.8C92.5,98.9,93.3,99.6,94.3,100.3z M88.1,98.1c-1.7,0-3.2,0.5-4.6,1.3c-3.3,1.9-5.7,4.6-7.1,8.1
		c-0.9,2.4-1.5,4.8,0,7.3c0.6,0.9,1.3,1.6,2.2,1.9c1.4,0.6,2.9,0.5,4.2-0.1c5.2-1.9,8.4-5.8,9.9-11.1c0.3-1.3,0.5-2.4,0.1-3.7
		C92.3,99.4,90.2,98,88.1,98.1z"/>
	<path d="M121.8,131.4c-0.8,0.2-1.3,0.1-1.4-0.7c-6.4,0.6-12.6-3.5-14.3-9.4c-0.3-1.1-0.7-2.2-0.3-3.4c0.1-0.3-0.2-0.7-0.3-1.3
		c1.9-2.6,4.6-3.7,8-3c4.7,0.9,8,3.8,10.1,8c0.7,1.6,1.1,3.3,0.7,4.9c-0.2,0.8-0.7,1.7-1.1,2.2C122.5,129.8,121.8,130.4,121.8,131.4
		z M117.8,130.1c4.4,0,6.4-2.5,5.5-6.1c-0.3-1-0.7-2.1-1.4-3.1c-1.7-2.9-4.4-4.6-7.2-5.9c-1.5-0.7-3-0.7-4.6-0.5
		c-2.2,0.6-3.4,2.1-3.6,4.3c0,0.7,0.1,1.1,0.2,1.8c0.7,2.4,2.1,4.5,4,6.1C113,128.7,115.5,129.9,117.8,130.1z"/>
	<path d="M100.2,134.7c-0.7,1.1-1.4,2.2-1.9,3.3c-1.8,2.6-4.5,3.7-7.5,3.7c-3.3-0.1-6.2-1.3-8.6-3.5c-2.5-2.4-3.1-5.9-1.3-8.8
		c0.6-0.8,3-3.3,3.4-3.7c1.3-0.8,2.2-1.1,3.7-1.4c0.3-0.1,0.7-0.1,1-0.1c1.9,0,3.6,0.7,5.3,1.7c2.6,1.6,4.5,3.8,5.2,6.9
		c0.1,0.7,0.1,1.5,0.2,2.2C99.7,134.7,99.9,134.7,100.2,134.7z M91.1,140.8c0.5-0.1,1.3-0.1,1.9-0.3c4.1-1,7.1-5,4.6-9.9
		c-1.5-2.9-3.9-4.3-6.9-5.3c-1.4-0.5-2.8-0.3-4,0.3c-2.1,0.9-3.8,2.3-4.9,4.3c-1.8,3-1.4,5.7,1.1,7.9
		C85.1,139.7,87.8,140.7,91.1,140.8z"/>
</g>
</svg>
