<svg width="245" height="225" viewBox="0 0 245 225" fill="none" xmlns="http://www.w3.org/2000/svg">
<path d="M121.637 33.6373C141.393 28.1828 160.56 20.7646 181.069 20.7646L192.582 22.2389C207.635 28.3259 219.472 39.1427 228.907 53.1316C246.943 79.8726 248.107 119.022 239.815 149.769C234.082 171.027 221.108 187.313 204.086 199.13C191.326 207.988 177.523 216.521 162.862 221.171C151.552 224.758 140.457 225.135 128.765 224.968C114.786 224.768 103.586 219.707 92.3498 210.799C80.7541 201.605 70.3599 189.403 62.1612 176.719C56.0995 167.34 50.0662 156.815 48.1189 145.417C45.9989 133.007 45.8 121.23 45.8 108.651C45.8 98.6793 46.91 89.0745 52.1556 80.5902C67.6685 55.499 95.1668 40.9452 121.637 33.6373Z" fill="#018978" fill-opacity="0.4"/>
<path d="M169 64.2472L209.394 39.8707C210.492 33.9413 214.138 23.7954 219.935 25.3766C227.182 27.353 233.112 43.1648 235.088 49.0942C237.065 55.0236 233.112 58.9766 226.524 58.9766C219.935 58.9766 218.618 56.3413 212.029 58.9766C206.759 61.0848 186.994 73.0315 177.771 78.7413" stroke="black"/>
<path d="M182.177 91.9178L196.218 88.6237C198.194 85.3296 202.938 79.2684 206.1 81.3767C210.053 84.0119 214.665 98.5061 212.03 108.388C209.921 116.294 202.806 111.683 199.512 108.388H183.7" stroke="black"/>
<path d="M181.518 119.588L222.571 138.694C227.402 139.133 237.855 141.33 241.018 146.6C244.971 153.188 233.112 167.682 227.841 167.682C222.571 167.682 212.688 158.459 207.418 152.53C203.201 147.786 185.69 137.157 177.565 132.765" stroke="black"/>
<path d="M149.235 162.412C155.604 169.219 167.155 188.238 165.047 191.4C164.896 196.451 160.674 204.576 146.806 199.306C143.643 196.143 140.218 176.027 138.9 166.365" stroke="black"/>
<path d="M121.771 169.659C122.882 173.612 124.933 179.936 121.771 181.518C117.818 183.494 111.229 184.153 108.594 179.541C106.486 175.852 108.594 171.416 109.912 169.659" stroke="black"/>
<path d="M80.2647 158.459C75.4334 164.169 65.7706 176.774 65.7706 181.518C65.7706 187.447 72.5617 194.103 76.3118 195.353C80.2647 196.671 89.4883 199.965 92.1236 190.741C94.7589 181.518 94.5529 169 97.847 167.024" stroke="black"/>
<path d="M54.3647 117.612C48.2157 119.149 34.4107 123.673 32.8295 126.835C30.853 130.788 44.0295 150.553 48.6413 149.894C52.3307 149.367 59.4021 142.208 62.4766 138.694" stroke="black"/>
<path d="M58.9765 78.7411C52.8275 77.4234 38.2319 72.8117 33.4883 67.5411C27.5589 60.9529 17.0178 53.7058 11.0883 56.9999C5.15894 60.294 -6.00478 80.9493 7.13541 85.3293C11.0883 86.647 27.5589 86.647 34.1472 86.647C37.9478 86.647 49.7529 88.6234 54.3647 91.9176" stroke="black"/>
<path d="M86.1942 48.1283L73.6766 25.7283C64.8922 23.3127 49.9589 16.5048 60.5001 8.59894C71.0413 0.693053 82.0217 0.473444 86.1942 1.35188C97.3942 8.59894 86.1942 13.0789 86.1942 20.4578C86.1942 27.8366 93.6609 38.4656 97.3942 42.8578" stroke="black"/>
<path d="M136.718 41.8469L141.536 28.0116C139.559 21.643 137.978 8.90576 147.465 8.90576C159.324 8.90576 168.075 19.4602 167.888 20.7646C166.571 29.9881 161.959 28.6705 157.347 32.6234C153.658 35.7858 151.418 44.4822 150.759 48.4352" stroke="black"/>
<path d="M101.847 82.6406C100.327 85.1723 98.2871 87.039 96.2409 88.0235C94.1902 89.0102 92.1951 89.0882 90.674 88.175C89.1529 87.2618 88.2839 85.4641 88.1907 83.1904C88.0977 80.9216 88.7864 78.2437 90.3063 75.712C91.8263 73.1804 93.8661 71.3136 95.9122 70.3292C97.9629 69.3425 99.958 69.2645 101.479 70.1777C103 71.0909 103.869 72.8885 103.962 75.1623C104.055 77.4311 103.367 80.109 101.847 82.6406Z" stroke="black"/>
<path d="M113.566 118.502C110.981 118.861 108.589 118.638 106.818 118.012C105.021 117.376 104.001 116.384 103.85 115.291C103.698 114.199 104.409 112.966 105.965 111.865C107.498 110.78 109.739 109.915 112.325 109.556C114.911 109.197 117.303 109.419 119.073 110.046C120.871 110.682 121.89 111.674 122.042 112.766C122.193 113.859 121.483 115.091 119.926 116.193C118.393 117.277 116.152 118.143 113.566 118.502Z" stroke="black"/>
<path d="M122.206 94.2635C119.88 95.4477 117.546 96.019 115.668 96.0056C113.762 95.992 112.474 95.3874 111.974 94.4044C111.473 93.4215 111.742 92.0246 112.853 90.4752C113.948 88.9489 115.783 87.3986 118.109 86.2144C120.436 85.0302 122.769 84.4588 124.647 84.4722C126.554 84.4858 127.842 85.0905 128.342 86.0734C128.842 87.0564 128.573 88.4532 127.462 90.0026C126.368 91.529 124.533 93.0793 122.206 94.2635Z" stroke="black"/>
<path d="M147.027 135.077C146.455 137.624 145.407 139.786 144.199 141.224C142.973 142.683 141.686 143.289 140.61 143.048C139.533 142.806 138.629 141.708 138.144 139.864C137.667 138.048 137.643 135.646 138.215 133.099C138.787 130.551 139.835 128.39 141.043 126.952C142.27 125.492 143.557 124.886 144.633 125.128C145.709 125.369 146.613 126.467 147.098 128.311C147.576 130.128 147.599 132.53 147.027 135.077Z" stroke="black"/>
<path d="M153.756 78.4137C156.382 80.3578 158.331 82.6553 159.371 84.7773C160.423 86.9246 160.488 88.7528 159.629 89.9128C158.771 91.0729 157.003 91.5451 154.642 91.1658C152.309 90.791 149.542 89.5981 146.916 87.654C144.29 85.7099 142.341 83.4124 141.301 81.2904C140.249 79.1431 140.184 77.3149 141.043 76.1549C141.902 74.9948 143.669 74.5226 146.03 74.9019C148.363 75.2767 151.13 76.4696 153.756 78.4137Z" stroke="black"/>
<path d="M97.906 134.502C99.835 135.93 101.261 137.614 102.019 139.161C102.79 140.733 102.814 142.025 102.222 142.824C101.631 143.623 100.388 143.977 98.6595 143.699C96.9586 143.426 94.9317 142.554 93.0027 141.126C91.0737 139.698 89.6476 138.014 88.8896 136.467C88.1191 134.895 88.0951 133.603 88.6864 132.804C89.2777 132.005 90.5203 131.651 92.2491 131.929C93.95 132.202 95.9769 133.074 97.906 134.502Z" stroke="black"/>
<path d="M80.6457 111.322C80.5197 113.124 80.028 114.704 79.3592 115.8C78.6756 116.921 77.8937 117.414 77.2093 117.366C76.5248 117.319 75.8192 116.721 75.2982 115.516C74.7885 114.337 74.5215 112.704 74.6475 110.903C74.7734 109.101 75.2651 107.522 75.9339 106.425C76.6175 105.305 77.3994 104.811 78.0839 104.859C78.7683 104.906 79.4739 105.504 79.9949 106.709C80.5046 107.888 80.7716 109.521 80.6457 111.322Z" stroke="black"/>
<path fill-rule="evenodd" clip-rule="evenodd" d="M139.091 166.633C132.615 168.802 125.683 169.977 118.476 169.977C110.945 169.977 103.714 168.694 96.9892 166.334L96.5294 167.024L96.4406 167.201C103.331 169.646 110.748 170.977 118.476 170.977C125.788 170.977 132.821 169.786 139.392 167.587L139.091 166.633ZM53.5941 105.094C53.5941 126.993 64.4431 146.358 81.0594 158.107L80.5709 158.987C63.6487 147.062 52.5941 127.369 52.5941 105.094C52.5941 100.283 53.1098 95.5928 54.0888 91.075L54.9841 91.6719C54.0732 96.0027 53.5941 100.493 53.5941 105.094ZM58.9543 79.2299C68.9461 56.2674 91.8363 40.2119 118.476 40.2119C138.98 40.2119 157.262 49.7223 169.152 64.5723L170.125 64.1893C158.057 48.9721 139.407 39.2119 118.476 39.2119C91.3667 39.2119 68.0813 55.5861 57.9707 78.984L58.9543 79.2299ZM183.359 105.094C183.359 95.5696 181.306 86.5242 177.62 78.3764L178.334 77.5324C182.201 85.9177 184.359 95.2541 184.359 105.094C184.359 110.538 183.698 115.828 182.454 120.888L181.589 120.209C182.746 115.359 183.359 110.298 183.359 105.094ZM177.541 131.987C171.629 144.949 161.576 155.626 149.073 162.324L149.541 163.208C162.198 156.428 172.383 145.633 178.394 132.526L177.541 131.987Z" fill="black"/>
<path d="M121.772 169.621C122.883 173.574 124.934 179.898 121.772 181.479C117.819 183.456 111.23 184.115 108.595 179.503C106.487 175.814 108.595 171.377 109.913 169.621" stroke="black"/>
<path d="M103.155 116.589C105.942 119.377 108.53 122.705 112.248 124.058C115.464 125.227 119.803 124.141 121.895 121.43C123.474 119.383 123.693 117.513 123.693 115.033C123.693 114.194 123.505 113.941 122.759 113.547C121.772 113.024 122.443 113.171 121.515 114.1" stroke="black" stroke-linecap="round" stroke-linejoin="round"/>
<path d="M140.186 143.351C143.22 143.351 149.358 144.448 151.7 142.106C153.674 140.132 153.585 135.285 152.011 133.082C150.326 130.723 148.275 128.723 147.032 126.236" stroke="black" stroke-linecap="round" stroke-linejoin="round"/>
<path d="M139.563 79.5581C139.563 81.6793 139.549 83.1216 140.704 84.9866C142.241 87.4667 143.73 89.7165 146.029 91.556C147.811 92.9818 149.719 94.1838 152.011 94.1838C155.609 94.1838 159.479 93.7737 159.479 89.516" stroke="black" stroke-linecap="round" stroke-linejoin="round"/>
<path d="M112.49 95.1174C115.394 95.1174 118.161 95.7397 121.065 95.7397C122.523 95.7397 124.1 95.8946 125.249 94.8062C127.075 93.0757 128.672 90.2226 128.672 87.6489" stroke="black" stroke-linecap="round" stroke-linejoin="round"/>
<path d="M89.7737 87.6492C92.734 87.7181 95.6998 88.9571 98.4869 87.7184C101.314 86.4617 102.094 85.2372 102.55 82.0479C102.825 80.1166 106.59 70.8452 102.221 70.8452" stroke="black" stroke-linecap="round" stroke-linejoin="round"/>
<path d="M77.3264 117.523C79.8935 117.398 80.7495 114.021 80.7495 111.766C80.7495 109.359 80.3208 107.759 78.5712 106.009" stroke="black" stroke-linecap="round" stroke-linejoin="round"/>
<path d="M88.2178 134.638C89.2941 136.059 90.9094 136.913 91.952 138.303C92.7782 139.405 94.8136 139.538 95.9282 140.24C96.8241 140.804 101.027 142.005 101.599 140.862" stroke="black" stroke-linecap="round" stroke-linejoin="round"/>
<path d="M54.2987 104.591V93.8726C54.2987 93.8726 53.9118 96.6698 53.7067 98.4674C53.3847 101.291 53.089 102.873 53.0479 105.714C52.9805 110.374 54.3656 117.573 54.3656 117.573L49.095 118.891C49.095 118.891 48.4077 122.894 48.4362 125.479C48.4618 127.809 48.3468 129.202 49.095 131.409C49.7611 133.373 50.9368 134.104 51.7303 136.02C52.4468 137.751 52.423 138.866 53.0479 140.632C53.7017 142.479 55.0244 145.244 55.0244 145.244L62.2715 138.656C62.2715 138.656 65.6918 143.629 68.2009 146.562C72.3423 151.402 80.0597 157.762 80.0597 157.762C80.0597 157.762 63.0812 170.912 65.5656 181.479C66.9553 187.39 69.3404 191.317 74.7891 193.997L75.0049 194.103C80.9487 197.028 86.6951 199.855 90.6008 193.997C94.5538 188.067 94.5538 176.867 95.8714 172.914L97.8479 166.985L109.707 170.279C109.707 170.279 106.926 173.679 107.071 176.209C107.27 179.664 107.071 181.479 113.001 182.797C118.93 184.114 120.332 182.839 122.224 181.479C125.359 179.227 120.907 170.279 122.224 170.279C123.542 170.279 134.962 168.303 139.354 166.985C139.354 166.985 142.648 193.338 144.624 195.973C146.601 198.609 152.135 203.22 158.46 200.585C164.784 197.95 165.487 191.581 165.048 188.726C165.048 182.797 149.236 162.373 149.236 162.373C149.236 162.373 157.47 157.488 163.071 152.491C168.621 147.54 171.533 142.487 172.954 139.973C172.954 139.973 160.102 141.77 160.102 143.662C160.102 145.554 160.173 147.128 158.978 148.797C157.127 151.381 153.474 151.114 151.181 151.131C147.458 151.157 143.696 151.708 140.03 150.975C136.99 150.367 134.075 149.412 130.919 150.024C126.676 150.847 123.467 154.571 119.544 156.179C116.556 157.403 113.888 155.86 111.626 153.931C110.242 152.751 109.626 152.044 107.84 151.597C106.3 151.212 104.526 151.442 102.947 151.442C100.578 151.442 98.6603 151.622 96.7582 150.024C95.4171 148.898 94.5688 147.813 92.7474 148.088C89.4996 148.578 86.0237 148.47 82.8413 147.621C76.1404 145.834 72.6587 139.848 69.6851 134.015C67.5973 129.92 66.4669 125.345 64.2567 121.326C62.7842 118.649 60.1217 116.927 58.1021 114.722C55.113 111.458 54.2987 108.879 54.2987 104.591Z" fill="black"/>
<path d="M139.626 32.958C143.318 30.2728 142.391 32.323 145.707 32.926C149.229 33.5664 151.835 30.178 154.476 28.3492C158.058 25.8692 161.769 24.8926 166.126 24.8926" stroke="black" stroke-linecap="round" stroke-linejoin="round"/>
<path d="M76.2546 31.2292C79.0656 31.2292 80.736 31.1065 83.0398 32.7015C84.4779 33.6971 85.294 34.6858 87.2005 34.6858" stroke="black" stroke-linecap="round" stroke-linejoin="round"/>
<path d="M86.6245 34.1099C88.258 34.1099 91.6796 33.2174 90.6572 35.2621" stroke="black" stroke-linecap="round" stroke-linejoin="round"/>
<path d="M48.602 118.796C48.602 124.083 47.7835 129.179 50.2022 133.775C51.2749 135.813 52.2573 138.116 52.6667 140.368C53.0811 142.647 54.2709 143.868 54.939 145.873" stroke="black" stroke-linecap="round" stroke-linejoin="round"/>
<path d="M107.364 176.982C110.256 177.547 113.607 178.524 115.877 180.567C117.028 181.602 120.205 181.015 121.766 181.015" stroke="black" stroke-linecap="round" stroke-linejoin="round"/>
<path d="M102.46 140.632H101.801C101.801 140.632 100.156 141.594 97.189 140.632C94.2259 139.672 89.941 136.788 88.6243 135.362C88.8439 136.24 89.6784 138.392 91.2596 139.974C93.236 141.95 98.5066 143.927 101.142 143.268C103.25 142.741 102.899 141.291 102.46 140.632Z" fill="black"/>
<path d="M147.259 134.703C146.732 139.446 142.648 141.95 140.671 142.609C144.624 143.926 149.236 143.926 151.212 142.609C152.67 141.637 153.189 139.973 153.189 137.338C153.189 133.385 149.016 128.554 146.601 126.138C147.04 127.017 147.786 129.959 147.259 134.703Z" fill="black"/>
<path d="M114.319 118.232C109.048 119.814 105.095 117.134 103.777 115.597C104.656 119.33 108.521 126.402 116.954 124.821C125.387 123.239 123.981 116.695 122.224 113.621C121.785 114.499 119.589 116.651 114.319 118.232Z" fill="black"/>
<path d="M77.4243 117.574C78.5224 116.695 80.7184 114.411 80.7184 112.303C80.7184 109.962 80.1984 106.58 79.1583 105.393C78.588 104.973 78.3085 104.839 78.742 105.056C78.8889 105.13 79.0277 105.244 79.1583 105.393C80.3216 106.25 82.6949 108.296 82.6949 110.986C82.6949 112.962 82.6949 116.256 80.7184 117.574C79.1373 118.628 77.8635 118.013 77.4243 117.574Z" fill="black"/>
<path d="M91.2595 88.5855C94.334 88.5855 100.878 87.0043 102.46 80.6796C103.869 75.0412 103.638 72.4746 103.26 71.6728C103.212 71.5974 103.164 71.5251 103.118 71.4561C103.166 71.5037 103.214 71.5752 103.26 71.6728C104.598 73.7525 106.771 78.1364 105.754 80.6796C104.436 83.9737 102.46 87.2678 100.483 88.5855C99.3867 89.3164 93.236 89.9031 91.2595 88.5855Z" fill="black"/>
<path d="M113.074 95.1855C113.049 95.1816 113.025 95.1776 113.001 95.1736C113.025 95.1773 113.049 95.1813 113.074 95.1855C115.72 95.6047 120.278 95.1555 123.542 93.1971C125.931 91.7635 127.974 89.9832 128.664 88.3592C128.68 86.8088 128.575 85.8971 128.812 86.6089C128.993 87.1517 128.926 87.7443 128.664 88.3592C128.637 91.114 128.232 95.8854 124.86 97.1501C119.634 99.1098 115.919 95.6721 113.074 95.1855Z" fill="black"/>
<path d="M150.554 89.2443C147.163 87.791 141.989 82.2169 140.012 78.7031C140.012 80.2404 140.276 83.8419 141.33 85.9502C142.648 88.5855 141.989 90.5619 149.236 94.5149C156.483 98.4678 163.071 85.2914 159.777 89.2443C156.483 93.1972 155.165 91.2208 150.554 89.2443Z" fill="black"/>
<path d="M196.671 98.4676C192.982 97.9406 185.91 93.8559 182.836 91.8794C183.89 96.6229 183.714 104.836 183.495 108.35C187.228 107.032 196.671 108.35 199.965 109.009C203.172 109.65 201.384 114.246 209.189 111.855C209.401 111.79 209.621 111.72 209.848 111.644C211.429 111.117 212.263 107.032 212.483 105.056C211.605 104.617 208.794 103.87 204.577 104.397C200.361 104.924 199.746 102.421 199.965 101.103C200.405 100.444 200.361 98.9947 196.671 98.4676Z" fill="black"/>
<path d="M150.554 48.3971C149.499 46.8159 140.891 43.7853 136.718 42.4676L139.354 32.5853C139.573 32.3657 140.408 31.7947 141.989 31.2676C143.965 30.6088 143.306 32.5853 147.918 32.5853C152.53 32.5853 153.189 27.9735 155.824 26.6559C158.459 25.3382 167.024 21.3853 167.024 24.6794C167.024 27.9735 162.412 29.2912 157.142 32.5853C151.871 35.8794 151.871 50.3735 150.554 48.3971Z" fill="black"/>
<path d="M76.7656 31.2676L85.9892 47.7382C87.3068 47.0793 90.3374 45.6299 91.9186 45.1029L97.848 43.1264L91.9186 34.5617C90.6009 34.3421 87.7021 34.0346 86.648 34.5617C85.3303 35.2205 85.3303 33.2441 82.0362 31.2676C79.4009 29.6864 77.4244 30.6088 76.7656 31.2676Z" fill="black"/>
</svg>
