<?xml version="1.0" encoding="utf-8"?>
<!-- Generator: Adobe Illustrator 24.0.2, SVG Export Plug-In . SVG Version: 6.00 Build 0)  -->
<svg version="1.1"
	 id="svg4" inkscape:version="0.92.4 (5da689c313, 2019-01-14)" sodipodi:docname="G5.Virus Klecks.svg" xmlns:cc="http://creativecommons.org/ns#" xmlns:dc="http://purl.org/dc/elements/1.1/" xmlns:inkscape="http://www.inkscape.org/namespaces/inkscape" xmlns:rdf="http://www.w3.org/1999/02/22-rdf-syntax-ns#" xmlns:sodipodi="http://sodipodi.sourceforge.net/DTD/sodipodi-0.dtd" xmlns:svg="http://www.w3.org/2000/svg"
	 xmlns="http://www.w3.org/2000/svg" xmlns:xlink="http://www.w3.org/1999/xlink" x="0px" y="0px" viewBox="0 0 198.4 198.4"
	 style="enable-background:new 0 0 198.4 198.4;" xml:space="preserve">
<style type="text/css">
	.st0{fill:#92DBA6;}
	.st1{display:none;fill:#92DBA6;}
	.st2{fill:#FFFFFF;}
</style>
<path id="path2_1_" class="st0" d="M189,20.6C179.9,4.1,154.4-1.9,135,2c-19.9,4.1-19.4,16-43.9,25.8c-25.3,10.1-34.3,0.8-50.7,9.1
	C15,49.8,3.5,88.9,9.2,119.7c6,32.8,32.6,68.6,73.8,74c51.9,6.8,96.5-38.5,97.5-70.5c0.6-18.5-13.5-31.1-5.2-50.1
	c5.2-11.9,14.9-16.2,16.9-31.2C192.6,39.2,193.9,29.6,189,20.6z"/>
<sodipodi:namedview  bordercolor="#666666" borderopacity="1" gridtolerance="10" guidetolerance="10" id="namedview6" inkscape:current-layer="svg4" inkscape:cx="151.5407" inkscape:cy="109.79305" inkscape:pageopacity="0" inkscape:pageshadow="2" inkscape:window-height="1699" inkscape:window-maximized="1" inkscape:window-width="2736" inkscape:window-x="-13" inkscape:window-y="-13" inkscape:zoom="3.4231221" objecttolerance="10" pagecolor="#ffffff" showgrid="false">
	</sodipodi:namedview>
<g id="Farbe_1_">
	<g>
		<g>
			<path class="st1" d="M101.3,189.1c-33.4,0-66.7,0-100.1,0c-0.6,0-0.7-0.1-0.7-0.7c0-61.5,0-122.9,0-184.3c0-0.7,0.1-0.8,0.7-0.8
				c66.7,0,133.3,0,200,0c0.6,0,0.7,0.1,0.7,0.7c0,61.5,0,122.9,0,184.3c0,0.6-0.1,0.7-0.7,0.7C168,189.1,134.7,189.1,101.3,189.1z"
				/>
			<path class="st1" d="M1.4,5.8c0-0.2,0-0.5,0-0.6c0-0.5,0.2-0.7,0.7-0.6c0.2,0,0.5,0,0.7,0c64.5,0,128.9,0,193.5,0
				c1.3,0,1.3,0,1.3,1.3c0.2,0.5,0.1,0.8,0.1,1.3c0,34.7,0,69.3,0,104c0,24.7,0,49.6,0,74.3c0,1.5,0,1.5-1.6,1.5
				c-64.5,0-128.8,0-193.3,0c-1.6,0-1.6,0-1.6-1.5C1.3,126,1.3,66.6,1.3,7.1C1.3,6.6,1.1,6.2,1.4,5.8z"/>
			<path class="st1" d="M1.4,5.8c0,0.3,0,0.8,0,1.1c0,59.5,0,119,0,178.6c0,0.2,0,0.5,0,0.8c0,0.3,0.1,0.5,0.5,0.5
				c0.2,0,0.3,0,0.6,0c64.7,0,129.4,0,194,0c1.2,0,1,0.1,1-1c0-59.5,0-119.2,0-178.7c0-0.3,0-0.8,0-1.1c0.2,0,0.3,0.2,0.2,0.3
				c0,0.2,0,0.5,0,0.7c0,59.8,0,119.5,0,179.4c0,0.2,0,0.5,0,0.7c0,0.3-0.1,0.5-0.6,0.5c-0.2,0-0.5,0-0.6,0c-64.8,0-129.6,0-194.5,0
				c-1.3,0-1.2,0.1-1.2-1.1c0-59.9,0-119.6,0-179.5C1.1,6.5,0.8,6,1.4,5.8z"/>
			<path class="st1" d="M197.2,105.8c-0.6-4.1-1.6-8-3.5-11.6c-0.5-0.9-1.2-1.7-1.8-2.5c-0.6-0.6-1.2-0.7-1.8-0.5
				c-2.1,0.6-4,1.4-6.1,1.7c-4.2,0.7-8.3,1.1-12.5,1c-0.5,0-0.6-0.2-0.6-0.7c-0.3-3.8-1.4-7.2-3.6-10.3c-0.8-1.3-1.8-2.3-3.1-3.1
				c-1.4-1-2.9-1.4-4.6-0.7c-1.2,0.5-2.4,0.7-3.2,1.7c-2.1-3.6-4.2-7.3-6.4-10.9c-0.2-0.3-0.1-0.5,0.1-0.7c3.9-2.3,7.7-4.8,12.5-4.8
				c2.1,0,4.2-0.1,6.1-0.7c1.4-0.5,1.7-0.9,1.7-2.3c0.1-2.9-1-5.2-2.4-7.5c-1.5-2.5-3.1-4.9-5.4-6.7c-1.2-0.9-2.5-1.7-4.2-1.7
				c-1.3,0-2.1,0.7-2.1,1.9c0,1.1-0.5,2.1-1,3c-3,4.6-5.9,9.2-9.4,13.6c-0.1,0.2-0.3,0.3-0.5,0.6c-1.8-1.7-3.4-3.9-5.4-5.4
				c-6.5-4.7-13.1-9.5-20.9-12c-1.3-0.5-1.3-0.5-0.5-1.6c1.8-2.7,4.3-4.8,7.4-6c2.1-0.8,4-1.9,5.7-3.6c0.8-0.8,1-1.6,0.6-2.7
				c-0.9-2.5-2.8-4.3-4.6-6.2c-2.1-1.9-4.5-3.4-7.2-4.7c-1.2-0.5-2.3-0.6-3.5-0.8c-0.7-0.1-1.3,0.2-1.6,0.8c-2,2.7-3.4,5.9-4.5,9
				c-0.6,1.4-0.5,3.1-0.7,4.6c-0.2,2.6-0.7,5.4-0.6,8c0.1,0.8-0.5,0.5-0.8,0.3c-1.5-0.2-3-0.5-4.5-0.6c-2.1-0.2-4.3-0.3-6.4-0.3
				c-0.5,0-1,0-1.5-0.2C93.6,42,90.7,42,87.7,43c-0.3,0.2-0.9,0.2-1.5,0.5c-0.7,0.3-0.9,0-1-0.6c-2-8.6-2.1-17,1.6-25.2
				c1.3-2.9,2-5.8,1.6-9c0-0.3,0-0.7,0.1-1c0-1-0.3-1.6-1.4-1.8c-1.7-0.3-3.5-0.6-5.3-0.7c-4.2-0.2-8.3,0.2-12.4,1.5
				c-1.5,0.5-2,1-2,2.5c0,3.2,0,6.4,0.8,9.5c0.1,0.6,0.1,0.8-0.7,0.9c-1.3,0-2.5,0.3-3.7,1c-1.4,0.8-2.4,1.8-2.3,3.5
				c0,1,0.5,1.8,1.3,2.2c2.5,1.1,3.9,3.1,5.1,5.6c1.7,3.8,2.7,7.6,3.6,11.6c0.3,1.5,0.8,3,1.2,4.4c0.1,0.3,0,0.6-0.3,0.7
				c-3.9,1.7-7.7,3.6-11.2,6.2c-0.6,0.3-0.7,0-0.9-0.3c-2-2.9-3.4-5.8-4.3-9.1c-0.7-2.4-0.9-4.9-1.7-7.2c-0.6-1.8-1.4-3.5-2.7-5.1
				c-1.2-1.5-2.1-1.8-3.9-1.3c-1.5,0.3-2.7,1.3-3.7,2.2c-2.1,1.8-3.9,3.6-5.4,5.8c-0.8,1.3-1.4,2.6-1.8,4.1c-0.3,1.3,0,2.3,1.2,3
				c1.3,0.8,2.5,1.6,3.8,2.3c3.6,2.1,6.7,4.8,9.8,7.5c0.9,0.8,1.7,1.7,2.7,2.5c0.2,0.2,0.5,0.6,0,0.9c-7.6,7.2-13.4,15.9-16.6,26
				c-0.5-0.2-0.7-0.5-1-0.8c-2.5-2.4-5.2-4.7-8-6.8c-1.3-1-2.3-1-3.6,0c-0.7,0.6-1.3,1.3-1.6,2.1c-2.2,4.6-3.1,9.2-2,14.3
				c0.2,1,0.7,2.1,1.4,3c0.8,1,1.7,1.3,3,1c2.1-0.5,4-0.9,6.2-1.1c0.9-0.1,1.7,0,2.7,0c0.5,0,0.5,0.2,0.5,0.6
				c-0.5,3.2-0.6,6.5-0.5,9.8c0,1.4,0.1,2.7,0.3,4c0.1,0.7-0.1,0.9-0.7,1c-3.5,0.9-6.9,1.1-10.5,0.9c-3.8-0.2-7.4-1.1-11.2-1.7
				c-2.3-0.3-4.6-0.7-6.9-0.8c-0.7,0-1.3,0.2-1.7,0.8c-0.8,1-1,2.3-1,3.5c0,4.6,0.9,8.9,3.1,13c0.5,0.9,1,1.7,1.7,2.4
				c1,1,2.2,1.3,3.6,0.9c4.2-1,7.9-2.9,11.4-5c2.2-1.4,4.4-2.5,6.8-3.4c0.6-0.2,0.8-0.2,0.9,0.5c0.8,3.1,2.2,5.7,4.9,7.6
				c1.6,1.3,3.5,1.9,5.4,2.3c0.5,0.1,0.8,0.2,1,0.8c0.6,1.5,1.7,2.5,2.8,3.6c0.8,0.9,1.7,1.8,2.4,3c-2.7,2.2-5.7,3.4-8.9,4.6
				c-2.5,0.9-5,1.9-7.3,3.4c-0.3,0.2-0.7,0.6-1,0.8c-0.7,0.6-0.8,1.4-0.6,2.2c0.5,1.5,1.4,2.6,2.3,3.8c3.1,3.5,6.8,6.2,11.3,7.8
				c0.6,0.2,1.3,0.3,1.8,0.5c1.2,0.3,2.1-0.1,2.5-1.3c1.4-3.1,2.4-6.2,3.7-9.2c0.6-1.6,1.5-3,2.7-4.3c6.1,6,13.4,10.3,21.3,13.5
				c0.5,0.1,0.5,0.3,0.2,0.7c-1.2,2.1-2.3,3.9-3.7,5.7c-1,1.5-2,3.2-2.7,4.8c-0.6,1.3-0.5,2.4,0.5,3.4c0.2,0.3,0.6,0.7,0.9,0.8
				c3.8,2.3,7.9,3.4,12.2,2.4c2.1-0.5,2.7-1.4,2.8-3.4c0.1-2.2-0.1-4.2-0.2-6.4c-0.1-1.5-0.2-2.9,0.1-4.3c0.1-0.3,0.1-0.6,0.6-0.6
				c3.9,0.5,8,0.8,11.9,1.3c0.2,0,0.5,0.1,0.8,0.1c-0.5,0.6-0.8,1.3-1.3,1.7c-1.4,1.7-2.1,3.6-2.4,5.7c-0.1,0.7,0.1,1.3,0.6,1.7
				c0.6,0.7,1.3,1.3,2.1,1.6c3.8,1.8,7.7,2.4,11.9,1.8c0.9-0.1,1.8-0.6,2.8-0.9c0.9-0.3,1.3-1,1.4-2.1c0.1-3.6-0.3-7.1-1.5-10.5
				c-0.2-0.6,0-0.8,0.6-0.9c4.6-1.4,9.2-2.7,13.5-4.9c1.8-0.9,3.8-1.8,5.7-2.9c0.3-0.2,0.6-0.1,0.9,0.2c5.7,6.4,9.8,13.6,13.1,21.3
				c0.8,1.9,1.8,3.8,2.8,5.7c0.1,0.3,0.5,0.6,0.8,0.9c-0.5,0-0.7,0-0.9,0c-48.4,0-96.8,0-145.2,0c-0.7,0-0.8-0.2-0.8-0.9
				c0-60,0-120,0-179.8c0-0.7,0.2-0.8,0.9-0.8c64.6,0,129.2,0,193.8,0c0.7,0,0.9,0.2,0.9,0.9c0,33.1,0,66.3,0,99.3
				C197.2,105.4,197.2,105.6,197.2,105.8z"/>
			<g>
				<path class="st0" d="M26.7,96.1c2-3.5,3-7.4,2.8-11.5c0-1.4-0.3-4.1-0.6-5.7c1.2,0.9,5.2,4.4,6,5.4c3,3.2,3.6,4.2,7.9,5.5
					c0.5,0.1,0.8,0.2,1.3,0.2c0.2,0,0.5,0.1,0.6-0.1s0-0.6-0.2-0.7c-0.1-0.1-0.3-0.2-0.6-0.2c-2.2-0.6-4.3-1.5-6.2-2.6
					c-0.5-0.2-0.6-0.5-0.5-1c1.8-5.9,4.7-11.2,8.4-16.1c2.4-3.3,5.2-6.4,8.3-9.2c0.5-0.3,1.7-1,2.1-0.6c1.8,2.2,3.6,4.3,5.1,6.6
					c0.2,0.3-0.5,1.6,0,1.3c0.5-0.3,0.2-0.8,0-1.3c-1.6-2.3-3.2-4.6-5.1-6.6c-3.7-4.2-7.6-6-12.4-9.2c-1.2-0.7-3.2-2.1-4.5-2.6
					c-0.2-0.1,0-1.4-0.1-1.7c5.5-2.6,9.5-6.7,11.8-12.5c1,1.4,1.5,2.9,1.8,4.3c0.7,2.7,1,5.6,2,8.2c2,5.6,5.1,10.4,9.1,14.6
					c0.7,0.7,1.4,1.4,2,2.1c0.2,0.2,0.5,0.5,0.9,0.2c0.3-0.3,0.1-0.6-0.1-0.9c-1.2-1.3-2.4-2.5-3.6-3.8c-0.9-1-1.8-2.3-2.8-3.4
					c3.9-2.6,7.7-5,12.1-6.6c0.5-0.2,0.8-0.3,0.7-1c-0.9-4.2-1.8-8.4-3.1-12.5c-0.7-2.4-1.8-4.6-2.9-6.8c-0.6-1.4-1.7-0.3-3.1-0.9
					c-0.6-0.2-2-1.4-2.4-1.7c-0.8-0.6,0.1-2.4,0.6-3.2c0.9-1.6,2.4-2.2,4.2-2.5c0.3-0.1,0.7-0.1,1-0.1c0.7,0,1.2,0.2,1.4,0.9
					c1.2,3,2.3,5.9,3.5,8.8c0.9,2.3,1.2,4.7,1.6,7.1c0.6,3.4,1.2,6.8,1.7,10.4c0.1,0.3,0.2,0.5,0.6,0.3c1.8-0.6,5.4-1.5,7.5-2.1
					c-0.7,1.1-1.6,2.5-1.8,3.8c-0.6,2.9,0.1,4.7,2.3,6.5c0.6,0.6,0.2,1.6,0.8,2.2c2,2.1,2.7,4.6,2.5,7.3c-0.1,2.6-0.1,5.2-0.2,7.8
					c0,0.5-0.2,1.1,0.5,1.1c0.6,0,0.6-0.7,0.6-1.1c0.1-2.7,0.1-5.4,0.2-8.1c0.1-2.1-0.5-3.9-1.5-5.7c-0.2-0.3-0.5-0.8-0.7-1.3
					c3.1,0.7,6.1,0.6,9-0.8c0.2,0.1,0.1,0.2,0.1,0.3c-1,2.2-1.2,4.3-0.6,6.6c0.3,1.6,0.9,3.2,1.4,4.8c0.1,0.3,0.2,0.6,0.3,0.8
					c0.2,0.3,0.5,0.7,0.9,0.5c0.3-0.2,0.2-0.6,0.1-0.9c-0.6-1.5-1-3-1.4-4.4c-0.3-1.5-0.7-3-0.5-4.4c0.1-0.5,0.2-1,0.5-1.5
					c1-1.8,2.1-3.6,3.2-5.5c1.8-2.5,1.4-5.9-0.8-8.1c-0.3-0.2-0.6-0.6-0.9-1c0.7-0.2,1.4-0.1,2.1-0.1c3,0,5.9,0.6,8.8,1
					c0.2,0,0.5,0.1,0.5,0.5c-0.3,2.6,1.4,5.1,0.9,7.8c-0.5,2.5-1.3,5.4-1.8,7.9c-0.1,0.3-0.7-0.2,0,0c0.7,0.2-0.1,0.5,0,0
					c1.7-6.2,2.3-12.3,2.1-18.6c-0.2-4.1,0.1-8.2,1.4-12.2c0.8-2.3,1.7-4.4,2.9-6.6c3.5,5.9,7.3,9.4,13.9,11.6
					c-0.3,0.5-1.2,1-1.6,1.3c-1,0.5-2.4,1.3-3.5,1.7c-5.8,2.5-6,6.5-7.4,12.4c-0.7,3.1-1.4,6.5-1.3,9.7c0,0.5-1.2,0.9-0.7,1.3
					c0.2,0.2,0.5,0.2,0.6-0.1c0.1-0.3,0.1-0.7,0.1-1c-0.1-3.9,0.3-7.8,1.5-11.4c0.6-1.9,0.6-1.9,2.5-1.3c5.1,1.9,9.8,4.3,14.1,7.6
					c2.5,2.1,5.2,4,7.7,6c1.3,1,2.3,2.3,3.6,3.4c0.3,0.3,0,0.5-0.2,0.7c-1.8,1.6-3.7,3.2-5.5,4.7c-2.3,1.8-3.4,4-5.7,5.8
					c-0.1,0.1,1.7,0,0,0c0.1,0.2-1.3,0.3-1,0.3c0.3,0,0.7-0.1,1-0.3c3.4-2.7,6.8-5.2,10.1-8.1c3.4-2.9,6-6.4,8.3-10.1
					c1.6-2.5,3.1-5,4.7-7.4c0.1-0.1,0.1-0.2,0.3-0.2c1.8,5.1,4.9,9.9,9.2,13.3c-0.5,0.2-1.8,1.5-2.2,1.5c-3.4-0.3-6.5,0.9-9.5,2.3
					c-4.2,1.9-8.4,4.7-11.9,7.6c-1.7,1.5-1.8,2.1-3.4,3.9c-1.3,1.5-2.4,3-3.6,4.6c-0.5,0.6-0.9-0.3-0.6,0.6c0.3,0,0.5-0.3,0.6-0.6
					c2-2.4,3.9-5,6-7.3c2.1-2.3,4.3-4.2,6.8-5.9c0.5-0.3,0.7-0.2,0.9,0.2c2.4,3.3,4.3,6.8,6,10.5c0.2,0.5,0,0.7-0.3,0.9
					c-3.4,3.1-7.3,5.2-11.6,6.7c-2.3,0.8-2.2,2.2-4.6,2.6c-0.2,0-3.1-0.6-3-0.1c0.1,0.3,0.1,0.8,0.7,0.6c6.2-1.5,12.2-3.4,17.2-7.6
					c1.2-1,2.4-1.9,3.6-2.9c-1.3,6.5,2.8,12.8,7,17.8c-2.5-0.5-7.4-0.5-9.8-0.8c-4.6-0.5-9.6-0.8-14.3-0.3c-0.7,0.1-0.7-0.2-1.4-0.1
					c-0.5,0.1-0.6-0.8-0.6-0.3c0,0.5,0.3,0.5,0.6,0.3c1.6-0.1,3.4-0.3,5-0.3c5.2-0.1,10.4,0.3,15.5,1.4c0.6,0.1,0.7,0.3,0.8,0.9
					c0.5,4.2,0.3,8.4-0.1,12.5c-0.1,1.5-0.3,3-0.6,4.4c-0.1,0.9-0.2,1-1.2,0.8c-2.8-0.6-5.5-1.3-8.3-1.8c-2.3-0.5-4.7-1-7.2-1.5
					c-0.2,0-0.3,0-0.6,0c-0.3,0-0.6,0.1-0.6,0.5c0,0.3,0.3,0.2,0.5,0.3c2.7,1,5.4,1.6,8.1,2.2c4.4,0.9,8.7,1.9,13.1,2.3
					c3,0.2,6.1,0.1,9.1-0.1c1.2-0.1,2.3,0,3.6-0.1c-2.3,2.2-3.9,4.6-4.9,7.5c-0.9,2.9-0.9,5.8-0.3,9c-0.8-0.7-1,0.1-1.6-0.5
					c-2.7-2.3-5.9-4.8-8.9-6.5c-5.1-2.9-10.2-5.9-16.2-5.2c-1.3,0.1-2.5,0-3.8,0.3c0.5,0.7,0.9-0.1,1.6-0.2c4.9-0.7,9.5,1.3,14,3.1
					c0.5,0.2,0.6,0.3,0.3,0.8c-1.2,2.9-2.5,5.5-3.9,8.2c-0.3,0.8,0.2,1.5-0.1,2.3c-0.2,0.6-0.2-0.2,0,0c2.7,2.1,5,5.1,7.6,7.3
					c3.1,2.5,7.9,4,11.7,5.5c1.4,0.6,3,0.9,4.4,1.3c1.3,0.3,0.9,1.4,2.1,1.9c1.2,0.6,1.4,1.4,0.8,2.5c-0.9,1.9-2,3.6-3.2,5.4
					c-0.5,0.7-1,0.8-1.8,0.2c-1-0.7-3.6-1.7-4.4-2.6c-3.4-3.5-5.2-6.8-8.9-9.9c-3.4-2.7-7-5.2-11-7.3c-0.7-0.3-1.2-0.2-1.5,0.5
					s-0.8,1.3-1.4,1.8c-2.8,3.3-5.8,6.4-9.1,9.1c-0.5,0.3-0.7,0.3-1,0c-0.6-0.6-1.3-1-1.8-1.5c-0.3-0.2-0.7-0.5-1-0.7
					c-0.3-0.1-0.7-0.6-0.9-0.1c-0.3,0.5,0.1,0.8,0.5,1c1,0.8,2.2,1.7,3.2,2.6c3.2,2.9,7.7,5.4,11.2,8c4,3.1,6.7,4.9,11.2,7.2
					c0.2,0.1,0.6,1.6,0.9,1.7c-5.7,2.6-9.5,7-11.9,12.7c-0.5-1-0.9-1.8-1.3-2.9c-3.1-7.9-7-15.3-12.6-21.7c-1.7-1.9-3.6-3.9-5.4-5.7
					c-0.1-0.1-0.2-0.2-0.5-0.3c-0.3-0.2-0.6-0.2-0.9,0.1c-0.2,0.2,0,0.5,0.1,0.6c0.6,1.1,1.5,1.9,2.4,2.9c1,1,1,1-0.2,1.8
					c-3.4,2.1-7,3.6-10.9,5c-2.5,0.9-5.2,1.8-8,2.3c-0.3,0-0.6,0.1-0.7-0.2c-1.5-2.9-3.1-5.7-3.9-8.8c-0.7-2.9-0.6-5.7-0.7-8.7
					c0-0.8-0.1-1.6-0.7-2.4c-0.3,0.3-0.5,0.7-0.5,1c-0.1,5.5,0.5,10.7,3,15.7c1,1.9,2.2,3.6,3,5.7c0.9,2.2,1.6,5.5,1.6,8
					c-5.2-3.3-10.6-4.2-16.6-2.5c0.2-1.1,0.8-1.9,1.4-2.7c0.8-1.1,1.6-2.3,2.5-3.4c1.8-2.4,2.7-5.2,3-8.2c0.5-4.7,0-9.2-1.2-13.7
					c-0.1-0.5,0.3-0.1,0,0c-0.6,0.2,0.2,0.8,0.2,1.3c0.6,2.7,0.9,5.5,1,8.2c0.1,3.1-1.2,5.2-2.2,8.2c-0.3,1-0.9,2.1-1.5,3
					c-0.2,0.3-0.5,0.5-0.9,0.5c-3.4-0.1-6.8-0.5-10.2-0.8c-0.9-0.1-1.7-0.2-2.7-0.3c-0.6,0-0.6-0.2-0.5-0.7c0.7-3.2,1.5-6.4,2.2-9.6
					c0.1-0.3,0.1-0.7,0-1c-0.1-0.2-0.2-0.6-0.5-0.5c-0.3,0-0.5,0.2-0.5,0.6c-0.2,0.9-0.3,1.9-0.6,2.9c-0.5,2.4-1.2,4.8-1.5,7.3
					c-0.5,3.1-0.5,6,0,9.1c0.1,0.9,0.1,1.8,0.2,2.9c-4.2-3.2-8.6-4.3-13.6-3.2c0-0.5,0.3-0.7,0.5-0.9c1.5-2.1,2.9-4.2,4.4-6.4
					c2.1-3.2,3.1-6.7,3.9-10.4c0.1-0.6,0.2-1.1,0.3-1.7c0-0.2,0.1-0.5-0.2-0.6c-0.2-0.1-0.3,0.1-0.6,0.2c-0.2,0.2-0.2,0.6-0.3,0.8
					c-0.7,2.6-1.2,5.2-2.2,7.8c-0.2,0.6-0.3,0.7-0.9,0.5c-5-1.9-9.6-4.6-14-7.5c-2.5-1.7-5.1-3.5-7.2-5.7c-0.5-0.5-0.5-0.7-0.1-1.1
					c3.2-4.1,7-7.8,11.2-10.9c0.1-0.1,0.3-0.2,0.6-0.5c-0.5-0.3-0.9-0.3-1.3,0c-3.5,2.9-6.9,5.6-9.8,9.1c-2.4,2.9-4.7,5.9-5.8,9.6
					c-0.6,1.9-1,4-1.7,5.8c0,0.1-0.1,0.2-0.2,0.5c-3.4-5.9-8.7-9.2-15-11.5c2.7-1.1,5.1-2.3,7.6-3.3c3-1.1,5.8-2.7,8.1-4.9
					c3.6-3.3,7-6.8,9.9-10.8c0.2-0.3,0.5-0.8,0.6-1.3c-0.5-0.1-0.7,0.1-0.9,0.5c-2.8,3.9-6.4,7-9.7,10.3c-0.5,0.5-0.7,0.5-1.2-0.1
					c-1.4-1.8-2.7-3.8-3.7-5.7c-0.2-0.3-0.1-0.6,0.2-0.7c2.5-0.8,4.2-2.6,5.5-4.8c0.5-0.7,0.9-1.4,1.4-2.2c1.6-2.6,4-3.9,6.9-4.3
					c1.5-0.2,3-0.3,4.6-0.5c0.5,0,1.3,0,1.2-0.5s-0.8-0.6-1.4-0.5c-1.2,0.1-2.3,0.3-3.5,0.5c-0.9,0.1-1.8,0.2-2.7,0.5
					c-2.7,0.5-4.5,2.1-5.9,4.2c-0.2,0.2-0.3,0.6-0.7,1c-0.1-4.4-2.9-8.3-6.1-11.2c2.5,0.2,5.7,1,8.1,1c2.3,0,4.6-0.2,6.9-0.8
					c0.7-0.1,1.4-0.5,1.7-1.3c-1.2-0.1-2.2,0.2-3.2,0.5c-3.7,0.8-7.4,0.7-11.1,0.5c-2.3-0.1-4.5-0.9-6.7-1.3
					c-0.5-0.1-0.8-0.2-1.3-0.2c-0.9,0.1-0.9-0.5-1-1.1c-0.9-5.1-0.8-10.3-0.2-15.4c0.1-1,0.1-1,1.2-0.8c1.4,0.2,2.7,0.8,3.9,1.3
					c0.2,0.1,0.5,0.1,0.7,0.2c0.2,0,0.5-0.1,0.6-0.2c0.1-0.2,0-0.3-0.1-0.6c-0.1-0.2-0.5-0.3-0.7-0.5c-3.9-1.7-8-2.2-12.2-1.1
					c-0.1,0-0.2,0-0.3,0C27,96.4,26.7,96.6,26.7,96.1z"/>
			</g>
			<path class="st1" d="M197.2,108.7c0,0.2,0,0.6,0,0.8c0,25.4,0,50.7,0,76.2c0,0.7-0.1,0.9-0.9,0.9c-14.8,0-29.6,0-44.4,0
				c-0.2,0-0.6,0-0.9,0c2-0.9,3.6-2.1,5.1-3.4c2.7-2.4,5-5.2,6-8.7c0.6-2.1,0.3-2.7-1.4-4c-2.4-1.8-5.1-3.1-7.6-4.7
				c-5-3.1-9.5-6.6-13.7-10.7c-0.3-0.3-0.8-0.8-1.2-1s-0.2-0.5,0-0.7c3.9-3.1,7.4-6.7,10.4-10.6c0.3-0.5,0.6-0.3,0.9-0.1
				c2.3,1,4.4,2.6,6.5,4c5,3.3,9,7.4,13.1,11.6c1.2,1.3,2.3,2.5,3.7,3.5c1.2,1,2,1,3.2,0.1c0.5-0.3,0.8-0.7,1-1.1
				c0.9-1.6,1.8-3.1,2.8-4.7c0.8-1.4,0.6-2.1-0.5-3.2c-1.3-1.3-2.9-1.9-4.5-2.3c-5.3-1.1-9.8-3.8-14-7c-2.7-2.1-5.2-4.1-7.9-6.2
				c-0.5-0.3-0.6-0.7-0.2-1.3c1.5-3,3-5.9,4.4-9c0.2-0.5,0.3-0.6,0.9-0.3c3.1,1.5,5.8,3.4,8.3,5.6c1.8,1.6,3.7,3.4,5.9,4.7
				c2,1,3.1,1,4.7-0.5c2.5-2.2,3.9-5,4.6-8.1c0.6-2.7,0.7-5.5-0.6-8.2c-0.3-0.8-0.9-1.4-1.8-1.7c-2.7-0.9-5.3-0.9-8-0.7
				c-3.6,0.3-7.2,0.2-10.6-0.3c-0.5-0.1-0.7-0.2-0.6-0.8c0.6-3.9,1-7.8,1.2-11.6c0-0.5,0-0.7,0.6-0.7c4.6,0,9.2,0,13.9,0.8
				c3.8,0.7,7.5,1.5,11.1,2.9c0.9,0.3,1.8,0.8,2.7,1.4c1.5,0.9,3.1,1.5,4.9,1.9c1.4,0.3,2.1,0,2.4-1.4
				C196.9,109.7,197,109.1,197.2,108.7C197.1,108.7,197.2,108.7,197.2,108.7z"/>
			<g>
				<path class="st0" d="M67.6,8.5c7.7,1.7,12,1.6,19.5-0.6c-0.2,1.7-0.2,3.3-0.7,4.9c-1,3.4-2.5,6.7-3.4,10.3
					c-0.9,3.6-1.4,7.3-1,10.9c0.3,3.2,0.9,6.3,1.6,9.4c0.1,0.7,1,1,0.5,1.1c-1.8,0.5-3.8,1.5-5.5,1.9c-0.5,0.1-2.1,1.3-2.2,0.7
					c-0.8-4.7-2.2-10.7-3-15.3c-0.5-2.5-0.7-3.2-1.7-5.6c-1.3-3.1-3.5-7.5-4-10.7C67,13.5,67.8,10.8,67.6,8.5z"/>
			</g>
			<g>
				<path class="st0" d="M193.4,111.7c-0.5-0.2-2.3-0.7-2.8-0.9c-4.3-2.7-9.5-4.2-14.4-5c-4.5-0.8-9.6-1.7-14.1-1.5
					c-0.8,0-2.1,0-2.5-0.5s0.1-2.2,0.1-3c0-0.6,0.1-1.3,0-1.8c-0.1-0.6,0.7-0.1,1.3,0c1.3,0.2,2.7,0.5,4,0.6
					c2.7,0.2,2.8-1.1,3.6-3.8c0.5-1.6,1.8-1.1,3.5-1.3c4.3-0.1,8.4-0.5,12.6-1.3c1.2-0.2,2.5-1.5,3.6-1.8c0.1,0,0.1,0.6,0.2,0.7
					C187.8,98.5,190.6,106,193.4,111.7z"/>
			</g>
			<g>
				<path class="st0" d="M9.7,130.9c1.3-3.3,1.5-6,0.9-9.2c-0.6-3.3-3-7.3-5.1-10.1c1.5,0.2,3.8,0.3,5.2,0.6c3.7,0.6,7.5,2.4,11.2,3
					c3.8,0.6,7.7,0.1,11.4-0.8c0.2-0.1,0.7-0.5,0.7,0.2c0,0.5,0.6,0.9-0.3,1.3c-2.7,1-4,3.1-4.4,5.8c-0.1,0.7-0.3,1-1,1.3
					c-2.4,0.9-4.6,3.5-6.9,4.9c-3.5,2.1-7,3.3-10.9,4.7C10.5,132.2,9.9,130.9,9.7,130.9z"/>
			</g>
			<g>
				<path class="st0" d="M47.1,129.2c0,2.6-1.6,2.5-3.9,3.6c-1.6,0.7-3.2,0.8-4.9,0.1c-3.9-1.5-6.7-4.1-7.6-8.2
					c-0.3-1.5-0.5-3,0-4.4c0.7-2.3,2.4-5.5,4.9-5.6c3.4-0.2,7.6,2.9,9.7,5.2C47.1,121.9,47.1,126.6,47.1,129.2z"/>
			</g>
			<g>
				<path class="st0" d="M91.2,42.2c1.2,0,2.2,1.3,3.4,1.7c4.7,1.7,6,6.8,2.5,10.5c-1.6,1.8-3.8,2.5-6.2,2.9c-2,0.2-3.8,0-5.5-0.8
					c-3-1.4-4.7-4.7-3.8-7.4c0.3-1.1,0.9-2.1,1.7-3C85.4,43.9,88.2,42,91.2,42.2z"/>
			</g>
			<g>
				<path class="st0" d="M169,93.2c0,1.6-0.2,2.7-0.9,3.9c-0.9,1.5-2.3,2.1-3.9,1.3c-2.3-1-3.8-2.9-4.9-5c-0.9-2.1-1.7-4.1-2.2-6.3
					c-0.5-1.9-0.1-3.8,0.6-5.6c0.7-1.7,2.3-2.3,4-1.5c1.5,0.6,2.5,1.7,3.5,2.9C167.6,85.9,168.9,89.5,169,93.2z"/>
			</g>
			<g>
				<path class="st0" d="M170.8,131.5c0-3.6,1.2-7.1,3.5-10c0.6-0.7,1.3-1.3,2.1-1.7c1.3-0.7,2.4-0.3,3.1,0.9c0.8,1.4,1,2.9,0.9,4.4
					c-0.1,3.9-1.3,7.4-3.8,10.4c-0.3,0.5-0.8,0.8-1.3,1c-2,1-3.2,0.6-4-1.5C171,133.8,170.9,132.7,170.8,131.5z"/>
			</g>
			<g>
				<path class="st0" d="M21.1,89.9c0.1-2.7,0.6-5.9,2.2-8.8c0.3-0.6,0.8-1.3,1.3-1.7c0.9-1.1,2.1-1,2.9,0.2c0.8,1.1,1,2.5,1.3,3.8
					c0.5,4.3-0.1,8.4-2.3,12.2c-0.2,0.5-0.6,0.9-1,1.4c-0.9,1-2.1,1-2.9-0.2c-0.7-0.9-0.9-1.9-1.2-3.1
					C21.3,92.5,21.3,91.3,21.1,89.9z"/>
			</g>
			<g>
				<path class="st0" d="M158.2,45.8c0.7,0,1.3,0.2,1.8,0.7c4.2,3.2,7,7.2,8.6,12.2c0.2,0.8,0.5,1.6,0.3,2.4c-0.2,1.1-0.8,1.6-2,1.1
					c-1-0.3-2-0.9-2.8-1.7c-3.5-3.1-6.1-6.7-7.3-11.2c-0.2-0.8-0.2-1.6-0.1-2.5C157,46.1,157.5,45.8,158.2,45.8z"/>
			</g>
			<g>
				<path class="st0" d="M10.3,126.3c0,1.6-0.1,2.9-0.6,4.1c-0.5,1.1-1,1.3-2.1,0.5c-1.4-1.1-2.1-2.7-2.8-4.3
					c-1.2-2.6-1.7-5.4-2-8.2c-0.1-1.7,0.1-3.3,0.6-5c0.3-1.1,1-1.4,2-0.6c0.8,0.7,1.5,1.6,2,2.5C9.4,118.9,10.2,122.7,10.3,126.3z"
					/>
			</g>
			<g>
				<path class="st0" d="M43.9,163.7c-1.2,0-2-0.3-2.9-0.7c-4.2-1.9-7.9-4.7-10.6-8.3c-0.6-0.8-1-1.6-1.4-2.6
					c-0.2-0.8,0-1.3,0.9-1.1c1,0.1,2,0.2,2.9,0.7c4.6,1.9,8.3,4.8,11.3,8.7c0.3,0.5,0.6,0.9,0.8,1.5
					C45.6,163.3,45.4,163.7,43.9,163.7z"/>
			</g>
			<g>
				<path class="st0" d="M37,44.2c0.1-2.2,0.8-3.4,1.6-4.7c2.2-3.6,5.2-6.4,9.2-7.9c1.5-0.6,2.2,0,2.1,1.6c-0.1,1-0.5,2.1-1,2.9
					c-2,3.4-4.5,6.3-8,8.2c-0.6,0.3-1.2,0.6-1.7,0.8C37.7,45.6,37,45,37,44.2z"/>
			</g>
			<g>
				<path class="st0" d="M160.7,173.8c-0.1,0.8-0.5,1.7-0.9,2.7c-1.5,3-3.7,5.2-6,7.5c-1.3,1.1-2.7,1.7-4.3,2.1
					c-0.9,0.2-1.4-0.2-1.4-1.1c0-0.9,0.2-1.8,0.6-2.6c1.8-3.6,4.3-6.8,7.7-9c0.7-0.5,1.5-0.9,2.3-1.1
					C160.1,171.7,160.6,172.1,160.7,173.8z"/>
			</g>
			<g>
				<path class="st0" d="M116.9,21.5c0.5,0,1.2,0.2,1.7,0.5c3.5,1.6,6.7,3.6,9.2,6.5c1.2,1.3,2.3,2.6,2.9,4.2
					c0.1,0.5,0.3,0.9-0.1,1.3c-0.5,0.3-0.9,0.5-1.5,0.3c-5.1-1.6-9.1-4.8-12.4-8.9c-0.6-0.7-1-1.5-1.3-2.3
					C115.1,22,115.5,21.4,116.9,21.5z"/>
			</g>
			<g>
				<path class="st0" d="M105.1,180.1c-3.2-0.1-6.4-0.7-9.1-2.3c-0.5-0.2-0.9-0.6-1.3-0.9c-0.8-0.7-0.7-1.6,0.1-2.3
					c0.9-0.7,2.1-0.7,3.2-0.8c3.8-0.5,7.4,0.2,10.7,1.9c0.7,0.3,1.3,0.9,1.8,1.6c0.5,0.7,0.5,1-0.2,1.5c-1.4,1-3.1,1.3-4.7,1.4
					C105.5,180.1,105.4,180.1,105.1,180.1z"/>
			</g>
			<g>
				<path class="st0" d="M77.8,180.7c-2.8-0.2-5.5-0.7-8-2.5c-0.5-0.3-0.8-0.8-1.2-1.3c-0.7-1-0.5-1.8,0.7-2.4
					c1.4-0.7,2.8-0.9,4.3-0.8c3,0.2,5.9,0.9,8.2,2.9c0.7,0.6,1.4,1.1,1.2,2.2c-0.1,0.9-1,1.1-1.8,1.4
					C80.2,180.7,79,180.7,77.8,180.7z"/>
			</g>
			<g>
				<path class="st0" d="M194.6,110.7c-1.6-0.8-2.3-2.2-2.9-3.6c-1.8-4.1-2.9-8.3-2.7-12.8c0-0.7,0.1-1.3,0.3-1.9
					c0.3-1,0.9-1,1.6-0.2c0.9,1.1,1.6,2.4,2.2,3.6c1.8,4.2,2.4,8.8,2.2,13.3C195.1,109.8,194.8,110.4,194.6,110.7z"/>
			</g>
			<g>
				<path class="st0" d="M79.7,5.2c1.4,0,2.8,0,4.2,0c0.9,0,1.7,0.2,2.5,0.7C86.7,6,87,6.2,86.9,6.5c0,0.3-0.3,0.3-0.6,0.5
					c-1.6,0.7-3.4,1.1-5.1,1.3c-3.2,0.3-6.5,0.2-9.7,0.1c-0.9,0-1.8-0.2-2.8-0.6C68.5,7.6,68,7.5,68,7.2c0-0.2,0.3-0.3,0.6-0.5
					c1.6-1,3.5-1.3,5.3-1.5C75.8,5.1,77.8,5.1,79.7,5.2z"/>
			</g>
			<g>
				<path class="st0" d="M196.7,108.1c0-0.3,0-0.8,0-1.1c0,0,0,0,0.1,0C196.8,107.4,196.8,107.8,196.7,108.1
					C196.7,108.2,196.7,108.2,196.7,108.1z"/>
			</g>
			<g>
				<path class="st0" d="M27.1,96.1c0.1,0.2,0.3,0.1,0.6,0.2c-0.2,0.1-0.5,0.2-0.7,0.1C26.9,96.4,27,96.2,27.1,96.1z"/>
			</g>
		</g>
	</g>
	<path d="M46.3,141.5c-1.6-2.5-4.6-4.6-5.5-7.3c-6.4-1-9.8-4.9-11.2-10.9c-2.5,0.8-4.9,2.1-7.2,3.4c-3.4,2.1-6.9,3.9-10.7,5
		c-0.3,0.1-0.7,0.2-1.2,0.3c-1.3,0.3-2.3,0-3.4-0.8c-1.4-1.3-2.1-2.9-2.9-4.6c-1.5-3.4-2.1-7.2-2.1-10.8c0-1.1,0.1-2.3,0.7-3.3
		c0.7-1,1.3-1.4,2.4-1.1c1.2,0.2,2.2,0.2,3.1,0.3c3.5,0.6,7.2,1.1,10.6,1.8c4.6,0.7,9.4,0.8,14-0.3c0.5-0.1,0.8-0.2,1.4-0.5
		c-0.7-5-0.7-10,0.1-15.2c-1.6-0.2-3.1-0.2-4.6,0.1c-1.7,0.3-3.4,0.7-5,1c-1.2,0.2-2-0.2-2.7-1c-0.6-0.7-0.8-1.5-1.2-2.3
		c-0.7-2.4-0.7-4.9-0.5-7.4c0.2-2.4,0.9-4.6,2-6.8c0.6-1.1,1.2-2.1,2.2-2.9c0.9-0.7,2.2-0.7,3,0c1.3,1,2.7,2.1,3.9,3.2
		c1.5,1.3,2.9,2.7,4.4,4c0.2,0.2,0.6,0.5,0.9,0.7c3.4-10.5,9.1-19.2,17.2-26.6c-0.2-0.3-0.3-0.6-0.5-0.7c-3.6-3.4-7.3-7-11.4-9.6
		c-1.4-0.8-2.8-1.6-4.2-2.4c-2-1.1-2.2-2.1-1.5-4.2c0.7-2.4,2.2-4.4,3.9-6.2c1.2-1.3,2.4-2.5,3.8-3.5c1.2-0.9,2.5-1.7,4-1.8
		c0.9-0.1,1.7,0.2,2.3,0.9c2.4,3,3.4,6.4,4,9.9c0.7,4.2,2.2,8,4.6,11.5c0.2,0.5,0.6,0.7,0.8,1.1c3.8-2.6,7.9-4.8,12.1-6.6
		c-0.3-1.5-0.7-3-1-4.3c-0.9-3.3-1.5-7-2.9-10.1c-0.7-1.4-1.3-2.9-2-4.2c-0.6-1.1-1.4-1.9-2.5-2.6c-0.6-0.3-1.2-0.7-1.7-0.9
		c-0.9-0.7-1.3-1.7-1-2.9c0.3-1.3,1.2-2.1,2.2-2.7c1.2-0.7,2.4-0.9,3.7-1c0.3,0,0.6-0.1,0.8-0.1c-0.3-1.8-0.7-3.5-0.8-5.4
		c0-1.6,0-3.4,0-5.1c0-1,0.6-1.8,1.6-2.1c1.7-0.5,3.4-0.9,5.2-1.3c3.1-0.5,6.1-0.5,9.2-0.1c1.2,0.1,2.4,0.3,3.6,0.6
		C87.7,6,88,6.6,87.9,7.6c-0.1,0.7-0.1,1.3,0,1.9c0.1,2.9-0.7,5.5-1.7,8.1c-2.3,5.5-3.5,11.2-3,17.1c0.2,2.7,0.8,5.4,1.3,8.1
		c0.1,0.3,0.2,0.7,0.3,0.9c1.6-0.5,3.1-0.9,4.6-1.3c2-0.5,4-0.1,6,0.7c0.6,0.2,1,0.5,1.6,0.5c3.9,0,7.9,0.3,11.8,1
		c0.1,0,0.2,0,0.2,0c0-1.1-0.1-2.3,0-3.5c0.3-3.1,0.7-6.2,1-9.2c0-0.3,0.2-0.7,0.3-0.9c1.3-2.9,2.4-5.7,4.3-8.3c0.5-0.7,1-1,1.8-0.9
		c1.2,0.2,2.4,0.3,3.5,0.8c4.4,1.9,8,4.9,10.6,8.9c0.6,0.7,0.7,1.6,1,2.4c0.3,0.7-0.1,1.4-0.6,1.9c-1.7,1.9-3.9,3.2-6.4,4.1
		c-3.4,1.4-5.8,3.8-7.5,7c0.5,0.2,0.7,0.5,1,0.6c3.6,1.3,7,3,10.4,4.7c1.3,0.7,2.5,1.7,3.7,2.5c2,1.4,3.8,2.9,5.9,4.1
		c2,1.3,3.4,3,4.9,4.6c0.5,0.6,0.9,0.9,1.5,1.6c1.4-1.9,2.8-3.5,4-5.4c2-3.1,4-6.2,6-9.2c0.6-0.7,0.8-1.6,0.8-2.5
		c0.1-1.8,1.5-2.5,3.4-1.9c2.1,0.7,3.8,2.1,5.2,3.9c2.3,2.9,4.4,5.9,5.3,9.5c0.2,0.9,0.2,1.9,0.2,3.1c0,0.9-0.7,1.5-1.5,1.7
		c-1.6,0.5-3.2,0.8-4.9,0.7c-3.4-0.2-6.5,0.7-9.5,2.3c-1.4,0.7-2.8,1.6-4.2,2.3c-0.3,0.2-0.6,0.5-0.7,0.6c2.2,3.9,4.4,7.6,6.6,11.5
		c0.8-1.4,2.4-1.5,3.8-1.9c1.3-0.5,2.7,0,3.8,0.7c2.5,1.7,4,4.1,5.2,6.7c1,2.3,1.5,4.8,1.7,7.4c1.6,0,3.2,0.1,4.7,0
		c2.8-0.2,5.5-0.5,8.3-0.9c2.1-0.5,4.2-1.1,6.1-1.8c0.7-0.2,1.2-0.2,1.6,0.2c0.7,0.7,1.3,1.4,1.8,2.2c0.7,1.1,1.2,2.4,1.7,3.8
		c0.9,3,1.8,5.9,2,8.9c0.1,1.4,0,2.7-0.3,4c-0.3,1.4-1,1.8-2.4,1.4c-1.4-0.5-2.9-0.8-4-1.6c-4-2.5-8.7-3.4-13.2-4.4
		c-5.1-1-10.2-1-15.4-1c-0.1,0-0.2,0-0.5,0.1c-0.1,2.2-0.2,4.3-0.5,6.5c-0.2,2.1-0.6,4.2-0.8,6.4c1.3,0.5,2.8,0.5,4.2,0.7
		c3.6,0.5,7.3-0.2,10.7-0.2c1.5,0,3,0.5,4.5,0.8c0.8,0.2,1.5,0.8,1.7,1.6c0.5,0.9,0.8,1.9,0.9,3.1c0.3,3.9-0.6,7.5-2.7,10.8
		c-0.8,1.4-2,2.4-3.4,3.3c-1,0.7-2.2,0.6-3.4-0.1c-2.4-1.3-4.5-3.3-6.5-5c-2.7-2.3-5.5-4.3-8.7-5.7c-1.7,3.5-3.4,7.1-5.1,10.4
		c2.7,2.1,5.3,4.3,8.1,6.4c1.6,1.3,3.4,2.3,5,3.4c2.9,1.9,6.1,3,9.5,3.8c1.6,0.5,3.2,0.9,4.4,2.2c1,1,1.2,1.8,0.6,3.1
		c-0.9,1.7-1.8,3.3-2.9,4.8c-0.3,0.6-0.7,0.9-1.3,1.3c-1.2,0.7-2,0.7-2.9-0.2c-1.2-1-2.3-2.2-3.4-3.3c-3.8-4-7.6-8.1-12.2-11.2
		c-2.4-1.7-4.7-3.5-7.5-4.8c-0.2-0.1-0.5-0.2-0.7-0.3c-3.2,4.2-6.8,8.1-11.2,11.4c1.5,1.4,2.9,2.6,4.3,3.9c4.4,3.9,9,7.2,14,10
		c2,1,3.8,2.2,5.5,3.5c0.7,0.7,0.9,1.5,0.7,2.4c-0.3,1.9-1.2,3.4-2.2,5c-1.6,2.4-3.5,4.4-5.9,6c-0.7,0.6-1.5,1-2.2,1.5
		c-0.7,0.3-1.4,0.6-2.1,0.7c-0.9,0.1-1.6-0.5-2-1.3c-0.2-0.6-0.6-1-0.7-1.6c-0.7-1.4-1.5-2.7-2-4.1c-3.1-7.5-7-14.5-12.5-20.6
		c-0.3-0.5-0.7-0.7-0.8-1c-3.5,1.7-6.7,3.4-10.1,4.8c-3.4,1.4-7,2.3-10.3,3.3c0.6,1.9,1,3.8,1.5,5.8c0.2,1.4,0.1,2.7,0.2,4.1
		c0,0.5-0.1,0.7,0,1.1c0.1,1.1-0.3,1.9-1.4,2.3c-1.2,0.5-2.3,0.8-3.5,0.9c-3.5,0.3-6.9-0.1-10.2-1.6c-1-0.5-2-1-2.8-1.9
		c-0.6-0.6-0.7-1.1-0.7-1.9c0.5-1.9,0.9-3.6,2.1-5.2c0.6-0.7,1-1.5,1.7-2.3c-4.5-0.5-8.8-0.9-13.2-1.4c-0.5,1.6-0.3,3.2-0.2,4.7
		c0.1,1.6,0.3,3.3,0.3,4.8c0,0.9,0,1.9-0.2,2.9c-0.2,1.3-1.2,1.9-2.2,2.2c-1.6,0.6-3.2,0.7-4.9,0.5c-2.4-0.2-4.6-0.9-6.8-2.1
		c-1-0.6-2-1.4-2.4-2.4c-0.3-0.7-0.2-1.5,0.1-2.2c1.2-2.7,2.5-4.9,4.4-7.2c0.8-1.1,1.5-2.7,2.4-4c-8.3-3.4-15.4-7.5-21.7-13.8
		c-0.9,1.1-1.8,2.4-2.4,3.8c-0.7,1.7-1.3,3.4-2,5.2c-0.7,1.7-1.3,3.3-2,4.9c-0.3,0.7-1.3,1.1-2.2,0.9c-1.3-0.3-2.7-0.7-3.8-1.1
		c-3.7-1.9-7.2-4.2-9.8-7.4c-0.7-0.7-1.3-1.7-1.7-2.5c-0.8-1.9-0.5-2.6,1-3.6c1.2-0.8,2.4-1.5,3.7-1.9c2-0.9,4.2-1.8,6.2-2.5
		c2-0.7,3.7-1.8,5.4-3.1C46.1,141.7,46.2,141.6,46.3,141.5z M99.6,144.1c0.1,0,0.2,0,0.3-0.1c0.1,0.3,0.3,0.6,0.5,0.8
		c0.2,0.9,0.5,1.9,0.7,2.9c0.7,4.1,1,8.1,0.5,12.2c-0.3,2.2-0.9,4.3-2.1,6c-1,1.5-2.1,3-3.2,4.4c-0.6,0.8-1.2,1.7-1.4,2.7
		c6-1.6,11.3-0.8,16.6,2.6c-0.1-1.4-0.2-2.5-0.5-3.6c-0.6-3.2-1.8-5.9-3.4-8.6c-3.4-5.4-3.9-11.2-3.8-17.2c0-0.2,0.2-0.5,0.5-0.9
		c0.6,0.7,0.7,1.4,0.7,1.9c0.1,1.9,0.1,3.8,0.2,5.8c0.3,4.6,2.4,8.4,4.6,12.3c6.2-0.8,17.8-5.8,20.3-8.1c-1.2-1.5-2.9-2.5-3.6-4.3
		c0.7-0.5,0.9-0.1,1.3,0.2c1.2,1.3,2.2,2.5,3.4,3.6c2.9,2.9,5.3,5.9,7.4,9.2c2.9,4.7,5.5,9.6,7.3,14.8c0.3,0.7,0.7,1.5,1.2,2.4
		c2.4-5.8,6.1-10,11.9-12.7c-0.9-0.6-1.8-1-2.7-1.5c-4.5-2.2-8.6-5.1-12.5-8.2s-7.3-6.7-11.3-9.7c-0.3-0.2-0.5-0.6-0.7-0.8
		c0.1-0.1,0.2-0.2,0.2-0.3c1.8,0.5,2.9,1.9,4.4,2.9c3.2-2.5,6.1-5.4,8.7-8.6c0.8-1,2-1.9,2.3-3.2c0-0.2,0.7-0.3,0.9-0.2
		c0.2,0,0.6,0.3,0.7,0.5c5.3,2.9,10.1,6.4,14.3,10.5c2.4,2.3,4.6,4.7,6.9,7.2c0.7,0.7,1.5,1.3,2.2,1.8c0.9,0.7,1.6,0.6,2.2-0.5
		c1-1.5,2-3.1,2.9-4.7c0.7-1.5,0.6-2.3-0.9-3.1c-1.2-0.7-2.3-1-3.6-1.4c-4.6-1.1-8.7-3.2-12.5-5.9c-3.4-2.5-6.7-5.1-10.1-7.8
		c-0.3-0.2-0.1-0.2-0.2-0.3c0.3-0.7,0.7-1.5,0.8-1.9c0.9-1.8,2-3.5,2.8-5.4c0.7-1.3,1-2.6,1.7-4c-2.2-0.9-4.3-1.7-6.4-2.1
		c-2.5-0.6-5.1-0.7-7.6-0.3c-0.7,0.1-1.4,0.1-2-0.7c0.7-0.1,1.2-0.2,1.7-0.2c2.3-0.1,4.7-0.3,7.2-0.1c2.9,0.2,5.4,1.4,8.1,2.4
		c2.1,0.8,4,2.1,6,3.4c2.2,1.7,4.3,3.5,6.4,5.4c0.3,0.3,0.7,0.7,1.2,0.9c-1.2-6.5,0.3-12,5.2-16.4c-1,0-2-0.1-2.9,0
		c-2.8,0.2-5.4,0.5-8.2,0.3c-2.8-0.1-5.4-0.6-8.1-1c-2.4-0.5-4.9-0.9-7.3-1.5c-1.2-0.2-2.3-0.5-3.5-0.7c-1.3-0.3-2.4-0.7-3.7-1.1
		c-0.2-0.1-0.6-0.2-0.7-0.3c0.2-0.6,0.7-0.6,1-0.5c0.9,0.2,2,0.3,2.9,0.6c4.2,0.8,8.2,1.8,12.4,2.7c0.3,0.1,0.7,0.1,1.3,0.1
		c0.3-2.6,0.7-5,0.9-7.5c0.2-3.3,0.3-6.5-0.1-9.9c-0.1-1.1-0.1-1.1-1.3-1.4c-4.6-0.9-9.1-1.3-13.7-1.4c-2,0-3.9,0.3-6,0.5
		c-0.2,0-0.6,0-0.7,0c0-0.1-0.1-0.2-0.1-0.5c0-0.1,0-0.2,0-0.5c2.7-0.7,5.3-0.7,8-0.7c2.8,0.1,5.4,0.3,8.2,0.7
		c2.7,0.3,5.2,0.8,7.9,1.4c-2.2-2.3-3.8-5-4.6-8.1c-0.8-3-1.3-5.9-0.2-9.1c-3.2,2.5-6.1,5.2-9.8,7c-3.6,1.7-7.4,3-11.4,3.8
		c-0.1-0.3-0.2-0.7-0.3-0.9c7.3-1.6,14.1-4.2,19.5-9.4c-1.8-4.1-3.9-8-6.6-11.5c-5.9,3.5-9.6,8.9-13.9,14.1c0-0.6-0.1-0.8,0-1
		c0.1-0.3,0.3-0.6,0.5-0.7c1.7-2.1,3.4-4.2,5-6.2c1-1.3,2-2.4,3.2-3.4c3.4-3,7.2-5.2,11.2-7.2c3.1-1.5,6.2-2.4,9.8-1.9
		c0.6,0.1,1-0.1,1.6-0.1c-2.3-1.6-4.2-3.5-5.8-5.8c-1.6-2.2-2.9-4.6-3.7-7.3c-0.2,0.1-0.3,0.2-0.3,0.2c-2,3.1-3.7,5.9-5.8,9
		c-2.8,4.2-6,8-10.2,10.9c-1.5,1-2.9,2.3-4.4,3.4c-0.9,0.7-1.8,1.5-2.8,2.2c-0.6,0.5-1,0.5-1.7,0c4.5-3.5,9.1-6.8,13.4-10.8
		c-1.3-1.3-2.3-2.5-3.6-3.5c-2.3-1.9-4.7-3.5-7.2-5.5c-3.4-2.9-7.3-5-11.3-6.8c-1.7-0.7-3.4-1.4-5.2-2.1c-0.3,0.7-0.6,1.1-0.7,1.7
		c-0.9,3.1-1.5,6-1.6,9.2c0,1,0,2.1,0,3.1c0,0.2-0.2,0.6-0.3,0.7c-0.7-0.3-0.7-0.8-0.7-1.4c-0.1-2.4,0.1-4.8,0.6-7.3
		c0.6-2.7,1-5.6,2.8-8c2-3.1,4.6-5.5,8.1-6.8c1.3-0.6,2.4-1.1,3.6-1.7c0.5-0.2,0.7-0.6,1-0.8c-6.6-2.2-11.6-6-15.1-12.1
		c-0.5,0.9-0.9,1.9-1.4,2.9c-0.7,1.9-1.7,3.9-2.1,5.9c-0.7,3.2-0.9,6.3-0.8,9.6c0.1,2.6,0,5.2,0,8c0,0.9,0,1.9-0.2,3
		c-0.5,2.1-0.8,4.1-1.3,6c-0.1,0.7-0.2,1.3-0.5,1.9c-0.1,0.5-0.1,1-0.8,0.9c-0.6-0.1-0.3-0.7-0.2-1c0.2-0.7,0.3-1.4,0.6-2.1
		c0.6-2.5,1.4-5.1,1.4-7.8c0-1.1,0-2.2,0-3.3c0-0.7,0.1-1.5,0.2-2.3c-3.8-0.7-7.4-1.3-11.4-1c0.6,0.7,0.8,1,1.3,1.4
		c1.8,1.9,2.2,5,0.7,7.5c-0.5,0.7-0.8,1.1-1.3,1.8c-0.7,1.4-1.6,2.6-2.2,4C96.1,60,96,61,96.1,62.3c0.3,2.4,0.9,4.6,1.8,7
		c0.1,0.3,0.5,0.7-0.1,0.9s-0.7-0.3-0.8-0.7c-0.1-0.2-0.2-0.5-0.3-0.7c-0.5-1.5-0.9-3.1-1.3-4.6c-0.6-2.3-0.6-4.6,0.7-6.8
		c0-0.1,0-0.2,0.1-0.5c-3,1.5-6,1.7-9.4,0.8c0.3,0.5,0.5,0.7,0.6,0.8c1.2,1.8,1.8,3.6,1.8,5.8c0,3-0.1,5.9-0.2,8.8v0.1
		c-0.1,0.2-0.3,0.7-0.5,0.7c-0.5,0-0.6-0.3-0.6-0.7c0-1.6,0.1-3.1,0.1-4.6c0-1.9,0.2-3.9,0-5.8c-0.3-3-2.1-5-4.4-7
		c-2.9-2.4-3.5-6.2-1.5-9.2c0.1-0.2,0.3-0.6,0.7-0.9c-2.2,0.7-4.3,1.1-6.4,1.8c-0.7-3.5-1.3-7.1-1.8-10.5c-0.5-2.4-0.7-4.9-1.6-7.3
		c-0.5-1-0.8-2.1-1.3-3.2c-0.7-1.9-1.6-3.8-2.2-5.7c-0.2-0.7-0.7-0.8-1.3-0.8c-1.4,0.1-2.8,0.5-3.9,1.1c-0.6,0.5-1,0.9-1.4,1.5
		c-0.7,0.9-0.3,1.8,0.7,2.4c0.5,0.3,0.8,0.6,1.4,0.7c1.5,0.7,2.4,1.7,3.1,3.2c0.7,1.5,1.3,3,2,4.4c1.4,3.3,2,7,2.9,10.3
		c0.3,1.3,0.6,2.6,0.8,3.9c0.2,0.8,0.3,0.9-0.5,1.1c-3.5,1.3-6.7,3.1-9.8,5c-0.7,0.6-1.6,1-2.4,1.6c0.8,1,1.6,2.1,2.4,3.1
		c1.2,1.4,2.4,2.6,3.7,3.9c0.2,0.3,0.7,0.7,0.3,0.9c-0.5,0.5-0.7,0-1-0.3c-0.5-0.5-0.8-0.9-1.3-1.4c-2.1-1.9-3.9-4.3-5.5-6.7
		c-2-3.1-3.7-6.3-4.6-9.9c-0.6-2.2-0.9-4.4-1.5-6.6c-0.5-1.6-0.8-3.1-2-4.4c-2.2,5.8-6.1,9.9-11.9,12.5c1.3,0.7,2.5,1.3,3.7,1.9
		c4.9,3.2,9.2,7,13.1,11.2c2,2.1,3.4,4.4,5.1,6.6c0.2,0.3,0.5,0.7,0.5,0.9s-0.1,0.5-0.2,0.7c-0.2-0.1-0.6-0.1-0.7-0.2
		c-0.2-0.2-0.3-0.6-0.6-0.7c-1.6-2.5-3.5-4.7-5.4-7c-7.7,6.5-14.9,16.9-17.6,26.5c1,0.6,2.1,1.1,3.4,1.7c1.2,0.6,2.3,0.8,3.5,1.3
		c0.5,0.1,0.9,0.2,0.8,1c-0.5-0.1-0.9-0.1-1.4-0.2c-4.4-1.1-8-3.5-11.1-6.8c-0.8-0.9-2-1.8-3.2-2.9c1.2,5.9,0.6,11.2-2.5,16.4
		c0.5-0.1,0.8-0.1,1.2-0.2c4.2-1,8.1-0.7,11.9,1c0.3,0.1,0.7,0.2,0.8,0.5c0.1,0.1,0.2,0.5,0.2,0.6c-0.1,0.1-0.3,0.3-0.6,0.3
		c-0.3,0-0.7-0.2-0.9-0.3c-1.5-0.6-3-1-4.6-1.3c-0.7,5.9-0.8,11.7,0.3,17.3c1.5,0.2,2.8,0.5,4,0.7c0.9,0.2,1.8,0.6,2.8,0.7
		c0.8,0.1,1.7,0.2,2.5,0.2c4,0.5,8.1,0.3,12-0.7c0.6-0.1,1-0.1,1.7-0.1c-0.7,0.8-0.7,0.8-1.5,1c-4,1-8.2,0.9-12.2,0.7
		c-0.7-0.1-1.5-0.1-2.4-0.2c3.5,2.9,5.5,6.3,5.5,10.6c0.2-0.2,0.5-0.6,0.6-0.7c1.4-2.3,3.2-4,5.9-4.6c2.1-0.5,4.3-0.7,6.4-0.9
		c0.5,0,0.8,0.2,1.3,0.3c0,0.1,0,0.2,0,0.3c-0.5,0.1-0.8,0.3-1.3,0.3c-1.4,0.1-2.8,0.2-4.2,0.5c-3,0.5-5.4,1.6-7.2,4.1
		c-0.9,1.5-1.8,2.9-2.9,4.2c-0.5,0.7-0.9,1.3-1.6,1.7c-0.9,0.7-2,0.9-3.1,1.5c1.3,2.3,2.7,4.6,4.5,6.7c0.2-0.2,0.5-0.2,0.6-0.3
		c2-1.9,3.8-3.6,5.8-5.6c1.4-1.5,2.7-3.1,3.9-4.6c0.2-0.3,0.5-0.7,1-0.7c-0.1,0.3-0.2,0.7-0.3,0.8c-0.6,0.7-0.9,1.5-1.6,2.2
		c-1.6,1.8-3.4,3.6-5,5.5c-3.2,3.4-6.5,6.3-10.7,8c-2.5,0.9-5.7,2.5-8.2,3.6c-0.2,0.1,5.5,2.3,8.2,4.2c2.7,1.9,5,4.3,6.7,7.4
		c0.7-1.9,1.3-3.4,1.6-5.1c0.8-3.8,3.1-6.8,5.3-9.8c1.7-2.3,3.9-4.2,6-6.2c1.4-1.3,2.9-2.4,4.3-3.5c0.3-0.3,0.7-0.7,1.5-0.2
		c-4.6,3.5-8.7,7.4-12.1,12c4.6,5.2,17,12.2,22.3,13.9c0.5-1.3,0.9-2.4,1.3-3.6c0.5-1.6,0.7-3.2,1.2-4.7c0.1-0.5,0.1-1,0.9-1.1
		c0,0.3,0.1,0.7,0,0.9c-0.1,0.6-0.2,1-0.3,1.6c-0.7,3.8-2,7.3-4.2,10.5c-1.3,1.8-2.3,3.6-3.7,5.5c-0.3,0.5-0.6,0.8-0.9,1.4
		c5.3-1.3,9.6-0.1,13.7,3.2c-0.1-1.3-0.2-2.4-0.3-3.4c-0.5-3.3-0.3-6.5,0.3-9.8c0.3-1.8,0.8-3.4,1.2-5.2c0.2-1.1,0.5-2.2,0.7-3.3
		c0.1-0.5,0.2-0.7,0.7-0.7c0.2,0.1,0.3,0.6,0.5,0.8c0,0.1,0,0.2,0,0.2c-0.6,2.1-0.9,4.2-1.5,6.3c-0.3,1.4-0.7,2.7-0.9,4.3
		c4.7,0.7,9.4,1.1,14,1.3c2-2.9,2.8-5.9,2.9-9.2c0.1-3.9-0.3-7.8-1-11.5C99.5,145.3,99.6,144.7,99.6,144.1z M67.6,9
		c0.2,1.9,0.2,3.9,0.6,5.8c0.2,1.6,0.7,3.1,1.2,4.6c1,2.9,2.3,5.6,3.5,8.4c0.6,1.3,1,2.5,1.4,3.9c0.7,3.8,1.4,7.6,2.1,11.5
		c0.2,1.1,0.3,2.2,0.6,3.4c2.3-0.7,4.6-1.3,6.9-1.9c-0.1-0.2-0.1-0.5-0.1-0.7c-0.7-3.1-1.3-6.2-1.6-9.2c-0.6-5.4,0.6-10.5,2.3-15.5
		c0.7-1.9,1.5-4.1,2.1-6c0.5-1.5,0.5-3.1,0.7-4.7c-3.1,1.4-6.4,1.6-9.6,1.8C74.3,10.4,71.1,10.3,67.6,9z M160.1,103.7
		c1.5-0.1,2.8-0.2,4-0.2c4.5-0.1,8.9,0.6,13.3,1.4c4.5,0.8,8.7,2.2,12.6,4.6c0.6,0.3,1.2,0.6,2,0.9c-3.1-5.9-4.6-11.7-3.8-18.1
		c-1.3,0.5-2.4,0.9-3.7,1.3c-3.4,0.7-6.9,1.1-10.4,1.3c-1.4,0.1-2.8,0.1-4.2,0.1c-0.2,0.7-0.3,1.1-0.5,1.6c-0.8,2.7-2.4,3.6-5.3,3.3
		c-1.4-0.2-2.8-0.5-4.3-0.7C159.9,100.6,160,101.9,160.1,103.7z M34.7,115.4c-0.1-0.6-0.2-1-0.3-1.5c-0.3,0.1-0.7,0.1-0.8,0.2
		c-4.2,1-8.4,1.4-12.7,0.7c-2.9-0.6-5.8-0.9-8.7-1.5c-1.6-0.3-3.4-0.6-5.2-0.9c0.1,0.2,0.1,0.3,0.1,0.5c3.1,4.1,4.2,8.7,4.5,13.7
		c0.1,1.7-0.2,3.3-0.8,4.9c0.5-0.1,0.7-0.2,1-0.3c2.2-0.9,4.5-1.9,6.6-3.1c2.8-1.4,5.3-3.1,8-4.6c1-0.6,2.1-0.9,3.2-1.4
		C29.8,118.9,31.2,116.5,34.7,115.4z M40.9,133.2c0.5-0.1,1-0.1,1.6-0.2c2.4-0.7,4-2.9,4-5.6c0.1-3.6-1.5-6.6-4.2-8.9
		c-1.6-1.4-3.4-2.2-5.5-2.3c-2.7-0.1-5.2,1-6,4c-0.5,1.4-0.3,2.7-0.1,4.1c0.3,2.2,1.5,4.1,3.1,5.7C35.8,131.8,37.9,133.2,40.9,133.2
		z M90,57.2c1.6-0.1,3-0.3,4.4-0.8c2.3-0.9,3.9-2.5,4.7-4.9c0.8-2.3,0-4.7-2-6.4c-1.4-1.1-3.4-1.7-4.5-1.9c-2,0-3.4-0.6-6.7,0.8
		c-0.1,0.1-1.7,1.1-2.8,2.3c-1.8,1.9-2.3,5.1-0.5,7.5C84.7,56.4,87.2,57.1,90,57.2z M168.7,93.4c-0.2-4.1-1.5-7.5-3.9-10.6
		c-0.8-1-1.7-1.9-3-2.5c-2-1-3.8-0.3-4.6,1.8c-0.3,0.8-0.5,1.8-0.6,2.7c-0.2,1.7,0.2,3.3,0.8,4.8c0.7,1.7,1,3.4,2,4.9
		c1,1.6,2.3,3.1,4.2,3.9c1.8,0.8,3.4,0.3,4.2-1.4C168.6,95.8,168.7,94.5,168.7,93.4z M180.2,125c0-1.5-0.3-3.2-0.7-4.1
		c-0.8-1.7-2.1-2.1-3.7-1.1c-0.7,0.5-1.3,0.8-1.8,1.5c-2.7,3.4-3.8,7.4-3.4,11.7c0.1,0.8,0.5,1.7,0.7,2.4c0.6,1.1,1.6,1.6,2.8,1.3
		c0.9-0.2,1.7-0.7,2.3-1.5C179.1,132.2,180,128.7,180.2,125z M29.2,85.7c0-0.7,0-1.4-0.1-2.1c-0.2-1.3-0.5-2.6-1-3.6
		c-0.9-1.7-2.2-1.8-3.4-0.3c-0.8,1-1.6,2.2-2,3.5c-0.8,2.6-1.3,5.2-1.2,8c0.1,1.8,0.2,3.4,1,5c0.9,1.8,2.3,1.9,3.5,0.3
		c0.7-0.7,1-1.7,1.5-2.5C28.6,91.6,29.1,88.8,29.2,85.7z M168.7,60.8c-0.1-0.3-0.1-0.8-0.2-1.3c-0.6-2.5-1.8-4.7-3.2-7
		c-1.5-2.3-3.5-4.2-5.8-5.9c-0.6-0.5-1.3-0.6-2-0.6c-0.6,0-0.8,0.3-1,0.9c-0.2,1.1-0.1,2.2,0.2,3.3c1.2,3.6,3.2,6.7,6,9.5
		c1,1,2.2,2.1,3.6,2.6C167.9,63.1,168.7,62.5,168.7,60.8z M10.7,127.1c-0.1-4.2-0.9-7.9-2.7-11.2c-0.6-1-1.2-1.9-2-2.9
		c-1-1-2-0.8-2.3,0.6s-0.6,2.7-0.6,4.2s0.3,3,0.7,4.4c0.7,2.9,1.6,5.5,3.4,7.9c0.3,0.5,0.8,0.8,1.3,1.1c0.6,0.3,1,0.2,1.4-0.3
		c0.2-0.3,0.5-0.7,0.6-1.1C10.6,128.7,10.6,127.7,10.7,127.1z M43.7,163.5c1.8,0,2.2-0.6,1.7-1.8c-0.3-0.7-0.7-1.5-1.3-2.1
		c-3-3.8-6.8-6.6-11.3-8.4c-0.7-0.3-1.6-0.5-2.4-0.6c-1.2-0.1-1.5,0.5-1,1.5c0.3,0.7,0.7,1.4,1,1.9c2.5,3.3,5.9,6,9.7,8
		C41.4,162.9,42.6,163.4,43.7,163.5z M37.2,44.2c0,1.3,0.7,1.8,2,1.5c0.7-0.2,1.4-0.5,2-0.8c2.7-1.5,4.7-3.5,6.6-6
		c1-1.5,2-3,2.3-4.6c0.5-1.9-0.5-2.7-2.2-1.9c-1.6,0.7-3.1,1.5-4.5,2.5c-2,1.5-3.5,3.4-4.7,5.6C37.9,41.6,37.2,42.8,37.2,44.2z
		 M129.4,35c1.4-0.1,1.7-0.6,1.3-1.8c-0.1-0.5-0.3-0.8-0.6-1.1c-0.7-0.9-1.4-1.9-2.1-2.9c-2.8-3-6-5.1-9.8-6.8
		c-0.6-0.2-1.2-0.3-1.8-0.3c-0.9,0-1.4,0.6-1,1.5c0.2,0.7,0.6,1.3,0.8,1.8c2.8,3.9,6.4,6.8,10.7,8.8C127.7,34.5,128.5,34.7,129.4,35
		z M160.5,173.6c0-1.7-0.5-2.1-1.6-1.9c-0.7,0.1-1.3,0.5-2,0.7c-3.5,1.9-6,4.9-8,8.4c-0.7,1-1,2.1-1.2,3.3s0.3,1.7,1.5,1.5
		c1.3-0.3,2.5-0.7,3.6-1.6c2.5-2.3,4.9-4.7,6.5-7.8C159.9,175.3,160.3,174.1,160.5,173.6z M99.5,173.1c-0.7,0.1-2,0.3-3.4,0.6
		c-0.9,0.2-1.8,0.7-2,1.6c-0.1,0.9,0.7,1.5,1.5,1.9c1.7,1.1,3.7,1.7,5.8,2.1c2.4,0.5,4.9,0.7,7.4-0.1c0.7-0.2,1.2-0.6,1.7-0.8
		c0.7-0.6,0.7-0.9,0.2-1.6c-0.5-0.6-0.9-1-1.5-1.4C106.4,173.8,103.2,173.3,99.5,173.1z M72.8,173.4c-0.7,0.1-1.7,0.2-2.7,0.6
		c-2,0.7-2.2,1.9-0.8,3.3c0.8,0.8,2,1.6,3.1,1.9c2.4,0.8,4.9,1.4,7.5,0.9c0.8-0.1,1.7-0.5,2.4-0.8c0.8-0.6,0.9-1.3,0.5-2.1
		c-0.3-0.6-0.8-0.9-1.4-1.4C79,174.1,76.1,173.6,72.8,173.4z M194.1,110.9c0.3-0.7,0.7-1.1,0.7-1.7c0.1-1.5,0.1-3,0-4.4
		c-0.3-3.3-0.9-6.5-2.4-9.6c-0.6-1-1.2-2.1-2-3.1c-0.7-0.8-1.3-0.7-1.6,0.3c-0.2,0.7-0.3,1.4-0.3,2.1c-0.1,4.3,0.9,8.6,2.7,12.5
		c0.5,0.9,1,1.9,1.6,2.7C193.2,110.3,193.6,110.5,194.1,110.9z M68,7.9c0,0.1,0,0.2,0,0.3c0.3,0.1,0.6,0.5,0.8,0.5
		c1,0.2,2.1,0.6,3.2,0.6c2.3,0.1,4.6,0.1,7,0c2.2-0.2,4.4-0.5,6.6-1.4c0.6-0.2,1-0.2,1.3-0.8c-0.9-0.8-2-1.1-3.1-1.1
		c-2.3-0.1-4.6-0.2-7-0.1c-2.5,0.1-5,0.5-7.4,1.3C69,7.4,68.5,7.6,68,7.9z"/>
	
		<image style="display:none;overflow:visible;enable-background:new    ;" width="213" height="177" xlink:href="DAE7C9AB.jpg"  transform="matrix(0.1875 0 0 0.1851 -12.6863 1.9149)">
	</image>
</g>
<g id="Ebene_1_2_">
	<path class="st2" d="M148.1,69.4l-6.4,4.9l-3.6,4.9l3.6,10l5.5-3.2l8-4.4l-2.9-5.7L148.1,69.4z"/>
	<path class="st2" d="M142.5,96.8c0,0-0.7,7.9-0.6,10.5c0.3,3.5,0.8,6.7,0.8,6.7l8.7,2.3l6.6,1.5l1.3-7.6l0.3-7.2l-0.6-4.4l-8.4-1.4
		L142.5,96.8z"/>
	<path class="st2" d="M152.7,117.1c0,0,11.1,4,14,6.4c1,0.8,3.4,4.4,3.4,4.4l5-9.5h-12L152.7,117.1z"/>
	<path class="st2" d="M144.3,123.3l-1.2,24.1l8.7-11.5l3.9-9.5l-5.5-2.6L144.3,123.3z"/>
	<path class="st2" d="M173.8,152.7c-2.1-0.7-2.8-0.7-2.9-0.7c-0.2,0.3,0.7,1,1.2,1.5c0.1,0.2,1.5,1.6,2.8,1.1c0.5-0.2,0.9-0.7,0.8-1
		C175.5,153.4,175.2,153.3,173.8,152.7z"/>
	<path class="st2" d="M116.5,47l-1.6,6.4l-0.5,7.2c0,0,3.1,5.2,4.6,6.4c3.6,2.5,8.1,2.3,10.6,3.5c1.2,0.7,4.5,3.1,4.5,3.1l8.1-6.3
		l1.8-2.2l-5.8-6.6c0,0-8.8-5.9-12.7-7.9c-2.1-1-8.7-3.4-8.7-3.4"/>
	<path class="st2" d="M168.6,93.4c-0.2-4.1-1.5-7.5-3.9-10.6c-0.8-1-1.7-1.9-3-2.5c-2-1-3.8-0.3-4.6,1.8c-0.3,0.8-0.5,1.8-0.6,2.7
		c-0.2,1.7,0.2,3.3,0.8,4.8c0.7,1.7,1,3.4,2,4.9c1,1.6,2.3,3.1,4.2,3.9c1.8,0.8,3.4,0.3,4.2-1.4C168.6,95.9,168.6,94.5,168.6,93.4z"
		/>
	<path class="st2" d="M97.7,44.2c0,0,1.7,2.3,2,2.9c0.8,2.7,0.9,3.2,0.9,3.2l8,4c0,0,0.3-1.8,0.5-2.6c0.1-1.5,0.1-6.4,0.1-6.4
		s-3.8-0.7-5.7-0.9C101.3,44.1,97.7,44.2,97.7,44.2z"/>
	<path class="st2" d="M91.2,58.2c0,0,0.9,8.1,2.4,10c0.6,0.8,3.1,1.1,3.1,1.1s-0.9-3.3-1.3-4.6c-0.2-0.9-0.5-3.5-0.5-4.4
		c0-0.9,0.8-3.6,0.8-3.6L91.2,58.2z"/>
	<path class="st2" d="M51.4,36.1l-1.3,2.6c0,0,2,4.6,2.9,4.3C54.1,42.6,51.4,36.1,51.4,36.1z"/>
	<path class="st2" d="M81.1,45.3c2.3-0.7,0.6,0,2.9-0.7c-0.1-0.2-0.1-0.5-0.1-0.7c-0.7-3.1-1.3-6.2-1.6-9.2
		c-0.6-5.4,0.6-10.5,2.3-15.5c0.7-1.9,1.5-4.1,2.1-6c0.5-1.5,0.5-3.1,0.7-4.7c-3.2,1.4-6.4,1.6-9.7,1.8
		C74.3,10.4,80.9,44.1,81.1,45.3z"/>
	<path class="st2" d="M91.2,57.2c0.9,0,2-0.2,3.2-0.8c2.3-0.9,3.9-2.5,4.7-4.9c0.8-2.3,0-4.7-2-6.4c-1.4-1.1-2.7-1.5-4.5-1.9
		C90.3,43.3,89.3,57.1,91.2,57.2z"/>
	<path class="st2" d="M180.2,125c0-1.5-0.3-3.2-0.7-4.1c-0.8-1.7-2.1-2.1-3.7-1.1c-0.7,0.5-1.3,0.8-1.8,1.5c-1,1.3-3,3.8-3.4,7.3
		c0.8,1.4,3.7,3.6,4.3,4.3c1.6,2.2,0.9,3,1.6,2.2C179.1,132.2,180,128.7,180.2,125z"/>
	<path class="st2" d="M194.2,110.7c0.3-0.7,0.7-1.1,0.7-1.7c0.1-1.5,0.1-3,0-4.4c-0.3-3.3-0.9-6.5-2.4-9.6c-0.6-1-1.2-2.1-2-3.1
		c-0.7-0.8-1.3-0.7-1.6,0.3c-0.2,0.7-0.3,1.4-0.3,2.1c-0.1,4.3,0.9,8.6,2.7,12.5c0.5,0.9,1,1.9,1.6,2.7
		C193.2,110.2,193.8,110.4,194.2,110.7z"/>
	<path class="st2" d="M129.4,35.1c1.4-0.1,1.7-0.6,1.3-1.8c-0.1-0.5-0.3-0.8-0.6-1.1c-0.7-0.9-1.4-1.9-2.1-2.9c-2.8-3-6-5.1-9.8-6.8
		c-0.6-0.2-1.2-0.3-1.8-0.3c-0.9,0-1.4,0.6-1,1.5c0.2,0.7,0.6,1.3,0.8,1.8c2.8,3.9,6.4,6.8,10.7,8.8
		C127.8,34.5,128.6,34.8,129.4,35.1z"/>
	<path class="st2" d="M168.7,60.7c-0.1-0.3-0.1-0.8-0.2-1.3c-0.6-2.5-1.8-4.7-3.2-7c-1.5-2.3-3.5-4.2-5.8-5.9
		c-0.6-0.5-1.3-0.6-2-0.6c-0.6,0-0.8,0.3-1,0.9c-0.2,1.1-0.1,2.2,0.2,3.3c1.2,3.6,3.2,6.7,6,9.5c1,1,2.2,2.1,3.6,2.6
		C167.9,63.1,168.7,62.5,168.7,60.7z"/>
	<path class="st2" d="M102.3,80.2c-0.2,0,2.7,5.7,7.5,9.6c5,4,8.7,10,9.5,9.9c2.2-0.3,3.4-1.6,3.1-3.8c-0.1-1.5-0.7-2.7-1.3-4
		c-2.7-4.4-6.4-7.6-11.1-9.9C108.4,81.3,105.6,80.3,102.3,80.2z"/>
	<path class="st2" d="M89,99.7c-0.6,0.2-0.7,1.1-0.5,2.2c0.5,1.9,1,2.6,0.8,3.6c-0.3,1.3-1.2,2.3-0.9,2.9c0.2,0.5,1,0.7,1.7,0.3
		c1.6-0.7,2.3-3.8,1.4-6.2C91,100.8,89.7,99.3,89,99.7z"/>
	<path class="st2" d="M63.4,80.4c-1,0.1-2.1,2.2-1.7,3.9c0.1,0.2,0.6,1.7,1.8,1.9c1.5,0.5,3.2-0.9,3.4-2.2c0-0.7-0.7-1.3-2-2.5
		C64.4,80.7,63.9,80.4,63.4,80.4z"/>
	<path class="st2" d="M82.7,129.7c-1.3,1-1.3,3.5-0.9,4.8c0.7,3.4,5,5.6,5.9,5c2.2-1.5-0.2-3-1.4-3.8c-0.7-0.6-2.1-1.6-2.3-2.5
		c-0.3-1.4,0.7-3.1,0.5-3.3C84,129.5,83.2,129.2,82.7,129.7z"/>
	<path class="st2" d="M112.5,116.1c-0.2,0.1-0.5,0.5-0.6,0.7c-0.2,0.9,1.5,1.9,2.7,2.9c3.7,2.9,5.1,7.3,6.7,7.2
		c0.8-0.1,1.4-1.7,1.2-2.5c-0.8-3.1-4.6-8.1-8.6-8.6C113.5,115.9,112.9,116.1,112.5,116.1z"/>
	<path d="M66.2,20.2l4.6,9.2l4.6,18.1l1.4-0.5l-3.5-16.2L70,22.3c0,0-0.5-2.6-1.4-2.6C67.2,19.6,66.2,20.2,66.2,20.2z"/>
	<path d="M94.2,100.9c0.6,0.7,0.8,2.2,0.8,3.1c-0.1,6-3,10.5-3,10.5c-1,1.7-5.3,8-12,8.2c-1.5,0-3.4,0.2-4.6-0.8
		c-3.8-3.1-0.7-12.2-0.5-12.2c0.1,0-0.8,2.3,0.3,5.2c0.5,1,1.5,2.3,3.5,3c2.1,0.7,4.2,0.2,6.5-1.5c2.5-1.9,4-3.9,4.7-5
		c1.7-2.4,2.8-4,2.9-6.2c0.1-2.9-0.8-5.4-0.8-5.4S93.7,100.5,94.2,100.9z"/>
	<path d="M105.3,117c0,0-0.7,0.6-1.3,1.7c-1.7,3.6,1.3,9.4,5.7,12.4c3.5,2.4,9.1,3.9,11.7,1.8c1.2-0.9,1.3-3.3,1.3-3.3
		s-1.8,0.7-3.8,0.9c-3.5,0.6-6.6-1.6-7.5-2.3c-0.7-0.6-4.3-3.1-4.9-7.1C105.8,118.6,105.3,117,105.3,117z"/>
	<path d="M99.1,82c0,0-1.8,1.8-2,1.9c-2,3.2,1.4,9.5,5.9,14.1c5.5,5.7,12.7,7.2,15.8,6c0.6-0.2,2-0.7,2.4-1.9c0.5-1-0.6-2.7-0.6-2.7
		s-0.7,0.2-0.8,0.5c-1.6,1.8-8.3,0.2-13.4-4.1c-2-1.7-6.5-4.9-6.8-9.8C99.6,84.5,99.1,82,99.1,82z"/>
	<path d="M104.4,152c0,0,0.5,5.1,1.2,6.8l3.8,7.2c0,0,6.4-1.8,8.2-2.4c7.2-2.3,12.4-6.4,12.4-6.4l3.4,3.1l5.7-3.4l-2.8-3.9
		c6-3.3,6.1-6,6.7-5.7c-0.3-0.9-8.2,3.3-25.8,4.4C109.5,152.2,104.4,152,104.4,152z"/>
	<path d="M101,152l0.1,6.3l-0.9,5.4l-2.3,3.5l-7.4-0.7l-6.7-1.1l-0.6,2.6l0.2,5.2c0,0-3-3.3-4.4-4.2c-1.3-0.7-6-1.8-6-1.8l2.1-4.6
		c0,0-7.3-2.7-10.3-4.6c-2.4-1.6-9.7-6.4-9.7-6.4l-3-2.9l-2.3,3.3c0,0-2.7-0.6-4.5-4.7c-0.6-1.1-4.3-2.6-4.3-2.6l5.2-3.3l-3.2-4.2
		l-2.3-3.3c0,0-0.1,0.2,3-1c2.3-0.9,4.4-5.1,4.4-5.1l3.5-4.3c4.5-2.3,7-1.5,10.2-2.2c6.4,5.4,9.2,9.7,11.3,12.5
		c0.3,0.6,1.6,2.3,3.8,5.4c2.9,4.1,4.4,6.2,4.9,6.7C83.6,148.6,88.3,151.8,101,152z"/>
	<path d="M46.2,69c0,0-3.6,5.1-4.6,7c-2.7,4.4-4,10.7-4,10.7L35,84.4c0,0,0.2,5.7,0.2,7.1c0,1.6-1.2,5.4-1.2,5.4l0.5,0.8l-0.2,8.7
		l0.2,6.5l-5.5,1.5l-10.1-0.1c0,0,2.5,4.6,3.4,5.9c0.7,1.3,2.1,4.6,2.1,4.6l5.7-1.9l0.8-3.5l3.8-3.8l6.4,0.8l7.7,0.6l9.6-1.5
		c0,0-14.4-10.4-14.7-16.3c-0.1-2.3,2.8-6.5,3-8.9C47.4,85.1,46.2,69,46.2,69z"/>
	<path d="M51.8,88.3c-0.7-0.2-4.2,4.6-4.5,10.5c-0.1,2.1-0.1,3.6,0.8,4.6c2.5,2.4,10.1-1.1,14.4-4.6c0.7-0.6,9.8-8,8.1-14.6
		c-0.5-1.8-2.3-3.4-2.3-3.4s0,2.2-0.6,4.6c-0.6,2.3-1.8,4.6-5.2,8.2c-5,5.4-7.3,4.8-8.3,4.8c-0.3,0-1.3,0.1-2.3-1
		C49.3,94.5,52.3,88.6,51.8,88.3z"/>
	<path d="M80.5,137.1c0,0,0.6,2.7,3.4,4.8c1,0.8,6.4,4.8,11.6,2.3c2.9-1.4,5-4.4,5.2-7.4c0.3-5.4-5.1-9.4-5.1-9.2
		c0,0,3.6,2.9,3.4,6.6c-0.1,2.7-2.1,5.1-4.3,6.4c-3,1.6-6.4,0.8-7.4,0.6C82.7,139.8,80.5,137.1,80.5,137.1z"/>
	<path d="M46.3,141.5c-1.6-2.5-4.6-4.6-5.5-7.3c-6.4-1-9.8-4.9-11.2-10.9c-2.5,0.8-4.9,2.1-7.2,3.4c-3.4,2.1-6.9,3.9-10.7,5
		c-0.3,0.1-0.7,0.2-1.2,0.3c-1.3,0.3-2.3,0-3.4-0.8c-1.4-1.3-2.1-2.9-2.9-4.6c-1.5-3.4-2.1-7.2-2.1-10.8c0-1.1,0.1-2.3,0.7-3.3
		c0.7-1,1.3-1.4,2.4-1.1c1.2,0.2,2.2,0.2,3.1,0.3c3.5,0.6,7.2,1.1,10.6,1.8c4.6,0.7,9.4,0.8,14-0.3c0.5-0.1,0.8-0.2,1.4-0.5
		c-0.7-5-0.7-10,0.1-15.2c-1.6-0.2-3.1-0.2-4.6,0.1c-1.7,0.3-3.4,0.7-5,1c-1.2,0.2-2-0.2-2.7-1c-0.6-0.7-0.8-1.5-1.2-2.3
		c-0.7-2.4-0.7-4.9-0.5-7.4c0.2-2.4,0.9-4.6,2-6.8c0.6-1.1,1.2-2.1,2.2-2.9c0.9-0.7,2.2-0.7,3,0c1.3,1,2.7,2.1,3.9,3.2
		c1.5,1.3,2.9,2.7,4.4,4c0.2,0.2,0.6,0.5,0.9,0.7c3.4-10.5,9.1-19.2,17.2-26.6c-0.2-0.3-0.3-0.6-0.5-0.7c-3.6-3.4-7.3-7-11.4-9.6
		c-1.4-0.8-2.8-1.6-4.2-2.4c-2-1.1-2.2-2.1-1.5-4.2c0.7-2.4,2.2-4.4,3.9-6.2c1.2-1.3,2.4-2.5,3.8-3.5c1.2-0.9,2.5-1.7,4-1.8
		c0.9-0.1,1.7,0.2,2.3,0.9c2.4,3,3.4,6.4,4,9.9c0.7,4.2,2.2,8,4.6,11.5c0.2,0.5,0.6,0.7,0.8,1.1c3.8-2.6,7.9-4.8,12.1-6.6
		c-0.3-1.5-0.7-3-1-4.3c-0.9-3.3-1.5-7-2.9-10.1c-0.7-1.4-1.3-2.9-2-4.2c-0.6-1.1-1.4-1.9-2.5-2.6c-0.6-0.3-1.2-0.7-1.7-0.9
		c-0.9-0.7-1.3-1.7-1-2.9c0.3-1.3,1.2-2.1,2.2-2.7c1.2-0.7,2.4-0.9,3.7-1c0.3,0,0.6-0.1,0.8-0.1c-0.3-1.8-0.7-3.5-0.8-5.4
		c0-1.6,0-3.4,0-5.1c0-1,0.6-1.8,1.6-2.1c1.7-0.5,3.4-0.9,5.2-1.3c3.1-0.5,6.1-0.5,9.2-0.1c1.2,0.1,2.4,0.3,3.6,0.6
		C87.7,6,88,6.6,87.9,7.6c-0.1,0.7-0.1,1.3,0,1.9c0.1,2.9-0.7,5.5-1.7,8.1c-2.3,5.5-3.5,11.2-3,17.1c0.2,2.7,0.8,5.4,1.3,8.1
		c0.1,0.3,0.2,0.7,0.3,0.9c1.6-0.5,3.1-0.9,4.6-1.3c2-0.5,4-0.1,6,0.7c0.6,0.2,1,0.5,1.6,0.5c3.9,0,7.9,0.3,11.8,1
		c0.1,0,0.2,0,0.2,0c0-1.1-0.1-2.3,0-3.5c0.3-3.1,0-3.4,1-9.2c0.6-3,2.8-6.6,4.6-9.2c0.5-0.7,1-1,1.8-0.9c1.2,0.2,2.4,0.3,3.5,0.8
		c4.4,1.9,8,4.9,10.6,8.9c0.6,0.7,0.7,1.6,1,2.4c0.3,0.7-0.1,1.4-0.6,1.9c-1.7,1.9-3.9,3.2-6.4,4.1c-3.4,1.4-5.8,3.8-7.5,7
		c0.5,0.2,0.7,0.5,1,0.6c3.6,1.3,7,3,10.4,4.7c1.3,0.7,2.5,1.7,3.7,2.5c2,1.4,3.8,2.9,5.9,4.1c2,1.3,3.4,3,4.9,4.6
		c0.5,0.6,0.9,0.9,1.5,1.6c1.4-1.9,2.8-3.5,4-5.4c2-3.1,4-6.2,6-9.2c0.6-0.7,0.8-1.6,0.8-2.5c0.1-1.8,1.5-2.5,3.4-1.9
		c2.1,0.7,3.8,2.1,5.2,3.9c2.3,2.9,4.4,5.9,5.3,9.5c0.2,0.9,0.2,1.9,0.2,3.1c0,0.9-0.7,1.5-1.5,1.7c-1.6,0.5-3.2,0.8-4.9,0.7
		c-3.4-0.2-6.5,0.7-9.5,2.3c-1.4,0.7-2.8,1.6-4.2,2.3c-0.3,0.2-0.6,0.5-0.7,0.6c2.2,3.8,5.7,10.7,5.8,10.7c1.3,0,2.3-0.8,4.6-1.1
		c1.3-0.5,2.7,0,3.8,0.7c2.5,1.7,4,4.1,5.2,6.7c1,2.3,1.5,4.8,1.7,7.4c1.6,0,3.2,0.1,4.7,0c2.8-0.2,5.5-0.5,8.3-0.9
		c2.1-0.5,4.2-1.1,6.1-1.8c0.7-0.2,1.2-0.2,1.6,0.2c0.7,0.7,1.3,1.4,1.8,2.2c0.7,1.1,1.2,2.4,1.7,3.8c0.9,3,1.8,5.9,2,8.9
		c0.1,1.4,0,2.7-0.3,4c-0.3,1.4-1,1.8-2.4,1.4c-1.4-0.5-2.9-0.8-4-1.6c-4-2.5-8.7-3.4-13.2-4.4c-5.1-1-10.2-1-15.4-1
		c-0.1,0-0.2,0-0.5,0.1c-0.1,2.2-0.2,4.3-0.5,6.5c-0.2,2.1-0.6,4.2-0.8,6.4c1.3,0.5,2.8,0.5,4.2,0.7c3.6,0.5,7.3-0.2,10.7-0.2
		c1.5,0,3,0.5,4.5,0.8c0.8,0.2,1.5,0.8,1.7,1.6c0.5,0.9,0.8,1.9,0.9,3.1c0.3,3.9-0.6,7.5-2.7,10.8c-0.8,1.4-2,2.4-3.4,3.3
		c-1,0.7-2.2,0.6-3.4-0.1c-2.4-1.3-4.5-3.3-6.5-5c-2.7-2.3-5.5-4.3-8.7-5.7c-1.7,3.5-3.4,7.1-5.1,10.4c2.7,2.1,5.3,4.3,8.1,6.4
		c1.6,1.3,3.4,2.3,5,3.4c2.9,1.9,6.1,3,9.5,3.8c1.6,0.5,3.2,0.9,4.4,2.2c1,1,1.2,1.8,0.6,3.1c-0.9,1.7-1.8,3.3-2.9,4.8
		c-0.3,0.6-0.7,0.9-1.3,1.3c-1.2,0.7-2,0.7-2.9-0.2c-1.2-1-2.3-2.2-3.4-3.3c-3.8-4-7.6-8.1-12.2-11.2c-2.4-1.7-4.7-3.5-7.5-4.8
		c-0.2-0.1-0.5-0.2-0.7-0.3c-3.2,4.2-6.8,8.1-11.2,11.4c1.5,1.4,2.9,2.6,4.3,3.9c4.4,3.9,9,7.2,14,10c2,1,3.8,2.2,5.5,3.5
		c0.7,0.7,0.9,1.5,0.7,2.4c-0.3,1.9-1.2,3.4-2.2,5c-1.6,2.4-3.5,4.4-5.9,6c-0.7,0.6-1.5,1-2.2,1.5c-0.7,0.3-1.4,0.6-2.1,0.7
		c-0.9,0.1-1.6-0.5-2-1.3c-0.2-0.6-0.6-1-0.7-1.6c-0.7-1.4-1.5-2.7-2-4.1c-3.1-7.5-7-14.5-12.5-20.6c-0.3-0.5-0.7-0.7-0.8-1
		c-3.5,1.7-6.7,3.4-10.1,4.8c-3.4,1.4-7,2.3-10.3,3.3c0.6,1.9,1,3.8,1.5,5.8c0.2,1.4,0.1,2.7,0.2,4.1c0,0.5-0.1,0.7,0,1.1
		c0.1,1.1-0.3,1.9-1.4,2.3c-1.2,0.5-2.3,0.8-3.5,0.9c-3.5,0.3-6.9-0.1-10.2-1.6c-1-0.5-2-1-2.8-1.9c-0.6-0.6-0.7-1.1-0.7-1.9
		c0.5-1.9,0.9-3.6,2.1-5.2c0.6-0.7,1-1.5,1.7-2.3c-4.5-0.5-8.8-0.9-13.2-1.4c-0.5,1.6-0.3,3.2-0.2,4.7c0.1,1.6,0.3,3.3,0.3,4.8
		c0,0.9,0,1.9-0.2,2.9c-0.2,1.3-1.2,1.9-2.2,2.2c-1.6,0.6-3.2,0.7-4.9,0.5c-2.4-0.2-4.6-0.9-6.8-2.1c-1-0.6-2-1.4-2.4-2.4
		c-0.3-0.7-0.2-1.5,0.1-2.2c1.2-2.7,2.5-4.9,4.4-7.2c0.8-1.1,1.5-2.7,2.4-4c-8.3-3.4-15.4-7.5-21.7-13.8c-0.9,1.1-1.8,2.4-2.4,3.8
		c-0.7,1.7-1.3,3.4-2,5.2c-0.7,1.7-1.3,3.3-2,4.9c-0.3,0.7-1.3,1.1-2.2,0.9c-1.3-0.3-2.7-0.7-3.8-1.1c-3.7-1.9-7.2-4.2-9.8-7.4
		c-0.7-0.7-1.3-1.7-1.7-2.5c-0.8-1.9-0.5-2.6,1-3.6c1.2-0.8,2.4-1.5,3.7-1.9c2-0.9,4.2-1.8,6.2-2.5c2-0.7,3.7-1.8,5.4-3.1
		C46.1,141.7,46.2,141.6,46.3,141.5z M99.6,144.1c0.1,0,0.2,0,0.3-0.1c0.1,0.3,0.3,0.6,0.5,0.8c0.2,0.9,0.5,1.9,0.7,2.9
		c0.7,4.1,1,8.1,0.5,12.2c-0.3,2.2-0.9,4.3-2.1,6c-1,1.5-2.1,3-3.2,4.4c-0.6,0.8-1.2,1.7-1.4,2.7c6-1.6,11.3-0.8,16.6,2.6
		c-0.1-1.4-0.2-2.5-0.5-3.6c-0.6-3.2-1.8-5.9-3.4-8.6c-3.4-5.4-3.9-11.2-3.8-17.2c0-0.2,0.2-0.5,0.5-0.9c0.6,0.7,0.7,1.4,0.7,1.9
		c0.1,1.9,0.1,3.8,0.2,5.8c0.3,4.6,2.4,8.4,4.6,12.3c6.2-0.8,17.8-5.8,20.3-8.1c-1.2-1.5-2.9-2.5-3.6-4.3c0.7-0.5,0.9-0.1,1.3,0.2
		c1.2,1.3,2.2,2.5,3.4,3.6c2.9,2.9,5.3,5.9,7.4,9.2c2.9,4.7,5.5,9.6,7.3,14.8c0.3,0.7,0.7,1.5,1.2,2.4c2.4-5.8,6.1-10,11.9-12.7
		c-0.9-0.6-1.8-1-2.7-1.5c-4.5-2.2-8.6-5.1-12.5-8.2s-7.3-6.7-11.3-9.7c-0.3-0.2-0.5-0.6-0.7-0.8c0.1-0.1,0.2-0.2,0.2-0.3
		c1.8,0.5,2.9,1.9,4.4,2.9c3.2-2.5,6.1-5.4,8.7-8.6c0.8-1,2-1.9,2.3-3.2c0-0.2,0.7-0.3,0.9-0.2c0.2,0,0.6,0.3,0.7,0.5
		c5.3,2.9,10.1,6.4,14.3,10.5c2.4,2.3,4.7,6,7,8.4c0.7,0.7,1.4-0.1,2.1,0.5c0.9,0.7,1.6,0.6,2.2-0.5c1-1.5,2-3.1,2.9-4.7
		c0.7-1.5,0.6-2.3-0.9-3.1c-1.2-0.7-2.3-1-3.6-1.4c-4.6-1.1-8.7-3.2-12.5-5.9c-3.4-2.5-6.7-5.1-10.1-7.8c-0.3-0.2-0.1-0.2-0.2-0.3
		c0.3-0.7,0.7-1.5,0.8-1.9c0.9-1.8,2-3.5,2.8-5.4c0.7-1.3,1-2.6,1.7-4c-2.2-0.9-4.3-1.7-6.4-2.1c-2.5-0.6-5.1-0.7-7.6-0.3
		c-0.7,0.1-1.4,0.1-2-0.7c0.7-0.1,1.2-0.2,1.7-0.2c2.3-0.1,4.7-0.3,7.2-0.1c2.9,0.2,5.4,1.4,8.1,2.4c2.1,0.8,4,2.1,6,3.4
		c2.2,1.7,4.3,3.5,6.4,5.4c0.3,0.3,0.7,0.7,1.2,0.9c-1.2-6.5,0.3-12,5.2-16.4c-1,0-2-0.1-2.9,0c-2.8,0.2-5.4,0.5-8.2,0.3
		c-2.8-0.1-5.4-0.6-8.1-1c-2.4-0.5-4.9-0.9-7.3-1.5c-1.2-0.2-2.3-0.5-3.5-0.7c-1.3-0.3-2.4-0.7-3.7-1.1c-0.2-0.1-0.6-0.2-0.7-0.3
		c0.2-0.6,0.7-0.6,1-0.5c0.9,0.2,2,0.3,2.9,0.6c4.2,0.8,8.2,1.8,12.4,2.7c0.3,0.1,0.7,0.1,1.3,0.1c0.3-2.6,0.7-5,0.9-7.5
		c0.2-3.3,0.3-6.5-0.1-9.9c-0.1-1.1-0.1-1.1-1.3-1.4c-4.6-0.9-9.1-1.3-13.7-1.4c-2,0-3.9,0.3-6,0.5c-0.2,0-0.6,0-0.7,0
		c0-0.1-0.1-0.2-0.1-0.5c0-0.1,0-0.2,0-0.5c2.7-0.7,5.3-0.7,8-0.7c2.8,0.1,5.4,0.3,8.2,0.7c2.7,0.3,5.2,0.8,7.9,1.4
		c-2.2-2.3-3.8-5-4.6-8.1c-0.8-3-1.3-5.9-0.2-9.1c-3.2,2.5-6.1,5.2-9.8,7c-3.6,1.7-7.4,3-11.4,3.8c-0.1-0.3-0.2-0.7-0.3-0.9
		c7.3-1.6,13.7-4,19.2-9.1c-1.8-4.1-3.6-8.2-6.2-11.7c-5.9,3.5-9.6,8.9-13.9,14.1c0-0.6-0.1-0.8,0-1c0.1-0.3,0.3-0.6,0.5-0.7
		c1.7-2.1,3.4-4.2,5-6.2c1-1.3,2-2.4,3.2-3.4c3.4-3,7.2-5.2,11.2-7.2c3.1-1.5,6.2-2.4,9.8-1.9c0.6,0.1,1-0.1,1.6-0.1
		c-2.3-1.6-4.2-3.5-5.8-5.8c-1.6-2.2-2.9-4.6-3.7-7.3c-0.2,0.1-0.3,0.2-0.3,0.2c-2,3.1-3.7,5.9-5.8,9c-2.8,4.2-6,8-10.2,10.9
		c-1.5,1-2.9,2.3-4.4,3.4c-0.9,0.7-1.8,1.5-2.8,2.2c-0.6,0.5-1,0.5-1.7,0c4.5-3.5,9.1-6.8,13.4-10.8c-1.3-1.3-2.3-2.5-3.6-3.5
		c-2.3-1.9-4.7-3.5-7.2-5.5c-3.4-2.9-7.3-5-11.3-6.8c-1.7-0.7-3.4-1.4-5.2-2.1c-0.3,0.7-0.6,1.1-0.7,1.7c-0.9,3.1-1.5,6-1.6,9.2
		c0,1,0,2.1,0,3.1c0,0.2-0.2,0.6-0.3,0.7c-0.7-0.3-0.7-0.8-0.7-1.4c-0.1-2.4,0.1-4.8,0.6-7.3c0.6-2.7,1-5.6,2.8-8
		c2-3.1,4.6-5.5,8.1-6.8c1.3-0.6,2.4-1.1,3.6-1.7c0.5-0.2,0.7-0.6,1-0.8c-6.6-2.2-11.6-6-15.1-12.1c-0.5,0.9-0.9,1.9-1.4,2.9
		c-0.7,1.9-1.7,3.9-2.1,5.9c-0.7,3.2-0.9,6.3-0.8,9.6c0.1,2.6,0,5.2,0,8c0,0.9,0,1.9-0.2,3c-0.5,2.1-0.8,4.1-1.3,6
		c-0.1,0.7-0.2,1.3-0.5,1.9c-0.1,0.5-0.1,1-0.8,0.9c-0.6-0.1-0.3-0.7-0.2-1c0.2-0.7,0.3-1.4,0.6-2.1c0.6-2.5,1.4-5.1,1.4-7.8
		c0-1.1,0-2.2,0-3.3c0-0.7,0.1-1.5,0.2-2.3c-3.8-0.7-7.4-1.3-11.4-1c0.6,0.7,0.8,1,1.3,1.4c1.8,1.9,2.2,5,0.7,7.5
		c-0.5,0.7-0.8,1.1-1.3,1.8c-0.7,1.4-1.6,2.6-2.2,4c-0.5,0.9-0.6,1.9-0.5,3.2c0.3,2.4,0.9,4.6,1.8,7c0.1,0.3,0.5,0.7-0.1,0.9
		c-0.6,0.2-0.7-0.3-0.8-0.7c-0.1-0.2-0.2-0.5-0.3-0.7c-0.5-1.5-0.9-3.1-1.3-4.6c-0.6-2.3-0.6-4.6,0.7-6.8c0-0.1,0-0.2,0.1-0.5
		c-3,1.5-6,1.7-9.4,0.8c0.3,0.5,0.5,0.7,0.6,0.8c1.2,1.8,1.8,3.6,1.8,5.8c0,3-0.1,5.9-0.2,8.8v0.1c-0.1,0.2-0.3,0.7-0.5,0.7
		c-0.5,0-0.6-0.3-0.6-0.7c0-1.6,0.1-3.1,0.1-4.6c0-1.9,0.2-3.9,0-5.8c-0.3-3-2.1-5-4.4-7c-2.9-2.4-3.5-6.2-1.5-9.2
		c0.1-0.2,0.3-0.6,0.7-0.9c-2.2,0.7-4.3,1.1-6.4,1.8c-0.7-3.5-1.3-7.1-1.8-10.5c-0.5-2.4-0.7-4.9-1.6-7.3c-0.5-1-0.8-2.1-1.3-3.2
		c-0.7-1.9-1.6-3.8-2.2-5.7C69.4,20.1,69,20,68.4,20c-1.4,0.1-2.8,0.5-3.9,1.1c-0.6,0.5-1,0.9-1.4,1.5c-0.7,0.9-0.3,1.8,0.7,2.4
		c0.5,0.3,0.8,0.6,1.4,0.7c1.5,0.7,2.4,1.7,3.1,3.2c0.7,1.5,1.3,3,2,4.4c1.4,3.3,2,7,2.9,10.3c0.3,1.3,0.6,2.6,0.8,3.9
		c0.2,0.8,0.3,0.9-0.5,1.1c-3.5,1.3-6.7,3.1-9.8,5c-0.7,0.6-1.6,1-2.4,1.6c0.8,1,1.6,2.1,2.4,3.1c1.2,1.4,2.4,2.6,3.7,3.9
		c0.2,0.3,0.7,0.7,0.3,0.9c-0.5,0.5-0.7,0-1-0.3c-0.5-0.5-0.8-0.9-1.3-1.4c-2.1-1.9-3.9-4.3-5.5-6.7c-2-3.1-3.7-6.3-4.6-9.9
		c-0.6-2.2-0.9-4.4-1.5-6.6c-0.5-1.6-0.8-3.1-2-4.4c-2.2,5.8-6.1,9.9-11.9,12.5c1.3,0.7,2.5,1.3,3.7,1.9c4.9,3.2,9.2,7,13.1,11.2
		c2,2.1,3.4,4.4,5.1,6.6c0.2,0.3,0.5,0.7,0.5,0.9c0,0.2-0.1,0.5-0.2,0.7c-0.2-0.1-0.6-0.1-0.7-0.2c-0.2-0.2-0.3-0.6-0.6-0.7
		c-1.6-2.5-3.5-4.7-5.4-7c-7.7,6.6-14.9,17-17.6,26.6c1,0.6,2.1,1.1,3.4,1.7c1.2,0.6,2.3,0.8,3.5,1.3c0.5,0.1,0.9,0.2,0.8,1
		c-0.5-0.1-0.9-0.1-1.4-0.2c-4.4-1.1-8-3.5-11.1-6.8c-0.8-0.9-2-1.8-3.2-2.9c1.2,5.9,0.6,11.2-2.5,16.4c0.5-0.1,0.8-0.1,1.2-0.2
		c4.2-1,8.1-0.7,11.9,1c0.3,0.1,0.7,0.2,0.8,0.5c0.1,0.1,0.2,0.5,0.2,0.6c-0.1,0.1-0.3,0.3-0.6,0.3c-0.3,0-0.7-0.2-0.9-0.3
		c-1.5-0.6-3-1-4.6-1.3c-0.7,5.9-0.8,11.7,0.3,17.3c1.5,0.2,2.8,0.5,4,0.7c0.9,0.2,1.8,0.6,2.8,0.7c0.8,0.1,1.7,0.2,2.5,0.2
		c4,0.5,8.1,0.3,12-0.7c0.6-0.1,1-0.1,1.7-0.1c-0.7,0.8-0.7,0.8-1.5,1c-4,1-8.2,0.9-12.2,0.7c-0.7-0.1-1.5-0.1-2.4-0.2
		c3.5,2.9,5.5,6.3,5.5,10.6c0.2-0.2,0.5-0.6,0.6-0.7c1.4-2.3,3.2-4,5.9-4.6c2.1-0.5,4.3-0.7,6.4-0.9c0.5,0,0.8,0.2,1.3,0.3
		c0,0.1,0,0.2,0,0.3c-0.5,0.1-0.8,0.3-1.3,0.3c-1.4,0.1-2.8,0.2-4.2,0.5c-3,0.5-5.4,1.6-7.2,4.1c-0.9,1.5-1.8,2.9-2.9,4.2
		c-0.5,0.7-0.9,1.3-1.6,1.7c-0.9,0.7-2,0.9-3.1,1.5c1.3,2.3,2.7,4.6,4.5,6.7c0.2-0.2,0.5-0.2,0.6-0.3c2-1.9,3.8-3.6,5.8-5.6
		c1.4-1.5,2.7-3.1,3.9-4.6c0.2-0.3,0.5-0.7,1-0.7c-0.1,0.3-0.2,0.7-0.3,0.8c-0.6,0.7-0.9,1.5-1.6,2.2c-1.6,1.8-3.4,3.6-5,5.5
		c-3.2,3.4-6.5,6.3-10.7,8c-2.5,0.9-5.7,2.5-8.2,3.6c-0.2,0.1,5.5,2.3,8.2,4.2c2.7,1.9,5,4.3,6.7,7.4c0.7-1.9,1.3-3.4,1.6-5.1
		c0.8-3.8,3.1-6.8,5.3-9.8c1.7-2.3,3.9-4.2,6-6.2c1.4-1.3,2.9-2.4,4.3-3.5c0.3-0.3,0.7-0.7,1.5-0.2c-4.6,3.5-8.7,7.4-12.1,12
		c4.6,5.2,17,12.2,22.3,13.9c0.5-1.3,0.9-2.4,1.3-3.6c0.5-1.6,0.7-3.2,1.2-4.7c0.1-0.5,0.1-1,0.9-1.1c0,0.3,0.1,0.7,0,0.9
		c-0.1,0.6-0.2,1-0.3,1.6c-0.7,3.8-2,7.3-4.2,10.5c-1.3,1.8-2.3,3.6-3.7,5.5c-0.3,0.5-0.6,0.8-0.9,1.4c5.3-1.3,9.6-0.1,13.7,3.2
		c-0.1-1.3-0.2-2.4-0.3-3.4c-0.5-3.3-0.3-6.5,0.3-9.8c0.3-1.8,0.8-3.4,1.2-5.2c0.2-1.1,0.5-2.2,0.7-3.3c0.1-0.5,0.2-0.7,0.7-0.7
		c0.2,0.1,0.3,0.6,0.5,0.8c0,0.1,0,0.2,0,0.2c-0.6,2.1-0.9,4.2-1.5,6.3c-0.3,1.4-0.7,2.7-0.9,4.3c4.7,0.7,9.4,1.1,14,1.3
		c2-2.9,2.8-5.9,2.9-9.2c0.1-3.9-0.3-7.8-1-11.5C99.5,145.3,99.6,144.7,99.6,144.1z M67.6,9c0.2,1.9,0.2,3.9,0.6,5.8
		c0.2,1.6,0.7,3.1,1.2,4.6c1,2.9,2.3,5.6,3.5,8.4c0.6,1.3,1,2.5,1.4,3.9c0.7,3.8,1.4,7.6,2.1,11.5c0.2,1.1,0.3,2.2,0.6,3.4
		c2.3-0.7,4.6-1.3,6.9-1.9c-0.1-0.2-0.1-0.5-0.1-0.7c-0.7-3.1-1.3-6.2-1.6-9.2c-0.6-5.4,0.6-10.5,2.3-15.5c0.7-1.9,1.5-4.1,2.1-6
		c0.5-1.5,0.5-3.1,0.7-4.7c-3.1,1.4-6.4,1.6-9.6,1.8C74.3,10.4,71.1,10.3,67.6,9z M160.1,103.7c1.5-0.1,2.8-0.2,4-0.2
		c4.5-0.1,8.9,0.6,13.3,1.4c4.5,0.8,8.7,2.2,12.6,4.6c0.6,0.3,1.2,0.6,2,0.9c-3.1-5.9-4.6-11.7-3.8-18.1c-1.3,0.5-2.4,0.9-3.7,1.3
		c-3.4,0.7-6.9,1.1-10.4,1.3c-1.4,0.1-2.8,0.1-4.2,0.1c-0.2,0.7-0.3,1.1-0.5,1.6c-0.8,2.7-2.4,3.6-5.3,3.3c-1.4-0.2-2.8-0.5-4.3-0.7
		C159.9,100.6,160,101.9,160.1,103.7z M34.7,115.4c-0.1-0.6-0.2-1-0.3-1.5c-0.3,0.1-0.7,0.1-0.8,0.2c-4.2,1-8.4,1.4-12.7,0.7
		c-2.9-0.6-5.8-0.9-8.7-1.5c-1.6-0.3-3.4-0.6-5.2-0.9c0.1,0.2,0.1,0.3,0.1,0.5c3.1,4.1,4.2,8.7,4.5,13.7c0.1,1.7-0.2,3.3-0.8,4.9
		c0.5-0.1,0.7-0.2,1-0.3c2.2-0.9,4.5-1.9,6.6-3.1c2.8-1.4,5.3-3.1,8-4.6c1-0.6,2.1-0.9,3.2-1.4C29.8,118.9,31.2,116.5,34.7,115.4z
		 M40.9,133.2c0.5-0.1,1-0.1,1.6-0.2c2.4-0.7,4-2.9,4-5.6c0.1-3.6-1.5-6.6-4.2-8.9c-1.6-1.4-3.4-2.2-5.5-2.3c-2.7-0.1-5.2,1-6,4
		c-0.5,1.4-0.3,2.7-0.1,4.1c0.3,2.2,1.5,4.1,3.1,5.7C35.8,131.8,37.9,133.2,40.9,133.2z M90,57.2c1.6-0.1,3-0.3,4.4-0.8
		c2.3-0.9,3.9-2.5,4.7-4.9c0.8-2.3,0-4.7-2-6.4c-1.4-1.1-3.4-1.7-4.5-1.9c-2,0-3.4-0.6-6.7,0.8c-0.1,0.1-1.7,1.1-2.8,2.3
		c-1.8,1.9-2.3,5.1-0.5,7.5C84.7,56.4,87.2,57.1,90,57.2z M168.7,93.4c-0.2-4.1-1.5-7.5-3.9-10.6c-0.8-1-1.7-1.9-3-2.5
		c-2-1-3.8-0.3-4.6,1.8c-0.3,0.8-0.5,1.8-0.6,2.7c-0.2,1.7,0.2,3.3,0.8,4.8c0.7,1.7,1,3.4,2,4.9c1,1.6,2.3,3.1,4.2,3.9
		c1.8,0.8,3.4,0.3,4.2-1.4C168.6,95.8,168.7,94.5,168.7,93.4z M180.2,125c0-1.5-0.3-3.2-0.7-4.1c-0.8-1.7-2.1-2.1-3.7-1.1
		c-0.7,0.5-1.3,0.8-1.8,1.5c-2.7,3.4-3.8,7.4-3.4,11.7c0.1,0.8,0.5,1.7,0.7,2.4c0.6,1.1,1.6,1.6,2.8,1.3c0.9-0.2,1.7-0.7,2.3-1.5
		C179.1,132.2,180,128.7,180.2,125z M29.2,85.7c0-0.7,0-1.4-0.1-2.1c-0.2-1.3-0.5-2.6-1-3.6c-0.9-1.7-2.2-1.8-3.4-0.3
		c-0.8,1-1.6,2.2-2,3.5c-0.8,2.6-1.3,5.2-1.2,8c0.1,1.8,0.2,3.4,1,5c0.9,1.8,2.3,1.9,3.5,0.3c0.7-0.7,1-1.7,1.5-2.5
		C28.6,91.6,29.1,88.8,29.2,85.7z M168.7,60.8c-0.1-0.3-0.1-0.8-0.2-1.3c-0.6-2.5-1.8-4.7-3.2-7c-1.5-2.3-3.5-4.2-5.8-5.9
		c-0.6-0.5-1.3-0.6-2-0.6c-0.6,0-0.8,0.3-1,0.9c-0.2,1.1-0.1,2.2,0.2,3.3c1.2,3.6,3.2,6.7,6,9.5c1,1,2.2,2.1,3.6,2.6
		C167.9,63.1,168.7,62.5,168.7,60.8z M10.7,127.1c-0.1-4.2-0.9-7.9-2.7-11.2c-0.6-1-1.2-1.9-2-2.9c-1-1-2-0.8-2.3,0.6
		s-0.6,2.7-0.6,4.2s0.3,3,0.7,4.4c0.7,2.9,1.6,5.5,3.4,7.9c0.3,0.5,0.8,0.8,1.3,1.1c0.6,0.3,1,0.2,1.4-0.3c0.2-0.3,0.5-0.7,0.6-1.1
		C10.6,128.7,10.6,127.7,10.7,127.1z M43.7,163.5c1.8,0,2.2-0.6,1.7-1.8c-0.3-0.7-0.7-1.5-1.3-2.1c-3-3.8-6.8-6.6-11.3-8.4
		c-0.7-0.3-1.6-0.5-2.4-0.6c-1.2-0.1-1.5,0.5-1,1.5c0.3,0.7,0.7,1.4,1,1.9c2.5,3.3,5.9,6,9.7,8C41.4,162.9,42.6,163.4,43.7,163.5z
		 M37.2,44.2c0,1.3,0.7,1.8,2,1.5c0.7-0.2,1.4-0.5,2-0.8c2.7-1.5,4.7-3.5,6.6-6c1-1.5,2-3,2.3-4.6c0.5-1.9-0.5-2.7-2.2-1.9
		c-1.6,0.7-3.1,1.5-4.5,2.5c-2,1.5-3.5,3.4-4.7,5.6C37.9,41.6,37.2,42.8,37.2,44.2z M129.4,35c1.4-0.1,1.7-0.6,1.3-1.8
		c-0.1-0.5-0.3-0.8-0.6-1.1c-0.7-0.9-1.4-1.9-2.1-2.9c-2.8-3-6-5.1-9.8-6.8c-0.6-0.2-1.2-0.3-1.8-0.3c-0.9,0-1.4,0.6-1,1.5
		c0.2,0.7,0.6,1.3,0.8,1.8c2.8,3.9,6.4,6.8,10.7,8.8C127.7,34.5,128.5,34.7,129.4,35z M160.5,173.6c0-1.7-0.5-2.1-1.6-1.9
		c-0.7,0.1-1.3,0.5-2,0.7c-3.5,1.9-6,4.9-8,8.4c-0.7,1-1,2.1-1.2,3.3s0.3,1.7,1.5,1.5c1.3-0.3,2.5-0.7,3.6-1.6
		c2.5-2.3,4.9-4.7,6.5-7.8C159.9,175.3,160.3,174.1,160.5,173.6z M99.5,173.1c-0.7,0.1-2,0.3-3.4,0.6c-0.9,0.2-1.8,0.7-2,1.6
		c-0.1,0.9,0.7,1.5,1.5,1.9c1.7,1.1,3.7,1.7,5.8,2.1c2.4,0.5,4.9,0.7,7.4-0.1c0.7-0.2,1.2-0.6,1.7-0.8c0.7-0.6,0.7-0.9,0.2-1.6
		c-0.5-0.6-0.9-1-1.5-1.4C106.4,173.8,103.2,173.3,99.5,173.1z M72.8,173.4c-0.7,0.1-1.7,0.2-2.7,0.6c-2,0.7-2.2,1.9-0.8,3.3
		c0.8,0.8,2,1.6,3.1,1.9c2.4,0.8,4.9,1.4,7.5,0.9c0.8-0.1,1.7-0.5,2.4-0.8c0.8-0.6,0.9-1.3,0.5-2.1c-0.3-0.6-0.8-0.9-1.4-1.4
		C79,174.1,76.1,173.6,72.8,173.4z M194.1,110.9c0.3-0.7,0.7-1.1,0.7-1.7c0.1-1.5,0.1-3,0-4.4c-0.3-3.3-0.9-6.5-2.4-9.6
		c-0.6-1-1.2-2.1-2-3.1c-0.7-0.8-1.3-0.7-1.6,0.3c-0.2,0.7-0.3,1.4-0.3,2.1c-0.1,4.3,0.9,8.6,2.7,12.5c0.5,0.9,1,1.9,1.6,2.7
		C193.2,110.3,193.6,110.5,194.1,110.9z M68,7.9c0,0.1,0,0.2,0,0.3c0.3,0.1,0.6,0.5,0.8,0.5c1,0.2,2.1,0.6,3.2,0.6
		c2.3,0.1,4.6,0.1,7,0c2.2-0.2,4.4-0.5,6.6-1.4c0.6-0.2,1-0.2,1.3-0.8c-0.9-0.8-2-1.1-3.1-1.1c-2.3-0.1-4.6-0.2-7-0.1
		c-2.5,0.1-5,0.5-7.4,1.3C69,7.4,68.5,7.6,68,7.9z"/>
	<path d="M98.6,83.4c-0.5,0.2-0.7,0.3-1.4,0.6c0.3-0.5,0.3-0.7,0.6-0.8c0.5-0.6,0.9-0.9,1.4-1.5c1.5-1.9,3.5-2.2,5.8-1.9
		c4.3,0.5,7.6,2.6,10.9,5.2c2.3,1.9,4.3,4.1,5.7,6.7c0.9,1.8,1.7,3.6,1.3,5.8c-0.1,0.7-0.5,1.5-0.9,1.9c-0.7,0.7-1.3,1.6-1.7,2.4
		c-0.1,0.3-0.5,0.6-0.7,0.8c-0.6-0.6-0.6-0.6-0.1-1.6c-1.4-0.1-2.8-0.1-4-0.3c-3.9-0.8-7.3-2.9-10.1-5.5c-1.4-1.3-2.7-2.6-3.8-4.1
		C99.7,88.8,98.6,86.4,98.6,83.4z M104,80.5c-0.2,0-0.5,0-0.7,0c-2.5,0.1-4,1.7-3.6,4.1c0.2,1.1,2.3,9,14.8,14.6
		c1.3,0.5,2.7,0.7,4.2,0.5c2.2-0.3,3.4-1.6,3.1-3.8c-0.1-1.5-0.7-2.7-1.3-4c-2.7-4.4-6.4-7.6-11.1-9.9
		C107.7,81.4,105.9,80.5,104,80.5z"/>
	<path d="M69,82.8c-1.3,6.7-5,11.5-11.1,14.8c-0.7,0.3-1.5,0.7-2.2,0.7c-0.7,0.2-1.6,0.2-2.3,0.3c-0.1,0.7,1.2,1.1,0.7,1.9
		c-0.1,0-0.2,0-0.2,0c-1.2-1.5-2.5-2.9-3.6-4.3c-0.8-1.3-0.7-2.7-0.5-4.1c0.6-2.9,1.8-5.2,3.6-7.5c2.1-2.9,4.7-4.9,8-6.4
		c1.3-0.7,2.7-0.7,3.9-0.5c1.2,0.2,2,0.8,2.5,1.8c0.7,1.1,1.4,2.4,2,3.5c0.2,0.5,0.5,0.9,0.2,1.6C69.7,84.2,69.7,83.2,69,82.8z
		 M50.9,93.7c0,0.2,0,0.3,0,0.6c0.1,2.3,1.7,3.6,4,3.3c1-0.2,2.2-0.6,3.2-1c4.5-2.6,7.6-6.3,9.2-11.2c0.5-1.1,0.6-2.4,0.3-3.6
		c-0.3-1.8-1.5-2.6-3.4-2.6c-1.4,0-2.8,0.5-4,1.1c-3.7,2.1-6.4,5.2-8.2,8.9C51.4,90.5,50.9,92,50.9,93.7z"/>
	<path d="M94,100.6c-0.5,0.1-0.7,0.2-0.9,0.2c0,0.2,0.1,0.5,0.1,0.7c0.7,2.3,0.2,4.6-0.7,6.7c-1.7,4-4.5,7.1-8.4,8.9
		c-2.3,1.1-4.7,1.5-7.4,0.2c-0.1,0-0.1,0-0.3,0c0,0.5,0.1,0.8,0.1,1.1c-0.1,0-0.2,0.1-0.2,0.1c-0.1-0.2-0.5-0.6-0.5-0.7
		c-0.2-1-0.7-1.9-1.2-2.9c-0.7-1.1-0.8-2.5-0.7-3.8c0.9-6.7,4.9-11.2,11.3-13.7c1-0.5,2.2-0.6,3.2-0.3c0.8,0.1,1.6,0.6,1.7,0.6
		c0.6,0.3,0.8,0.6,1.3,0.8C92.2,99.2,93,99.9,94,100.6z M87.8,98.4c-1.7,0-3.2,0.5-4.6,1.3c-3.4,1.9-5.8,4.6-7.2,8.1
		c-0.9,2.4-1.5,4.8,0,7.3c0.6,0.9,1.3,1.6,2.2,1.9c1.4,0.6,2.9,0.5,4.3-0.1c5.2-1.9,8.4-5.8,9.9-11.1c0.3-1.3,0.5-2.4,0.1-3.6
		C92,99.7,89.9,98.3,87.8,98.4z"/>
	<path d="M121.8,131.6c-0.8,0.2-1.3,0.1-1.4-0.7c-6.5,0.6-12.7-3.5-14.4-9.4c-0.3-1.1-0.7-2.2-0.3-3.4c0.1-0.3-0.2-0.7-0.3-1.3
		c2-2.6,4.6-3.6,8.1-3c4.7,0.9,8.1,3.8,10.2,8c0.7,1.6,1.2,3.3,0.7,4.9c-0.2,0.8-0.7,1.7-1.2,2.2C122.5,130,121.8,130.6,121.8,131.6
		z M117.7,130.2c4.4,0,6.5-2.5,5.5-6c-0.3-1-0.7-2.1-1.4-3.1c-1.7-2.9-4.4-4.6-7.3-5.9c-1.5-0.7-3-0.7-4.6-0.5
		c-2.2,0.6-3.5,2.1-3.6,4.3c0,0.7,0.1,1.1,0.2,1.8c0.7,2.4,2.1,4.4,4,6C112.9,128.9,115.4,130.1,117.7,130.2z"/>
	<path d="M99.9,134.9c-0.7,1.1-1.4,2.2-2,3.3c-1.8,2.6-4.5,3.6-7.5,3.6c-3.4-0.1-6.2-1.3-8.7-3.5c-2.5-2.4-3.1-5.9-1.3-8.8
		c0.6-0.8,3-3.3,3.5-3.6c1.3-0.8,2.2-1.1,3.7-1.4c0.3-0.1,0.7-0.1,1-0.1c2,0,3.6,0.7,5.3,1.7c2.7,1.6,4.5,3.8,5.2,6.8
		c0.1,0.7,0.1,1.5,0.2,2.2C99.5,134.9,99.7,134.9,99.9,134.9z M90.8,140.9c0.5-0.1,1.3-0.1,2-0.3c4.2-1,7.2-5,4.6-9.9
		c-1.5-2.9-3.9-4.3-6.9-5.2c-1.4-0.5-2.8-0.3-4,0.3c-2.1,0.9-3.8,2.3-5,4.3c-1.8,3-1.4,5.7,1.2,7.9
		C84.8,139.8,87.5,140.8,90.8,140.9z"/>
</g>
</svg>
