<?xml version="1.0" encoding="utf-8"?>
<!-- Generator: Adobe Illustrator 24.0.2, SVG Export Plug-In . SVG Version: 6.00 Build 0)  -->
<svg version="1.1"
	 id="svg4" inkscape:version="0.92.4 (5da689c313, 2019-01-14)" sodipodi:docname="G5.Virus Klecks.svg" xmlns:cc="http://creativecommons.org/ns#" xmlns:dc="http://purl.org/dc/elements/1.1/" xmlns:inkscape="http://www.inkscape.org/namespaces/inkscape" xmlns:rdf="http://www.w3.org/1999/02/22-rdf-syntax-ns#" xmlns:sodipodi="http://sodipodi.sourceforge.net/DTD/sodipodi-0.dtd" xmlns:svg="http://www.w3.org/2000/svg"
	 xmlns="http://www.w3.org/2000/svg" xmlns:xlink="http://www.w3.org/1999/xlink" x="0px" y="0px" viewBox="0 0 198.4 198.4"
	 style="enable-background:new 0 0 198.4 198.4;" xml:space="preserve">
<style type="text/css">
	.st0{fill:#9DE27C;}
	.st1{display:none;fill:#9DE27C;}
	.st2{fill:#FFFFFF;}
</style>
<path id="path2" class="st0" d="M188,20.6C178.9,4.1,153.4-1.9,134,2c-19.9,4.1-19.4,16-43.9,25.8c-25.3,10.1-34.3,0.8-50.7,9.1
	C14,49.8,2.5,88.9,8.2,119.7c6,32.8,32.6,68.6,73.8,74c51.9,6.8,96.5-38.5,97.5-70.5c0.6-18.5-13.5-31.1-5.2-50.1
	c5.2-11.9,14.9-16.2,16.9-31.2C191.6,39.2,192.9,29.6,188,20.6z"/>
<sodipodi:namedview  bordercolor="#666666" borderopacity="1" gridtolerance="10" guidetolerance="10" id="namedview6" inkscape:current-layer="svg4" inkscape:cx="151.5407" inkscape:cy="109.79305" inkscape:pageopacity="0" inkscape:pageshadow="2" inkscape:window-height="1699" inkscape:window-maximized="1" inkscape:window-width="2736" inkscape:window-x="-13" inkscape:window-y="-13" inkscape:zoom="3.4231221" objecttolerance="10" pagecolor="#ffffff" showgrid="false">
	</sodipodi:namedview>
<g id="Farbe">
	<g>
		<g>
			<path class="st1" d="M101.1,189.6c-33.6,0-67.2,0-100.8,0c-0.6,0-0.7-0.1-0.7-0.7c0-62,0-124,0-185.9c0-0.7,0.1-0.8,0.7-0.8
				c67.2,0,134.3,0,201.5,0c0.6,0,0.7,0.1,0.7,0.7c0,62,0,124,0,185.9c0,0.6-0.1,0.7-0.7,0.7C168.3,189.6,134.8,189.6,101.1,189.6z"
				/>
			<path class="st1" d="M0.5,4.7c0-0.2,0-0.5,0-0.6c0-0.5,0.2-0.7,0.7-0.6c0.2,0,0.5,0,0.7,0c64.9,0,129.9,0,194.9,0
				c1.3,0,1.3,0,1.3,1.3c0.2,0.5,0.1,0.8,0.1,1.3c0,35,0,70,0,104.9c0,25,0,50.1,0,75c0,1.5,0,1.5-1.6,1.5c-64.9,0-129.8,0-194.7,0
				c-1.6,0-1.6,0-1.6-1.5C0.4,126,0.4,66,0.4,6C0.4,5.5,0.2,5,0.5,4.7z"/>
			<path class="st1" d="M0.5,4.7c0,0.3,0,0.8,0,1.2c0,60.1,0,120.1,0,180.2c0,0.2,0,0.5,0,0.8s0.1,0.5,0.5,0.5c0.2,0,0.3,0,0.6,0
				c65.2,0,130.3,0,195.4,0c1.2,0,1,0.1,1-1c0-60.1,0-120.2,0-180.3c0-0.3,0-0.8,0-1.2c0.2,0,0.3,0.2,0.2,0.3c0,0.2,0,0.5,0,0.7
				c0,60.3,0,120.6,0,181c0,0.2,0,0.5,0,0.7c0,0.3-0.1,0.5-0.6,0.5c-0.2,0-0.5,0-0.6,0c-65.3,0-130.6,0-195.9,0
				c-1.3,0-1.2,0.1-1.2-1.2C0,126.4,0,66.1,0,5.7C0.2,5.4-0.1,4.9,0.5,4.7z"/>
			<path class="st1" d="M197.7,105.6c-0.6-4.1-1.6-8.1-3.5-11.7c-0.5-0.9-1.2-1.7-1.9-2.5c-0.6-0.6-1.2-0.7-1.9-0.5
				c-2.1,0.6-4.1,1.4-6.2,1.7c-4.2,0.7-8.4,1.2-12.6,1c-0.5,0-0.6-0.2-0.6-0.7c-0.3-3.8-1.4-7.2-3.6-10.4c-0.8-1.3-1.9-2.3-3.1-3.1
				c-1.4-1-2.9-1.4-4.7-0.7c-1.2,0.5-2.4,0.7-3.3,1.7c-2.1-3.7-4.2-7.4-6.4-11c-0.2-0.3-0.1-0.5,0.1-0.7c4-2.3,7.8-4.8,12.6-4.8
				c2.1,0,4.2-0.1,6.2-0.7c1.4-0.5,1.7-0.9,1.7-2.3c0.1-2.9-1-5.3-2.4-7.6c-1.5-2.5-3.1-4.9-5.5-6.8c-1.2-0.9-2.6-1.7-4.2-1.7
				c-1.3,0-2.1,0.7-2.1,2c0,1.2-0.5,2.1-1,3c-3,4.6-5.9,9.3-9.4,13.7c-0.1,0.2-0.3,0.3-0.5,0.6c-1.9-1.7-3.4-3.9-5.5-5.4
				c-6.5-4.7-13.2-9.6-21.1-12.1c-1.3-0.5-1.3-0.5-0.5-1.6c1.9-2.8,4.3-4.8,7.4-6.1c2.1-0.8,4.1-2,5.7-3.7c0.8-0.8,1-1.6,0.6-2.8
				c-0.9-2.5-2.8-4.4-4.7-6.2c-2.1-2-4.5-3.5-7.2-4.7c-1.2-0.5-2.3-0.6-3.5-0.8c-0.7-0.1-1.3,0.2-1.6,0.8c-2,2.8-3.4,6-4.5,9.1
				c-0.6,1.4-0.5,3.1-0.7,4.6c-0.2,2.6-0.7,5.4-0.6,8.1c0.1,0.8-0.5,0.5-0.8,0.3c-1.5-0.2-3-0.5-4.5-0.6c-2.1-0.2-4.3-0.3-6.4-0.3
				c-0.5,0-1,0-1.5-0.2c-2.9-1.3-5.8-1.3-8.8-0.2c-0.3,0.2-0.9,0.2-1.5,0.5c-0.7,0.3-0.9,0-1-0.6c-2-8.6-2.1-17.1,1.6-25.4
				c1.3-2.9,2-5.9,1.6-9.1c0-0.3,0-0.7,0.1-1c0-1-0.3-1.6-1.4-1.8c-1.7-0.3-3.5-0.6-5.4-0.7C77.3,3.8,73.1,4.2,69,5.5
				c-1.5,0.5-2,1-2,2.5c0,3.2,0,6.4,0.8,9.6c0.1,0.6,0.1,0.8-0.7,0.9c-1.3,0-2.6,0.3-3.7,1c-1.4,0.8-2.4,1.8-2.3,3.6
				c0,1,0.5,1.8,1.3,2.2c2.6,1.2,4,3.1,5.1,5.6c1.7,3.8,2.7,7.7,3.6,11.7c0.3,1.5,0.8,3,1.2,4.5c0.1,0.3,0,0.6-0.3,0.7
				c-4,1.7-7.8,3.7-11.3,6.2c-0.6,0.3-0.7,0-0.9-0.3c-2-2.9-3.4-5.9-4.3-9.2c-0.7-2.4-0.9-4.9-1.7-7.2c-0.6-1.8-1.4-3.6-2.7-5.2
				c-1.2-1.5-2.1-1.8-4-1.3c-1.5,0.3-2.7,1.3-3.7,2.2c-2.1,1.8-4,3.7-5.5,5.9C37,40.1,36.4,41.5,36,43c-0.3,1.3,0,2.3,1.2,3
				c1.3,0.8,2.6,1.6,3.8,2.3c3.6,2.1,6.8,4.8,9.9,7.6c0.9,0.8,1.7,1.7,2.7,2.5c0.2,0.2,0.5,0.6,0,0.9c-7.7,7.2-13.5,16-16.8,26.2
				c-0.5-0.2-0.7-0.5-1-0.8c-2.6-2.4-5.2-4.7-8-6.9c-1.3-1-2.3-1-3.6,0c-0.7,0.6-1.3,1.3-1.6,2.1c-2.2,4.6-3.1,9.3-2,14.4
				c0.2,1,0.7,2.1,1.4,3c0.8,1,1.7,1.3,3,1c2.1-0.5,4.1-0.9,6.3-1.2c0.9-0.1,1.7,0,2.7,0c0.5,0,0.5,0.2,0.5,0.6
				c-0.5,3.2-0.6,6.6-0.5,9.9c0,1.4,0.1,2.8,0.3,4c0.1,0.7-0.1,0.9-0.7,1c-3.5,0.9-7,1.2-10.6,0.9c-3.8-0.2-7.4-1.2-11.3-1.7
				c-2.3-0.3-4.7-0.7-7-0.8c-0.7,0-1.3,0.2-1.7,0.8c-0.8,1-1,2.3-1,3.6c0,4.6,0.9,9,3.1,13.1c0.5,0.9,1,1.7,1.7,2.4
				c1,1,2.2,1.3,3.6,0.9c4.2-1,7.9-2.9,11.5-5.1c2.2-1.4,4.4-2.5,6.9-3.5c0.6-0.2,0.8-0.2,0.9,0.5c0.8,3.1,2.2,5.8,4.9,7.7
				c1.6,1.3,3.5,2,5.5,2.3c0.5,0.1,0.8,0.2,1,0.8c0.6,1.5,1.7,2.5,2.8,3.7c0.8,0.9,1.7,1.8,2.4,3c-2.7,2.2-5.7,3.5-9,4.6
				c-2.6,0.9-5,2-7.3,3.5c-0.3,0.2-0.7,0.6-1,0.8c-0.7,0.6-0.8,1.4-0.6,2.2c0.5,1.5,1.4,2.6,2.3,3.8c3.1,3.6,6.9,6.2,11.4,7.8
				c0.6,0.2,1.3,0.3,1.9,0.5c1.2,0.3,2.1-0.1,2.6-1.3c1.4-3.1,2.4-6.2,3.7-9.3c0.6-1.6,1.5-3,2.7-4.4c6.2,6.1,13.5,10.4,21.4,13.6
				c0.5,0.1,0.5,0.3,0.2,0.7c-1.2,2.1-2.3,3.9-3.7,5.8c-1,1.5-2,3.2-2.7,4.8c-0.6,1.3-0.5,2.4,0.5,3.5c0.2,0.3,0.6,0.7,0.9,0.8
				c3.8,2.3,7.9,3.5,12.3,2.4c2.1-0.5,2.7-1.4,2.8-3.5c0.1-2.2-0.1-4.3-0.2-6.4c-0.1-1.5-0.2-2.9,0.1-4.4c0.1-0.3,0.1-0.6,0.6-0.6
				c4,0.5,8,0.8,12,1.3c0.2,0,0.5,0.1,0.8,0.1c-0.5,0.6-0.8,1.3-1.3,1.7c-1.4,1.7-2.1,3.7-2.4,5.8c-0.1,0.7,0.1,1.3,0.6,1.7
				c0.6,0.7,1.3,1.3,2.1,1.6c3.8,1.8,7.8,2.4,12,1.8c0.9-0.1,1.9-0.6,2.8-0.9c0.9-0.3,1.3-1,1.4-2.1c0.1-3.7-0.3-7.1-1.5-10.6
				c-0.2-0.6,0-0.8,0.6-0.9c4.7-1.4,9.3-2.8,13.6-4.9c1.9-0.9,3.8-1.8,5.7-2.9c0.3-0.2,0.6-0.1,0.9,0.2c5.7,6.4,9.9,13.7,13.2,21.5
				c0.8,2,1.9,3.8,2.8,5.8c0.1,0.3,0.5,0.6,0.8,0.9c-0.5,0-0.7,0-0.9,0c-48.8,0-97.5,0-146.3,0c-0.7,0-0.8-0.2-0.8-0.9
				c0-60.5,0-121,0-181.5c0-0.7,0.2-0.8,0.9-0.8c65.1,0,130.1,0,195.2,0c0.7,0,0.9,0.2,0.9,0.9c0,33.4,0,66.9,0,100.2
				C197.7,105.1,197.7,105.4,197.7,105.6z"/>
			<g>
				<path class="st0" d="M26,95.8c2-3.6,3-7.5,2.8-11.6c0-1.4-0.3-4.1-0.6-5.8c1.2,0.9,5.2,4.5,6.1,5.4c3,3.2,3.6,4.3,7.9,5.5
					c0.5,0.1,0.8,0.2,1.3,0.2c0.2,0,0.5,0.1,0.6-0.1c0.1-0.2,0-0.6-0.2-0.7c-0.1-0.1-0.3-0.2-0.6-0.2c-2.2-0.6-4.3-1.5-6.3-2.6
					c-0.5-0.2-0.6-0.5-0.5-1c1.9-6,4.8-11.3,8.5-16.2c2.4-3.3,5.2-6.4,8.4-9.3c0.5-0.3,1.7-1,2.1-0.6c1.9,2.2,3.6,4.4,5.1,6.7
					c0.2,0.3-0.5,1.6,0,1.3c0.5-0.3,0.2-0.8,0-1.3c-1.6-2.3-3.3-4.6-5.1-6.7c-3.7-4.3-7.7-6.1-12.5-9.3c-1.2-0.7-3.3-2.1-4.5-2.6
					c-0.2-0.1,0-1.4-0.1-1.7c5.6-2.6,9.5-6.8,11.9-12.7c1,1.4,1.5,2.9,1.9,4.4c0.7,2.8,1,5.6,2,8.3c2,5.6,5.1,10.5,9.2,14.7
					c0.7,0.7,1.4,1.4,2,2.1c0.2,0.2,0.5,0.5,0.9,0.2c0.3-0.3,0.1-0.6-0.1-0.9c-1.2-1.3-2.4-2.5-3.6-3.8c-0.9-1-1.9-2.3-2.8-3.5
					c4-2.6,7.8-5.1,12.2-6.7c0.5-0.2,0.8-0.3,0.7-1c-0.9-4.3-1.9-8.5-3.1-12.7c-0.7-2.4-1.9-4.6-2.9-6.9c-0.6-1.4-1.7-0.3-3.1-0.9
					c-0.6-0.2-2-1.4-2.4-1.7c-0.8-0.6,0.1-2.4,0.6-3.2c0.9-1.6,2.4-2.2,4.2-2.5c0.3-0.1,0.7-0.1,1-0.1c0.7,0,1.2,0.2,1.4,0.9
					c1.2,3,2.3,6,3.5,8.9c0.9,2.3,1.2,4.7,1.6,7.1c0.6,3.5,1.2,6.9,1.7,10.5c0.1,0.3,0.2,0.5,0.6,0.3c1.9-0.6,5.5-1.5,7.6-2.1
					c-0.7,1.2-1.6,2.5-1.9,3.8c-0.6,2.9,0.1,4.7,2.3,6.6c0.6,0.6,0.2,1.6,0.8,2.2c2,2.1,2.7,4.6,2.6,7.4c-0.1,2.6-0.1,5.3-0.2,7.8
					c0,0.5-0.2,1.2,0.5,1.2c0.6,0,0.6-0.7,0.6-1.2c0.1-2.8,0.1-5.4,0.2-8.2c0.1-2.1-0.5-3.9-1.5-5.8c-0.2-0.3-0.5-0.8-0.7-1.3
					c3.1,0.7,6.2,0.6,9.1-0.8c0.2,0.1,0.1,0.2,0.1,0.3c-1,2.2-1.2,4.4-0.6,6.7c0.3,1.6,0.9,3.2,1.4,4.8c0.1,0.3,0.2,0.6,0.3,0.8
					c0.2,0.3,0.5,0.7,0.9,0.5c0.3-0.2,0.2-0.6,0.1-0.9c-0.6-1.5-1-3-1.4-4.5c-0.3-1.5-0.7-3-0.5-4.5c0.1-0.5,0.2-1,0.5-1.5
					c1-1.8,2.1-3.7,3.3-5.5c1.9-2.5,1.4-6-0.8-8.2c-0.3-0.2-0.6-0.6-0.9-1c0.7-0.2,1.4-0.1,2.1-0.1c3,0,5.9,0.6,8.8,1
					c0.2,0,0.5,0.1,0.5,0.5c-0.3,2.6,1.4,5.2,0.9,7.8c-0.5,2.5-1.3,5.4-1.9,7.9c-0.1,0.3-0.7-0.2,0,0c0.7,0.2-0.1,0.5,0,0
					c1.7-6.2,2.3-12.4,2.1-18.8c-0.2-4.1,0.1-8.3,1.4-12.3c0.8-2.3,1.7-4.5,2.9-6.7c3.5,6,7.3,9.4,14,11.7c-0.3,0.5-1.2,1-1.6,1.3
					c-1,0.5-2.4,1.3-3.5,1.7c-5.8,2.5-6.1,6.6-7.4,12.5c-0.7,3.1-1.4,6.6-1.3,9.8c0,0.5-1.2,0.9-0.7,1.3c0.2,0.2,0.5,0.2,0.6-0.1
					s0.1-0.7,0.1-1c-0.1-3.9,0.3-7.8,1.5-11.5c0.6-2,0.6-2,2.6-1.3c5.1,2,9.9,4.4,14.2,7.7c2.6,2.1,5.2,4,7.8,6.1
					c1.3,1,2.3,2.3,3.6,3.5c0.3,0.3,0,0.5-0.2,0.7c-1.9,1.6-3.7,3.2-5.6,4.7c-2.3,1.8-3.4,4-5.7,5.9c-0.1,0.1,1.7,0,0,0
					c0.1,0.2-1.3,0.3-1,0.3c0.3,0,0.7-0.1,1-0.3c3.4-2.8,6.9-5.3,10.1-8.2c3.4-2.9,6.1-6.4,8.4-10.2c1.6-2.5,3.1-5.1,4.8-7.5
					c0.1-0.1,0.1-0.2,0.3-0.2c1.9,5.2,4.9,10,9.3,13.5c-0.5,0.2-1.9,1.5-2.2,1.5c-3.4-0.3-6.5,0.9-9.5,2.3c-4.2,2-8.5,4.7-12,7.7
					c-1.7,1.5-1.9,2.1-3.4,3.9c-1.3,1.5-2.4,3-3.6,4.6c-0.5,0.6-0.9-0.3-0.6,0.6c0.3,0,0.5-0.3,0.6-0.6c2-2.4,4-5.1,6.1-7.4
					c2.1-2.3,4.3-4.3,6.9-6c0.5-0.3,0.7-0.2,0.9,0.2c2.4,3.3,4.3,6.9,6.1,10.6c0.2,0.5,0,0.7-0.3,0.9c-3.4,3.1-7.3,5.3-11.6,6.8
					c-2.3,0.8-2.2,2.2-4.7,2.6c-0.2,0-3.1-0.6-3-0.1c0.1,0.3,0.1,0.8,0.7,0.6c6.3-1.5,12.3-3.5,17.3-7.7c1.2-1,2.4-2,3.6-2.9
					c-1.3,6.6,2.8,12.9,7.1,18c-2.6-0.5-7.4-0.5-9.9-0.8c-4.7-0.5-9.7-0.8-14.4-0.3c-0.7,0.1-0.7-0.2-1.4-0.1
					c-0.5,0.1-0.6-0.8-0.6-0.3c0,0.5,0.3,0.5,0.6,0.3c1.6-0.1,3.4-0.3,5-0.3c5.2-0.1,10.5,0.3,15.6,1.4c0.6,0.1,0.7,0.3,0.8,0.9
					c0.5,4.3,0.3,8.5-0.1,12.7c-0.1,1.5-0.3,3-0.6,4.5c-0.1,0.9-0.2,1-1.2,0.8c-2.8-0.6-5.6-1.3-8.4-1.8c-2.3-0.5-4.8-1-7.2-1.5
					c-0.2,0-0.3,0-0.6,0c-0.3,0-0.6,0.1-0.6,0.5c0,0.3,0.3,0.2,0.5,0.3c2.7,1,5.5,1.6,8.1,2.2c4.4,0.9,8.7,2,13.2,2.3
					c3,0.2,6.2,0.1,9.2-0.1c1.2-0.1,2.3,0,3.6-0.1c-2.3,2.2-4,4.6-4.9,7.6c-0.9,2.9-0.9,5.9-0.3,9.1c-0.8-0.7-1,0.1-1.6-0.5
					c-2.7-2.3-5.9-4.8-9-6.6c-5.1-2.9-10.2-6-16.3-5.3c-1.3,0.1-2.6,0-3.8,0.3c0.5,0.7,0.9-0.1,1.6-0.2c4.9-0.7,9.5,1.3,14.1,3.1
					c0.5,0.2,0.6,0.3,0.3,0.8c-1.2,2.9-2.6,5.5-4,8.3c-0.3,0.8,0.2,1.5-0.1,2.3c-0.2,0.6-0.2-0.2,0,0c2.7,2.1,5,5.2,7.7,7.4
					c3.1,2.5,7.9,4,11.8,5.5c1.4,0.6,3,0.9,4.4,1.3c1.3,0.3,0.9,1.4,2.1,2c1.2,0.6,1.4,1.4,0.8,2.5c-0.9,2-2,3.7-3.3,5.4
					c-0.5,0.7-1,0.8-1.9,0.2c-1-0.7-3.6-1.7-4.4-2.6c-3.4-3.6-5.2-6.9-9-10c-3.4-2.8-7.1-5.3-11.1-7.4c-0.7-0.3-1.2-0.2-1.5,0.5
					c-0.3,0.7-0.8,1.3-1.4,1.8c-2.8,3.3-5.8,6.4-9.2,9.2c-0.5,0.3-0.7,0.3-1,0c-0.6-0.6-1.3-1-1.9-1.5c-0.3-0.2-0.7-0.5-1-0.7
					c-0.3-0.1-0.7-0.6-0.9-0.1c-0.3,0.5,0.1,0.8,0.5,1c1,0.8,2.2,1.7,3.3,2.6c3.3,2.9,7.8,5.4,11.3,8.1c4.1,3.1,6.8,4.9,11.3,7.2
					c0.2,0.1,0.6,1.6,0.9,1.7c-5.7,2.6-9.5,7-12,12.8c-0.5-1-0.9-1.8-1.3-2.9c-3.1-7.9-7.1-15.4-12.7-21.9c-1.7-2-3.6-3.9-5.5-5.8
					c-0.1-0.1-0.2-0.2-0.5-0.3c-0.3-0.2-0.6-0.2-0.9,0.1c-0.2,0.2,0,0.5,0.1,0.6c0.6,1.2,1.5,2,2.4,2.9c1,1,1,1-0.2,1.8
					c-3.4,2.1-7.1,3.7-10.9,5.1c-2.6,0.9-5.2,1.8-8,2.3c-0.3,0-0.6,0.1-0.7-0.2c-1.5-2.9-3.1-5.8-4-8.9c-0.7-2.9-0.6-5.8-0.7-8.7
					c0-0.8-0.1-1.6-0.7-2.4c-0.3,0.3-0.5,0.7-0.5,1c-0.1,5.5,0.5,10.8,3,15.9c1,2,2.2,3.7,3,5.8c0.9,2.2,1.6,5.5,1.6,8.1
					c-5.2-3.3-10.7-4.3-16.8-2.5c0.2-1.2,0.8-2,1.4-2.8c0.8-1.2,1.6-2.3,2.6-3.5c1.9-2.4,2.7-5.3,3-8.3c0.5-4.7,0-9.3-1.2-13.8
					c-0.1-0.5,0.3-0.1,0,0c-0.6,0.2,0.2,0.8,0.2,1.3c0.6,2.8,0.9,5.5,1,8.3c0.1,3.1-1.2,5.3-2.2,8.3c-0.3,1-0.9,2.1-1.5,3
					c-0.2,0.3-0.5,0.5-0.9,0.5c-3.4-0.1-6.9-0.5-10.2-0.8c-0.9-0.1-1.7-0.2-2.7-0.3c-0.6,0-0.6-0.2-0.5-0.7c0.7-3.2,1.5-6.4,2.2-9.7
					c0.1-0.3,0.1-0.7,0-1c-0.1-0.2-0.2-0.6-0.5-0.5c-0.3,0-0.5,0.2-0.5,0.6c-0.2,0.9-0.3,2-0.6,2.9c-0.5,2.4-1.2,4.8-1.5,7.4
					c-0.5,3.1-0.5,6.1,0,9.2c0.1,0.9,0.1,1.8,0.2,2.9c-4.2-3.2-8.6-4.4-13.7-3.2c0-0.5,0.3-0.7,0.5-0.9c1.5-2.1,2.9-4.3,4.4-6.4
					c2.1-3.2,3.1-6.8,4-10.5c0.1-0.6,0.2-1.2,0.3-1.7c0-0.2,0.1-0.5-0.2-0.6c-0.2-0.1-0.3,0.1-0.6,0.2c-0.2,0.2-0.2,0.6-0.3,0.8
					c-0.7,2.6-1.2,5.3-2.2,7.8c-0.2,0.6-0.3,0.7-0.9,0.5c-5-2-9.7-4.6-14.1-7.6c-2.6-1.7-5.1-3.6-7.2-5.8c-0.5-0.5-0.5-0.7-0.1-1.2
					c3.3-4.1,7.1-7.8,11.3-11c0.1-0.1,0.3-0.2,0.6-0.5c-0.5-0.3-0.9-0.3-1.3,0c-3.5,2.9-7,5.6-9.9,9.2c-2.4,2.9-4.8,6-5.8,9.7
					c-0.6,2-1,4-1.7,5.9c0,0.1-0.1,0.2-0.2,0.5c-3.4-6-8.7-9.3-15.1-11.6c2.7-1.2,5.1-2.3,7.7-3.3c3-1.2,5.8-2.8,8.1-4.9
					c3.6-3.3,7.1-6.9,10-10.9c0.2-0.3,0.5-0.8,0.6-1.3c-0.5-0.1-0.7,0.1-0.9,0.5c-2.8,3.9-6.4,7-9.8,10.4c-0.5,0.5-0.7,0.5-1.2-0.1
					c-1.4-1.8-2.7-3.8-3.7-5.8c-0.2-0.3-0.1-0.6,0.2-0.7c2.6-0.8,4.2-2.6,5.6-4.8c0.5-0.7,0.9-1.4,1.4-2.2c1.6-2.6,4.1-3.9,7-4.4
					c1.5-0.2,3-0.3,4.7-0.5c0.5,0,1.3,0,1.2-0.5s-0.8-0.6-1.4-0.5c-1.2,0.1-2.3,0.3-3.5,0.5c-0.9,0.1-1.9,0.2-2.7,0.5
					c-2.7,0.5-4.5,2.1-5.9,4.3c-0.2,0.2-0.3,0.6-0.7,1c-0.1-4.5-2.9-8.4-6.2-11.3c2.6,0.2,5.7,1,8.1,1c2.3,0,4.7-0.2,7-0.8
					c0.7-0.1,1.4-0.5,1.7-1.3c-1.2-0.1-2.2,0.2-3.3,0.5c-3.7,0.8-7.4,0.7-11.2,0.5c-2.3-0.1-4.5-0.9-6.8-1.3
					c-0.5-0.1-0.8-0.2-1.3-0.2c-0.9,0.1-0.9-0.5-1-1.2c-0.9-5.2-0.8-10.4-0.2-15.5c0.1-1,0.1-1,1.2-0.8c1.4,0.2,2.7,0.8,4,1.3
					c0.2,0.1,0.5,0.1,0.7,0.2c0.2,0,0.5-0.1,0.6-0.2c0.1-0.2,0-0.3-0.1-0.6c-0.1-0.2-0.5-0.3-0.7-0.5c-4-1.7-8-2.2-12.3-1.2
					c-0.1,0-0.2,0-0.3,0C26.3,96.1,26,96.3,26,95.8z"/>
			</g>
			<path class="st1" d="M197.7,108.5c0,0.2,0,0.6,0,0.8c0,25.7,0,51.2,0,76.9c0,0.7-0.1,0.9-0.9,0.9c-14.9,0-29.8,0-44.7,0
				c-0.2,0-0.6,0-0.9,0c2-0.9,3.6-2.1,5.1-3.5c2.7-2.4,5-5.3,6.1-8.7c0.6-2.1,0.3-2.8-1.4-4c-2.4-1.8-5.1-3.1-7.7-4.7
				c-5-3.1-9.5-6.7-13.8-10.8c-0.3-0.3-0.8-0.8-1.2-1c-0.3-0.2-0.2-0.5,0-0.7c4-3.1,7.4-6.8,10.5-10.7c0.3-0.5,0.6-0.3,0.9-0.1
				c2.3,1,4.4,2.6,6.5,4c5,3.3,9.1,7.5,13.2,11.7c1.2,1.3,2.3,2.5,3.7,3.6c1.2,1,2,1,3.3,0.1c0.5-0.3,0.8-0.7,1-1.2
				c0.9-1.6,1.9-3.1,2.8-4.7c0.8-1.4,0.6-2.1-0.5-3.2c-1.3-1.3-2.9-2-4.5-2.3c-5.4-1.2-9.9-3.8-14.1-7c-2.7-2.1-5.2-4.1-7.9-6.2
				c-0.5-0.3-0.6-0.7-0.2-1.3c1.5-3,3-6,4.4-9.1c0.2-0.5,0.3-0.6,0.9-0.3c3.1,1.5,5.8,3.5,8.4,5.6c1.9,1.6,3.7,3.5,5.9,4.7
				c2,1,3.1,1,4.8-0.5c2.6-2.2,4-5.1,4.7-8.2c0.6-2.8,0.7-5.5-0.6-8.3c-0.3-0.8-0.9-1.4-1.9-1.7c-2.7-0.9-5.4-0.9-8-0.7
				c-3.6,0.3-7.2,0.2-10.7-0.3c-0.5-0.1-0.7-0.2-0.6-0.8c0.6-3.9,1-7.8,1.2-11.7c0-0.5,0-0.7,0.6-0.7c4.7,0,9.3,0,14,0.8
				c3.8,0.7,7.6,1.5,11.2,2.9c0.9,0.3,1.9,0.8,2.7,1.4c1.5,0.9,3.1,1.5,4.9,2c1.4,0.3,2.1,0,2.4-1.4
				C197.4,109.5,197.5,108.9,197.7,108.5C197.6,108.5,197.7,108.5,197.7,108.5z"/>
			<g>
				<path class="st0" d="M67.2,7.5C75,9.2,79.3,9.1,86.8,6.9c-0.2,1.7-0.2,3.3-0.7,4.9c-1,3.5-2.6,6.8-3.4,10.4
					c-0.9,3.7-1.4,7.4-1,11c0.3,3.2,0.9,6.3,1.6,9.4c0.1,0.7,1,1,0.5,1.2c-1.9,0.5-3.8,1.5-5.6,2c-0.5,0.1-2.1,1.3-2.2,0.7
					c-0.8-4.7-2.2-10.8-3-15.4c-0.5-2.5-0.7-3.2-1.7-5.6c-1.3-3.1-3.5-7.6-4.1-10.8C66.6,12.4,67.4,9.8,67.2,7.5z"/>
			</g>
			<g>
				<path class="st0" d="M193.9,111.6c-0.5-0.2-2.3-0.7-2.8-0.9c-4.3-2.8-9.5-4.3-14.5-5.1c-4.5-0.8-9.7-1.7-14.2-1.5
					c-0.8,0-2.1,0-2.6-0.5c-0.5-0.5,0.1-2.2,0.1-3c0-0.6,0.1-1.3,0-1.8c-0.1-0.6,0.7-0.1,1.3,0c1.3,0.2,2.7,0.5,4.1,0.6
					c2.7,0.2,2.8-1.2,3.6-3.8c0.5-1.6,1.9-1.2,3.5-1.3c4.3-0.1,8.5-0.5,12.7-1.3c1.2-0.2,2.6-1.5,3.6-1.8c0.1,0,0.1,0.6,0.2,0.7
					C188.2,98.2,191.1,105.8,193.9,111.6z"/>
			</g>
			<g>
				<path class="st0" d="M8.8,130.9c1.3-3.3,1.5-6.1,0.9-9.3c-0.6-3.3-3-7.4-5.1-10.2c1.5,0.2,3.8,0.3,5.2,0.6
					c3.7,0.6,7.6,2.4,11.3,3c3.8,0.6,7.8,0.1,11.5-0.8c0.2-0.1,0.7-0.5,0.7,0.2c0,0.5,0.6,0.9-0.3,1.3c-2.7,1-4.1,3.1-4.4,5.9
					c-0.1,0.7-0.3,1-1,1.3c-2.4,0.9-4.7,3.6-7,4.9c-3.5,2.1-7.1,3.3-10.9,4.7C9.7,132.2,9.1,130.9,8.8,130.9z"/>
			</g>
			<g>
				<path class="st0" d="M46.6,129.2c0,2.6-1.6,2.5-4,3.7c-1.6,0.7-3.3,0.8-4.9,0.1c-4-1.5-6.8-4.1-7.7-8.3c-0.3-1.5-0.5-3,0-4.5
					c0.7-2.3,2.4-5.5,4.9-5.6c3.4-0.2,7.7,2.9,9.8,5.3C46.6,121.8,46.6,126.5,46.6,129.2z"/>
			</g>
			<g>
				<path class="st0" d="M90.9,41.4c1.2,0,2.2,1.3,3.4,1.7c4.8,1.7,6.1,6.9,2.6,10.6c-1.6,1.8-3.8,2.5-6.3,2.9c-2,0.2-3.8,0-5.6-0.8
					c-3-1.4-4.8-4.7-3.8-7.5c0.3-1.2,0.9-2.1,1.7-3C85.1,43.1,87.9,41.2,90.9,41.4z"/>
			</g>
			<g>
				<path class="st0" d="M169.3,92.8c0,1.6-0.2,2.8-0.9,3.9c-0.9,1.5-2.3,2.1-4,1.3c-2.3-1-3.8-2.9-4.9-5.1
					c-0.9-2.1-1.7-4.1-2.2-6.3c-0.5-2-0.1-3.8,0.6-5.6c0.7-1.7,2.3-2.3,4.1-1.5c1.5,0.6,2.6,1.7,3.5,2.9
					C167.9,85.5,169.2,89.1,169.3,92.8z"/>
			</g>
			<g>
				<path class="st0" d="M171.1,131.5c0-3.7,1.2-7.1,3.5-10.1c0.6-0.7,1.3-1.3,2.1-1.7c1.3-0.7,2.4-0.3,3.1,0.9
					c0.8,1.4,1,2.9,0.9,4.5c-0.1,3.9-1.3,7.5-3.8,10.5c-0.3,0.5-0.8,0.8-1.3,1c-2,1-3.3,0.6-4.1-1.5
					C171.3,133.8,171.2,132.8,171.1,131.5z"/>
			</g>
			<g>
				<path class="st0" d="M20.4,89.5c0.1-2.8,0.6-6,2.2-8.9c0.3-0.6,0.8-1.3,1.3-1.7c0.9-1.2,2.1-1,2.9,0.2c0.8,1.2,1,2.5,1.3,3.8
					c0.5,4.4-0.1,8.5-2.3,12.3c-0.2,0.5-0.6,0.9-1,1.4c-0.9,1-2.1,1-2.9-0.2c-0.7-0.9-0.9-2-1.2-3.1C20.5,92.1,20.5,91,20.4,89.5z"
					/>
			</g>
			<g>
				<path class="st0" d="M158.4,45.1c0.7,0,1.3,0.2,1.9,0.7c4.2,3.2,7.1,7.2,8.6,12.3c0.2,0.8,0.5,1.6,0.3,2.4
					c-0.2,1.2-0.8,1.6-2,1.2c-1-0.3-2-0.9-2.8-1.7c-3.5-3.1-6.2-6.8-7.3-11.3c-0.2-0.8-0.2-1.6-0.1-2.5
					C157.2,45.3,157.7,45.1,158.4,45.1z"/>
			</g>
			<g>
				<path class="st0" d="M9.4,126.3c0,1.6-0.1,2.9-0.6,4.1c-0.5,1.2-1,1.3-2.1,0.5c-1.4-1.2-2.1-2.8-2.8-4.4c-1.2-2.6-1.7-5.4-2-8.3
					c-0.1-1.7,0.1-3.3,0.6-5.1c0.3-1.2,1-1.4,2-0.6c0.8,0.7,1.5,1.6,2,2.5C8.5,118.8,9.3,122.6,9.4,126.3z"/>
			</g>
			<g>
				<path class="st0" d="M43.3,164.1c-1.2,0-2-0.3-2.9-0.7c-4.2-2-7.9-4.7-10.7-8.4c-0.6-0.8-1-1.6-1.4-2.6c-0.2-0.8,0-1.3,0.9-1.2
					c1,0.1,2,0.2,2.9,0.7c4.7,2,8.4,4.8,11.4,8.7c0.3,0.5,0.6,0.9,0.8,1.5C45,163.6,44.8,164.1,43.3,164.1z"/>
			</g>
			<g>
				<path class="st0" d="M36.3,43.5c0.1-2.2,0.8-3.5,1.6-4.7c2.2-3.7,5.2-6.4,9.3-7.9c1.5-0.6,2.2,0,2.1,1.6c-0.1,1-0.5,2.1-1,2.9
					c-2,3.5-4.5,6.3-8,8.3c-0.6,0.3-1.2,0.6-1.7,0.8C37,44.8,36.3,44.3,36.3,43.5z"/>
			</g>
			<g>
				<path class="st0" d="M161,174.2c-0.1,0.8-0.5,1.7-0.9,2.8c-1.5,3-3.7,5.3-6.1,7.6c-1.3,1.2-2.7,1.7-4.3,2.1
					c-0.9,0.2-1.4-0.2-1.4-1.2c0-0.9,0.2-1.8,0.6-2.6c1.9-3.7,4.3-6.9,7.8-9.1c0.7-0.5,1.5-0.9,2.3-1.2
					C160.4,172.1,160.8,172.5,161,174.2z"/>
			</g>
			<g>
				<path class="st0" d="M116.8,20.6c0.5,0,1.2,0.2,1.7,0.5c3.5,1.6,6.8,3.7,9.3,6.6c1.2,1.3,2.3,2.6,2.9,4.3
					c0.1,0.5,0.3,0.9-0.1,1.3c-0.5,0.3-0.9,0.5-1.5,0.3c-5.1-1.6-9.2-4.8-12.5-9c-0.6-0.7-1-1.5-1.3-2.3
					C115,21,115.5,20.5,116.8,20.6z"/>
			</g>
			<g>
				<path class="st0" d="M105,180.5c-3.3-0.1-6.4-0.7-9.2-2.3c-0.5-0.2-0.9-0.6-1.3-0.9c-0.8-0.7-0.7-1.6,0.1-2.3
					c0.9-0.7,2.1-0.7,3.3-0.8c3.8-0.5,7.4,0.2,10.8,2c0.7,0.3,1.3,0.9,1.9,1.6c0.5,0.7,0.5,1-0.2,1.5c-1.4,1-3.1,1.3-4.8,1.4
					C105.3,180.5,105.2,180.5,105,180.5z"/>
			</g>
			<g>
				<path class="st0" d="M77.4,181.2c-2.8-0.2-5.6-0.7-8-2.5c-0.5-0.3-0.8-0.8-1.2-1.3c-0.7-1-0.5-1.8,0.7-2.4
					c1.4-0.7,2.8-0.9,4.3-0.8c3,0.2,5.9,0.9,8.3,2.9c0.7,0.6,1.4,1.2,1.2,2.2c-0.1,0.9-1,1.2-1.9,1.4
					C79.8,181.2,78.7,181.2,77.4,181.2z"/>
			</g>
			<g>
				<path class="st0" d="M195.1,110.6c-1.6-0.8-2.3-2.2-2.9-3.7c-1.9-4.1-2.9-8.4-2.7-12.9c0-0.7,0.1-1.3,0.3-2c0.3-1,0.9-1,1.6-0.2
					c0.9,1.2,1.6,2.4,2.2,3.7c1.9,4.3,2.4,8.9,2.2,13.5C195.6,109.6,195.3,110.2,195.1,110.6z"/>
			</g>
			<g>
				<path class="st0" d="M79.4,4.1c1.4,0,2.8,0,4.2,0c0.9,0,1.7,0.2,2.6,0.7c0.2,0.1,0.6,0.2,0.5,0.6c0,0.3-0.3,0.3-0.6,0.5
					c-1.6,0.7-3.4,1.2-5.1,1.3c-3.3,0.3-6.5,0.2-9.8,0.1c-0.9,0-1.9-0.2-2.8-0.6c-0.2-0.1-0.7-0.2-0.7-0.6c0-0.2,0.3-0.3,0.6-0.5
					c1.6-1,3.5-1.3,5.4-1.5C75.4,4,77.4,4,79.4,4.1z"/>
			</g>
			<g>
				<path class="st0" d="M197.2,107.9c0-0.3,0-0.8,0-1.2c0,0,0,0,0.1,0C197.3,107.2,197.3,107.6,197.2,107.9
					C197.2,108,197.2,108,197.2,107.9z"/>
			</g>
			<g>
				<path class="st0" d="M26.4,95.8c0.1,0.2,0.3,0.1,0.6,0.2c-0.2,0.1-0.5,0.2-0.7,0.1C26.2,96.1,26.3,95.9,26.4,95.8z"/>
			</g>
		</g>
	</g>
	<path d="M45.7,141.6c-1.6-2.5-4.7-4.6-5.6-7.4c-6.4-1-9.9-4.9-11.3-11c-2.6,0.8-4.9,2.1-7.2,3.5c-3.4,2.1-7,3.9-10.8,5.1
		c-0.3,0.1-0.7,0.2-1.2,0.3c-1.3,0.3-2.3,0-3.4-0.8c-1.4-1.3-2.1-2.9-2.9-4.6c-1.5-3.5-2.1-7.2-2.1-10.9c0-1.2,0.1-2.3,0.7-3.3
		c0.7-1,1.3-1.4,2.4-1.2s2.2,0.2,3.1,0.3c3.5,0.6,7.2,1.2,10.7,1.8c4.7,0.7,9.4,0.8,14.1-0.3c0.5-0.1,0.8-0.2,1.4-0.5
		c-0.7-5.1-0.7-10.1,0.1-15.3c-1.6-0.2-3.1-0.2-4.7,0.1c-1.7,0.3-3.4,0.7-5,1c-1.2,0.2-2-0.2-2.7-1c-0.6-0.7-0.8-1.5-1.2-2.3
		c-0.7-2.4-0.7-4.9-0.5-7.5c0.2-2.4,0.9-4.6,2-6.9c0.6-1.2,1.2-2.1,2.2-2.9c0.9-0.7,2.2-0.7,3,0c1.3,1,2.7,2.1,4,3.2
		c1.5,1.3,2.9,2.8,4.4,4c0.2,0.2,0.6,0.5,0.9,0.7c3.4-10.6,9.2-19.3,17.3-26.8c-0.2-0.3-0.3-0.6-0.5-0.7c-3.6-3.5-7.3-7-11.5-9.7
		c-1.4-0.8-2.8-1.6-4.2-2.4c-2-1.2-2.2-2.1-1.5-4.3c0.7-2.4,2.2-4.5,4-6.2c1.2-1.3,2.4-2.5,3.8-3.6c1.2-0.9,2.6-1.7,4.1-1.8
		c0.9-0.1,1.7,0.2,2.3,0.9c2.4,3,3.4,6.4,4.1,10c0.7,4.3,2.2,8.1,4.7,11.6c0.2,0.5,0.6,0.7,0.8,1.2c3.8-2.6,7.9-4.8,12.2-6.7
		c-0.3-1.5-0.7-3-1-4.4c-0.9-3.3-1.5-7-2.9-10.2c-0.7-1.4-1.3-2.9-2-4.3c-0.6-1.2-1.4-2-2.6-2.6c-0.6-0.3-1.2-0.7-1.7-0.9
		c-0.9-0.7-1.3-1.7-1-2.9c0.3-1.3,1.2-2.1,2.2-2.8c1.2-0.7,2.4-0.9,3.7-1c0.3,0,0.6-0.1,0.8-0.1c-0.3-1.8-0.7-3.6-0.8-5.4
		c0-1.6,0-3.5,0-5.2c0-1,0.6-1.8,1.6-2.1c1.7-0.5,3.4-0.9,5.2-1.3c3.1-0.5,6.2-0.5,9.3-0.1c1.2,0.1,2.4,0.3,3.6,0.6
		c0.9,0.2,1.3,0.8,1.2,1.8c-0.1,0.7-0.1,1.3,0,2c0.1,2.9-0.7,5.5-1.7,8.2c-2.3,5.5-3.5,11.3-3,17.3c0.2,2.8,0.8,5.4,1.3,8.2
		c0.1,0.3,0.2,0.7,0.3,0.9c1.6-0.5,3.1-0.9,4.7-1.3c2-0.5,4.1-0.1,6.1,0.7c0.6,0.2,1,0.5,1.6,0.5c4,0,7.9,0.3,11.9,1
		c0.1,0,0.2,0,0.2,0c0-1.2-0.1-2.3,0-3.6c0.3-3.1,0.7-6.2,1-9.3c0-0.3,0.2-0.7,0.3-0.9c1.3-2.9,2.4-5.8,4.3-8.4c0.5-0.7,1-1,1.9-0.9
		c1.2,0.2,2.4,0.3,3.5,0.8c4.4,2,8,4.9,10.7,9c0.6,0.7,0.7,1.6,1,2.4c0.3,0.7-0.1,1.4-0.6,2c-1.7,2-4,3.2-6.4,4.1
		c-3.4,1.4-5.8,3.8-7.6,7c0.5,0.2,0.7,0.5,1,0.6c3.6,1.3,7.1,3,10.5,4.7c1.3,0.7,2.6,1.7,3.7,2.5c2,1.4,3.8,2.9,5.9,4.1
		c2,1.3,3.4,3,4.9,4.6c0.5,0.6,0.9,0.9,1.5,1.6c1.4-2,2.8-3.6,4.1-5.4c2-3.1,4.1-6.2,6.1-9.3c0.6-0.7,0.8-1.6,0.8-2.5
		c0.1-1.8,1.5-2.5,3.4-2c2.1,0.7,3.8,2.1,5.2,3.9c2.3,2.9,4.4,6,5.4,9.6c0.2,0.9,0.2,2,0.2,3.1c0,0.9-0.7,1.5-1.5,1.7
		c-1.6,0.5-3.3,0.8-4.9,0.7c-3.4-0.2-6.5,0.7-9.5,2.3c-1.4,0.7-2.8,1.6-4.2,2.3c-0.3,0.2-0.6,0.5-0.7,0.6c2.2,3.9,4.4,7.7,6.6,11.6
		c0.8-1.4,2.4-1.5,3.8-2c1.3-0.5,2.7,0,3.8,0.7c2.6,1.7,4.1,4.1,5.2,6.8c1,2.3,1.5,4.8,1.7,7.5c1.6,0,3.3,0.1,4.8,0
		c2.8-0.2,5.6-0.5,8.4-0.9c2.1-0.5,4.2-1.2,6.2-1.8c0.7-0.2,1.2-0.2,1.6,0.2c0.7,0.7,1.3,1.4,1.9,2.2c0.7,1.2,1.2,2.4,1.7,3.8
		c0.9,3,1.9,6,2,9c0.1,1.4,0,2.8-0.3,4c-0.3,1.4-1,1.8-2.4,1.4c-1.4-0.5-2.9-0.8-4.1-1.6c-4.1-2.5-8.7-3.5-13.3-4.5
		c-5.1-1-10.2-1-15.5-1c-0.1,0-0.2,0-0.5,0.1c-0.1,2.2-0.2,4.4-0.5,6.6c-0.2,2.1-0.6,4.3-0.8,6.4c1.3,0.5,2.8,0.5,4.2,0.7
		c3.6,0.5,7.3-0.2,10.8-0.2c1.5,0,3,0.5,4.5,0.8c0.8,0.2,1.5,0.8,1.7,1.6c0.5,0.9,0.8,2,0.9,3.1c0.3,3.9-0.6,7.6-2.7,10.9
		c-0.8,1.4-2,2.4-3.4,3.3c-1,0.7-2.2,0.6-3.4-0.1c-2.4-1.3-4.5-3.3-6.5-5.1c-2.7-2.3-5.6-4.4-8.7-5.8c-1.7,3.6-3.4,7.1-5.1,10.5
		c2.7,2.1,5.4,4.4,8.1,6.4c1.6,1.3,3.4,2.3,5,3.5c2.9,2,6.2,3,9.5,3.8c1.6,0.5,3.3,0.9,4.4,2.2c1,1,1.2,1.8,0.6,3.1
		c-0.9,1.7-1.9,3.3-2.9,4.8c-0.3,0.6-0.7,0.9-1.3,1.3c-1.2,0.7-2,0.7-2.9-0.2c-1.2-1-2.3-2.2-3.4-3.3c-3.8-4-7.7-8.2-12.3-11.3
		c-2.4-1.7-4.8-3.6-7.6-4.8c-0.2-0.1-0.5-0.2-0.7-0.3c-3.3,4.3-6.9,8.2-11.3,11.5c1.5,1.4,2.9,2.6,4.3,3.9
		c4.4,3.9,9.1,7.2,14.1,10.1c2,1,3.8,2.2,5.6,3.6c0.7,0.7,0.9,1.5,0.7,2.4c-0.3,2-1.2,3.5-2.2,5.1c-1.6,2.4-3.5,4.5-5.9,6.1
		c-0.7,0.6-1.5,1-2.2,1.5c-0.7,0.3-1.4,0.6-2.1,0.7c-0.9,0.1-1.6-0.5-2-1.3c-0.2-0.6-0.6-1-0.7-1.6c-0.7-1.4-1.5-2.8-2-4.1
		c-3.1-7.6-7.1-14.6-12.6-20.8c-0.3-0.5-0.7-0.7-0.8-1c-3.5,1.7-6.8,3.5-10.1,4.8c-3.4,1.4-7.1,2.3-10.4,3.3c0.6,2,1,3.8,1.5,5.9
		c0.2,1.4,0.1,2.8,0.2,4.1c0,0.5-0.1,0.7,0,1.2c0.1,1.2-0.3,2-1.4,2.3c-1.2,0.5-2.3,0.8-3.5,0.9c-3.5,0.3-7-0.1-10.2-1.6
		c-1-0.5-2-1-2.8-2c-0.6-0.6-0.7-1.2-0.7-2c0.5-2,0.9-3.7,2.1-5.3c0.6-0.7,1-1.5,1.7-2.3c-4.5-0.5-8.8-0.9-13.3-1.4
		c-0.5,1.6-0.3,3.2-0.2,4.7c0.1,1.6,0.3,3.3,0.3,4.8c0,0.9,0,2-0.2,2.9c-0.2,1.3-1.2,2-2.2,2.2c-1.6,0.6-3.3,0.7-4.9,0.5
		c-2.4-0.2-4.7-0.9-6.9-2.1c-1-0.6-2-1.4-2.4-2.4c-0.3-0.7-0.2-1.5,0.1-2.2c1.2-2.8,2.6-4.9,4.4-7.2c0.8-1.2,1.5-2.8,2.4-4
		c-8.4-3.5-15.5-7.6-21.9-13.9c-0.9,1.2-1.9,2.4-2.4,3.8c-0.7,1.7-1.3,3.5-2,5.3c-0.7,1.7-1.3,3.3-2,4.9c-0.3,0.7-1.3,1.2-2.2,0.9
		c-1.3-0.3-2.7-0.7-3.8-1.2c-3.7-2-7.2-4.3-9.9-7.5c-0.7-0.7-1.3-1.7-1.7-2.5c-0.8-2-0.5-2.6,1-3.7c1.2-0.8,2.4-1.5,3.7-2
		c2-0.9,4.2-1.8,6.3-2.5c2-0.7,3.7-1.8,5.5-3.1C45.5,141.8,45.6,141.7,45.7,141.6z M99.4,144.3c0.1,0,0.2,0,0.3-0.1
		c0.1,0.3,0.3,0.6,0.5,0.8c0.2,0.9,0.5,2,0.7,2.9c0.7,4.1,1,8.2,0.5,12.3c-0.3,2.2-0.9,4.4-2.1,6.1c-1,1.5-2.1,3-3.3,4.5
		c-0.6,0.8-1.2,1.7-1.4,2.8c6.1-1.6,11.4-0.8,16.8,2.6c-0.1-1.4-0.2-2.5-0.5-3.7c-0.6-3.2-1.9-6-3.4-8.6c-3.4-5.4-4-11.3-3.8-17.4
		c0-0.2,0.2-0.5,0.5-0.9c0.6,0.7,0.7,1.4,0.7,2c0.1,2,0.1,3.8,0.2,5.9c0.3,4.6,2.4,8.5,4.7,12.4c6.3-0.8,17.9-5.9,20.5-8.2
		c-1.2-1.5-2.9-2.5-3.6-4.4c0.7-0.5,0.9-0.1,1.3,0.2c1.2,1.3,2.2,2.5,3.4,3.7c2.9,2.9,5.4,6,7.4,9.3c2.9,4.7,5.6,9.7,7.3,15
		c0.3,0.7,0.7,1.5,1.2,2.4c2.4-5.9,6.2-10.1,12-12.8c-0.9-0.6-1.9-1-2.7-1.5c-4.5-2.2-8.6-5.2-12.6-8.3c-4-3.1-7.3-6.8-11.4-9.8
		c-0.3-0.2-0.5-0.6-0.7-0.8c0.1-0.1,0.2-0.2,0.2-0.3c1.9,0.5,2.9,2,4.4,2.9c3.3-2.5,6.2-5.4,8.7-8.6c0.8-1,2-2,2.3-3.2
		c0-0.2,0.7-0.3,0.9-0.2c0.2,0,0.6,0.3,0.7,0.5c5.4,2.9,10.1,6.4,14.4,10.6c2.4,2.3,4.7,4.7,7,7.2c0.7,0.7,1.5,1.3,2.2,1.8
		c0.9,0.7,1.6,0.6,2.2-0.5c1-1.5,2-3.1,2.9-4.7c0.7-1.5,0.6-2.3-0.9-3.1c-1.2-0.7-2.3-1-3.6-1.4c-4.7-1.2-8.7-3.2-12.6-6
		c-3.4-2.5-6.8-5.2-10.1-7.8c-0.3-0.2-0.1-0.2-0.2-0.3c0.3-0.7,0.7-1.5,0.8-2c0.9-1.8,2-3.6,2.8-5.4c0.7-1.3,1-2.6,1.7-4
		c-2.2-0.9-4.3-1.7-6.4-2.1c-2.6-0.6-5.1-0.7-7.7-0.3c-0.7,0.1-1.4,0.1-2-0.7c0.7-0.1,1.2-0.2,1.7-0.2c2.3-0.1,4.8-0.3,7.2-0.1
		c2.9,0.2,5.5,1.4,8.1,2.4c2.1,0.8,4.1,2.1,6.1,3.5c2.2,1.7,4.3,3.6,6.4,5.4c0.3,0.3,0.7,0.7,1.2,0.9c-1.2-6.6,0.3-12.1,5.2-16.6
		c-1,0-2-0.1-2.9,0c-2.8,0.2-5.5,0.5-8.3,0.3c-2.8-0.1-5.5-0.6-8.1-1c-2.4-0.5-4.9-0.9-7.3-1.5c-1.2-0.2-2.3-0.5-3.5-0.7
		c-1.3-0.3-2.4-0.7-3.7-1.2c-0.2-0.1-0.6-0.2-0.7-0.3c0.2-0.6,0.7-0.6,1-0.5c0.9,0.2,2,0.3,2.9,0.6c4.2,0.8,8.3,1.8,12.5,2.8
		c0.3,0.1,0.7,0.1,1.3,0.1c0.3-2.6,0.7-5.1,0.9-7.6c0.2-3.3,0.3-6.6-0.1-10c-0.1-1.2-0.1-1.2-1.3-1.4c-4.7-0.9-9.2-1.3-13.8-1.4
		c-2,0-4,0.3-6.1,0.5c-0.2,0-0.6,0-0.7,0c0-0.1-0.1-0.2-0.1-0.5c0-0.1,0-0.2,0-0.5c2.7-0.7,5.4-0.7,8-0.7c2.8,0.1,5.5,0.3,8.3,0.7
		c2.7,0.3,5.2,0.8,7.9,1.4c-2.2-2.3-3.8-5.1-4.7-8.2c-0.8-3-1.3-6-0.2-9.2c-3.3,2.5-6.2,5.3-9.9,7c-3.6,1.7-7.4,3-11.5,3.8
		c-0.1-0.3-0.2-0.7-0.3-0.9c7.3-1.6,14.2-4.3,19.7-9.4c-1.9-4.1-4-8.1-6.6-11.6c-5.9,3.6-9.7,9-14,14.3c0-0.6-0.1-0.8,0-1
		c0.1-0.3,0.3-0.6,0.5-0.7c1.7-2.1,3.4-4.3,5-6.2c1-1.3,2-2.4,3.3-3.5c3.4-3,7.2-5.3,11.3-7.2c3.1-1.5,6.3-2.4,9.9-2
		c0.6,0.1,1-0.1,1.6-0.1c-2.3-1.6-4.2-3.6-5.8-5.9c-1.6-2.2-2.9-4.6-3.7-7.4c-0.2,0.1-0.3,0.2-0.3,0.2c-2,3.1-3.7,6-5.8,9.1
		c-2.8,4.3-6.1,8.1-10.2,11c-1.5,1-2.9,2.3-4.4,3.5c-0.9,0.7-1.9,1.5-2.8,2.2c-0.6,0.5-1,0.5-1.7,0c4.5-3.6,9.2-6.9,13.5-10.9
		c-1.3-1.3-2.3-2.5-3.6-3.6c-2.3-2-4.8-3.6-7.2-5.5c-3.4-2.9-7.3-5.1-11.4-6.9c-1.7-0.7-3.4-1.4-5.2-2.1c-0.3,0.7-0.6,1.2-0.7,1.7
		c-0.9,3.1-1.5,6.1-1.6,9.3c0,1,0,2.1,0,3.1c0,0.2-0.2,0.6-0.3,0.7c-0.7-0.3-0.7-0.8-0.7-1.4c-0.1-2.4,0.1-4.8,0.6-7.4
		c0.6-2.8,1-5.6,2.8-8.1c2-3.1,4.7-5.5,8.1-6.9c1.3-0.6,2.4-1.2,3.6-1.7c0.5-0.2,0.7-0.6,1-0.8c-6.6-2.2-11.6-6.1-15.2-12.2
		c-0.5,0.9-0.9,2-1.4,2.9c-0.7,2-1.7,3.9-2.1,6c-0.7,3.2-0.9,6.3-0.8,9.7c0.1,2.6,0,5.3,0,8.1c0,0.9,0,2-0.2,3
		c-0.5,2.1-0.8,4.1-1.3,6.1c-0.1,0.7-0.2,1.3-0.5,2c-0.1,0.5-0.1,1-0.8,0.9c-0.6-0.1-0.3-0.7-0.2-1c0.2-0.7,0.3-1.4,0.6-2.1
		c0.6-2.5,1.4-5.2,1.4-7.8c0-1.2,0-2.2,0-3.3c0-0.7,0.1-1.5,0.2-2.3c-3.8-0.7-7.4-1.3-11.5-1c0.6,0.7,0.8,1,1.3,1.4
		c1.9,2,2.2,5.1,0.7,7.6c-0.5,0.7-0.8,1.2-1.3,1.8c-0.7,1.4-1.6,2.6-2.2,4c-0.5,0.9-0.6,2-0.5,3.2c0.3,2.4,0.9,4.6,1.9,7
		c0.1,0.3,0.5,0.7-0.1,0.9c-0.6,0.2-0.7-0.3-0.8-0.7c-0.1-0.2-0.2-0.5-0.3-0.7c-0.5-1.5-0.9-3.1-1.3-4.6c-0.6-2.3-0.6-4.6,0.7-6.9
		c0-0.1,0-0.2,0.1-0.5C93,57.7,90,58,86.6,57c0.3,0.5,0.5,0.7,0.6,0.8c1.2,1.8,1.9,3.7,1.9,5.9c0,3-0.1,6-0.2,8.9v0.1
		c-0.1,0.2-0.3,0.7-0.5,0.7c-0.5,0-0.6-0.3-0.6-0.7c0-1.6,0.1-3.1,0.1-4.6c0-2,0.2-3.9,0-5.9c-0.3-3-2.1-5.1-4.4-7
		c-2.9-2.4-3.5-6.2-1.5-9.3c0.1-0.2,0.3-0.6,0.7-0.9c-2.2,0.7-4.3,1.2-6.4,1.8c-0.7-3.6-1.3-7.1-1.9-10.6c-0.5-2.4-0.7-4.9-1.6-7.4
		c-0.5-1-0.8-2.1-1.3-3.2c-0.7-2-1.6-3.8-2.2-5.8c-0.2-0.7-0.7-0.8-1.3-0.8c-1.4,0.1-2.8,0.5-4,1.2c-0.6,0.5-1,0.9-1.4,1.5
		c-0.7,0.9-0.3,1.8,0.7,2.4c0.5,0.3,0.8,0.6,1.4,0.7c1.5,0.7,2.4,1.7,3.1,3.2s1.3,3,2,4.5c1.4,3.3,2,7,2.9,10.4
		c0.3,1.3,0.6,2.6,0.8,3.9c0.2,0.8,0.3,0.9-0.5,1.2c-3.5,1.3-6.8,3.1-9.9,5.1c-0.7,0.6-1.6,1-2.4,1.6c0.8,1,1.6,2.1,2.4,3.1
		c1.2,1.4,2.4,2.6,3.7,3.9c0.2,0.3,0.7,0.7,0.3,0.9c-0.5,0.5-0.7,0-1-0.3c-0.5-0.5-0.8-0.9-1.3-1.4c-2.1-2-4-4.4-5.6-6.8
		c-2-3.1-3.7-6.3-4.7-10c-0.6-2.2-0.9-4.5-1.5-6.7c-0.5-1.6-0.8-3.1-2-4.5c-2.2,5.9-6.2,10-12,12.7c1.3,0.7,2.6,1.3,3.7,2
		c4.9,3.2,9.3,7,13.2,11.3c2,2.1,3.4,4.5,5.1,6.7c0.2,0.3,0.5,0.7,0.5,0.9s-0.1,0.5-0.2,0.7c-0.2-0.1-0.6-0.1-0.7-0.2
		c-0.2-0.2-0.3-0.6-0.6-0.7c-1.6-2.5-3.5-4.7-5.5-7c-7.8,6.6-15,17-17.7,26.7c1,0.6,2.1,1.2,3.4,1.7c1.2,0.6,2.3,0.8,3.5,1.3
		c0.5,0.1,0.9,0.2,0.8,1c-0.5-0.1-0.9-0.1-1.4-0.2c-4.4-1.2-8-3.6-11.2-6.9c-0.8-0.9-2-1.8-3.3-2.9c1.2,6,0.6,11.3-2.6,16.6
		c0.5-0.1,0.8-0.1,1.2-0.2c4.2-1,8.1-0.7,12,1c0.3,0.1,0.7,0.2,0.8,0.5c0.1,0.1,0.2,0.5,0.2,0.6c-0.1,0.1-0.3,0.3-0.6,0.3
		c-0.3,0-0.7-0.2-0.9-0.3c-1.5-0.6-3-1-4.7-1.3c-0.7,6-0.8,11.9,0.3,17.5c1.5,0.2,2.8,0.5,4.1,0.7c0.9,0.2,1.9,0.6,2.8,0.7
		c0.8,0.1,1.7,0.2,2.6,0.2c4.1,0.5,8.1,0.3,12.1-0.7c0.6-0.1,1-0.1,1.7-0.1c-0.7,0.8-0.7,0.8-1.5,1c-4.1,1-8.3,0.9-12.3,0.7
		c-0.7-0.1-1.5-0.1-2.4-0.2c3.5,2.9,5.6,6.3,5.6,10.7c0.2-0.2,0.5-0.6,0.6-0.7c1.4-2.3,3.3-4,5.9-4.6c2.1-0.5,4.3-0.7,6.4-0.9
		c0.5,0,0.8,0.2,1.3,0.3c0,0.1,0,0.2,0,0.3c-0.5,0.1-0.8,0.3-1.3,0.3c-1.4,0.1-2.8,0.2-4.2,0.5c-3,0.5-5.5,1.6-7.2,4.1
		c-0.9,1.5-1.9,2.9-2.9,4.3c-0.5,0.7-0.9,1.3-1.6,1.7c-0.9,0.7-2,0.9-3.1,1.5c1.3,2.3,2.7,4.6,4.5,6.8c0.2-0.2,0.5-0.2,0.6-0.3
		c2-2,3.8-3.7,5.8-5.6c1.4-1.5,2.7-3.1,4-4.6c0.2-0.3,0.5-0.7,1-0.7c-0.1,0.3-0.2,0.7-0.3,0.8c-0.6,0.7-0.9,1.5-1.6,2.2
		c-1.6,1.8-3.4,3.7-5,5.5c-3.3,3.5-6.5,6.3-10.8,8.1c-2.6,0.9-5.7,2.5-8.3,3.7c-0.2,0.1,5.6,2.3,8.3,4.3c2.7,2,5,4.4,6.8,7.5
		c0.7-2,1.3-3.5,1.6-5.2c0.8-3.8,3.1-6.9,5.4-9.9c1.7-2.3,4-4.3,6.1-6.2c1.4-1.3,2.9-2.4,4.3-3.6c0.3-0.3,0.7-0.7,1.5-0.2
		c-4.7,3.6-8.7,7.5-12.2,12.1c4.7,5.3,17.1,12.3,22.5,14c0.5-1.3,0.9-2.4,1.3-3.7c0.5-1.6,0.7-3.2,1.2-4.7c0.1-0.5,0.1-1,0.9-1.2
		c0,0.3,0.1,0.7,0,0.9c-0.1,0.6-0.2,1-0.3,1.6c-0.7,3.8-2,7.4-4.2,10.6c-1.3,1.8-2.3,3.7-3.7,5.5c-0.3,0.5-0.6,0.8-0.9,1.4
		c5.4-1.3,9.7-0.1,13.8,3.2c-0.1-1.3-0.2-2.4-0.3-3.5c-0.5-3.3-0.3-6.6,0.3-9.9c0.3-1.8,0.8-3.5,1.2-5.3c0.2-1.2,0.5-2.2,0.7-3.3
		c0.1-0.5,0.2-0.7,0.7-0.7c0.2,0.1,0.3,0.6,0.5,0.8c0,0.1,0,0.2,0,0.2c-0.6,2.1-0.9,4.3-1.5,6.3c-0.3,1.4-0.7,2.8-0.9,4.4
		c4.8,0.7,9.4,1.2,14.1,1.3c2-2.9,2.8-6,2.9-9.3c0.1-3.9-0.3-7.8-1-11.6C99.3,145.4,99.4,144.8,99.4,144.3z M67.2,7.9
		c0.2,2,0.2,3.9,0.6,5.9c0.2,1.6,0.7,3.1,1.2,4.6c1,2.9,2.3,5.6,3.5,8.5c0.6,1.3,1,2.5,1.4,3.9c0.7,3.8,1.4,7.7,2.1,11.6
		c0.2,1.2,0.3,2.2,0.6,3.5c2.3-0.7,4.7-1.3,7-2c-0.1-0.2-0.1-0.5-0.1-0.7c-0.7-3.1-1.3-6.2-1.6-9.3c-0.6-5.4,0.6-10.6,2.3-15.6
		c0.7-2,1.5-4.1,2.1-6.1c0.5-1.5,0.5-3.1,0.7-4.7c-3.1,1.4-6.4,1.6-9.7,1.8C73.9,9.3,70.6,9.2,67.2,7.9z M160.4,103.4
		c1.5-0.1,2.8-0.2,4.1-0.2c4.5-0.1,9,0.6,13.4,1.4c4.5,0.8,8.7,2.2,12.7,4.6c0.6,0.3,1.2,0.6,2,0.9c-3.1-6-4.7-11.9-3.8-18.3
		c-1.3,0.5-2.4,0.9-3.7,1.3c-3.4,0.7-7,1.2-10.5,1.3c-1.4,0.1-2.8,0.1-4.2,0.1c-0.2,0.7-0.3,1.2-0.5,1.6c-0.8,2.8-2.4,3.7-5.4,3.3
		c-1.4-0.2-2.8-0.5-4.3-0.7C160.1,100.3,160.3,101.7,160.4,103.4z M34,115.3c-0.1-0.6-0.2-1-0.3-1.5c-0.3,0.1-0.7,0.1-0.8,0.2
		c-4.2,1-8.5,1.4-12.8,0.7c-2.9-0.6-5.8-0.9-8.7-1.5c-1.6-0.3-3.4-0.6-5.2-0.9c0.1,0.2,0.1,0.3,0.1,0.5c3.1,4.1,4.2,8.7,4.5,13.8
		c0.1,1.7-0.2,3.3-0.8,4.9c0.5-0.1,0.7-0.2,1-0.3c2.2-0.9,4.5-2,6.6-3.1c2.8-1.4,5.4-3.1,8-4.6c1-0.6,2.1-0.9,3.3-1.4
		C29.1,118.8,30.5,116.4,34,115.3z M40.3,133.2c0.5-0.1,1-0.1,1.6-0.2c2.4-0.7,4.1-2.9,4.1-5.6c0.1-3.7-1.5-6.7-4.2-9
		c-1.6-1.4-3.4-2.2-5.6-2.3c-2.7-0.1-5.2,1-6.1,4c-0.5,1.4-0.3,2.8-0.1,4.1c0.3,2.2,1.5,4.1,3.1,5.8
		C35.1,131.8,37.2,133.2,40.3,133.2z M89.7,56.6c1.6-0.1,3-0.3,4.4-0.8c2.3-0.9,4-2.5,4.8-4.9c0.8-2.3,0-4.7-2-6.4
		c-1.4-1.2-3.4-1.7-4.5-2c-2,0-3.4-0.6-6.8,0.8c-0.1,0.1-1.7,1.2-2.8,2.3c-1.9,2-2.3,5.2-0.5,7.6C84.4,55.8,86.9,56.5,89.7,56.6z
		 M169,93.1c-0.2-4.1-1.5-7.6-4-10.7c-0.8-1-1.7-2-3-2.5c-2-1-3.8-0.3-4.7,1.8c-0.3,0.8-0.5,1.8-0.6,2.8c-0.2,1.7,0.2,3.3,0.8,4.8
		c0.7,1.7,1,3.5,2,4.9c1,1.6,2.3,3.1,4.2,3.9c1.9,0.8,3.4,0.3,4.2-1.4C168.9,95.5,169,94.2,169,93.1z M180.6,124.9
		c0-1.5-0.3-3.2-0.7-4.1c-0.8-1.7-2.1-2.1-3.7-1.2c-0.7,0.5-1.3,0.8-1.9,1.5c-2.7,3.5-3.8,7.5-3.4,11.9c0.1,0.8,0.5,1.7,0.7,2.4
		c0.6,1.2,1.6,1.6,2.8,1.3c0.9-0.2,1.7-0.7,2.3-1.5C179.5,132.2,180.4,128.7,180.6,124.9z M28.5,85.4c0-0.7,0-1.4-0.1-2.1
		c-0.2-1.3-0.5-2.6-1-3.7c-0.9-1.7-2.2-1.8-3.4-0.3c-0.8,1-1.6,2.2-2,3.6c-0.8,2.6-1.3,5.3-1.2,8.1c0.1,1.8,0.2,3.5,1,5.1
		c0.9,1.8,2.3,2,3.5,0.3c0.7-0.7,1-1.7,1.5-2.5C27.9,91.2,28.4,88.5,28.5,85.4z M169,60.2c-0.1-0.3-0.1-0.8-0.2-1.3
		c-0.6-2.5-1.9-4.7-3.3-7c-1.5-2.3-3.5-4.3-5.8-6c-0.6-0.5-1.3-0.6-2-0.6c-0.6,0-0.8,0.3-1,0.9c-0.2,1.2-0.1,2.2,0.2,3.3
		c1.2,3.7,3.3,6.8,6.1,9.6c1,1,2.2,2.1,3.6,2.6C168.2,62.5,169,61.9,169,60.2z M9.9,127.1c-0.1-4.3-0.9-7.9-2.7-11.3
		c-0.6-1-1.2-2-2-2.9c-1-1-2-0.8-2.3,0.6c-0.3,1.4-0.6,2.8-0.6,4.3c0,1.5,0.3,3,0.7,4.5c0.7,2.9,1.6,5.5,3.4,7.9
		c0.3,0.5,0.8,0.8,1.3,1.2c0.6,0.3,1,0.2,1.4-0.3c0.2-0.3,0.5-0.7,0.6-1.2C9.8,128.7,9.8,127.7,9.9,127.1z M43.1,163.8
		c1.9,0,2.2-0.6,1.7-1.8c-0.3-0.7-0.7-1.5-1.3-2.1c-3-3.8-6.9-6.7-11.4-8.5c-0.7-0.3-1.6-0.5-2.4-0.6c-1.2-0.1-1.5,0.5-1,1.5
		c0.3,0.7,0.7,1.4,1,2c2.6,3.3,5.9,6.1,9.8,8.1C40.7,163.3,42,163.7,43.1,163.8z M36.5,43.5c0,1.3,0.7,1.8,2,1.5
		c0.7-0.2,1.4-0.5,2-0.8c2.7-1.5,4.8-3.6,6.6-6.1c1-1.5,2-3,2.3-4.6c0.5-2-0.5-2.8-2.2-2c-1.6,0.7-3.1,1.5-4.5,2.5
		c-2,1.5-3.5,3.5-4.8,5.6C37.2,40.8,36.5,42,36.5,43.5z M129.4,34.1c1.4-0.1,1.7-0.6,1.3-1.8c-0.1-0.5-0.3-0.8-0.6-1.2
		c-0.7-0.9-1.4-2-2.1-2.9c-2.8-3-6.1-5.2-9.9-6.9c-0.6-0.2-1.2-0.3-1.9-0.3c-0.9,0-1.4,0.6-1,1.5c0.2,0.7,0.6,1.3,0.8,1.8
		c2.8,3.9,6.4,6.9,10.8,8.9C127.7,33.7,128.5,33.8,129.4,34.1z M160.7,174c0-1.7-0.5-2.1-1.6-2c-0.7,0.1-1.3,0.5-2,0.7
		c-3.5,2-6.1,4.9-8,8.5c-0.7,1-1,2.1-1.2,3.3c-0.1,1.3,0.3,1.7,1.5,1.5c1.3-0.3,2.6-0.7,3.6-1.6c2.6-2.3,4.9-4.7,6.5-7.8
		C160.1,175.7,160.5,174.5,160.7,174z M99.3,173.5c-0.7,0.1-2,0.3-3.4,0.6c-0.9,0.2-1.9,0.7-2,1.6c-0.1,0.9,0.7,1.5,1.5,2
		c1.7,1.2,3.7,1.7,5.8,2.1c2.4,0.5,4.9,0.7,7.4-0.1c0.7-0.2,1.2-0.6,1.7-0.8c0.7-0.6,0.7-0.9,0.2-1.6c-0.5-0.6-0.9-1-1.5-1.4
		C106.3,174.2,103,173.7,99.3,173.5z M72.4,173.8c-0.7,0.1-1.7,0.2-2.7,0.6c-2,0.7-2.2,2-0.8,3.3c0.8,0.8,2,1.6,3.1,2
		c2.4,0.8,4.9,1.4,7.6,0.9c0.8-0.1,1.7-0.5,2.4-0.8c0.8-0.6,0.9-1.3,0.5-2.1c-0.3-0.6-0.8-0.9-1.4-1.4
		C78.7,174.5,75.8,174,72.4,173.8z M194.6,110.8c0.3-0.7,0.7-1.2,0.7-1.7c0.1-1.5,0.1-3,0-4.5c-0.3-3.3-0.9-6.6-2.4-9.7
		c-0.6-1-1.2-2.1-2-3.1c-0.7-0.8-1.3-0.7-1.6,0.3c-0.2,0.7-0.3,1.4-0.3,2.1c-0.1,4.4,0.9,8.6,2.7,12.7c0.5,0.9,1,2,1.6,2.8
		C193.7,110.1,194.1,110.3,194.6,110.8z M67.6,6.8c0,0.1,0,0.2,0,0.3c0.3,0.1,0.6,0.5,0.8,0.5c1,0.2,2.1,0.6,3.3,0.6
		c2.3,0.1,4.7,0.1,7.1,0c2.2-0.2,4.4-0.5,6.6-1.4c0.6-0.2,1-0.2,1.3-0.8c-0.9-0.8-2-1.2-3.1-1.2c-2.3-0.1-4.7-0.2-7.1-0.1
		c-2.6,0.1-5,0.5-7.4,1.3C68.6,6.3,68.1,6.5,67.6,6.8z"/>
	
		<image style="display:none;overflow:visible;enable-background:new    ;" width="213" height="177" xlink:href="6B4F710B.jpg"  transform="matrix(0.1889 0 0 0.1868 -13.7008 0.7576)">
	</image>
</g>
<g id="Ebene_1_1_">
	<path class="st2" d="M148.3,68.9l-6.4,4.9l-3.6,4.9l3.6,10.1l5.6-3.2l8-4.5l-2.9-5.8L148.3,68.9z"/>
	<path class="st2" d="M142.6,96.5c0,0-0.7,7.9-0.6,10.6c0.3,3.6,0.8,6.8,0.8,6.8l8.7,2.3l6.6,1.5l1.3-7.7l0.3-7.2l-0.6-4.5l-8.5-1.4
		L142.6,96.5z"/>
	<path class="st2" d="M152.9,117c0,0,11.2,4,14.1,6.4c1,0.8,3.4,4.5,3.4,4.5l5-9.6h-12.1L152.9,117z"/>
	<path class="st2" d="M144.4,123.2l-1.2,24.3l8.7-11.6l4-9.6l-5.6-2.6L144.4,123.2z"/>
	<path class="st2" d="M174.1,152.9c-2.1-0.7-2.8-0.7-2.9-0.7c-0.2,0.3,0.7,1,1.2,1.5c0.1,0.2,1.5,1.6,2.8,1.2c0.5-0.2,0.9-0.7,0.8-1
		C175.9,153.6,175.5,153.5,174.1,152.9z"/>
	<path class="st2" d="M116.4,46.2l-1.6,6.4l-0.5,7.2c0,0,3.1,5.3,4.7,6.4c3.6,2.5,8.1,2.3,10.7,3.6c1.2,0.7,4.5,3.1,4.5,3.1l8.1-6.3
		l1.9-2.2l-5.8-6.7c0,0-8.8-6-12.8-7.9c-2.1-1-8.7-3.5-8.7-3.5"/>
	<path class="st2" d="M168.9,93.1c-0.2-4.1-1.5-7.6-4-10.7c-0.8-1-1.7-2-3-2.5c-2-1-3.8-0.3-4.7,1.8c-0.3,0.8-0.5,1.8-0.6,2.8
		c-0.2,1.7,0.2,3.3,0.8,4.8c0.7,1.7,1,3.5,2,4.9c1,1.6,2.3,3.1,4.2,3.9c1.9,0.8,3.4,0.3,4.2-1.4C168.9,95.6,168.9,94.2,168.9,93.1z"
		/>
	<path class="st2" d="M97.5,43.5c0,0,1.7,2.3,2,2.9c0.8,2.8,0.9,3.2,0.9,3.2l8,4c0,0,0.3-1.8,0.5-2.6c0.1-1.5,0.1-6.4,0.1-6.4
		s-3.8-0.7-5.7-0.9C101.1,43.4,97.5,43.5,97.5,43.5z"/>
	<path class="st2" d="M90.9,57.5c0,0,0.9,8.2,2.4,10.1c0.6,0.8,3.1,1.2,3.1,1.2s-0.9-3.3-1.3-4.6c-0.2-0.9-0.5-3.6-0.5-4.5
		c0-0.9,0.8-3.7,0.8-3.7L90.9,57.5z"/>
	<path class="st2" d="M50.9,35.3l-1.3,2.6c0,0,2,4.6,2.9,4.4C53.5,41.9,50.9,35.3,50.9,35.3z"/>
	<path class="st2" d="M80.8,44.5c2.3-0.7,0.6,0,2.9-0.7c-0.1-0.2-0.1-0.5-0.1-0.7c-0.7-3.1-1.3-6.2-1.6-9.3
		c-0.6-5.4,0.6-10.6,2.3-15.6c0.7-2,1.5-4.1,2.1-6.1c0.5-1.5,0.5-3.1,0.7-4.7c-3.3,1.4-6.4,1.6-9.8,1.8
		C73.9,9.3,80.5,43.4,80.8,44.5z"/>
	<path class="st2" d="M90.9,56.6c0.9,0,2-0.2,3.3-0.8c2.3-0.9,4-2.5,4.8-4.9c0.8-2.3,0-4.7-2-6.4c-1.4-1.2-2.7-1.5-4.5-2
		C90.1,42.5,89,56.5,90.9,56.6z"/>
	<path class="st2" d="M180.6,124.9c0-1.5-0.3-3.2-0.7-4.1c-0.8-1.7-2.1-2.1-3.7-1.2c-0.7,0.5-1.3,0.8-1.9,1.5c-1,1.3-3,3.8-3.4,7.4
		c0.8,1.4,3.7,3.7,4.3,4.4c1.6,2.2,0.9,3,1.6,2.2C179.5,132.2,180.4,128.7,180.6,124.9z"/>
	<path class="st2" d="M194.7,110.6c0.3-0.7,0.7-1.2,0.7-1.7c0.1-1.5,0.1-3,0-4.5c-0.3-3.3-0.9-6.6-2.4-9.7c-0.6-1-1.2-2.1-2-3.1
		c-0.7-0.8-1.3-0.7-1.6,0.3c-0.2,0.7-0.3,1.4-0.3,2.1c-0.1,4.4,0.9,8.6,2.7,12.7c0.5,0.9,1,2,1.6,2.8
		C193.7,110,194.2,110.2,194.7,110.6z"/>
	<path class="st2" d="M129.4,34.3c1.4-0.1,1.7-0.6,1.3-1.8c-0.1-0.5-0.3-0.8-0.6-1.2c-0.7-0.9-1.4-2-2.1-2.9c-2.8-3-6.1-5.2-9.9-6.9
		c-0.6-0.2-1.2-0.3-1.9-0.3c-0.9,0-1.4,0.6-1,1.5c0.2,0.7,0.6,1.3,0.8,1.8c2.8,3.9,6.4,6.9,10.8,8.9
		C127.8,33.7,128.6,33.9,129.4,34.3z"/>
	<path class="st2" d="M169,60c-0.1-0.3-0.1-0.8-0.2-1.3c-0.6-2.5-1.9-4.7-3.3-7c-1.5-2.3-3.5-4.3-5.8-6c-0.6-0.5-1.3-0.6-2-0.6
		c-0.6,0-0.8,0.3-1,0.9c-0.2,1.2-0.1,2.2,0.2,3.3c1.2,3.7,3.3,6.8,6.1,9.6c1,1,2.2,2.1,3.6,2.6C168.2,62.5,169,61.9,169,60z"/>
	<path class="st2" d="M102.1,79.7c-0.2,0,2.7,5.8,7.6,9.7c5,4,8.7,10.1,9.5,10c2.2-0.3,3.4-1.6,3.1-3.8c-0.1-1.5-0.7-2.8-1.3-4
		c-2.7-4.5-6.4-7.7-11.2-10C108.2,80.9,105.4,79.8,102.1,79.7z"/>
	<path class="st2" d="M88.7,99.4c-0.6,0.2-0.7,1.2-0.5,2.2c0.5,2,1,2.6,0.8,3.7c-0.3,1.3-1.2,2.3-0.9,2.9c0.2,0.5,1,0.7,1.7,0.3
		c1.6-0.7,2.3-3.8,1.4-6.2C90.8,100.5,89.4,99,88.7,99.4z"/>
	<path class="st2" d="M63,79.9c-1,0.1-2.1,2.2-1.7,3.9c0.1,0.2,0.6,1.7,1.9,2c1.5,0.5,3.3-0.9,3.4-2.2c0-0.7-0.7-1.3-2-2.5
		C63.9,80.3,63.4,79.9,63,79.9z"/>
	<path class="st2" d="M82.4,129.7c-1.3,1-1.3,3.6-0.9,4.8c0.7,3.5,5,5.6,5.9,5.1c2.2-1.5-0.2-3-1.4-3.8c-0.7-0.6-2.1-1.6-2.3-2.5
		c-0.3-1.4,0.7-3.1,0.5-3.3C83.7,129.5,82.9,129.2,82.4,129.7z"/>
	<path class="st2" d="M112.4,116c-0.2,0.1-0.5,0.5-0.6,0.7c-0.2,0.9,1.5,2,2.7,2.9c3.7,2.9,5.1,7.4,6.8,7.2c0.8-0.1,1.4-1.7,1.2-2.5
		c-0.8-3.1-4.7-8.2-8.6-8.6C113.4,115.7,112.8,116,112.4,116z"/>
	<path d="M65.8,19.2l4.7,9.3l4.7,18.3l1.4-0.5L73,30l-3.4-8.6c0,0-0.5-2.6-1.4-2.6C66.8,18.6,65.8,19.2,65.8,19.2z"/>
	<path d="M93.9,100.7c0.6,0.7,0.8,2.2,0.8,3.1c-0.1,6.1-3,10.6-3,10.6c-1,1.7-5.4,8.1-12.1,8.3c-1.5,0-3.4,0.2-4.7-0.8
		c-3.8-3.1-0.7-12.3-0.5-12.3c0.1,0-0.8,2.3,0.3,5.3c0.5,1,1.5,2.3,3.5,3c2.1,0.7,4.2,0.2,6.5-1.5c2.6-2,4.1-3.9,4.8-5.1
		c1.7-2.4,2.8-4,2.9-6.2c0.1-2.9-0.8-5.4-0.8-5.4S93.5,100.2,93.9,100.7z"/>
	<path d="M105.1,116.9c0,0-0.7,0.6-1.3,1.7c-1.7,3.7,1.3,9.4,5.7,12.5c3.5,2.4,9.2,3.9,11.8,1.8c1.2-0.9,1.3-3.3,1.3-3.3
		s-1.9,0.7-3.8,0.9c-3.5,0.6-6.6-1.6-7.6-2.3c-0.7-0.6-4.3-3.1-4.9-7.1C105.7,118.5,105.1,116.9,105.1,116.9z"/>
	<path d="M98.9,81.6c0,0-1.9,1.8-2,2c-2,3.2,1.4,9.6,5.9,14.3c5.6,5.8,12.8,7.2,15.9,6.1c0.6-0.2,2-0.7,2.4-2c0.5-1-0.6-2.8-0.6-2.8
		s-0.7,0.2-0.8,0.5c-1.6,1.8-8.4,0.2-13.5-4.1c-2-1.7-6.5-4.9-6.9-9.9C99.4,84.1,98.9,81.6,98.9,81.6z"/>
	<path d="M104.3,152.2c0,0,0.5,5.2,1.2,6.9l3.8,7.2c0,0,6.4-1.8,8.3-2.4c7.2-2.3,12.5-6.4,12.5-6.4l3.4,3.1l5.7-3.5l-2.8-3.9
		c6.1-3.3,6.2-6.1,6.8-5.8c-0.3-0.9-8.3,3.3-26,4.5C109.4,152.4,104.3,152.2,104.3,152.2z"/>
	<path d="M100.8,152.2l0.1,6.3l-0.9,5.4l-2.3,3.6l-7.4-0.7l-6.8-1.2l-0.6,2.6l0.2,5.3c0,0-3-3.3-4.4-4.3c-1.3-0.7-6.1-1.8-6.1-1.8
		l2.1-4.6c0,0-7.3-2.8-10.4-4.6c-2.4-1.6-9.8-6.4-9.8-6.4l-3-2.9l-2.3,3.3c0,0-2.7-0.6-4.5-4.7c-0.6-1.2-4.3-2.6-4.3-2.6l5.2-3.3
		l-3.3-4.3L40,134c0,0-0.1,0.2,3-1c2.3-0.9,4.4-5.2,4.4-5.2l3.5-4.4c4.5-2.3,7.1-1.5,10.2-2.2c6.4,5.4,9.3,9.8,11.4,12.7
		c0.3,0.6,1.6,2.3,3.8,5.4c2.9,4.1,4.4,6.2,4.9,6.8C83.3,148.8,88,152,100.8,152.2z"/>
	<path d="M45.6,68.4c0,0-3.6,5.2-4.7,7c-2.7,4.5-4.1,10.8-4.1,10.8L34.3,84c0,0,0.2,5.8,0.2,7.1c0,1.6-1.2,5.4-1.2,5.4l0.5,0.8
		l-0.2,8.7l0.2,6.6l-5.6,1.5L18.2,114c0,0,2.6,4.6,3.4,6c0.7,1.3,2.1,4.6,2.1,4.6l5.7-2l0.8-3.6l3.8-3.8l6.4,0.8l7.8,0.6l9.7-1.5
		c0,0-14.5-10.5-14.8-16.5c-0.1-2.3,2.8-6.6,3-9C46.8,84.7,45.6,68.4,45.6,68.4z"/>
	<path d="M51.2,87.9c-0.7-0.2-4.2,4.6-4.5,10.6c-0.1,2.1-0.1,3.7,0.8,4.6c2.6,2.4,10.1-1.2,14.5-4.6c0.7-0.6,9.9-8.1,8.1-14.7
		c-0.5-1.8-2.3-3.5-2.3-3.5s0,2.2-0.6,4.6c-0.6,2.3-1.9,4.6-5.2,8.3c-5,5.4-7.3,4.8-8.4,4.8c-0.3,0-1.3,0.1-2.3-1
		C48.8,94.2,51.8,88.2,51.2,87.9z"/>
	<path d="M80.2,137.1c0,0,0.6,2.8,3.4,4.8c1,0.8,6.4,4.8,11.6,2.3c2.9-1.4,5-4.5,5.2-7.5c0.3-5.4-5.1-9.4-5.1-9.3
		c0,0,3.6,2.9,3.4,6.7c-0.1,2.8-2.1,5.2-4.3,6.4c-3,1.6-6.4,0.8-7.4,0.6C82.4,139.9,80.2,137.1,80.2,137.1z"/>
	<path d="M45.7,141.6c-1.6-2.5-4.7-4.6-5.6-7.4c-6.4-1-9.9-4.9-11.3-11c-2.6,0.8-4.9,2.1-7.2,3.5c-3.4,2.1-7,3.9-10.8,5.1
		c-0.3,0.1-0.7,0.2-1.2,0.3c-1.3,0.3-2.3,0-3.4-0.8c-1.4-1.3-2.1-2.9-2.9-4.6c-1.5-3.5-2.1-7.2-2.1-10.9c0-1.2,0.1-2.3,0.7-3.3
		c0.7-1,1.3-1.4,2.4-1.2s2.2,0.2,3.1,0.3c3.5,0.6,7.2,1.2,10.7,1.8c4.7,0.7,9.4,0.8,14.1-0.3c0.5-0.1,0.8-0.2,1.4-0.5
		c-0.7-5.1-0.7-10.1,0.1-15.3c-1.6-0.2-3.1-0.2-4.7,0.1c-1.7,0.3-3.4,0.7-5,1c-1.2,0.2-2-0.2-2.7-1c-0.6-0.7-0.8-1.5-1.2-2.3
		c-0.7-2.4-0.7-4.9-0.5-7.5c0.2-2.4,0.9-4.6,2-6.9c0.6-1.2,1.2-2.1,2.2-2.9c0.9-0.7,2.2-0.7,3,0c1.3,1,2.7,2.1,4,3.2
		c1.5,1.3,2.9,2.8,4.4,4c0.2,0.2,0.6,0.5,0.9,0.7c3.4-10.6,9.2-19.3,17.3-26.8c-0.2-0.3-0.3-0.6-0.5-0.7c-3.6-3.5-7.3-7-11.5-9.7
		c-1.4-0.8-2.8-1.6-4.2-2.4c-2-1.2-2.2-2.1-1.5-4.3c0.7-2.4,2.2-4.5,4-6.2c1.2-1.3,2.4-2.5,3.8-3.6c1.2-0.9,2.6-1.7,4.1-1.8
		c0.9-0.1,1.7,0.2,2.3,0.9c2.4,3,3.4,6.4,4.1,10c0.7,4.3,2.2,8.1,4.7,11.6c0.2,0.5,0.6,0.7,0.8,1.2c3.8-2.6,7.9-4.8,12.2-6.7
		c-0.3-1.5-0.7-3-1-4.4c-0.9-3.3-1.5-7-2.9-10.2c-0.7-1.4-1.3-2.9-2-4.3c-0.6-1.2-1.4-2-2.6-2.6c-0.6-0.3-1.2-0.7-1.7-0.9
		c-0.9-0.7-1.3-1.7-1-2.9c0.3-1.3,1.2-2.1,2.2-2.8c1.2-0.7,2.4-0.9,3.7-1c0.3,0,0.6-0.1,0.8-0.1c-0.3-1.8-0.7-3.6-0.8-5.4
		c0-1.6,0-3.5,0-5.2c0-1,0.6-1.8,1.6-2.1c1.7-0.5,3.4-0.9,5.2-1.3c3.1-0.5,6.2-0.5,9.3-0.1c1.2,0.1,2.4,0.3,3.6,0.6
		c0.9,0.2,1.3,0.8,1.2,1.8c-0.1,0.7-0.1,1.3,0,2c0.1,2.9-0.7,5.5-1.7,8.2c-2.3,5.5-3.5,11.3-3,17.3c0.2,2.8,0.8,5.4,1.3,8.2
		c0.1,0.3,0.2,0.7,0.3,0.9c1.6-0.5,3.1-0.9,4.7-1.3c2-0.5,4.1-0.1,6.1,0.7c0.6,0.2,1,0.5,1.6,0.5c4,0,7.9,0.3,11.9,1
		c0.1,0,0.2,0,0.2,0c0-1.2-0.1-2.3,0-3.6c0.3-3.1,0-3.5,1-9.3c0.6-3,2.8-6.7,4.7-9.3c0.5-0.7,1-1,1.9-0.9c1.2,0.2,2.4,0.3,3.5,0.8
		c4.4,2,8,4.9,10.7,9c0.6,0.7,0.7,1.6,1,2.4c0.3,0.7-0.1,1.4-0.6,2c-1.7,2-4,3.2-6.4,4.1c-3.4,1.4-5.8,3.8-7.6,7
		c0.5,0.2,0.7,0.5,1,0.6c3.6,1.3,7.1,3,10.5,4.7c1.3,0.7,2.6,1.7,3.7,2.5c2,1.4,3.8,2.9,5.9,4.1c2,1.3,3.4,3,4.9,4.6
		c0.5,0.6,0.9,0.9,1.5,1.6c1.4-2,2.8-3.6,4.1-5.4c2-3.1,4.1-6.2,6.1-9.3c0.6-0.7,0.8-1.6,0.8-2.5c0.1-1.8,1.5-2.5,3.4-2
		c2.1,0.7,3.8,2.1,5.2,3.9c2.3,2.9,4.4,6,5.4,9.6c0.2,0.9,0.2,2,0.2,3.1c0,0.9-0.7,1.5-1.5,1.7c-1.6,0.5-3.3,0.8-4.9,0.7
		c-3.4-0.2-6.5,0.7-9.5,2.3c-1.4,0.7-2.8,1.6-4.2,2.3c-0.3,0.2-0.6,0.5-0.7,0.6c2.2,3.8,5.7,10.8,5.8,10.8c1.3,0,2.3-0.8,4.7-1.2
		c1.3-0.5,2.7,0,3.8,0.7c2.6,1.7,4.1,4.1,5.2,6.8c1,2.3,1.5,4.8,1.7,7.5c1.6,0,3.3,0.1,4.8,0c2.8-0.2,5.6-0.5,8.4-0.9
		c2.1-0.5,4.2-1.2,6.2-1.8c0.7-0.2,1.2-0.2,1.6,0.2c0.7,0.7,1.3,1.4,1.9,2.2c0.7,1.2,1.2,2.4,1.7,3.8c0.9,3,1.9,6,2,9
		c0.1,1.4,0,2.8-0.3,4c-0.3,1.4-1,1.8-2.4,1.4c-1.4-0.5-2.9-0.8-4.1-1.6c-4.1-2.5-8.7-3.5-13.3-4.5c-5.1-1-10.2-1-15.5-1
		c-0.1,0-0.2,0-0.5,0.1c-0.1,2.2-0.2,4.4-0.5,6.6c-0.2,2.1-0.6,4.3-0.8,6.4c1.3,0.5,2.8,0.5,4.2,0.7c3.6,0.5,7.3-0.2,10.8-0.2
		c1.5,0,3,0.5,4.5,0.8c0.8,0.2,1.5,0.8,1.7,1.6c0.5,0.9,0.8,2,0.9,3.1c0.3,3.9-0.6,7.6-2.7,10.9c-0.8,1.4-2,2.4-3.4,3.3
		c-1,0.7-2.2,0.6-3.4-0.1c-2.4-1.3-4.5-3.3-6.5-5.1c-2.7-2.3-5.6-4.4-8.7-5.8c-1.7,3.6-3.4,7.1-5.1,10.5c2.7,2.1,5.4,4.4,8.1,6.4
		c1.6,1.3,3.4,2.3,5,3.5c2.9,2,6.2,3,9.5,3.8c1.6,0.5,3.3,0.9,4.4,2.2c1,1,1.2,1.8,0.6,3.1c-0.9,1.7-1.9,3.3-2.9,4.8
		c-0.3,0.6-0.7,0.9-1.3,1.3c-1.2,0.7-2,0.7-2.9-0.2c-1.2-1-2.3-2.2-3.4-3.3c-3.8-4-7.7-8.2-12.3-11.3c-2.4-1.7-4.8-3.6-7.6-4.8
		c-0.2-0.1-0.5-0.2-0.7-0.3c-3.3,4.3-6.9,8.2-11.3,11.5c1.5,1.4,2.9,2.6,4.3,3.9c4.4,3.9,9.1,7.2,14.1,10.1c2,1,3.8,2.2,5.6,3.6
		c0.7,0.7,0.9,1.5,0.7,2.4c-0.3,2-1.2,3.5-2.2,5.1c-1.6,2.4-3.5,4.5-5.9,6.1c-0.7,0.6-1.5,1-2.2,1.5c-0.7,0.3-1.4,0.6-2.1,0.7
		c-0.9,0.1-1.6-0.5-2-1.3c-0.2-0.6-0.6-1-0.7-1.6c-0.7-1.4-1.5-2.8-2-4.1c-3.1-7.6-7.1-14.6-12.6-20.8c-0.3-0.5-0.7-0.7-0.8-1
		c-3.5,1.7-6.8,3.5-10.1,4.8c-3.4,1.4-7.1,2.3-10.4,3.3c0.6,2,1,3.8,1.5,5.9c0.2,1.4,0.1,2.8,0.2,4.1c0,0.5-0.1,0.7,0,1.2
		c0.1,1.2-0.3,2-1.4,2.3c-1.2,0.5-2.3,0.8-3.5,0.9c-3.5,0.3-7-0.1-10.2-1.6c-1-0.5-2-1-2.8-2c-0.6-0.6-0.7-1.2-0.7-2
		c0.5-2,0.9-3.7,2.1-5.3c0.6-0.7,1-1.5,1.7-2.3c-4.5-0.5-8.8-0.9-13.3-1.4c-0.5,1.6-0.3,3.2-0.2,4.7c0.1,1.6,0.3,3.3,0.3,4.8
		c0,0.9,0,2-0.2,2.9c-0.2,1.3-1.2,2-2.2,2.2c-1.6,0.6-3.3,0.7-4.9,0.5c-2.4-0.2-4.7-0.9-6.9-2.1c-1-0.6-2-1.4-2.4-2.4
		c-0.3-0.7-0.2-1.5,0.1-2.2c1.2-2.8,2.6-4.9,4.4-7.2c0.8-1.2,1.5-2.8,2.4-4c-8.4-3.5-15.5-7.6-21.9-13.9c-0.9,1.2-1.9,2.4-2.4,3.8
		c-0.7,1.7-1.3,3.5-2,5.3c-0.7,1.7-1.3,3.3-2,4.9c-0.3,0.7-1.3,1.2-2.2,0.9c-1.3-0.3-2.7-0.7-3.8-1.2c-3.7-2-7.2-4.3-9.9-7.5
		c-0.7-0.7-1.3-1.7-1.7-2.5c-0.8-2-0.5-2.6,1-3.7c1.2-0.8,2.4-1.5,3.7-2c2-0.9,4.2-1.8,6.3-2.5c2-0.7,3.7-1.8,5.5-3.1
		C45.5,141.8,45.6,141.7,45.7,141.6z M99.4,144.3c0.1,0,0.2,0,0.3-0.1c0.1,0.3,0.3,0.6,0.5,0.8c0.2,0.9,0.5,2,0.7,2.9
		c0.7,4.1,1,8.2,0.5,12.3c-0.3,2.2-0.9,4.4-2.1,6.1c-1,1.5-2.1,3-3.3,4.5c-0.6,0.8-1.2,1.7-1.4,2.8c6.1-1.6,11.4-0.8,16.8,2.6
		c-0.1-1.4-0.2-2.5-0.5-3.7c-0.6-3.2-1.9-6-3.4-8.6c-3.4-5.4-4-11.3-3.8-17.4c0-0.2,0.2-0.5,0.5-0.9c0.6,0.7,0.7,1.4,0.7,2
		c0.1,2,0.1,3.8,0.2,5.9c0.3,4.6,2.4,8.5,4.7,12.4c6.3-0.8,17.9-5.9,20.5-8.2c-1.2-1.5-2.9-2.5-3.6-4.4c0.7-0.5,0.9-0.1,1.3,0.2
		c1.2,1.3,2.2,2.5,3.4,3.7c2.9,2.9,5.4,6,7.4,9.3c2.9,4.7,5.6,9.7,7.3,15c0.3,0.7,0.7,1.5,1.2,2.4c2.4-5.9,6.2-10.1,12-12.8
		c-0.9-0.6-1.9-1-2.7-1.5c-4.5-2.2-8.6-5.2-12.6-8.3c-4-3.1-7.3-6.8-11.4-9.8c-0.3-0.2-0.5-0.6-0.7-0.8c0.1-0.1,0.2-0.2,0.2-0.3
		c1.9,0.5,2.9,2,4.4,2.9c3.3-2.5,6.2-5.4,8.7-8.6c0.8-1,2-2,2.3-3.2c0-0.2,0.7-0.3,0.9-0.2c0.2,0,0.6,0.3,0.7,0.5
		c5.4,2.9,10.1,6.4,14.4,10.6c2.4,2.3,4.8,6.1,7.1,8.5c0.7,0.7,1.4-0.1,2.1,0.5c0.9,0.7,1.6,0.6,2.2-0.5c1-1.5,2-3.1,2.9-4.7
		c0.7-1.5,0.6-2.3-0.9-3.1c-1.2-0.7-2.3-1-3.6-1.4c-4.7-1.2-8.7-3.2-12.6-6c-3.4-2.5-6.8-5.2-10.1-7.8c-0.3-0.2-0.1-0.2-0.2-0.3
		c0.3-0.7,0.7-1.5,0.8-2c0.9-1.8,2-3.6,2.8-5.4c0.7-1.3,1-2.6,1.7-4c-2.2-0.9-4.3-1.7-6.4-2.1c-2.6-0.6-5.1-0.7-7.7-0.3
		c-0.7,0.1-1.4,0.1-2-0.7c0.7-0.1,1.2-0.2,1.7-0.2c2.3-0.1,4.8-0.3,7.2-0.1c2.9,0.2,5.5,1.4,8.1,2.4c2.1,0.8,4.1,2.1,6.1,3.5
		c2.2,1.7,4.3,3.6,6.4,5.4c0.3,0.3,0.7,0.7,1.2,0.9c-1.2-6.6,0.3-12.1,5.2-16.6c-1,0-2-0.1-2.9,0c-2.8,0.2-5.5,0.5-8.3,0.3
		c-2.8-0.1-5.5-0.6-8.1-1c-2.4-0.5-4.9-0.9-7.3-1.5c-1.2-0.2-2.3-0.5-3.5-0.7c-1.3-0.3-2.4-0.7-3.7-1.2c-0.2-0.1-0.6-0.2-0.7-0.3
		c0.2-0.6,0.7-0.6,1-0.5c0.9,0.2,2,0.3,2.9,0.6c4.2,0.8,8.3,1.8,12.5,2.8c0.3,0.1,0.7,0.1,1.3,0.1c0.3-2.6,0.7-5.1,0.9-7.6
		c0.2-3.3,0.3-6.6-0.1-10c-0.1-1.2-0.1-1.2-1.3-1.4c-4.7-0.9-9.2-1.3-13.8-1.4c-2,0-4,0.3-6.1,0.5c-0.2,0-0.6,0-0.7,0
		c0-0.1-0.1-0.2-0.1-0.5c0-0.1,0-0.2,0-0.5c2.7-0.7,5.4-0.7,8-0.7c2.8,0.1,5.5,0.3,8.3,0.7c2.7,0.3,5.2,0.8,7.9,1.4
		c-2.2-2.3-3.8-5.1-4.7-8.2c-0.8-3-1.3-6-0.2-9.2c-3.3,2.5-6.2,5.3-9.9,7c-3.6,1.7-7.4,3-11.5,3.8c-0.1-0.3-0.2-0.7-0.3-0.9
		c7.3-1.6,13.8-4,19.3-9.2c-1.9-4.1-3.6-8.3-6.3-11.9c-5.9,3.6-9.7,9-14,14.3c0-0.6-0.1-0.8,0-1c0.1-0.3,0.3-0.6,0.5-0.7
		c1.7-2.1,3.4-4.3,5-6.2c1-1.3,2-2.4,3.3-3.5c3.4-3,7.2-5.3,11.3-7.2c3.1-1.5,6.3-2.4,9.9-2c0.6,0.1,1-0.1,1.6-0.1
		c-2.3-1.6-4.2-3.6-5.8-5.9c-1.6-2.2-2.9-4.6-3.7-7.4c-0.2,0.1-0.3,0.2-0.3,0.2c-2,3.1-3.7,6-5.8,9.1c-2.8,4.3-6.1,8.1-10.2,11
		c-1.5,1-2.9,2.3-4.4,3.5c-0.9,0.7-1.9,1.5-2.8,2.2c-0.6,0.5-1,0.5-1.7,0c4.5-3.6,9.2-6.9,13.5-10.9c-1.3-1.3-2.3-2.5-3.6-3.6
		c-2.3-2-4.8-3.6-7.2-5.5c-3.4-2.9-7.3-5.1-11.4-6.9c-1.7-0.7-3.4-1.4-5.2-2.1c-0.3,0.7-0.6,1.2-0.7,1.7c-0.9,3.1-1.5,6.1-1.6,9.3
		c0,1,0,2.1,0,3.1c0,0.2-0.2,0.6-0.3,0.7c-0.7-0.3-0.7-0.8-0.7-1.4c-0.1-2.4,0.1-4.8,0.6-7.4c0.6-2.8,1-5.6,2.8-8.1
		c2-3.1,4.7-5.5,8.1-6.9c1.3-0.6,2.4-1.2,3.6-1.7c0.5-0.2,0.7-0.6,1-0.8c-6.6-2.2-11.6-6.1-15.2-12.2c-0.5,0.9-0.9,2-1.4,2.9
		c-0.7,2-1.7,3.9-2.1,6c-0.7,3.2-0.9,6.3-0.8,9.7c0.1,2.6,0,5.3,0,8.1c0,0.9,0,2-0.2,3c-0.5,2.1-0.8,4.1-1.3,6.1
		c-0.1,0.7-0.2,1.3-0.5,2c-0.1,0.5-0.1,1-0.8,0.9c-0.6-0.1-0.3-0.7-0.2-1c0.2-0.7,0.3-1.4,0.6-2.1c0.6-2.5,1.4-5.2,1.4-7.8
		c0-1.2,0-2.2,0-3.3c0-0.7,0.1-1.5,0.2-2.3c-3.8-0.7-7.4-1.3-11.5-1c0.6,0.7,0.8,1,1.3,1.4c1.9,2,2.2,5.1,0.7,7.6
		c-0.5,0.7-0.8,1.2-1.3,1.8c-0.7,1.4-1.6,2.6-2.2,4c-0.5,0.9-0.6,2-0.5,3.2c0.3,2.4,0.9,4.6,1.9,7c0.1,0.3,0.5,0.7-0.1,0.9
		s-0.7-0.3-0.8-0.7c-0.1-0.2-0.2-0.5-0.3-0.7c-0.5-1.5-0.9-3.1-1.3-4.6c-0.6-2.3-0.6-4.6,0.7-6.9c0-0.1,0-0.2,0.1-0.5
		c-3,1.5-6.1,1.7-9.4,0.8c0.3,0.5,0.5,0.7,0.6,0.8c1.2,1.8,1.9,3.7,1.9,5.9c0,3-0.1,6-0.2,8.9v0.1c-0.1,0.2-0.3,0.7-0.5,0.7
		c-0.5,0-0.6-0.3-0.6-0.7c0-1.6,0.1-3.1,0.1-4.6c0-2,0.2-3.9,0-5.9c-0.3-3-2.1-5.1-4.4-7c-2.9-2.4-3.5-6.2-1.5-9.3
		c0.1-0.2,0.3-0.6,0.7-0.9c-2.2,0.7-4.3,1.2-6.4,1.8c-0.7-3.6-1.3-7.1-1.9-10.6c-0.5-2.4-0.7-4.9-1.6-7.4c-0.5-1-0.8-2.1-1.3-3.2
		c-0.7-2-1.6-3.8-2.2-5.8C69,19.1,68.6,19,68,19c-1.4,0.1-2.8,0.5-4,1.2c-0.6,0.5-1,0.9-1.4,1.5c-0.7,0.9-0.3,1.8,0.7,2.4
		c0.5,0.3,0.8,0.6,1.4,0.7c1.5,0.7,2.4,1.7,3.1,3.2c0.7,1.5,1.3,3,2,4.5c1.4,3.3,2,7,2.9,10.4c0.3,1.3,0.6,2.6,0.8,3.9
		c0.2,0.8,0.3,0.9-0.5,1.2c-3.5,1.3-6.8,3.1-9.9,5.1c-0.7,0.6-1.6,1-2.4,1.6c0.8,1,1.6,2.1,2.4,3.1c1.2,1.4,2.4,2.6,3.7,3.9
		c0.2,0.3,0.7,0.7,0.3,0.9c-0.5,0.5-0.7,0-1-0.3c-0.5-0.5-0.8-0.9-1.3-1.4c-2.1-2-4-4.4-5.6-6.8c-2-3.1-3.7-6.3-4.7-10
		c-0.6-2.2-0.9-4.5-1.5-6.7c-0.5-1.6-0.8-3.1-2-4.5c-2.2,5.9-6.2,10-12,12.7c1.3,0.7,2.6,1.3,3.7,2c4.9,3.2,9.3,7,13.2,11.3
		c2,2.1,3.4,4.5,5.1,6.7c0.2,0.3,0.5,0.7,0.5,0.9s-0.1,0.5-0.2,0.7c-0.2-0.1-0.6-0.1-0.7-0.2c-0.2-0.2-0.3-0.6-0.6-0.7
		c-1.6-2.5-3.5-4.7-5.5-7c-7.8,6.7-15,17.1-17.7,26.8c1,0.6,2.1,1.2,3.4,1.7c1.2,0.6,2.3,0.8,3.5,1.3c0.5,0.1,0.9,0.2,0.8,1
		c-0.5-0.1-0.9-0.1-1.4-0.2c-4.4-1.2-8-3.6-11.2-6.9c-0.8-0.9-2-1.8-3.3-2.9c1.2,6,0.6,11.3-2.6,16.6c0.5-0.1,0.8-0.1,1.2-0.2
		c4.2-1,8.1-0.7,12,1c0.3,0.1,0.7,0.2,0.8,0.5c0.1,0.1,0.2,0.5,0.2,0.6c-0.1,0.1-0.3,0.3-0.6,0.3c-0.3,0-0.7-0.2-0.9-0.3
		c-1.5-0.6-3-1-4.7-1.3c-0.7,6-0.8,11.9,0.3,17.5c1.5,0.2,2.8,0.5,4.1,0.7c0.9,0.2,1.9,0.6,2.8,0.7c0.8,0.1,1.7,0.2,2.6,0.2
		c4.1,0.5,8.1,0.3,12.1-0.7c0.6-0.1,1-0.1,1.7-0.1c-0.7,0.8-0.7,0.8-1.5,1c-4.1,1-8.3,0.9-12.3,0.7c-0.7-0.1-1.5-0.1-2.4-0.2
		c3.5,2.9,5.6,6.3,5.6,10.7c0.2-0.2,0.5-0.6,0.6-0.7c1.4-2.3,3.3-4,5.9-4.6c2.1-0.5,4.3-0.7,6.4-0.9c0.5,0,0.8,0.2,1.3,0.3
		c0,0.1,0,0.2,0,0.3c-0.5,0.1-0.8,0.3-1.3,0.3c-1.4,0.1-2.8,0.2-4.2,0.5c-3,0.5-5.5,1.6-7.2,4.1c-0.9,1.5-1.9,2.9-2.9,4.3
		c-0.5,0.7-0.9,1.3-1.6,1.7c-0.9,0.7-2,0.9-3.1,1.5c1.3,2.3,2.7,4.6,4.5,6.8c0.2-0.2,0.5-0.2,0.6-0.3c2-2,3.8-3.7,5.8-5.6
		c1.4-1.5,2.7-3.1,4-4.6c0.2-0.3,0.5-0.7,1-0.7c-0.1,0.3-0.2,0.7-0.3,0.8c-0.6,0.7-0.9,1.5-1.6,2.2c-1.6,1.8-3.4,3.7-5,5.5
		c-3.3,3.5-6.5,6.3-10.8,8.1c-2.6,0.9-5.7,2.5-8.3,3.7c-0.2,0.1,5.6,2.3,8.3,4.3c2.7,2,5,4.4,6.8,7.5c0.7-2,1.3-3.5,1.6-5.2
		c0.8-3.8,3.1-6.9,5.4-9.9c1.7-2.3,4-4.3,6.1-6.2c1.4-1.3,2.9-2.4,4.3-3.6c0.3-0.3,0.7-0.7,1.5-0.2c-4.7,3.6-8.7,7.5-12.2,12.1
		c4.7,5.3,17.1,12.3,22.5,14c0.5-1.3,0.9-2.4,1.3-3.7c0.5-1.6,0.7-3.2,1.2-4.7c0.1-0.5,0.1-1,0.9-1.2c0,0.3,0.1,0.7,0,0.9
		c-0.1,0.6-0.2,1-0.3,1.6c-0.7,3.8-2,7.4-4.2,10.6c-1.3,1.8-2.3,3.7-3.7,5.5c-0.3,0.5-0.6,0.8-0.9,1.4c5.4-1.3,9.7-0.1,13.8,3.2
		c-0.1-1.3-0.2-2.4-0.3-3.5c-0.5-3.3-0.3-6.6,0.3-9.9c0.3-1.8,0.8-3.5,1.2-5.3c0.2-1.2,0.5-2.2,0.7-3.3c0.1-0.5,0.2-0.7,0.7-0.7
		c0.2,0.1,0.3,0.6,0.5,0.8c0,0.1,0,0.2,0,0.2c-0.6,2.1-0.9,4.3-1.5,6.3c-0.3,1.4-0.7,2.8-0.9,4.4c4.8,0.7,9.4,1.2,14.1,1.3
		c2-2.9,2.8-6,2.9-9.3c0.1-3.9-0.3-7.8-1-11.6C99.3,145.4,99.4,144.8,99.4,144.3z M67.2,7.9c0.2,2,0.2,3.9,0.6,5.9
		c0.2,1.6,0.7,3.1,1.2,4.6c1,2.9,2.3,5.6,3.5,8.5c0.6,1.3,1,2.5,1.4,3.9c0.7,3.8,1.4,7.7,2.1,11.6c0.2,1.2,0.3,2.2,0.6,3.5
		c2.3-0.7,4.7-1.3,7-2c-0.1-0.2-0.1-0.5-0.1-0.7c-0.7-3.1-1.3-6.2-1.6-9.3c-0.6-5.4,0.6-10.6,2.3-15.6c0.7-2,1.5-4.1,2.1-6.1
		c0.5-1.5,0.5-3.1,0.7-4.7c-3.1,1.4-6.4,1.6-9.7,1.8C73.9,9.3,70.6,9.2,67.2,7.9z M160.4,103.4c1.5-0.1,2.8-0.2,4.1-0.2
		c4.5-0.1,9,0.6,13.4,1.4c4.5,0.8,8.7,2.2,12.7,4.6c0.6,0.3,1.2,0.6,2,0.9c-3.1-6-4.7-11.9-3.8-18.3c-1.3,0.5-2.4,0.9-3.7,1.3
		c-3.4,0.7-7,1.2-10.5,1.3c-1.4,0.1-2.8,0.1-4.2,0.1c-0.2,0.7-0.3,1.2-0.5,1.6c-0.8,2.8-2.4,3.7-5.4,3.3c-1.4-0.2-2.8-0.5-4.3-0.7
		C160.1,100.3,160.3,101.7,160.4,103.4z M34,115.3c-0.1-0.6-0.2-1-0.3-1.5c-0.3,0.1-0.7,0.1-0.8,0.2c-4.2,1-8.5,1.4-12.8,0.7
		c-2.9-0.6-5.8-0.9-8.7-1.5c-1.6-0.3-3.4-0.6-5.2-0.9c0.1,0.2,0.1,0.3,0.1,0.5c3.1,4.1,4.2,8.7,4.5,13.8c0.1,1.7-0.2,3.3-0.8,4.9
		c0.5-0.1,0.7-0.2,1-0.3c2.2-0.9,4.5-2,6.6-3.1c2.8-1.4,5.4-3.1,8-4.6c1-0.6,2.1-0.9,3.3-1.4C29.1,118.8,30.5,116.4,34,115.3z
		 M40.3,133.2c0.5-0.1,1-0.1,1.6-0.2c2.4-0.7,4.1-2.9,4.1-5.6c0.1-3.7-1.5-6.7-4.2-9c-1.6-1.4-3.4-2.2-5.6-2.3c-2.7-0.1-5.2,1-6.1,4
		c-0.5,1.4-0.3,2.8-0.1,4.1c0.3,2.2,1.5,4.1,3.1,5.8C35.1,131.8,37.2,133.2,40.3,133.2z M89.7,56.6c1.6-0.1,3-0.3,4.4-0.8
		c2.3-0.9,4-2.5,4.8-4.9c0.8-2.3,0-4.7-2-6.4c-1.4-1.2-3.4-1.7-4.5-2c-2,0-3.4-0.6-6.8,0.8c-0.1,0.1-1.7,1.2-2.8,2.3
		c-1.9,2-2.3,5.2-0.5,7.6C84.4,55.8,86.9,56.5,89.7,56.6z M169,93.1c-0.2-4.1-1.5-7.6-4-10.7c-0.8-1-1.7-2-3-2.5
		c-2-1-3.8-0.3-4.7,1.8c-0.3,0.8-0.5,1.8-0.6,2.8c-0.2,1.7,0.2,3.3,0.8,4.8c0.7,1.7,1,3.5,2,4.9c1,1.6,2.3,3.1,4.2,3.9
		c1.9,0.8,3.4,0.3,4.2-1.4C168.9,95.5,169,94.2,169,93.1z M180.6,124.9c0-1.5-0.3-3.2-0.7-4.1c-0.8-1.7-2.1-2.1-3.7-1.2
		c-0.7,0.5-1.3,0.8-1.9,1.5c-2.7,3.5-3.8,7.5-3.4,11.9c0.1,0.8,0.5,1.7,0.7,2.4c0.6,1.2,1.6,1.6,2.8,1.3c0.9-0.2,1.7-0.7,2.3-1.5
		C179.5,132.2,180.4,128.7,180.6,124.9z M28.5,85.4c0-0.7,0-1.4-0.1-2.1c-0.2-1.3-0.5-2.6-1-3.7c-0.9-1.7-2.2-1.8-3.4-0.3
		c-0.8,1-1.6,2.2-2,3.6c-0.8,2.6-1.3,5.3-1.2,8.1c0.1,1.8,0.2,3.5,1,5.1c0.9,1.8,2.3,2,3.5,0.3c0.7-0.7,1-1.7,1.5-2.5
		C27.9,91.2,28.4,88.5,28.5,85.4z M169,60.2c-0.1-0.3-0.1-0.8-0.2-1.3c-0.6-2.5-1.9-4.7-3.3-7c-1.5-2.3-3.5-4.3-5.8-6
		c-0.6-0.5-1.3-0.6-2-0.6c-0.6,0-0.8,0.3-1,0.9c-0.2,1.2-0.1,2.2,0.2,3.3c1.2,3.7,3.3,6.8,6.1,9.6c1,1,2.2,2.1,3.6,2.6
		C168.2,62.5,169,61.9,169,60.2z M9.9,127.1c-0.1-4.3-0.9-7.9-2.7-11.3c-0.6-1-1.2-2-2-2.9c-1-1-2-0.8-2.3,0.6
		c-0.3,1.4-0.6,2.8-0.6,4.3c0,1.5,0.3,3,0.7,4.5c0.7,2.9,1.6,5.5,3.4,7.9c0.3,0.5,0.8,0.8,1.3,1.2c0.6,0.3,1,0.2,1.4-0.3
		c0.2-0.3,0.5-0.7,0.6-1.2C9.8,128.7,9.8,127.7,9.9,127.1z M43.1,163.8c1.9,0,2.2-0.6,1.7-1.8c-0.3-0.7-0.7-1.5-1.3-2.1
		c-3-3.8-6.9-6.7-11.4-8.5c-0.7-0.3-1.6-0.5-2.4-0.6c-1.2-0.1-1.5,0.5-1,1.5c0.3,0.7,0.7,1.4,1,2c2.6,3.3,5.9,6.1,9.8,8.1
		C40.7,163.3,42,163.7,43.1,163.8z M36.5,43.5c0,1.3,0.7,1.8,2,1.5c0.7-0.2,1.4-0.5,2-0.8c2.7-1.5,4.8-3.6,6.6-6.1
		c1-1.5,2-3,2.3-4.6c0.5-2-0.5-2.8-2.2-2c-1.6,0.7-3.1,1.5-4.5,2.5c-2,1.5-3.5,3.5-4.8,5.6C37.2,40.8,36.5,42,36.5,43.5z
		 M129.4,34.1c1.4-0.1,1.7-0.6,1.3-1.8c-0.1-0.5-0.3-0.8-0.6-1.2c-0.7-0.9-1.4-2-2.1-2.9c-2.8-3-6.1-5.2-9.9-6.9
		c-0.6-0.2-1.2-0.3-1.9-0.3c-0.9,0-1.4,0.6-1,1.5c0.2,0.7,0.6,1.3,0.8,1.8c2.8,3.9,6.4,6.9,10.8,8.9
		C127.7,33.7,128.5,33.8,129.4,34.1z M160.7,174c0-1.7-0.5-2.1-1.6-2c-0.7,0.1-1.3,0.5-2,0.7c-3.5,2-6.1,4.9-8,8.5
		c-0.7,1-1,2.1-1.2,3.3c-0.1,1.3,0.3,1.7,1.5,1.5c1.3-0.3,2.6-0.7,3.6-1.6c2.6-2.3,4.9-4.7,6.5-7.8
		C160.1,175.7,160.5,174.5,160.7,174z M99.3,173.5c-0.7,0.1-2,0.3-3.4,0.6c-0.9,0.2-1.9,0.7-2,1.6c-0.1,0.9,0.7,1.5,1.5,2
		c1.7,1.2,3.7,1.7,5.8,2.1c2.4,0.5,4.9,0.7,7.4-0.1c0.7-0.2,1.2-0.6,1.7-0.8c0.7-0.6,0.7-0.9,0.2-1.6c-0.5-0.6-0.9-1-1.5-1.4
		C106.3,174.2,103,173.7,99.3,173.5z M72.4,173.8c-0.7,0.1-1.7,0.2-2.7,0.6c-2,0.7-2.2,2-0.8,3.3c0.8,0.8,2,1.6,3.1,2
		c2.4,0.8,4.9,1.4,7.6,0.9c0.8-0.1,1.7-0.5,2.4-0.8c0.8-0.6,0.9-1.3,0.5-2.1c-0.3-0.6-0.8-0.9-1.4-1.4
		C78.7,174.5,75.8,174,72.4,173.8z M194.6,110.8c0.3-0.7,0.7-1.2,0.7-1.7c0.1-1.5,0.1-3,0-4.5c-0.3-3.3-0.9-6.6-2.4-9.7
		c-0.6-1-1.2-2.1-2-3.1c-0.7-0.8-1.3-0.7-1.6,0.3c-0.2,0.7-0.3,1.4-0.3,2.1c-0.1,4.4,0.9,8.6,2.7,12.7c0.5,0.9,1,2,1.6,2.8
		C193.7,110.1,194.1,110.3,194.6,110.8z M67.6,6.8c0,0.1,0,0.2,0,0.3c0.3,0.1,0.6,0.5,0.8,0.5c1,0.2,2.1,0.6,3.3,0.6
		c2.3,0.1,4.7,0.1,7.1,0c2.2-0.2,4.4-0.5,6.6-1.4c0.6-0.2,1-0.2,1.3-0.8c-0.9-0.8-2-1.2-3.1-1.2c-2.3-0.1-4.7-0.2-7.1-0.1
		c-2.6,0.1-5,0.5-7.4,1.3C68.6,6.3,68.1,6.5,67.6,6.8z"/>
	<path d="M98.3,82.9c-0.5,0.2-0.7,0.3-1.4,0.6c0.3-0.5,0.3-0.7,0.6-0.8c0.5-0.6,0.9-0.9,1.4-1.5c1.5-2,3.5-2.2,5.8-2
		c4.3,0.5,7.7,2.6,10.9,5.3c2.3,2,4.3,4.1,5.7,6.8c0.9,1.8,1.7,3.7,1.3,5.9c-0.1,0.7-0.5,1.5-0.9,2c-0.7,0.7-1.3,1.6-1.7,2.4
		c-0.1,0.3-0.5,0.6-0.7,0.8c-0.6-0.6-0.6-0.6-0.1-1.6c-1.4-0.1-2.8-0.1-4.1-0.3c-4-0.8-7.3-2.9-10.1-5.5c-1.4-1.3-2.7-2.6-3.8-4.1
		C99.5,88.5,98.3,86,98.3,82.9z M103.8,80.1c-0.2,0-0.5,0-0.7,0c-2.6,0.1-4.1,1.7-3.6,4.1c0.2,1.2,2.3,9.1,14.9,14.7
		c1.3,0.5,2.7,0.7,4.2,0.5c2.2-0.3,3.4-1.6,3.1-3.8c-0.1-1.5-0.7-2.8-1.3-4c-2.7-4.5-6.4-7.7-11.2-10
		C107.5,81,105.8,80.1,103.8,80.1z"/>
	<path d="M68.6,82.4c-1.3,6.8-5,11.6-11.2,15c-0.7,0.3-1.5,0.7-2.2,0.7c-0.7,0.2-1.6,0.2-2.3,0.3c-0.1,0.7,1.2,1.2,0.7,2
		c-0.1,0-0.2,0-0.2,0c-1.2-1.5-2.6-2.9-3.6-4.4c-0.8-1.3-0.7-2.8-0.5-4.1c0.6-2.9,1.9-5.3,3.6-7.6c2.1-2.9,4.8-4.9,8-6.4
		c1.3-0.7,2.7-0.7,4-0.5c1.2,0.2,2,0.8,2.6,1.8c0.7,1.2,1.4,2.4,2,3.6c0.2,0.5,0.5,0.9,0.2,1.6C69.2,83.7,69.2,82.8,68.6,82.4z
		 M50.4,93.4c0,0.2,0,0.3,0,0.6c0.1,2.3,1.7,3.7,4.1,3.3c1-0.2,2.2-0.6,3.3-1C62.3,93.6,65.4,90,67,85c0.5-1.2,0.6-2.4,0.3-3.7
		c-0.3-1.8-1.5-2.6-3.4-2.6c-1.4,0-2.8,0.5-4.1,1.2c-3.7,2.1-6.4,5.3-8.3,9C50.9,90.2,50.4,91.7,50.4,93.4z"/>
	<path d="M93.8,100.3c-0.5,0.1-0.7,0.2-0.9,0.2c0,0.2,0.1,0.5,0.1,0.7c0.7,2.3,0.2,4.6-0.7,6.8c-1.7,4-4.5,7.1-8.5,9
		c-2.3,1.2-4.8,1.5-7.4,0.2c-0.1,0-0.1,0-0.3,0c0,0.5,0.1,0.8,0.1,1.2c-0.1,0-0.2,0.1-0.2,0.1c-0.1-0.2-0.5-0.6-0.5-0.7
		c-0.2-1-0.7-2-1.2-2.9c-0.7-1.2-0.8-2.5-0.7-3.8c0.9-6.8,4.9-11.3,11.4-13.8c1-0.5,2.2-0.6,3.3-0.3c0.8,0.1,1.6,0.6,1.7,0.6
		c0.6,0.3,0.8,0.6,1.3,0.8C91.9,98.9,92.8,99.6,93.8,100.3z M87.5,98.1c-1.7,0-3.3,0.5-4.7,1.3c-3.4,2-5.8,4.6-7.2,8.2
		c-0.9,2.4-1.5,4.8,0,7.4c0.6,0.9,1.3,1.6,2.2,2c1.4,0.6,2.9,0.5,4.3-0.1c5.2-2,8.5-5.9,10-11.2c0.3-1.3,0.5-2.4,0.1-3.7
		C91.7,99.4,89.6,98,87.5,98.1z"/>
	<path d="M121.7,131.6c-0.8,0.2-1.3,0.1-1.4-0.7c-6.5,0.6-12.8-3.6-14.5-9.4c-0.3-1.2-0.7-2.2-0.3-3.5c0.1-0.3-0.2-0.7-0.3-1.3
		c2-2.6,4.7-3.7,8.1-3c4.8,0.9,8.1,3.8,10.2,8.1c0.7,1.6,1.2,3.3,0.7,4.9c-0.2,0.8-0.7,1.7-1.2,2.2
		C122.4,130,121.7,130.6,121.7,131.6z M117.7,130.2c4.4,0,6.5-2.5,5.6-6.1c-0.3-1-0.7-2.1-1.4-3.1c-1.7-2.9-4.4-4.6-7.3-6
		c-1.5-0.7-3-0.7-4.7-0.5c-2.2,0.6-3.5,2.1-3.6,4.4c0,0.7,0.1,1.2,0.2,1.8c0.7,2.4,2.1,4.5,4.1,6.1
		C112.8,128.8,115.3,130.1,117.7,130.2z"/>
	<path d="M99.7,134.9c-0.7,1.2-1.4,2.2-2,3.3c-1.9,2.6-4.5,3.7-7.6,3.7c-3.4-0.1-6.3-1.3-8.7-3.6c-2.6-2.4-3.1-6-1.3-8.9
		c0.6-0.8,3-3.3,3.5-3.7c1.3-0.8,2.2-1.2,3.7-1.4c0.3-0.1,0.7-0.1,1-0.1c2,0,3.6,0.7,5.4,1.7c2.7,1.6,4.5,3.8,5.2,6.9
		c0.1,0.7,0.1,1.5,0.2,2.2C99.3,134.9,99.5,134.9,99.7,134.9z M90.5,141c0.5-0.1,1.3-0.1,2-0.3c4.2-1,7.2-5.1,4.7-10
		c-1.5-2.9-4-4.4-7-5.3c-1.4-0.5-2.8-0.3-4.1,0.3c-2.1,0.9-3.8,2.3-5,4.4c-1.9,3-1.4,5.8,1.2,7.9C84.5,139.9,87.2,140.9,90.5,141z"
		/>
</g>
</svg>
