<?xml version="1.0" encoding="utf-8"?>
<!-- Generator: Adobe Illustrator 24.0.2, SVG Export Plug-In . SVG Version: 6.00 Build 0)  -->
<svg version="1.1"
	 id="svg4" inkscape:version="0.92.4 (5da689c313, 2019-01-14)" sodipodi:docname="G5.Virus Klecks.svg" xmlns:cc="http://creativecommons.org/ns#" xmlns:dc="http://purl.org/dc/elements/1.1/" xmlns:inkscape="http://www.inkscape.org/namespaces/inkscape" xmlns:rdf="http://www.w3.org/1999/02/22-rdf-syntax-ns#" xmlns:sodipodi="http://sodipodi.sourceforge.net/DTD/sodipodi-0.dtd" xmlns:svg="http://www.w3.org/2000/svg"
	 xmlns="http://www.w3.org/2000/svg" xmlns:xlink="http://www.w3.org/1999/xlink" x="0px" y="0px" viewBox="0 0 198.4 198.4"
	 style="enable-background:new 0 0 198.4 198.4;" xml:space="preserve">
<style type="text/css">
	.st0{fill:#9ECB0A;}
	.st1{display:none;fill:#9ECB0A;}
	.st2{fill:#FFFFFF;}
</style>
<sodipodi:namedview  bordercolor="#666666" borderopacity="1" gridtolerance="10" guidetolerance="10" id="namedview6" inkscape:current-layer="svg4" inkscape:cx="151.5407" inkscape:cy="109.79305" inkscape:pageopacity="0" inkscape:pageshadow="2" inkscape:window-height="1699" inkscape:window-maximized="1" inkscape:window-width="2736" inkscape:window-x="-13" inkscape:window-y="-13" inkscape:zoom="3.4231221" objecttolerance="10" pagecolor="#ffffff" showgrid="false">
	</sodipodi:namedview>
<g id="Farbe_1_">
	<path id="path2_1_" class="st0" d="M188,21.6C178.9,5.1,153.4-0.9,134,3c-19.9,4.1-19.4,16-43.9,25.8c-25.3,10.1-34.3,0.8-50.7,9.1
		C14,50.8,2.5,89.9,8.2,120.7c6,32.8,32.6,68.6,73.8,74c51.9,6.8,96.5-38.5,97.5-70.5c0.6-18.5-13.5-31.1-5.2-50.1
		c5.2-11.9,14.9-16.2,16.9-31.2C191.6,40.2,192.9,30.6,188,21.6z"/>
	<g>
		<g>
			<path class="st1" d="M100.7,189.1c-34.1,0-68.2,0-102.3,0c-0.6,0-0.7-0.1-0.7-0.7c0-62.2,0-124.3,0-186.4c0-0.7,0.1-0.8,0.7-0.8
				c68.2,0,136.4,0,204.5,0c0.6,0,0.7,0.1,0.7,0.7c0,62.2,0,124.3,0,186.4c0,0.6-0.1,0.7-0.7,0.7
				C168.8,189.1,134.8,189.1,100.7,189.1z"/>
			<path class="st1" d="M-1.5,3.7c0-0.2,0-0.5,0-0.6c0-0.5,0.2-0.7,0.7-0.6c0.2,0,0.5,0,0.7,0c65.9,0,131.9,0,197.9,0
				c1.3,0,1.3,0,1.3,1.3c0.2,0.5,0.1,0.8,0.1,1.3c0,35.1,0,70.1,0,105.2c0,25,0,50.2,0,75.2c0,1.5,0,1.5-1.7,1.5
				c-65.9,0-131.7,0-197.7,0c-1.7,0-1.7,0-1.7-1.5C-1.7,125.3-1.7,65.2-1.7,5C-1.7,4.5-1.8,4-1.5,3.7z"/>
			<path class="st1" d="M-1.5,3.7c0,0.3,0,0.8,0,1.2c0,60.2,0,120.4,0,180.6c0,0.2,0,0.5,0,0.8s0.1,0.5,0.5,0.5c0.2,0,0.4,0,0.6,0
				c66.2,0,132.3,0,198.4,0c1.2,0,1.1,0.1,1.1-1c0-60.2,0-120.5,0-180.7c0-0.3,0-0.8,0-1.2c0.2,0,0.4,0.2,0.2,0.3c0,0.2,0,0.5,0,0.7
				c0,60.4,0,120.9,0,181.4c0,0.2,0,0.5,0,0.7c0,0.3-0.1,0.5-0.6,0.5c-0.2,0-0.5,0-0.6,0c-66.3,0-132.6,0-198.9,0
				c-1.3,0-1.2,0.1-1.2-1.2c0-60.6,0-121,0-181.6C-1.8,4.4-2.1,3.9-1.5,3.7z"/>
			<path class="st1" d="M198.7,104.9c-0.6-4.2-1.7-8.1-3.5-11.8c-0.5-0.9-1.2-1.7-1.9-2.5c-0.6-0.6-1.2-0.7-1.9-0.5
				c-2.1,0.6-4.1,1.4-6.3,1.7c-4.3,0.7-8.5,1.2-12.8,1c-0.5,0-0.6-0.2-0.6-0.7c-0.4-3.8-1.4-7.3-3.7-10.4c-0.8-1.3-1.9-2.3-3.2-3.1
				c-1.4-1-3-1.4-4.7-0.7c-1.2,0.5-2.5,0.7-3.3,1.7c-2.1-3.7-4.3-7.4-6.5-11.1c-0.2-0.3-0.1-0.5,0.1-0.7c4-2.3,7.9-4.8,12.8-4.8
				c2.1,0,4.3-0.1,6.3-0.7c1.4-0.5,1.8-0.9,1.8-2.3c0.1-2.9-1.1-5.3-2.5-7.6c-1.5-2.5-3.2-5-5.6-6.8c-1.2-0.9-2.6-1.7-4.3-1.7
				c-1.3,0-2.1,0.7-2.1,2c0,1.2-0.5,2.1-1.1,3c-3.1,4.6-6,9.3-9.6,13.7c-0.1,0.2-0.4,0.3-0.5,0.6c-1.9-1.7-3.4-3.9-5.6-5.4
				c-6.6-4.7-13.4-9.6-21.4-12.1c-1.3-0.5-1.3-0.5-0.5-1.6c1.9-2.8,4.4-4.8,7.6-6.1c2.1-0.8,4.1-2,5.8-3.7c0.8-0.8,1.1-1.6,0.6-2.8
				c-0.9-2.5-2.8-4.4-4.7-6.2c-2.1-2-4.6-3.5-7.3-4.7c-1.2-0.5-2.4-0.6-3.5-0.8c-0.7-0.1-1.3,0.2-1.7,0.8c-2,2.8-3.4,6-4.6,9.1
				c-0.6,1.4-0.5,3.1-0.7,4.6c-0.2,2.7-0.7,5.4-0.6,8.1c0.1,0.8-0.5,0.5-0.8,0.3c-1.5-0.2-3.1-0.5-4.6-0.6c-2.1-0.2-4.4-0.3-6.5-0.3
				c-0.5,0-1.1,0-1.5-0.2c-3-1.3-5.9-1.3-9-0.2c-0.4,0.2-0.9,0.2-1.5,0.5c-0.7,0.3-0.9,0-1.1-0.6c-2-8.7-2.1-17.2,1.7-25.5
				c1.3-2.9,2-5.9,1.7-9.1c0-0.3,0-0.7,0.1-1c0-1-0.4-1.6-1.4-1.8c-1.8-0.3-3.5-0.6-5.4-0.7c-4.3-0.2-8.5,0.2-12.6,1.5
				c-1.5,0.5-2,1-2,2.5c0,3.2,0,6.5,0.8,9.6c0.1,0.6,0.1,0.8-0.7,0.9c-1.3,0-2.6,0.3-3.8,1c-1.4,0.8-2.5,1.8-2.4,3.6
				c0,1,0.5,1.8,1.3,2.2c2.6,1.2,4,3.1,5.2,5.7c1.8,3.8,2.7,7.7,3.7,11.8c0.4,1.5,0.8,3,1.2,4.5c0.1,0.3,0,0.6-0.4,0.7
				c-4,1.7-7.9,3.7-11.5,6.2c-0.6,0.3-0.7,0-0.9-0.3c-2-2.9-3.4-5.9-4.4-9.2c-0.7-2.4-0.9-5-1.8-7.3c-0.6-1.8-1.4-3.6-2.7-5.2
				c-1.2-1.5-2.1-1.8-4-1.3c-1.5,0.3-2.7,1.3-3.8,2.2c-2.1,1.8-4,3.7-5.6,5.9c-0.8,1.3-1.4,2.7-1.9,4.2c-0.4,1.3,0,2.3,1.2,3
				c1.3,0.8,2.6,1.6,3.9,2.3c3.7,2.1,6.9,4.8,10,7.6c0.9,0.8,1.8,1.7,2.7,2.5c0.2,0.2,0.5,0.6,0,0.9c-7.8,7.3-13.7,16-17,26.3
				c-0.5-0.2-0.7-0.5-1.1-0.8c-2.6-2.4-5.3-4.7-8.2-6.9c-1.3-1-2.4-1-3.7,0c-0.7,0.6-1.3,1.3-1.7,2.1c-2.2,4.6-3.2,9.3-2,14.4
				c0.2,1,0.7,2.1,1.4,3c0.8,1,1.8,1.3,3.1,1c2.1-0.5,4.1-0.9,6.4-1.2c0.9-0.1,1.8,0,2.7,0c0.5,0,0.5,0.2,0.5,0.6
				c-0.5,3.2-0.6,6.6-0.5,9.9c0,1.4,0.1,2.8,0.4,4c0.1,0.7-0.1,0.9-0.7,1c-3.5,0.9-7.1,1.2-10.8,0.9c-3.9-0.2-7.6-1.2-11.5-1.7
				c-2.4-0.3-4.7-0.7-7.1-0.8c-0.7,0-1.3,0.2-1.8,0.8c-0.8,1-1.1,2.3-1.1,3.6c0,4.6,0.9,9,3.2,13.1c0.5,0.9,1.1,1.7,1.8,2.4
				c1.1,1,2.2,1.3,3.7,0.9c4.3-1,8-2.9,11.7-5.1c2.2-1.4,4.5-2.5,7-3.5c0.6-0.2,0.8-0.2,0.9,0.5c0.8,3.1,2.2,5.8,5,7.7
				c1.7,1.3,3.5,2,5.6,2.3c0.5,0.1,0.8,0.2,1.1,0.8c0.6,1.5,1.8,2.5,2.8,3.7c0.8,0.9,1.8,1.8,2.5,3c-2.7,2.2-5.8,3.5-9.1,4.6
				c-2.6,0.9-5.1,2-7.4,3.5c-0.4,0.2-0.7,0.6-1.1,0.8c-0.7,0.6-0.8,1.4-0.6,2.2c0.5,1.5,1.4,2.7,2.4,3.8c3.2,3.6,7,6.2,11.6,7.8
				c0.6,0.2,1.3,0.3,1.9,0.5c1.2,0.3,2.1-0.1,2.6-1.3c1.4-3.1,2.5-6.2,3.8-9.3c0.6-1.6,1.5-3,2.7-4.4c6.3,6.1,13.7,10.4,21.7,13.6
				c0.5,0.1,0.5,0.3,0.2,0.7c-1.2,2.1-2.4,3.9-3.8,5.8c-1.1,1.5-2,3.2-2.7,4.8c-0.6,1.3-0.5,2.4,0.5,3.5c0.2,0.3,0.6,0.7,0.9,0.8
				c3.9,2.3,8,3.5,12.5,2.4c2.1-0.5,2.7-1.4,2.8-3.5c0.1-2.2-0.1-4.3-0.2-6.5c-0.1-1.5-0.2-2.9,0.1-4.4c0.1-0.3,0.1-0.6,0.6-0.6
				c4,0.5,8.2,0.8,12.2,1.3c0.2,0,0.5,0.1,0.8,0.1c-0.5,0.6-0.8,1.3-1.3,1.7c-1.4,1.7-2.1,3.7-2.5,5.8c-0.1,0.7,0.1,1.3,0.6,1.7
				c0.6,0.7,1.3,1.3,2.1,1.6c3.9,1.8,7.9,2.4,12.2,1.8c0.9-0.1,1.9-0.6,2.8-0.9c0.9-0.3,1.3-1,1.4-2.1c0.1-3.7-0.4-7.2-1.5-10.6
				c-0.2-0.6,0-0.8,0.6-0.9c4.7-1.4,9.5-2.8,13.8-5c1.9-0.9,3.9-1.8,5.8-2.9c0.4-0.2,0.6-0.1,0.9,0.2c5.8,6.5,10,13.7,13.4,21.6
				c0.8,2,1.9,3.8,2.8,5.8c0.1,0.3,0.5,0.6,0.8,0.9c-0.5,0-0.7,0-0.9,0c-49.5,0-99,0-148.5,0c-0.7,0-0.8-0.2-0.8-0.9
				c0-60.7,0-121.3,0-181.9c0-0.7,0.2-0.8,0.9-0.8c66.1,0,132.1,0,198.2,0c0.7,0,0.9,0.2,0.9,0.9c0,33.5,0,67,0,100.5
				C198.7,104.4,198.7,104.6,198.7,104.9z"/>
			<g>
				<path class="st0" d="M24.3,95.1c2-3.6,3.1-7.5,2.8-11.6c0-1.4-0.4-4.2-0.6-5.8c1.2,0.9,5.3,4.5,6.1,5.4c3.1,3.2,3.7,4.3,8,5.5
					c0.5,0.1,0.8,0.2,1.3,0.2c0.2,0,0.5,0.1,0.6-0.1s0-0.6-0.2-0.7c-0.1-0.1-0.4-0.2-0.6-0.2c-2.2-0.6-4.4-1.5-6.4-2.7
					c-0.5-0.2-0.6-0.5-0.5-1c1.9-6,4.8-11.3,8.6-16.3c2.5-3.3,5.3-6.5,8.5-9.3c0.5-0.3,1.8-1,2.1-0.6c1.9,2.2,3.7,4.4,5.2,6.7
					c0.2,0.3-0.5,1.6,0,1.3s0.2-0.8,0-1.3c-1.7-2.3-3.3-4.6-5.2-6.7c-3.8-4.3-7.8-6.1-12.6-9.3c-1.2-0.7-3.3-2.1-4.6-2.7
					c-0.2-0.1,0-1.4-0.1-1.7c5.7-2.7,9.7-6.8,12.1-12.7c1.1,1.4,1.5,2.9,1.9,4.4c0.7,2.8,1.1,5.7,2,8.3c2,5.7,5.2,10.5,9.3,14.8
					c0.7,0.7,1.4,1.4,2,2.1c0.2,0.2,0.5,0.5,0.9,0.2c0.4-0.3,0.1-0.6-0.1-0.9c-1.2-1.3-2.5-2.5-3.7-3.8c-0.9-1-1.9-2.3-2.8-3.5
					c4-2.7,7.9-5.1,12.4-6.7c0.5-0.2,0.8-0.3,0.7-1c-0.9-4.3-1.9-8.5-3.2-12.7c-0.7-2.4-1.9-4.6-3-6.9c-0.6-1.4-1.8-0.3-3.2-0.9
					c-0.6-0.2-2-1.4-2.5-1.7c-0.8-0.6,0.1-2.4,0.6-3.2c0.9-1.6,2.5-2.2,4.3-2.5c0.4-0.1,0.7-0.1,1.1-0.1c0.7,0,1.2,0.2,1.4,0.9
					c1.2,3,2.4,6,3.5,8.9c0.9,2.3,1.2,4.7,1.7,7.2c0.6,3.5,1.2,6.9,1.8,10.5c0.1,0.3,0.2,0.5,0.6,0.3c1.9-0.6,5.6-1.5,7.7-2.1
					c-0.7,1.2-1.7,2.5-1.9,3.8c-0.6,2.9,0.1,4.7,2.4,6.6c0.6,0.6,0.2,1.6,0.8,2.2c2,2.1,2.7,4.6,2.6,7.4c-0.1,2.7-0.1,5.3-0.2,7.8
					c0,0.5-0.2,1.2,0.5,1.2c0.6,0,0.6-0.7,0.6-1.2c0.1-2.8,0.1-5.4,0.2-8.2c0.1-2.1-0.5-3.9-1.5-5.8c-0.2-0.3-0.5-0.8-0.7-1.3
					c3.2,0.7,6.3,0.6,9.2-0.8c0.2,0.1,0.1,0.2,0.1,0.3c-1.1,2.2-1.2,4.4-0.6,6.7c0.4,1.6,0.9,3.2,1.4,4.8c0.1,0.3,0.2,0.6,0.4,0.8
					c0.2,0.3,0.5,0.7,0.9,0.5c0.4-0.2,0.2-0.6,0.1-0.9c-0.6-1.5-1.1-3-1.4-4.5c-0.4-1.5-0.7-3-0.5-4.5c0.1-0.5,0.2-1,0.5-1.5
					c1.1-1.8,2.1-3.7,3.3-5.5c1.9-2.5,1.4-6-0.8-8.2c-0.4-0.2-0.6-0.6-0.9-1c0.7-0.2,1.4-0.1,2.1-0.1c3.1,0,6,0.6,9,1
					c0.2,0,0.5,0.1,0.5,0.5c-0.4,2.7,1.4,5.2,0.9,7.8c-0.5,2.5-1.3,5.4-1.9,8c-0.1,0.3-0.7-0.2,0,0c0.7,0.2-0.1,0.5,0,0
					c1.8-6.2,2.4-12.5,2.1-18.8c-0.2-4.2,0.1-8.3,1.4-12.3c0.8-2.3,1.8-4.5,3-6.7c3.5,6,7.4,9.5,14.2,11.8c-0.4,0.5-1.2,1-1.7,1.3
					c-1.1,0.5-2.5,1.3-3.5,1.7c-5.9,2.5-6.1,6.6-7.6,12.6c-0.7,3.1-1.4,6.6-1.3,9.8c0,0.5-1.2,0.9-0.7,1.3c0.2,0.2,0.5,0.2,0.6-0.1
					c0.1-0.3,0.1-0.7,0.1-1c-0.1-3.9,0.4-7.8,1.5-11.5c0.6-2,0.6-2,2.6-1.3c5.2,2,10,4.4,14.4,7.7c2.6,2.1,5.3,4,7.9,6.1
					c1.3,1,2.4,2.3,3.7,3.5c0.4,0.3,0,0.5-0.2,0.7c-1.9,1.6-3.8,3.2-5.7,4.7c-2.4,1.8-3.4,4-5.8,5.9c-0.1,0.1,1.8,0,0,0
					c0.1,0.2-1.3,0.3-1.1,0.3c0.4,0,0.7-0.1,1.1-0.3c3.4-2.8,7-5.3,10.3-8.2c3.4-2.9,6.1-6.5,8.5-10.3c1.7-2.5,3.2-5.1,4.8-7.5
					c0.1-0.1,0.1-0.2,0.4-0.2c1.9,5.2,5,10,9.5,13.5c-0.5,0.2-1.9,1.5-2.2,1.5c-3.4-0.3-6.6,0.9-9.7,2.3c-4.3,2-8.6,4.7-12.2,7.7
					c-1.8,1.5-1.9,2.1-3.4,3.9c-1.3,1.5-2.5,3-3.7,4.6c-0.5,0.6-0.9-0.3-0.6,0.6c0.4,0,0.5-0.3,0.6-0.6c2-2.4,4-5.1,6.1-7.4
					c2.1-2.3,4.4-4.3,7-6c0.5-0.3,0.7-0.2,0.9,0.2c2.5,3.3,4.4,6.9,6.1,10.6c0.2,0.5,0,0.7-0.4,0.9c-3.4,3.1-7.4,5.3-11.8,6.8
					c-2.4,0.8-2.2,2.2-4.7,2.7c-0.2,0-3.2-0.6-3.1-0.1c0.1,0.3,0.1,0.8,0.7,0.6c6.4-1.5,12.5-3.5,17.6-7.7c1.2-1,2.5-2,3.7-2.9
					c-1.3,6.6,2.8,12.9,7.2,18c-2.6-0.5-7.6-0.5-10-0.8c-4.7-0.5-9.8-0.8-14.7-0.3c-0.7,0.1-0.7-0.2-1.4-0.1
					c-0.5,0.1-0.6-0.8-0.6-0.3c0,0.5,0.4,0.5,0.6,0.3c1.7-0.1,3.4-0.3,5.1-0.3c5.3-0.1,10.6,0.3,15.8,1.4c0.6,0.1,0.7,0.3,0.8,0.9
					c0.5,4.3,0.4,8.5-0.1,12.7c-0.1,1.5-0.4,3-0.6,4.5c-0.1,0.9-0.2,1-1.2,0.8c-2.8-0.6-5.7-1.3-8.5-1.8c-2.4-0.5-4.8-1-7.3-1.5
					c-0.2,0-0.4,0-0.6,0c-0.4,0-0.6,0.1-0.6,0.5c0,0.3,0.4,0.2,0.5,0.3c2.7,1,5.6,1.6,8.3,2.2c4.5,0.9,8.9,2,13.4,2.3
					c3.1,0.2,6.3,0.1,9.3-0.1c1.2-0.1,2.4,0,3.7-0.1c-2.4,2.2-4,4.6-5,7.6c-0.9,2.9-0.9,5.9-0.4,9.1c-0.8-0.7-1.1,0.1-1.7-0.5
					c-2.7-2.3-6-4.8-9.1-6.6c-5.2-2.9-10.4-6-16.5-5.3c-1.3,0.1-2.6,0-3.9,0.3c0.5,0.7,0.9-0.1,1.7-0.2c5-0.7,9.7,1.3,14.3,3.1
					c0.5,0.2,0.6,0.3,0.4,0.8c-1.2,2.9-2.6,5.5-4,8.3c-0.4,0.8,0.2,1.5-0.1,2.3c-0.2,0.6-0.2-0.2,0,0c2.7,2.1,5.1,5.2,7.8,7.4
					c3.2,2.5,8,4,11.9,5.5c1.4,0.6,3.1,0.9,4.5,1.3c1.3,0.3,0.9,1.4,2.1,2c1.2,0.6,1.4,1.4,0.8,2.5c-0.9,2-2,3.7-3.3,5.4
					c-0.5,0.7-1.1,0.8-1.9,0.2c-1.1-0.7-3.7-1.7-4.5-2.7c-3.4-3.6-5.3-6.9-9.1-10c-3.4-2.8-7.2-5.3-11.2-7.4
					c-0.7-0.3-1.2-0.2-1.5,0.5c-0.4,0.7-0.8,1.3-1.4,1.8c-2.8,3.3-5.9,6.5-9.3,9.2c-0.5,0.3-0.7,0.3-1.1,0c-0.6-0.6-1.3-1-1.9-1.5
					c-0.4-0.2-0.7-0.5-1.1-0.7c-0.4-0.1-0.7-0.6-0.9-0.1c-0.4,0.5,0.1,0.8,0.5,1c1.1,0.8,2.2,1.7,3.3,2.7c3.3,2.9,7.9,5.4,11.5,8.1
					c4.1,3.1,6.9,5,11.5,7.3c0.2,0.1,0.6,1.6,0.9,1.7c-5.8,2.7-9.7,7-12.2,12.8c-0.5-1-0.9-1.8-1.3-2.9c-3.2-8-7.2-15.5-12.9-21.9
					c-1.8-2-3.7-3.9-5.6-5.8c-0.1-0.1-0.2-0.2-0.5-0.3c-0.4-0.2-0.6-0.2-0.9,0.1c-0.2,0.2,0,0.5,0.1,0.6c0.6,1.2,1.5,2,2.5,2.9
					c1.1,1,1.1,1-0.2,1.8c-3.4,2.1-7.2,3.7-11.1,5.1c-2.6,0.9-5.3,1.8-8.2,2.3c-0.4,0-0.6,0.1-0.7-0.2c-1.5-2.9-3.2-5.8-4-8.9
					c-0.7-2.9-0.6-5.8-0.7-8.8c0-0.8-0.1-1.6-0.7-2.4c-0.4,0.3-0.5,0.7-0.5,1c-0.1,5.5,0.5,10.8,3.1,15.9c1.1,2,2.2,3.7,3.1,5.8
					c0.9,2.2,1.7,5.5,1.7,8.1c-5.3-3.3-10.9-4.3-17-2.5c0.2-1.2,0.8-2,1.4-2.8c0.8-1.2,1.7-2.3,2.6-3.5c1.9-2.4,2.7-5.3,3.1-8.3
					c0.5-4.7,0-9.3-1.2-13.8c-0.1-0.5,0.4-0.1,0,0c-0.6,0.2,0.2,0.8,0.2,1.3c0.6,2.8,0.9,5.5,1.1,8.3c0.1,3.1-1.2,5.3-2.2,8.3
					c-0.4,1-0.9,2.1-1.5,3c-0.2,0.3-0.5,0.5-0.9,0.5c-3.4-0.1-7-0.5-10.4-0.8c-0.9-0.1-1.8-0.2-2.7-0.3c-0.6,0-0.6-0.2-0.5-0.7
					c0.7-3.2,1.5-6.5,2.2-9.7c0.1-0.3,0.1-0.7,0-1c-0.1-0.2-0.2-0.6-0.5-0.5c-0.4,0-0.5,0.2-0.5,0.6c-0.2,0.9-0.4,2-0.6,2.9
					c-0.5,2.4-1.2,4.8-1.5,7.4c-0.5,3.1-0.5,6.1,0,9.2c0.1,0.9,0.1,1.8,0.2,2.9c-4.3-3.2-8.7-4.4-13.9-3.2c0-0.5,0.4-0.7,0.5-0.9
					c1.5-2.1,3-4.3,4.5-6.5c2.1-3.2,3.2-6.8,4-10.5c0.1-0.6,0.2-1.2,0.4-1.7c0-0.2,0.1-0.5-0.2-0.6c-0.2-0.1-0.4,0.1-0.6,0.2
					c-0.2,0.2-0.2,0.6-0.4,0.8c-0.7,2.7-1.2,5.3-2.2,7.8c-0.2,0.6-0.4,0.7-0.9,0.5c-5.1-2-9.8-4.6-14.3-7.6
					c-2.6-1.7-5.2-3.6-7.3-5.8c-0.5-0.5-0.5-0.7-0.1-1.2c3.3-4.2,7.2-7.8,11.5-11.1c0.1-0.1,0.4-0.2,0.6-0.5c-0.5-0.3-0.9-0.3-1.3,0
					c-3.5,2.9-7.1,5.7-10,9.2c-2.5,2.9-4.8,6-5.9,9.7c-0.6,2-1.1,4-1.8,5.9c0,0.1-0.1,0.2-0.2,0.5c-3.4-6-8.9-9.3-15.4-11.6
					c2.7-1.2,5.2-2.3,7.8-3.3c3.1-1.2,5.9-2.8,8.3-5c3.7-3.3,7.2-6.9,10.2-11c0.2-0.3,0.5-0.8,0.6-1.3c-0.5-0.1-0.7,0.1-0.9,0.5
					c-2.8,3.9-6.5,7-9.9,10.4c-0.5,0.5-0.7,0.5-1.2-0.1c-1.4-1.8-2.7-3.8-3.8-5.8c-0.2-0.3-0.1-0.6,0.2-0.7c2.6-0.8,4.3-2.7,5.7-4.8
					c0.5-0.7,0.9-1.4,1.4-2.2c1.7-2.7,4.1-3.9,7.1-4.4c1.5-0.2,3.1-0.3,4.7-0.5c0.5,0,1.3,0,1.2-0.5s-0.8-0.6-1.4-0.5
					c-1.2,0.1-2.4,0.3-3.5,0.5c-0.9,0.1-1.9,0.2-2.7,0.5c-2.7,0.5-4.6,2.1-6,4.3c-0.2,0.2-0.4,0.6-0.7,1c-0.1-4.5-3-8.4-6.3-11.3
					c2.6,0.2,5.8,1,8.3,1c2.4,0,4.7-0.2,7.1-0.8c0.7-0.1,1.4-0.5,1.8-1.3c-1.2-0.1-2.2,0.2-3.3,0.5c-3.8,0.8-7.6,0.7-11.3,0.5
					c-2.4-0.1-4.6-0.9-6.9-1.3c-0.5-0.1-0.8-0.2-1.3-0.2c-0.9,0.1-0.9-0.5-1.1-1.2c-0.9-5.2-0.8-10.4-0.2-15.6c0.1-1,0.1-1,1.2-0.8
					c1.4,0.2,2.7,0.8,4,1.3c0.2,0.1,0.5,0.1,0.7,0.2c0.2,0,0.5-0.1,0.6-0.2c0.1-0.2,0-0.3-0.1-0.6s-0.5-0.3-0.7-0.5
					c-4-1.7-8.2-2.2-12.5-1.2c-0.1,0-0.2,0-0.4,0C24.7,95.3,24.3,95.5,24.3,95.1z"/>
			</g>
			<path class="st1" d="M198.7,107.7c0,0.2,0,0.6,0,0.8c0,25.7,0,51.3,0,77.1c0,0.7-0.1,0.9-0.9,0.9c-15.1,0-30.2,0-45.4,0
				c-0.2,0-0.6,0-0.9,0c2-0.9,3.7-2.1,5.2-3.5c2.7-2.4,5.1-5.3,6.1-8.8c0.6-2.1,0.4-2.8-1.4-4c-2.5-1.8-5.2-3.1-7.8-4.7
				c-5.1-3.1-9.7-6.7-14.1-10.8c-0.4-0.3-0.8-0.8-1.2-1s-0.2-0.5,0-0.7c4-3.1,7.6-6.8,10.6-10.7c0.4-0.5,0.6-0.3,0.9-0.1
				c2.4,1,4.5,2.7,6.6,4c5.1,3.3,9.2,7.5,13.4,11.8c1.2,1.3,2.4,2.5,3.8,3.6c1.2,1,2,1,3.3,0.1c0.5-0.3,0.8-0.7,1.1-1.2
				c0.9-1.6,1.9-3.1,2.8-4.7c0.8-1.4,0.6-2.1-0.5-3.2c-1.3-1.3-3-2-4.6-2.3c-5.4-1.2-10-3.8-14.3-7c-2.7-2.1-5.3-4.2-8-6.2
				c-0.5-0.3-0.6-0.7-0.2-1.3c1.5-3,3.1-6,4.5-9.1c0.2-0.5,0.4-0.6,0.9-0.3c3.2,1.5,5.9,3.5,8.5,5.7c1.9,1.6,3.8,3.5,6,4.7
				c2,1,3.2,1,4.8-0.5c2.6-2.2,4-5.1,4.7-8.2c0.6-2.8,0.7-5.5-0.6-8.3c-0.4-0.8-0.9-1.4-1.9-1.7c-2.7-0.9-5.4-0.9-8.2-0.7
				c-3.7,0.3-7.3,0.2-10.9-0.3c-0.5-0.1-0.7-0.2-0.6-0.8c0.6-3.9,1.1-7.8,1.2-11.8c0-0.5,0-0.7,0.6-0.7c4.7,0,9.5,0,14.2,0.8
				c3.9,0.7,7.7,1.5,11.3,2.9c0.9,0.3,1.9,0.8,2.7,1.4c1.5,0.9,3.2,1.5,5,2c1.4,0.3,2.1,0,2.5-1.4
				C198.4,108.8,198.5,108.2,198.7,107.7C198.6,107.7,198.7,107.7,198.7,107.7z"/>
			<g>
				<path class="st0" d="M66.2,6.5c7.9,1.7,12.3,1.6,20-0.6c-0.2,1.7-0.2,3.3-0.7,5c-1.1,3.5-2.6,6.8-3.4,10.4
					c-0.9,3.7-1.4,7.4-1.1,11.1c0.4,3.2,0.9,6.3,1.7,9.5c0.1,0.7,1.1,1,0.5,1.2c-1.9,0.5-3.9,1.5-5.7,2c-0.5,0.1-2.1,1.3-2.2,0.7
					c-0.8-4.7-2.2-10.8-3.1-15.5c-0.5-2.5-0.7-3.2-1.8-5.7c-1.3-3.1-3.5-7.6-4.1-10.8C65.6,11.4,66.4,8.8,66.2,6.5z"/>
			</g>
			<g>
				<path class="st0" d="M194.8,110.9c-0.5-0.2-2.4-0.7-2.8-0.9c-4.4-2.8-9.7-4.3-14.8-5.1c-4.6-0.8-9.8-1.7-14.4-1.5
					c-0.8,0-2.1,0-2.6-0.5c-0.5-0.5,0.1-2.2,0.1-3c0-0.6,0.1-1.3,0-1.8c-0.1-0.6,0.7-0.1,1.3,0c1.3,0.2,2.7,0.5,4.1,0.6
					c2.7,0.2,2.8-1.2,3.7-3.8c0.5-1.6,1.9-1.2,3.5-1.3c4.4-0.1,8.6-0.5,12.9-1.3c1.2-0.2,2.6-1.5,3.7-1.8c0.1,0,0.1,0.6,0.2,0.7
					C189,97.5,192,105.1,194.8,110.9z"/>
			</g>
			<g>
				<path class="st0" d="M7,130.2c1.3-3.3,1.5-6.1,0.9-9.3c-0.6-3.3-3.1-7.4-5.2-10.3c1.5,0.2,3.9,0.3,5.3,0.6
					c3.8,0.6,7.7,2.4,11.5,3c3.9,0.6,7.9,0.1,11.7-0.8c0.2-0.1,0.7-0.5,0.7,0.2c0,0.5,0.6,0.9-0.4,1.3c-2.7,1-4.1,3.1-4.5,5.9
					c-0.1,0.7-0.4,1-1.1,1.3c-2.5,0.9-4.7,3.6-7.1,5c-3.5,2.1-7.2,3.3-11.1,4.7C7.8,131.5,7.2,130.2,7,130.2z"/>
			</g>
			<g>
				<path class="st0" d="M45.3,128.5c0,2.7-1.7,2.5-4,3.7c-1.7,0.7-3.3,0.8-5,0.1c-4-1.5-6.9-4.2-7.8-8.3c-0.4-1.5-0.5-3,0-4.5
					c0.7-2.3,2.5-5.5,5-5.7c3.4-0.2,7.8,2.9,9.9,5.3C45.3,121.1,45.3,125.9,45.3,128.5z"/>
			</g>
			<g>
				<path class="st0" d="M90.3,40.5c1.2,0,2.2,1.3,3.4,1.7c4.8,1.7,6.1,6.9,2.6,10.6c-1.7,1.8-3.9,2.5-6.4,2.9c-2,0.2-3.9,0-5.7-0.8
					c-3.1-1.4-4.8-4.7-3.9-7.5c0.4-1.2,0.9-2.1,1.8-3C84.4,42.2,87.2,40.3,90.3,40.5z"/>
			</g>
			<g>
				<path class="st0" d="M169.9,92.1c0,1.6-0.2,2.8-0.9,3.9c-0.9,1.5-2.4,2.1-4,1.3c-2.4-1-3.9-2.9-5-5.1c-0.9-2.1-1.8-4.2-2.2-6.3
					c-0.5-2-0.1-3.8,0.6-5.7c0.7-1.7,2.4-2.3,4.1-1.5c1.5,0.6,2.6,1.7,3.5,2.9C168.5,84.7,169.8,88.4,169.9,92.1z"/>
			</g>
			<g>
				<path class="st0" d="M171.7,130.8c0-3.7,1.2-7.2,3.5-10.2c0.6-0.7,1.3-1.3,2.1-1.7c1.3-0.7,2.5-0.3,3.2,0.9
					c0.8,1.4,1.1,2.9,0.9,4.5c-0.1,3.9-1.3,7.5-3.9,10.5c-0.4,0.5-0.8,0.8-1.3,1c-2,1-3.3,0.6-4.1-1.5
					C171.9,133.1,171.8,132.1,171.7,130.8z"/>
			</g>
			<g>
				<path class="st0" d="M18.7,88.7c0.1-2.8,0.6-6,2.2-8.9c0.4-0.6,0.8-1.3,1.3-1.7c0.9-1.2,2.1-1,3,0.2c0.8,1.2,1.1,2.5,1.3,3.8
					c0.5,4.4-0.1,8.5-2.4,12.3c-0.2,0.5-0.6,0.9-1.1,1.4c-0.9,1-2.1,1-3-0.2c-0.7-0.9-0.9-2-1.2-3.1C18.8,91.4,18.8,90.2,18.7,88.7z
					"/>
			</g>
			<g>
				<path class="st0" d="M158.8,44.2c0.7,0,1.3,0.2,1.9,0.7c4.3,3.2,7.2,7.3,8.7,12.3c0.2,0.8,0.5,1.6,0.4,2.4
					c-0.2,1.2-0.8,1.6-2,1.2c-1.1-0.3-2-0.9-2.8-1.7c-3.5-3.1-6.3-6.8-7.4-11.3c-0.2-0.8-0.2-1.6-0.1-2.5
					C157.6,44.4,158.1,44.2,158.8,44.2z"/>
			</g>
			<g>
				<path class="st0" d="M7.6,125.6c0,1.6-0.1,2.9-0.6,4.2c-0.5,1.2-1.1,1.3-2.1,0.5c-1.4-1.2-2.1-2.8-2.8-4.4
					c-1.2-2.7-1.8-5.4-2-8.3c-0.1-1.7,0.1-3.3,0.6-5.1c0.4-1.2,1.1-1.4,2-0.6c0.8,0.7,1.5,1.6,2,2.5C6.6,118.1,7.4,121.9,7.6,125.6z
					"/>
			</g>
			<g>
				<path class="st0" d="M41.9,163.5c-1.2,0-2-0.3-3-0.7c-4.3-2-8-4.7-10.9-8.4c-0.6-0.8-1.1-1.6-1.4-2.7c-0.2-0.8,0-1.3,0.9-1.2
					c1.1,0.1,2,0.2,3,0.7c4.7,2,8.5,4.8,11.6,8.8c0.4,0.5,0.6,0.9,0.8,1.5C43.7,163,43.5,163.5,41.9,163.5z"/>
			</g>
			<g>
				<path class="st0" d="M34.9,42.6c0.1-2.2,0.8-3.5,1.7-4.7c2.2-3.7,5.3-6.5,9.5-8c1.5-0.6,2.2,0,2.1,1.6c-0.1,1-0.5,2.1-1.1,2.9
					c-2,3.5-4.6,6.3-8.2,8.3c-0.6,0.3-1.2,0.6-1.8,0.8C35.6,44,34.9,43.4,34.9,42.6z"/>
			</g>
			<g>
				<path class="st0" d="M161.4,173.6c-0.1,0.8-0.5,1.7-0.9,2.8c-1.5,3-3.8,5.3-6.1,7.6c-1.3,1.2-2.7,1.7-4.4,2.1
					c-0.9,0.2-1.4-0.2-1.4-1.2s0.2-1.8,0.6-2.7c1.9-3.7,4.4-6.9,7.9-9.1c0.7-0.5,1.5-0.9,2.4-1.2
					C160.8,171.5,161.3,171.9,161.4,173.6z"/>
			</g>
			<g>
				<path class="st0" d="M116.6,19.6c0.5,0,1.2,0.2,1.8,0.5c3.5,1.6,6.9,3.7,9.5,6.6c1.2,1.3,2.4,2.7,3,4.3c0.1,0.5,0.4,0.9-0.1,1.3
					c-0.5,0.3-0.9,0.5-1.5,0.3c-5.2-1.6-9.3-4.8-12.6-9c-0.6-0.7-1.1-1.5-1.3-2.3C114.7,20.1,115.2,19.5,116.6,19.6z"/>
			</g>
			<g>
				<path class="st0" d="M104.6,179.9c-3.3-0.1-6.5-0.7-9.3-2.3c-0.5-0.2-0.9-0.6-1.3-0.9c-0.8-0.7-0.7-1.6,0.1-2.3
					c0.9-0.7,2.1-0.7,3.3-0.8c3.9-0.5,7.6,0.2,11,2c0.7,0.3,1.3,0.9,1.9,1.6c0.5,0.7,0.5,1-0.2,1.5c-1.4,1-3.2,1.3-4.8,1.4
					C104.9,179.9,104.8,179.9,104.6,179.9z"/>
			</g>
			<g>
				<path class="st0" d="M76.6,180.6c-2.8-0.2-5.7-0.7-8.2-2.5c-0.5-0.3-0.8-0.8-1.2-1.3c-0.7-1-0.5-1.8,0.7-2.4
					c1.4-0.7,2.8-0.9,4.4-0.8c3.1,0.2,6,0.9,8.4,2.9c0.7,0.6,1.4,1.2,1.2,2.2c-0.1,0.9-1.1,1.2-1.9,1.4
					C79,180.6,77.9,180.6,76.6,180.6z"/>
			</g>
			<g>
				<path class="st0" d="M196,109.8c-1.7-0.8-2.4-2.2-3-3.7c-1.9-4.2-3-8.4-2.7-12.9c0-0.7,0.1-1.3,0.4-2c0.4-1,0.9-1,1.7-0.2
					c0.9,1.2,1.7,2.4,2.2,3.7c1.9,4.3,2.5,8.9,2.2,13.5C196.6,108.9,196.3,109.5,196,109.8z"/>
			</g>
			<g>
				<path class="st0" d="M78.6,3.1c1.4,0,2.8,0,4.3,0c0.9,0,1.8,0.2,2.6,0.7C85.7,3.9,86,4,85.9,4.4c0,0.3-0.4,0.3-0.6,0.5
					c-1.7,0.7-3.4,1.2-5.2,1.3c-3.3,0.3-6.6,0.2-9.9,0.1c-0.9,0-1.9-0.2-2.8-0.6c-0.2-0.1-0.7-0.2-0.7-0.6c0-0.2,0.4-0.3,0.6-0.5
					c1.7-1,3.5-1.3,5.4-1.5C74.6,3,76.6,3,78.6,3.1z"/>
			</g>
			<g>
				<path class="st0" d="M198.1,107.2c0-0.3,0-0.8,0-1.2c0,0,0,0,0.1,0C198.3,106.5,198.3,106.8,198.1,107.2
					C198.1,107.3,198.1,107.3,198.1,107.2z"/>
			</g>
			<g>
				<path class="st0" d="M24.8,95.1c0.1,0.2,0.4,0.1,0.6,0.2c-0.2,0.1-0.5,0.2-0.7,0.1C24.6,95.3,24.7,95.2,24.8,95.1z"/>
			</g>
		</g>
	</g>
	<path d="M44.4,141c-1.7-2.5-4.7-4.6-5.7-7.4c-6.5-1-10-5-11.5-11.1c-2.6,0.8-5,2.1-7.3,3.5c-3.4,2.1-7.1,3.9-11,5.1
		c-0.4,0.1-0.7,0.2-1.2,0.3c-1.3,0.3-2.4,0-3.4-0.8c-1.4-1.3-2.1-2.9-3-4.6c-1.5-3.5-2.1-7.3-2.1-11c0-1.2,0.1-2.3,0.7-3.3
		c0.7-1,1.3-1.4,2.5-1.2s2.2,0.2,3.2,0.3c3.5,0.6,7.3,1.2,10.9,1.8c4.7,0.7,9.6,0.8,14.3-0.3c0.5-0.1,0.8-0.2,1.4-0.5
		c-0.7-5.1-0.7-10.2,0.1-15.3c-1.7-0.2-3.2-0.2-4.7,0.1c-1.8,0.3-3.4,0.7-5.1,1c-1.2,0.2-2-0.2-2.7-1c-0.6-0.7-0.8-1.5-1.2-2.3
		c-0.7-2.4-0.7-5-0.5-7.5c0.2-2.4,0.9-4.6,2-6.9c0.6-1.2,1.2-2.1,2.2-2.9c0.9-0.7,2.2-0.7,3.1,0c1.3,1,2.7,2.1,4,3.2
		c1.5,1.3,3,2.8,4.5,4c0.2,0.2,0.6,0.5,0.9,0.7c3.4-10.6,9.3-19.4,17.6-26.9c-0.2-0.3-0.4-0.6-0.5-0.7c-3.7-3.5-7.4-7-11.7-9.7
		c-1.4-0.8-2.8-1.6-4.3-2.4c-2-1.2-2.2-2.1-1.5-4.3c0.7-2.4,2.2-4.5,4-6.2c1.2-1.3,2.5-2.5,3.9-3.6c1.2-0.9,2.6-1.7,4.1-1.8
		c0.9-0.1,1.8,0.2,2.4,0.9c2.5,3,3.4,6.5,4.1,10c0.7,4.3,2.2,8.1,4.7,11.6c0.2,0.5,0.6,0.7,0.8,1.2c3.9-2.7,8-4.8,12.4-6.7
		c-0.4-1.5-0.7-3-1.1-4.4c-0.9-3.3-1.5-7-3-10.3c-0.7-1.4-1.3-2.9-2-4.3c-0.6-1.2-1.4-2-2.6-2.7c-0.6-0.3-1.2-0.7-1.8-0.9
		c-0.9-0.7-1.3-1.7-1.1-2.9c0.4-1.3,1.2-2.1,2.2-2.8c1.2-0.7,2.5-0.9,3.8-1c0.4,0,0.6-0.1,0.8-0.1c-0.4-1.8-0.7-3.6-0.8-5.4
		c0-1.6,0-3.5,0-5.2c0-1,0.6-1.8,1.7-2.1c1.8-0.5,3.4-0.9,5.3-1.3c3.2-0.5,6.3-0.5,9.5-0.1c1.2,0.1,2.5,0.3,3.7,0.6
		c0.9,0.2,1.3,0.8,1.2,1.8c-0.1,0.7-0.1,1.3,0,2c0.1,2.9-0.7,5.5-1.8,8.2C82.8,21.2,81.6,27,82.1,33c0.2,2.8,0.8,5.4,1.3,8.2
		c0.1,0.3,0.2,0.7,0.4,0.9c1.7-0.5,3.2-0.9,4.7-1.3c2-0.5,4.1-0.1,6.1,0.7c0.6,0.2,1.1,0.5,1.7,0.5c4,0,8,0.3,12.1,1
		c0.1,0,0.2,0,0.2,0c0-1.2-0.1-2.3,0-3.6c0.4-3.1,0.7-6.2,1.1-9.3c0-0.3,0.2-0.7,0.4-0.9c1.3-2.9,2.5-5.8,4.4-8.4
		c0.5-0.7,1.1-1,1.9-0.9c1.2,0.2,2.5,0.3,3.5,0.8c4.5,2,8.2,5,10.9,9c0.6,0.7,0.7,1.6,1.1,2.4c0.4,0.7-0.1,1.4-0.6,2
		c-1.8,2-4,3.2-6.5,4.2c-3.4,1.4-5.9,3.8-7.7,7c0.5,0.2,0.7,0.5,1.1,0.6c3.7,1.3,7.2,3,10.6,4.7c1.3,0.7,2.6,1.7,3.8,2.5
		c2,1.4,3.9,2.9,6,4.2c2,1.3,3.4,3,5,4.6c0.5,0.6,0.9,0.9,1.5,1.6c1.4-2,2.8-3.6,4.1-5.4c2-3.1,4.1-6.2,6.1-9.3
		c0.6-0.7,0.8-1.6,0.8-2.5c0.1-1.8,1.5-2.5,3.4-2c2.1,0.7,3.9,2.1,5.3,3.9c2.4,2.9,4.5,6,5.4,9.6c0.2,0.9,0.2,2,0.2,3.1
		c0,0.9-0.7,1.5-1.5,1.7c-1.7,0.5-3.3,0.8-5,0.7c-3.4-0.2-6.6,0.7-9.7,2.3c-1.4,0.7-2.8,1.6-4.3,2.3c-0.4,0.2-0.6,0.5-0.7,0.6
		c2.2,3.9,4.5,7.7,6.7,11.6c0.8-1.4,2.5-1.5,3.9-2c1.3-0.5,2.7,0,3.9,0.7c2.6,1.7,4.1,4.2,5.3,6.8c1.1,2.3,1.5,4.8,1.8,7.5
		c1.7,0,3.3,0.1,4.8,0c2.8-0.2,5.7-0.5,8.5-0.9c2.1-0.5,4.3-1.2,6.3-1.8c0.7-0.2,1.2-0.2,1.7,0.2c0.7,0.7,1.3,1.4,1.9,2.2
		c0.7,1.2,1.2,2.4,1.8,3.8c0.9,3,1.9,6,2,9c0.1,1.4,0,2.8-0.4,4c-0.4,1.4-1.1,1.8-2.5,1.4c-1.4-0.5-3-0.8-4.1-1.6
		c-4.1-2.5-8.9-3.5-13.5-4.5c-5.2-1-10.4-1-15.7-1c-0.1,0-0.2,0-0.5,0.1c-0.1,2.2-0.2,4.4-0.5,6.6c-0.2,2.1-0.6,4.3-0.8,6.5
		c1.3,0.5,2.8,0.5,4.3,0.7c3.7,0.5,7.4-0.2,11-0.2c1.5,0,3.1,0.5,4.6,0.8c0.8,0.2,1.5,0.8,1.8,1.6c0.5,0.9,0.8,2,0.9,3.1
		c0.4,3.9-0.6,7.6-2.7,11c-0.8,1.4-2,2.4-3.4,3.3c-1.1,0.7-2.2,0.6-3.4-0.1c-2.5-1.3-4.6-3.3-6.6-5.1c-2.7-2.3-5.7-4.4-8.9-5.8
		c-1.8,3.6-3.4,7.2-5.2,10.5c2.7,2.1,5.4,4.4,8.3,6.5c1.7,1.3,3.4,2.3,5.1,3.5c3,2,6.3,3,9.7,3.8c1.7,0.5,3.3,0.9,4.5,2.2
		c1.1,1,1.2,1.8,0.6,3.1c-0.9,1.7-1.9,3.3-3,4.8c-0.4,0.6-0.7,0.9-1.3,1.3c-1.2,0.7-2,0.7-3-0.2c-1.2-1-2.4-2.2-3.4-3.3
		c-3.9-4-7.8-8.2-12.5-11.3c-2.5-1.7-4.8-3.6-7.7-4.8c-0.2-0.1-0.5-0.2-0.7-0.3c-3.3,4.3-7,8.2-11.5,11.5c1.5,1.4,3,2.7,4.4,3.9
		c4.5,3.9,9.2,7.3,14.3,10.2c2,1,3.9,2.2,5.7,3.6c0.7,0.7,0.9,1.5,0.7,2.4c-0.4,2-1.2,3.5-2.2,5.1c-1.7,2.4-3.5,4.5-6,6.1
		c-0.7,0.6-1.5,1-2.2,1.5c-0.7,0.3-1.4,0.6-2.1,0.7c-0.9,0.1-1.7-0.5-2-1.3c-0.2-0.6-0.6-1-0.7-1.6c-0.7-1.4-1.5-2.8-2-4.2
		c-3.2-7.6-7.2-14.6-12.8-20.9c-0.4-0.5-0.7-0.7-0.8-1c-3.5,1.7-6.9,3.5-10.3,4.8c-3.4,1.4-7.2,2.3-10.5,3.3c0.6,2,1.1,3.8,1.5,5.9
		c0.2,1.4,0.1,2.8,0.2,4.2c0,0.5-0.1,0.7,0,1.2c0.1,1.2-0.4,2-1.4,2.3c-1.2,0.5-2.4,0.8-3.5,0.9c-3.5,0.3-7.1-0.1-10.4-1.6
		c-1.1-0.5-2-1-2.8-2c-0.6-0.6-0.7-1.2-0.7-2c0.5-2,0.9-3.7,2.1-5.3c0.6-0.7,1.1-1.5,1.8-2.3c-4.6-0.5-9-0.9-13.5-1.4
		c-0.5,1.6-0.4,3.2-0.2,4.7c0.1,1.6,0.4,3.3,0.4,4.8c0,0.9,0,2-0.2,2.9c-0.2,1.3-1.2,2-2.2,2.2c-1.7,0.6-3.3,0.7-5,0.5
		c-2.5-0.2-4.7-0.9-7-2.1c-1.1-0.6-2-1.4-2.5-2.4c-0.4-0.7-0.2-1.5,0.1-2.2c1.2-2.8,2.6-5,4.5-7.3c0.8-1.2,1.5-2.8,2.5-4
		c-8.5-3.5-15.7-7.6-22.2-14c-0.9,1.2-1.9,2.4-2.5,3.8c-0.7,1.7-1.3,3.5-2,5.3c-0.7,1.7-1.3,3.3-2,5c-0.4,0.7-1.3,1.2-2.2,0.9
		c-1.3-0.3-2.7-0.7-3.9-1.2c-3.8-2-7.3-4.3-10-7.5c-0.7-0.7-1.3-1.7-1.8-2.5c-0.8-2-0.5-2.7,1.1-3.7c1.2-0.8,2.5-1.5,3.8-2
		c2-0.9,4.3-1.8,6.4-2.5c2-0.7,3.8-1.8,5.6-3.1C44.2,141.2,44.3,141.1,44.4,141z M98.9,143.6c0.1,0,0.2,0,0.4-0.1
		c0.1,0.3,0.4,0.6,0.5,0.8c0.2,0.9,0.5,2,0.7,2.9c0.7,4.2,1.1,8.2,0.5,12.3c-0.4,2.2-0.9,4.4-2.1,6.1c-1.1,1.5-2.1,3-3.3,4.5
		c-0.6,0.8-1.2,1.7-1.4,2.8c6.1-1.6,11.6-0.8,17,2.7c-0.1-1.4-0.2-2.5-0.5-3.7c-0.6-3.2-1.9-6-3.4-8.7c-3.4-5.4-4-11.3-3.9-17.4
		c0-0.2,0.2-0.5,0.5-0.9c0.6,0.7,0.7,1.4,0.7,2c0.1,2,0.1,3.8,0.2,5.9c0.4,4.6,2.5,8.5,4.7,12.5c6.4-0.8,18.2-5.9,20.8-8.2
		c-1.2-1.5-3-2.5-3.7-4.4c0.7-0.5,0.9-0.1,1.3,0.2c1.2,1.3,2.2,2.5,3.4,3.7c3,2.9,5.4,6,7.6,9.3c3,4.7,5.7,9.7,7.4,15
		c0.4,0.7,0.7,1.5,1.2,2.4c2.5-5.9,6.3-10.2,12.2-12.8c-0.9-0.6-1.9-1-2.7-1.5c-4.6-2.2-8.7-5.2-12.8-8.3c-4-3.1-7.4-6.8-11.6-9.8
		c-0.4-0.2-0.5-0.6-0.7-0.8c0.1-0.1,0.2-0.2,0.2-0.3c1.9,0.5,3,2,4.5,2.9c3.3-2.5,6.3-5.4,8.9-8.7c0.8-1,2-2,2.4-3.2
		c0-0.2,0.7-0.3,0.9-0.2c0.2,0,0.6,0.3,0.7,0.5c5.4,2.9,10.3,6.5,14.7,10.6c2.5,2.3,4.7,4.7,7.1,7.3c0.7,0.7,1.5,1.3,2.2,1.8
		c0.9,0.7,1.7,0.6,2.2-0.5c1.1-1.5,2-3.1,3-4.7c0.7-1.5,0.6-2.3-0.9-3.1c-1.2-0.7-2.4-1-3.7-1.4c-4.7-1.2-8.9-3.2-12.8-6
		c-3.4-2.5-6.9-5.2-10.3-7.8c-0.4-0.2-0.1-0.2-0.2-0.3c0.4-0.7,0.7-1.5,0.8-2c0.9-1.8,2-3.6,2.8-5.4c0.7-1.3,1.1-2.7,1.8-4
		c-2.2-0.9-4.4-1.7-6.5-2.1c-2.6-0.6-5.2-0.7-7.8-0.3c-0.7,0.1-1.4,0.1-2-0.7c0.7-0.1,1.2-0.2,1.8-0.2c2.4-0.1,4.8-0.3,7.3-0.1
		c3,0.2,5.6,1.4,8.3,2.4c2.1,0.8,4.1,2.1,6.1,3.5c2.2,1.7,4.4,3.6,6.5,5.4c0.4,0.3,0.7,0.7,1.2,0.9c-1.2-6.6,0.4-12.1,5.3-16.6
		c-1.1,0-2-0.1-3,0c-2.8,0.2-5.6,0.5-8.4,0.3c-2.8-0.1-5.6-0.6-8.3-1c-2.5-0.5-5-0.9-7.4-1.5c-1.2-0.2-2.4-0.5-3.5-0.7
		c-1.3-0.3-2.5-0.7-3.8-1.2c-0.2-0.1-0.6-0.2-0.7-0.3c0.2-0.6,0.7-0.6,1.1-0.5c0.9,0.2,2,0.3,3,0.6c4.3,0.8,8.4,1.8,12.6,2.8
		c0.4,0.1,0.7,0.1,1.3,0.1c0.4-2.7,0.7-5.1,0.9-7.6c0.2-3.3,0.4-6.6-0.1-10c-0.1-1.2-0.1-1.2-1.3-1.4c-4.7-0.9-9.3-1.3-14.1-1.4
		c-2,0-4,0.3-6.1,0.5c-0.2,0-0.6,0-0.7,0c0-0.1-0.1-0.2-0.1-0.5c0-0.1,0-0.2,0-0.5c2.7-0.7,5.4-0.7,8.2-0.7c2.8,0.1,5.6,0.3,8.4,0.7
		c2.7,0.3,5.3,0.8,8,1.4c-2.2-2.3-3.9-5.1-4.7-8.2c-0.8-3-1.3-6-0.2-9.2c-3.3,2.5-6.3,5.3-10,7c-3.7,1.7-7.6,3-11.7,3.8
		c-0.1-0.3-0.2-0.7-0.4-0.9c7.4-1.6,14.4-4.3,20-9.5c-1.9-4.2-4-8.1-6.7-11.6c-6,3.6-9.8,9-14.2,14.3c0-0.6-0.1-0.8,0-1
		c0.1-0.3,0.4-0.6,0.5-0.7c1.8-2.1,3.4-4.3,5.1-6.2c1.1-1.3,2-2.4,3.3-3.5c3.4-3,7.3-5.3,11.5-7.3c3.2-1.5,6.4-2.4,10-2
		c0.6,0.1,1.1-0.1,1.7-0.1c-2.4-1.6-4.3-3.6-5.9-5.9c-1.7-2.2-3-4.6-3.8-7.4c-0.2,0.1-0.4,0.2-0.4,0.2c-2,3.1-3.8,6-5.9,9.1
		c-2.8,4.3-6.1,8.1-10.4,11.1c-1.5,1-3,2.3-4.5,3.5c-0.9,0.7-1.9,1.5-2.8,2.2c-0.6,0.5-1.1,0.5-1.8,0c4.6-3.6,9.3-6.9,13.7-11
		c-1.3-1.3-2.4-2.5-3.7-3.6c-2.4-2-4.8-3.6-7.3-5.5c-3.4-2.9-7.4-5.1-11.6-6.9c-1.8-0.7-3.4-1.4-5.3-2.1c-0.4,0.7-0.6,1.2-0.7,1.7
		c-0.9,3.1-1.5,6.1-1.7,9.3c0,1,0,2.1,0,3.1c0,0.2-0.2,0.6-0.4,0.7c-0.7-0.3-0.7-0.8-0.7-1.4c-0.1-2.4,0.1-4.8,0.6-7.4
		c0.6-2.8,1.1-5.7,2.8-8.1c2-3.1,4.7-5.5,8.3-6.9c1.3-0.6,2.5-1.2,3.7-1.7c0.5-0.2,0.7-0.6,1.1-0.8c-6.7-2.2-11.8-6.1-15.5-12.2
		c-0.5,0.9-0.9,2-1.4,2.9c-0.7,2-1.8,3.9-2.1,6c-0.7,3.2-0.9,6.3-0.8,9.7c0.1,2.7,0,5.3,0,8.1c0,0.9,0,2-0.2,3
		c-0.5,2.1-0.8,4.2-1.3,6.1c-0.1,0.7-0.2,1.3-0.5,2c-0.1,0.5-0.1,1-0.8,0.9c-0.6-0.1-0.4-0.7-0.2-1c0.2-0.7,0.4-1.4,0.6-2.1
		c0.6-2.5,1.4-5.2,1.4-7.8c0-1.2,0-2.2,0-3.3c0-0.7,0.1-1.5,0.2-2.3c-3.9-0.7-7.6-1.3-11.7-1c0.6,0.7,0.8,1,1.3,1.4
		c1.9,2,2.2,5.1,0.7,7.6c-0.5,0.7-0.8,1.2-1.3,1.8c-0.7,1.4-1.7,2.7-2.2,4c-0.5,0.9-0.6,2-0.5,3.2c0.4,2.4,0.9,4.6,1.9,7
		c0.1,0.3,0.5,0.7-0.1,0.9s-0.7-0.3-0.8-0.7c-0.1-0.2-0.2-0.5-0.4-0.7c-0.5-1.5-0.9-3.1-1.3-4.6c-0.6-2.3-0.6-4.6,0.7-6.9
		c0-0.1,0-0.2,0.1-0.5c-3.1,1.5-6.1,1.7-9.6,0.8c0.4,0.5,0.5,0.7,0.6,0.8c1.2,1.8,1.9,3.7,1.9,5.9c0,3-0.1,6-0.2,8.9v0.1
		c-0.1,0.2-0.4,0.7-0.5,0.7c-0.5,0-0.6-0.3-0.6-0.7c0-1.6,0.1-3.1,0.1-4.6c0-2,0.2-3.9,0-5.9c-0.4-3-2.1-5.1-4.5-7
		c-3-2.4-3.5-6.2-1.5-9.3c0.1-0.2,0.4-0.6,0.7-0.9c-2.2,0.7-4.4,1.2-6.5,1.8c-0.7-3.6-1.3-7.2-1.9-10.6c-0.5-2.4-0.7-5-1.7-7.4
		c-0.5-1-0.8-2.1-1.3-3.2c-0.7-2-1.7-3.8-2.2-5.8c-0.2-0.7-0.7-0.8-1.3-0.8c-1.4,0.1-2.8,0.5-4,1.2c-0.6,0.5-1.1,0.9-1.4,1.5
		c-0.7,0.9-0.4,1.8,0.7,2.4c0.5,0.3,0.8,0.6,1.4,0.7c1.5,0.7,2.5,1.7,3.2,3.2s1.3,3,2,4.5c1.4,3.3,2,7,3,10.4
		c0.4,1.3,0.6,2.7,0.8,3.9c0.2,0.8,0.4,0.9-0.5,1.2c-3.5,1.3-6.9,3.1-10,5.1c-0.7,0.6-1.7,1-2.5,1.6c0.8,1,1.7,2.1,2.5,3.1
		c1.2,1.4,2.5,2.7,3.8,3.9c0.2,0.3,0.7,0.7,0.4,0.9c-0.5,0.5-0.7,0-1.1-0.3c-0.5-0.5-0.8-0.9-1.3-1.4c-2.1-2-4-4.4-5.7-6.8
		c-2-3.1-3.8-6.3-4.7-10c-0.6-2.2-0.9-4.5-1.5-6.7c-0.5-1.6-0.8-3.1-2-4.5c-2.2,5.9-6.3,10-12.2,12.7c1.3,0.7,2.6,1.3,3.8,2
		c5,3.2,9.5,7,13.4,11.3c2,2.1,3.4,4.5,5.2,6.7c0.2,0.3,0.5,0.7,0.5,0.9c0,0.2-0.1,0.5-0.2,0.7c-0.2-0.1-0.6-0.1-0.7-0.2
		c-0.2-0.2-0.4-0.6-0.6-0.7c-1.7-2.5-3.5-4.7-5.6-7c-7.9,6.6-15.2,17.1-18,26.8c1.1,0.6,2.1,1.2,3.4,1.7c1.2,0.6,2.4,0.8,3.5,1.3
		c0.5,0.1,0.9,0.2,0.8,1c-0.5-0.1-0.9-0.1-1.4-0.2c-4.5-1.2-8.2-3.6-11.3-6.9c-0.8-0.9-2-1.8-3.3-2.9c1.2,6,0.6,11.3-2.6,16.6
		c0.5-0.1,0.8-0.1,1.2-0.2c4.3-1,8.3-0.7,12.2,1c0.4,0.1,0.7,0.2,0.8,0.5c0.1,0.1,0.2,0.5,0.2,0.6c-0.1,0.1-0.4,0.3-0.6,0.3
		c-0.4,0-0.7-0.2-0.9-0.3c-1.5-0.6-3.1-1-4.7-1.3c-0.7,6-0.8,11.9,0.4,17.5c1.5,0.2,2.8,0.5,4.1,0.7c0.9,0.2,1.9,0.6,2.8,0.7
		c0.8,0.1,1.8,0.2,2.6,0.2c4.1,0.5,8.3,0.3,12.3-0.7c0.6-0.1,1.1-0.1,1.8-0.1c-0.7,0.8-0.7,0.8-1.5,1c-4.1,1-8.4,0.9-12.5,0.7
		c-0.7-0.1-1.5-0.1-2.5-0.2c3.5,2.9,5.7,6.3,5.7,10.7c0.2-0.2,0.5-0.6,0.6-0.7c1.4-2.3,3.3-4,6-4.6c2.1-0.5,4.4-0.7,6.5-0.9
		c0.5,0,0.8,0.2,1.3,0.3c0,0.1,0,0.2,0,0.3c-0.5,0.1-0.8,0.3-1.3,0.3c-1.4,0.1-2.8,0.2-4.3,0.5c-3.1,0.5-5.6,1.6-7.3,4.2
		c-0.9,1.5-1.9,2.9-3,4.3c-0.5,0.7-0.9,1.3-1.7,1.7c-0.9,0.7-2,0.9-3.2,1.5c1.3,2.3,2.7,4.6,4.6,6.8c0.2-0.2,0.5-0.2,0.6-0.3
		c2-2,3.9-3.7,5.9-5.7c1.4-1.5,2.7-3.1,4-4.6c0.2-0.3,0.5-0.7,1.1-0.7c-0.1,0.3-0.2,0.7-0.4,0.8c-0.6,0.7-0.9,1.5-1.7,2.2
		c-1.7,1.8-3.4,3.7-5.1,5.5c-3.3,3.5-6.6,6.3-11,8.1c-2.6,0.9-5.8,2.5-8.4,3.7c-0.2,0.1,5.7,2.3,8.4,4.3c2.7,2,5.1,4.4,6.9,7.5
		c0.7-2,1.3-3.5,1.7-5.2c0.8-3.8,3.2-6.9,5.4-9.9c1.8-2.3,4-4.3,6.1-6.2c1.4-1.3,3-2.4,4.4-3.6c0.4-0.3,0.7-0.7,1.5-0.2
		c-4.7,3.6-8.9,7.5-12.4,12.1c4.7,5.3,17.4,12.3,22.8,14.1c0.5-1.3,0.9-2.4,1.3-3.7c0.5-1.6,0.7-3.2,1.2-4.7c0.1-0.5,0.1-1,0.9-1.2
		c0,0.3,0.1,0.7,0,0.9c-0.1,0.6-0.2,1-0.4,1.6c-0.7,3.8-2,7.4-4.3,10.6c-1.3,1.8-2.4,3.7-3.8,5.5c-0.4,0.5-0.6,0.8-0.9,1.4
		c5.4-1.3,9.8-0.1,14.1,3.2c-0.1-1.3-0.2-2.4-0.4-3.5c-0.5-3.3-0.4-6.6,0.4-9.9c0.4-1.8,0.8-3.5,1.2-5.3c0.2-1.2,0.5-2.2,0.7-3.3
		c0.1-0.5,0.2-0.7,0.7-0.7c0.2,0.1,0.4,0.6,0.5,0.8c0,0.1,0,0.2,0,0.2c-0.6,2.1-0.9,4.3-1.5,6.3c-0.4,1.4-0.7,2.8-0.9,4.4
		c4.8,0.7,9.6,1.2,14.3,1.3c2-2.9,2.8-6,3-9.3c0.1-3.9-0.4-7.8-1.1-11.6C98.8,144.8,98.9,144.2,98.9,143.6z M66.2,6.9
		c0.2,2,0.2,3.9,0.6,5.9c0.2,1.6,0.7,3.1,1.2,4.6c1.1,2.9,2.4,5.7,3.5,8.5c0.6,1.3,1.1,2.5,1.4,3.9c0.7,3.8,1.4,7.7,2.1,11.6
		c0.2,1.2,0.4,2.2,0.6,3.5c2.4-0.7,4.7-1.3,7.1-2c-0.1-0.2-0.1-0.5-0.1-0.7c-0.7-3.1-1.3-6.2-1.7-9.3c-0.6-5.4,0.6-10.6,2.4-15.7
		c0.7-2,1.5-4.2,2.1-6.1c0.5-1.5,0.5-3.1,0.7-4.7c-3.2,1.4-6.5,1.6-9.8,1.8C73,8.3,69.7,8.2,66.2,6.9z M160.8,102.7
		c1.5-0.1,2.8-0.2,4.1-0.2c4.6-0.1,9.1,0.6,13.6,1.4c4.6,0.8,8.9,2.2,12.9,4.6c0.6,0.3,1.2,0.6,2,0.9c-3.2-6-4.7-11.9-3.9-18.3
		c-1.3,0.5-2.5,0.9-3.8,1.3c-3.4,0.7-7.1,1.2-10.6,1.3c-1.4,0.1-2.8,0.1-4.3,0.1c-0.2,0.7-0.4,1.2-0.5,1.6c-0.8,2.8-2.5,3.7-5.4,3.3
		c-1.4-0.2-2.8-0.5-4.4-0.7C160.6,99.6,160.7,100.9,160.8,102.7z M32.5,114.5c-0.1-0.6-0.2-1-0.4-1.5c-0.4,0.1-0.7,0.1-0.8,0.2
		c-4.3,1-8.6,1.4-13,0.7c-3-0.6-5.9-0.9-8.9-1.5c-1.7-0.3-3.4-0.6-5.3-0.9c0.1,0.2,0.1,0.3,0.1,0.5c3.2,4.2,4.3,8.8,4.6,13.8
		c0.1,1.7-0.2,3.3-0.8,5c0.5-0.1,0.7-0.2,1.1-0.3c2.2-0.9,4.6-2,6.7-3.1c2.8-1.4,5.4-3.1,8.2-4.6c1.1-0.6,2.1-0.9,3.3-1.4
		C27.5,118.1,28.9,115.7,32.5,114.5z M38.9,132.5c0.5-0.1,1.1-0.1,1.7-0.2c2.5-0.7,4.1-2.9,4.1-5.7c0.1-3.7-1.5-6.7-4.3-9
		c-1.7-1.4-3.4-2.2-5.7-2.3c-2.7-0.1-5.3,1-6.1,4c-0.5,1.4-0.4,2.8-0.1,4.2c0.4,2.2,1.5,4.2,3.2,5.8
		C33.7,131.2,35.8,132.5,38.9,132.5z M89.1,55.7c1.7-0.1,3.1-0.3,4.5-0.8c2.4-0.9,4-2.5,4.8-5c0.8-2.3,0-4.7-2-6.5
		c-1.4-1.2-3.4-1.7-4.6-2c-2,0-3.4-0.6-6.9,0.8c-0.1,0.1-1.8,1.2-2.8,2.3c-1.9,2-2.4,5.2-0.5,7.6C83.7,54.9,86.3,55.6,89.1,55.7z
		 M169.6,92.3c-0.2-4.2-1.5-7.6-4-10.7c-0.8-1-1.8-2-3.1-2.5c-2-1-3.9-0.3-4.7,1.8c-0.4,0.8-0.5,1.8-0.6,2.8
		c-0.2,1.7,0.2,3.3,0.8,4.8c0.7,1.7,1.1,3.5,2,5c1.1,1.6,2.4,3.1,4.3,3.9c1.9,0.8,3.4,0.3,4.3-1.4C169.4,94.7,169.6,93.4,169.6,92.3
		z M181.4,124.2c0-1.5-0.4-3.2-0.7-4.2c-0.8-1.7-2.1-2.1-3.8-1.2c-0.7,0.5-1.3,0.8-1.9,1.5c-2.7,3.5-3.9,7.5-3.4,11.9
		c0.1,0.8,0.5,1.7,0.7,2.4c0.6,1.2,1.7,1.6,2.8,1.3c0.9-0.2,1.8-0.7,2.4-1.5C180.2,131.5,181.1,128,181.4,124.2z M26.9,84.6
		c0-0.7,0-1.4-0.1-2.1c-0.2-1.3-0.5-2.7-1.1-3.7c-0.9-1.7-2.2-1.8-3.4-0.3c-0.8,1-1.7,2.2-2,3.6c-0.8,2.7-1.3,5.3-1.2,8.1
		c0.1,1.8,0.2,3.5,1.1,5.1c0.9,1.8,2.4,2,3.5,0.3c0.7-0.7,1.1-1.7,1.5-2.5C26.3,90.4,26.8,87.7,26.9,84.6z M169.6,59.3
		c-0.1-0.3-0.1-0.8-0.2-1.3c-0.6-2.5-1.9-4.7-3.3-7c-1.5-2.3-3.5-4.3-5.9-6c-0.6-0.5-1.3-0.6-2-0.6c-0.6,0-0.8,0.3-1.1,0.9
		c-0.2,1.2-0.1,2.2,0.2,3.3c1.2,3.7,3.3,6.8,6.1,9.6c1.1,1,2.2,2.1,3.7,2.7C168.7,61.6,169.6,61,169.6,59.3z M8,126.4
		c-0.1-4.3-0.9-8-2.7-11.3c-0.6-1-1.2-2-2-2.9c-1.1-1-2-0.8-2.4,0.6c-0.4,1.4-0.6,2.8-0.6,4.3c0,1.5,0.4,3,0.7,4.5
		c0.7,2.9,1.7,5.5,3.4,8c0.4,0.5,0.8,0.8,1.3,1.2c0.6,0.3,1.1,0.2,1.4-0.3c0.2-0.3,0.5-0.7,0.6-1.2C7.9,128,7.9,127,8,126.4z
		 M41.7,163.2c1.9,0,2.2-0.6,1.8-1.8c-0.4-0.7-0.7-1.5-1.3-2.1c-3.1-3.8-7-6.7-11.6-8.5c-0.7-0.3-1.7-0.5-2.5-0.6
		c-1.2-0.1-1.5,0.5-1.1,1.5c0.4,0.7,0.7,1.4,1.1,2c2.6,3.3,6,6.1,9.9,8.1C39.3,162.6,40.6,163.1,41.7,163.2z M35.1,42.6
		c0,1.3,0.7,1.8,2,1.5c0.7-0.2,1.4-0.5,2-0.8c2.7-1.5,4.8-3.6,6.7-6.1c1.1-1.5,2-3,2.4-4.6c0.5-2-0.5-2.8-2.2-2
		c-1.7,0.7-3.2,1.5-4.6,2.5c-2,1.5-3.5,3.5-4.8,5.7C35.8,39.9,35.1,41.1,35.1,42.6z M129.4,33.2c1.4-0.1,1.8-0.6,1.3-1.8
		c-0.1-0.5-0.4-0.8-0.6-1.2c-0.7-0.9-1.4-2-2.1-2.9c-2.8-3-6.1-5.2-10-6.9c-0.6-0.2-1.2-0.3-1.9-0.3c-0.9,0-1.4,0.6-1.1,1.5
		c0.2,0.7,0.6,1.3,0.8,1.8c2.8,3.9,6.5,6.9,11,8.9C127.6,32.8,128.4,32.9,129.4,33.2z M161.2,173.4c0-1.7-0.5-2.1-1.7-2
		c-0.7,0.1-1.3,0.5-2,0.7c-3.5,2-6.1,5-8.2,8.5c-0.7,1-1.1,2.1-1.2,3.3c-0.1,1.3,0.4,1.7,1.5,1.5c1.3-0.3,2.6-0.7,3.7-1.6
		c2.6-2.3,5-4.7,6.6-7.8C160.6,175.1,160.9,174,161.2,173.4z M98.8,172.9c-0.7,0.1-2,0.3-3.4,0.6c-0.9,0.2-1.9,0.7-2,1.6
		c-0.1,0.9,0.7,1.5,1.5,2c1.8,1.2,3.8,1.7,5.9,2.1c2.5,0.5,5,0.7,7.6-0.1c0.7-0.2,1.2-0.6,1.8-0.8c0.7-0.6,0.7-0.9,0.2-1.6
		c-0.5-0.6-0.9-1-1.5-1.4C105.9,173.6,102.6,173.1,98.8,172.9z M71.5,173.3c-0.7,0.1-1.8,0.2-2.7,0.6c-2,0.7-2.2,2-0.8,3.3
		c0.8,0.8,2,1.6,3.2,2c2.5,0.8,5,1.4,7.7,0.9c0.8-0.1,1.8-0.5,2.5-0.8c0.8-0.6,0.9-1.3,0.5-2.1c-0.4-0.6-0.8-0.9-1.4-1.4
		C77.9,174,74.9,173.4,71.5,173.3z M195.5,110c0.4-0.7,0.7-1.2,0.7-1.7c0.1-1.5,0.1-3,0-4.5c-0.4-3.3-0.9-6.6-2.5-9.7
		c-0.6-1-1.2-2.1-2-3.1c-0.7-0.8-1.3-0.7-1.7,0.3c-0.2,0.7-0.4,1.4-0.4,2.1c-0.1,4.4,0.9,8.7,2.7,12.7c0.5,0.9,1.1,2,1.7,2.8
		C194.6,109.4,195.1,109.6,195.5,110z M66.6,5.8c0,0.1,0,0.2,0,0.3c0.4,0.1,0.6,0.5,0.8,0.5c1.1,0.2,2.1,0.6,3.3,0.6
		c2.4,0.1,4.7,0.1,7.2,0c2.2-0.2,4.5-0.5,6.7-1.4C85.3,5.5,85.8,5.5,86,5c-0.9-0.8-2-1.2-3.2-1.2c-2.4-0.1-4.7-0.2-7.2-0.1
		C73,3.8,70.5,4.2,68.1,5C67.6,5.3,67.1,5.5,66.6,5.8z"/>
	
		<image style="display:none;overflow:visible;enable-background:new    ;" width="213" height="177" xlink:href="FBB7186B.jpg"  transform="matrix(0.1918 0 0 0.1872 -15.9237 -0.2424)">
	</image>
</g>
<g id="Ebene_1_2_">
	<path class="st2" d="M147.9,68.1l-6.4,5l-3.6,5l3.6,10.2l5.6-3.2l8.1-4.5l-2.9-5.8L147.9,68.1z"/>
	<path class="st2" d="M142.2,95.7c0,0-0.7,8-0.6,10.6c0.4,3.6,0.8,6.8,0.8,6.8l8.8,2.3l6.7,1.5l1.3-7.7l0.4-7.3l-0.6-4.5l-8.6-1.4
		L142.2,95.7z"/>
	<path class="st2" d="M152.6,116.3c0,0,11.3,4,14.2,6.5c1.1,0.8,3.4,4.5,3.4,4.5l5-9.6H163L152.6,116.3z"/>
	<path class="st2" d="M144,122.5l-1.2,24.3l8.8-11.6l4-9.6L150,123L144,122.5z"/>
	<path class="st2" d="M173.9,152.3c-2.1-0.7-2.8-0.7-2.9-0.7c-0.2,0.3,0.7,1,1.2,1.5c0.1,0.2,1.5,1.6,2.8,1.2c0.5-0.2,0.9-0.7,0.8-1
		C175.7,153,175.3,152.8,173.9,152.3z"/>
	<path class="st2" d="M115.8,45.3l-1.6,6.5l-0.5,7.3c0,0,3.2,5.3,4.7,6.5c3.6,2.5,8.2,2.3,10.8,3.6c1.2,0.7,4.6,3.1,4.6,3.1l8.2-6.3
		l1.9-2.2l-5.9-6.7c0,0-8.9-6-12.9-8c-2.1-1-8.8-3.5-8.8-3.5"/>
	<path class="st2" d="M168.7,92.3c-0.2-4.2-1.5-7.6-4-10.7c-0.8-1-1.8-2-3-2.5c-2-1-3.9-0.3-4.7,1.8c-0.4,0.8-0.5,1.8-0.6,2.8
		c-0.2,1.7,0.2,3.3,0.8,4.8c0.7,1.7,1.1,3.5,2,5c1.1,1.6,2.3,3.1,4.2,3.9c1.9,0.8,3.4,0.3,4.2-1.4C168.7,94.8,168.7,93.4,168.7,92.3
		z"/>
	<path class="st2" d="M96.8,42.6c0,0,1.8,2.3,2,2.9c0.8,2.8,0.9,3.2,0.9,3.2l8.1,4c0,0,0.4-1.8,0.5-2.7c0.1-1.5,0.1-6.5,0.1-6.5
		s-3.9-0.7-5.7-0.9C100.4,42.5,96.8,42.6,96.8,42.6z"/>
	<path class="st2" d="M90.1,56.6c0,0,0.9,8.2,2.5,10.2c0.6,0.8,3.2,1.2,3.2,1.2s-0.9-3.3-1.3-4.6c-0.2-0.9-0.5-3.6-0.5-4.5
		c0-0.9,0.8-3.7,0.8-3.7L90.1,56.6z"/>
	<path class="st2" d="M49.7,34.4L48.5,37c0,0,2,4.6,2.9,4.4C52.4,41,49.7,34.4,49.7,34.4z"/>
	<path class="st2" d="M79.9,43.6c2.3-0.7,0.6,0,2.9-0.7c-0.1-0.2-0.1-0.5-0.1-0.7c-0.7-3.1-1.3-6.2-1.6-9.3
		c-0.6-5.4,0.6-10.6,2.3-15.7c0.7-2,1.5-4.2,2.1-6.1C86,9.6,86,8,86.2,6.4c-3.3,1.4-6.4,1.6-9.8,1.8C73,8.3,79.7,42.5,79.9,43.6z"/>
	<path class="st2" d="M90.1,55.7c0.9,0,2-0.2,3.3-0.8c2.3-0.9,4-2.5,4.8-5c0.8-2.3,0-4.7-2-6.5c-1.4-1.2-2.7-1.5-4.6-2
		C89.3,41.6,88.2,55.6,90.1,55.7z"/>
	<path class="st2" d="M180.5,124.2c0-1.5-0.4-3.2-0.7-4.2c-0.8-1.7-2.1-2.1-3.8-1.2c-0.7,0.5-1.3,0.8-1.9,1.5
		c-1.1,1.3-3,3.8-3.4,7.4c0.8,1.4,3.8,3.7,4.3,4.4c1.6,2.2,0.9,3,1.6,2.2C179.3,131.5,180.3,128,180.5,124.2z"/>
	<path class="st2" d="M194.7,109.8c0.4-0.7,0.7-1.2,0.7-1.7c0.1-1.5,0.1-3,0-4.5c-0.4-3.3-0.9-6.6-2.5-9.7c-0.6-1-1.2-2.1-2-3.1
		c-0.7-0.8-1.3-0.7-1.6,0.3c-0.2,0.7-0.4,1.4-0.4,2.1c-0.1,4.4,0.9,8.7,2.7,12.7c0.5,0.9,1.1,2,1.6,2.8
		C193.6,109.2,194.2,109.5,194.7,109.8z"/>
	<path class="st2" d="M128.9,33.3c1.4-0.1,1.8-0.6,1.3-1.8c-0.1-0.5-0.4-0.8-0.6-1.2c-0.7-0.9-1.4-2-2.1-2.9c-2.8-3-6.1-5.2-10-6.9
		c-0.6-0.2-1.2-0.3-1.9-0.3c-0.9,0-1.4,0.6-1.1,1.5c0.2,0.7,0.6,1.3,0.8,1.8c2.8,3.9,6.4,6.9,10.9,8.9
		C127.3,32.8,128.1,33,128.9,33.3z"/>
	<path class="st2" d="M168.8,59.2c-0.1-0.3-0.1-0.8-0.2-1.3c-0.6-2.5-1.9-4.7-3.3-7c-1.5-2.3-3.5-4.3-5.9-6c-0.6-0.5-1.3-0.6-2-0.6
		c-0.6,0-0.8,0.3-1.1,0.9c-0.2,1.2-0.1,2.2,0.2,3.3c1.2,3.7,3.3,6.8,6.1,9.6c1.1,1,2.2,2.1,3.6,2.7C167.9,61.6,168.8,61,168.8,59.2z
		"/>
	<path class="st2" d="M101.3,78.9c-0.2,0,2.7,5.8,7.6,9.7c5,4,8.8,10.2,9.6,10c2.2-0.3,3.4-1.6,3.2-3.8c-0.1-1.5-0.7-2.8-1.3-4
		c-2.7-4.5-6.4-7.7-11.3-10C107.6,80.1,104.7,79,101.3,78.9z"/>
	<path class="st2" d="M87.9,98.6c-0.6,0.2-0.7,1.2-0.5,2.2c0.5,2,1.1,2.7,0.8,3.7c-0.4,1.3-1.2,2.3-0.9,2.9c0.2,0.5,1.1,0.7,1.8,0.3
		c1.6-0.7,2.3-3.8,1.4-6.2C90,99.8,88.6,98.3,87.9,98.6z"/>
	<path class="st2" d="M61.9,79.1c-1.1,0.1-2.1,2.2-1.8,3.9c0.1,0.2,0.6,1.7,1.9,2c1.5,0.5,3.3-0.9,3.4-2.2c0-0.7-0.7-1.3-2-2.5
		C62.9,79.5,62.4,79.1,61.9,79.1z"/>
	<path class="st2" d="M81.5,129c-1.3,1-1.3,3.6-0.9,4.8c0.7,3.5,5,5.7,6,5.1c2.2-1.5-0.2-3-1.4-3.8c-0.7-0.6-2.1-1.6-2.3-2.5
		c-0.4-1.4,0.7-3.1,0.5-3.3C82.8,128.9,82,128.5,81.5,129z"/>
	<path class="st2" d="M111.8,115.2c-0.2,0.1-0.5,0.5-0.6,0.7c-0.2,0.9,1.5,2,2.7,2.9c3.8,2.9,5.2,7.4,6.8,7.3
		c0.8-0.1,1.4-1.7,1.2-2.5c-0.8-3.1-4.7-8.2-8.7-8.7C112.7,115,112.1,115.2,111.8,115.2z"/>
	<path d="M64.8,18.2l4.7,9.3l4.7,18.3l1.4-0.5L72,29.1l-3.4-8.7c0,0-0.5-2.7-1.4-2.7C65.8,17.7,64.8,18.2,64.8,18.2z"/>
	<path d="M93.1,99.9c0.6,0.7,0.8,2.2,0.8,3.1c-0.1,6.1-3,10.6-3,10.6c-1.1,1.7-5.4,8.1-12.2,8.3c-1.5,0-3.4,0.2-4.7-0.8
		c-3.9-3.1-0.7-12.3-0.5-12.3c0.1,0-0.8,2.3,0.4,5.3c0.5,1,1.5,2.3,3.5,3c2.1,0.7,4.2,0.2,6.6-1.5c2.6-2,4.1-3.9,4.8-5.1
		c1.8-2.4,2.8-4,2.9-6.2c0.1-2.9-0.8-5.4-0.8-5.4S92.7,99.4,93.1,99.9z"/>
	<path d="M104.4,116.2c0,0-0.7,0.6-1.3,1.7c-1.8,3.7,1.3,9.5,5.7,12.6c3.5,2.4,9.3,3.9,11.8,1.8c1.2-0.9,1.3-3.3,1.3-3.3
		s-1.9,0.7-3.9,0.9c-3.5,0.6-6.7-1.6-7.6-2.3c-0.7-0.6-4.3-3.1-4.9-7.2C105,117.8,104.4,116.2,104.4,116.2z"/>
	<path d="M98.2,80.8c0,0-1.9,1.8-2,2c-2,3.2,1.4,9.6,6,14.3c5.6,5.8,12.9,7.3,16.1,6.1c0.6-0.2,2-0.7,2.5-2c0.5-1-0.6-2.8-0.6-2.8
		s-0.7,0.2-0.8,0.5c-1.6,1.8-8.4,0.2-13.6-4.2c-2-1.7-6.6-5-6.9-9.9C98.6,83.3,98.2,80.8,98.2,80.8z"/>
	<path d="M103.6,151.6c0,0,0.5,5.2,1.2,6.9l3.9,7.3c0,0,6.4-1.8,8.3-2.4c7.3-2.3,12.5-6.5,12.5-6.5l3.4,3.1l5.7-3.5l-2.8-3.9
		c6.1-3.3,6.2-6.1,6.8-5.8c-0.4-0.9-8.3,3.3-26.1,4.5C108.7,151.8,103.6,151.6,103.6,151.6z"/>
	<path d="M100.1,151.6l0.1,6.3l-0.9,5.4l-2.3,3.6l-7.5-0.7l-6.8-1.2l-0.6,2.7l0.2,5.3c0,0-3-3.3-4.5-4.3c-1.3-0.7-6.1-1.8-6.1-1.8
		l2.1-4.6c0,0-7.4-2.8-10.4-4.6c-2.5-1.6-9.8-6.5-9.8-6.5l-3-2.9l-2.3,3.3c0,0-2.7-0.6-4.6-4.7c-0.6-1.2-4.3-2.7-4.3-2.7l5.3-3.3
		l-3.3-4.3l-2.3-3.3c0,0-0.1,0.2,3-1c2.3-0.9,4.5-5.2,4.5-5.2l3.5-4.4c4.6-2.3,7.2-1.5,10.3-2.2c6.4,5.4,9.4,9.8,11.5,12.7
		c0.4,0.6,1.6,2.3,3.9,5.4c2.9,4.2,4.5,6.2,4.9,6.8C82.5,148.1,87.2,151.3,100.1,151.6z"/>
	<path d="M44.5,67.6c0,0-3.6,5.2-4.7,7c-2.7,4.5-4.1,10.8-4.1,10.8l-2.6-2.3c0,0,0.2,5.8,0.2,7.2c0,1.6-1.2,5.4-1.2,5.4l0.5,0.8
		l-0.2,8.8l0.2,6.6l-5.6,1.5l-10.2-0.1c0,0,2.6,4.6,3.4,6c0.7,1.3,2.1,4.6,2.1,4.6l5.7-2l0.8-3.6l3.9-3.8l6.4,0.8l7.9,0.6l9.7-1.5
		c0,0-14.7-10.5-14.9-16.5c-0.1-2.3,2.8-6.6,3-9C45.6,83.9,44.5,67.6,44.5,67.6z"/>
	<path d="M50.1,87.1c-0.7-0.2-4.2,4.6-4.6,10.6c-0.1,2.1-0.1,3.7,0.8,4.6c2.6,2.4,10.2-1.2,14.7-4.6c0.7-0.6,10-8.1,8.2-14.8
		c-0.5-1.8-2.3-3.5-2.3-3.5s0,2.2-0.6,4.6c-0.6,2.3-1.9,4.6-5.3,8.3c-5,5.4-7.4,4.8-8.4,4.8c-0.4,0-1.3,0.1-2.3-1
		C47.6,93.4,50.7,87.4,50.1,87.1z"/>
	<path d="M79.3,136.5c0,0,0.6,2.8,3.4,4.8c1.1,0.8,6.4,4.8,11.7,2.3c2.9-1.4,5-4.5,5.3-7.5c0.4-5.4-5.2-9.5-5.2-9.3
		c0,0,3.6,2.9,3.4,6.7c-0.1,2.8-2.1,5.2-4.3,6.5c-3,1.6-6.4,0.8-7.5,0.6C81.5,139.2,79.3,136.5,79.3,136.5z"/>
	<path d="M44.6,141c-1.6-2.5-4.7-4.6-5.6-7.4c-6.4-1-10-5-11.4-11.1c-2.6,0.8-4.9,2.1-7.3,3.5c-3.4,2.1-7,3.9-10.9,5.1
		c-0.4,0.1-0.7,0.2-1.2,0.3c-1.3,0.3-2.3,0-3.4-0.8c-1.4-1.3-2.1-2.9-2.9-4.6c-1.5-3.5-2.1-7.3-2.1-11c0-1.2,0.1-2.3,0.7-3.3
		c0.7-1,1.3-1.4,2.5-1.2c1.2,0.2,2.2,0.2,3.2,0.3c3.5,0.6,7.3,1.2,10.8,1.8c4.7,0.7,9.5,0.8,14.2-0.3c0.5-0.1,0.8-0.2,1.4-0.5
		c-0.7-5.1-0.7-10.2,0.1-15.3c-1.6-0.2-3.2-0.2-4.7,0.1c-1.8,0.3-3.4,0.7-5,1c-1.2,0.2-2-0.2-2.7-1c-0.6-0.7-0.8-1.5-1.2-2.3
		c-0.7-2.4-0.7-5-0.5-7.5c0.2-2.4,0.9-4.6,2-6.9c0.6-1.2,1.2-2.1,2.2-2.9c0.9-0.7,2.2-0.7,3,0c1.3,1,2.7,2.1,4,3.2
		c1.5,1.3,2.9,2.8,4.5,4c0.2,0.2,0.6,0.5,0.9,0.7c3.4-10.6,9.3-19.4,17.5-26.9c-0.2-0.3-0.4-0.6-0.5-0.7c-3.6-3.5-7.4-7-11.6-9.7
		c-1.4-0.8-2.8-1.6-4.2-2.4c-2-1.2-2.2-2.1-1.5-4.3c0.7-2.4,2.2-4.5,4-6.2c1.2-1.3,2.5-2.5,3.9-3.6c1.2-0.9,2.6-1.7,4.1-1.8
		c0.9-0.1,1.8,0.2,2.3,0.9c2.5,3,3.4,6.5,4.1,10C54,44.6,55.5,48.5,58,52c0.2,0.5,0.6,0.7,0.8,1.2c3.9-2.7,8-4.8,12.3-6.7
		c-0.4-1.5-0.7-3-1.1-4.4c-0.9-3.3-1.5-7-2.9-10.3c-0.7-1.4-1.3-2.9-2-4.3c-0.6-1.2-1.4-2-2.6-2.7c-0.6-0.3-1.2-0.7-1.8-0.9
		c-0.9-0.7-1.3-1.7-1.1-2.9c0.4-1.3,1.2-2.1,2.2-2.8c1.2-0.7,2.5-0.9,3.8-1c0.4,0,0.6-0.1,0.8-0.1c-0.4-1.8-0.7-3.6-0.8-5.4
		c0-1.6,0-3.5,0-5.2c0-1,0.6-1.8,1.6-2.1c1.8-0.5,3.4-0.9,5.3-1.3c3.2-0.5,6.2-0.5,9.4-0.1c1.2,0.1,2.5,0.3,3.6,0.6
		c0.9,0.2,1.3,0.8,1.2,1.8c-0.1,0.7-0.1,1.3,0,2c0.1,2.9-0.7,5.5-1.8,8.2C82.7,21.2,81.5,27,82,33c0.2,2.8,0.8,5.4,1.3,8.2
		c0.1,0.3,0.2,0.7,0.4,0.9c1.6-0.5,3.2-0.9,4.7-1.3c2-0.5,4.1-0.1,6.1,0.7c0.6,0.2,1.1,0.5,1.6,0.5c4,0,8,0.3,12,1
		c0.1,0,0.2,0,0.2,0c0-1.2-0.1-2.3,0-3.6c0.4-3.1,0-3.5,1.1-9.3c0.6-3,2.8-6.7,4.7-9.3c0.5-0.7,1.1-1,1.9-0.9
		c1.2,0.2,2.5,0.3,3.5,0.8c4.5,2,8.1,5,10.8,9c0.6,0.7,0.7,1.6,1.1,2.4c0.4,0.7-0.1,1.4-0.6,2c-1.8,2-4,3.2-6.4,4.2
		c-3.4,1.4-5.9,3.8-7.6,7c0.5,0.2,0.7,0.5,1.1,0.6c3.6,1.3,7.2,3,10.6,4.7c1.3,0.7,2.6,1.7,3.8,2.5c2,1.4,3.9,2.9,6,4.2
		c2,1.3,3.4,3,4.9,4.6c0.5,0.6,0.9,0.9,1.5,1.6c1.4-2,2.8-3.6,4.1-5.4c2-3.1,4.1-6.2,6.1-9.3c0.6-0.7,0.8-1.6,0.8-2.5
		c0.1-1.8,1.5-2.5,3.4-2c2.1,0.7,3.9,2.1,5.3,3.9c2.3,2.9,4.5,6,5.4,9.6c0.2,0.9,0.2,2,0.2,3.1c0,0.9-0.7,1.5-1.5,1.7
		c-1.6,0.5-3.3,0.8-4.9,0.7c-3.4-0.2-6.6,0.7-9.6,2.3c-1.4,0.7-2.8,1.6-4.2,2.3c-0.4,0.2-0.6,0.5-0.7,0.6c2.2,3.8,5.7,10.8,5.9,10.8
		c1.3,0,2.3-0.8,4.7-1.2c1.3-0.5,2.7,0,3.9,0.7c2.6,1.7,4.1,4.2,5.3,6.8c1.1,2.3,1.5,4.8,1.8,7.5c1.6,0,3.3,0.1,4.8,0
		c2.8-0.2,5.6-0.5,8.4-0.9c2.1-0.5,4.2-1.2,6.2-1.8c0.7-0.2,1.2-0.2,1.6,0.2c0.7,0.7,1.3,1.4,1.9,2.2c0.7,1.2,1.2,2.4,1.8,3.8
		c0.9,3,1.9,6,2,9c0.1,1.4,0,2.8-0.4,4c-0.4,1.4-1.1,1.8-2.5,1.4s-2.9-0.8-4.1-1.6c-4.1-2.5-8.8-3.5-13.4-4.5c-5.2-1-10.3-1-15.6-1
		c-0.1,0-0.2,0-0.5,0.1c-0.1,2.2-0.2,4.4-0.5,6.6c-0.2,2.1-0.6,4.3-0.8,6.5c1.3,0.5,2.8,0.5,4.2,0.7c3.6,0.5,7.4-0.2,10.9-0.2
		c1.5,0,3,0.5,4.6,0.8c0.8,0.2,1.5,0.8,1.8,1.6c0.5,0.9,0.8,2,0.9,3.1c0.4,3.9-0.6,7.6-2.7,11c-0.8,1.4-2,2.4-3.4,3.3
		c-1.1,0.7-2.2,0.6-3.4-0.1c-2.5-1.3-4.6-3.3-6.6-5.1c-2.7-2.3-5.6-4.4-8.8-5.8c-1.8,3.6-3.4,7.2-5.2,10.5c2.7,2.1,5.4,4.4,8.2,6.5
		c1.6,1.3,3.4,2.3,5,3.5c2.9,2,6.2,3,9.6,3.8c1.6,0.5,3.3,0.9,4.5,2.2c1.1,1,1.2,1.8,0.6,3.1c-0.9,1.7-1.9,3.3-2.9,4.8
		c-0.4,0.6-0.7,0.9-1.3,1.3c-1.2,0.7-2,0.7-2.9-0.2c-1.2-1-2.3-2.2-3.4-3.3c-3.9-4-7.7-8.2-12.4-11.3c-2.5-1.7-4.8-3.6-7.6-4.8
		c-0.2-0.1-0.5-0.2-0.7-0.3c-3.3,4.3-6.9,8.2-11.4,11.5c1.5,1.4,2.9,2.7,4.3,3.9c4.5,3.9,9.1,7.3,14.2,10.2c2,1,3.9,2.2,5.6,3.6
		c0.7,0.7,0.9,1.5,0.7,2.4c-0.4,2-1.2,3.5-2.2,5.1c-1.6,2.4-3.5,4.5-6,6.1c-0.7,0.6-1.5,1-2.2,1.5c-0.7,0.3-1.4,0.6-2.1,0.7
		c-0.9,0.1-1.6-0.5-2-1.3c-0.2-0.6-0.6-1-0.7-1.6c-0.7-1.4-1.5-2.8-2-4.2c-3.2-7.6-7.2-14.6-12.7-20.9c-0.4-0.5-0.7-0.7-0.8-1
		c-3.5,1.7-6.8,3.5-10.2,4.8c-3.4,1.4-7.2,2.3-10.4,3.3c0.6,2,1.1,3.8,1.5,5.9c0.2,1.4,0.1,2.8,0.2,4.2c0,0.5-0.1,0.7,0,1.2
		c0.1,1.2-0.4,2-1.4,2.3c-1.2,0.5-2.3,0.8-3.5,0.9c-3.5,0.3-7-0.1-10.3-1.6c-1.1-0.5-2-1-2.8-2c-0.6-0.6-0.7-1.2-0.7-2
		c0.5-2,0.9-3.7,2.1-5.3c0.6-0.7,1.1-1.5,1.8-2.3c-4.6-0.5-8.9-0.9-13.4-1.4c-0.5,1.6-0.4,3.2-0.2,4.7c0.1,1.6,0.4,3.3,0.4,4.8
		c0,0.9,0,2-0.2,2.9c-0.2,1.3-1.2,2-2.2,2.2c-1.6,0.6-3.3,0.7-4.9,0.5c-2.5-0.2-4.7-0.9-6.9-2.1c-1.1-0.6-2-1.4-2.5-2.4
		c-0.4-0.7-0.2-1.5,0.1-2.2c1.2-2.8,2.6-5,4.5-7.3c0.8-1.2,1.5-2.8,2.5-4c-8.4-3.5-15.6-7.6-22-14c-0.9,1.2-1.9,2.4-2.5,3.8
		c-0.7,1.7-1.3,3.5-2,5.3c-0.7,1.7-1.3,3.3-2,5c-0.4,0.7-1.3,1.2-2.2,0.9c-1.3-0.3-2.7-0.7-3.9-1.2c-3.8-2-7.3-4.3-10-7.5
		c-0.7-0.7-1.3-1.7-1.8-2.5c-0.8-2-0.5-2.7,1.1-3.7c1.2-0.8,2.5-1.5,3.8-2c2-0.9,4.2-1.8,6.3-2.5c2-0.7,3.8-1.8,5.5-3.1
		C44.4,141.2,44.5,141.1,44.6,141z M98.6,143.6c0.1,0,0.2,0,0.4-0.1c0.1,0.3,0.4,0.6,0.5,0.8c0.2,0.9,0.5,2,0.7,2.9
		c0.7,4.2,1.1,8.2,0.5,12.3c-0.4,2.2-0.9,4.4-2.1,6.1c-1.1,1.5-2.1,3-3.3,4.5c-0.6,0.8-1.2,1.7-1.4,2.8c6.1-1.6,11.5-0.8,16.9,2.7
		c-0.1-1.4-0.2-2.5-0.5-3.7c-0.6-3.2-1.9-6-3.4-8.7c-3.4-5.4-4-11.3-3.9-17.4c0-0.2,0.2-0.5,0.5-0.9c0.6,0.7,0.7,1.4,0.7,2
		c0.1,2,0.1,3.8,0.2,5.9c0.4,4.6,2.5,8.5,4.7,12.5c6.3-0.8,18.1-5.9,20.6-8.2c-1.2-1.5-2.9-2.5-3.6-4.4c0.7-0.5,0.9-0.1,1.3,0.2
		c1.2,1.3,2.2,2.5,3.4,3.7c2.9,2.9,5.4,6,7.5,9.3c2.9,4.7,5.6,9.7,7.4,15c0.4,0.7,0.7,1.5,1.2,2.4c2.5-5.9,6.2-10.2,12.1-12.8
		c-0.9-0.6-1.9-1-2.7-1.5c-4.6-2.2-8.7-5.2-12.7-8.3c-4-3.1-7.4-6.8-11.5-9.8c-0.4-0.2-0.5-0.6-0.7-0.8c0.1-0.1,0.2-0.2,0.2-0.3
		c1.9,0.5,2.9,2,4.5,2.9c3.3-2.5,6.2-5.4,8.8-8.7c0.8-1,2-2,2.3-3.2c0-0.2,0.7-0.3,0.9-0.2c0.2,0,0.6,0.3,0.7,0.5
		c5.4,2.9,10.2,6.5,14.5,10.6c2.5,2.3,4.8,6.1,7.2,8.5c0.7,0.7,1.4-0.1,2.1,0.5c0.9,0.7,1.6,0.6,2.2-0.5c1.1-1.5,2-3.1,2.9-4.7
		c0.7-1.5,0.6-2.3-0.9-3.1c-1.2-0.7-2.3-1-3.6-1.4c-4.7-1.2-8.8-3.2-12.7-6c-3.4-2.5-6.8-5.2-10.2-7.8c-0.4-0.2-0.1-0.2-0.2-0.3
		c0.4-0.7,0.7-1.5,0.8-2c0.9-1.8,2-3.6,2.8-5.4c0.7-1.3,1.1-2.7,1.8-4c-2.2-0.9-4.3-1.7-6.4-2.1c-2.6-0.6-5.2-0.7-7.7-0.3
		c-0.7,0.1-1.4,0.1-2-0.7c0.7-0.1,1.2-0.2,1.8-0.2c2.3-0.1,4.8-0.3,7.3-0.1c2.9,0.2,5.5,1.4,8.2,2.4c2.1,0.8,4.1,2.1,6.1,3.5
		c2.2,1.7,4.3,3.6,6.4,5.4c0.4,0.3,0.7,0.7,1.2,0.9c-1.2-6.6,0.4-12.1,5.3-16.6c-1.1,0-2-0.1-2.9,0c-2.8,0.2-5.5,0.5-8.3,0.3
		c-2.8-0.1-5.5-0.6-8.2-1c-2.5-0.5-4.9-0.9-7.4-1.5c-1.2-0.2-2.3-0.5-3.5-0.7c-1.3-0.3-2.5-0.7-3.8-1.2c-0.2-0.1-0.6-0.2-0.7-0.3
		c0.2-0.6,0.7-0.6,1.1-0.5c0.9,0.2,2,0.3,2.9,0.6c4.2,0.8,8.3,1.8,12.5,2.8c0.4,0.1,0.7,0.1,1.3,0.1c0.4-2.7,0.7-5.1,0.9-7.6
		c0.2-3.3,0.4-6.6-0.1-10c-0.1-1.2-0.1-1.2-1.3-1.4c-4.7-0.9-9.3-1.3-14-1.4c-2,0-4,0.3-6.1,0.5c-0.2,0-0.6,0-0.7,0
		c0-0.1-0.1-0.2-0.1-0.5c0-0.1,0-0.2,0-0.5c2.7-0.7,5.4-0.7,8.1-0.7c2.8,0.1,5.5,0.3,8.3,0.7c2.7,0.3,5.3,0.8,8,1.4
		c-2.2-2.3-3.9-5.1-4.7-8.2c-0.8-3-1.3-6-0.2-9.2c-3.3,2.5-6.2,5.3-10,7c-3.6,1.7-7.5,3-11.6,3.8c-0.1-0.3-0.2-0.7-0.4-0.9
		c7.4-1.6,14-4,19.5-9.2c-1.9-4.2-3.6-8.3-6.3-11.9c-6,3.6-9.7,9-14.1,14.3c0-0.6-0.1-0.8,0-1c0.1-0.3,0.4-0.6,0.5-0.7
		c1.8-2.1,3.4-4.3,5-6.2c1.1-1.3,2-2.4,3.3-3.5c3.4-3,7.3-5.3,11.4-7.3c3.2-1.5,6.3-2.4,10-2c0.6,0.1,1.1-0.1,1.6-0.1
		c-2.3-1.6-4.2-3.6-5.9-5.9c-1.6-2.2-2.9-4.6-3.8-7.4c-0.2,0.1-0.4,0.2-0.4,0.2c-2,3.1-3.8,6-5.9,9.1c-2.8,4.3-6.1,8.1-10.3,11.1
		c-1.5,1-2.9,2.3-4.5,3.5c-0.9,0.7-1.9,1.5-2.8,2.2c-0.6,0.5-1.1,0.5-1.8,0c4.6-3.6,9.3-6.9,13.6-11c-1.3-1.3-2.3-2.5-3.6-3.6
		c-2.3-2-4.8-3.6-7.3-5.5c-3.4-2.9-7.4-5.1-11.5-6.9c-1.8-0.7-3.4-1.4-5.3-2.1c-0.4,0.7-0.6,1.2-0.7,1.7c-0.9,3.1-1.5,6.1-1.6,9.3
		c0,1,0,2.1,0,3.1c0,0.2-0.2,0.6-0.4,0.7c-0.7-0.3-0.7-0.8-0.7-1.4c-0.1-2.4,0.1-4.8,0.6-7.4c0.6-2.8,1.1-5.7,2.8-8.1
		c2-3.1,4.7-5.5,8.2-6.9c1.3-0.6,2.5-1.2,3.6-1.7c0.5-0.2,0.7-0.6,1.1-0.8c-6.7-2.2-11.7-6.1-15.4-12.2c-0.5,0.9-0.9,2-1.4,2.9
		c-0.7,2-1.8,3.9-2.1,6c-0.7,3.2-0.9,6.3-0.8,9.7c0.1,2.7,0,5.3,0,8.1c0,0.9,0,2-0.2,3c-0.5,2.1-0.8,4.2-1.3,6.1
		c-0.1,0.7-0.2,1.3-0.5,2c-0.1,0.5-0.1,1-0.8,0.9c-0.6-0.1-0.4-0.7-0.2-1c0.2-0.7,0.4-1.4,0.6-2.1c0.6-2.5,1.4-5.2,1.4-7.8
		c0-1.2,0-2.2,0-3.3c0-0.7,0.1-1.5,0.2-2.3c-3.9-0.7-7.5-1.3-11.6-1c0.6,0.7,0.8,1,1.3,1.4c1.9,2,2.2,5.1,0.7,7.6
		c-0.5,0.7-0.8,1.2-1.3,1.8c-0.7,1.4-1.6,2.7-2.2,4c-0.5,0.9-0.6,2-0.5,3.2c0.4,2.4,0.9,4.6,1.9,7c0.1,0.3,0.5,0.7-0.1,0.9
		c-0.6,0.2-0.7-0.3-0.8-0.7c-0.1-0.2-0.2-0.5-0.4-0.7c-0.5-1.5-0.9-3.1-1.3-4.6c-0.6-2.3-0.6-4.6,0.7-6.9c0-0.1,0-0.2,0.1-0.5
		c-3,1.5-6.1,1.7-9.5,0.8c0.4,0.5,0.5,0.7,0.6,0.8c1.2,1.8,1.9,3.7,1.9,5.9c0,3-0.1,6-0.2,8.9v0.1c-0.1,0.2-0.4,0.7-0.5,0.7
		c-0.5,0-0.6-0.3-0.6-0.7c0-1.6,0.1-3.1,0.1-4.6c0-2,0.2-3.9,0-5.9c-0.4-3-2.1-5.1-4.5-7c-2.9-2.4-3.5-6.2-1.5-9.3
		c0.1-0.2,0.4-0.6,0.7-0.9c-2.2,0.7-4.3,1.2-6.4,1.8c-0.7-3.6-1.3-7.2-1.9-10.6c-0.5-2.4-0.7-5-1.6-7.4c-0.5-1-0.8-2.1-1.3-3.2
		c-0.7-2-1.6-3.8-2.2-5.8C68,18.1,67.6,18,67,18c-1.4,0.1-2.8,0.5-4,1.2c-0.6,0.5-1.1,0.9-1.4,1.5c-0.7,0.9-0.4,1.8,0.7,2.4
		c0.5,0.3,0.8,0.6,1.4,0.7c1.5,0.7,2.5,1.7,3.2,3.2c0.7,1.5,1.3,3,2,4.5c1.4,3.3,2,7,2.9,10.4c0.4,1.3,0.6,2.7,0.8,3.9
		c0.2,0.8,0.4,0.9-0.5,1.2c-3.5,1.3-6.8,3.1-10,5.1c-0.7,0.6-1.6,1-2.5,1.6c0.8,1,1.6,2.1,2.5,3.1c1.2,1.4,2.5,2.7,3.8,3.9
		c0.2,0.3,0.7,0.7,0.4,0.9c-0.5,0.5-0.7,0-1.1-0.3c-0.5-0.5-0.8-0.9-1.3-1.4c-2.1-2-4-4.4-5.6-6.8c-2-3.1-3.8-6.3-4.7-10
		c-0.6-2.2-0.9-4.5-1.5-6.7c-0.5-1.6-0.8-3.1-2-4.5c-2.2,5.9-6.2,10-12.1,12.7c1.3,0.7,2.6,1.3,3.8,2c4.9,3.2,9.4,7,13.3,11.3
		c2,2.1,3.4,4.5,5.2,6.7c0.2,0.3,0.5,0.7,0.5,0.9c0,0.2-0.1,0.5-0.2,0.7c-0.2-0.1-0.6-0.1-0.7-0.2c-0.2-0.2-0.4-0.6-0.6-0.7
		c-1.6-2.5-3.5-4.7-5.5-7C45.8,64.8,38.5,75.3,35.8,85c1.1,0.6,2.1,1.2,3.4,1.7c1.2,0.6,2.3,0.8,3.5,1.3c0.5,0.1,0.9,0.2,0.8,1
		c-0.5-0.1-0.9-0.1-1.4-0.2c-4.5-1.2-8.1-3.6-11.3-6.9c-0.8-0.9-2-1.8-3.3-2.9c1.2,6,0.6,11.3-2.6,16.6c0.5-0.1,0.8-0.1,1.2-0.2
		c4.2-1,8.2-0.7,12.1,1c0.4,0.1,0.7,0.2,0.8,0.5c0.1,0.1,0.2,0.5,0.2,0.6c-0.1,0.1-0.4,0.3-0.6,0.3c-0.4,0-0.7-0.2-0.9-0.3
		c-1.5-0.6-3-1-4.7-1.3c-0.7,6-0.8,11.9,0.4,17.5c1.5,0.2,2.8,0.5,4.1,0.7c0.9,0.2,1.9,0.6,2.8,0.7c0.8,0.1,1.8,0.2,2.6,0.2
		c4.1,0.5,8.2,0.3,12.2-0.7c0.6-0.1,1.1-0.1,1.8-0.1c-0.7,0.8-0.7,0.8-1.5,1c-4.1,1-8.3,0.9-12.4,0.7c-0.7-0.1-1.5-0.1-2.5-0.2
		c3.5,2.9,5.6,6.3,5.6,10.7c0.2-0.2,0.5-0.6,0.6-0.7c1.4-2.3,3.3-4,6-4.6c2.1-0.5,4.3-0.7,6.4-0.9c0.5,0,0.8,0.2,1.3,0.3
		c0,0.1,0,0.2,0,0.3c-0.5,0.1-0.8,0.3-1.3,0.3c-1.4,0.1-2.8,0.2-4.2,0.5c-3,0.5-5.5,1.6-7.3,4.2c-0.9,1.5-1.9,2.9-2.9,4.3
		c-0.5,0.7-0.9,1.3-1.6,1.7c-0.9,0.7-2,0.9-3.2,1.5c1.3,2.3,2.7,4.6,4.6,6.8c0.2-0.2,0.5-0.2,0.6-0.3c2-2,3.9-3.7,5.9-5.7
		c1.4-1.5,2.7-3.1,4-4.6c0.2-0.3,0.5-0.7,1.1-0.7c-0.1,0.3-0.2,0.7-0.4,0.8c-0.6,0.7-0.9,1.5-1.6,2.2c-1.6,1.8-3.4,3.7-5,5.5
		c-3.3,3.5-6.6,6.3-10.9,8.1c-2.6,0.9-5.7,2.5-8.3,3.7c-0.2,0.1,5.6,2.3,8.3,4.3c2.7,2,5,4.4,6.8,7.5c0.7-2,1.3-3.5,1.6-5.2
		c0.8-3.8,3.2-6.9,5.4-9.9c1.8-2.3,4-4.3,6.1-6.2c1.4-1.3,2.9-2.4,4.3-3.6c0.4-0.3,0.7-0.7,1.5-0.2c-4.7,3.6-8.8,7.5-12.3,12.1
		c4.7,5.3,17.2,12.3,22.6,14.1c0.5-1.3,0.9-2.4,1.3-3.7c0.5-1.6,0.7-3.2,1.2-4.7c0.1-0.5,0.1-1,0.9-1.2c0,0.3,0.1,0.7,0,0.9
		c-0.1,0.6-0.2,1-0.4,1.6c-0.7,3.8-2,7.4-4.2,10.6c-1.3,1.8-2.3,3.7-3.8,5.5c-0.4,0.5-0.6,0.8-0.9,1.4c5.4-1.3,9.7-0.1,14,3.2
		c-0.1-1.3-0.2-2.4-0.4-3.5c-0.5-3.3-0.4-6.6,0.4-9.9c0.4-1.8,0.8-3.5,1.2-5.3c0.2-1.2,0.5-2.2,0.7-3.3c0.1-0.5,0.2-0.7,0.7-0.7
		c0.2,0.1,0.4,0.6,0.5,0.8c0,0.1,0,0.2,0,0.2c-0.6,2.1-0.9,4.3-1.5,6.3c-0.4,1.4-0.7,2.8-0.9,4.4c4.8,0.7,9.5,1.2,14.2,1.3
		c2-2.9,2.8-6,2.9-9.3c0.1-3.9-0.4-7.8-1.1-11.6C98.5,144.8,98.6,144.2,98.6,143.6z M66.2,6.9c0.2,2,0.2,3.9,0.6,5.9
		c0.2,1.6,0.7,3.1,1.2,4.6c1.1,2.9,2.3,5.7,3.5,8.5c0.6,1.3,1.1,2.5,1.4,3.9c0.7,3.8,1.4,7.7,2.1,11.6c0.2,1.2,0.4,2.2,0.6,3.5
		c2.3-0.7,4.7-1.3,7-2c-0.1-0.2-0.1-0.5-0.1-0.7c-0.7-3.1-1.3-6.2-1.6-9.3c-0.6-5.4,0.6-10.6,2.3-15.7c0.7-2,1.5-4.2,2.1-6.1
		c0.5-1.5,0.5-3.1,0.7-4.7c-3.2,1.4-6.4,1.6-9.7,1.8C73,8.3,69.7,8.2,66.2,6.9z M160.1,102.7c1.5-0.1,2.8-0.2,4.1-0.2
		c4.6-0.1,9,0.6,13.5,1.4c4.6,0.8,8.8,2.2,12.8,4.6c0.6,0.3,1.2,0.6,2,0.9c-3.2-6-4.7-11.9-3.9-18.3c-1.3,0.5-2.5,0.9-3.8,1.3
		c-3.4,0.7-7,1.2-10.6,1.3c-1.4,0.1-2.8,0.1-4.2,0.1c-0.2,0.7-0.4,1.2-0.5,1.6c-0.8,2.8-2.5,3.7-5.4,3.3c-1.4-0.2-2.8-0.5-4.3-0.7
		C159.9,99.6,160,100.9,160.1,102.7z M32.7,114.5c-0.1-0.6-0.2-1-0.4-1.5c-0.4,0.1-0.7,0.1-0.8,0.2c-4.2,1-8.6,1.4-12.9,0.7
		c-2.9-0.6-5.9-0.9-8.8-1.5c-1.6-0.3-3.4-0.6-5.3-0.9c0.1,0.2,0.1,0.3,0.1,0.5c3.2,4.2,4.2,8.8,4.6,13.8c0.1,1.7-0.2,3.3-0.8,5
		c0.5-0.1,0.7-0.2,1.1-0.3c2.2-0.9,4.6-2,6.7-3.1c2.8-1.4,5.4-3.1,8.1-4.6c1.1-0.6,2.1-0.9,3.3-1.4
		C27.8,118.1,29.2,115.7,32.7,114.5z M39.1,132.5c0.5-0.1,1.1-0.1,1.6-0.2c2.5-0.7,4.1-2.9,4.1-5.7c0.1-3.7-1.5-6.7-4.2-9
		c-1.6-1.4-3.4-2.2-5.6-2.3c-2.7-0.1-5.3,1-6.1,4c-0.5,1.4-0.4,2.8-0.1,4.2c0.4,2.2,1.5,4.2,3.2,5.8C33.9,131.2,36,132.5,39.1,132.5
		z M88.9,55.7c1.6-0.1,3-0.3,4.5-0.8c2.3-0.9,4-2.5,4.8-5c0.8-2.3,0-4.7-2-6.5c-1.4-1.2-3.4-1.7-4.6-2c-2,0-3.4-0.6-6.8,0.8
		c-0.1,0.1-1.8,1.2-2.8,2.3c-1.9,2-2.3,5.2-0.5,7.6C83.5,54.9,86.1,55.6,88.9,55.7z M168.8,92.3c-0.2-4.2-1.5-7.6-4-10.7
		c-0.8-1-1.8-2-3-2.5c-2-1-3.9-0.3-4.7,1.8c-0.4,0.8-0.5,1.8-0.6,2.8c-0.2,1.7,0.2,3.3,0.8,4.8c0.7,1.7,1.1,3.5,2,5
		c1.1,1.6,2.3,3.1,4.2,3.9c1.9,0.8,3.4,0.3,4.2-1.4C168.7,94.7,168.8,93.4,168.8,92.3z M180.5,124.2c0-1.5-0.4-3.2-0.7-4.2
		c-0.8-1.7-2.1-2.1-3.8-1.2c-0.7,0.5-1.3,0.8-1.9,1.5c-2.7,3.5-3.9,7.5-3.4,11.9c0.1,0.8,0.5,1.7,0.7,2.4c0.6,1.2,1.6,1.6,2.8,1.3
		c0.9-0.2,1.8-0.7,2.3-1.5C179.3,131.5,180.3,128,180.5,124.2z M27.2,84.6c0-0.7,0-1.4-0.1-2.1c-0.2-1.3-0.5-2.7-1.1-3.7
		c-0.9-1.7-2.2-1.8-3.4-0.3c-0.8,1-1.6,2.2-2,3.6c-0.8,2.7-1.3,5.3-1.2,8.1c0.1,1.8,0.2,3.5,1.1,5.1c0.9,1.8,2.3,2,3.5,0.3
		c0.7-0.7,1.1-1.7,1.5-2.5C26.6,90.4,27.1,87.7,27.2,84.6z M168.8,59.3c-0.1-0.3-0.1-0.8-0.2-1.3c-0.6-2.5-1.9-4.7-3.3-7
		c-1.5-2.3-3.5-4.3-5.9-6c-0.6-0.5-1.3-0.6-2-0.6c-0.6,0-0.8,0.3-1.1,0.9c-0.2,1.2-0.1,2.2,0.2,3.3c1.2,3.7,3.3,6.8,6.1,9.6
		c1.1,1,2.2,2.1,3.6,2.7C167.9,61.6,168.8,61,168.8,59.3z M8.5,126.4c-0.1-4.3-0.9-8-2.7-11.3c-0.6-1-1.2-2-2-2.9
		c-1.1-1-2-0.8-2.3,0.6c-0.4,1.4-0.6,2.8-0.6,4.3c0,1.5,0.4,3,0.7,4.5c0.7,2.9,1.6,5.5,3.4,8c0.4,0.5,0.8,0.8,1.3,1.2
		c0.6,0.3,1.1,0.2,1.4-0.3c0.2-0.3,0.5-0.7,0.6-1.2C8.4,128,8.4,127,8.5,126.4z M41.9,163.2c1.9,0,2.2-0.6,1.8-1.8
		c-0.4-0.7-0.7-1.5-1.3-2.1c-3-3.8-6.9-6.7-11.5-8.5c-0.7-0.3-1.6-0.5-2.5-0.6c-1.2-0.1-1.5,0.5-1.1,1.5c0.4,0.7,0.7,1.4,1.1,2
		c2.6,3.3,6,6.1,9.8,8.1C39.5,162.6,40.8,163.1,41.9,163.2z M35.3,42.6c0,1.3,0.7,1.8,2,1.5c0.7-0.2,1.4-0.5,2-0.8
		c2.7-1.5,4.8-3.6,6.7-6.1c1.1-1.5,2-3,2.3-4.6c0.5-2-0.5-2.8-2.2-2c-1.6,0.7-3.2,1.5-4.6,2.5c-2,1.5-3.5,3.5-4.8,5.7
		C36,39.9,35.3,41.1,35.3,42.6z M128.9,33.2c1.4-0.1,1.8-0.6,1.3-1.8c-0.1-0.5-0.4-0.8-0.6-1.2c-0.7-0.9-1.4-2-2.1-2.9
		c-2.8-3-6.1-5.2-10-6.9c-0.6-0.2-1.2-0.3-1.9-0.3c-0.9,0-1.4,0.6-1.1,1.5c0.2,0.7,0.6,1.3,0.8,1.8c2.8,3.9,6.4,6.9,10.9,8.9
		C127.1,32.8,128,32.9,128.9,33.2z M160.4,173.4c0-1.7-0.5-2.1-1.6-2c-0.7,0.1-1.3,0.5-2,0.7c-3.5,2-6.1,5-8.1,8.5
		c-0.7,1-1.1,2.1-1.2,3.3c-0.1,1.3,0.4,1.7,1.5,1.5c1.3-0.3,2.6-0.7,3.6-1.6c2.6-2.3,4.9-4.7,6.6-7.8
		C159.9,175.1,160.2,174,160.4,173.4z M98.5,172.9c-0.7,0.1-2,0.3-3.4,0.6c-0.9,0.2-1.9,0.7-2,1.6c-0.1,0.9,0.7,1.5,1.5,2
		c1.8,1.2,3.8,1.7,5.9,2.1c2.5,0.5,4.9,0.7,7.5-0.1c0.7-0.2,1.2-0.6,1.8-0.8c0.7-0.6,0.7-0.9,0.2-1.6c-0.5-0.6-0.9-1-1.5-1.4
		C105.6,173.6,102.3,173.1,98.5,172.9z M71.4,173.3c-0.7,0.1-1.8,0.2-2.7,0.6c-2,0.7-2.2,2-0.8,3.3c0.8,0.8,2,1.6,3.2,2
		c2.5,0.8,4.9,1.4,7.6,0.9c0.8-0.1,1.8-0.5,2.5-0.8c0.8-0.6,0.9-1.3,0.5-2.1c-0.4-0.6-0.8-0.9-1.4-1.4
		C77.8,174,74.8,173.4,71.4,173.3z M194.6,110c0.4-0.7,0.7-1.2,0.7-1.7c0.1-1.5,0.1-3,0-4.5c-0.4-3.3-0.9-6.6-2.5-9.7
		c-0.6-1-1.2-2.1-2-3.1c-0.7-0.8-1.3-0.7-1.6,0.3c-0.2,0.7-0.4,1.4-0.4,2.1c-0.1,4.4,0.9,8.7,2.7,12.7c0.5,0.9,1.1,2,1.6,2.8
		C193.6,109.4,194.1,109.6,194.6,110z M66.6,5.8c0,0.1,0,0.2,0,0.3c0.4,0.1,0.6,0.5,0.8,0.5c1.1,0.2,2.1,0.6,3.3,0.6
		c2.3,0.1,4.7,0.1,7.2,0c2.2-0.2,4.5-0.5,6.7-1.4c0.6-0.2,1.1-0.2,1.3-0.8c-0.9-0.8-2-1.2-3.2-1.2c-2.3-0.1-4.7-0.2-7.2-0.1
		C73,3.8,70.5,4.2,68,5C67.6,5.3,67.1,5.5,66.6,5.8z"/>
	<path d="M97.6,82.1c-0.5,0.2-0.7,0.3-1.4,0.6c0.4-0.5,0.4-0.7,0.6-0.8c0.5-0.6,0.9-0.9,1.4-1.5c1.5-2,3.5-2.2,5.9-2
		c4.3,0.5,7.7,2.7,11,5.3c2.3,2,4.3,4.2,5.7,6.8c0.9,1.8,1.8,3.7,1.3,5.9c-0.1,0.7-0.5,1.5-0.9,2c-0.7,0.7-1.3,1.6-1.8,2.4
		c-0.1,0.3-0.5,0.6-0.7,0.8c-0.6-0.6-0.6-0.6-0.1-1.6c-1.4-0.1-2.8-0.1-4.1-0.3c-4-0.8-7.4-2.9-10.2-5.5c-1.4-1.3-2.7-2.7-3.9-4.2
		C98.8,87.7,97.6,85.2,97.6,82.1z M103.1,79.3c-0.2,0-0.5,0-0.7,0c-2.6,0.1-4.1,1.7-3.6,4.2c0.2,1.2,2.3,9.1,15,14.8
		c1.3,0.5,2.7,0.7,4.2,0.5c2.2-0.3,3.4-1.6,3.2-3.8c-0.1-1.5-0.7-2.8-1.3-4c-2.7-4.5-6.4-7.7-11.3-10
		C106.9,80.2,105.1,79.3,103.1,79.3z"/>
	<path d="M67.6,81.6c-1.3,6.8-5,11.6-11.3,15c-0.7,0.3-1.5,0.7-2.2,0.7c-0.7,0.2-1.6,0.2-2.3,0.3c-0.1,0.7,1.2,1.2,0.7,2
		c-0.1,0-0.2,0-0.2,0c-1.2-1.5-2.6-2.9-3.6-4.4c-0.8-1.3-0.7-2.8-0.5-4.2c0.6-2.9,1.9-5.3,3.6-7.6c2.1-2.9,4.8-5,8.1-6.5
		c1.3-0.7,2.7-0.7,4-0.5c1.2,0.2,2,0.8,2.6,1.8c0.7,1.2,1.4,2.4,2,3.6c0.2,0.5,0.5,0.9,0.2,1.6C68.3,82.9,68.3,82,67.6,81.6z
		 M49.3,92.6c0,0.2,0,0.3,0,0.6c0.1,2.3,1.8,3.7,4.1,3.3c1.1-0.2,2.2-0.6,3.3-1c4.6-2.7,7.7-6.3,9.4-11.3c0.5-1.2,0.6-2.4,0.4-3.7
		c-0.4-1.8-1.5-2.7-3.4-2.7c-1.4,0-2.8,0.5-4.1,1.2c-3.8,2.1-6.4,5.3-8.3,9C49.7,89.4,49.3,90.9,49.3,92.6z"/>
	<path d="M93,99.6c-0.5,0.1-0.7,0.2-0.9,0.2c0,0.2,0.1,0.5,0.1,0.7c0.7,2.3,0.2,4.6-0.7,6.8c-1.8,4-4.6,7.2-8.6,9
		c-2.3,1.2-4.8,1.5-7.5,0.2c-0.1,0-0.1,0-0.4,0c0,0.5,0.1,0.8,0.1,1.2c-0.1,0-0.2,0.1-0.2,0.1c-0.1-0.2-0.5-0.6-0.5-0.7
		c-0.2-1-0.7-2-1.2-2.9c-0.7-1.2-0.8-2.5-0.7-3.8c0.9-6.8,4.9-11.3,11.5-13.8c1.1-0.5,2.2-0.6,3.3-0.3c0.8,0.1,1.6,0.6,1.8,0.6
		c0.6,0.3,0.8,0.6,1.3,0.8C91.1,98.2,92,98.9,93,99.6z M86.7,97.4c-1.8,0-3.3,0.5-4.7,1.3c-3.4,2-5.9,4.6-7.3,8.2
		c-0.9,2.4-1.5,4.8,0,7.4c0.6,0.9,1.3,1.6,2.2,2c1.4,0.6,2.9,0.5,4.3-0.1c5.3-2,8.6-5.9,10.1-11.2c0.4-1.3,0.5-2.4,0.1-3.7
		C90.9,98.6,88.8,97.2,86.7,97.4z"/>
	<path d="M121.2,130.9c-0.8,0.2-1.3,0.1-1.4-0.7c-6.6,0.6-12.9-3.6-14.7-9.5c-0.4-1.2-0.7-2.2-0.4-3.5c0.1-0.3-0.2-0.7-0.4-1.3
		c2-2.7,4.7-3.7,8.2-3c4.8,0.9,8.2,3.8,10.3,8.1c0.7,1.6,1.2,3.3,0.7,5c-0.2,0.8-0.7,1.7-1.2,2.2
		C121.9,129.3,121.2,129.9,121.2,130.9z M117.1,129.5c4.5,0,6.6-2.5,5.6-6.1c-0.4-1-0.7-2.1-1.4-3.1c-1.8-2.9-4.5-4.6-7.4-6
		c-1.5-0.7-3-0.7-4.7-0.5c-2.2,0.6-3.5,2.1-3.6,4.4c0,0.7,0.1,1.2,0.2,1.8c0.7,2.4,2.1,4.5,4.1,6.1
		C112.1,128.2,114.7,129.4,117.1,129.5z"/>
	<path d="M99,134.3c-0.7,1.2-1.4,2.2-2,3.3c-1.9,2.7-4.6,3.7-7.6,3.7c-3.4-0.1-6.3-1.3-8.8-3.6c-2.6-2.4-3.2-6-1.3-8.9
		c0.6-0.8,3-3.3,3.5-3.7c1.3-0.8,2.2-1.2,3.8-1.4c0.4-0.1,0.7-0.1,1.1-0.1c2,0,3.6,0.7,5.4,1.7c2.7,1.6,4.6,3.8,5.3,6.9
		c0.1,0.7,0.1,1.5,0.2,2.2C98.5,134.3,98.8,134.3,99,134.3z M89.7,140.4c0.5-0.1,1.3-0.1,2-0.3c4.2-1,7.3-5.1,4.7-10
		c-1.5-2.9-4-4.4-7-5.3c-1.4-0.5-2.8-0.3-4.1,0.3c-2.1,0.9-3.9,2.3-5,4.4c-1.9,3-1.4,5.8,1.2,8C83.6,139.2,86.3,140.3,89.7,140.4z"
		/>
</g>
</svg>
