<?xml version="1.0" encoding="utf-8"?>
<!-- Generator: Adobe Illustrator 24.0.2, SVG Export Plug-In . SVG Version: 6.00 Build 0)  -->
<svg version="1.1"
	 id="svg4" inkscape:version="0.92.4 (5da689c313, 2019-01-14)" sodipodi:docname="G5.Virus Klecks.svg" xmlns:cc="http://creativecommons.org/ns#" xmlns:dc="http://purl.org/dc/elements/1.1/" xmlns:inkscape="http://www.inkscape.org/namespaces/inkscape" xmlns:rdf="http://www.w3.org/1999/02/22-rdf-syntax-ns#" xmlns:sodipodi="http://sodipodi.sourceforge.net/DTD/sodipodi-0.dtd" xmlns:svg="http://www.w3.org/2000/svg"
	 xmlns="http://www.w3.org/2000/svg" xmlns:xlink="http://www.w3.org/1999/xlink" x="0px" y="0px" viewBox="0 0 198.4 198.4"
	 style="enable-background:new 0 0 198.4 198.4;" xml:space="preserve">
<style type="text/css">
	.st0{fill:#25AD32;}
	.st1{display:none;fill:#25AD32;}
	.st2{fill:#FFFFFF;}
</style>
<sodipodi:namedview  bordercolor="#666666" borderopacity="1" gridtolerance="10" guidetolerance="10" id="namedview6" inkscape:current-layer="svg4" inkscape:cx="151.5407" inkscape:cy="109.79305" inkscape:pageopacity="0" inkscape:pageshadow="2" inkscape:window-height="1699" inkscape:window-maximized="1" inkscape:window-width="2736" inkscape:window-x="-13" inkscape:window-y="-13" inkscape:zoom="3.4231221" objecttolerance="10" pagecolor="#ffffff" showgrid="false">
	</sodipodi:namedview>
<path id="path2" class="st0" d="M188.1,22.1c-9.1-16.5-34.6-22.5-54-18.6c-19.9,4.1-19.4,16-43.9,25.8c-25.3,10.1-34.3,0.8-50.7,9.1
	c-25.4,12.9-36.9,52-31.2,82.8c6,32.8,32.6,68.6,73.8,74c51.9,6.8,96.5-38.5,97.5-70.5c0.6-18.5-13.5-31.1-5.2-50.1
	c5.2-11.9,14.9-16.2,16.9-31.2C191.7,40.7,193,31.1,188.1,22.1z"/>
<g id="Farbe">
	<g>
		<g>
			<path class="st1" d="M101.5,190.4c-33.6,0-67,0-100.6,0c-0.6,0-0.7-0.1-0.7-0.7c0-62.6,0-125.2,0-187.7c0-0.7,0.1-0.8,0.7-0.8
				c67,0,134,0,201,0c0.6,0,0.7,0.1,0.7,0.7c0,62.6,0,125.2,0,187.7c0,0.6-0.1,0.7-0.7,0.7C168.5,190.4,135.1,190.4,101.5,190.4z"/>
			<path class="st1" d="M1.1,3.8c0-0.2,0-0.5,0-0.6c0-0.5,0.2-0.7,0.7-0.6c0.2,0,0.5,0,0.7,0c64.8,0,129.6,0,194.5,0
				c1.3,0,1.3,0,1.3,1.3c0.2,0.5,0.1,0.8,0.1,1.3c0,35.3,0,70.6,0,105.9c0,25.2,0,50.5,0,75.7c0,1.5,0,1.5-1.6,1.5
				c-64.8,0-129.5,0-194.3,0c-1.6,0-1.6,0-1.6-1.5C0.9,126.2,0.9,65.7,0.9,5.1C0.9,4.6,0.8,4.2,1.1,3.8z"/>
			<path class="st1" d="M1.1,3.8c0,0.3,0,0.8,0,1.2c0,60.6,0,121.2,0,181.9c0,0.2,0,0.5,0,0.8s0.1,0.5,0.5,0.5c0.2,0,0.3,0,0.6,0
				c65,0,130.1,0,195,0c1.2,0,1,0.1,1-1c0-60.6,0-121.3,0-182c0-0.3,0-0.8,0-1.2c0.2,0,0.3,0.2,0.2,0.3c0,0.2,0,0.5,0,0.7
				c0,60.8,0,121.7,0,182.7c0,0.2,0,0.5,0,0.7c0,0.3-0.1,0.5-0.6,0.5c-0.2,0-0.5,0-0.6,0c-65.1,0-130.3,0-195.4,0
				c-1.3,0-1.2,0.1-1.2-1.2c0-61,0-121.8,0-182.8C0.8,4.5,0.5,4,1.1,3.8z"/>
			<path class="st1" d="M197.9,105.7c-0.6-4.2-1.6-8.1-3.5-11.8c-0.5-0.9-1.2-1.7-1.9-2.6c-0.6-0.6-1.2-0.7-1.9-0.5
				c-2.1,0.6-4.1,1.4-6.2,1.7c-4.2,0.7-8.4,1.2-12.5,1c-0.5,0-0.6-0.2-0.6-0.7c-0.3-3.8-1.4-7.3-3.6-10.5c-0.8-1.3-1.9-2.3-3.1-3.1
				c-1.4-1-2.9-1.4-4.6-0.7c-1.2,0.5-2.4,0.7-3.3,1.7c-2.1-3.7-4.2-7.4-6.4-11.1c-0.2-0.3-0.1-0.5,0.1-0.7c3.9-2.3,7.8-4.9,12.5-4.9
				c2.1,0,4.2-0.1,6.2-0.7c1.4-0.5,1.7-0.9,1.7-2.3c0.1-2.9-1-5.3-2.4-7.7c-1.5-2.6-3.1-5-5.5-6.9c-1.2-0.9-2.6-1.7-4.2-1.7
				c-1.3,0-2.1,0.7-2.1,2c0,1.2-0.5,2.1-1,3c-3,4.6-5.9,9.4-9.4,13.8c-0.1,0.2-0.3,0.3-0.5,0.6c-1.9-1.7-3.4-3.9-5.5-5.5
				c-6.5-4.8-13.1-9.6-21-12.2c-1.3-0.5-1.3-0.5-0.5-1.6c1.9-2.8,4.3-4.9,7.4-6.2c2.1-0.8,4.1-2,5.7-3.7c0.8-0.8,1-1.6,0.6-2.8
				c-0.9-2.6-2.8-4.4-4.6-6.3c-2.1-2-4.5-3.5-7.2-4.8c-1.2-0.5-2.3-0.6-3.5-0.8c-0.7-0.1-1.3,0.2-1.6,0.8c-2,2.8-3.4,6-4.5,9.2
				c-0.6,1.4-0.5,3.1-0.7,4.6c-0.2,2.7-0.7,5.5-0.6,8.1c0.1,0.8-0.5,0.5-0.8,0.3c-1.5-0.2-3-0.5-4.5-0.6c-2.1-0.2-4.3-0.3-6.4-0.3
				c-0.5,0-1,0-1.5-0.2c-2.9-1.3-5.8-1.3-8.8-0.2c-0.3,0.2-0.9,0.2-1.5,0.5c-0.7,0.3-0.9,0-1-0.6c-2-8.7-2.1-17.3,1.6-25.7
				c1.3-2.9,2-5.9,1.6-9.2c0-0.3,0-0.7,0.1-1c0-1-0.3-1.6-1.4-1.9c-1.7-0.3-3.5-0.6-5.3-0.7c-4.2-0.2-8.4,0.2-12.4,1.5
				c-1.5,0.5-2,1-2,2.6c0,3.3,0,6.5,0.8,9.6c0.1,0.6,0.1,0.8-0.7,0.9c-1.3,0-2.6,0.3-3.7,1c-1.4,0.8-2.4,1.9-2.3,3.6
				c0,1,0.5,1.9,1.3,2.2c2.6,1.2,3.9,3.1,5.1,5.7c1.7,3.8,2.7,7.8,3.6,11.8c0.3,1.5,0.8,3,1.2,4.5c0.1,0.3,0,0.6-0.3,0.7
				c-3.9,1.7-7.8,3.7-11.3,6.3c-0.6,0.3-0.7,0-0.9-0.3c-2-2.9-3.4-5.9-4.3-9.3c-0.7-2.4-0.9-5-1.7-7.3c-0.6-1.9-1.4-3.6-2.7-5.2
				c-1.2-1.5-2.1-1.9-3.9-1.3c-1.5,0.3-2.7,1.3-3.7,2.2c-2.1,1.9-3.9,3.7-5.5,5.9c-0.8,1.3-1.4,2.7-1.9,4.2c-0.3,1.3,0,2.3,1.2,3
				c1.3,0.8,2.6,1.6,3.8,2.3c3.6,2.1,6.7,4.9,9.9,7.7c0.9,0.8,1.7,1.7,2.7,2.6c0.2,0.2,0.5,0.6,0,0.9c-7.7,7.3-13.5,16.1-16.7,26.5
				c-0.5-0.2-0.7-0.5-1-0.8c-2.6-2.4-5.2-4.8-8-7c-1.3-1-2.3-1-3.6,0c-0.7,0.6-1.3,1.3-1.6,2.1c-2.2,4.6-3.1,9.4-2,14.5
				c0.2,1,0.7,2.1,1.4,3c0.8,1,1.7,1.3,3,1c2.1-0.5,4.1-0.9,6.3-1.2c0.9-0.1,1.7,0,2.7,0c0.5,0,0.5,0.2,0.5,0.6
				c-0.5,3.3-0.6,6.6-0.5,10c0,1.4,0.1,2.8,0.3,4.1c0.1,0.7-0.1,0.9-0.7,1c-3.5,0.9-7,1.2-10.6,0.9c-3.8-0.2-7.4-1.2-11.3-1.7
				c-2.3-0.3-4.6-0.7-7-0.8c-0.7,0-1.3,0.2-1.7,0.8c-0.8,1-1,2.3-1,3.6c0,4.6,0.9,9.1,3.1,13.2c0.5,0.9,1,1.7,1.7,2.4
				c1,1,2.2,1.3,3.6,0.9c4.2-1,7.9-2.9,11.5-5.1c2.2-1.4,4.4-2.6,6.9-3.5c0.6-0.2,0.8-0.2,0.9,0.5c0.8,3.1,2.2,5.8,4.9,7.8
				c1.6,1.3,3.5,2,5.5,2.3c0.5,0.1,0.8,0.2,1,0.8c0.6,1.5,1.7,2.6,2.8,3.7c0.8,0.9,1.7,1.9,2.4,3c-2.7,2.2-5.7,3.5-8.9,4.6
				c-2.6,0.9-5,2-7.3,3.5c-0.3,0.2-0.7,0.6-1,0.8c-0.7,0.6-0.8,1.4-0.6,2.2c0.5,1.5,1.4,2.7,2.3,3.8c3.1,3.6,6.9,6.3,11.4,7.9
				c0.6,0.2,1.3,0.3,1.9,0.5c1.2,0.3,2.1-0.1,2.6-1.3c1.4-3.1,2.4-6.3,3.7-9.4c0.6-1.6,1.5-3,2.7-4.4c6.2,6.2,13.5,10.5,21.4,13.7
				c0.5,0.1,0.5,0.3,0.2,0.7c-1.2,2.1-2.3,3.9-3.7,5.8c-1,1.5-2,3.3-2.7,4.9c-0.6,1.3-0.5,2.4,0.5,3.5c0.2,0.3,0.6,0.7,0.9,0.8
				c3.8,2.3,7.9,3.5,12.3,2.4c2.1-0.5,2.7-1.4,2.8-3.5c0.1-2.2-0.1-4.3-0.2-6.5c-0.1-1.5-0.2-2.9,0.1-4.4c0.1-0.3,0.1-0.6,0.6-0.6
				c3.9,0.5,8,0.8,12,1.3c0.2,0,0.5,0.1,0.8,0.1c-0.5,0.6-0.8,1.3-1.3,1.7c-1.4,1.7-2.1,3.7-2.4,5.8c-0.1,0.7,0.1,1.3,0.6,1.7
				c0.6,0.7,1.3,1.3,2.1,1.6c3.8,1.9,7.8,2.4,12,1.9c0.9-0.1,1.9-0.6,2.8-0.9c0.9-0.3,1.3-1,1.4-2.1c0.1-3.7-0.3-7.2-1.5-10.7
				c-0.2-0.6,0-0.8,0.6-0.9c4.6-1.4,9.3-2.8,13.6-5c1.9-0.9,3.8-1.9,5.7-2.9c0.3-0.2,0.6-0.1,0.9,0.2c5.7,6.5,9.9,13.8,13.1,21.7
				c0.8,2,1.9,3.8,2.8,5.8c0.1,0.3,0.5,0.6,0.8,0.9c-0.5,0-0.7,0-0.9,0c-48.7,0-97.3,0-146,0c-0.7,0-0.8-0.2-0.8-0.9
				c0-61.1,0-122.2,0-183.1c0-0.7,0.2-0.8,0.9-0.8c64.9,0,129.8,0,194.7,0c0.7,0,0.9,0.2,0.9,0.9c0,33.7,0,67.5,0,101.1
				C197.9,105.2,197.9,105.4,197.9,105.7z"/>
			<g>
				<path class="st0" d="M26.5,95.8c2-3.6,3-7.5,2.8-11.7c0-1.4-0.3-4.2-0.6-5.8c1.2,0.9,5.2,4.5,6,5.5c3,3.3,3.6,4.3,7.9,5.6
					c0.5,0.1,0.8,0.2,1.3,0.2c0.2,0,0.5,0.1,0.6-0.1s0-0.6-0.2-0.7c-0.1-0.1-0.3-0.2-0.6-0.2c-2.2-0.6-4.3-1.5-6.3-2.7
					c-0.5-0.2-0.6-0.5-0.5-1c1.9-6,4.8-11.4,8.5-16.4c2.4-3.4,5.2-6.5,8.4-9.4c0.5-0.3,1.7-1,2.1-0.6c1.9,2.2,3.6,4.4,5.1,6.7
					c0.2,0.3-0.5,1.6,0,1.3c0.5-0.3,0.2-0.8,0-1.3c-1.6-2.3-3.3-4.6-5.1-6.7c-3.7-4.3-7.7-6.2-12.4-9.4c-1.2-0.7-3.3-2.1-4.5-2.7
					c-0.2-0.1,0-1.4-0.1-1.7c5.6-2.7,9.5-6.9,11.8-12.8c1,1.4,1.5,2.9,1.9,4.4c0.7,2.8,1,5.7,2,8.4c2,5.7,5.1,10.6,9.2,14.9
					c0.7,0.7,1.4,1.4,2,2.1c0.2,0.2,0.5,0.5,0.9,0.2c0.3-0.3,0.1-0.6-0.1-0.9c-1.2-1.3-2.4-2.6-3.6-3.8c-0.9-1-1.9-2.3-2.8-3.5
					c3.9-2.7,7.8-5.1,12.2-6.7c0.5-0.2,0.8-0.3,0.7-1c-0.9-4.3-1.9-8.6-3.1-12.8c-0.7-2.4-1.9-4.6-2.9-7c-0.6-1.4-1.7-0.3-3.1-0.9
					c-0.6-0.2-2-1.4-2.4-1.7c-0.8-0.6,0.1-2.4,0.6-3.3c0.9-1.6,2.4-2.2,4.2-2.6c0.3-0.1,0.7-0.1,1-0.1c0.7,0,1.2,0.2,1.4,0.9
					c1.2,3,2.3,6,3.5,8.9c0.9,2.3,1.2,4.8,1.6,7.2c0.6,3.5,1.2,7,1.7,10.6c0.1,0.3,0.2,0.5,0.6,0.3c1.9-0.6,5.5-1.5,7.5-2.1
					c-0.7,1.2-1.6,2.6-1.9,3.8c-0.6,2.9,0.1,4.8,2.3,6.6c0.6,0.6,0.2,1.6,0.8,2.2c2,2.1,2.7,4.6,2.6,7.4c-0.1,2.7-0.1,5.3-0.2,7.9
					c0,0.5-0.2,1.2,0.5,1.2c0.6,0,0.6-0.7,0.6-1.2c0.1-2.8,0.1-5.5,0.2-8.2c0.1-2.1-0.5-3.9-1.5-5.8c-0.2-0.3-0.5-0.8-0.7-1.3
					c3.1,0.7,6.2,0.6,9.1-0.8c0.2,0.1,0.1,0.2,0.1,0.3c-1,2.2-1.2,4.4-0.6,6.7c0.3,1.6,0.9,3.3,1.4,4.9c0.1,0.3,0.2,0.6,0.3,0.8
					c0.2,0.3,0.5,0.7,0.9,0.5c0.3-0.2,0.2-0.6,0.1-0.9c-0.6-1.5-1-3-1.4-4.5c-0.3-1.5-0.7-3-0.5-4.5c0.1-0.5,0.2-1,0.5-1.5
					c1-1.9,2.1-3.7,3.3-5.6c1.9-2.6,1.4-6-0.8-8.2c-0.3-0.2-0.6-0.6-0.9-1c0.7-0.2,1.4-0.1,2.1-0.1c3,0,5.9,0.6,8.8,1
					c0.2,0,0.5,0.1,0.5,0.5c-0.3,2.7,1.4,5.2,0.9,7.9c-0.5,2.6-1.3,5.5-1.9,8c-0.1,0.3-0.7-0.2,0,0c0.7,0.2-0.1,0.5,0,0
					c1.7-6.3,2.3-12.5,2.1-18.9c-0.2-4.2,0.1-8.4,1.4-12.4c0.8-2.3,1.7-4.5,2.9-6.7c3.5,6,7.3,9.5,13.9,11.8c-0.3,0.5-1.2,1-1.6,1.3
					c-1,0.5-2.4,1.3-3.5,1.7c-5.8,2.6-6,6.6-7.4,12.7c-0.7,3.1-1.4,6.6-1.3,9.9c0,0.5-1.2,0.9-0.7,1.3c0.2,0.2,0.5,0.2,0.6-0.1
					c0.1-0.3,0.1-0.7,0.1-1c-0.1-3.9,0.3-7.9,1.5-11.6c0.6-2,0.6-2,2.6-1.3c5.1,2,9.9,4.4,14.2,7.8c2.6,2.1,5.2,4.1,7.8,6.2
					c1.3,1,2.3,2.3,3.6,3.5c0.3,0.3,0,0.5-0.2,0.7c-1.9,1.6-3.7,3.3-5.6,4.8c-2.3,1.9-3.4,4.1-5.7,5.9c-0.1,0.1,1.7,0,0,0
					c0.1,0.2-1.3,0.3-1,0.3c0.3,0,0.7-0.1,1-0.3c3.4-2.8,6.9-5.3,10.1-8.2c3.4-2.9,6-6.5,8.4-10.3c1.6-2.6,3.1-5.1,4.8-7.5
					c0.1-0.1,0.1-0.2,0.3-0.2c1.9,5.2,4.9,10.1,9.3,13.6c-0.5,0.2-1.9,1.5-2.2,1.5c-3.4-0.3-6.5,0.9-9.5,2.3c-4.2,2-8.5,4.8-12,7.8
					c-1.7,1.5-1.9,2.1-3.4,3.9c-1.3,1.5-2.4,3-3.6,4.6c-0.5,0.6-0.9-0.3-0.6,0.6c0.3,0,0.5-0.3,0.6-0.6c2-2.4,3.9-5.1,6-7.4
					s4.3-4.3,6.9-6c0.5-0.3,0.7-0.2,0.9,0.2c2.4,3.4,4.3,7,6,10.7c0.2,0.5,0,0.7-0.3,0.9c-3.4,3.1-7.3,5.3-11.6,6.9
					c-2.3,0.8-2.2,2.2-4.6,2.7c-0.2,0-3.1-0.6-3-0.1c0.1,0.3,0.1,0.8,0.7,0.6c6.3-1.5,12.3-3.5,17.3-7.8c1.2-1,2.4-2,3.6-2.9
					c-1.3,6.6,2.8,13,7.1,18.1c-2.6-0.5-7.4-0.5-9.9-0.8c-4.6-0.5-9.6-0.8-14.4-0.3c-0.7,0.1-0.7-0.2-1.4-0.1
					c-0.5,0.1-0.6-0.8-0.6-0.3c0,0.5,0.3,0.5,0.6,0.3c1.6-0.1,3.4-0.3,5-0.3c5.2-0.1,10.5,0.3,15.6,1.4c0.6,0.1,0.7,0.3,0.8,0.9
					c0.5,4.3,0.3,8.6-0.1,12.8c-0.1,1.5-0.3,3-0.6,4.5c-0.1,0.9-0.2,1-1.2,0.8c-2.8-0.6-5.6-1.3-8.4-1.9c-2.3-0.5-4.8-1-7.2-1.5
					c-0.2,0-0.3,0-0.6,0c-0.3,0-0.6,0.1-0.6,0.5s0.3,0.2,0.5,0.3c2.7,1,5.5,1.6,8.1,2.2c4.4,0.9,8.7,2,13.1,2.3
					c3,0.2,6.2,0.1,9.2-0.1c1.2-0.1,2.3,0,3.6-0.1c-2.3,2.2-3.9,4.6-4.9,7.7c-0.9,2.9-0.9,5.9-0.3,9.2c-0.8-0.7-1,0.1-1.6-0.5
					c-2.7-2.3-5.9-4.9-8.9-6.6c-5.1-2.9-10.2-6-16.3-5.3c-1.3,0.1-2.6,0-3.8,0.3c0.5,0.7,0.9-0.1,1.6-0.2c4.9-0.7,9.5,1.3,14.1,3.1
					c0.5,0.2,0.6,0.3,0.3,0.8c-1.2,2.9-2.6,5.6-3.9,8.4c-0.3,0.8,0.2,1.5-0.1,2.3c-0.2,0.6-0.2-0.2,0,0c2.7,2.1,5,5.2,7.7,7.4
					c3.1,2.6,7.9,4.1,11.7,5.6c1.4,0.6,3,0.9,4.4,1.3c1.3,0.3,0.9,1.4,2.1,2c1.2,0.6,1.4,1.4,0.8,2.6c-0.9,2-2,3.7-3.3,5.5
					c-0.5,0.7-1,0.8-1.9,0.2c-1-0.7-3.6-1.7-4.4-2.7c-3.4-3.6-5.2-7-8.9-10.1c-3.4-2.8-7.1-5.3-11-7.4c-0.7-0.3-1.2-0.2-1.5,0.5
					s-0.8,1.3-1.4,1.9c-2.8,3.4-5.8,6.5-9.2,9.3c-0.5,0.3-0.7,0.3-1,0c-0.6-0.6-1.3-1-1.9-1.5c-0.3-0.2-0.7-0.5-1-0.7
					c-0.3-0.1-0.7-0.6-0.9-0.1c-0.3,0.5,0.1,0.8,0.5,1c1,0.8,2.2,1.7,3.3,2.7c3.3,2.9,7.8,5.5,11.3,8.1c4.1,3.1,6.7,5,11.3,7.3
					c0.2,0.1,0.6,1.6,0.9,1.7c-5.7,2.7-9.5,7.1-12,12.9c-0.5-1-0.9-1.9-1.3-2.9c-3.1-8-7.1-15.6-12.7-22.1c-1.7-2-3.6-3.9-5.5-5.8
					c-0.1-0.1-0.2-0.2-0.5-0.3c-0.3-0.2-0.6-0.2-0.9,0.1c-0.2,0.2,0,0.5,0.1,0.6c0.6,1.2,1.5,2,2.4,2.9c1,1,1,1-0.2,1.9
					c-3.4,2.1-7.1,3.7-10.9,5.1c-2.6,0.9-5.2,1.9-8,2.3c-0.3,0-0.6,0.1-0.7-0.2c-1.5-2.9-3.1-5.8-3.9-8.9c-0.7-2.9-0.6-5.8-0.7-8.8
					c0-0.8-0.1-1.6-0.7-2.4c-0.3,0.3-0.5,0.7-0.5,1c-0.1,5.6,0.5,10.9,3,16c1,2,2.2,3.7,3,5.8c0.9,2.2,1.6,5.6,1.6,8.1
					c-5.2-3.4-10.7-4.3-16.7-2.6c0.2-1.2,0.8-2,1.4-2.8c0.8-1.2,1.6-2.3,2.6-3.5c1.9-2.4,2.7-5.3,3-8.4c0.5-4.8,0-9.4-1.2-13.9
					c-0.1-0.5,0.3-0.1,0,0c-0.6,0.2,0.2,0.8,0.2,1.3c0.6,2.8,0.9,5.6,1,8.4c0.1,3.1-1.2,5.3-2.2,8.4c-0.3,1-0.9,2.1-1.5,3
					c-0.2,0.3-0.5,0.5-0.9,0.5c-3.4-0.1-6.9-0.5-10.2-0.8c-0.9-0.1-1.7-0.2-2.7-0.3c-0.6,0-0.6-0.2-0.5-0.7c0.7-3.3,1.5-6.5,2.2-9.8
					c0.1-0.3,0.1-0.7,0-1c-0.1-0.2-0.2-0.6-0.5-0.5c-0.3,0-0.5,0.2-0.5,0.6c-0.2,0.9-0.3,2-0.6,2.9c-0.5,2.4-1.2,4.9-1.5,7.4
					c-0.5,3.1-0.5,6.2,0,9.3c0.1,0.9,0.1,1.9,0.2,2.9c-4.2-3.3-8.6-4.4-13.7-3.3c0-0.5,0.3-0.7,0.5-0.9c1.5-2.1,2.9-4.3,4.4-6.5
					c2.1-3.3,3.1-6.9,3.9-10.6c0.1-0.6,0.2-1.2,0.3-1.7c0-0.2,0.1-0.5-0.2-0.6c-0.2-0.1-0.3,0.1-0.6,0.2c-0.2,0.2-0.2,0.6-0.3,0.8
					c-0.7,2.7-1.2,5.3-2.2,7.9c-0.2,0.6-0.3,0.7-0.9,0.5c-5-2-9.6-4.6-14.1-7.7c-2.6-1.7-5.1-3.6-7.2-5.8c-0.5-0.5-0.5-0.7-0.1-1.2
					c3.3-4.2,7.1-7.9,11.3-11.1c0.1-0.1,0.3-0.2,0.6-0.5c-0.5-0.3-0.9-0.3-1.3,0c-3.5,2.9-7,5.7-9.9,9.3c-2.4,2.9-4.8,6-5.8,9.8
					c-0.6,2-1,4.1-1.7,5.9c0,0.1-0.1,0.2-0.2,0.5c-3.4-6-8.7-9.4-15.1-11.7c2.7-1.2,5.1-2.3,7.7-3.4c3-1.2,5.8-2.8,8.1-5
					c3.6-3.4,7.1-7,10-11c0.2-0.3,0.5-0.8,0.6-1.3c-0.5-0.1-0.7,0.1-0.9,0.5c-2.8,3.9-6.4,7.1-9.8,10.5c-0.5,0.5-0.7,0.5-1.2-0.1
					c-1.4-1.9-2.7-3.8-3.7-5.8c-0.2-0.3-0.1-0.6,0.2-0.7c2.6-0.8,4.2-2.7,5.6-4.9c0.5-0.7,0.9-1.4,1.4-2.2c1.6-2.7,4.1-3.9,7-4.4
					c1.5-0.2,3-0.3,4.6-0.5c0.5,0,1.3,0,1.2-0.5s-0.8-0.6-1.4-0.5c-1.2,0.1-2.3,0.3-3.5,0.5c-0.9,0.1-1.9,0.2-2.7,0.5
					c-2.7,0.5-4.5,2.1-5.9,4.3c-0.2,0.2-0.3,0.6-0.7,1c-0.1-4.5-2.9-8.5-6.2-11.4c2.6,0.2,5.7,1,8.1,1c2.3,0,4.6-0.2,7-0.8
					c0.7-0.1,1.4-0.5,1.7-1.3c-1.2-0.1-2.2,0.2-3.3,0.5c-3.7,0.8-7.4,0.7-11.1,0.5c-2.3-0.1-4.5-0.9-6.7-1.3
					c-0.5-0.1-0.8-0.2-1.3-0.2c-0.9,0.1-0.9-0.5-1-1.2c-0.9-5.2-0.8-10.5-0.2-15.7c0.1-1,0.1-1,1.2-0.8c1.4,0.2,2.7,0.8,3.9,1.3
					c0.2,0.1,0.5,0.1,0.7,0.2c0.2,0,0.5-0.1,0.6-0.2c0.1-0.2,0-0.3-0.1-0.6s-0.5-0.3-0.7-0.5c-3.9-1.7-8-2.2-12.3-1.2
					c-0.1,0-0.2,0-0.3,0C26.8,96,26.5,96.2,26.5,95.8z"/>
			</g>
			<path class="st1" d="M197.9,108.6c0,0.2,0,0.6,0,0.8c0,25.9,0,51.7,0,77.6c0,0.7-0.1,0.9-0.9,0.9c-14.9,0-29.7,0-44.6,0
				c-0.2,0-0.6,0-0.9,0c2-0.9,3.6-2.1,5.1-3.5c2.7-2.4,5-5.3,6-8.8c0.6-2.1,0.3-2.8-1.4-4.1c-2.4-1.9-5.1-3.1-7.7-4.8
				c-5-3.1-9.5-6.7-13.8-10.9c-0.3-0.3-0.8-0.8-1.2-1c-0.3-0.2-0.2-0.5,0-0.7c3.9-3.1,7.4-6.9,10.5-10.8c0.3-0.5,0.6-0.3,0.9-0.1
				c2.3,1,4.4,2.7,6.5,4.1c5,3.4,9.1,7.5,13.1,11.8c1.2,1.3,2.3,2.6,3.7,3.6c1.2,1,2,1,3.3,0.1c0.5-0.3,0.8-0.7,1-1.2
				c0.9-1.6,1.9-3.1,2.8-4.8c0.8-1.4,0.6-2.1-0.5-3.3c-1.3-1.3-2.9-2-4.5-2.3c-5.3-1.2-9.9-3.8-14.1-7.1c-2.7-2.1-5.2-4.2-7.9-6.3
				c-0.5-0.3-0.6-0.7-0.2-1.3c1.5-3,3-6,4.4-9.2c0.2-0.5,0.3-0.6,0.9-0.3c3.1,1.5,5.8,3.5,8.4,5.7c1.9,1.6,3.7,3.5,5.9,4.8
				c2,1,3.1,1,4.8-0.5c2.6-2.2,3.9-5.1,4.6-8.2c0.6-2.8,0.7-5.6-0.6-8.4c-0.3-0.8-0.9-1.4-1.9-1.7c-2.7-0.9-5.3-0.9-8-0.7
				c-3.6,0.3-7.2,0.2-10.7-0.3c-0.5-0.1-0.7-0.2-0.6-0.8c0.6-3.9,1-7.9,1.2-11.8c0-0.5,0-0.7,0.6-0.7c4.6,0,9.3,0,13.9,0.8
				c3.8,0.7,7.5,1.5,11.1,2.9c0.9,0.3,1.9,0.8,2.7,1.4c1.5,0.9,3.1,1.5,4.9,2c1.4,0.3,2.1,0,2.4-1.4
				C197.5,109.6,197.7,109,197.9,108.6C197.8,108.6,197.9,108.6,197.9,108.6z"/>
			<g>
				<path class="st0" d="M67.6,6.6C75.4,8.3,79.7,8.2,87.2,6C87,7.8,87,9.4,86.5,11c-1,3.5-2.6,6.9-3.4,10.5
					c-0.9,3.7-1.4,7.4-1,11.1c0.3,3.3,0.9,6.4,1.6,9.5c0.1,0.7,1,1,0.5,1.2c-1.9,0.5-3.8,1.5-5.6,2c-0.5,0.1-2.1,1.3-2.2,0.7
					c-0.8-4.8-2.2-10.9-3-15.6c-0.5-2.6-0.7-3.3-1.7-5.7c-1.3-3.1-3.5-7.7-4.1-10.9C67,11.6,67.8,8.9,67.6,6.6z"/>
			</g>
			<g>
				<path class="st0" d="M194.1,111.7c-0.5-0.2-2.3-0.7-2.8-0.9c-4.3-2.8-9.5-4.3-14.5-5.1c-4.5-0.8-9.6-1.7-14.2-1.5
					c-0.8,0-2.1,0-2.6-0.5c-0.5-0.5,0.1-2.2,0.1-3c0-0.6,0.1-1.3,0-1.9c-0.1-0.6,0.7-0.1,1.3,0c1.3,0.2,2.7,0.5,4.1,0.6
					c2.7,0.2,2.8-1.2,3.6-3.8c0.5-1.6,1.9-1.2,3.5-1.3c4.3-0.1,8.5-0.5,12.7-1.3c1.2-0.2,2.6-1.5,3.6-1.9c0.1,0,0.1,0.6,0.2,0.7
					C188.4,98.2,191.3,105.9,194.1,111.7z"/>
			</g>
			<g>
				<path class="st0" d="M9.4,131.2c1.3-3.4,1.5-6.2,0.9-9.4c-0.6-3.4-3-7.4-5.1-10.3c1.5,0.2,3.8,0.3,5.2,0.6
					c3.7,0.6,7.5,2.4,11.3,3c3.8,0.6,7.8,0.1,11.5-0.8c0.2-0.1,0.7-0.5,0.7,0.2c0,0.5,0.6,0.9-0.3,1.3c-2.7,1-4.1,3.1-4.4,5.9
					c-0.1,0.7-0.3,1-1,1.3c-2.4,0.9-4.6,3.6-7,5c-3.5,2.1-7.1,3.4-10.9,4.8C10.2,132.5,9.6,131.2,9.4,131.2z"/>
			</g>
			<g>
				<path class="st0" d="M47,129.5c0,2.7-1.6,2.6-3.9,3.7c-1.6,0.7-3.3,0.8-4.9,0.1c-3.9-1.5-6.7-4.2-7.7-8.4c-0.3-1.5-0.5-3,0-4.5
					c0.7-2.3,2.4-5.6,4.9-5.7c3.4-0.2,7.7,2.9,9.8,5.3C47,122,47,126.8,47,129.5z"/>
			</g>
			<g>
				<path class="st0" d="M91.3,40.9c1.2,0,2.2,1.3,3.4,1.7c4.8,1.7,6,7,2.6,10.7c-1.6,1.9-3.8,2.6-6.3,2.9c-2,0.2-3.8,0-5.6-0.8
					c-3-1.4-4.8-4.8-3.8-7.5c0.3-1.2,0.9-2.1,1.7-3C85.5,42.6,88.3,40.6,91.3,40.9z"/>
			</g>
			<g>
				<path class="st0" d="M169.6,92.8c0,1.6-0.2,2.8-0.9,3.9c-0.9,1.5-2.3,2.1-3.9,1.3c-2.3-1-3.8-2.9-4.9-5.1
					c-0.9-2.1-1.7-4.2-2.2-6.4c-0.5-2-0.1-3.8,0.6-5.7c0.7-1.7,2.3-2.3,4.1-1.5c1.5,0.6,2.6,1.7,3.5,2.9
					C168.2,85.3,169.4,89,169.6,92.8z"/>
			</g>
			<g>
				<path class="st0" d="M171.3,131.8c0-3.7,1.2-7.2,3.5-10.2c0.6-0.7,1.3-1.3,2.1-1.7c1.3-0.7,2.4-0.3,3.1,0.9
					c0.8,1.4,1,2.9,0.9,4.5c-0.1,3.9-1.3,7.5-3.8,10.6c-0.3,0.5-0.8,0.8-1.3,1c-2,1-3.3,0.6-4.1-1.5
					C171.5,134.1,171.4,133.1,171.3,131.8z"/>
			</g>
			<g>
				<path class="st0" d="M20.9,89.4c0.1-2.8,0.6-6,2.2-8.9c0.3-0.6,0.8-1.3,1.3-1.7c0.9-1.2,2.1-1,2.9,0.2c0.8,1.2,1,2.6,1.3,3.8
					c0.5,4.4-0.1,8.6-2.3,12.4c-0.2,0.5-0.6,0.9-1,1.4c-0.9,1-2.1,1-2.9-0.2c-0.7-0.9-0.9-2-1.2-3.1C21,92.1,21,90.9,20.9,89.4z"/>
			</g>
			<g>
				<path class="st0" d="M158.6,44.6c0.7,0,1.3,0.2,1.9,0.7c4.2,3.3,7.1,7.3,8.6,12.4c0.2,0.8,0.5,1.6,0.3,2.4
					c-0.2,1.2-0.8,1.6-2,1.2c-1-0.3-2-0.9-2.8-1.7c-3.5-3.1-6.2-6.9-7.3-11.4c-0.2-0.8-0.2-1.6-0.1-2.6
					C157.5,44.8,157.9,44.6,158.6,44.6z"/>
			</g>
			<g>
				<path class="st0" d="M10,126.6c0,1.6-0.1,2.9-0.6,4.2c-0.5,1.2-1,1.3-2.1,0.5c-1.4-1.2-2.1-2.8-2.8-4.4c-1.2-2.7-1.7-5.5-2-8.4
					c-0.1-1.7,0.1-3.4,0.6-5.1c0.3-1.2,1-1.4,2-0.6c0.8,0.7,1.5,1.6,2,2.6C9.1,119,9.9,122.8,10,126.6z"/>
			</g>
			<g>
				<path class="st0" d="M43.8,164.6c-1.2,0-2-0.3-2.9-0.7c-4.2-2-7.9-4.8-10.7-8.5c-0.6-0.8-1-1.6-1.4-2.7c-0.2-0.8,0-1.3,0.9-1.2
					c1,0.1,2,0.2,2.9,0.7c4.6,2,8.4,4.9,11.4,8.8c0.3,0.5,0.6,0.9,0.8,1.5C45.5,164.2,45.3,164.6,43.8,164.6z"/>
			</g>
			<g>
				<path class="st0" d="M36.8,42.9c0.1-2.2,0.8-3.5,1.6-4.8c2.2-3.7,5.2-6.5,9.3-8c1.5-0.6,2.2,0,2.1,1.6c-0.1,1-0.5,2.1-1,2.9
					c-2,3.5-4.5,6.4-8,8.4c-0.6,0.3-1.2,0.6-1.7,0.8C37.5,44.3,36.8,43.8,36.8,42.9z"/>
			</g>
			<g>
				<path class="st0" d="M161.2,174.9c-0.1,0.8-0.5,1.7-0.9,2.8c-1.5,3-3.7,5.3-6,7.7c-1.3,1.2-2.7,1.7-4.3,2.1
					c-0.9,0.2-1.4-0.2-1.4-1.2c0-0.9,0.2-1.9,0.6-2.7c1.9-3.7,4.3-7,7.8-9.2c0.7-0.5,1.5-0.9,2.3-1.2
					C160.6,172.8,161.1,173.1,161.2,174.9z"/>
			</g>
			<g>
				<path class="st0" d="M117.2,19.8c0.5,0,1.2,0.2,1.7,0.5c3.5,1.6,6.7,3.7,9.3,6.6c1.2,1.3,2.3,2.7,2.9,4.3
					c0.1,0.5,0.3,0.9-0.1,1.3c-0.5,0.3-0.9,0.5-1.5,0.3c-5.1-1.6-9.2-4.9-12.4-9.1c-0.6-0.7-1-1.5-1.3-2.3
					C115.3,20.3,115.8,19.7,117.2,19.8z"/>
			</g>
			<g>
				<path class="st0" d="M105.3,181.3c-3.3-0.1-6.4-0.7-9.2-2.3c-0.5-0.2-0.9-0.6-1.3-0.9c-0.8-0.7-0.7-1.6,0.1-2.3
					c0.9-0.7,2.1-0.7,3.3-0.8c3.8-0.5,7.4,0.2,10.8,2c0.7,0.3,1.3,0.9,1.9,1.6c0.5,0.7,0.5,1-0.2,1.5c-1.4,1-3.1,1.3-4.8,1.4
					C105.7,181.3,105.6,181.3,105.3,181.3z"/>
			</g>
			<g>
				<path class="st0" d="M77.8,181.9c-2.8-0.2-5.6-0.7-8-2.6c-0.5-0.3-0.8-0.8-1.2-1.3c-0.7-1-0.5-1.9,0.7-2.4
					c1.4-0.7,2.8-0.9,4.3-0.8c3,0.2,5.9,0.9,8.2,2.9c0.7,0.6,1.4,1.2,1.2,2.2c-0.1,0.9-1,1.2-1.9,1.4
					C80.3,181.9,79.1,181.9,77.8,181.9z"/>
			</g>
			<g>
				<path class="st0" d="M195.2,110.6c-1.6-0.8-2.3-2.2-2.9-3.7c-1.9-4.2-2.9-8.5-2.7-13c0-0.7,0.1-1.3,0.3-2c0.3-1,0.9-1,1.6-0.2
					c0.9,1.2,1.6,2.4,2.2,3.7c1.9,4.3,2.4,8.9,2.2,13.6C195.8,109.7,195.4,110.3,195.2,110.6z"/>
			</g>
			<g>
				<path class="st0" d="M79.8,3.2c1.4,0,2.8,0,4.2,0c0.9,0,1.7,0.2,2.6,0.7C86.8,4,87.1,4.2,87,4.5c0,0.3-0.3,0.3-0.6,0.5
					c-1.6,0.7-3.4,1.2-5.1,1.3c-3.3,0.3-6.5,0.2-9.8,0.1c-0.9,0-1.9-0.2-2.8-0.6c-0.2-0.1-0.7-0.2-0.7-0.6c0-0.2,0.3-0.3,0.6-0.5
					c1.6-1,3.5-1.3,5.3-1.5C75.8,3.1,77.8,3.1,79.8,3.2z"/>
			</g>
			<g>
				<path class="st0" d="M197.3,108c0-0.3,0-0.8,0-1.2c0,0,0,0,0.1,0C197.4,107.3,197.4,107.6,197.3,108
					C197.3,108.1,197.3,108.1,197.3,108z"/>
			</g>
			<g>
				<path class="st0" d="M27,95.8c0.1,0.2,0.3,0.1,0.6,0.2c-0.2,0.1-0.5,0.2-0.7,0.1C26.7,96,26.8,95.9,27,95.8z"/>
			</g>
		</g>
	</g>
	<path d="M46.2,142c-1.6-2.6-4.6-4.6-5.6-7.4c-6.4-1-9.9-5-11.3-11.1c-2.6,0.8-4.9,2.1-7.2,3.5c-3.4,2.1-7,3.9-10.8,5.1
		c-0.3,0.1-0.7,0.2-1.2,0.3c-1.3,0.3-2.3,0-3.4-0.8c-1.4-1.3-2.1-2.9-2.9-4.6c-1.5-3.5-2.1-7.3-2.1-11c0-1.2,0.1-2.3,0.7-3.4
		c0.7-1,1.3-1.4,2.4-1.2c1.2,0.2,2.2,0.2,3.1,0.3c3.5,0.6,7.2,1.2,10.7,1.9c4.6,0.7,9.4,0.8,14.1-0.3c0.5-0.1,0.8-0.2,1.4-0.5
		c-0.7-5.1-0.7-10.2,0.1-15.4c-1.6-0.2-3.1-0.2-4.6,0.1c-1.7,0.3-3.4,0.7-5,1c-1.2,0.2-2-0.2-2.7-1c-0.6-0.7-0.8-1.5-1.2-2.3
		c-0.7-2.4-0.7-5-0.5-7.5c0.2-2.4,0.9-4.6,2-7c0.6-1.2,1.2-2.1,2.2-2.9c0.9-0.7,2.2-0.7,3,0c1.3,1,2.7,2.1,3.9,3.3
		c1.5,1.3,2.9,2.8,4.4,4.1c0.2,0.2,0.6,0.5,0.9,0.7c3.4-10.7,9.2-19.5,17.3-27.1c-0.2-0.3-0.3-0.6-0.5-0.7
		c-3.6-3.5-7.3-7.1-11.5-9.8c-1.4-0.8-2.8-1.6-4.2-2.4c-2-1.2-2.2-2.1-1.5-4.3c0.7-2.4,2.2-4.5,3.9-6.3c1.2-1.3,2.4-2.6,3.8-3.6
		c1.2-0.9,2.6-1.7,4.1-1.9c0.9-0.1,1.7,0.2,2.3,0.9c2.4,3,3.4,6.5,4.1,10.1c0.7,4.3,2.2,8.1,4.6,11.7c0.2,0.5,0.6,0.7,0.8,1.2
		c3.8-2.7,7.9-4.9,12.2-6.7c-0.3-1.5-0.7-3-1-4.4c-0.9-3.4-1.5-7.1-2.9-10.3c-0.7-1.4-1.3-2.9-2-4.3c-0.6-1.2-1.4-2-2.6-2.7
		c-0.6-0.3-1.2-0.7-1.7-0.9c-0.9-0.7-1.3-1.7-1-2.9c0.3-1.3,1.2-2.1,2.2-2.8c1.2-0.7,2.4-0.9,3.7-1c0.3,0,0.6-0.1,0.8-0.1
		c-0.3-1.9-0.7-3.6-0.8-5.5c0-1.6,0-3.5,0-5.2c0-1,0.6-1.9,1.6-2.1c1.7-0.5,3.4-0.9,5.2-1.3c3.1-0.5,6.2-0.5,9.3-0.1
		c1.2,0.1,2.4,0.3,3.6,0.6C87.8,4,88.1,4.6,88,5.7c-0.1,0.7-0.1,1.3,0,2c0.1,2.9-0.7,5.6-1.7,8.2c-2.3,5.6-3.5,11.4-3,17.4
		c0.2,2.8,0.8,5.5,1.3,8.2c0.1,0.3,0.2,0.7,0.3,0.9c1.6-0.5,3.1-0.9,4.6-1.3c2-0.5,4.1-0.1,6,0.7c0.6,0.2,1,0.5,1.6,0.5
		c3.9,0,7.9,0.3,11.8,1c0.1,0,0.2,0,0.2,0c0-1.2-0.1-2.3,0-3.6c0.3-3.1,0.7-6.3,1-9.4c0-0.3,0.2-0.7,0.3-0.9
		c1.3-2.9,2.4-5.8,4.3-8.5c0.5-0.7,1-1,1.9-0.9c1.2,0.2,2.4,0.3,3.5,0.8c4.4,2,8,5,10.7,9.1c0.6,0.7,0.7,1.6,1,2.4
		c0.3,0.7-0.1,1.4-0.6,2c-1.7,2-3.9,3.3-6.4,4.2c-3.4,1.4-5.8,3.8-7.5,7.1c0.5,0.2,0.7,0.5,1,0.6c3.6,1.3,7.1,3,10.5,4.8
		c1.3,0.7,2.6,1.7,3.7,2.6c2,1.4,3.8,2.9,5.9,4.2c2,1.3,3.4,3,4.9,4.6c0.5,0.6,0.9,0.9,1.5,1.6c1.4-2,2.8-3.6,4.1-5.5
		c2-3.1,4.1-6.3,6-9.4c0.6-0.7,0.8-1.6,0.8-2.6c0.1-1.9,1.5-2.6,3.4-2c2.1,0.7,3.8,2.1,5.2,3.9c2.3,2.9,4.4,6,5.3,9.6
		c0.2,0.9,0.2,2,0.2,3.1c0,0.9-0.7,1.5-1.5,1.7c-1.6,0.5-3.3,0.8-4.9,0.7c-3.4-0.2-6.5,0.7-9.5,2.3c-1.4,0.7-2.8,1.6-4.2,2.3
		c-0.3,0.2-0.6,0.5-0.7,0.6c2.2,3.9,4.4,7.8,6.6,11.7c0.8-1.4,2.4-1.5,3.8-2c1.3-0.5,2.7,0,3.8,0.7c2.6,1.7,4.1,4.2,5.2,6.9
		c1,2.3,1.5,4.9,1.7,7.5c1.6,0,3.3,0.1,4.8,0c2.8-0.2,5.6-0.5,8.4-0.9c2.1-0.5,4.2-1.2,6.2-1.9c0.7-0.2,1.2-0.2,1.6,0.2
		c0.7,0.7,1.3,1.4,1.9,2.2c0.7,1.2,1.2,2.4,1.7,3.8c0.9,3,1.9,6,2,9.1c0.1,1.4,0,2.8-0.3,4.1c-0.3,1.4-1,1.9-2.4,1.4
		c-1.4-0.5-2.9-0.8-4.1-1.6c-4.1-2.6-8.7-3.5-13.2-4.5c-5.1-1-10.2-1-15.4-1c-0.1,0-0.2,0-0.5,0.1c-0.1,2.2-0.2,4.4-0.5,6.6
		c-0.2,2.1-0.6,4.3-0.8,6.5c1.3,0.5,2.8,0.5,4.2,0.7c3.6,0.5,7.3-0.2,10.8-0.2c1.5,0,3,0.5,4.5,0.8c0.8,0.2,1.5,0.8,1.7,1.6
		c0.5,0.9,0.8,2,0.9,3.1c0.3,3.9-0.6,7.7-2.7,11c-0.8,1.4-2,2.4-3.4,3.4c-1,0.7-2.2,0.6-3.4-0.1c-2.4-1.3-4.5-3.4-6.5-5.1
		c-2.7-2.3-5.6-4.4-8.7-5.8c-1.7,3.6-3.4,7.2-5.1,10.6c2.7,2.1,5.3,4.4,8.1,6.5c1.6,1.3,3.4,2.3,5,3.5c2.9,2,6.2,3,9.5,3.8
		c1.6,0.5,3.3,0.9,4.4,2.2c1,1,1.2,1.9,0.6,3.1c-0.9,1.7-1.9,3.4-2.9,4.9c-0.3,0.6-0.7,0.9-1.3,1.3c-1.2,0.7-2,0.7-2.9-0.2
		c-1.2-1-2.3-2.2-3.4-3.4c-3.8-4.1-7.7-8.2-12.3-11.4c-2.4-1.7-4.8-3.6-7.5-4.9c-0.2-0.1-0.5-0.2-0.7-0.3
		c-3.3,4.3-6.9,8.2-11.3,11.6c1.5,1.4,2.9,2.7,4.3,3.9c4.4,3.9,9.1,7.3,14.1,10.2c2,1,3.8,2.2,5.6,3.6c0.7,0.7,0.9,1.5,0.7,2.4
		c-0.3,2-1.2,3.5-2.2,5.1c-1.6,2.4-3.5,4.5-5.9,6.2c-0.7,0.6-1.5,1-2.2,1.5c-0.7,0.3-1.4,0.6-2.1,0.7c-0.9,0.1-1.6-0.5-2-1.3
		c-0.2-0.6-0.6-1-0.7-1.6c-0.7-1.4-1.5-2.8-2-4.2c-3.1-7.7-7.1-14.7-12.5-21c-0.3-0.5-0.7-0.7-0.8-1c-3.5,1.7-6.7,3.5-10.1,4.9
		c-3.4,1.4-7.1,2.3-10.3,3.4c0.6,2,1,3.8,1.5,5.9c0.2,1.4,0.1,2.8,0.2,4.2c0,0.5-0.1,0.7,0,1.2c0.1,1.2-0.3,2-1.4,2.3
		c-1.2,0.5-2.3,0.8-3.5,0.9c-3.5,0.3-7-0.1-10.2-1.6c-1-0.5-2-1-2.8-2c-0.6-0.6-0.7-1.2-0.7-2c0.5-2,0.9-3.7,2.1-5.3
		c0.6-0.7,1-1.5,1.7-2.3c-4.5-0.5-8.8-0.9-13.2-1.4c-0.5,1.6-0.3,3.3-0.2,4.8c0.1,1.6,0.3,3.4,0.3,4.9c0,0.9,0,2-0.2,2.9
		c-0.2,1.3-1.2,2-2.2,2.2c-1.6,0.6-3.3,0.7-4.9,0.5c-2.4-0.2-4.6-0.9-6.9-2.1c-1-0.6-2-1.4-2.4-2.4c-0.3-0.7-0.2-1.5,0.1-2.2
		c1.2-2.8,2.6-5,4.4-7.3c0.8-1.2,1.5-2.8,2.4-4.1c-8.4-3.5-15.4-7.7-21.8-14.1c-0.9,1.2-1.9,2.4-2.4,3.8c-0.7,1.7-1.3,3.5-2,5.3
		c-0.7,1.7-1.3,3.4-2,5c-0.3,0.7-1.3,1.2-2.2,0.9c-1.3-0.3-2.7-0.7-3.8-1.2c-3.7-2-7.2-4.3-9.9-7.5c-0.7-0.7-1.3-1.7-1.7-2.6
		c-0.8-2-0.5-2.7,1-3.7c1.2-0.8,2.4-1.5,3.7-2c2-0.9,4.2-1.9,6.3-2.6c2-0.7,3.7-1.9,5.5-3.1C46,142.2,46.1,142.1,46.2,142z
		 M99.8,144.7c0.1,0,0.2,0,0.3-0.1c0.1,0.3,0.3,0.6,0.5,0.8c0.2,0.9,0.5,2,0.7,2.9c0.7,4.2,1,8.2,0.5,12.4c-0.3,2.2-0.9,4.4-2.1,6.2
		c-1,1.5-2.1,3-3.3,4.5c-0.6,0.8-1.2,1.7-1.4,2.8c6-1.6,11.4-0.8,16.7,2.7c-0.1-1.4-0.2-2.6-0.5-3.7c-0.6-3.3-1.9-6-3.4-8.7
		c-3.4-5.5-3.9-11.4-3.8-17.5c0-0.2,0.2-0.5,0.5-0.9c0.6,0.7,0.7,1.4,0.7,2c0.1,2,0.1,3.8,0.2,5.9c0.3,4.6,2.4,8.6,4.6,12.5
		c6.3-0.8,17.9-5.9,20.4-8.2c-1.2-1.5-2.9-2.6-3.6-4.4c0.7-0.5,0.9-0.1,1.3,0.2c1.2,1.3,2.2,2.6,3.4,3.7c2.9,2.9,5.3,6,7.4,9.4
		c2.9,4.8,5.6,9.8,7.3,15.1c0.3,0.7,0.7,1.5,1.2,2.4c2.4-5.9,6.2-10.2,12-12.9c-0.9-0.6-1.9-1-2.7-1.5c-4.5-2.2-8.6-5.2-12.5-8.4
		s-7.3-6.9-11.4-9.9c-0.3-0.2-0.5-0.6-0.7-0.8c0.1-0.1,0.2-0.2,0.2-0.3c1.9,0.5,2.9,2,4.4,2.9c3.3-2.6,6.2-5.5,8.7-8.7
		c0.8-1,2-2,2.3-3.3c0-0.2,0.7-0.3,0.9-0.2c0.2,0,0.6,0.3,0.7,0.5c5.3,2.9,10.1,6.5,14.4,10.7c2.4,2.3,4.6,4.8,7,7.3
		c0.7,0.7,1.5,1.3,2.2,1.9c0.9,0.7,1.6,0.6,2.2-0.5c1-1.5,2-3.1,2.9-4.8c0.7-1.5,0.6-2.3-0.9-3.1c-1.2-0.7-2.3-1-3.6-1.4
		c-4.6-1.2-8.7-3.3-12.5-6c-3.4-2.6-6.7-5.2-10.1-7.9c-0.3-0.2-0.1-0.2-0.2-0.3c0.3-0.7,0.7-1.5,0.8-2c0.9-1.9,2-3.6,2.8-5.5
		c0.7-1.3,1-2.7,1.7-4.1c-2.2-0.9-4.3-1.7-6.4-2.1c-2.6-0.6-5.1-0.7-7.7-0.3c-0.7,0.1-1.4,0.1-2-0.7c0.7-0.1,1.2-0.2,1.7-0.2
		c2.3-0.1,4.8-0.3,7.2-0.1c2.9,0.2,5.5,1.4,8.1,2.4c2.1,0.8,4.1,2.1,6,3.5c2.2,1.7,4.3,3.6,6.4,5.5c0.3,0.3,0.7,0.7,1.2,0.9
		c-1.2-6.6,0.3-12.2,5.2-16.7c-1,0-2-0.1-2.9,0c-2.8,0.2-5.5,0.5-8.2,0.3c-2.8-0.1-5.5-0.6-8.1-1c-2.4-0.5-4.9-0.9-7.3-1.5
		c-1.2-0.2-2.3-0.5-3.5-0.7c-1.3-0.3-2.4-0.7-3.7-1.2c-0.2-0.1-0.6-0.2-0.7-0.3c0.2-0.6,0.7-0.6,1-0.5c0.9,0.2,2,0.3,2.9,0.6
		c4.2,0.8,8.2,1.9,12.4,2.8c0.3,0.1,0.7,0.1,1.3,0.1c0.3-2.7,0.7-5.1,0.9-7.7c0.2-3.4,0.3-6.6-0.1-10.1c-0.1-1.2-0.1-1.2-1.3-1.4
		c-4.6-0.9-9.2-1.3-13.8-1.4c-2,0-3.9,0.3-6,0.5c-0.2,0-0.6,0-0.7,0c0-0.1-0.1-0.2-0.1-0.5c0-0.1,0-0.2,0-0.5c2.7-0.7,5.3-0.7,8-0.7
		c2.8,0.1,5.5,0.3,8.2,0.7c2.7,0.3,5.2,0.8,7.9,1.4c-2.2-2.3-3.8-5.1-4.6-8.2c-0.8-3-1.3-6-0.2-9.3c-3.3,2.6-6.2,5.3-9.9,7.1
		c-3.6,1.7-7.4,3-11.5,3.8c-0.1-0.3-0.2-0.7-0.3-0.9c7.3-1.6,14.2-4.3,19.6-9.5c-1.9-4.2-3.9-8.1-6.6-11.7
		c-5.9,3.6-9.6,9.1-13.9,14.4c0-0.6-0.1-0.8,0-1c0.1-0.3,0.3-0.6,0.5-0.7c1.7-2.1,3.4-4.3,5-6.3c1-1.3,2-2.4,3.3-3.5
		c3.4-3,7.2-5.3,11.3-7.3c3.1-1.5,6.3-2.4,9.9-2c0.6,0.1,1-0.1,1.6-0.1c-2.3-1.6-4.2-3.6-5.8-5.9c-1.6-2.2-2.9-4.6-3.7-7.4
		c-0.2,0.1-0.3,0.2-0.3,0.2c-2,3.1-3.7,6-5.8,9.2c-2.8,4.3-6,8.1-10.2,11.1c-1.5,1-2.9,2.3-4.4,3.5c-0.9,0.7-1.9,1.5-2.8,2.2
		c-0.6,0.5-1,0.5-1.7,0c4.5-3.6,9.2-7,13.5-11c-1.3-1.3-2.3-2.6-3.6-3.6c-2.3-2-4.8-3.6-7.2-5.6c-3.4-2.9-7.3-5.1-11.4-7
		c-1.7-0.7-3.4-1.4-5.2-2.1c-0.3,0.7-0.6,1.2-0.7,1.7c-0.9,3.1-1.5,6.2-1.6,9.4c0,1,0,2.1,0,3.1c0,0.2-0.2,0.6-0.3,0.7
		c-0.7-0.3-0.7-0.8-0.7-1.4c-0.1-2.4,0.1-4.9,0.6-7.4c0.6-2.8,1-5.7,2.8-8.1c2-3.1,4.6-5.6,8.1-7c1.3-0.6,2.4-1.2,3.6-1.7
		c0.5-0.2,0.7-0.6,1-0.8c-6.6-2.2-11.6-6.2-15.2-12.3c-0.5,0.9-0.9,2-1.4,2.9c-0.7,2-1.7,3.9-2.1,6c-0.7,3.3-0.9,6.4-0.8,9.8
		c0.1,2.7,0,5.3,0,8.1c0,0.9,0,2-0.2,3c-0.5,2.1-0.8,4.2-1.3,6.2c-0.1,0.7-0.2,1.3-0.5,2c-0.1,0.5-0.1,1-0.8,0.9
		c-0.6-0.1-0.3-0.7-0.2-1c0.2-0.7,0.3-1.4,0.6-2.1c0.6-2.6,1.4-5.2,1.4-7.9c0-1.2,0-2.2,0-3.4c0-0.7,0.1-1.5,0.2-2.3
		c-3.8-0.7-7.4-1.3-11.5-1c0.6,0.7,0.8,1,1.3,1.4c1.9,2,2.2,5.1,0.7,7.7c-0.5,0.7-0.8,1.2-1.3,1.9c-0.7,1.4-1.6,2.7-2.2,4.1
		c-0.5,0.9-0.6,2-0.5,3.3c0.3,2.4,0.9,4.6,1.9,7.1c0.1,0.3,0.5,0.7-0.1,0.9c-0.6,0.2-0.7-0.3-0.8-0.7c-0.1-0.2-0.2-0.5-0.3-0.7
		c-0.5-1.5-0.9-3.1-1.3-4.6c-0.6-2.3-0.6-4.6,0.7-7c0-0.1,0-0.2,0.1-0.5c-3,1.5-6,1.7-9.4,0.8c0.3,0.5,0.5,0.7,0.6,0.8
		c1.2,1.9,1.9,3.7,1.9,5.9c0,3-0.1,6-0.2,8.9v0.1c-0.1,0.2-0.3,0.7-0.5,0.7c-0.5,0-0.6-0.3-0.6-0.7c0-1.6,0.1-3.1,0.1-4.6
		c0-2,0.2-3.9,0-5.9c-0.3-3-2.1-5.1-4.4-7.1c-2.9-2.4-3.5-6.3-1.5-9.4c0.1-0.2,0.3-0.6,0.7-0.9c-2.2,0.7-4.3,1.2-6.4,1.9
		c-0.7-3.6-1.3-7.2-1.9-10.7c-0.5-2.4-0.7-5-1.6-7.4c-0.5-1-0.8-2.1-1.3-3.3c-0.7-2-1.6-3.8-2.2-5.8c-0.2-0.7-0.7-0.8-1.3-0.8
		c-1.4,0.1-2.8,0.5-3.9,1.2c-0.6,0.5-1,0.9-1.4,1.5c-0.7,0.9-0.3,1.9,0.7,2.4c0.5,0.3,0.8,0.6,1.4,0.7c1.5,0.7,2.4,1.7,3.1,3.3
		s1.3,3,2,4.5c1.4,3.4,2,7.1,2.9,10.5c0.3,1.3,0.6,2.7,0.8,3.9c0.2,0.8,0.3,0.9-0.5,1.2c-3.5,1.3-6.7,3.1-9.9,5.1
		c-0.7,0.6-1.6,1-2.4,1.6c0.8,1,1.6,2.1,2.4,3.1c1.2,1.4,2.4,2.7,3.7,3.9c0.2,0.3,0.7,0.7,0.3,0.9c-0.5,0.5-0.7,0-1-0.3
		c-0.5-0.5-0.8-0.9-1.3-1.4c-2.1-2-3.9-4.4-5.6-6.9c-2-3.1-3.7-6.4-4.6-10.1c-0.6-2.2-0.9-4.5-1.5-6.7c-0.5-1.6-0.8-3.1-2-4.5
		c-2.2,5.9-6.2,10.1-12,12.8c1.3,0.7,2.6,1.3,3.7,2c4.9,3.3,9.3,7.1,13.1,11.4c2,2.1,3.4,4.5,5.1,6.7c0.2,0.3,0.5,0.7,0.5,0.9
		c0,0.2-0.1,0.5-0.2,0.7c-0.2-0.1-0.6-0.1-0.7-0.2c-0.2-0.2-0.3-0.6-0.6-0.7c-1.6-2.6-3.5-4.8-5.5-7.1c-7.8,6.6-15,17.2-17.7,26.9
		c1,0.6,2.1,1.2,3.4,1.7c1.2,0.6,2.3,0.8,3.5,1.3c0.5,0.1,0.9,0.2,0.8,1c-0.5-0.1-0.9-0.1-1.4-0.2c-4.4-1.2-8-3.6-11.1-7
		c-0.8-0.9-2-1.9-3.3-2.9c1.2,6,0.6,11.4-2.6,16.7c0.5-0.1,0.8-0.1,1.2-0.2c4.2-1,8.1-0.7,12,1c0.3,0.1,0.7,0.2,0.8,0.5
		c0.1,0.1,0.2,0.5,0.2,0.6c-0.1,0.1-0.3,0.3-0.6,0.3c-0.3,0-0.7-0.2-0.9-0.3c-1.5-0.6-3-1-4.6-1.3c-0.7,6-0.8,12,0.3,17.7
		c1.5,0.2,2.8,0.5,4.1,0.7c0.9,0.2,1.9,0.6,2.8,0.7c0.8,0.1,1.7,0.2,2.6,0.2c4.1,0.5,8.1,0.3,12.1-0.7c0.6-0.1,1-0.1,1.7-0.1
		c-0.7,0.8-0.7,0.8-1.5,1c-4.1,1-8.2,0.9-12.3,0.7c-0.7-0.1-1.5-0.1-2.4-0.2c3.5,2.9,5.6,6.4,5.6,10.8c0.2-0.2,0.5-0.6,0.6-0.7
		c1.4-2.3,3.3-4.1,5.9-4.6c2.1-0.5,4.3-0.7,6.4-0.9c0.5,0,0.8,0.2,1.3,0.3c0,0.1,0,0.2,0,0.3c-0.5,0.1-0.8,0.3-1.3,0.3
		c-1.4,0.1-2.8,0.2-4.2,0.5c-3,0.5-5.5,1.6-7.2,4.2c-0.9,1.5-1.9,2.9-2.9,4.3c-0.5,0.7-0.9,1.3-1.6,1.7c-0.9,0.7-2,0.9-3.1,1.5
		c1.3,2.3,2.7,4.6,4.5,6.9c0.2-0.2,0.5-0.2,0.6-0.3c2-2,3.8-3.7,5.8-5.7c1.4-1.5,2.7-3.1,3.9-4.6c0.2-0.3,0.5-0.7,1-0.7
		c-0.1,0.3-0.2,0.7-0.3,0.8c-0.6,0.7-0.9,1.5-1.6,2.2c-1.6,1.9-3.4,3.7-5,5.6c-3.3,3.5-6.5,6.4-10.8,8.1c-2.6,0.9-5.7,2.6-8.2,3.7
		c-0.2,0.1,5.6,2.3,8.2,4.3c2.7,2,5,4.4,6.7,7.5c0.7-2,1.3-3.5,1.6-5.2c0.8-3.8,3.1-7,5.3-10c1.7-2.3,3.9-4.3,6-6.3
		c1.4-1.3,2.9-2.4,4.3-3.6c0.3-0.3,0.7-0.7,1.5-0.2c-4.6,3.6-8.7,7.5-12.2,12.2c4.6,5.3,17.1,12.4,22.4,14.2
		c0.5-1.3,0.9-2.4,1.3-3.7c0.5-1.6,0.7-3.3,1.2-4.8c0.1-0.5,0.1-1,0.9-1.2c0,0.3,0.1,0.7,0,0.9c-0.1,0.6-0.2,1-0.3,1.6
		c-0.7,3.8-2,7.4-4.2,10.7c-1.3,1.9-2.3,3.7-3.7,5.6c-0.3,0.5-0.6,0.8-0.9,1.4c5.3-1.3,9.6-0.1,13.8,3.3c-0.1-1.3-0.2-2.4-0.3-3.5
		c-0.5-3.4-0.3-6.6,0.3-10c0.3-1.9,0.8-3.5,1.2-5.3c0.2-1.2,0.5-2.2,0.7-3.4c0.1-0.5,0.2-0.7,0.7-0.7c0.2,0.1,0.3,0.6,0.5,0.8
		c0,0.1,0,0.2,0,0.2c-0.6,2.1-0.9,4.3-1.5,6.4c-0.3,1.4-0.7,2.8-0.9,4.4c4.8,0.7,9.4,1.2,14.1,1.3c2-2.9,2.8-6,2.9-9.4
		c0.1-3.9-0.3-7.9-1-11.7C99.6,145.8,99.8,145.3,99.8,144.7z M67.6,7.1c0.2,2,0.2,3.9,0.6,5.9c0.2,1.6,0.7,3.1,1.2,4.6
		c1,2.9,2.3,5.7,3.5,8.6c0.6,1.3,1,2.6,1.4,3.9c0.7,3.8,1.4,7.8,2.1,11.7c0.2,1.2,0.3,2.2,0.6,3.5c2.3-0.7,4.6-1.3,7-2
		c-0.1-0.2-0.1-0.5-0.1-0.7c-0.7-3.1-1.3-6.3-1.6-9.4c-0.6-5.5,0.6-10.7,2.3-15.8c0.7-2,1.5-4.2,2.1-6.2C87,9.9,87,8.2,87.2,6.6
		c-3.1,1.4-6.4,1.6-9.6,1.9C74.3,8.5,71.1,8.3,67.6,7.1z M160.6,103.4c1.5-0.1,2.8-0.2,4.1-0.2c4.5-0.1,8.9,0.6,13.4,1.4
		c4.5,0.8,8.7,2.2,12.7,4.6c0.6,0.3,1.2,0.6,2,0.9c-3.1-6-4.6-12-3.8-18.5c-1.3,0.5-2.4,0.9-3.7,1.3c-3.4,0.7-7,1.2-10.5,1.3
		c-1.4,0.1-2.8,0.1-4.2,0.1c-0.2,0.7-0.3,1.2-0.5,1.6c-0.8,2.8-2.4,3.7-5.3,3.4c-1.4-0.2-2.8-0.5-4.3-0.7
		C160.4,100.3,160.5,101.7,160.6,103.4z M34.5,115.4c-0.1-0.6-0.2-1-0.3-1.5c-0.3,0.1-0.7,0.1-0.8,0.2c-4.2,1-8.5,1.4-12.8,0.7
		c-2.9-0.6-5.8-0.9-8.7-1.5c-1.6-0.3-3.4-0.6-5.2-0.9c0.1,0.2,0.1,0.3,0.1,0.5c3.1,4.2,4.2,8.8,4.5,13.9c0.1,1.7-0.2,3.4-0.8,5
		c0.5-0.1,0.7-0.2,1-0.3c2.2-0.9,4.5-2,6.6-3.1c2.8-1.4,5.3-3.1,8-4.6c1-0.6,2.1-0.9,3.3-1.4C29.6,119,31,116.6,34.5,115.4z
		 M40.8,133.5c0.5-0.1,1-0.1,1.6-0.2c2.4-0.7,4.1-2.9,4.1-5.7c0.1-3.7-1.5-6.7-4.2-9.1c-1.6-1.4-3.4-2.2-5.6-2.3
		c-2.7-0.1-5.2,1-6,4.1c-0.5,1.4-0.3,2.8-0.1,4.2c0.3,2.2,1.5,4.2,3.1,5.8C35.7,132.1,37.8,133.5,40.8,133.5z M90.1,56.2
		c1.6-0.1,3-0.3,4.4-0.8c2.3-0.9,3.9-2.6,4.8-5c0.8-2.3,0-4.8-2-6.5c-1.4-1.2-3.4-1.7-4.5-2c-2,0-3.4-0.6-6.7,0.8
		c-0.1,0.1-1.7,1.2-2.8,2.3c-1.9,2-2.3,5.2-0.5,7.7C84.8,55.4,87.3,56.1,90.1,56.2z M169.2,93c-0.2-4.2-1.5-7.7-3.9-10.8
		c-0.8-1-1.7-2-3-2.6c-2-1-3.8-0.3-4.6,1.9c-0.3,0.8-0.5,1.9-0.6,2.8c-0.2,1.7,0.2,3.4,0.8,4.9c0.7,1.7,1,3.5,2,5
		c1,1.6,2.3,3.1,4.2,3.9c1.9,0.8,3.4,0.3,4.2-1.4C169.1,95.4,169.2,94.2,169.2,93z M180.8,125.2c0-1.5-0.3-3.3-0.7-4.2
		c-0.8-1.7-2.1-2.1-3.7-1.2c-0.7,0.5-1.3,0.8-1.9,1.5c-2.7,3.5-3.8,7.5-3.4,12c0.1,0.8,0.5,1.7,0.7,2.4c0.6,1.2,1.6,1.6,2.8,1.3
		c0.9-0.2,1.7-0.7,2.3-1.5C179.7,132.5,180.6,129,180.8,125.2z M29,85.2c0-0.7,0-1.4-0.1-2.1c-0.2-1.3-0.5-2.7-1-3.7
		c-0.9-1.7-2.2-1.9-3.4-0.3c-0.8,1-1.6,2.2-2,3.6c-0.8,2.7-1.3,5.3-1.2,8.1c0.1,1.9,0.2,3.5,1,5.1c0.9,1.9,2.3,2,3.5,0.3
		c0.7-0.7,1-1.7,1.5-2.6C28.5,91.1,28.9,88.4,29,85.2z M169.2,59.8c-0.1-0.3-0.1-0.8-0.2-1.3c-0.6-2.6-1.9-4.8-3.3-7.1
		c-1.5-2.3-3.5-4.3-5.8-6c-0.6-0.5-1.3-0.6-2-0.6c-0.6,0-0.8,0.3-1,0.9c-0.2,1.2-0.1,2.2,0.2,3.4c1.2,3.7,3.3,6.9,6,9.6
		c1,1,2.2,2.1,3.6,2.7C168.4,62.1,169.2,61.5,169.2,59.8z M10.5,127.4c-0.1-4.3-0.9-8-2.7-11.4c-0.6-1-1.2-2-2-2.9
		c-1-1-2-0.8-2.3,0.6s-0.6,2.8-0.6,4.3c0,1.5,0.3,3,0.7,4.5c0.7,2.9,1.6,5.6,3.4,8c0.3,0.5,0.8,0.8,1.3,1.2c0.6,0.3,1,0.2,1.4-0.3
		c0.2-0.3,0.5-0.7,0.6-1.2C10.3,129,10.3,128,10.5,127.4z M43.6,164.4c1.9,0,2.2-0.6,1.7-1.9c-0.3-0.7-0.7-1.5-1.3-2.1
		c-3-3.8-6.9-6.7-11.4-8.6c-0.7-0.3-1.6-0.5-2.4-0.6c-1.2-0.1-1.5,0.5-1,1.5c0.3,0.7,0.7,1.4,1,2c2.6,3.4,5.9,6.2,9.8,8.1
		C41.2,163.8,42.5,164.3,43.6,164.4z M37.1,42.9c0,1.3,0.7,1.9,2,1.5c0.7-0.2,1.4-0.5,2-0.8c2.7-1.5,4.8-3.6,6.6-6.2
		c1-1.5,2-3,2.3-4.6c0.5-2-0.5-2.8-2.2-2c-1.6,0.7-3.1,1.5-4.5,2.6c-2,1.5-3.5,3.5-4.8,5.7C37.8,40.3,37.1,41.4,37.1,42.9z
		 M129.7,33.5c1.4-0.1,1.7-0.6,1.3-1.9c-0.1-0.5-0.3-0.8-0.6-1.2c-0.7-0.9-1.4-2-2.1-2.9c-2.8-3-6-5.2-9.9-7
		c-0.6-0.2-1.2-0.3-1.9-0.3c-0.9,0-1.4,0.6-1,1.5c0.2,0.7,0.6,1.3,0.8,1.9c2.8,3.9,6.4,7,10.8,8.9C128,33.1,128.8,33.2,129.7,33.5z
		 M161,174.6c0-1.7-0.5-2.1-1.6-2c-0.7,0.1-1.3,0.5-2,0.7c-3.5,2-6,5-8,8.6c-0.7,1-1,2.1-1.2,3.4c-0.1,1.3,0.3,1.7,1.5,1.5
		c1.3-0.3,2.6-0.7,3.6-1.6c2.6-2.3,4.9-4.8,6.5-7.9C160.4,176.4,160.7,175.2,161,174.6z M99.6,174.2c-0.7,0.1-2,0.3-3.4,0.6
		c-0.9,0.2-1.9,0.7-2,1.6c-0.1,0.9,0.7,1.5,1.5,2c1.7,1.2,3.7,1.7,5.8,2.1c2.4,0.5,4.9,0.7,7.4-0.1c0.7-0.2,1.2-0.6,1.7-0.8
		c0.7-0.6,0.7-0.9,0.2-1.6c-0.5-0.6-0.9-1-1.5-1.4C106.6,174.9,103.4,174.4,99.6,174.2z M72.8,174.5c-0.7,0.1-1.7,0.2-2.7,0.6
		c-2,0.7-2.2,2-0.8,3.4c0.8,0.8,2,1.6,3.1,2c2.4,0.8,4.9,1.4,7.5,0.9c0.8-0.1,1.7-0.5,2.4-0.8c0.8-0.6,0.9-1.3,0.5-2.1
		c-0.3-0.6-0.8-0.9-1.4-1.4C79.1,175.2,76.2,174.6,72.8,174.5z M194.8,110.9c0.3-0.7,0.7-1.2,0.7-1.7c0.1-1.5,0.1-3,0-4.5
		c-0.3-3.4-0.9-6.6-2.4-9.8c-0.6-1-1.2-2.1-2-3.1c-0.7-0.8-1.3-0.7-1.6,0.3c-0.2,0.7-0.3,1.4-0.3,2.1c-0.1,4.4,0.9,8.7,2.7,12.8
		c0.5,0.9,1,2,1.6,2.8C193.8,110.2,194.3,110.4,194.8,110.9z M68.1,5.9c0,0.1,0,0.2,0,0.3c0.3,0.1,0.6,0.5,0.8,0.5
		c1,0.2,2.1,0.6,3.3,0.6c2.3,0.1,4.6,0.1,7.1,0c2.2-0.2,4.4-0.5,6.6-1.4c0.6-0.2,1-0.2,1.3-0.8c-0.9-0.8-2-1.2-3.1-1.2
		c-2.3-0.1-4.6-0.2-7.1-0.1c-2.6,0.1-5,0.5-7.4,1.3C69,5.4,68.5,5.7,68.1,5.9z"/>
	
		<image style="display:none;overflow:visible;enable-background:new    ;" width="213" height="177" xlink:href="8C1EBFCB.jpg"  transform="matrix(0.1885 0 0 0.1885 -13.0811 -0.1542)">
	</image>
</g>
<g id="Ebene_1_1_">
	<path class="st2" d="M148.5,68.6l-6.4,5l-3.6,5l3.6,10.2l5.6-3.3l8-4.5l-2.9-5.8L148.5,68.6z"/>
	<path class="st2" d="M142.8,96.5c0,0-0.7,8-0.6,10.7c0.3,3.6,0.8,6.9,0.8,6.9l8.7,2.3l6.6,1.5l1.3-7.8l0.3-7.3l-0.6-4.5l-8.5-1.4
		L142.8,96.5z"/>
	<path class="st2" d="M153.2,117.2c0,0,11.1,4.1,14.1,6.5c1,0.8,3.4,4.5,3.4,4.5l5-9.6h-12.1L153.2,117.2z"/>
	<path class="st2" d="M144.7,123.4l-1.2,24.5l8.7-11.7l3.9-9.6l-5.6-2.7L144.7,123.4z"/>
	<path class="st2" d="M174.3,153.4c-2.1-0.7-2.8-0.7-2.9-0.7c-0.2,0.3,0.7,1,1.2,1.5c0.1,0.2,1.5,1.6,2.8,1.2c0.5-0.2,0.9-0.7,0.8-1
		C176.1,154.1,175.7,154,174.3,153.4z"/>
	<path class="st2" d="M116.7,45.7l-1.6,6.5l-0.5,7.3c0,0,3.1,5.3,4.6,6.5c3.6,2.6,8.1,2.3,10.7,3.6c1.2,0.7,4.5,3.1,4.5,3.1l8.1-6.4
		l1.9-2.2l-5.8-6.7c0,0-8.8-6-12.8-8c-2.1-1-8.7-3.5-8.7-3.5"/>
	<path class="st2" d="M169.1,93c-0.2-4.2-1.5-7.7-3.9-10.8c-0.8-1-1.7-2-3-2.6c-2-1-3.8-0.3-4.6,1.9c-0.3,0.8-0.5,1.9-0.6,2.8
		c-0.2,1.7,0.2,3.4,0.8,4.9c0.7,1.7,1,3.5,2,5c1,1.6,2.3,3.1,4.2,3.9c1.9,0.8,3.4,0.3,4.2-1.4C169.1,95.6,169.1,94.2,169.1,93z"/>
	<path class="st2" d="M97.9,42.9c0,0,1.7,2.3,2,2.9c0.8,2.8,0.9,3.3,0.9,3.3l8,4.1c0,0,0.3-1.9,0.5-2.7c0.1-1.5,0.1-6.5,0.1-6.5
		s-3.8-0.7-5.7-0.9C101.5,42.8,97.9,42.9,97.9,42.9z"/>
	<path class="st2" d="M91.3,57.1c0,0,0.9,8.2,2.4,10.2c0.6,0.8,3.1,1.2,3.1,1.2s-0.9-3.4-1.3-4.6c-0.2-0.9-0.5-3.6-0.5-4.5
		c0-0.9,0.8-3.7,0.8-3.7L91.3,57.1z"/>
	<path class="st2" d="M51.3,34.7l-1.3,2.7c0,0,2,4.6,2.9,4.4C54,41.3,51.3,34.7,51.3,34.7z"/>
	<path class="st2" d="M81.2,44c2.3-0.7,0.6,0,2.9-0.7C84,43.1,84,42.8,84,42.6c-0.7-3.1-1.3-6.3-1.6-9.4c-0.6-5.5,0.6-10.7,2.3-15.8
		c0.7-2,1.5-4.2,2.1-6.2c0.5-1.5,0.5-3.1,0.7-4.8c-3.3,1.4-6.4,1.6-9.8,1.9C74.3,8.5,80.9,42.8,81.2,44z"/>
	<path class="st2" d="M91.3,56.2c0.9,0,2-0.2,3.3-0.8c2.3-0.9,3.9-2.6,4.8-5c0.8-2.3,0-4.8-2-6.5c-1.4-1.2-2.7-1.5-4.5-2
		C90.5,42,89.4,56.1,91.3,56.2z"/>
	<path class="st2" d="M180.8,125.2c0-1.5-0.3-3.3-0.7-4.2c-0.8-1.7-2.1-2.1-3.7-1.2c-0.7,0.5-1.3,0.8-1.9,1.5c-1,1.3-3,3.8-3.4,7.4
		c0.8,1.4,3.7,3.7,4.3,4.4c1.6,2.2,0.9,3,1.6,2.2C179.7,132.5,180.6,129,180.8,125.2z"/>
	<path class="st2" d="M194.9,110.6c0.3-0.7,0.7-1.2,0.7-1.7c0.1-1.5,0.1-3,0-4.5c-0.3-3.4-0.9-6.6-2.4-9.8c-0.6-1-1.2-2.1-2-3.1
		c-0.7-0.8-1.3-0.7-1.6,0.3c-0.2,0.7-0.3,1.4-0.3,2.1c-0.1,4.4,0.9,8.7,2.7,12.8c0.5,0.9,1,2,1.6,2.8
		C193.8,110.1,194.4,110.3,194.9,110.6z"/>
	<path class="st2" d="M129.7,33.7c1.4-0.1,1.7-0.6,1.3-1.9c-0.1-0.5-0.3-0.8-0.6-1.2c-0.7-0.9-1.4-2-2.1-2.9c-2.8-3-6-5.2-9.9-7
		c-0.6-0.2-1.2-0.3-1.9-0.3c-0.9,0-1.4,0.6-1,1.5c0.2,0.7,0.6,1.3,0.8,1.9c2.8,3.9,6.4,7,10.8,8.9C128.1,33.1,128.9,33.3,129.7,33.7
		z"/>
	<path class="st2" d="M169.2,59.7c-0.1-0.3-0.1-0.8-0.2-1.3c-0.6-2.6-1.9-4.8-3.3-7.1c-1.5-2.3-3.5-4.3-5.8-6
		c-0.6-0.5-1.3-0.6-2-0.6c-0.6,0-0.8,0.3-1,0.9c-0.2,1.2-0.1,2.2,0.2,3.4c1.2,3.7,3.3,6.9,6,9.6c1,1,2.2,2.1,3.6,2.7
		C168.4,62.1,169.2,61.5,169.2,59.7z"/>
	<path class="st2" d="M102.4,79.5c-0.2,0,2.7,5.8,7.5,9.8c5,4.1,8.7,10.2,9.5,10.1c2.2-0.3,3.4-1.6,3.1-3.8
		c-0.1-1.5-0.7-2.8-1.3-4.1c-2.7-4.5-6.4-7.8-11.1-10.1C108.6,80.7,105.8,79.6,102.4,79.5z"/>
	<path class="st2" d="M89.1,99.4c-0.6,0.2-0.7,1.2-0.5,2.2c0.5,2,1,2.7,0.8,3.7c-0.3,1.3-1.2,2.3-0.9,2.9c0.2,0.5,1,0.7,1.7,0.3
		c1.6-0.7,2.3-3.8,1.4-6.3C91.2,100.5,89.8,99,89.1,99.4z"/>
	<path class="st2" d="M63.4,79.8c-1,0.1-2.1,2.2-1.7,3.9c0.1,0.2,0.6,1.7,1.9,2c1.5,0.5,3.3-0.9,3.4-2.2c0-0.7-0.7-1.3-2-2.6
		C64.3,80.1,63.9,79.8,63.4,79.8z"/>
	<path class="st2" d="M82.8,129.9c-1.3,1-1.3,3.6-0.9,4.9c0.7,3.5,5,5.7,5.9,5.1c2.2-1.5-0.2-3-1.4-3.8c-0.7-0.6-2.1-1.6-2.3-2.6
		c-0.3-1.4,0.7-3.1,0.5-3.4C84.1,129.8,83.3,129.5,82.8,129.9z"/>
	<path class="st2" d="M112.8,116.1c-0.2,0.1-0.5,0.5-0.6,0.7c-0.2,0.9,1.5,2,2.7,2.9c3.7,2.9,5.1,7.4,6.7,7.3
		c0.8-0.1,1.4-1.7,1.2-2.6c-0.8-3.1-4.6-8.2-8.6-8.7C113.7,115.9,113.1,116.1,112.8,116.1z"/>
	<path d="M66.2,18.4l4.6,9.4l4.6,18.5l1.4-0.5l-3.5-16.5L70,20.7c0,0-0.5-2.7-1.4-2.7C67.2,17.9,66.2,18.4,66.2,18.4z"/>
	<path d="M94.3,100.7c0.6,0.7,0.8,2.2,0.8,3.1c-0.1,6.2-3,10.7-3,10.7c-1,1.7-5.3,8.1-12.1,8.4c-1.5,0-3.4,0.2-4.6-0.8
		c-3.8-3.1-0.7-12.4-0.5-12.4c0.1,0-0.8,2.3,0.3,5.3c0.5,1,1.5,2.3,3.5,3c2.1,0.7,4.2,0.2,6.5-1.5c2.6-2,4.1-3.9,4.8-5.1
		c1.7-2.4,2.8-4.1,2.9-6.3c0.1-2.9-0.8-5.5-0.8-5.5S93.8,100.2,94.3,100.7z"/>
	<path d="M105.5,117c0,0-0.7,0.6-1.3,1.7c-1.7,3.7,1.3,9.5,5.7,12.7c3.5,2.4,9.2,3.9,11.7,1.9c1.2-0.9,1.3-3.4,1.3-3.4
		s-1.9,0.7-3.8,0.9c-3.5,0.6-6.6-1.6-7.5-2.3c-0.7-0.6-4.3-3.1-4.9-7.2C106,118.7,105.5,117,105.5,117z"/>
	<path d="M99.3,81.4c0,0-1.9,1.9-2,2c-2,3.3,1.4,9.6,5.9,14.4c5.6,5.8,12.8,7.3,15.9,6.2c0.6-0.2,2-0.7,2.4-2c0.5-1-0.6-2.8-0.6-2.8
		s-0.7,0.2-0.8,0.5c-1.6,1.9-8.4,0.2-13.5-4.2c-2-1.7-6.5-5-6.9-10C99.8,83.9,99.3,81.4,99.3,81.4z"/>
	<path d="M104.6,152.7c0,0,0.5,5.2,1.2,7l3.8,7.3c0,0,6.4-1.9,8.2-2.4c7.2-2.3,12.4-6.5,12.4-6.5l3.4,3.1l5.7-3.5l-2.8-3.9
		c6-3.4,6.2-6.2,6.7-5.8c-0.3-0.9-8.2,3.4-25.9,4.5C109.7,152.9,104.6,152.7,104.6,152.7z"/>
	<path d="M101.2,152.7l0.1,6.4l-0.9,5.5l-2.3,3.6l-7.4-0.7l-6.7-1.2l-0.6,2.7l0.2,5.3c0,0-3-3.4-4.4-4.3c-1.3-0.7-6-1.9-6-1.9
		l2.1-4.6c0,0-7.3-2.8-10.3-4.6c-2.4-1.6-9.8-6.5-9.8-6.5l-3-2.9l-2.3,3.4c0,0-2.7-0.6-4.5-4.8c-0.6-1.2-4.3-2.7-4.3-2.7l5.2-3.4
		l-3.3-4.3l-2.3-3.4c0,0-0.1,0.2,3-1c2.3-0.9,4.4-5.2,4.4-5.2l3.5-4.4c4.5-2.3,7.1-1.5,10.2-2.2c6.4,5.5,9.3,9.9,11.4,12.8
		c0.3,0.6,1.6,2.3,3.8,5.5c2.9,4.2,4.4,6.3,4.9,6.9C83.7,149.2,88.4,152.5,101.2,152.7z"/>
	<path d="M46.1,68.1c0,0-3.6,5.2-4.6,7.1c-2.7,4.5-4.1,10.9-4.1,10.9l-2.6-2.3c0,0,0.2,5.8,0.2,7.2c0,1.6-1.2,5.5-1.2,5.5l0.5,0.8
		l-0.2,8.8l0.2,6.6l-5.6,1.5l-10.1-0.1c0,0,2.6,4.6,3.4,6c0.7,1.3,2.1,4.6,2.1,4.6l5.7-2l0.8-3.6l3.8-3.8l6.4,0.8l7.8,0.6l9.6-1.5
		c0,0-14.5-10.6-14.7-16.6c-0.1-2.3,2.8-6.6,3-9.1C47.3,84.5,46.1,68.1,46.1,68.1z"/>
	<path d="M51.7,87.8c-0.7-0.2-4.2,4.6-4.5,10.7c-0.1,2.1-0.1,3.7,0.8,4.6c2.6,2.4,10.1-1.2,14.5-4.6c0.7-0.6,9.9-8.1,8.1-14.9
		c-0.5-1.9-2.3-3.5-2.3-3.5s0,2.2-0.6,4.6c-0.6,2.3-1.9,4.6-5.2,8.4c-5,5.5-7.3,4.9-8.4,4.9c-0.3,0-1.3,0.1-2.3-1
		C49.2,94.2,52.3,88.1,51.7,87.8z"/>
	<path d="M80.6,137.5c0,0,0.6,2.8,3.4,4.9c1,0.8,6.4,4.9,11.6,2.3c2.9-1.4,5-4.5,5.2-7.5c0.3-5.5-5.1-9.5-5.1-9.4
		c0,0,3.6,2.9,3.4,6.7c-0.1,2.8-2.1,5.2-4.3,6.5c-3,1.6-6.4,0.8-7.4,0.6C82.8,140.3,80.6,137.5,80.6,137.5z"/>
	<path d="M46.2,142c-1.6-2.6-4.6-4.6-5.6-7.4c-6.4-1-9.9-5-11.3-11.1c-2.6,0.8-4.9,2.1-7.2,3.5c-3.4,2.1-7,3.9-10.8,5.1
		c-0.3,0.1-0.7,0.2-1.2,0.3c-1.3,0.3-2.3,0-3.4-0.8c-1.4-1.3-2.1-2.9-2.9-4.6c-1.5-3.5-2.1-7.3-2.1-11c0-1.2,0.1-2.3,0.7-3.4
		c0.7-1,1.3-1.4,2.4-1.2c1.2,0.2,2.2,0.2,3.1,0.3c3.5,0.6,7.2,1.2,10.7,1.9c4.6,0.7,9.4,0.8,14.1-0.3c0.5-0.1,0.8-0.2,1.4-0.5
		c-0.7-5.1-0.7-10.2,0.1-15.4c-1.6-0.2-3.1-0.2-4.6,0.1c-1.7,0.3-3.4,0.7-5,1c-1.2,0.2-2-0.2-2.7-1c-0.6-0.7-0.8-1.5-1.2-2.3
		c-0.7-2.4-0.7-5-0.5-7.5c0.2-2.4,0.9-4.6,2-7c0.6-1.2,1.2-2.1,2.2-2.9c0.9-0.7,2.2-0.7,3,0c1.3,1,2.7,2.1,3.9,3.3
		c1.5,1.3,2.9,2.8,4.4,4.1c0.2,0.2,0.6,0.5,0.9,0.7c3.4-10.7,9.2-19.5,17.3-27.1c-0.2-0.3-0.3-0.6-0.5-0.7
		c-3.6-3.5-7.3-7.1-11.5-9.8c-1.4-0.8-2.8-1.6-4.2-2.4c-2-1.2-2.2-2.1-1.5-4.3c0.7-2.4,2.2-4.5,3.9-6.3c1.2-1.3,2.4-2.6,3.8-3.6
		c1.2-0.9,2.6-1.7,4.1-1.9c0.9-0.1,1.7,0.2,2.3,0.9c2.4,3,3.4,6.5,4.1,10.1c0.7,4.3,2.2,8.1,4.6,11.7c0.2,0.5,0.6,0.7,0.8,1.2
		c3.8-2.7,7.9-4.9,12.2-6.7c-0.3-1.5-0.7-3-1-4.4c-0.9-3.4-1.5-7.1-2.9-10.3c-0.7-1.4-1.3-2.9-2-4.3c-0.6-1.2-1.4-2-2.6-2.7
		c-0.6-0.3-1.2-0.7-1.7-0.9c-0.9-0.7-1.3-1.7-1-2.9c0.3-1.3,1.2-2.1,2.2-2.8c1.2-0.7,2.4-0.9,3.7-1c0.3,0,0.6-0.1,0.8-0.1
		c-0.3-1.9-0.7-3.6-0.8-5.5c0-1.6,0-3.5,0-5.2c0-1,0.6-1.9,1.6-2.1c1.7-0.5,3.4-0.9,5.2-1.3c3.1-0.5,6.2-0.5,9.3-0.1
		c1.2,0.1,2.4,0.3,3.6,0.6C87.8,4,88.1,4.6,88,5.7c-0.1,0.7-0.1,1.3,0,2c0.1,2.9-0.7,5.6-1.7,8.2c-2.3,5.6-3.5,11.4-3,17.4
		c0.2,2.8,0.8,5.5,1.3,8.2c0.1,0.3,0.2,0.7,0.3,0.9c1.6-0.5,3.1-0.9,4.6-1.3c2-0.5,4.1-0.1,6,0.7c0.6,0.2,1,0.5,1.6,0.5
		c3.9,0,7.9,0.3,11.8,1c0.1,0,0.2,0,0.2,0c0-1.2-0.1-2.3,0-3.6c0.3-3.1,0-3.5,1-9.4c0.6-3,2.8-6.7,4.6-9.4c0.5-0.7,1-1,1.9-0.9
		c1.2,0.2,2.4,0.3,3.5,0.8c4.4,2,8,5,10.7,9.1c0.6,0.7,0.7,1.6,1,2.4c0.3,0.7-0.1,1.4-0.6,2c-1.7,2-3.9,3.3-6.4,4.2
		c-3.4,1.4-5.8,3.8-7.5,7.1c0.5,0.2,0.7,0.5,1,0.6c3.6,1.3,7.1,3,10.5,4.8c1.3,0.7,2.6,1.7,3.7,2.6c2,1.4,3.8,2.9,5.9,4.2
		c2,1.3,3.4,3,4.9,4.6c0.5,0.6,0.9,0.9,1.5,1.6c1.4-2,2.8-3.6,4.1-5.5c2-3.1,4.1-6.3,6-9.4c0.6-0.7,0.8-1.6,0.8-2.6
		c0.1-1.9,1.5-2.6,3.4-2c2.1,0.7,3.8,2.1,5.2,3.9c2.3,2.9,4.4,6,5.3,9.6c0.2,0.9,0.2,2,0.2,3.1c0,0.9-0.7,1.5-1.5,1.7
		c-1.6,0.5-3.3,0.8-4.9,0.7c-3.4-0.2-6.5,0.7-9.5,2.3c-1.4,0.7-2.8,1.6-4.2,2.3c-0.3,0.2-0.6,0.5-0.7,0.6c2.2,3.8,5.7,10.9,5.8,10.9
		c1.3,0,2.3-0.8,4.6-1.2c1.3-0.5,2.7,0,3.8,0.7c2.6,1.7,4.1,4.2,5.2,6.9c1,2.3,1.5,4.9,1.7,7.5c1.6,0,3.3,0.1,4.8,0
		c2.8-0.2,5.6-0.5,8.4-0.9c2.1-0.5,4.2-1.2,6.2-1.9c0.7-0.2,1.2-0.2,1.6,0.2c0.7,0.7,1.3,1.4,1.9,2.2c0.7,1.2,1.2,2.4,1.7,3.8
		c0.9,3,1.9,6,2,9.1c0.1,1.4,0,2.8-0.3,4.1c-0.3,1.4-1,1.9-2.4,1.4c-1.4-0.5-2.9-0.8-4.1-1.6c-4.1-2.6-8.7-3.5-13.2-4.5
		c-5.1-1-10.2-1-15.4-1c-0.1,0-0.2,0-0.5,0.1c-0.1,2.2-0.2,4.4-0.5,6.6c-0.2,2.1-0.6,4.3-0.8,6.5c1.3,0.5,2.8,0.5,4.2,0.7
		c3.6,0.5,7.3-0.2,10.8-0.2c1.5,0,3,0.5,4.5,0.8c0.8,0.2,1.5,0.8,1.7,1.6c0.5,0.9,0.8,2,0.9,3.1c0.3,3.9-0.6,7.7-2.7,11
		c-0.8,1.4-2,2.4-3.4,3.4c-1,0.7-2.2,0.6-3.4-0.1c-2.4-1.3-4.5-3.4-6.5-5.1c-2.7-2.3-5.6-4.4-8.7-5.8c-1.7,3.6-3.4,7.2-5.1,10.6
		c2.7,2.1,5.3,4.4,8.1,6.5c1.6,1.3,3.4,2.3,5,3.5c2.9,2,6.2,3,9.5,3.8c1.6,0.5,3.3,0.9,4.4,2.2c1,1,1.2,1.9,0.6,3.1
		c-0.9,1.7-1.9,3.4-2.9,4.9c-0.3,0.6-0.7,0.9-1.3,1.3c-1.2,0.7-2,0.7-2.9-0.2c-1.2-1-2.3-2.2-3.4-3.4c-3.8-4.1-7.7-8.2-12.3-11.4
		c-2.4-1.7-4.8-3.6-7.5-4.9c-0.2-0.1-0.5-0.2-0.7-0.3c-3.3,4.3-6.9,8.2-11.3,11.6c1.5,1.4,2.9,2.7,4.3,3.9
		c4.4,3.9,9.1,7.3,14.1,10.2c2,1,3.8,2.2,5.6,3.6c0.7,0.7,0.9,1.5,0.7,2.4c-0.3,2-1.2,3.5-2.2,5.1c-1.6,2.4-3.5,4.5-5.9,6.2
		c-0.7,0.6-1.5,1-2.2,1.5c-0.7,0.3-1.4,0.6-2.1,0.7c-0.9,0.1-1.6-0.5-2-1.3c-0.2-0.6-0.6-1-0.7-1.6c-0.7-1.4-1.5-2.8-2-4.2
		c-3.1-7.7-7.1-14.7-12.5-21c-0.3-0.5-0.7-0.7-0.8-1c-3.5,1.7-6.7,3.5-10.1,4.9c-3.4,1.4-7.1,2.3-10.3,3.4c0.6,2,1,3.8,1.5,5.9
		c0.2,1.4,0.1,2.8,0.2,4.2c0,0.5-0.1,0.7,0,1.2c0.1,1.2-0.3,2-1.4,2.3c-1.2,0.5-2.3,0.8-3.5,0.9c-3.5,0.3-7-0.1-10.2-1.6
		c-1-0.5-2-1-2.8-2c-0.6-0.6-0.7-1.2-0.7-2c0.5-2,0.9-3.7,2.1-5.3c0.6-0.7,1-1.5,1.7-2.3c-4.5-0.5-8.8-0.9-13.2-1.4
		c-0.5,1.6-0.3,3.3-0.2,4.8c0.1,1.6,0.3,3.4,0.3,4.9c0,0.9,0,2-0.2,2.9c-0.2,1.3-1.2,2-2.2,2.2c-1.6,0.6-3.3,0.7-4.9,0.5
		c-2.4-0.2-4.6-0.9-6.9-2.1c-1-0.6-2-1.4-2.4-2.4c-0.3-0.7-0.2-1.5,0.1-2.2c1.2-2.8,2.6-5,4.4-7.3c0.8-1.2,1.5-2.8,2.4-4.1
		c-8.4-3.5-15.4-7.7-21.8-14.1c-0.9,1.2-1.9,2.4-2.4,3.8c-0.7,1.7-1.3,3.5-2,5.3c-0.7,1.7-1.3,3.4-2,5c-0.3,0.7-1.3,1.2-2.2,0.9
		c-1.3-0.3-2.7-0.7-3.8-1.2c-3.7-2-7.2-4.3-9.9-7.5c-0.7-0.7-1.3-1.7-1.7-2.6c-0.8-2-0.5-2.7,1-3.7c1.2-0.8,2.4-1.5,3.7-2
		c2-0.9,4.2-1.9,6.3-2.6c2-0.7,3.7-1.9,5.5-3.1C46,142.2,46.1,142.1,46.2,142z M99.8,144.7c0.1,0,0.2,0,0.3-0.1
		c0.1,0.3,0.3,0.6,0.5,0.8c0.2,0.9,0.5,2,0.7,2.9c0.7,4.2,1,8.2,0.5,12.4c-0.3,2.2-0.9,4.4-2.1,6.2c-1,1.5-2.1,3-3.3,4.5
		c-0.6,0.8-1.2,1.7-1.4,2.8c6-1.6,11.4-0.8,16.7,2.7c-0.1-1.4-0.2-2.6-0.5-3.7c-0.6-3.3-1.9-6-3.4-8.7c-3.4-5.5-3.9-11.4-3.8-17.5
		c0-0.2,0.2-0.5,0.5-0.9c0.6,0.7,0.7,1.4,0.7,2c0.1,2,0.1,3.8,0.2,5.9c0.3,4.6,2.4,8.6,4.6,12.5c6.3-0.8,17.9-5.9,20.4-8.2
		c-1.2-1.5-2.9-2.6-3.6-4.4c0.7-0.5,0.9-0.1,1.3,0.2c1.2,1.3,2.2,2.6,3.4,3.7c2.9,2.9,5.3,6,7.4,9.4c2.9,4.8,5.6,9.8,7.3,15.1
		c0.3,0.7,0.7,1.5,1.2,2.4c2.4-5.9,6.2-10.2,12-12.9c-0.9-0.6-1.9-1-2.7-1.5c-4.5-2.2-8.6-5.2-12.5-8.4s-7.3-6.9-11.4-9.9
		c-0.3-0.2-0.5-0.6-0.7-0.8c0.1-0.1,0.2-0.2,0.2-0.3c1.9,0.5,2.9,2,4.4,2.9c3.3-2.6,6.2-5.5,8.7-8.7c0.8-1,2-2,2.3-3.3
		c0-0.2,0.7-0.3,0.9-0.2c0.2,0,0.6,0.3,0.7,0.5c5.3,2.9,10.1,6.5,14.4,10.7c2.4,2.3,4.8,6.2,7.1,8.6c0.7,0.7,1.4-0.1,2.1,0.5
		c0.9,0.7,1.6,0.6,2.2-0.5c1-1.5,2-3.1,2.9-4.8c0.7-1.5,0.6-2.3-0.9-3.1c-1.2-0.7-2.3-1-3.6-1.4c-4.6-1.2-8.7-3.3-12.5-6
		c-3.4-2.6-6.7-5.2-10.1-7.9c-0.3-0.2-0.1-0.2-0.2-0.3c0.3-0.7,0.7-1.5,0.8-2c0.9-1.9,2-3.6,2.8-5.5c0.7-1.3,1-2.7,1.7-4.1
		c-2.2-0.9-4.3-1.7-6.4-2.1c-2.6-0.6-5.1-0.7-7.7-0.3c-0.7,0.1-1.4,0.1-2-0.7c0.7-0.1,1.2-0.2,1.7-0.2c2.3-0.1,4.8-0.3,7.2-0.1
		c2.9,0.2,5.5,1.4,8.1,2.4c2.1,0.8,4.1,2.1,6,3.5c2.2,1.7,4.3,3.6,6.4,5.5c0.3,0.3,0.7,0.7,1.2,0.9c-1.2-6.6,0.3-12.2,5.2-16.7
		c-1,0-2-0.1-2.9,0c-2.8,0.2-5.5,0.5-8.2,0.3c-2.8-0.1-5.5-0.6-8.1-1c-2.4-0.5-4.9-0.9-7.3-1.5c-1.2-0.2-2.3-0.5-3.5-0.7
		c-1.3-0.3-2.4-0.7-3.7-1.2c-0.2-0.1-0.6-0.2-0.7-0.3c0.2-0.6,0.7-0.6,1-0.5c0.9,0.2,2,0.3,2.9,0.6c4.2,0.8,8.2,1.9,12.4,2.8
		c0.3,0.1,0.7,0.1,1.3,0.1c0.3-2.7,0.7-5.1,0.9-7.7c0.2-3.4,0.3-6.6-0.1-10.1c-0.1-1.2-0.1-1.2-1.3-1.4c-4.6-0.9-9.2-1.3-13.8-1.4
		c-2,0-3.9,0.3-6,0.5c-0.2,0-0.6,0-0.7,0c0-0.1-0.1-0.2-0.1-0.5c0-0.1,0-0.2,0-0.5c2.7-0.7,5.3-0.7,8-0.7c2.8,0.1,5.5,0.3,8.2,0.7
		c2.7,0.3,5.2,0.8,7.9,1.4c-2.2-2.3-3.8-5.1-4.6-8.2c-0.8-3-1.3-6-0.2-9.3c-3.3,2.6-6.2,5.3-9.9,7.1c-3.6,1.7-7.4,3-11.5,3.8
		c-0.1-0.3-0.2-0.7-0.3-0.9c7.3-1.6,13.8-4.1,19.3-9.3c-1.9-4.2-3.6-8.4-6.3-12c-5.9,3.6-9.6,9.1-13.9,14.4c0-0.6-0.1-0.8,0-1
		c0.1-0.3,0.3-0.6,0.5-0.7c1.7-2.1,3.4-4.3,5-6.3c1-1.3,2-2.4,3.3-3.5c3.4-3,7.2-5.3,11.3-7.3c3.1-1.5,6.3-2.4,9.9-2
		c0.6,0.1,1-0.1,1.6-0.1c-2.3-1.6-4.2-3.6-5.8-5.9c-1.6-2.2-2.9-4.6-3.7-7.4c-0.2,0.1-0.3,0.2-0.3,0.2c-2,3.1-3.7,6-5.8,9.2
		c-2.8,4.3-6,8.1-10.2,11.1c-1.5,1-2.9,2.3-4.4,3.5c-0.9,0.7-1.9,1.5-2.8,2.2c-0.6,0.5-1,0.5-1.7,0c4.5-3.6,9.2-7,13.5-11
		c-1.3-1.3-2.3-2.6-3.6-3.6c-2.3-2-4.8-3.6-7.2-5.6c-3.4-2.9-7.3-5.1-11.4-7c-1.7-0.7-3.4-1.4-5.2-2.1c-0.3,0.7-0.6,1.2-0.7,1.7
		c-0.9,3.1-1.5,6.2-1.6,9.4c0,1,0,2.1,0,3.1c0,0.2-0.2,0.6-0.3,0.7c-0.7-0.3-0.7-0.8-0.7-1.4c-0.1-2.4,0.1-4.9,0.6-7.4
		c0.6-2.8,1-5.7,2.8-8.1c2-3.1,4.6-5.6,8.1-7c1.3-0.6,2.4-1.2,3.6-1.7c0.5-0.2,0.7-0.6,1-0.8c-6.6-2.2-11.6-6.2-15.2-12.3
		c-0.5,0.9-0.9,2-1.4,2.9c-0.7,2-1.7,3.9-2.1,6c-0.7,3.3-0.9,6.4-0.8,9.8c0.1,2.7,0,5.3,0,8.1c0,0.9,0,2-0.2,3
		c-0.5,2.1-0.8,4.2-1.3,6.2c-0.1,0.7-0.2,1.3-0.5,2c-0.1,0.5-0.1,1-0.8,0.9c-0.6-0.1-0.3-0.7-0.2-1c0.2-0.7,0.3-1.4,0.6-2.1
		c0.6-2.6,1.4-5.2,1.4-7.9c0-1.2,0-2.2,0-3.4c0-0.7,0.1-1.5,0.2-2.3c-3.8-0.7-7.4-1.3-11.5-1c0.6,0.7,0.8,1,1.3,1.4
		c1.9,2,2.2,5.1,0.7,7.7c-0.5,0.7-0.8,1.2-1.3,1.9c-0.7,1.4-1.6,2.7-2.2,4.1c-0.5,0.9-0.6,2-0.5,3.3c0.3,2.4,0.9,4.6,1.9,7.1
		c0.1,0.3,0.5,0.7-0.1,0.9c-0.6,0.2-0.7-0.3-0.8-0.7c-0.1-0.2-0.2-0.5-0.3-0.7c-0.5-1.5-0.9-3.1-1.3-4.6c-0.6-2.3-0.6-4.6,0.7-7
		c0-0.1,0-0.2,0.1-0.5c-3,1.5-6,1.7-9.4,0.8c0.3,0.5,0.5,0.7,0.6,0.8c1.2,1.9,1.9,3.7,1.9,5.9c0,3-0.1,6-0.2,8.9v0.1
		c-0.1,0.2-0.3,0.7-0.5,0.7c-0.5,0-0.6-0.3-0.6-0.7c0-1.6,0.1-3.1,0.1-4.6c0-2,0.2-3.9,0-5.9c-0.3-3-2.1-5.1-4.4-7.1
		c-2.9-2.4-3.5-6.3-1.5-9.4c0.1-0.2,0.3-0.6,0.7-0.9c-2.2,0.7-4.3,1.2-6.4,1.9c-0.7-3.6-1.3-7.2-1.9-10.7c-0.5-2.4-0.7-5-1.6-7.4
		c-0.5-1-0.8-2.1-1.3-3.3c-0.7-2-1.6-3.8-2.2-5.8c-0.2-0.7-0.7-0.8-1.3-0.8c-1.4,0.1-2.8,0.5-3.9,1.2c-0.6,0.5-1,0.9-1.4,1.5
		c-0.7,0.9-0.3,1.9,0.7,2.4c0.5,0.3,0.8,0.6,1.4,0.7c1.5,0.7,2.4,1.7,3.1,3.3s1.3,3,2,4.5c1.4,3.4,2,7.1,2.9,10.5
		c0.3,1.3,0.6,2.7,0.8,3.9c0.2,0.8,0.3,0.9-0.5,1.2c-3.5,1.3-6.7,3.1-9.9,5.1c-0.7,0.6-1.6,1-2.4,1.6c0.8,1,1.6,2.1,2.4,3.1
		c1.2,1.4,2.4,2.7,3.7,3.9c0.2,0.3,0.7,0.7,0.3,0.9c-0.5,0.5-0.7,0-1-0.3c-0.5-0.5-0.8-0.9-1.3-1.4c-2.1-2-3.9-4.4-5.6-6.9
		c-2-3.1-3.7-6.4-4.6-10.1c-0.6-2.2-0.9-4.5-1.5-6.7c-0.5-1.6-0.8-3.1-2-4.5c-2.2,5.9-6.2,10.1-12,12.8c1.3,0.7,2.6,1.3,3.7,2
		c4.9,3.3,9.3,7.1,13.1,11.4c2,2.1,3.4,4.5,5.1,6.7c0.2,0.3,0.5,0.7,0.5,0.9c0,0.2-0.1,0.5-0.2,0.7c-0.2-0.1-0.6-0.1-0.7-0.2
		c-0.2-0.2-0.3-0.6-0.6-0.7c-1.6-2.6-3.5-4.8-5.5-7.1c-7.8,6.7-15,17.3-17.7,27.1c1,0.6,2.1,1.2,3.4,1.7c1.2,0.6,2.3,0.8,3.5,1.3
		c0.5,0.1,0.9,0.2,0.8,1c-0.5-0.1-0.9-0.1-1.4-0.2c-4.4-1.2-8-3.6-11.1-7c-0.8-0.9-2-1.9-3.3-2.9c1.2,6,0.6,11.4-2.6,16.7
		c0.5-0.1,0.8-0.1,1.2-0.2c4.2-1,8.1-0.7,12,1c0.3,0.1,0.7,0.2,0.8,0.5c0.1,0.1,0.2,0.5,0.2,0.6c-0.1,0.1-0.3,0.3-0.6,0.3
		c-0.3,0-0.7-0.2-0.9-0.3c-1.5-0.6-3-1-4.6-1.3c-0.7,6-0.8,12,0.3,17.7c1.5,0.2,2.8,0.5,4.1,0.7c0.9,0.2,1.9,0.6,2.8,0.7
		c0.8,0.1,1.7,0.2,2.6,0.2c4.1,0.5,8.1,0.3,12.1-0.7c0.6-0.1,1-0.1,1.7-0.1c-0.7,0.8-0.7,0.8-1.5,1c-4.1,1-8.2,0.9-12.3,0.7
		c-0.7-0.1-1.5-0.1-2.4-0.2c3.5,2.9,5.6,6.4,5.6,10.8c0.2-0.2,0.5-0.6,0.6-0.7c1.4-2.3,3.3-4.1,5.9-4.6c2.1-0.5,4.3-0.7,6.4-0.9
		c0.5,0,0.8,0.2,1.3,0.3c0,0.1,0,0.2,0,0.3c-0.5,0.1-0.8,0.3-1.3,0.3c-1.4,0.1-2.8,0.2-4.2,0.5c-3,0.5-5.5,1.6-7.2,4.2
		c-0.9,1.5-1.9,2.9-2.9,4.3c-0.5,0.7-0.9,1.3-1.6,1.7c-0.9,0.7-2,0.9-3.1,1.5c1.3,2.3,2.7,4.6,4.5,6.9c0.2-0.2,0.5-0.2,0.6-0.3
		c2-2,3.8-3.7,5.8-5.7c1.4-1.5,2.7-3.1,3.9-4.6c0.2-0.3,0.5-0.7,1-0.7c-0.1,0.3-0.2,0.7-0.3,0.8c-0.6,0.7-0.9,1.5-1.6,2.2
		c-1.6,1.9-3.4,3.7-5,5.6c-3.3,3.5-6.5,6.4-10.8,8.1c-2.6,0.9-5.7,2.6-8.2,3.7c-0.2,0.1,5.6,2.3,8.2,4.3c2.7,2,5,4.4,6.7,7.5
		c0.7-2,1.3-3.5,1.6-5.2c0.8-3.8,3.1-7,5.3-10c1.7-2.3,3.9-4.3,6-6.3c1.4-1.3,2.9-2.4,4.3-3.6c0.3-0.3,0.7-0.7,1.5-0.2
		c-4.6,3.6-8.7,7.5-12.2,12.2c4.6,5.3,17.1,12.4,22.4,14.2c0.5-1.3,0.9-2.4,1.3-3.7c0.5-1.6,0.7-3.3,1.2-4.8c0.1-0.5,0.1-1,0.9-1.2
		c0,0.3,0.1,0.7,0,0.9c-0.1,0.6-0.2,1-0.3,1.6c-0.7,3.8-2,7.4-4.2,10.7c-1.3,1.9-2.3,3.7-3.7,5.6c-0.3,0.5-0.6,0.8-0.9,1.4
		c5.3-1.3,9.6-0.1,13.8,3.3c-0.1-1.3-0.2-2.4-0.3-3.5c-0.5-3.4-0.3-6.6,0.3-10c0.3-1.9,0.8-3.5,1.2-5.3c0.2-1.2,0.5-2.2,0.7-3.4
		c0.1-0.5,0.2-0.7,0.7-0.7c0.2,0.1,0.3,0.6,0.5,0.8c0,0.1,0,0.2,0,0.2c-0.6,2.1-0.9,4.3-1.5,6.4c-0.3,1.4-0.7,2.8-0.9,4.4
		c4.8,0.7,9.4,1.2,14.1,1.3c2-2.9,2.8-6,2.9-9.4c0.1-3.9-0.3-7.9-1-11.7C99.6,145.8,99.8,145.3,99.8,144.7z M67.6,7.1
		c0.2,2,0.2,3.9,0.6,5.9c0.2,1.6,0.7,3.1,1.2,4.6c1,2.9,2.3,5.7,3.5,8.6c0.6,1.3,1,2.6,1.4,3.9c0.7,3.8,1.4,7.8,2.1,11.7
		c0.2,1.2,0.3,2.2,0.6,3.5c2.3-0.7,4.6-1.3,7-2c-0.1-0.2-0.1-0.5-0.1-0.7c-0.7-3.1-1.3-6.3-1.6-9.4c-0.6-5.5,0.6-10.7,2.3-15.8
		c0.7-2,1.5-4.2,2.1-6.2C87,9.9,87,8.2,87.2,6.6c-3.1,1.4-6.4,1.6-9.6,1.9C74.3,8.5,71.1,8.3,67.6,7.1z M160.6,103.4
		c1.5-0.1,2.8-0.2,4.1-0.2c4.5-0.1,8.9,0.6,13.4,1.4c4.5,0.8,8.7,2.2,12.7,4.6c0.6,0.3,1.2,0.6,2,0.9c-3.1-6-4.6-12-3.8-18.5
		c-1.3,0.5-2.4,0.9-3.7,1.3c-3.4,0.7-7,1.2-10.5,1.3c-1.4,0.1-2.8,0.1-4.2,0.1c-0.2,0.7-0.3,1.2-0.5,1.6c-0.8,2.8-2.4,3.7-5.3,3.4
		c-1.4-0.2-2.8-0.5-4.3-0.7C160.4,100.3,160.5,101.7,160.6,103.4z M34.5,115.4c-0.1-0.6-0.2-1-0.3-1.5c-0.3,0.1-0.7,0.1-0.8,0.2
		c-4.2,1-8.5,1.4-12.8,0.7c-2.9-0.6-5.8-0.9-8.7-1.5c-1.6-0.3-3.4-0.6-5.2-0.9c0.1,0.2,0.1,0.3,0.1,0.5c3.1,4.2,4.2,8.8,4.5,13.9
		c0.1,1.7-0.2,3.4-0.8,5c0.5-0.1,0.7-0.2,1-0.3c2.2-0.9,4.5-2,6.6-3.1c2.8-1.4,5.3-3.1,8-4.6c1-0.6,2.1-0.9,3.3-1.4
		C29.6,119,31,116.6,34.5,115.4z M40.8,133.5c0.5-0.1,1-0.1,1.6-0.2c2.4-0.7,4.1-2.9,4.1-5.7c0.1-3.7-1.5-6.7-4.2-9.1
		c-1.6-1.4-3.4-2.2-5.6-2.3c-2.7-0.1-5.2,1-6,4.1c-0.5,1.4-0.3,2.8-0.1,4.2c0.3,2.2,1.5,4.2,3.1,5.8
		C35.7,132.1,37.8,133.5,40.8,133.5z M90.1,56.2c1.6-0.1,3-0.3,4.4-0.8c2.3-0.9,3.9-2.6,4.8-5c0.8-2.3,0-4.8-2-6.5
		c-1.4-1.2-3.4-1.7-4.5-2c-2,0-3.4-0.6-6.7,0.8c-0.1,0.1-1.7,1.2-2.8,2.3c-1.9,2-2.3,5.2-0.5,7.7C84.8,55.4,87.3,56.1,90.1,56.2z
		 M169.2,93c-0.2-4.2-1.5-7.7-3.9-10.8c-0.8-1-1.7-2-3-2.6c-2-1-3.8-0.3-4.6,1.9c-0.3,0.8-0.5,1.9-0.6,2.8c-0.2,1.7,0.2,3.4,0.8,4.9
		c0.7,1.7,1,3.5,2,5c1,1.6,2.3,3.1,4.2,3.9c1.9,0.8,3.4,0.3,4.2-1.4C169.1,95.4,169.2,94.2,169.2,93z M180.8,125.2
		c0-1.5-0.3-3.3-0.7-4.2c-0.8-1.7-2.1-2.1-3.7-1.2c-0.7,0.5-1.3,0.8-1.9,1.5c-2.7,3.5-3.8,7.5-3.4,12c0.1,0.8,0.5,1.7,0.7,2.4
		c0.6,1.2,1.6,1.6,2.8,1.3c0.9-0.2,1.7-0.7,2.3-1.5C179.7,132.5,180.6,129,180.8,125.2z M29,85.2c0-0.7,0-1.4-0.1-2.1
		c-0.2-1.3-0.5-2.7-1-3.7c-0.9-1.7-2.2-1.9-3.4-0.3c-0.8,1-1.6,2.2-2,3.6c-0.8,2.7-1.3,5.3-1.2,8.1c0.1,1.9,0.2,3.5,1,5.1
		c0.9,1.9,2.3,2,3.5,0.3c0.7-0.7,1-1.7,1.5-2.6C28.5,91.1,28.9,88.4,29,85.2z M169.2,59.8c-0.1-0.3-0.1-0.8-0.2-1.3
		c-0.6-2.6-1.9-4.8-3.3-7.1c-1.5-2.3-3.5-4.3-5.8-6c-0.6-0.5-1.3-0.6-2-0.6c-0.6,0-0.8,0.3-1,0.9c-0.2,1.2-0.1,2.2,0.2,3.4
		c1.2,3.7,3.3,6.9,6,9.6c1,1,2.2,2.1,3.6,2.7C168.4,62.1,169.2,61.5,169.2,59.8z M10.5,127.4c-0.1-4.3-0.9-8-2.7-11.4
		c-0.6-1-1.2-2-2-2.9c-1-1-2-0.8-2.3,0.6s-0.6,2.8-0.6,4.3c0,1.5,0.3,3,0.7,4.5c0.7,2.9,1.6,5.6,3.4,8c0.3,0.5,0.8,0.8,1.3,1.2
		c0.6,0.3,1,0.2,1.4-0.3c0.2-0.3,0.5-0.7,0.6-1.2C10.3,129,10.3,128,10.5,127.4z M43.6,164.4c1.9,0,2.2-0.6,1.7-1.9
		c-0.3-0.7-0.7-1.5-1.3-2.1c-3-3.8-6.9-6.7-11.4-8.6c-0.7-0.3-1.6-0.5-2.4-0.6c-1.2-0.1-1.5,0.5-1,1.5c0.3,0.7,0.7,1.4,1,2
		c2.6,3.4,5.9,6.2,9.8,8.1C41.2,163.8,42.5,164.3,43.6,164.4z M37.1,42.9c0,1.3,0.7,1.9,2,1.5c0.7-0.2,1.4-0.5,2-0.8
		c2.7-1.5,4.8-3.6,6.6-6.2c1-1.5,2-3,2.3-4.6c0.5-2-0.5-2.8-2.2-2c-1.6,0.7-3.1,1.5-4.5,2.6c-2,1.5-3.5,3.5-4.8,5.7
		C37.8,40.3,37.1,41.4,37.1,42.9z M129.7,33.5c1.4-0.1,1.7-0.6,1.3-1.9c-0.1-0.5-0.3-0.8-0.6-1.2c-0.7-0.9-1.4-2-2.1-2.9
		c-2.8-3-6-5.2-9.9-7c-0.6-0.2-1.2-0.3-1.9-0.3c-0.9,0-1.4,0.6-1,1.5c0.2,0.7,0.6,1.3,0.8,1.9c2.8,3.9,6.4,7,10.8,8.9
		C128,33.1,128.8,33.2,129.7,33.5z M161,174.6c0-1.7-0.5-2.1-1.6-2c-0.7,0.1-1.3,0.5-2,0.7c-3.5,2-6,5-8,8.6c-0.7,1-1,2.1-1.2,3.4
		c-0.1,1.3,0.3,1.7,1.5,1.5c1.3-0.3,2.6-0.7,3.6-1.6c2.6-2.3,4.9-4.8,6.5-7.9C160.4,176.4,160.7,175.2,161,174.6z M99.6,174.2
		c-0.7,0.1-2,0.3-3.4,0.6c-0.9,0.2-1.9,0.7-2,1.6c-0.1,0.9,0.7,1.5,1.5,2c1.7,1.2,3.7,1.7,5.8,2.1c2.4,0.5,4.9,0.7,7.4-0.1
		c0.7-0.2,1.2-0.6,1.7-0.8c0.7-0.6,0.7-0.9,0.2-1.6c-0.5-0.6-0.9-1-1.5-1.4C106.6,174.9,103.4,174.4,99.6,174.2z M72.8,174.5
		c-0.7,0.1-1.7,0.2-2.7,0.6c-2,0.7-2.2,2-0.8,3.4c0.8,0.8,2,1.6,3.1,2c2.4,0.8,4.9,1.4,7.5,0.9c0.8-0.1,1.7-0.5,2.4-0.8
		c0.8-0.6,0.9-1.3,0.5-2.1c-0.3-0.6-0.8-0.9-1.4-1.4C79.1,175.2,76.2,174.6,72.8,174.5z M194.8,110.9c0.3-0.7,0.7-1.2,0.7-1.7
		c0.1-1.5,0.1-3,0-4.5c-0.3-3.4-0.9-6.6-2.4-9.8c-0.6-1-1.2-2.1-2-3.1c-0.7-0.8-1.3-0.7-1.6,0.3c-0.2,0.7-0.3,1.4-0.3,2.1
		c-0.1,4.4,0.9,8.7,2.7,12.8c0.5,0.9,1,2,1.6,2.8C193.8,110.2,194.3,110.4,194.8,110.9z M68.1,5.9c0,0.1,0,0.2,0,0.3
		c0.3,0.1,0.6,0.5,0.8,0.5c1,0.2,2.1,0.6,3.3,0.6c2.3,0.1,4.6,0.1,7.1,0c2.2-0.2,4.4-0.5,6.6-1.4c0.6-0.2,1-0.2,1.3-0.8
		c-0.9-0.8-2-1.2-3.1-1.2c-2.3-0.1-4.6-0.2-7.1-0.1c-2.6,0.1-5,0.5-7.4,1.3C69,5.4,68.5,5.7,68.1,5.9z"/>
	<path d="M98.7,82.8c-0.5,0.2-0.7,0.3-1.4,0.6c0.3-0.5,0.3-0.7,0.6-0.8c0.5-0.6,0.9-0.9,1.4-1.5c1.5-2,3.5-2.2,5.8-2
		c4.3,0.5,7.7,2.7,10.9,5.3c2.3,2,4.3,4.2,5.7,6.9c0.9,1.9,1.7,3.7,1.3,5.9c-0.1,0.7-0.5,1.5-0.9,2c-0.7,0.7-1.3,1.6-1.7,2.4
		c-0.1,0.3-0.5,0.6-0.7,0.8c-0.6-0.6-0.6-0.6-0.1-1.6c-1.4-0.1-2.8-0.1-4.1-0.3c-3.9-0.8-7.3-2.9-10.1-5.6c-1.4-1.3-2.7-2.7-3.8-4.2
		C99.9,88.4,98.7,85.9,98.7,82.8z M104.2,79.9c-0.2,0-0.5,0-0.7,0c-2.6,0.1-4.1,1.7-3.6,4.2c0.2,1.2,2.3,9.2,14.9,14.9
		c1.3,0.5,2.7,0.7,4.2,0.5c2.2-0.3,3.4-1.6,3.1-3.8c-0.1-1.5-0.7-2.8-1.3-4.1c-2.7-4.5-6.4-7.8-11.1-10.1
		C107.9,80.8,106.1,79.9,104.2,79.9z"/>
	<path d="M69,82.2c-1.3,6.9-5,11.7-11.1,15.1c-0.7,0.3-1.5,0.7-2.2,0.7c-0.7,0.2-1.6,0.2-2.3,0.3c-0.1,0.7,1.2,1.2,0.7,2
		c-0.1,0-0.2,0-0.2,0c-1.2-1.5-2.6-2.9-3.6-4.4c-0.8-1.3-0.7-2.8-0.5-4.2c0.6-2.9,1.9-5.3,3.6-7.7c2.1-2.9,4.8-5,8-6.5
		c1.3-0.7,2.7-0.7,3.9-0.5c1.2,0.2,2,0.8,2.6,1.9c0.7,1.2,1.4,2.4,2,3.6c0.2,0.5,0.5,0.9,0.2,1.6C69.7,83.6,69.7,82.7,69,82.2z
		 M50.9,93.3c0,0.2,0,0.3,0,0.6c0.1,2.3,1.7,3.7,4.1,3.4c1-0.2,2.2-0.6,3.3-1c4.5-2.7,7.7-6.4,9.3-11.4c0.5-1.2,0.6-2.4,0.3-3.7
		c-0.3-1.9-1.5-2.7-3.4-2.7c-1.4,0-2.8,0.5-4.1,1.2c-3.7,2.1-6.4,5.3-8.2,9.1C51.3,90.1,50.9,91.6,50.9,93.3z"/>
	<path d="M94.2,100.3c-0.5,0.1-0.7,0.2-0.9,0.2c0,0.2,0.1,0.5,0.1,0.7c0.7,2.3,0.2,4.6-0.7,6.9c-1.7,4.1-4.5,7.2-8.5,9.1
		c-2.3,1.2-4.8,1.5-7.4,0.2c-0.1,0-0.1,0-0.3,0c0,0.5,0.1,0.8,0.1,1.2c-0.1,0-0.2,0.1-0.2,0.1c-0.1-0.2-0.5-0.6-0.5-0.7
		c-0.2-1-0.7-2-1.2-2.9c-0.7-1.2-0.8-2.6-0.7-3.8c0.9-6.9,4.9-11.4,11.4-13.9c1-0.5,2.2-0.6,3.3-0.3c0.8,0.1,1.6,0.6,1.7,0.6
		c0.6,0.3,0.8,0.6,1.3,0.8C92.3,98.9,93.1,99.6,94.2,100.3z M87.9,98.1c-1.7,0-3.3,0.5-4.6,1.3c-3.4,2-5.8,4.6-7.2,8.2
		c-0.9,2.4-1.5,4.9,0,7.4c0.6,0.9,1.3,1.6,2.2,2c1.4,0.6,2.9,0.5,4.3-0.1c5.2-2,8.5-5.9,10-11.3c0.3-1.3,0.5-2.4,0.1-3.7
		C92.1,99.4,90,98,87.9,98.1z"/>
	<path d="M122.1,131.9c-0.8,0.2-1.3,0.1-1.4-0.7c-6.5,0.6-12.8-3.6-14.5-9.5c-0.3-1.2-0.7-2.2-0.3-3.5c0.1-0.3-0.2-0.7-0.3-1.3
		c2-2.7,4.6-3.7,8.1-3c4.8,0.9,8.1,3.8,10.2,8.1c0.7,1.6,1.2,3.4,0.7,5c-0.2,0.8-0.7,1.7-1.2,2.2
		C122.8,130.3,122.1,130.9,122.1,131.9z M118,130.5c4.4,0,6.5-2.6,5.6-6.2c-0.3-1-0.7-2.1-1.4-3.1c-1.7-2.9-4.4-4.6-7.3-6
		c-1.5-0.7-3-0.7-4.6-0.5c-2.2,0.6-3.5,2.1-3.6,4.4c0,0.7,0.1,1.2,0.2,1.9c0.7,2.4,2.1,4.5,4.1,6.2
		C113.1,129.1,115.7,130.4,118,130.5z"/>
	<path d="M100.1,135.3c-0.7,1.2-1.4,2.2-2,3.4c-1.9,2.7-4.5,3.7-7.5,3.7c-3.4-0.1-6.3-1.3-8.7-3.6c-2.6-2.4-3.1-6-1.3-8.9
		c0.6-0.8,3-3.4,3.5-3.7c1.3-0.8,2.2-1.2,3.7-1.4c0.3-0.1,0.7-0.1,1-0.1c2,0,3.6,0.7,5.3,1.7c2.7,1.6,4.5,3.8,5.2,7
		c0.1,0.7,0.1,1.5,0.2,2.2C99.6,135.3,99.9,135.3,100.1,135.3z M90.9,141.4c0.5-0.1,1.3-0.1,2-0.3c4.2-1,7.2-5.1,4.6-10.1
		c-1.5-2.9-3.9-4.4-7-5.3c-1.4-0.5-2.8-0.3-4.1,0.3c-2.1,0.9-3.8,2.3-5,4.4c-1.9,3-1.4,5.8,1.2,8C84.9,140.3,87.6,141.3,90.9,141.4z
		"/>
</g>
</svg>
