<svg width="305" height="87" viewBox="0 0 305 87" fill="none" xmlns="http://www.w3.org/2000/svg">
<path d="M0 43V23H40.6101L46 32.6137L40.6101 43H0Z" fill="#C4C4C4"/>
<path d="M49.3216 32.5652L44 23H84.3176L90 32.5652L84.3176 43H44L49.3216 32.5652Z" fill="#C4C4C4"/>
<path d="M92.2059 32.5652L87 23H126.441L132 32.5652L126.441 43H87L92.2059 32.5652Z" fill="#C4C4C4"/>
<path d="M134.322 32.5652L129 23H169.318L175 32.5652L169.318 43H129L134.322 32.5652Z" fill="#C4C4C4"/>
<path d="M177.322 32.5652L172 23H212.318L218 32.5652L212.318 43H172L177.322 32.5652Z" fill="#C4C4C4"/>
<path d="M38.8713 26.8832C40.5957 25.0347 42.2739 21.329 40.6573 19.0503C39.5233 17.4451 37.2942 17.2618 34.0347 16.9763C32.9158 16.8785 31.4726 16.761 29.6366 17.1479C28.122 17.4572 24.6473 18.1725 24.2219 20.0354C23.772 21.9687 26.622 25.0551 29.5876 25.8427C31.0125 26.2253 32.5057 26.0838 33.8087 27.3241C34.4911 27.9824 34.5803 28.4832 35.2057 28.7007C36.6441 29.1826 38.4985 27.284 38.8713 26.8832Z" fill="#C4C4C4" stroke="#161616" stroke-width="0.230003" stroke-miterlimit="10"/>
<path d="M30.2085 23.5508V22.6963H32.0439V23.5508H30.2085ZM35.1475 25H34.0913V22.1084L34.1016 21.6333L34.1187 21.1138C33.9432 21.2892 33.8213 21.4043 33.7529 21.459L33.1787 21.9204L32.6694 21.2847L34.2793 20.0029H35.1475V25Z" fill="white"/>
<path d="M85.8713 26.8832C87.5957 25.0347 89.2739 21.329 87.6573 19.0503C86.5233 17.4451 84.2942 17.2618 81.0347 16.9763C79.9158 16.8785 78.4726 16.761 76.6366 17.1479C75.122 17.4572 71.6473 18.1725 71.2219 20.0354C70.772 21.9687 73.622 25.0551 76.5876 25.8427C78.0125 26.2253 79.5057 26.0838 80.8087 27.3241C81.4911 27.9824 81.5803 28.4832 82.2057 28.7007C83.6441 29.1826 85.4985 27.284 85.8713 26.8832Z" fill="#C4C4C4" stroke="#161616" stroke-width="0.230003" stroke-miterlimit="10"/>
<path d="M77.2085 23.5508V22.6963H79.0439V23.5508H77.2085ZM82.1475 25H81.0913V22.1084L81.1016 21.6333L81.1187 21.1138C80.9432 21.2892 80.8213 21.4043 80.7529 21.459L80.1787 21.9204L79.6694 21.2847L81.2793 20.0029H82.1475V25Z" fill="white"/>
<path d="M125.871 26.8832C127.596 25.0347 129.274 21.329 127.657 19.0503C126.523 17.4451 124.294 17.2618 121.035 16.9763C119.916 16.8785 118.473 16.761 116.637 17.1479C115.122 17.4572 111.647 18.1725 111.222 20.0354C110.772 21.9687 113.622 25.0551 116.588 25.8427C118.012 26.2253 119.506 26.0838 120.809 27.3241C121.491 27.9824 121.58 28.4832 122.206 28.7007C123.644 29.1826 125.499 27.284 125.871 26.8832Z" fill="#C4C4C4" stroke="#161616" stroke-width="0.230003" stroke-miterlimit="10"/>
<path d="M117.208 23.5508V22.6963H119.044V23.5508H117.208ZM123.029 25H119.536V24.2651L120.791 22.9971C121.162 22.6165 121.405 22.3534 121.519 22.2075C121.632 22.0594 121.715 21.9227 121.765 21.7974C121.815 21.672 121.84 21.5422 121.84 21.4077C121.84 21.2072 121.784 21.0579 121.672 20.96C121.563 20.862 121.416 20.813 121.231 20.813C121.038 20.813 120.85 20.8574 120.667 20.9463C120.485 21.0352 120.295 21.1616 120.097 21.3257L119.522 20.6455C119.769 20.4359 119.972 20.2878 120.134 20.2012C120.296 20.1146 120.473 20.0485 120.664 20.0029C120.855 19.9551 121.07 19.9312 121.307 19.9312C121.619 19.9312 121.895 19.9881 122.134 20.1021C122.373 20.216 122.559 20.3755 122.691 20.5806C122.823 20.7856 122.889 21.0203 122.889 21.2847C122.889 21.5148 122.848 21.7313 122.766 21.9341C122.686 22.1346 122.561 22.3408 122.39 22.5527C122.222 22.7646 121.923 23.0666 121.495 23.4585L120.852 24.0635V24.1113H123.029V25Z" fill="white"/>
<path d="M169.871 26.8832C171.596 25.0347 173.274 21.329 171.657 19.0503C170.523 17.4451 168.294 17.2618 165.035 16.9763C163.916 16.8785 162.473 16.761 160.637 17.1479C159.122 17.4572 155.647 18.1725 155.222 20.0354C154.772 21.9687 157.622 25.0551 160.588 25.8427C162.012 26.2253 163.506 26.0838 164.809 27.3241C165.491 27.9824 165.58 28.4832 166.206 28.7007C167.644 29.1826 169.499 27.284 169.871 26.8832Z" fill="#C4C4C4" stroke="#161616" stroke-width="0.230003" stroke-miterlimit="10"/>
<path d="M161.208 23.5508V22.6963H163.044V23.5508H161.208ZM167.029 25H163.536V24.2651L164.791 22.9971C165.162 22.6165 165.405 22.3534 165.519 22.2075C165.632 22.0594 165.715 21.9227 165.765 21.7974C165.815 21.672 165.84 21.5422 165.84 21.4077C165.84 21.2072 165.784 21.0579 165.672 20.96C165.563 20.862 165.416 20.813 165.231 20.813C165.038 20.813 164.85 20.8574 164.667 20.9463C164.485 21.0352 164.295 21.1616 164.097 21.3257L163.522 20.6455C163.769 20.4359 163.972 20.2878 164.134 20.2012C164.296 20.1146 164.473 20.0485 164.664 20.0029C164.855 19.9551 165.07 19.9312 165.307 19.9312C165.619 19.9312 165.895 19.9881 166.134 20.1021C166.373 20.216 166.559 20.3755 166.691 20.5806C166.823 20.7856 166.889 21.0203 166.889 21.2847C166.889 21.5148 166.848 21.7313 166.766 21.9341C166.686 22.1346 166.561 22.3408 166.39 22.5527C166.222 22.7646 165.923 23.0666 165.495 23.4585L164.852 24.0635V24.1113H167.029V25Z" fill="white"/>
<path d="M213.871 26.8832C215.596 25.0347 217.274 21.329 215.657 19.0503C214.523 17.4451 212.294 17.2618 209.035 16.9763C207.916 16.8785 206.473 16.761 204.637 17.1479C203.122 17.4572 199.647 18.1725 199.222 20.0354C198.772 21.9687 201.622 25.0551 204.588 25.8427C206.012 26.2253 207.506 26.0838 208.809 27.3241C209.491 27.9824 209.58 28.4832 210.206 28.7007C211.644 29.1826 213.499 27.284 213.871 26.8832Z" fill="#C4C4C4" stroke="#161616" stroke-width="0.230003" stroke-miterlimit="10"/>
<path d="M205.208 23.5508V22.6963H207.044V23.5508H205.208ZM210.834 21.1206C210.834 21.4328 210.74 21.6982 210.551 21.917C210.362 22.1357 210.096 22.2861 209.754 22.3682V22.3887C210.158 22.4388 210.463 22.5618 210.67 22.7578C210.878 22.9515 210.981 23.2135 210.981 23.5439C210.981 24.0247 210.807 24.3996 210.458 24.6685C210.11 24.9351 209.612 25.0684 208.965 25.0684C208.423 25.0684 207.942 24.9784 207.522 24.7983V23.8994C207.716 23.9974 207.929 24.0771 208.162 24.1387C208.394 24.2002 208.624 24.231 208.852 24.231C209.201 24.231 209.458 24.1717 209.625 24.0532C209.791 23.9347 209.874 23.7445 209.874 23.4824C209.874 23.2477 209.778 23.0814 209.587 22.9834C209.396 22.8854 209.09 22.8364 208.671 22.8364H208.292V22.0264H208.678C209.065 22.0264 209.348 21.9762 209.525 21.876C209.705 21.7734 209.795 21.5991 209.795 21.353C209.795 20.9748 209.558 20.7856 209.084 20.7856C208.92 20.7856 208.753 20.813 208.582 20.8677C208.413 20.9224 208.225 21.0169 208.018 21.1514L207.529 20.4233C207.985 20.0952 208.528 19.9312 209.16 19.9312C209.677 19.9312 210.085 20.036 210.383 20.2456C210.684 20.4552 210.834 20.7469 210.834 21.1206Z" fill="white"/>
<path d="M13.2051 37H11.6963V32.8691L11.7109 32.1904L11.7354 31.4482C11.4847 31.6989 11.3105 31.8633 11.2129 31.9414L10.3926 32.6006L9.66504 31.6924L11.9648 29.8613H13.2051V37ZM17.7852 32.4395C18.4753 32.4395 19.0238 32.6331 19.4307 33.0205C19.8408 33.4079 20.0459 33.9385 20.0459 34.6123C20.0459 35.4098 19.8001 36.0234 19.3086 36.4531C18.8171 36.8828 18.1139 37.0977 17.1992 37.0977C16.4049 37.0977 15.7637 36.9691 15.2754 36.7119V35.4082C15.5326 35.5449 15.832 35.6572 16.1738 35.7451C16.5156 35.8298 16.8395 35.8721 17.1455 35.8721C18.0667 35.8721 18.5273 35.4945 18.5273 34.7393C18.5273 34.0199 18.0505 33.6602 17.0967 33.6602C16.9242 33.6602 16.7337 33.6781 16.5254 33.7139C16.3171 33.7464 16.1478 33.7822 16.0176 33.8213L15.417 33.499L15.6855 29.8613H19.5576V31.1406H17.0088L16.877 32.542L17.0479 32.5078C17.2464 32.4622 17.4922 32.4395 17.7852 32.4395ZM25.8516 33.4307C25.8516 34.6774 25.6465 35.6003 25.2363 36.1992C24.8294 36.7982 24.2012 37.0977 23.3516 37.0977C22.528 37.0977 21.9062 36.7884 21.4863 36.1699C21.0697 35.5514 20.8613 34.6383 20.8613 33.4307C20.8613 32.1709 21.0648 31.2432 21.4717 30.6475C21.8786 30.0485 22.5052 29.749 23.3516 29.749C24.1751 29.749 24.7969 30.0615 25.2168 30.6865C25.64 31.3115 25.8516 32.2262 25.8516 33.4307ZM22.3604 33.4307C22.3604 34.3063 22.4352 34.9346 22.585 35.3154C22.738 35.693 22.9935 35.8818 23.3516 35.8818C23.7031 35.8818 23.957 35.6898 24.1133 35.3057C24.2695 34.9215 24.3477 34.2965 24.3477 33.4307C24.3477 32.555 24.2679 31.9268 24.1084 31.5459C23.9521 31.1618 23.6999 30.9697 23.3516 30.9697C22.9967 30.9697 22.7428 31.1618 22.5898 31.5459C22.4368 31.9268 22.3604 32.555 22.3604 33.4307ZM30.1338 31.0186C29.7367 31.0186 29.4095 31.1341 29.1523 31.3652C28.8952 31.5931 28.7292 31.9251 28.6543 32.3613H30.6221V33.2207H28.5811L28.5713 33.3916V33.6211L28.5811 33.7822H30.3145V34.6514H28.6641C28.8301 35.4424 29.3525 35.8379 30.2314 35.8379C30.6969 35.8379 31.1445 35.7451 31.5742 35.5596V36.8096C31.1966 37.0016 30.7197 37.0977 30.1436 37.0977C29.346 37.0977 28.6901 36.8812 28.1758 36.4482C27.6615 36.0153 27.3376 35.4163 27.2041 34.6514H26.5352V33.7822H27.1113C27.0983 33.7074 27.0918 33.6064 27.0918 33.4795L27.1016 33.2207H26.5352V32.3613H27.1846C27.305 31.5736 27.6289 30.9518 28.1562 30.4961C28.6836 30.0371 29.3428 29.8076 30.1338 29.8076C30.7458 29.8076 31.3187 29.9411 31.8525 30.208L31.374 31.3408C31.1494 31.2399 30.9395 31.1618 30.7441 31.1064C30.5488 31.0479 30.3454 31.0186 30.1338 31.0186Z" fill="#F5FDFC"/>
<path d="M61.1865 31.458C61.1865 31.904 61.0514 32.2832 60.7812 32.5957C60.5111 32.9082 60.1318 33.123 59.6436 33.2402V33.2695C60.2197 33.3411 60.6559 33.5169 60.9521 33.7969C61.2484 34.0736 61.3965 34.4479 61.3965 34.9199C61.3965 35.6068 61.1475 36.1423 60.6494 36.5264C60.1514 36.9072 59.4401 37.0977 58.5156 37.0977C57.7409 37.0977 57.054 36.9691 56.4551 36.7119V35.4277C56.7318 35.5677 57.0361 35.6816 57.3682 35.7695C57.7002 35.8574 58.029 35.9014 58.3545 35.9014C58.8525 35.9014 59.2204 35.8167 59.458 35.6475C59.6956 35.4782 59.8145 35.2064 59.8145 34.832C59.8145 34.4967 59.6777 34.2591 59.4043 34.1191C59.1309 33.9792 58.6947 33.9092 58.0957 33.9092H57.5537V32.752H58.1055C58.6589 32.752 59.0625 32.6803 59.3164 32.5371C59.5736 32.3906 59.7021 32.1416 59.7021 31.79C59.7021 31.2497 59.3636 30.9795 58.6865 30.9795C58.4521 30.9795 58.2129 31.0186 57.9688 31.0967C57.7279 31.1748 57.4593 31.3099 57.1631 31.502L56.4648 30.4619C57.1159 29.9932 57.8923 29.7588 58.7939 29.7588C59.5329 29.7588 60.1156 29.9085 60.542 30.208C60.9717 30.5075 61.1865 30.9242 61.1865 31.458ZM67.1387 33.4307C67.1387 34.6774 66.9336 35.6003 66.5234 36.1992C66.1165 36.7982 65.4883 37.0977 64.6387 37.0977C63.8151 37.0977 63.1934 36.7884 62.7734 36.1699C62.3568 35.5514 62.1484 34.6383 62.1484 33.4307C62.1484 32.1709 62.3519 31.2432 62.7588 30.6475C63.1657 30.0485 63.7923 29.749 64.6387 29.749C65.4622 29.749 66.084 30.0615 66.5039 30.6865C66.9271 31.3115 67.1387 32.2262 67.1387 33.4307ZM63.6475 33.4307C63.6475 34.3063 63.7223 34.9346 63.8721 35.3154C64.0251 35.693 64.2806 35.8818 64.6387 35.8818C64.9902 35.8818 65.2441 35.6898 65.4004 35.3057C65.5566 34.9215 65.6348 34.2965 65.6348 33.4307C65.6348 32.555 65.555 31.9268 65.3955 31.5459C65.2393 31.1618 64.987 30.9697 64.6387 30.9697C64.2839 30.9697 64.0299 31.1618 63.877 31.5459C63.724 31.9268 63.6475 32.555 63.6475 33.4307ZM72.8516 33.4307C72.8516 34.6774 72.6465 35.6003 72.2363 36.1992C71.8294 36.7982 71.2012 37.0977 70.3516 37.0977C69.528 37.0977 68.9062 36.7884 68.4863 36.1699C68.0697 35.5514 67.8613 34.6383 67.8613 33.4307C67.8613 32.1709 68.0648 31.2432 68.4717 30.6475C68.8786 30.0485 69.5052 29.749 70.3516 29.749C71.1751 29.749 71.7969 30.0615 72.2168 30.6865C72.64 31.3115 72.8516 32.2262 72.8516 33.4307ZM69.3604 33.4307C69.3604 34.3063 69.4352 34.9346 69.585 35.3154C69.738 35.693 69.9935 35.8818 70.3516 35.8818C70.7031 35.8818 70.957 35.6898 71.1133 35.3057C71.2695 34.9215 71.3477 34.2965 71.3477 33.4307C71.3477 32.555 71.2679 31.9268 71.1084 31.5459C70.9521 31.1618 70.6999 30.9697 70.3516 30.9697C69.9967 30.9697 69.7428 31.1618 69.5898 31.5459C69.4368 31.9268 69.3604 32.555 69.3604 33.4307ZM77.1338 31.0186C76.7367 31.0186 76.4095 31.1341 76.1523 31.3652C75.8952 31.5931 75.7292 31.9251 75.6543 32.3613H77.6221V33.2207H75.5811L75.5713 33.3916V33.6211L75.5811 33.7822H77.3145V34.6514H75.6641C75.8301 35.4424 76.3525 35.8379 77.2314 35.8379C77.6969 35.8379 78.1445 35.7451 78.5742 35.5596V36.8096C78.1966 37.0016 77.7197 37.0977 77.1436 37.0977C76.346 37.0977 75.6901 36.8812 75.1758 36.4482C74.6615 36.0153 74.3376 35.4163 74.2041 34.6514H73.5352V33.7822H74.1113C74.0983 33.7074 74.0918 33.6064 74.0918 33.4795L74.1016 33.2207H73.5352V32.3613H74.1846C74.305 31.5736 74.6289 30.9518 75.1562 30.4961C75.6836 30.0371 76.3428 29.8076 77.1338 29.8076C77.7458 29.8076 78.3187 29.9411 78.8525 30.208L78.374 31.3408C78.1494 31.2399 77.9395 31.1618 77.7441 31.1064C77.5488 31.0479 77.3454 31.0186 77.1338 31.0186Z" fill="#FEFFFF"/>
<path d="M101.072 32.4395C101.762 32.4395 102.311 32.6331 102.718 33.0205C103.128 33.4079 103.333 33.9385 103.333 34.6123C103.333 35.4098 103.087 36.0234 102.596 36.4531C102.104 36.8828 101.401 37.0977 100.486 37.0977C99.6921 37.0977 99.0508 36.9691 98.5625 36.7119V35.4082C98.8197 35.5449 99.1191 35.6572 99.4609 35.7451C99.8027 35.8298 100.127 35.8721 100.433 35.8721C101.354 35.8721 101.814 35.4945 101.814 34.7393C101.814 34.0199 101.338 33.6602 100.384 33.6602C100.211 33.6602 100.021 33.6781 99.8125 33.7139C99.6042 33.7464 99.4349 33.7822 99.3047 33.8213L98.7041 33.499L98.9727 29.8613H102.845V31.1406H100.296L100.164 32.542L100.335 32.5078C100.534 32.4622 100.779 32.4395 101.072 32.4395ZM109.139 33.4307C109.139 34.6774 108.934 35.6003 108.523 36.1992C108.117 36.7982 107.488 37.0977 106.639 37.0977C105.815 37.0977 105.193 36.7884 104.773 36.1699C104.357 35.5514 104.148 34.6383 104.148 33.4307C104.148 32.1709 104.352 31.2432 104.759 30.6475C105.166 30.0485 105.792 29.749 106.639 29.749C107.462 29.749 108.084 30.0615 108.504 30.6865C108.927 31.3115 109.139 32.2262 109.139 33.4307ZM105.647 33.4307C105.647 34.3063 105.722 34.9346 105.872 35.3154C106.025 35.693 106.281 35.8818 106.639 35.8818C106.99 35.8818 107.244 35.6898 107.4 35.3057C107.557 34.9215 107.635 34.2965 107.635 33.4307C107.635 32.555 107.555 31.9268 107.396 31.5459C107.239 31.1618 106.987 30.9697 106.639 30.9697C106.284 30.9697 106.03 31.1618 105.877 31.5459C105.724 31.9268 105.647 32.555 105.647 33.4307ZM114.852 33.4307C114.852 34.6774 114.646 35.6003 114.236 36.1992C113.829 36.7982 113.201 37.0977 112.352 37.0977C111.528 37.0977 110.906 36.7884 110.486 36.1699C110.07 35.5514 109.861 34.6383 109.861 33.4307C109.861 32.1709 110.065 31.2432 110.472 30.6475C110.879 30.0485 111.505 29.749 112.352 29.749C113.175 29.749 113.797 30.0615 114.217 30.6865C114.64 31.3115 114.852 32.2262 114.852 33.4307ZM111.36 33.4307C111.36 34.3063 111.435 34.9346 111.585 35.3154C111.738 35.693 111.993 35.8818 112.352 35.8818C112.703 35.8818 112.957 35.6898 113.113 35.3057C113.27 34.9215 113.348 34.2965 113.348 33.4307C113.348 32.555 113.268 31.9268 113.108 31.5459C112.952 31.1618 112.7 30.9697 112.352 30.9697C111.997 30.9697 111.743 31.1618 111.59 31.5459C111.437 31.9268 111.36 32.555 111.36 33.4307ZM119.134 31.0186C118.737 31.0186 118.41 31.1341 118.152 31.3652C117.895 31.5931 117.729 31.9251 117.654 32.3613H119.622V33.2207H117.581L117.571 33.3916V33.6211L117.581 33.7822H119.314V34.6514H117.664C117.83 35.4424 118.353 35.8379 119.231 35.8379C119.697 35.8379 120.145 35.7451 120.574 35.5596V36.8096C120.197 37.0016 119.72 37.0977 119.144 37.0977C118.346 37.0977 117.69 36.8812 117.176 36.4482C116.661 36.0153 116.338 35.4163 116.204 34.6514H115.535V33.7822H116.111C116.098 33.7074 116.092 33.6064 116.092 33.4795L116.102 33.2207H115.535V32.3613H116.185C116.305 31.5736 116.629 30.9518 117.156 30.4961C117.684 30.0371 118.343 29.8076 119.134 29.8076C119.746 29.8076 120.319 29.9411 120.853 30.208L120.374 31.3408C120.149 31.2399 119.939 31.1618 119.744 31.1064C119.549 31.0479 119.345 31.0186 119.134 31.0186Z" fill="#FAFFFE"/>
<path d="M141.183 37L143.863 31.1406H140.343V29.8711H145.465V30.8184L142.765 37H141.183ZM148.785 32.4395C149.475 32.4395 150.024 32.6331 150.431 33.0205C150.841 33.4079 151.046 33.9385 151.046 34.6123C151.046 35.4098 150.8 36.0234 150.309 36.4531C149.817 36.8828 149.114 37.0977 148.199 37.0977C147.405 37.0977 146.764 36.9691 146.275 36.7119V35.4082C146.533 35.5449 146.832 35.6572 147.174 35.7451C147.516 35.8298 147.84 35.8721 148.146 35.8721C149.067 35.8721 149.527 35.4945 149.527 34.7393C149.527 34.0199 149.05 33.6602 148.097 33.6602C147.924 33.6602 147.734 33.6781 147.525 33.7139C147.317 33.7464 147.148 33.7822 147.018 33.8213L146.417 33.499L146.686 29.8613H150.558V31.1406H148.009L147.877 32.542L148.048 32.5078C148.246 32.4622 148.492 32.4395 148.785 32.4395ZM156.852 33.4307C156.852 34.6774 156.646 35.6003 156.236 36.1992C155.829 36.7982 155.201 37.0977 154.352 37.0977C153.528 37.0977 152.906 36.7884 152.486 36.1699C152.07 35.5514 151.861 34.6383 151.861 33.4307C151.861 32.1709 152.065 31.2432 152.472 30.6475C152.879 30.0485 153.505 29.749 154.352 29.749C155.175 29.749 155.797 30.0615 156.217 30.6865C156.64 31.3115 156.852 32.2262 156.852 33.4307ZM153.36 33.4307C153.36 34.3063 153.435 34.9346 153.585 35.3154C153.738 35.693 153.993 35.8818 154.352 35.8818C154.703 35.8818 154.957 35.6898 155.113 35.3057C155.27 34.9215 155.348 34.2965 155.348 33.4307C155.348 32.555 155.268 31.9268 155.108 31.5459C154.952 31.1618 154.7 30.9697 154.352 30.9697C153.997 30.9697 153.743 31.1618 153.59 31.5459C153.437 31.9268 153.36 32.555 153.36 33.4307ZM161.134 31.0186C160.737 31.0186 160.41 31.1341 160.152 31.3652C159.895 31.5931 159.729 31.9251 159.654 32.3613H161.622V33.2207H159.581L159.571 33.3916V33.6211L159.581 33.7822H161.314V34.6514H159.664C159.83 35.4424 160.353 35.8379 161.231 35.8379C161.697 35.8379 162.145 35.7451 162.574 35.5596V36.8096C162.197 37.0016 161.72 37.0977 161.144 37.0977C160.346 37.0977 159.69 36.8812 159.176 36.4482C158.661 36.0153 158.338 35.4163 158.204 34.6514H157.535V33.7822H158.111C158.098 33.7074 158.092 33.6064 158.092 33.4795L158.102 33.2207H157.535V32.3613H158.185C158.305 31.5736 158.629 30.9518 159.156 30.4961C159.684 30.0371 160.343 29.8076 161.134 29.8076C161.746 29.8076 162.319 29.9411 162.853 30.208L162.374 31.3408C162.149 31.2399 161.939 31.1618 161.744 31.1064C161.549 31.0479 161.345 31.0186 161.134 31.0186Z" fill="#F8FDFC"/>
<path d="M184.849 37H183.34V32.8691L183.354 32.1904L183.379 31.4482C183.128 31.6989 182.954 31.8633 182.856 31.9414L182.036 32.6006L181.309 31.6924L183.608 29.8613H184.849V37ZM191.782 33.4307C191.782 34.6774 191.577 35.6003 191.167 36.1992C190.76 36.7982 190.132 37.0977 189.282 37.0977C188.459 37.0977 187.837 36.7884 187.417 36.1699C187 35.5514 186.792 34.6383 186.792 33.4307C186.792 32.1709 186.995 31.2432 187.402 30.6475C187.809 30.0485 188.436 29.749 189.282 29.749C190.106 29.749 190.728 30.0615 191.147 30.6865C191.571 31.3115 191.782 32.2262 191.782 33.4307ZM188.291 33.4307C188.291 34.3063 188.366 34.9346 188.516 35.3154C188.669 35.693 188.924 35.8818 189.282 35.8818C189.634 35.8818 189.888 35.6898 190.044 35.3057C190.2 34.9215 190.278 34.2965 190.278 33.4307C190.278 32.555 190.199 31.9268 190.039 31.5459C189.883 31.1618 189.631 30.9697 189.282 30.9697C188.927 30.9697 188.674 31.1618 188.521 31.5459C188.368 31.9268 188.291 32.555 188.291 33.4307ZM197.495 33.4307C197.495 34.6774 197.29 35.6003 196.88 36.1992C196.473 36.7982 195.845 37.0977 194.995 37.0977C194.172 37.0977 193.55 36.7884 193.13 36.1699C192.713 35.5514 192.505 34.6383 192.505 33.4307C192.505 32.1709 192.708 31.2432 193.115 30.6475C193.522 30.0485 194.149 29.749 194.995 29.749C195.819 29.749 196.44 30.0615 196.86 30.6865C197.284 31.3115 197.495 32.2262 197.495 33.4307ZM194.004 33.4307C194.004 34.3063 194.079 34.9346 194.229 35.3154C194.382 35.693 194.637 35.8818 194.995 35.8818C195.347 35.8818 195.601 35.6898 195.757 35.3057C195.913 34.9215 195.991 34.2965 195.991 33.4307C195.991 32.555 195.911 31.9268 195.752 31.5459C195.596 31.1618 195.343 30.9697 194.995 30.9697C194.64 30.9697 194.386 31.1618 194.233 31.5459C194.08 31.9268 194.004 32.555 194.004 33.4307ZM203.208 33.4307C203.208 34.6774 203.003 35.6003 202.593 36.1992C202.186 36.7982 201.558 37.0977 200.708 37.0977C199.884 37.0977 199.263 36.7884 198.843 36.1699C198.426 35.5514 198.218 34.6383 198.218 33.4307C198.218 32.1709 198.421 31.2432 198.828 30.6475C199.235 30.0485 199.862 29.749 200.708 29.749C201.532 29.749 202.153 30.0615 202.573 30.6865C202.996 31.3115 203.208 32.2262 203.208 33.4307ZM199.717 33.4307C199.717 34.3063 199.792 34.9346 199.941 35.3154C200.094 35.693 200.35 35.8818 200.708 35.8818C201.06 35.8818 201.313 35.6898 201.47 35.3057C201.626 34.9215 201.704 34.2965 201.704 33.4307C201.704 32.555 201.624 31.9268 201.465 31.5459C201.309 31.1618 201.056 30.9697 200.708 30.9697C200.353 30.9697 200.099 31.1618 199.946 31.5459C199.793 31.9268 199.717 32.555 199.717 33.4307ZM207.49 31.0186C207.093 31.0186 206.766 31.1341 206.509 31.3652C206.252 31.5931 206.086 31.9251 206.011 32.3613H207.979V33.2207H205.938L205.928 33.3916V33.6211L205.938 33.7822H207.671V34.6514H206.021C206.187 35.4424 206.709 35.8379 207.588 35.8379C208.053 35.8379 208.501 35.7451 208.931 35.5596V36.8096C208.553 37.0016 208.076 37.0977 207.5 37.0977C206.702 37.0977 206.047 36.8812 205.532 36.4482C205.018 36.0153 204.694 35.4163 204.561 34.6514H203.892V33.7822H204.468C204.455 33.7074 204.448 33.6064 204.448 33.4795L204.458 33.2207H203.892V32.3613H204.541C204.661 31.5736 204.985 30.9518 205.513 30.4961C206.04 30.0371 206.699 29.8076 207.49 29.8076C208.102 29.8076 208.675 29.9411 209.209 30.208L208.73 31.3408C208.506 31.2399 208.296 31.1618 208.101 31.1064C207.905 31.0479 207.702 31.0186 207.49 31.0186Z" fill="#F8FDFC"/>
<path d="M0 43V23H40.6101L46 32.6137L40.6101 43H0Z" fill="#C4C4C4"/>
<path d="M49.3216 32.5652L44 23H84.3176L90 32.5652L84.3176 43H44L49.3216 32.5652Z" fill="#C4C4C4"/>
<path d="M92.2059 32.5652L87 23H126.441L132 32.5652L126.441 43H87L92.2059 32.5652Z" fill="#C4C4C4"/>
<path d="M134.322 32.5652L129 23H169.318L175 32.5652L169.318 43H129L134.322 32.5652Z" fill="#C4C4C4"/>
<path d="M177.322 32.5652L172 23H212.318L218 32.5652L212.318 43H172L177.322 32.5652Z" fill="#C4C4C4"/>
<path d="M38.8713 26.8832C40.5957 25.0347 42.2739 21.329 40.6573 19.0503C39.5233 17.4451 37.2942 17.2618 34.0347 16.9763C32.9158 16.8785 31.4726 16.761 29.6366 17.1479C28.122 17.4572 24.6473 18.1725 24.2219 20.0354C23.772 21.9687 26.622 25.0551 29.5876 25.8427C31.0125 26.2253 32.5057 26.0838 33.8087 27.3241C34.4911 27.9824 34.5803 28.4832 35.2057 28.7007C36.6441 29.1826 38.4985 27.284 38.8713 26.8832Z" fill="#C4C4C4" stroke="#161616" stroke-width="0.230003" stroke-miterlimit="10"/>
<path d="M85.8713 26.8832C87.5957 25.0347 89.2739 21.329 87.6573 19.0503C86.5233 17.4451 84.2942 17.2618 81.0347 16.9763C79.9158 16.8785 78.4726 16.761 76.6366 17.1479C75.122 17.4572 71.6473 18.1725 71.2219 20.0354C70.772 21.9687 73.622 25.0551 76.5876 25.8427C78.0125 26.2253 79.5057 26.0838 80.8087 27.3241C81.4911 27.9824 81.5803 28.4832 82.2057 28.7007C83.6441 29.1826 85.4985 27.284 85.8713 26.8832Z" fill="#C4C4C4" stroke="#161616" stroke-width="0.230003" stroke-miterlimit="10"/>
<path d="M125.871 26.8832C127.596 25.0347 129.274 21.329 127.657 19.0503C126.523 17.4451 124.294 17.2618 121.035 16.9763C119.916 16.8785 118.473 16.761 116.637 17.1479C115.122 17.4572 111.647 18.1725 111.222 20.0354C110.772 21.9687 113.622 25.0551 116.588 25.8427C118.012 26.2253 119.506 26.0838 120.809 27.3241C121.491 27.9824 121.58 28.4832 122.206 28.7007C123.644 29.1826 125.499 27.284 125.871 26.8832Z" fill="#C4C4C4" stroke="#161616" stroke-width="0.230003" stroke-miterlimit="10"/>
<path d="M169.871 26.8832C171.596 25.0347 173.274 21.329 171.657 19.0503C170.523 17.4451 168.294 17.2618 165.035 16.9763C163.916 16.8785 162.473 16.761 160.637 17.1479C159.122 17.4572 155.647 18.1725 155.222 20.0354C154.772 21.9687 157.622 25.0551 160.588 25.8427C162.012 26.2253 163.506 26.0838 164.809 27.3241C165.491 27.9824 165.58 28.4832 166.206 28.7007C167.644 29.1826 169.499 27.284 169.871 26.8832Z" fill="#C4C4C4" stroke="#161616" stroke-width="0.230003" stroke-miterlimit="10"/>
<path d="M213.871 26.8832C215.596 25.0347 217.274 21.329 215.657 19.0503C214.523 17.4451 212.294 17.2618 209.035 16.9763C207.916 16.8785 206.473 16.761 204.637 17.1479C203.122 17.4572 199.647 18.1725 199.222 20.0354C198.772 21.9687 201.622 25.0551 204.588 25.8427C206.012 26.2253 207.506 26.0838 208.809 27.3241C209.491 27.9824 209.58 28.4832 210.206 28.7007C211.644 29.1826 213.499 27.284 213.871 26.8832Z" fill="#C4C4C4" stroke="#161616" stroke-width="0.230003" stroke-miterlimit="10"/>
<path d="M13.2051 37H11.6963V32.8691L11.7109 32.1904L11.7354 31.4482C11.4847 31.6989 11.3105 31.8633 11.2129 31.9414L10.3926 32.6006L9.66504 31.6924L11.9648 29.8613H13.2051V37ZM17.7852 32.4395C18.4753 32.4395 19.0238 32.6331 19.4307 33.0205C19.8408 33.4079 20.0459 33.9385 20.0459 34.6123C20.0459 35.4098 19.8001 36.0234 19.3086 36.4531C18.8171 36.8828 18.1139 37.0977 17.1992 37.0977C16.4049 37.0977 15.7637 36.9691 15.2754 36.7119V35.4082C15.5326 35.5449 15.832 35.6572 16.1738 35.7451C16.5156 35.8298 16.8395 35.8721 17.1455 35.8721C18.0667 35.8721 18.5273 35.4945 18.5273 34.7393C18.5273 34.0199 18.0505 33.6602 17.0967 33.6602C16.9242 33.6602 16.7337 33.6781 16.5254 33.7139C16.3171 33.7464 16.1478 33.7822 16.0176 33.8213L15.417 33.499L15.6855 29.8613H19.5576V31.1406H17.0088L16.877 32.542L17.0479 32.5078C17.2464 32.4622 17.4922 32.4395 17.7852 32.4395ZM25.8516 33.4307C25.8516 34.6774 25.6465 35.6003 25.2363 36.1992C24.8294 36.7982 24.2012 37.0977 23.3516 37.0977C22.528 37.0977 21.9062 36.7884 21.4863 36.1699C21.0697 35.5514 20.8613 34.6383 20.8613 33.4307C20.8613 32.1709 21.0648 31.2432 21.4717 30.6475C21.8786 30.0485 22.5052 29.749 23.3516 29.749C24.1751 29.749 24.7969 30.0615 25.2168 30.6865C25.64 31.3115 25.8516 32.2262 25.8516 33.4307ZM22.3604 33.4307C22.3604 34.3063 22.4352 34.9346 22.585 35.3154C22.738 35.693 22.9935 35.8818 23.3516 35.8818C23.7031 35.8818 23.957 35.6898 24.1133 35.3057C24.2695 34.9215 24.3477 34.2965 24.3477 33.4307C24.3477 32.555 24.2679 31.9268 24.1084 31.5459C23.9521 31.1618 23.6999 30.9697 23.3516 30.9697C22.9967 30.9697 22.7428 31.1618 22.5898 31.5459C22.4368 31.9268 22.3604 32.555 22.3604 33.4307ZM30.1338 31.0186C29.7367 31.0186 29.4095 31.1341 29.1523 31.3652C28.8952 31.5931 28.7292 31.9251 28.6543 32.3613H30.6221V33.2207H28.5811L28.5713 33.3916V33.6211L28.5811 33.7822H30.3145V34.6514H28.6641C28.8301 35.4424 29.3525 35.8379 30.2314 35.8379C30.6969 35.8379 31.1445 35.7451 31.5742 35.5596V36.8096C31.1966 37.0016 30.7197 37.0977 30.1436 37.0977C29.346 37.0977 28.6901 36.8812 28.1758 36.4482C27.6615 36.0153 27.3376 35.4163 27.2041 34.6514H26.5352V33.7822H27.1113C27.0983 33.7074 27.0918 33.6064 27.0918 33.4795L27.1016 33.2207H26.5352V32.3613H27.1846C27.305 31.5736 27.6289 30.9518 28.1562 30.4961C28.6836 30.0371 29.3428 29.8076 30.1338 29.8076C30.7458 29.8076 31.3187 29.9411 31.8525 30.208L31.374 31.3408C31.1494 31.2399 30.9395 31.1618 30.7441 31.1064C30.5488 31.0479 30.3454 31.0186 30.1338 31.0186Z" fill="#F5FDFC"/>
<path d="M61.1865 31.458C61.1865 31.904 61.0514 32.2832 60.7812 32.5957C60.5111 32.9082 60.1318 33.123 59.6436 33.2402V33.2695C60.2197 33.3411 60.6559 33.5169 60.9521 33.7969C61.2484 34.0736 61.3965 34.4479 61.3965 34.9199C61.3965 35.6068 61.1475 36.1423 60.6494 36.5264C60.1514 36.9072 59.4401 37.0977 58.5156 37.0977C57.7409 37.0977 57.054 36.9691 56.4551 36.7119V35.4277C56.7318 35.5677 57.0361 35.6816 57.3682 35.7695C57.7002 35.8574 58.029 35.9014 58.3545 35.9014C58.8525 35.9014 59.2204 35.8167 59.458 35.6475C59.6956 35.4782 59.8145 35.2064 59.8145 34.832C59.8145 34.4967 59.6777 34.2591 59.4043 34.1191C59.1309 33.9792 58.6947 33.9092 58.0957 33.9092H57.5537V32.752H58.1055C58.6589 32.752 59.0625 32.6803 59.3164 32.5371C59.5736 32.3906 59.7021 32.1416 59.7021 31.79C59.7021 31.2497 59.3636 30.9795 58.6865 30.9795C58.4521 30.9795 58.2129 31.0186 57.9688 31.0967C57.7279 31.1748 57.4593 31.3099 57.1631 31.502L56.4648 30.4619C57.1159 29.9932 57.8923 29.7588 58.7939 29.7588C59.5329 29.7588 60.1156 29.9085 60.542 30.208C60.9717 30.5075 61.1865 30.9242 61.1865 31.458ZM67.1387 33.4307C67.1387 34.6774 66.9336 35.6003 66.5234 36.1992C66.1165 36.7982 65.4883 37.0977 64.6387 37.0977C63.8151 37.0977 63.1934 36.7884 62.7734 36.1699C62.3568 35.5514 62.1484 34.6383 62.1484 33.4307C62.1484 32.1709 62.3519 31.2432 62.7588 30.6475C63.1657 30.0485 63.7923 29.749 64.6387 29.749C65.4622 29.749 66.084 30.0615 66.5039 30.6865C66.9271 31.3115 67.1387 32.2262 67.1387 33.4307ZM63.6475 33.4307C63.6475 34.3063 63.7223 34.9346 63.8721 35.3154C64.0251 35.693 64.2806 35.8818 64.6387 35.8818C64.9902 35.8818 65.2441 35.6898 65.4004 35.3057C65.5566 34.9215 65.6348 34.2965 65.6348 33.4307C65.6348 32.555 65.555 31.9268 65.3955 31.5459C65.2393 31.1618 64.987 30.9697 64.6387 30.9697C64.2839 30.9697 64.0299 31.1618 63.877 31.5459C63.724 31.9268 63.6475 32.555 63.6475 33.4307ZM72.8516 33.4307C72.8516 34.6774 72.6465 35.6003 72.2363 36.1992C71.8294 36.7982 71.2012 37.0977 70.3516 37.0977C69.528 37.0977 68.9062 36.7884 68.4863 36.1699C68.0697 35.5514 67.8613 34.6383 67.8613 33.4307C67.8613 32.1709 68.0648 31.2432 68.4717 30.6475C68.8786 30.0485 69.5052 29.749 70.3516 29.749C71.1751 29.749 71.7969 30.0615 72.2168 30.6865C72.64 31.3115 72.8516 32.2262 72.8516 33.4307ZM69.3604 33.4307C69.3604 34.3063 69.4352 34.9346 69.585 35.3154C69.738 35.693 69.9935 35.8818 70.3516 35.8818C70.7031 35.8818 70.957 35.6898 71.1133 35.3057C71.2695 34.9215 71.3477 34.2965 71.3477 33.4307C71.3477 32.555 71.2679 31.9268 71.1084 31.5459C70.9521 31.1618 70.6999 30.9697 70.3516 30.9697C69.9967 30.9697 69.7428 31.1618 69.5898 31.5459C69.4368 31.9268 69.3604 32.555 69.3604 33.4307ZM77.1338 31.0186C76.7367 31.0186 76.4095 31.1341 76.1523 31.3652C75.8952 31.5931 75.7292 31.9251 75.6543 32.3613H77.6221V33.2207H75.5811L75.5713 33.3916V33.6211L75.5811 33.7822H77.3145V34.6514H75.6641C75.8301 35.4424 76.3525 35.8379 77.2314 35.8379C77.6969 35.8379 78.1445 35.7451 78.5742 35.5596V36.8096C78.1966 37.0016 77.7197 37.0977 77.1436 37.0977C76.346 37.0977 75.6901 36.8812 75.1758 36.4482C74.6615 36.0153 74.3376 35.4163 74.2041 34.6514H73.5352V33.7822H74.1113C74.0983 33.7074 74.0918 33.6064 74.0918 33.4795L74.1016 33.2207H73.5352V32.3613H74.1846C74.305 31.5736 74.6289 30.9518 75.1562 30.4961C75.6836 30.0371 76.3428 29.8076 77.1338 29.8076C77.7458 29.8076 78.3187 29.9411 78.8525 30.208L78.374 31.3408C78.1494 31.2399 77.9395 31.1618 77.7441 31.1064C77.5488 31.0479 77.3454 31.0186 77.1338 31.0186Z" fill="#FEFFFF"/>
<path d="M101.072 32.4395C101.762 32.4395 102.311 32.6331 102.718 33.0205C103.128 33.4079 103.333 33.9385 103.333 34.6123C103.333 35.4098 103.087 36.0234 102.596 36.4531C102.104 36.8828 101.401 37.0977 100.486 37.0977C99.6921 37.0977 99.0508 36.9691 98.5625 36.7119V35.4082C98.8197 35.5449 99.1191 35.6572 99.4609 35.7451C99.8027 35.8298 100.127 35.8721 100.433 35.8721C101.354 35.8721 101.814 35.4945 101.814 34.7393C101.814 34.0199 101.338 33.6602 100.384 33.6602C100.211 33.6602 100.021 33.6781 99.8125 33.7139C99.6042 33.7464 99.4349 33.7822 99.3047 33.8213L98.7041 33.499L98.9727 29.8613H102.845V31.1406H100.296L100.164 32.542L100.335 32.5078C100.534 32.4622 100.779 32.4395 101.072 32.4395ZM109.139 33.4307C109.139 34.6774 108.934 35.6003 108.523 36.1992C108.117 36.7982 107.488 37.0977 106.639 37.0977C105.815 37.0977 105.193 36.7884 104.773 36.1699C104.357 35.5514 104.148 34.6383 104.148 33.4307C104.148 32.1709 104.352 31.2432 104.759 30.6475C105.166 30.0485 105.792 29.749 106.639 29.749C107.462 29.749 108.084 30.0615 108.504 30.6865C108.927 31.3115 109.139 32.2262 109.139 33.4307ZM105.647 33.4307C105.647 34.3063 105.722 34.9346 105.872 35.3154C106.025 35.693 106.281 35.8818 106.639 35.8818C106.99 35.8818 107.244 35.6898 107.4 35.3057C107.557 34.9215 107.635 34.2965 107.635 33.4307C107.635 32.555 107.555 31.9268 107.396 31.5459C107.239 31.1618 106.987 30.9697 106.639 30.9697C106.284 30.9697 106.03 31.1618 105.877 31.5459C105.724 31.9268 105.647 32.555 105.647 33.4307ZM114.852 33.4307C114.852 34.6774 114.646 35.6003 114.236 36.1992C113.829 36.7982 113.201 37.0977 112.352 37.0977C111.528 37.0977 110.906 36.7884 110.486 36.1699C110.07 35.5514 109.861 34.6383 109.861 33.4307C109.861 32.1709 110.065 31.2432 110.472 30.6475C110.879 30.0485 111.505 29.749 112.352 29.749C113.175 29.749 113.797 30.0615 114.217 30.6865C114.64 31.3115 114.852 32.2262 114.852 33.4307ZM111.36 33.4307C111.36 34.3063 111.435 34.9346 111.585 35.3154C111.738 35.693 111.993 35.8818 112.352 35.8818C112.703 35.8818 112.957 35.6898 113.113 35.3057C113.27 34.9215 113.348 34.2965 113.348 33.4307C113.348 32.555 113.268 31.9268 113.108 31.5459C112.952 31.1618 112.7 30.9697 112.352 30.9697C111.997 30.9697 111.743 31.1618 111.59 31.5459C111.437 31.9268 111.36 32.555 111.36 33.4307ZM119.134 31.0186C118.737 31.0186 118.41 31.1341 118.152 31.3652C117.895 31.5931 117.729 31.9251 117.654 32.3613H119.622V33.2207H117.581L117.571 33.3916V33.6211L117.581 33.7822H119.314V34.6514H117.664C117.83 35.4424 118.353 35.8379 119.231 35.8379C119.697 35.8379 120.145 35.7451 120.574 35.5596V36.8096C120.197 37.0016 119.72 37.0977 119.144 37.0977C118.346 37.0977 117.69 36.8812 117.176 36.4482C116.661 36.0153 116.338 35.4163 116.204 34.6514H115.535V33.7822H116.111C116.098 33.7074 116.092 33.6064 116.092 33.4795L116.102 33.2207H115.535V32.3613H116.185C116.305 31.5736 116.629 30.9518 117.156 30.4961C117.684 30.0371 118.343 29.8076 119.134 29.8076C119.746 29.8076 120.319 29.9411 120.853 30.208L120.374 31.3408C120.149 31.2399 119.939 31.1618 119.744 31.1064C119.549 31.0479 119.345 31.0186 119.134 31.0186Z" fill="#FAFFFE"/>
<path d="M141.183 37L143.863 31.1406H140.343V29.8711H145.465V30.8184L142.765 37H141.183ZM148.785 32.4395C149.475 32.4395 150.024 32.6331 150.431 33.0205C150.841 33.4079 151.046 33.9385 151.046 34.6123C151.046 35.4098 150.8 36.0234 150.309 36.4531C149.817 36.8828 149.114 37.0977 148.199 37.0977C147.405 37.0977 146.764 36.9691 146.275 36.7119V35.4082C146.533 35.5449 146.832 35.6572 147.174 35.7451C147.516 35.8298 147.84 35.8721 148.146 35.8721C149.067 35.8721 149.527 35.4945 149.527 34.7393C149.527 34.0199 149.05 33.6602 148.097 33.6602C147.924 33.6602 147.734 33.6781 147.525 33.7139C147.317 33.7464 147.148 33.7822 147.018 33.8213L146.417 33.499L146.686 29.8613H150.558V31.1406H148.009L147.877 32.542L148.048 32.5078C148.246 32.4622 148.492 32.4395 148.785 32.4395ZM156.852 33.4307C156.852 34.6774 156.646 35.6003 156.236 36.1992C155.829 36.7982 155.201 37.0977 154.352 37.0977C153.528 37.0977 152.906 36.7884 152.486 36.1699C152.07 35.5514 151.861 34.6383 151.861 33.4307C151.861 32.1709 152.065 31.2432 152.472 30.6475C152.879 30.0485 153.505 29.749 154.352 29.749C155.175 29.749 155.797 30.0615 156.217 30.6865C156.64 31.3115 156.852 32.2262 156.852 33.4307ZM153.36 33.4307C153.36 34.3063 153.435 34.9346 153.585 35.3154C153.738 35.693 153.993 35.8818 154.352 35.8818C154.703 35.8818 154.957 35.6898 155.113 35.3057C155.27 34.9215 155.348 34.2965 155.348 33.4307C155.348 32.555 155.268 31.9268 155.108 31.5459C154.952 31.1618 154.7 30.9697 154.352 30.9697C153.997 30.9697 153.743 31.1618 153.59 31.5459C153.437 31.9268 153.36 32.555 153.36 33.4307ZM161.134 31.0186C160.737 31.0186 160.41 31.1341 160.152 31.3652C159.895 31.5931 159.729 31.9251 159.654 32.3613H161.622V33.2207H159.581L159.571 33.3916V33.6211L159.581 33.7822H161.314V34.6514H159.664C159.83 35.4424 160.353 35.8379 161.231 35.8379C161.697 35.8379 162.145 35.7451 162.574 35.5596V36.8096C162.197 37.0016 161.72 37.0977 161.144 37.0977C160.346 37.0977 159.69 36.8812 159.176 36.4482C158.661 36.0153 158.338 35.4163 158.204 34.6514H157.535V33.7822H158.111C158.098 33.7074 158.092 33.6064 158.092 33.4795L158.102 33.2207H157.535V32.3613H158.185C158.305 31.5736 158.629 30.9518 159.156 30.4961C159.684 30.0371 160.343 29.8076 161.134 29.8076C161.746 29.8076 162.319 29.9411 162.853 30.208L162.374 31.3408C162.149 31.2399 161.939 31.1618 161.744 31.1064C161.549 31.0479 161.345 31.0186 161.134 31.0186Z" fill="#F8FDFC"/>
<path d="M184.849 37H183.34V32.8691L183.354 32.1904L183.379 31.4482C183.128 31.6989 182.954 31.8633 182.856 31.9414L182.036 32.6006L181.309 31.6924L183.608 29.8613H184.849V37ZM191.782 33.4307C191.782 34.6774 191.577 35.6003 191.167 36.1992C190.76 36.7982 190.132 37.0977 189.282 37.0977C188.459 37.0977 187.837 36.7884 187.417 36.1699C187 35.5514 186.792 34.6383 186.792 33.4307C186.792 32.1709 186.995 31.2432 187.402 30.6475C187.809 30.0485 188.436 29.749 189.282 29.749C190.106 29.749 190.728 30.0615 191.147 30.6865C191.571 31.3115 191.782 32.2262 191.782 33.4307ZM188.291 33.4307C188.291 34.3063 188.366 34.9346 188.516 35.3154C188.669 35.693 188.924 35.8818 189.282 35.8818C189.634 35.8818 189.888 35.6898 190.044 35.3057C190.2 34.9215 190.278 34.2965 190.278 33.4307C190.278 32.555 190.199 31.9268 190.039 31.5459C189.883 31.1618 189.631 30.9697 189.282 30.9697C188.927 30.9697 188.674 31.1618 188.521 31.5459C188.368 31.9268 188.291 32.555 188.291 33.4307ZM197.495 33.4307C197.495 34.6774 197.29 35.6003 196.88 36.1992C196.473 36.7982 195.845 37.0977 194.995 37.0977C194.172 37.0977 193.55 36.7884 193.13 36.1699C192.713 35.5514 192.505 34.6383 192.505 33.4307C192.505 32.1709 192.708 31.2432 193.115 30.6475C193.522 30.0485 194.149 29.749 194.995 29.749C195.819 29.749 196.44 30.0615 196.86 30.6865C197.284 31.3115 197.495 32.2262 197.495 33.4307ZM194.004 33.4307C194.004 34.3063 194.079 34.9346 194.229 35.3154C194.382 35.693 194.637 35.8818 194.995 35.8818C195.347 35.8818 195.601 35.6898 195.757 35.3057C195.913 34.9215 195.991 34.2965 195.991 33.4307C195.991 32.555 195.911 31.9268 195.752 31.5459C195.596 31.1618 195.343 30.9697 194.995 30.9697C194.64 30.9697 194.386 31.1618 194.233 31.5459C194.08 31.9268 194.004 32.555 194.004 33.4307ZM203.208 33.4307C203.208 34.6774 203.003 35.6003 202.593 36.1992C202.186 36.7982 201.558 37.0977 200.708 37.0977C199.884 37.0977 199.263 36.7884 198.843 36.1699C198.426 35.5514 198.218 34.6383 198.218 33.4307C198.218 32.1709 198.421 31.2432 198.828 30.6475C199.235 30.0485 199.862 29.749 200.708 29.749C201.532 29.749 202.153 30.0615 202.573 30.6865C202.996 31.3115 203.208 32.2262 203.208 33.4307ZM199.717 33.4307C199.717 34.3063 199.792 34.9346 199.941 35.3154C200.094 35.693 200.35 35.8818 200.708 35.8818C201.06 35.8818 201.313 35.6898 201.47 35.3057C201.626 34.9215 201.704 34.2965 201.704 33.4307C201.704 32.555 201.624 31.9268 201.465 31.5459C201.309 31.1618 201.056 30.9697 200.708 30.9697C200.353 30.9697 200.099 31.1618 199.946 31.5459C199.793 31.9268 199.717 32.555 199.717 33.4307ZM207.49 31.0186C207.093 31.0186 206.766 31.1341 206.509 31.3652C206.252 31.5931 206.086 31.9251 206.011 32.3613H207.979V33.2207H205.938L205.928 33.3916V33.6211L205.938 33.7822H207.671V34.6514H206.021C206.187 35.4424 206.709 35.8379 207.588 35.8379C208.053 35.8379 208.501 35.7451 208.931 35.5596V36.8096C208.553 37.0016 208.076 37.0977 207.5 37.0977C206.702 37.0977 206.047 36.8812 205.532 36.4482C205.018 36.0153 204.694 35.4163 204.561 34.6514H203.892V33.7822H204.468C204.455 33.7074 204.448 33.6064 204.448 33.4795L204.458 33.2207H203.892V32.3613H204.541C204.661 31.5736 204.985 30.9518 205.513 30.4961C206.04 30.0371 206.699 29.8076 207.49 29.8076C208.102 29.8076 208.675 29.9411 209.209 30.208L208.73 31.3408C208.506 31.2399 208.296 31.1618 208.101 31.1064C207.905 31.0479 207.702 31.0186 207.49 31.0186Z" fill="#F8FDFC"/>
<path d="M92.3216 65.5652L87 56H127.318L133 65.5652L127.318 76H87L92.3216 65.5652Z" fill="#C4C4C4"/>
<path d="M135.206 65.5652L130 56H169.441L175 65.5652L169.441 76H130L135.206 65.5652Z" fill="#C4C4C4"/>
<path d="M177.9 65.5652L172 56H216.7L223 65.5652L216.7 76H172L177.9 65.5652Z" fill="#C4C4C4"/>
<path d="M220.322 65.5652L215 56H255.318L261 65.5652L255.318 76H215L220.322 65.5652Z" fill="#C4C4C4"/>
<path d="M263.322 65.5652L258 56H298.318L304 65.5652L298.318 76H258L263.322 65.5652Z" fill="#C4C4C4"/>
<path d="M128.871 59.8832C130.596 58.0347 132.274 54.329 130.657 52.0503C129.523 50.4451 127.294 50.2618 124.035 49.9763C122.916 49.8785 121.473 49.761 119.637 50.1479C118.122 50.4572 114.647 51.1725 114.222 53.0354C113.772 54.9687 116.622 58.0551 119.588 58.8427C121.012 59.2253 122.506 59.0838 123.809 60.3241C124.491 60.9824 124.58 61.4832 125.206 61.7007C126.644 62.1826 128.499 60.284 128.871 59.8832Z" fill="#C4C4C4" stroke="#C4C4C4" stroke-width="0.230003" stroke-miterlimit="10"/>
<path d="M168.871 59.8832C170.596 58.0347 172.274 54.329 170.657 52.0503C169.523 50.4451 167.294 50.2618 164.035 49.9763C162.916 49.8785 161.473 49.761 159.637 50.1479C158.122 50.4572 154.647 51.1725 154.222 53.0354C153.772 54.9687 156.622 58.0551 159.588 58.8427C161.012 59.2253 162.506 59.0838 163.809 60.3241C164.491 60.9824 164.58 61.4832 165.206 61.7007C166.644 62.1826 168.499 60.284 168.871 59.8832Z" fill="#C4C4C4" stroke="#C4C4C4" stroke-width="0.230003" stroke-miterlimit="10"/>
<path d="M256.871 59.8832C258.596 58.0347 260.274 54.329 258.657 52.0503C257.523 50.4451 255.294 50.2618 252.035 49.9763C250.916 49.8785 249.473 49.761 247.637 50.1479C246.122 50.4572 242.647 51.1725 242.222 53.0354C241.772 54.9687 244.622 58.0551 247.588 58.8427C249.012 59.2253 250.506 59.0838 251.809 60.3241C252.491 60.9824 252.58 61.4832 253.206 61.7007C254.644 62.1826 256.499 60.284 256.871 59.8832Z" fill="#C4C4C4" stroke="#C4C4C4" stroke-width="0.230003" stroke-miterlimit="10"/>
<path d="M300.871 59.8832C302.596 58.0347 304.274 54.329 302.657 52.0503C301.523 50.4451 299.294 50.2618 296.035 49.9763C294.916 49.8785 293.473 49.761 291.637 50.1479C290.122 50.4572 286.647 51.1725 286.222 53.0354C285.772 54.9687 288.622 58.0551 291.588 58.8427C293.012 59.2253 294.506 59.0838 295.809 60.3241C296.491 60.9824 296.58 61.4832 297.206 61.7007C298.644 62.1826 300.499 60.284 300.871 59.8832Z" fill="#C4C4C4" stroke="#C4C4C4" stroke-width="0.230003" stroke-miterlimit="10"/>
<path d="M104.187 64.458C104.187 64.904 104.051 65.2832 103.781 65.5957C103.511 65.9082 103.132 66.123 102.644 66.2402V66.2695C103.22 66.3411 103.656 66.5169 103.952 66.7969C104.248 67.0736 104.396 67.4479 104.396 67.9199C104.396 68.6068 104.147 69.1423 103.649 69.5264C103.151 69.9072 102.44 70.0977 101.516 70.0977C100.741 70.0977 100.054 69.9691 99.4551 69.7119V68.4277C99.7318 68.5677 100.036 68.6816 100.368 68.7695C100.7 68.8574 101.029 68.9014 101.354 68.9014C101.853 68.9014 102.22 68.8167 102.458 68.6475C102.696 68.4782 102.814 68.2064 102.814 67.832C102.814 67.4967 102.678 67.2591 102.404 67.1191C102.131 66.9792 101.695 66.9092 101.096 66.9092H100.554V65.752H101.105C101.659 65.752 102.062 65.6803 102.316 65.5371C102.574 65.3906 102.702 65.1416 102.702 64.79C102.702 64.2497 102.364 63.9795 101.687 63.9795C101.452 63.9795 101.213 64.0186 100.969 64.0967C100.728 64.1748 100.459 64.3099 100.163 64.502L99.4648 63.4619C100.116 62.9932 100.892 62.7588 101.794 62.7588C102.533 62.7588 103.116 62.9085 103.542 63.208C103.972 63.5075 104.187 63.9242 104.187 64.458ZM110.139 66.4307C110.139 67.6774 109.934 68.6003 109.523 69.1992C109.117 69.7982 108.488 70.0977 107.639 70.0977C106.815 70.0977 106.193 69.7884 105.773 69.1699C105.357 68.5514 105.148 67.6383 105.148 66.4307C105.148 65.1709 105.352 64.2432 105.759 63.6475C106.166 63.0485 106.792 62.749 107.639 62.749C108.462 62.749 109.084 63.0615 109.504 63.6865C109.927 64.3115 110.139 65.2262 110.139 66.4307ZM106.647 66.4307C106.647 67.3063 106.722 67.9346 106.872 68.3154C107.025 68.693 107.281 68.8818 107.639 68.8818C107.99 68.8818 108.244 68.6898 108.4 68.3057C108.557 67.9215 108.635 67.2965 108.635 66.4307C108.635 65.555 108.555 64.9268 108.396 64.5459C108.239 64.1618 107.987 63.9697 107.639 63.9697C107.284 63.9697 107.03 64.1618 106.877 64.5459C106.724 64.9268 106.647 65.555 106.647 66.4307ZM115.852 66.4307C115.852 67.6774 115.646 68.6003 115.236 69.1992C114.829 69.7982 114.201 70.0977 113.352 70.0977C112.528 70.0977 111.906 69.7884 111.486 69.1699C111.07 68.5514 110.861 67.6383 110.861 66.4307C110.861 65.1709 111.065 64.2432 111.472 63.6475C111.879 63.0485 112.505 62.749 113.352 62.749C114.175 62.749 114.797 63.0615 115.217 63.6865C115.64 64.3115 115.852 65.2262 115.852 66.4307ZM112.36 66.4307C112.36 67.3063 112.435 67.9346 112.585 68.3154C112.738 68.693 112.993 68.8818 113.352 68.8818C113.703 68.8818 113.957 68.6898 114.113 68.3057C114.27 67.9215 114.348 67.2965 114.348 66.4307C114.348 65.555 114.268 64.9268 114.108 64.5459C113.952 64.1618 113.7 63.9697 113.352 63.9697C112.997 63.9697 112.743 64.1618 112.59 64.5459C112.437 64.9268 112.36 65.555 112.36 66.4307ZM120.134 64.0186C119.737 64.0186 119.41 64.1341 119.152 64.3652C118.895 64.5931 118.729 64.9251 118.654 65.3613H120.622V66.2207H118.581L118.571 66.3916V66.6211L118.581 66.7822H120.314V67.6514H118.664C118.83 68.4424 119.353 68.8379 120.231 68.8379C120.697 68.8379 121.145 68.7451 121.574 68.5596V69.8096C121.197 70.0016 120.72 70.0977 120.144 70.0977C119.346 70.0977 118.69 69.8812 118.176 69.4482C117.661 69.0153 117.338 68.4163 117.204 67.6514H116.535V66.7822H117.111C117.098 66.7074 117.092 66.6064 117.092 66.4795L117.102 66.2207H116.535V65.3613H117.185C117.305 64.5736 117.629 63.9518 118.156 63.4961C118.684 63.0371 119.343 62.8076 120.134 62.8076C120.746 62.8076 121.319 62.9411 121.853 63.208L121.374 64.3408C121.149 64.2399 120.939 64.1618 120.744 64.1064C120.549 64.0479 120.345 64.0186 120.134 64.0186Z" fill="#FEFFFF"/>
<path d="M144.072 65.4395C144.762 65.4395 145.311 65.6331 145.718 66.0205C146.128 66.4079 146.333 66.9385 146.333 67.6123C146.333 68.4098 146.087 69.0234 145.596 69.4531C145.104 69.8828 144.401 70.0977 143.486 70.0977C142.692 70.0977 142.051 69.9691 141.562 69.7119V68.4082C141.82 68.5449 142.119 68.6572 142.461 68.7451C142.803 68.8298 143.127 68.8721 143.433 68.8721C144.354 68.8721 144.814 68.4945 144.814 67.7393C144.814 67.0199 144.338 66.6602 143.384 66.6602C143.211 66.6602 143.021 66.6781 142.812 66.7139C142.604 66.7464 142.435 66.7822 142.305 66.8213L141.704 66.499L141.973 62.8613H145.845V64.1406H143.296L143.164 65.542L143.335 65.5078C143.534 65.4622 143.779 65.4395 144.072 65.4395ZM152.139 66.4307C152.139 67.6774 151.934 68.6003 151.523 69.1992C151.117 69.7982 150.488 70.0977 149.639 70.0977C148.815 70.0977 148.193 69.7884 147.773 69.1699C147.357 68.5514 147.148 67.6383 147.148 66.4307C147.148 65.1709 147.352 64.2432 147.759 63.6475C148.166 63.0485 148.792 62.749 149.639 62.749C150.462 62.749 151.084 63.0615 151.504 63.6865C151.927 64.3115 152.139 65.2262 152.139 66.4307ZM148.647 66.4307C148.647 67.3063 148.722 67.9346 148.872 68.3154C149.025 68.693 149.281 68.8818 149.639 68.8818C149.99 68.8818 150.244 68.6898 150.4 68.3057C150.557 67.9215 150.635 67.2965 150.635 66.4307C150.635 65.555 150.555 64.9268 150.396 64.5459C150.239 64.1618 149.987 63.9697 149.639 63.9697C149.284 63.9697 149.03 64.1618 148.877 64.5459C148.724 64.9268 148.647 65.555 148.647 66.4307ZM157.852 66.4307C157.852 67.6774 157.646 68.6003 157.236 69.1992C156.829 69.7982 156.201 70.0977 155.352 70.0977C154.528 70.0977 153.906 69.7884 153.486 69.1699C153.07 68.5514 152.861 67.6383 152.861 66.4307C152.861 65.1709 153.065 64.2432 153.472 63.6475C153.879 63.0485 154.505 62.749 155.352 62.749C156.175 62.749 156.797 63.0615 157.217 63.6865C157.64 64.3115 157.852 65.2262 157.852 66.4307ZM154.36 66.4307C154.36 67.3063 154.435 67.9346 154.585 68.3154C154.738 68.693 154.993 68.8818 155.352 68.8818C155.703 68.8818 155.957 68.6898 156.113 68.3057C156.27 67.9215 156.348 67.2965 156.348 66.4307C156.348 65.555 156.268 64.9268 156.108 64.5459C155.952 64.1618 155.7 63.9697 155.352 63.9697C154.997 63.9697 154.743 64.1618 154.59 64.5459C154.437 64.9268 154.36 65.555 154.36 66.4307ZM162.134 64.0186C161.737 64.0186 161.41 64.1341 161.152 64.3652C160.895 64.5931 160.729 64.9251 160.654 65.3613H162.622V66.2207H160.581L160.571 66.3916V66.6211L160.581 66.7822H162.314V67.6514H160.664C160.83 68.4424 161.353 68.8379 162.231 68.8379C162.697 68.8379 163.145 68.7451 163.574 68.5596V69.8096C163.197 70.0016 162.72 70.0977 162.144 70.0977C161.346 70.0977 160.69 69.8812 160.176 69.4482C159.661 69.0153 159.338 68.4163 159.204 67.6514H158.535V66.7822H159.111C159.098 66.7074 159.092 66.6064 159.092 66.4795L159.102 66.2207H158.535V65.3613H159.185C159.305 64.5736 159.629 63.9518 160.156 63.4961C160.684 63.0371 161.343 62.8076 162.134 62.8076C162.746 62.8076 163.319 62.9411 163.853 63.208L163.374 64.3408C163.149 64.2399 162.939 64.1618 162.744 64.1064C162.549 64.0479 162.345 64.0186 162.134 64.0186Z" fill="#FAFFFE"/>
<path d="M227.849 70H226.34V65.8691L226.354 65.1904L226.379 64.4482C226.128 64.6989 225.954 64.8633 225.856 64.9414L225.036 65.6006L224.309 64.6924L226.608 62.8613H227.849V70ZM234.782 66.4307C234.782 67.6774 234.577 68.6003 234.167 69.1992C233.76 69.7982 233.132 70.0977 232.282 70.0977C231.459 70.0977 230.837 69.7884 230.417 69.1699C230 68.5514 229.792 67.6383 229.792 66.4307C229.792 65.1709 229.995 64.2432 230.402 63.6475C230.809 63.0485 231.436 62.749 232.282 62.749C233.106 62.749 233.728 63.0615 234.147 63.6865C234.571 64.3115 234.782 65.2262 234.782 66.4307ZM231.291 66.4307C231.291 67.3063 231.366 67.9346 231.516 68.3154C231.669 68.693 231.924 68.8818 232.282 68.8818C232.634 68.8818 232.888 68.6898 233.044 68.3057C233.2 67.9215 233.278 67.2965 233.278 66.4307C233.278 65.555 233.199 64.9268 233.039 64.5459C232.883 64.1618 232.631 63.9697 232.282 63.9697C231.927 63.9697 231.674 64.1618 231.521 64.5459C231.368 64.9268 231.291 65.555 231.291 66.4307ZM240.495 66.4307C240.495 67.6774 240.29 68.6003 239.88 69.1992C239.473 69.7982 238.845 70.0977 237.995 70.0977C237.172 70.0977 236.55 69.7884 236.13 69.1699C235.713 68.5514 235.505 67.6383 235.505 66.4307C235.505 65.1709 235.708 64.2432 236.115 63.6475C236.522 63.0485 237.149 62.749 237.995 62.749C238.819 62.749 239.44 63.0615 239.86 63.6865C240.284 64.3115 240.495 65.2262 240.495 66.4307ZM237.004 66.4307C237.004 67.3063 237.079 67.9346 237.229 68.3154C237.382 68.693 237.637 68.8818 237.995 68.8818C238.347 68.8818 238.601 68.6898 238.757 68.3057C238.913 67.9215 238.991 67.2965 238.991 66.4307C238.991 65.555 238.911 64.9268 238.752 64.5459C238.596 64.1618 238.343 63.9697 237.995 63.9697C237.64 63.9697 237.386 64.1618 237.233 64.5459C237.08 64.9268 237.004 65.555 237.004 66.4307ZM246.208 66.4307C246.208 67.6774 246.003 68.6003 245.593 69.1992C245.186 69.7982 244.558 70.0977 243.708 70.0977C242.884 70.0977 242.263 69.7884 241.843 69.1699C241.426 68.5514 241.218 67.6383 241.218 66.4307C241.218 65.1709 241.421 64.2432 241.828 63.6475C242.235 63.0485 242.862 62.749 243.708 62.749C244.532 62.749 245.153 63.0615 245.573 63.6865C245.996 64.3115 246.208 65.2262 246.208 66.4307ZM242.717 66.4307C242.717 67.3063 242.792 67.9346 242.941 68.3154C243.094 68.693 243.35 68.8818 243.708 68.8818C244.06 68.8818 244.313 68.6898 244.47 68.3057C244.626 67.9215 244.704 67.2965 244.704 66.4307C244.704 65.555 244.624 64.9268 244.465 64.5459C244.309 64.1618 244.056 63.9697 243.708 63.9697C243.353 63.9697 243.099 64.1618 242.946 64.5459C242.793 64.9268 242.717 65.555 242.717 66.4307ZM250.49 64.0186C250.093 64.0186 249.766 64.1341 249.509 64.3652C249.252 64.5931 249.086 64.9251 249.011 65.3613H250.979V66.2207H248.938L248.928 66.3916V66.6211L248.938 66.7822H250.671V67.6514H249.021C249.187 68.4424 249.709 68.8379 250.588 68.8379C251.053 68.8379 251.501 68.7451 251.931 68.5596V69.8096C251.553 70.0016 251.076 70.0977 250.5 70.0977C249.702 70.0977 249.047 69.8812 248.532 69.4482C248.018 69.0153 247.694 68.4163 247.561 67.6514H246.892V66.7822H247.468C247.455 66.7074 247.448 66.6064 247.448 66.4795L247.458 66.2207H246.892V65.3613H247.541C247.661 64.5736 247.985 63.9518 248.513 63.4961C249.04 63.0371 249.699 62.8076 250.49 62.8076C251.102 62.8076 251.675 62.9411 252.209 63.208L251.73 64.3408C251.506 64.2399 251.296 64.1618 251.101 64.1064C250.905 64.0479 250.702 64.0186 250.49 64.0186Z" fill="#F8FDFC"/>
<path d="M276.294 69.3018C276.294 69.0283 276.367 68.8216 276.514 68.6816C276.66 68.5417 276.873 68.4717 277.153 68.4717C277.424 68.4717 277.632 68.5433 277.778 68.6865C277.928 68.8298 278.003 69.0348 278.003 69.3018C278.003 69.5589 277.928 69.7624 277.778 69.9121C277.629 70.0586 277.42 70.1318 277.153 70.1318C276.88 70.1318 276.668 70.0602 276.519 69.917C276.369 69.7705 276.294 69.5654 276.294 69.3018ZM279.146 69.3018C279.146 69.0283 279.219 68.8216 279.365 68.6816C279.512 68.5417 279.725 68.4717 280.005 68.4717C280.275 68.4717 280.483 68.5433 280.63 68.6865C280.78 68.8298 280.854 69.0348 280.854 69.3018C280.854 69.5589 280.78 69.7624 280.63 69.9121C280.48 70.0586 280.272 70.1318 280.005 70.1318C279.731 70.1318 279.52 70.0602 279.37 69.917C279.22 69.7705 279.146 69.5654 279.146 69.3018ZM281.997 69.3018C281.997 69.0283 282.07 68.8216 282.217 68.6816C282.363 68.5417 282.576 68.4717 282.856 68.4717C283.127 68.4717 283.335 68.5433 283.481 68.6865C283.631 68.8298 283.706 69.0348 283.706 69.3018C283.706 69.5589 283.631 69.7624 283.481 69.9121C283.332 70.0586 283.123 70.1318 282.856 70.1318C282.583 70.1318 282.371 70.0602 282.222 69.917C282.072 69.7705 281.997 69.5654 281.997 69.3018Z" fill="#F8FDFC"/>
<path d="M297.167 54.5V53.5C297.167 52.6718 296.42 52 295.5 52C294.58 52 293.833 52.6718 293.833 53.5V54.5H293V58H298V54.5H297.167ZM295.778 56.4307V57H295.222V56.4307C295.057 56.344 294.944 56.1848 294.944 56C294.944 55.724 295.193 55.5 295.5 55.5C295.807 55.5 296.056 55.724 296.056 56C296.056 56.1845 295.943 56.344 295.778 56.4307ZM294.389 54.5V53.5C294.389 52.9485 294.887 52.5 295.5 52.5C296.113 52.5 296.611 52.9485 296.611 53.5V54.5H294.389Z" fill="#FAFFFE"/>
<path d="M92.3216 65.5652L87 56H127.318L133 65.5652L127.318 76H87L92.3216 65.5652Z" fill="#C4C4C4"/>
<path d="M135.206 65.5652L130 56H169.441L175 65.5652L169.441 76H130L135.206 65.5652Z" fill="#C4C4C4"/>
<path d="M220.322 65.5652L215 56H255.318L261 65.5652L255.318 76H215L220.322 65.5652Z" fill="#C4C4C4"/>
<path d="M263.322 65.5652L258 56H298.318L304 65.5652L298.318 76H258L263.322 65.5652Z" fill="#C4C4C4"/>
<path d="M128.871 59.8832C130.596 58.0347 132.274 54.329 130.657 52.0503C129.523 50.4451 127.294 50.2618 124.035 49.9763C122.916 49.8785 121.473 49.761 119.637 50.1479C118.122 50.4572 114.647 51.1725 114.222 53.0354C113.772 54.9687 116.622 58.0551 119.588 58.8427C121.012 59.2253 122.506 59.0838 123.809 60.3241C124.491 60.9824 124.58 61.4832 125.206 61.7007C126.644 62.1826 128.499 60.284 128.871 59.8832Z" fill="#C4C4C4" stroke="black" stroke-width="0.230003" stroke-miterlimit="10"/>
<path d="M168.871 59.8832C170.596 58.0347 172.274 54.329 170.657 52.0503C169.523 50.4451 167.294 50.2618 164.035 49.9763C162.916 49.8785 161.473 49.761 159.637 50.1479C158.122 50.4572 154.647 51.1725 154.222 53.0354C153.772 54.9687 156.622 58.0551 159.588 58.8427C161.012 59.2253 162.506 59.0838 163.809 60.3241C164.491 60.9824 164.58 61.4832 165.206 61.7007C166.644 62.1826 168.499 60.284 168.871 59.8832Z" fill="#C4C4C4" stroke="black" stroke-width="0.230003" stroke-miterlimit="10"/>
<path d="M256.871 59.8832C258.596 58.0347 260.274 54.329 258.657 52.0503C257.523 50.4451 255.294 50.2618 252.035 49.9763C250.916 49.8785 249.473 49.761 247.637 50.1479C246.122 50.4572 242.647 51.1725 242.222 53.0354C241.772 54.9687 244.622 58.0551 247.588 58.8427C249.012 59.2253 250.506 59.0838 251.809 60.3241C252.491 60.9824 252.58 61.4832 253.206 61.7007C254.644 62.1826 256.499 60.284 256.871 59.8832Z" fill="#C4C4C4" stroke="black" stroke-width="0.230003" stroke-miterlimit="10"/>
<path d="M300.871 59.8832C302.596 58.0347 304.274 54.329 302.657 52.0503C301.523 50.4451 299.294 50.2618 296.035 49.9763C294.916 49.8785 293.473 49.761 291.637 50.1479C290.122 50.4572 286.647 51.1725 286.222 53.0354C285.772 54.9687 288.622 58.0551 291.588 58.8427C293.012 59.2253 294.506 59.0838 295.809 60.3241C296.491 60.9824 296.58 61.4832 297.206 61.7007C298.644 62.1826 300.499 60.284 300.871 59.8832Z" fill="#C4C4C4" stroke="black" stroke-width="0.230003" stroke-miterlimit="10"/>
<path d="M99.2158 65.4395C99.9059 65.4395 100.454 65.6331 100.861 66.0205C101.271 66.4079 101.477 66.9385 101.477 67.6123C101.477 68.4098 101.231 69.0234 100.739 69.4531C100.248 69.8828 99.5446 70.0977 98.6299 70.0977C97.8356 70.0977 97.1943 69.9691 96.7061 69.7119V68.4082C96.9632 68.5449 97.2627 68.6572 97.6045 68.7451C97.9463 68.8298 98.2702 68.8721 98.5762 68.8721C99.4974 68.8721 99.958 68.4945 99.958 67.7393C99.958 67.0199 99.4811 66.6602 98.5273 66.6602C98.3548 66.6602 98.1644 66.6781 97.9561 66.7139C97.7477 66.7464 97.5785 66.7822 97.4482 66.8213L96.8477 66.499L97.1162 62.8613H100.988V64.1406H98.4395L98.3076 65.542L98.4785 65.5078C98.6771 65.4622 98.9229 65.4395 99.2158 65.4395ZM107.282 66.4307C107.282 67.6774 107.077 68.6003 106.667 69.1992C106.26 69.7982 105.632 70.0977 104.782 70.0977C103.959 70.0977 103.337 69.7884 102.917 69.1699C102.5 68.5514 102.292 67.6383 102.292 66.4307C102.292 65.1709 102.495 64.2432 102.902 63.6475C103.309 63.0485 103.936 62.749 104.782 62.749C105.606 62.749 106.228 63.0615 106.647 63.6865C107.071 64.3115 107.282 65.2262 107.282 66.4307ZM103.791 66.4307C103.791 67.3063 103.866 67.9346 104.016 68.3154C104.169 68.693 104.424 68.8818 104.782 68.8818C105.134 68.8818 105.388 68.6898 105.544 68.3057C105.7 67.9215 105.778 67.2965 105.778 66.4307C105.778 65.555 105.699 64.9268 105.539 64.5459C105.383 64.1618 105.131 63.9697 104.782 63.9697C104.427 63.9697 104.174 64.1618 104.021 64.5459C103.868 64.9268 103.791 65.555 103.791 66.4307ZM112.995 66.4307C112.995 67.6774 112.79 68.6003 112.38 69.1992C111.973 69.7982 111.345 70.0977 110.495 70.0977C109.672 70.0977 109.05 69.7884 108.63 69.1699C108.213 68.5514 108.005 67.6383 108.005 66.4307C108.005 65.1709 108.208 64.2432 108.615 63.6475C109.022 63.0485 109.649 62.749 110.495 62.749C111.319 62.749 111.94 63.0615 112.36 63.6865C112.784 64.3115 112.995 65.2262 112.995 66.4307ZM109.504 66.4307C109.504 67.3063 109.579 67.9346 109.729 68.3154C109.882 68.693 110.137 68.8818 110.495 68.8818C110.847 68.8818 111.101 68.6898 111.257 68.3057C111.413 67.9215 111.491 67.2965 111.491 66.4307C111.491 65.555 111.411 64.9268 111.252 64.5459C111.096 64.1618 110.843 63.9697 110.495 63.9697C110.14 63.9697 109.886 64.1618 109.733 64.5459C109.58 64.9268 109.504 65.555 109.504 66.4307ZM118.708 66.4307C118.708 67.6774 118.503 68.6003 118.093 69.1992C117.686 69.7982 117.058 70.0977 116.208 70.0977C115.384 70.0977 114.763 69.7884 114.343 69.1699C113.926 68.5514 113.718 67.6383 113.718 66.4307C113.718 65.1709 113.921 64.2432 114.328 63.6475C114.735 63.0485 115.362 62.749 116.208 62.749C117.032 62.749 117.653 63.0615 118.073 63.6865C118.496 64.3115 118.708 65.2262 118.708 66.4307ZM115.217 66.4307C115.217 67.3063 115.292 67.9346 115.441 68.3154C115.594 68.693 115.85 68.8818 116.208 68.8818C116.56 68.8818 116.813 68.6898 116.97 68.3057C117.126 67.9215 117.204 67.2965 117.204 66.4307C117.204 65.555 117.124 64.9268 116.965 64.5459C116.809 64.1618 116.556 63.9697 116.208 63.9697C115.853 63.9697 115.599 64.1618 115.446 64.5459C115.293 64.9268 115.217 65.555 115.217 66.4307ZM122.99 64.0186C122.593 64.0186 122.266 64.1341 122.009 64.3652C121.752 64.5931 121.586 64.9251 121.511 65.3613H123.479V66.2207H121.438L121.428 66.3916V66.6211L121.438 66.7822H123.171V67.6514H121.521C121.687 68.4424 122.209 68.8379 123.088 68.8379C123.553 68.8379 124.001 68.7451 124.431 68.5596V69.8096C124.053 70.0016 123.576 70.0977 123 70.0977C122.202 70.0977 121.547 69.8812 121.032 69.4482C120.518 69.0153 120.194 68.4163 120.061 67.6514H119.392V66.7822H119.968C119.955 66.7074 119.948 66.6064 119.948 66.4795L119.958 66.2207H119.392V65.3613H120.041C120.161 64.5736 120.485 63.9518 121.013 63.4961C121.54 63.0371 122.199 62.8076 122.99 62.8076C123.602 62.8076 124.175 62.9411 124.709 63.208L124.23 64.3408C124.006 64.2399 123.796 64.1618 123.601 64.1064C123.405 64.0479 123.202 64.0186 122.99 64.0186Z" fill="#FEFFFF"/>
<path d="M139.326 70L142.007 64.1406H138.486V62.8711H143.608V63.8184L140.908 70H139.326ZM146.929 65.4395C147.619 65.4395 148.167 65.6331 148.574 66.0205C148.984 66.4079 149.189 66.9385 149.189 67.6123C149.189 68.4098 148.944 69.0234 148.452 69.4531C147.961 69.8828 147.257 70.0977 146.343 70.0977C145.549 70.0977 144.907 69.9691 144.419 69.7119V68.4082C144.676 68.5449 144.976 68.6572 145.317 68.7451C145.659 68.8298 145.983 68.8721 146.289 68.8721C147.21 68.8721 147.671 68.4945 147.671 67.7393C147.671 67.0199 147.194 66.6602 146.24 66.6602C146.068 66.6602 145.877 66.6781 145.669 66.7139C145.461 66.7464 145.291 66.7822 145.161 66.8213L144.561 66.499L144.829 62.8613H148.701V64.1406H146.152L146.021 65.542L146.191 65.5078C146.39 65.4622 146.636 65.4395 146.929 65.4395ZM154.995 66.4307C154.995 67.6774 154.79 68.6003 154.38 69.1992C153.973 69.7982 153.345 70.0977 152.495 70.0977C151.672 70.0977 151.05 69.7884 150.63 69.1699C150.213 68.5514 150.005 67.6383 150.005 66.4307C150.005 65.1709 150.208 64.2432 150.615 63.6475C151.022 63.0485 151.649 62.749 152.495 62.749C153.319 62.749 153.94 63.0615 154.36 63.6865C154.784 64.3115 154.995 65.2262 154.995 66.4307ZM151.504 66.4307C151.504 67.3063 151.579 67.9346 151.729 68.3154C151.882 68.693 152.137 68.8818 152.495 68.8818C152.847 68.8818 153.101 68.6898 153.257 68.3057C153.413 67.9215 153.491 67.2965 153.491 66.4307C153.491 65.555 153.411 64.9268 153.252 64.5459C153.096 64.1618 152.843 63.9697 152.495 63.9697C152.14 63.9697 151.886 64.1618 151.733 64.5459C151.58 64.9268 151.504 65.555 151.504 66.4307ZM160.708 66.4307C160.708 67.6774 160.503 68.6003 160.093 69.1992C159.686 69.7982 159.058 70.0977 158.208 70.0977C157.384 70.0977 156.763 69.7884 156.343 69.1699C155.926 68.5514 155.718 67.6383 155.718 66.4307C155.718 65.1709 155.921 64.2432 156.328 63.6475C156.735 63.0485 157.362 62.749 158.208 62.749C159.032 62.749 159.653 63.0615 160.073 63.6865C160.496 64.3115 160.708 65.2262 160.708 66.4307ZM157.217 66.4307C157.217 67.3063 157.292 67.9346 157.441 68.3154C157.594 68.693 157.85 68.8818 158.208 68.8818C158.56 68.8818 158.813 68.6898 158.97 68.3057C159.126 67.9215 159.204 67.2965 159.204 66.4307C159.204 65.555 159.124 64.9268 158.965 64.5459C158.809 64.1618 158.556 63.9697 158.208 63.9697C157.853 63.9697 157.599 64.1618 157.446 64.5459C157.293 64.9268 157.217 65.555 157.217 66.4307ZM164.99 64.0186C164.593 64.0186 164.266 64.1341 164.009 64.3652C163.752 64.5931 163.586 64.9251 163.511 65.3613H165.479V66.2207H163.438L163.428 66.3916V66.6211L163.438 66.7822H165.171V67.6514H163.521C163.687 68.4424 164.209 68.8379 165.088 68.8379C165.553 68.8379 166.001 68.7451 166.431 68.5596V69.8096C166.053 70.0016 165.576 70.0977 165 70.0977C164.202 70.0977 163.547 69.8812 163.032 69.4482C162.518 69.0153 162.194 68.4163 162.061 67.6514H161.392V66.7822H161.968C161.955 66.7074 161.948 66.6064 161.948 66.4795L161.958 66.2207H161.392V65.3613H162.041C162.161 64.5736 162.485 63.9518 163.013 63.4961C163.54 63.0371 164.199 62.8076 164.99 62.8076C165.602 62.8076 166.175 62.9411 166.709 63.208L166.23 64.3408C166.006 64.2399 165.796 64.1618 165.601 64.1064C165.405 64.0479 165.202 64.0186 164.99 64.0186Z" fill="#FAFFFE"/>
<path d="M201.066 70H199.558V65.8691L199.572 65.1904L199.597 64.4482C199.346 64.6989 199.172 64.8633 199.074 64.9414L198.254 65.6006L197.526 64.6924L199.826 62.8613H201.066V70ZM208 66.4307C208 67.6774 207.795 68.6003 207.385 69.1992C206.978 69.7982 206.35 70.0977 205.5 70.0977C204.676 70.0977 204.055 69.7884 203.635 69.1699C203.218 68.5514 203.01 67.6383 203.01 66.4307C203.01 65.1709 203.213 64.2432 203.62 63.6475C204.027 63.0485 204.654 62.749 205.5 62.749C206.324 62.749 206.945 63.0615 207.365 63.6865C207.788 64.3115 208 65.2262 208 66.4307ZM204.509 66.4307C204.509 67.3063 204.584 67.9346 204.733 68.3154C204.886 68.693 205.142 68.8818 205.5 68.8818C205.852 68.8818 206.105 68.6898 206.262 68.3057C206.418 67.9215 206.496 67.2965 206.496 66.4307C206.496 65.555 206.416 64.9268 206.257 64.5459C206.101 64.1618 205.848 63.9697 205.5 63.9697C205.145 63.9697 204.891 64.1618 204.738 64.5459C204.585 64.9268 204.509 65.555 204.509 66.4307ZM208.933 69.3018C208.933 69.0283 209.006 68.8216 209.152 68.6816C209.299 68.5417 209.512 68.4717 209.792 68.4717C210.062 68.4717 210.271 68.5433 210.417 68.6865C210.567 68.8298 210.642 69.0348 210.642 69.3018C210.642 69.5589 210.567 69.7624 210.417 69.9121C210.267 70.0586 210.059 70.1318 209.792 70.1318C209.519 70.1318 209.307 70.0602 209.157 69.917C209.007 69.7705 208.933 69.5654 208.933 69.3018ZM216.564 66.4307C216.564 67.6774 216.359 68.6003 215.949 69.1992C215.542 69.7982 214.914 70.0977 214.064 70.0977C213.241 70.0977 212.619 69.7884 212.199 69.1699C211.783 68.5514 211.574 67.6383 211.574 66.4307C211.574 65.1709 211.778 64.2432 212.185 63.6475C212.591 63.0485 213.218 62.749 214.064 62.749C214.888 62.749 215.51 63.0615 215.93 63.6865C216.353 64.3115 216.564 65.2262 216.564 66.4307ZM213.073 66.4307C213.073 67.3063 213.148 67.9346 213.298 68.3154C213.451 68.693 213.706 68.8818 214.064 68.8818C214.416 68.8818 214.67 68.6898 214.826 68.3057C214.982 67.9215 215.061 67.2965 215.061 66.4307C215.061 65.555 214.981 64.9268 214.821 64.5459C214.665 64.1618 214.413 63.9697 214.064 63.9697C213.71 63.9697 213.456 64.1618 213.303 64.5459C213.15 64.9268 213.073 65.555 213.073 66.4307ZM222.277 66.4307C222.277 67.6774 222.072 68.6003 221.662 69.1992C221.255 69.7982 220.627 70.0977 219.777 70.0977C218.954 70.0977 218.332 69.7884 217.912 69.1699C217.495 68.5514 217.287 67.6383 217.287 66.4307C217.287 65.1709 217.491 64.2432 217.897 63.6475C218.304 63.0485 218.931 62.749 219.777 62.749C220.601 62.749 221.223 63.0615 221.643 63.6865C222.066 64.3115 222.277 65.2262 222.277 66.4307ZM218.786 66.4307C218.786 67.3063 218.861 67.9346 219.011 68.3154C219.164 68.693 219.419 68.8818 219.777 68.8818C220.129 68.8818 220.383 68.6898 220.539 68.3057C220.695 67.9215 220.773 67.2965 220.773 66.4307C220.773 65.555 220.694 64.9268 220.534 64.5459C220.378 64.1618 220.126 63.9697 219.777 63.9697C219.423 63.9697 219.169 64.1618 219.016 64.5459C218.863 64.9268 218.786 65.555 218.786 66.4307ZM227.99 66.4307C227.99 67.6774 227.785 68.6003 227.375 69.1992C226.968 69.7982 226.34 70.0977 225.49 70.0977C224.667 70.0977 224.045 69.7884 223.625 69.1699C223.208 68.5514 223 67.6383 223 66.4307C223 65.1709 223.203 64.2432 223.61 63.6475C224.017 63.0485 224.644 62.749 225.49 62.749C226.314 62.749 226.936 63.0615 227.355 63.6865C227.779 64.3115 227.99 65.2262 227.99 66.4307ZM224.499 66.4307C224.499 67.3063 224.574 67.9346 224.724 68.3154C224.877 68.693 225.132 68.8818 225.49 68.8818C225.842 68.8818 226.096 68.6898 226.252 68.3057C226.408 67.9215 226.486 67.2965 226.486 66.4307C226.486 65.555 226.407 64.9268 226.247 64.5459C226.091 64.1618 225.839 63.9697 225.49 63.9697C225.135 63.9697 224.882 64.1618 224.729 64.5459C224.576 64.9268 224.499 65.555 224.499 66.4307ZM232.272 64.0186C231.875 64.0186 231.548 64.1341 231.291 64.3652C231.034 64.5931 230.868 64.9251 230.793 65.3613H232.761V66.2207H230.72L230.71 66.3916V66.6211L230.72 66.7822H232.453V67.6514H230.803C230.969 68.4424 231.491 68.8379 232.37 68.8379C232.836 68.8379 233.283 68.7451 233.713 68.5596V69.8096C233.335 70.0016 232.858 70.0977 232.282 70.0977C231.485 70.0977 230.829 69.8812 230.314 69.4482C229.8 69.0153 229.476 68.4163 229.343 67.6514H228.674V66.7822H229.25C229.237 66.7074 229.23 66.6064 229.23 66.4795L229.24 66.2207H228.674V65.3613H229.323C229.444 64.5736 229.768 63.9518 230.295 63.4961C230.822 63.0371 231.481 62.8076 232.272 62.8076C232.884 62.8076 233.457 62.9411 233.991 63.208L233.513 64.3408C233.288 64.2399 233.078 64.1618 232.883 64.1064C232.688 64.0479 232.484 64.0186 232.272 64.0186Z" fill="#F8FDFC"/>
<path d="M276.294 69.3018C276.294 69.0283 276.367 68.8216 276.514 68.6816C276.66 68.5417 276.873 68.4717 277.153 68.4717C277.424 68.4717 277.632 68.5433 277.778 68.6865C277.928 68.8298 278.003 69.0348 278.003 69.3018C278.003 69.5589 277.928 69.7624 277.778 69.9121C277.629 70.0586 277.42 70.1318 277.153 70.1318C276.88 70.1318 276.668 70.0602 276.519 69.917C276.369 69.7705 276.294 69.5654 276.294 69.3018ZM279.146 69.3018C279.146 69.0283 279.219 68.8216 279.365 68.6816C279.512 68.5417 279.725 68.4717 280.005 68.4717C280.275 68.4717 280.483 68.5433 280.63 68.6865C280.78 68.8298 280.854 69.0348 280.854 69.3018C280.854 69.5589 280.78 69.7624 280.63 69.9121C280.48 70.0586 280.272 70.1318 280.005 70.1318C279.731 70.1318 279.52 70.0602 279.37 69.917C279.22 69.7705 279.146 69.5654 279.146 69.3018ZM281.997 69.3018C281.997 69.0283 282.07 68.8216 282.217 68.6816C282.363 68.5417 282.576 68.4717 282.856 68.4717C283.127 68.4717 283.335 68.5433 283.481 68.6865C283.631 68.8298 283.706 69.0348 283.706 69.3018C283.706 69.5589 283.631 69.7624 283.481 69.9121C283.332 70.0586 283.123 70.1318 282.856 70.1318C282.583 70.1318 282.371 70.0602 282.222 69.917C282.072 69.7705 281.997 69.5654 281.997 69.3018Z" fill="#F8FDFC"/>
<path d="M220.322 33.5652L215 24H255.318L261 33.5652L255.318 44H215L220.322 33.5652Z" fill="#C4C4C4"/>
<path d="M263.206 33.5652L258 24H297.441L303 33.5652L297.441 44H258L263.206 33.5652Z" fill="#C4C4C4"/>
<path d="M256.871 27.8832C258.596 26.0347 260.274 22.329 258.657 20.0503C257.523 18.4451 255.294 18.2618 252.035 17.9763C250.916 17.8785 249.473 17.761 247.637 18.1479C246.122 18.4572 242.647 19.1725 242.222 21.0354C241.772 22.9687 244.622 26.0551 247.588 26.8427C249.012 27.2253 250.506 27.0838 251.809 28.3241C252.491 28.9824 252.58 29.4832 253.206 29.7007C254.644 30.1826 256.499 28.284 256.871 27.8832Z" fill="#C4C4C4" stroke="#C4C4C4" stroke-width="0.230003" stroke-miterlimit="10"/>
<path d="M296.871 27.8832C298.596 26.0347 300.274 22.329 298.657 20.0503C297.523 18.4451 295.294 18.2618 292.035 17.9763C290.916 17.8785 289.473 17.761 287.637 18.1479C286.122 18.4572 282.647 19.1725 282.222 21.0354C281.772 22.9687 284.622 26.0551 287.588 26.8427C289.012 27.2253 290.506 27.0838 291.809 28.3241C292.491 28.9824 292.58 29.4832 293.206 29.7007C294.644 30.1826 296.499 28.284 296.871 27.8832Z" fill="#C4C4C4" stroke="#C4C4C4" stroke-width="0.230003" stroke-miterlimit="10"/>
<path d="M232.187 32.458C232.187 32.904 232.051 33.2832 231.781 33.5957C231.511 33.9082 231.132 34.123 230.644 34.2402V34.2695C231.22 34.3411 231.656 34.5169 231.952 34.7969C232.248 35.0736 232.396 35.4479 232.396 35.9199C232.396 36.6068 232.147 37.1423 231.649 37.5264C231.151 37.9072 230.44 38.0977 229.516 38.0977C228.741 38.0977 228.054 37.9691 227.455 37.7119V36.4277C227.732 36.5677 228.036 36.6816 228.368 36.7695C228.7 36.8574 229.029 36.9014 229.354 36.9014C229.853 36.9014 230.22 36.8167 230.458 36.6475C230.696 36.4782 230.814 36.2064 230.814 35.832C230.814 35.4967 230.678 35.2591 230.404 35.1191C230.131 34.9792 229.695 34.9092 229.096 34.9092H228.554V33.752H229.105C229.659 33.752 230.062 33.6803 230.316 33.5371C230.574 33.3906 230.702 33.1416 230.702 32.79C230.702 32.2497 230.364 31.9795 229.687 31.9795C229.452 31.9795 229.213 32.0186 228.969 32.0967C228.728 32.1748 228.459 32.3099 228.163 32.502L227.465 31.4619C228.116 30.9932 228.892 30.7588 229.794 30.7588C230.533 30.7588 231.116 30.9085 231.542 31.208C231.972 31.5075 232.187 31.9242 232.187 32.458ZM238.139 34.4307C238.139 35.6774 237.934 36.6003 237.523 37.1992C237.117 37.7982 236.488 38.0977 235.639 38.0977C234.815 38.0977 234.193 37.7884 233.773 37.1699C233.357 36.5514 233.148 35.6383 233.148 34.4307C233.148 33.1709 233.352 32.2432 233.759 31.6475C234.166 31.0485 234.792 30.749 235.639 30.749C236.462 30.749 237.084 31.0615 237.504 31.6865C237.927 32.3115 238.139 33.2262 238.139 34.4307ZM234.647 34.4307C234.647 35.3063 234.722 35.9346 234.872 36.3154C235.025 36.693 235.281 36.8818 235.639 36.8818C235.99 36.8818 236.244 36.6898 236.4 36.3057C236.557 35.9215 236.635 35.2965 236.635 34.4307C236.635 33.555 236.555 32.9268 236.396 32.5459C236.239 32.1618 235.987 31.9697 235.639 31.9697C235.284 31.9697 235.03 32.1618 234.877 32.5459C234.724 32.9268 234.647 33.555 234.647 34.4307ZM243.852 34.4307C243.852 35.6774 243.646 36.6003 243.236 37.1992C242.829 37.7982 242.201 38.0977 241.352 38.0977C240.528 38.0977 239.906 37.7884 239.486 37.1699C239.07 36.5514 238.861 35.6383 238.861 34.4307C238.861 33.1709 239.065 32.2432 239.472 31.6475C239.879 31.0485 240.505 30.749 241.352 30.749C242.175 30.749 242.797 31.0615 243.217 31.6865C243.64 32.3115 243.852 33.2262 243.852 34.4307ZM240.36 34.4307C240.36 35.3063 240.435 35.9346 240.585 36.3154C240.738 36.693 240.993 36.8818 241.352 36.8818C241.703 36.8818 241.957 36.6898 242.113 36.3057C242.27 35.9215 242.348 35.2965 242.348 34.4307C242.348 33.555 242.268 32.9268 242.108 32.5459C241.952 32.1618 241.7 31.9697 241.352 31.9697C240.997 31.9697 240.743 32.1618 240.59 32.5459C240.437 32.9268 240.36 33.555 240.36 34.4307ZM248.134 32.0186C247.737 32.0186 247.41 32.1341 247.152 32.3652C246.895 32.5931 246.729 32.9251 246.654 33.3613H248.622V34.2207H246.581L246.571 34.3916V34.6211L246.581 34.7822H248.314V35.6514H246.664C246.83 36.4424 247.353 36.8379 248.231 36.8379C248.697 36.8379 249.145 36.7451 249.574 36.5596V37.8096C249.197 38.0016 248.72 38.0977 248.144 38.0977C247.346 38.0977 246.69 37.8812 246.176 37.4482C245.661 37.0153 245.338 36.4163 245.204 35.6514H244.535V34.7822H245.111C245.098 34.7074 245.092 34.6064 245.092 34.4795L245.102 34.2207H244.535V33.3613H245.185C245.305 32.5736 245.629 31.9518 246.156 31.4961C246.684 31.0371 247.343 30.8076 248.134 30.8076C248.746 30.8076 249.319 30.9411 249.853 31.208L249.374 32.3408C249.149 32.2399 248.939 32.1618 248.744 32.1064C248.549 32.0479 248.345 32.0186 248.134 32.0186Z" fill="#FEFFFF"/>
<path d="M272.072 33.4395C272.762 33.4395 273.311 33.6331 273.718 34.0205C274.128 34.4079 274.333 34.9385 274.333 35.6123C274.333 36.4098 274.087 37.0234 273.596 37.4531C273.104 37.8828 272.401 38.0977 271.486 38.0977C270.692 38.0977 270.051 37.9691 269.562 37.7119V36.4082C269.82 36.5449 270.119 36.6572 270.461 36.7451C270.803 36.8298 271.127 36.8721 271.433 36.8721C272.354 36.8721 272.814 36.4945 272.814 35.7393C272.814 35.0199 272.338 34.6602 271.384 34.6602C271.211 34.6602 271.021 34.6781 270.812 34.7139C270.604 34.7464 270.435 34.7822 270.305 34.8213L269.704 34.499L269.973 30.8613H273.845V32.1406H271.296L271.164 33.542L271.335 33.5078C271.534 33.4622 271.779 33.4395 272.072 33.4395ZM280.139 34.4307C280.139 35.6774 279.934 36.6003 279.523 37.1992C279.117 37.7982 278.488 38.0977 277.639 38.0977C276.815 38.0977 276.193 37.7884 275.773 37.1699C275.357 36.5514 275.148 35.6383 275.148 34.4307C275.148 33.1709 275.352 32.2432 275.759 31.6475C276.166 31.0485 276.792 30.749 277.639 30.749C278.462 30.749 279.084 31.0615 279.504 31.6865C279.927 32.3115 280.139 33.2262 280.139 34.4307ZM276.647 34.4307C276.647 35.3063 276.722 35.9346 276.872 36.3154C277.025 36.693 277.281 36.8818 277.639 36.8818C277.99 36.8818 278.244 36.6898 278.4 36.3057C278.557 35.9215 278.635 35.2965 278.635 34.4307C278.635 33.555 278.555 32.9268 278.396 32.5459C278.239 32.1618 277.987 31.9697 277.639 31.9697C277.284 31.9697 277.03 32.1618 276.877 32.5459C276.724 32.9268 276.647 33.555 276.647 34.4307ZM285.852 34.4307C285.852 35.6774 285.646 36.6003 285.236 37.1992C284.829 37.7982 284.201 38.0977 283.352 38.0977C282.528 38.0977 281.906 37.7884 281.486 37.1699C281.07 36.5514 280.861 35.6383 280.861 34.4307C280.861 33.1709 281.065 32.2432 281.472 31.6475C281.879 31.0485 282.505 30.749 283.352 30.749C284.175 30.749 284.797 31.0615 285.217 31.6865C285.64 32.3115 285.852 33.2262 285.852 34.4307ZM282.36 34.4307C282.36 35.3063 282.435 35.9346 282.585 36.3154C282.738 36.693 282.993 36.8818 283.352 36.8818C283.703 36.8818 283.957 36.6898 284.113 36.3057C284.27 35.9215 284.348 35.2965 284.348 34.4307C284.348 33.555 284.268 32.9268 284.108 32.5459C283.952 32.1618 283.7 31.9697 283.352 31.9697C282.997 31.9697 282.743 32.1618 282.59 32.5459C282.437 32.9268 282.36 33.555 282.36 34.4307ZM290.134 32.0186C289.737 32.0186 289.41 32.1341 289.152 32.3652C288.895 32.5931 288.729 32.9251 288.654 33.3613H290.622V34.2207H288.581L288.571 34.3916V34.6211L288.581 34.7822H290.314V35.6514H288.664C288.83 36.4424 289.353 36.8379 290.231 36.8379C290.697 36.8379 291.145 36.7451 291.574 36.5596V37.8096C291.197 38.0016 290.72 38.0977 290.144 38.0977C289.346 38.0977 288.69 37.8812 288.176 37.4482C287.661 37.0153 287.338 36.4163 287.204 35.6514H286.535V34.7822H287.111C287.098 34.7074 287.092 34.6064 287.092 34.4795L287.102 34.2207H286.535V33.3613H287.185C287.305 32.5736 287.629 31.9518 288.156 31.4961C288.684 31.0371 289.343 30.8076 290.134 30.8076C290.746 30.8076 291.319 30.9411 291.853 31.208L291.374 32.3408C291.149 32.2399 290.939 32.1618 290.744 32.1064C290.549 32.0479 290.345 32.0186 290.134 32.0186Z" fill="#FAFFFE"/>
<path d="M220.322 33.5652L215 24H255.318L261 33.5652L255.318 44H215L220.322 33.5652Z" fill="#C4C4C4"/>
<path d="M263.206 33.5652L258 24H297.441L303 33.5652L297.441 44H258L263.206 33.5652Z" fill="#C4C4C4"/>
<path d="M5.32157 65.5652L0 56H40.3176L46 65.5652L40.3176 76H0L5.32157 65.5652Z" fill="#C4C4C4"/>
<path d="M48.3216 65.5652L43 56H83.3176L89 65.5652L83.3176 76H43L48.3216 65.5652Z" fill="#C4C4C4"/>
<path d="M256.871 27.8832C258.596 26.0347 260.274 22.329 258.657 20.0503C257.523 18.4451 255.294 18.2618 252.035 17.9763C250.916 17.8785 249.473 17.761 247.637 18.1479C246.122 18.4572 242.647 19.1725 242.222 21.0354C241.772 22.9687 244.622 26.0551 247.588 26.8427C249.012 27.2253 250.506 27.0838 251.809 28.3241C252.491 28.9824 252.58 29.4832 253.206 29.7007C254.644 30.1826 256.499 28.284 256.871 27.8832Z" fill="#C4C4C4" stroke="black" stroke-width="0.230003" stroke-miterlimit="10"/>
<path d="M296.871 27.8832C298.596 26.0347 300.274 22.329 298.657 20.0503C297.523 18.4451 295.294 18.2618 292.035 17.9763C290.916 17.8785 289.473 17.761 287.637 18.1479C286.122 18.4572 282.647 19.1725 282.222 21.0354C281.772 22.9687 284.622 26.0551 287.588 26.8427C289.012 27.2253 290.506 27.0838 291.809 28.3241C292.491 28.9824 292.58 29.4832 293.206 29.7007C294.644 30.1826 296.499 28.284 296.871 27.8832Z" fill="#C4C4C4" stroke="black" stroke-width="0.230003" stroke-miterlimit="10"/>
<path d="M40.8713 59.8832C42.5957 58.0347 44.2739 54.329 42.6573 52.0503C41.5233 50.4451 39.2942 50.2618 36.0347 49.9763C34.9158 49.8785 33.4726 49.761 31.6366 50.1479C30.122 50.4572 26.6473 51.1725 26.2219 53.0354C25.772 54.9687 28.622 58.0551 31.5876 58.8427C33.0125 59.2253 34.5057 59.0838 35.8087 60.3241C36.4911 60.9824 36.5803 61.4832 37.2057 61.7007C38.6441 62.1826 40.4985 60.284 40.8713 59.8832Z" fill="#C4C4C4" stroke="black" stroke-width="0.230003" stroke-miterlimit="10"/>
<path d="M84.8713 59.8832C86.5957 58.0347 88.2739 54.329 86.6573 52.0503C85.5233 50.4451 83.2942 50.2618 80.0347 49.9763C78.9158 49.8785 77.4726 49.761 75.6366 50.1479C74.122 50.4572 70.6473 51.1725 70.2219 53.0354C69.772 54.9687 72.622 58.0551 75.5876 58.8427C77.0125 59.2253 78.5057 59.0838 79.8087 60.3241C80.4911 60.9824 80.5803 61.4832 81.2057 61.7007C82.6441 62.1826 84.4985 60.284 84.8713 59.8832Z" fill="#C4C4C4" stroke="black" stroke-width="0.230003" stroke-miterlimit="10"/>
<path d="M228.349 38H226.84V33.8691L226.854 33.1904L226.879 32.4482C226.628 32.6989 226.454 32.8633 226.356 32.9414L225.536 33.6006L224.809 32.6924L227.108 30.8613H228.349V38ZM235.482 36.5205H234.623V38H233.148V36.5205H230.102V35.4707L233.231 30.8613H234.623V35.3486H235.482V36.5205ZM233.148 35.3486V34.1377C233.148 33.9359 233.157 33.6429 233.173 33.2588C233.189 32.8747 233.202 32.6517 233.212 32.5898H233.173C233.052 32.8568 232.908 33.1172 232.738 33.3711L231.43 35.3486H233.148ZM240.995 34.4307C240.995 35.6774 240.79 36.6003 240.38 37.1992C239.973 37.7982 239.345 38.0977 238.495 38.0977C237.672 38.0977 237.05 37.7884 236.63 37.1699C236.213 36.5514 236.005 35.6383 236.005 34.4307C236.005 33.1709 236.208 32.2432 236.615 31.6475C237.022 31.0485 237.649 30.749 238.495 30.749C239.319 30.749 239.94 31.0615 240.36 31.6865C240.784 32.3115 240.995 33.2262 240.995 34.4307ZM237.504 34.4307C237.504 35.3063 237.579 35.9346 237.729 36.3154C237.882 36.693 238.137 36.8818 238.495 36.8818C238.847 36.8818 239.101 36.6898 239.257 36.3057C239.413 35.9215 239.491 35.2965 239.491 34.4307C239.491 33.555 239.411 32.9268 239.252 32.5459C239.096 32.1618 238.843 31.9697 238.495 31.9697C238.14 31.9697 237.886 32.1618 237.733 32.5459C237.58 32.9268 237.504 33.555 237.504 34.4307ZM246.708 34.4307C246.708 35.6774 246.503 36.6003 246.093 37.1992C245.686 37.7982 245.058 38.0977 244.208 38.0977C243.384 38.0977 242.763 37.7884 242.343 37.1699C241.926 36.5514 241.718 35.6383 241.718 34.4307C241.718 33.1709 241.921 32.2432 242.328 31.6475C242.735 31.0485 243.362 30.749 244.208 30.749C245.032 30.749 245.653 31.0615 246.073 31.6865C246.496 32.3115 246.708 33.2262 246.708 34.4307ZM243.217 34.4307C243.217 35.3063 243.292 35.9346 243.441 36.3154C243.594 36.693 243.85 36.8818 244.208 36.8818C244.56 36.8818 244.813 36.6898 244.97 36.3057C245.126 35.9215 245.204 35.2965 245.204 34.4307C245.204 33.555 245.124 32.9268 244.965 32.5459C244.809 32.1618 244.556 31.9697 244.208 31.9697C243.853 31.9697 243.599 32.1618 243.446 32.5459C243.293 32.9268 243.217 33.555 243.217 34.4307ZM250.99 32.0186C250.593 32.0186 250.266 32.1341 250.009 32.3652C249.752 32.5931 249.586 32.9251 249.511 33.3613H251.479V34.2207H249.438L249.428 34.3916V34.6211L249.438 34.7822H251.171V35.6514H249.521C249.687 36.4424 250.209 36.8379 251.088 36.8379C251.553 36.8379 252.001 36.7451 252.431 36.5596V37.8096C252.053 38.0016 251.576 38.0977 251 38.0977C250.202 38.0977 249.547 37.8812 249.032 37.4482C248.518 37.0153 248.194 36.4163 248.061 35.6514H247.392V34.7822H247.968C247.955 34.7074 247.948 34.6064 247.948 34.4795L247.958 34.2207H247.392V33.3613H248.041C248.161 32.5736 248.485 31.9518 249.013 31.4961C249.54 31.0371 250.199 30.8076 250.99 30.8076C251.602 30.8076 252.175 30.9411 252.709 31.208L252.23 32.3408C252.006 32.2399 251.796 32.1618 251.601 32.1064C251.405 32.0479 251.202 32.0186 250.99 32.0186Z" fill="#FEFFFF"/>
<path d="M270.349 38H268.84V33.8691L268.854 33.1904L268.879 32.4482C268.628 32.6989 268.454 32.8633 268.356 32.9414L267.536 33.6006L266.809 32.6924L269.108 30.8613H270.349V38ZM277.292 33.9082C277.292 35.3145 276.996 36.3643 276.403 37.0576C275.811 37.751 274.914 38.0977 273.713 38.0977C273.29 38.0977 272.969 38.0749 272.751 38.0293V36.8184C273.024 36.8867 273.311 36.9209 273.61 36.9209C274.115 36.9209 274.53 36.8477 274.855 36.7012C275.181 36.5514 275.43 36.3187 275.603 36.0029C275.775 35.6839 275.874 35.2461 275.9 34.6895H275.842C275.653 34.9954 275.435 35.2103 275.188 35.334C274.94 35.4577 274.631 35.5195 274.26 35.5195C273.638 35.5195 273.148 35.321 272.79 34.9238C272.432 34.5234 272.253 33.9684 272.253 33.2588C272.253 32.4938 272.469 31.89 272.902 31.4473C273.339 31.0013 273.931 30.7783 274.68 30.7783C275.207 30.7783 275.668 30.902 276.062 31.1494C276.459 31.3968 276.763 31.7565 276.975 32.2285C277.186 32.6973 277.292 33.2572 277.292 33.9082ZM274.709 31.9893C274.396 31.9893 274.152 32.0967 273.977 32.3115C273.801 32.5264 273.713 32.8356 273.713 33.2393C273.713 33.5843 273.793 33.8577 273.952 34.0596C274.112 34.2614 274.354 34.3623 274.68 34.3623C274.986 34.3623 275.248 34.263 275.466 34.0645C275.684 33.8626 275.793 33.6315 275.793 33.3711C275.793 32.9837 275.69 32.6566 275.485 32.3896C275.284 32.1227 275.025 31.9893 274.709 31.9893ZM282.995 34.4307C282.995 35.6774 282.79 36.6003 282.38 37.1992C281.973 37.7982 281.345 38.0977 280.495 38.0977C279.672 38.0977 279.05 37.7884 278.63 37.1699C278.213 36.5514 278.005 35.6383 278.005 34.4307C278.005 33.1709 278.208 32.2432 278.615 31.6475C279.022 31.0485 279.649 30.749 280.495 30.749C281.319 30.749 281.94 31.0615 282.36 31.6865C282.784 32.3115 282.995 33.2262 282.995 34.4307ZM279.504 34.4307C279.504 35.3063 279.579 35.9346 279.729 36.3154C279.882 36.693 280.137 36.8818 280.495 36.8818C280.847 36.8818 281.101 36.6898 281.257 36.3057C281.413 35.9215 281.491 35.2965 281.491 34.4307C281.491 33.555 281.411 32.9268 281.252 32.5459C281.096 32.1618 280.843 31.9697 280.495 31.9697C280.14 31.9697 279.886 32.1618 279.733 32.5459C279.58 32.9268 279.504 33.555 279.504 34.4307ZM288.708 34.4307C288.708 35.6774 288.503 36.6003 288.093 37.1992C287.686 37.7982 287.058 38.0977 286.208 38.0977C285.384 38.0977 284.763 37.7884 284.343 37.1699C283.926 36.5514 283.718 35.6383 283.718 34.4307C283.718 33.1709 283.921 32.2432 284.328 31.6475C284.735 31.0485 285.362 30.749 286.208 30.749C287.032 30.749 287.653 31.0615 288.073 31.6865C288.496 32.3115 288.708 33.2262 288.708 34.4307ZM285.217 34.4307C285.217 35.3063 285.292 35.9346 285.441 36.3154C285.594 36.693 285.85 36.8818 286.208 36.8818C286.56 36.8818 286.813 36.6898 286.97 36.3057C287.126 35.9215 287.204 35.2965 287.204 34.4307C287.204 33.555 287.124 32.9268 286.965 32.5459C286.809 32.1618 286.556 31.9697 286.208 31.9697C285.853 31.9697 285.599 32.1618 285.446 32.5459C285.293 32.9268 285.217 33.555 285.217 34.4307ZM292.99 32.0186C292.593 32.0186 292.266 32.1341 292.009 32.3652C291.752 32.5931 291.586 32.9251 291.511 33.3613H293.479V34.2207H291.438L291.428 34.3916V34.6211L291.438 34.7822H293.171V35.6514H291.521C291.687 36.4424 292.209 36.8379 293.088 36.8379C293.553 36.8379 294.001 36.7451 294.431 36.5596V37.8096C294.053 38.0016 293.576 38.0977 293 38.0977C292.202 38.0977 291.547 37.8812 291.032 37.4482C290.518 37.0153 290.194 36.4163 290.061 35.6514H289.392V34.7822H289.968C289.955 34.7074 289.948 34.6064 289.948 34.4795L289.958 34.2207H289.392V33.3613H290.041C290.161 32.5736 290.485 31.9518 291.013 31.4961C291.54 31.0371 292.199 30.8076 292.99 30.8076C293.602 30.8076 294.175 30.9411 294.709 31.208L294.23 32.3408C294.006 32.2399 293.796 32.1618 293.601 32.1064C293.405 32.0479 293.202 32.0186 292.99 32.0186Z" fill="#FAFFFE"/>
<path d="M13.6084 70H8.61816V68.9502L10.4102 67.1387C10.9408 66.5951 11.2874 66.2191 11.4502 66.0107C11.613 65.7992 11.7301 65.6038 11.8018 65.4248C11.8734 65.2458 11.9092 65.0602 11.9092 64.8682C11.9092 64.5817 11.8294 64.3685 11.6699 64.2285C11.5137 64.0885 11.3037 64.0186 11.04 64.0186C10.7633 64.0186 10.4948 64.082 10.2344 64.209C9.97396 64.3359 9.70215 64.5166 9.41895 64.751L8.59863 63.7793C8.9502 63.4798 9.24154 63.2682 9.47266 63.1445C9.70378 63.0208 9.95605 62.9264 10.2295 62.8613C10.5029 62.793 10.8089 62.7588 11.1475 62.7588C11.5934 62.7588 11.9873 62.8402 12.3291 63.0029C12.6709 63.1657 12.9362 63.3936 13.125 63.6865C13.3138 63.9795 13.4082 64.3148 13.4082 64.6924C13.4082 65.0212 13.3496 65.3304 13.2324 65.6201C13.1185 65.9066 12.9395 66.2012 12.6953 66.5039C12.4544 66.8066 12.028 67.238 11.416 67.7979L10.498 68.6621V68.7305H13.6084V70ZM19.4824 68.5205H18.623V70H17.1484V68.5205H14.1016V67.4707L17.2314 62.8613H18.623V67.3486H19.4824V68.5205ZM17.1484 67.3486V66.1377C17.1484 65.9359 17.1566 65.6429 17.1729 65.2588C17.1891 64.8747 17.2021 64.6517 17.2119 64.5898H17.1729C17.0524 64.8568 16.9076 65.1172 16.7383 65.3711L15.4297 67.3486H17.1484ZM24.9951 66.4307C24.9951 67.6774 24.79 68.6003 24.3799 69.1992C23.973 69.7982 23.3447 70.0977 22.4951 70.0977C21.6715 70.0977 21.0498 69.7884 20.6299 69.1699C20.2132 68.5514 20.0049 67.6383 20.0049 66.4307C20.0049 65.1709 20.2083 64.2432 20.6152 63.6475C21.0221 63.0485 21.6488 62.749 22.4951 62.749C23.3187 62.749 23.9404 63.0615 24.3604 63.6865C24.7835 64.3115 24.9951 65.2262 24.9951 66.4307ZM21.5039 66.4307C21.5039 67.3063 21.5788 67.9346 21.7285 68.3154C21.8815 68.693 22.137 68.8818 22.4951 68.8818C22.8467 68.8818 23.1006 68.6898 23.2568 68.3057C23.4131 67.9215 23.4912 67.2965 23.4912 66.4307C23.4912 65.555 23.4115 64.9268 23.252 64.5459C23.0957 64.1618 22.8434 63.9697 22.4951 63.9697C22.1403 63.9697 21.8864 64.1618 21.7334 64.5459C21.5804 64.9268 21.5039 65.555 21.5039 66.4307ZM30.708 66.4307C30.708 67.6774 30.5029 68.6003 30.0928 69.1992C29.6859 69.7982 29.0576 70.0977 28.208 70.0977C27.3844 70.0977 26.7627 69.7884 26.3428 69.1699C25.9261 68.5514 25.7178 67.6383 25.7178 66.4307C25.7178 65.1709 25.9212 64.2432 26.3281 63.6475C26.735 63.0485 27.3617 62.749 28.208 62.749C29.0316 62.749 29.6533 63.0615 30.0732 63.6865C30.4964 64.3115 30.708 65.2262 30.708 66.4307ZM27.2168 66.4307C27.2168 67.3063 27.2917 67.9346 27.4414 68.3154C27.5944 68.693 27.8499 68.8818 28.208 68.8818C28.5596 68.8818 28.8135 68.6898 28.9697 68.3057C29.126 67.9215 29.2041 67.2965 29.2041 66.4307C29.2041 65.555 29.1243 64.9268 28.9648 64.5459C28.8086 64.1618 28.5563 63.9697 28.208 63.9697C27.8532 63.9697 27.5993 64.1618 27.4463 64.5459C27.2933 64.9268 27.2168 65.555 27.2168 66.4307ZM34.9902 64.0186C34.5931 64.0186 34.266 64.1341 34.0088 64.3652C33.7516 64.5931 33.5856 64.9251 33.5107 65.3613H35.4785V66.2207H33.4375L33.4277 66.3916V66.6211L33.4375 66.7822H35.1709V67.6514H33.5205C33.6865 68.4424 34.209 68.8379 35.0879 68.8379C35.5534 68.8379 36.001 68.7451 36.4307 68.5596V69.8096C36.0531 70.0016 35.5762 70.0977 35 70.0977C34.2025 70.0977 33.5465 69.8812 33.0322 69.4482C32.5179 69.0153 32.194 68.4163 32.0605 67.6514H31.3916V66.7822H31.9678C31.9548 66.7074 31.9482 66.6064 31.9482 66.4795L31.958 66.2207H31.3916V65.3613H32.041C32.1615 64.5736 32.4854 63.9518 33.0127 63.4961C33.54 63.0371 34.1992 62.8076 34.9902 62.8076C35.6022 62.8076 36.1751 62.9411 36.709 63.208L36.2305 64.3408C36.0059 64.2399 35.7959 64.1618 35.6006 64.1064C35.4053 64.0479 35.2018 64.0186 34.9902 64.0186Z" fill="#F8FDFC"/>
<path d="M56.8301 64.458C56.8301 64.904 56.695 65.2832 56.4248 65.5957C56.1546 65.9082 55.7754 66.123 55.2871 66.2402V66.2695C55.8633 66.3411 56.2995 66.5169 56.5957 66.7969C56.8919 67.0736 57.04 67.4479 57.04 67.9199C57.04 68.6068 56.791 69.1423 56.293 69.5264C55.7949 69.9072 55.0837 70.0977 54.1592 70.0977C53.3844 70.0977 52.6976 69.9691 52.0986 69.7119V68.4277C52.3753 68.5677 52.6797 68.6816 53.0117 68.7695C53.3438 68.8574 53.6725 68.9014 53.998 68.9014C54.4961 68.9014 54.8639 68.8167 55.1016 68.6475C55.3392 68.4782 55.458 68.2064 55.458 67.832C55.458 67.4967 55.3213 67.2591 55.0479 67.1191C54.7744 66.9792 54.3382 66.9092 53.7393 66.9092H53.1973V65.752H53.749C54.3024 65.752 54.7061 65.6803 54.96 65.5371C55.2171 65.3906 55.3457 65.1416 55.3457 64.79C55.3457 64.2497 55.0072 63.9795 54.3301 63.9795C54.0957 63.9795 53.8564 64.0186 53.6123 64.0967C53.3714 64.1748 53.1029 64.3099 52.8066 64.502L52.1084 63.4619C52.7594 62.9932 53.5358 62.7588 54.4375 62.7588C55.1764 62.7588 55.7591 62.9085 56.1855 63.208C56.6152 63.5075 56.8301 63.9242 56.8301 64.458ZM62.7822 66.4307C62.7822 67.6774 62.5771 68.6003 62.167 69.1992C61.7601 69.7982 61.1318 70.0977 60.2822 70.0977C59.4587 70.0977 58.8369 69.7884 58.417 69.1699C58.0003 68.5514 57.792 67.6383 57.792 66.4307C57.792 65.1709 57.9954 64.2432 58.4023 63.6475C58.8092 63.0485 59.4359 62.749 60.2822 62.749C61.1058 62.749 61.7275 63.0615 62.1475 63.6865C62.5706 64.3115 62.7822 65.2262 62.7822 66.4307ZM59.291 66.4307C59.291 67.3063 59.3659 67.9346 59.5156 68.3154C59.6686 68.693 59.9242 68.8818 60.2822 68.8818C60.6338 68.8818 60.8877 68.6898 61.0439 68.3057C61.2002 67.9215 61.2783 67.2965 61.2783 66.4307C61.2783 65.555 61.1986 64.9268 61.0391 64.5459C60.8828 64.1618 60.6305 63.9697 60.2822 63.9697C59.9274 63.9697 59.6735 64.1618 59.5205 64.5459C59.3675 64.9268 59.291 65.555 59.291 66.4307ZM68.4951 66.4307C68.4951 67.6774 68.29 68.6003 67.8799 69.1992C67.473 69.7982 66.8447 70.0977 65.9951 70.0977C65.1715 70.0977 64.5498 69.7884 64.1299 69.1699C63.7132 68.5514 63.5049 67.6383 63.5049 66.4307C63.5049 65.1709 63.7083 64.2432 64.1152 63.6475C64.5221 63.0485 65.1488 62.749 65.9951 62.749C66.8187 62.749 67.4404 63.0615 67.8604 63.6865C68.2835 64.3115 68.4951 65.2262 68.4951 66.4307ZM65.0039 66.4307C65.0039 67.3063 65.0788 67.9346 65.2285 68.3154C65.3815 68.693 65.637 68.8818 65.9951 68.8818C66.3467 68.8818 66.6006 68.6898 66.7568 68.3057C66.9131 67.9215 66.9912 67.2965 66.9912 66.4307C66.9912 65.555 66.9115 64.9268 66.752 64.5459C66.5957 64.1618 66.3434 63.9697 65.9951 63.9697C65.6403 63.9697 65.3864 64.1618 65.2334 64.5459C65.0804 64.9268 65.0039 65.555 65.0039 66.4307ZM74.208 66.4307C74.208 67.6774 74.0029 68.6003 73.5928 69.1992C73.1859 69.7982 72.5576 70.0977 71.708 70.0977C70.8844 70.0977 70.2627 69.7884 69.8428 69.1699C69.4261 68.5514 69.2178 67.6383 69.2178 66.4307C69.2178 65.1709 69.4212 64.2432 69.8281 63.6475C70.235 63.0485 70.8617 62.749 71.708 62.749C72.5316 62.749 73.1533 63.0615 73.5732 63.6865C73.9964 64.3115 74.208 65.2262 74.208 66.4307ZM70.7168 66.4307C70.7168 67.3063 70.7917 67.9346 70.9414 68.3154C71.0944 68.693 71.3499 68.8818 71.708 68.8818C72.0596 68.8818 72.3135 68.6898 72.4697 68.3057C72.626 67.9215 72.7041 67.2965 72.7041 66.4307C72.7041 65.555 72.6243 64.9268 72.4648 64.5459C72.3086 64.1618 72.0563 63.9697 71.708 63.9697C71.3532 63.9697 71.0993 64.1618 70.9463 64.5459C70.7933 64.9268 70.7168 65.555 70.7168 66.4307ZM78.4902 64.0186C78.0931 64.0186 77.766 64.1341 77.5088 64.3652C77.2516 64.5931 77.0856 64.9251 77.0107 65.3613H78.9785V66.2207H76.9375L76.9277 66.3916V66.6211L76.9375 66.7822H78.6709V67.6514H77.0205C77.1865 68.4424 77.709 68.8379 78.5879 68.8379C79.0534 68.8379 79.501 68.7451 79.9307 68.5596V69.8096C79.5531 70.0016 79.0762 70.0977 78.5 70.0977C77.7025 70.0977 77.0465 69.8812 76.5322 69.4482C76.0179 69.0153 75.694 68.4163 75.5605 67.6514H74.8916V66.7822H75.4678C75.4548 66.7074 75.4482 66.6064 75.4482 66.4795L75.458 66.2207H74.8916V65.3613H75.541C75.6615 64.5736 75.9854 63.9518 76.5127 63.4961C77.04 63.0371 77.6992 62.8076 78.4902 62.8076C79.1022 62.8076 79.6751 62.9411 80.209 63.208L79.7305 64.3408C79.5059 64.2399 79.2959 64.1618 79.1006 64.1064C78.9053 64.0479 78.7018 64.0186 78.4902 64.0186Z" fill="#F8FDFC"/>
<path d="M180.833 36.25V21.75C180.833 9.74038 169.936 0 156.5 0C143.064 0 132.167 9.74038 132.167 21.75V36.25H120V87H193V36.25H180.833ZM160.556 64.2459V72.5H152.444V64.2459C150.031 62.988 148.389 60.6789 148.389 58C148.389 53.998 152.023 50.75 156.5 50.75C160.977 50.75 164.611 53.998 164.611 58C164.611 60.6752 162.973 62.988 160.556 64.2459ZM140.278 36.25V21.75C140.278 13.7533 147.553 7.25 156.5 7.25C165.443 7.25 172.722 13.7533 172.722 21.75V36.25H140.278Z" fill="#716D6D"/>
</svg>
