<svg width="305" height="73" viewBox="0 0 305 73" fill="none" xmlns="http://www.w3.org/2000/svg">
<path d="M0 54V34H40.6101L46 43.6137L40.6101 54H0Z" fill="#C4C4C4"/>
<path d="M49.3216 43.5652L44 34H84.3176L90 43.5652L84.3176 54H44L49.3216 43.5652Z" fill="#C4C4C4"/>
<path d="M92.2059 43.5652L87 34H126.441L132 43.5652L126.441 54H87L92.2059 43.5652Z" fill="#C4C4C4"/>
<path d="M134.322 43.5652L129 34H169.318L175 43.5652L169.318 54H129L134.322 43.5652Z" fill="#C4C4C4"/>
<path d="M177.322 43.5652L172 34H212.318L218 43.5652L212.318 54H172L177.322 43.5652Z" fill="#C4C4C4"/>
<path d="M38.8713 37.8832C40.5957 36.0347 42.2739 32.329 40.6573 30.0503C39.5233 28.4451 37.2942 28.2618 34.0347 27.9763C32.9158 27.8785 31.4726 27.761 29.6366 28.1479C28.122 28.4572 24.6473 29.1725 24.2219 31.0354C23.772 32.9687 26.622 36.0551 29.5876 36.8427C31.0125 37.2253 32.5057 37.0838 33.8087 38.3241C34.4911 38.9824 34.5803 39.4832 35.2057 39.7007C36.6441 40.1826 38.4985 38.284 38.8713 37.8832Z" fill="#C4C4C4" stroke="#161616" stroke-width="0.230003" stroke-miterlimit="10"/>
<path d="M30.2085 34.5508V33.6963H32.0439V34.5508H30.2085ZM35.1475 36H34.0913V33.1084L34.1016 32.6333L34.1187 32.1138C33.9432 32.2892 33.8213 32.4043 33.7529 32.459L33.1787 32.9204L32.6694 32.2847L34.2793 31.0029H35.1475V36Z" fill="white"/>
<path d="M85.8713 37.8832C87.5957 36.0347 89.2739 32.329 87.6573 30.0503C86.5233 28.4451 84.2942 28.2618 81.0347 27.9763C79.9158 27.8785 78.4726 27.761 76.6366 28.1479C75.122 28.4572 71.6473 29.1725 71.2219 31.0354C70.772 32.9687 73.622 36.0551 76.5876 36.8427C78.0125 37.2253 79.5057 37.0838 80.8087 38.3241C81.4911 38.9824 81.5803 39.4832 82.2057 39.7007C83.6441 40.1826 85.4985 38.284 85.8713 37.8832Z" fill="#C4C4C4" stroke="#161616" stroke-width="0.230003" stroke-miterlimit="10"/>
<path d="M77.2085 34.5508V33.6963H79.0439V34.5508H77.2085ZM82.1475 36H81.0913V33.1084L81.1016 32.6333L81.1187 32.1138C80.9432 32.2892 80.8213 32.4043 80.7529 32.459L80.1787 32.9204L79.6694 32.2847L81.2793 31.0029H82.1475V36Z" fill="white"/>
<path d="M125.871 37.8832C127.596 36.0347 129.274 32.329 127.657 30.0503C126.523 28.4451 124.294 28.2618 121.035 27.9763C119.916 27.8785 118.473 27.761 116.637 28.1479C115.122 28.4572 111.647 29.1725 111.222 31.0354C110.772 32.9687 113.622 36.0551 116.588 36.8427C118.012 37.2253 119.506 37.0838 120.809 38.3241C121.491 38.9824 121.58 39.4832 122.206 39.7007C123.644 40.1826 125.499 38.284 125.871 37.8832Z" fill="#C4C4C4" stroke="#161616" stroke-width="0.230003" stroke-miterlimit="10"/>
<path d="M117.208 34.5508V33.6963H119.044V34.5508H117.208ZM123.029 36H119.536V35.2651L120.791 33.9971C121.162 33.6165 121.405 33.3534 121.519 33.2075C121.632 33.0594 121.715 32.9227 121.765 32.7974C121.815 32.672 121.84 32.5422 121.84 32.4077C121.84 32.2072 121.784 32.0579 121.672 31.96C121.563 31.862 121.416 31.813 121.231 31.813C121.038 31.813 120.85 31.8574 120.667 31.9463C120.485 32.0352 120.295 32.1616 120.097 32.3257L119.522 31.6455C119.769 31.4359 119.972 31.2878 120.134 31.2012C120.296 31.1146 120.473 31.0485 120.664 31.0029C120.855 30.9551 121.07 30.9312 121.307 30.9312C121.619 30.9312 121.895 30.9881 122.134 31.1021C122.373 31.216 122.559 31.3755 122.691 31.5806C122.823 31.7856 122.889 32.0203 122.889 32.2847C122.889 32.5148 122.848 32.7313 122.766 32.9341C122.686 33.1346 122.561 33.3408 122.39 33.5527C122.222 33.7646 121.923 34.0666 121.495 34.4585L120.852 35.0635V35.1113H123.029V36Z" fill="white"/>
<path d="M169.871 37.8832C171.596 36.0347 173.274 32.329 171.657 30.0503C170.523 28.4451 168.294 28.2618 165.035 27.9763C163.916 27.8785 162.473 27.761 160.637 28.1479C159.122 28.4572 155.647 29.1725 155.222 31.0354C154.772 32.9687 157.622 36.0551 160.588 36.8427C162.012 37.2253 163.506 37.0838 164.809 38.3241C165.491 38.9824 165.58 39.4832 166.206 39.7007C167.644 40.1826 169.499 38.284 169.871 37.8832Z" fill="#C4C4C4" stroke="#161616" stroke-width="0.230003" stroke-miterlimit="10"/>
<path d="M161.208 34.5508V33.6963H163.044V34.5508H161.208ZM167.029 36H163.536V35.2651L164.791 33.9971C165.162 33.6165 165.405 33.3534 165.519 33.2075C165.632 33.0594 165.715 32.9227 165.765 32.7974C165.815 32.672 165.84 32.5422 165.84 32.4077C165.84 32.2072 165.784 32.0579 165.672 31.96C165.563 31.862 165.416 31.813 165.231 31.813C165.038 31.813 164.85 31.8574 164.667 31.9463C164.485 32.0352 164.295 32.1616 164.097 32.3257L163.522 31.6455C163.769 31.4359 163.972 31.2878 164.134 31.2012C164.296 31.1146 164.473 31.0485 164.664 31.0029C164.855 30.9551 165.07 30.9312 165.307 30.9312C165.619 30.9312 165.895 30.9881 166.134 31.1021C166.373 31.216 166.559 31.3755 166.691 31.5806C166.823 31.7856 166.889 32.0203 166.889 32.2847C166.889 32.5148 166.848 32.7313 166.766 32.9341C166.686 33.1346 166.561 33.3408 166.39 33.5527C166.222 33.7646 165.923 34.0666 165.495 34.4585L164.852 35.0635V35.1113H167.029V36Z" fill="white"/>
<path d="M213.871 37.8832C215.596 36.0347 217.274 32.329 215.657 30.0503C214.523 28.4451 212.294 28.2618 209.035 27.9763C207.916 27.8785 206.473 27.761 204.637 28.1479C203.122 28.4572 199.647 29.1725 199.222 31.0354C198.772 32.9687 201.622 36.0551 204.588 36.8427C206.012 37.2253 207.506 37.0838 208.809 38.3241C209.491 38.9824 209.58 39.4832 210.206 39.7007C211.644 40.1826 213.499 38.284 213.871 37.8832Z" fill="#C4C4C4" stroke="#161616" stroke-width="0.230003" stroke-miterlimit="10"/>
<path d="M205.208 34.5508V33.6963H207.044V34.5508H205.208ZM210.834 32.1206C210.834 32.4328 210.74 32.6982 210.551 32.917C210.362 33.1357 210.096 33.2861 209.754 33.3682V33.3887C210.158 33.4388 210.463 33.5618 210.67 33.7578C210.878 33.9515 210.981 34.2135 210.981 34.5439C210.981 35.0247 210.807 35.3996 210.458 35.6685C210.11 35.9351 209.612 36.0684 208.965 36.0684C208.423 36.0684 207.942 35.9784 207.522 35.7983V34.8994C207.716 34.9974 207.929 35.0771 208.162 35.1387C208.394 35.2002 208.624 35.231 208.852 35.231C209.201 35.231 209.458 35.1717 209.625 35.0532C209.791 34.9347 209.874 34.7445 209.874 34.4824C209.874 34.2477 209.778 34.0814 209.587 33.9834C209.396 33.8854 209.09 33.8364 208.671 33.8364H208.292V33.0264H208.678C209.065 33.0264 209.348 32.9762 209.525 32.876C209.705 32.7734 209.795 32.5991 209.795 32.353C209.795 31.9748 209.558 31.7856 209.084 31.7856C208.92 31.7856 208.753 31.813 208.582 31.8677C208.413 31.9224 208.225 32.0169 208.018 32.1514L207.529 31.4233C207.985 31.0952 208.528 30.9312 209.16 30.9312C209.677 30.9312 210.085 31.036 210.383 31.2456C210.684 31.4552 210.834 31.7469 210.834 32.1206Z" fill="white"/>
<path d="M13.2051 48H11.6963V43.8691L11.7109 43.1904L11.7354 42.4482C11.4847 42.6989 11.3105 42.8633 11.2129 42.9414L10.3926 43.6006L9.66504 42.6924L11.9648 40.8613H13.2051V48ZM17.7852 43.4395C18.4753 43.4395 19.0238 43.6331 19.4307 44.0205C19.8408 44.4079 20.0459 44.9385 20.0459 45.6123C20.0459 46.4098 19.8001 47.0234 19.3086 47.4531C18.8171 47.8828 18.1139 48.0977 17.1992 48.0977C16.4049 48.0977 15.7637 47.9691 15.2754 47.7119V46.4082C15.5326 46.5449 15.832 46.6572 16.1738 46.7451C16.5156 46.8298 16.8395 46.8721 17.1455 46.8721C18.0667 46.8721 18.5273 46.4945 18.5273 45.7393C18.5273 45.0199 18.0505 44.6602 17.0967 44.6602C16.9242 44.6602 16.7337 44.6781 16.5254 44.7139C16.3171 44.7464 16.1478 44.7822 16.0176 44.8213L15.417 44.499L15.6855 40.8613H19.5576V42.1406H17.0088L16.877 43.542L17.0479 43.5078C17.2464 43.4622 17.4922 43.4395 17.7852 43.4395ZM25.8516 44.4307C25.8516 45.6774 25.6465 46.6003 25.2363 47.1992C24.8294 47.7982 24.2012 48.0977 23.3516 48.0977C22.528 48.0977 21.9062 47.7884 21.4863 47.1699C21.0697 46.5514 20.8613 45.6383 20.8613 44.4307C20.8613 43.1709 21.0648 42.2432 21.4717 41.6475C21.8786 41.0485 22.5052 40.749 23.3516 40.749C24.1751 40.749 24.7969 41.0615 25.2168 41.6865C25.64 42.3115 25.8516 43.2262 25.8516 44.4307ZM22.3604 44.4307C22.3604 45.3063 22.4352 45.9346 22.585 46.3154C22.738 46.693 22.9935 46.8818 23.3516 46.8818C23.7031 46.8818 23.957 46.6898 24.1133 46.3057C24.2695 45.9215 24.3477 45.2965 24.3477 44.4307C24.3477 43.555 24.2679 42.9268 24.1084 42.5459C23.9521 42.1618 23.6999 41.9697 23.3516 41.9697C22.9967 41.9697 22.7428 42.1618 22.5898 42.5459C22.4368 42.9268 22.3604 43.555 22.3604 44.4307ZM30.1338 42.0186C29.7367 42.0186 29.4095 42.1341 29.1523 42.3652C28.8952 42.5931 28.7292 42.9251 28.6543 43.3613H30.6221V44.2207H28.5811L28.5713 44.3916V44.6211L28.5811 44.7822H30.3145V45.6514H28.6641C28.8301 46.4424 29.3525 46.8379 30.2314 46.8379C30.6969 46.8379 31.1445 46.7451 31.5742 46.5596V47.8096C31.1966 48.0016 30.7197 48.0977 30.1436 48.0977C29.346 48.0977 28.6901 47.8812 28.1758 47.4482C27.6615 47.0153 27.3376 46.4163 27.2041 45.6514H26.5352V44.7822H27.1113C27.0983 44.7074 27.0918 44.6064 27.0918 44.4795L27.1016 44.2207H26.5352V43.3613H27.1846C27.305 42.5736 27.6289 41.9518 28.1562 41.4961C28.6836 41.0371 29.3428 40.8076 30.1338 40.8076C30.7458 40.8076 31.3187 40.9411 31.8525 41.208L31.374 42.3408C31.1494 42.2399 30.9395 42.1618 30.7441 42.1064C30.5488 42.0479 30.3454 42.0186 30.1338 42.0186Z" fill="#F5FDFC"/>
<path d="M61.1865 42.458C61.1865 42.904 61.0514 43.2832 60.7812 43.5957C60.5111 43.9082 60.1318 44.123 59.6436 44.2402V44.2695C60.2197 44.3411 60.6559 44.5169 60.9521 44.7969C61.2484 45.0736 61.3965 45.4479 61.3965 45.9199C61.3965 46.6068 61.1475 47.1423 60.6494 47.5264C60.1514 47.9072 59.4401 48.0977 58.5156 48.0977C57.7409 48.0977 57.054 47.9691 56.4551 47.7119V46.4277C56.7318 46.5677 57.0361 46.6816 57.3682 46.7695C57.7002 46.8574 58.029 46.9014 58.3545 46.9014C58.8525 46.9014 59.2204 46.8167 59.458 46.6475C59.6956 46.4782 59.8145 46.2064 59.8145 45.832C59.8145 45.4967 59.6777 45.2591 59.4043 45.1191C59.1309 44.9792 58.6947 44.9092 58.0957 44.9092H57.5537V43.752H58.1055C58.6589 43.752 59.0625 43.6803 59.3164 43.5371C59.5736 43.3906 59.7021 43.1416 59.7021 42.79C59.7021 42.2497 59.3636 41.9795 58.6865 41.9795C58.4521 41.9795 58.2129 42.0186 57.9688 42.0967C57.7279 42.1748 57.4593 42.3099 57.1631 42.502L56.4648 41.4619C57.1159 40.9932 57.8923 40.7588 58.7939 40.7588C59.5329 40.7588 60.1156 40.9085 60.542 41.208C60.9717 41.5075 61.1865 41.9242 61.1865 42.458ZM67.1387 44.4307C67.1387 45.6774 66.9336 46.6003 66.5234 47.1992C66.1165 47.7982 65.4883 48.0977 64.6387 48.0977C63.8151 48.0977 63.1934 47.7884 62.7734 47.1699C62.3568 46.5514 62.1484 45.6383 62.1484 44.4307C62.1484 43.1709 62.3519 42.2432 62.7588 41.6475C63.1657 41.0485 63.7923 40.749 64.6387 40.749C65.4622 40.749 66.084 41.0615 66.5039 41.6865C66.9271 42.3115 67.1387 43.2262 67.1387 44.4307ZM63.6475 44.4307C63.6475 45.3063 63.7223 45.9346 63.8721 46.3154C64.0251 46.693 64.2806 46.8818 64.6387 46.8818C64.9902 46.8818 65.2441 46.6898 65.4004 46.3057C65.5566 45.9215 65.6348 45.2965 65.6348 44.4307C65.6348 43.555 65.555 42.9268 65.3955 42.5459C65.2393 42.1618 64.987 41.9697 64.6387 41.9697C64.2839 41.9697 64.0299 42.1618 63.877 42.5459C63.724 42.9268 63.6475 43.555 63.6475 44.4307ZM72.8516 44.4307C72.8516 45.6774 72.6465 46.6003 72.2363 47.1992C71.8294 47.7982 71.2012 48.0977 70.3516 48.0977C69.528 48.0977 68.9062 47.7884 68.4863 47.1699C68.0697 46.5514 67.8613 45.6383 67.8613 44.4307C67.8613 43.1709 68.0648 42.2432 68.4717 41.6475C68.8786 41.0485 69.5052 40.749 70.3516 40.749C71.1751 40.749 71.7969 41.0615 72.2168 41.6865C72.64 42.3115 72.8516 43.2262 72.8516 44.4307ZM69.3604 44.4307C69.3604 45.3063 69.4352 45.9346 69.585 46.3154C69.738 46.693 69.9935 46.8818 70.3516 46.8818C70.7031 46.8818 70.957 46.6898 71.1133 46.3057C71.2695 45.9215 71.3477 45.2965 71.3477 44.4307C71.3477 43.555 71.2679 42.9268 71.1084 42.5459C70.9521 42.1618 70.6999 41.9697 70.3516 41.9697C69.9967 41.9697 69.7428 42.1618 69.5898 42.5459C69.4368 42.9268 69.3604 43.555 69.3604 44.4307ZM77.1338 42.0186C76.7367 42.0186 76.4095 42.1341 76.1523 42.3652C75.8952 42.5931 75.7292 42.9251 75.6543 43.3613H77.6221V44.2207H75.5811L75.5713 44.3916V44.6211L75.5811 44.7822H77.3145V45.6514H75.6641C75.8301 46.4424 76.3525 46.8379 77.2314 46.8379C77.6969 46.8379 78.1445 46.7451 78.5742 46.5596V47.8096C78.1966 48.0016 77.7197 48.0977 77.1436 48.0977C76.346 48.0977 75.6901 47.8812 75.1758 47.4482C74.6615 47.0153 74.3376 46.4163 74.2041 45.6514H73.5352V44.7822H74.1113C74.0983 44.7074 74.0918 44.6064 74.0918 44.4795L74.1016 44.2207H73.5352V43.3613H74.1846C74.305 42.5736 74.6289 41.9518 75.1562 41.4961C75.6836 41.0371 76.3428 40.8076 77.1338 40.8076C77.7458 40.8076 78.3187 40.9411 78.8525 41.208L78.374 42.3408C78.1494 42.2399 77.9395 42.1618 77.7441 42.1064C77.5488 42.0479 77.3454 42.0186 77.1338 42.0186Z" fill="#FEFFFF"/>
<path d="M101.072 43.4395C101.762 43.4395 102.311 43.6331 102.718 44.0205C103.128 44.4079 103.333 44.9385 103.333 45.6123C103.333 46.4098 103.087 47.0234 102.596 47.4531C102.104 47.8828 101.401 48.0977 100.486 48.0977C99.6921 48.0977 99.0508 47.9691 98.5625 47.7119V46.4082C98.8197 46.5449 99.1191 46.6572 99.4609 46.7451C99.8027 46.8298 100.127 46.8721 100.433 46.8721C101.354 46.8721 101.814 46.4945 101.814 45.7393C101.814 45.0199 101.338 44.6602 100.384 44.6602C100.211 44.6602 100.021 44.6781 99.8125 44.7139C99.6042 44.7464 99.4349 44.7822 99.3047 44.8213L98.7041 44.499L98.9727 40.8613H102.845V42.1406H100.296L100.164 43.542L100.335 43.5078C100.534 43.4622 100.779 43.4395 101.072 43.4395ZM109.139 44.4307C109.139 45.6774 108.934 46.6003 108.523 47.1992C108.117 47.7982 107.488 48.0977 106.639 48.0977C105.815 48.0977 105.193 47.7884 104.773 47.1699C104.357 46.5514 104.148 45.6383 104.148 44.4307C104.148 43.1709 104.352 42.2432 104.759 41.6475C105.166 41.0485 105.792 40.749 106.639 40.749C107.462 40.749 108.084 41.0615 108.504 41.6865C108.927 42.3115 109.139 43.2262 109.139 44.4307ZM105.647 44.4307C105.647 45.3063 105.722 45.9346 105.872 46.3154C106.025 46.693 106.281 46.8818 106.639 46.8818C106.99 46.8818 107.244 46.6898 107.4 46.3057C107.557 45.9215 107.635 45.2965 107.635 44.4307C107.635 43.555 107.555 42.9268 107.396 42.5459C107.239 42.1618 106.987 41.9697 106.639 41.9697C106.284 41.9697 106.03 42.1618 105.877 42.5459C105.724 42.9268 105.647 43.555 105.647 44.4307ZM114.852 44.4307C114.852 45.6774 114.646 46.6003 114.236 47.1992C113.829 47.7982 113.201 48.0977 112.352 48.0977C111.528 48.0977 110.906 47.7884 110.486 47.1699C110.07 46.5514 109.861 45.6383 109.861 44.4307C109.861 43.1709 110.065 42.2432 110.472 41.6475C110.879 41.0485 111.505 40.749 112.352 40.749C113.175 40.749 113.797 41.0615 114.217 41.6865C114.64 42.3115 114.852 43.2262 114.852 44.4307ZM111.36 44.4307C111.36 45.3063 111.435 45.9346 111.585 46.3154C111.738 46.693 111.993 46.8818 112.352 46.8818C112.703 46.8818 112.957 46.6898 113.113 46.3057C113.27 45.9215 113.348 45.2965 113.348 44.4307C113.348 43.555 113.268 42.9268 113.108 42.5459C112.952 42.1618 112.7 41.9697 112.352 41.9697C111.997 41.9697 111.743 42.1618 111.59 42.5459C111.437 42.9268 111.36 43.555 111.36 44.4307ZM119.134 42.0186C118.737 42.0186 118.41 42.1341 118.152 42.3652C117.895 42.5931 117.729 42.9251 117.654 43.3613H119.622V44.2207H117.581L117.571 44.3916V44.6211L117.581 44.7822H119.314V45.6514H117.664C117.83 46.4424 118.353 46.8379 119.231 46.8379C119.697 46.8379 120.145 46.7451 120.574 46.5596V47.8096C120.197 48.0016 119.72 48.0977 119.144 48.0977C118.346 48.0977 117.69 47.8812 117.176 47.4482C116.661 47.0153 116.338 46.4163 116.204 45.6514H115.535V44.7822H116.111C116.098 44.7074 116.092 44.6064 116.092 44.4795L116.102 44.2207H115.535V43.3613H116.185C116.305 42.5736 116.629 41.9518 117.156 41.4961C117.684 41.0371 118.343 40.8076 119.134 40.8076C119.746 40.8076 120.319 40.9411 120.853 41.208L120.374 42.3408C120.149 42.2399 119.939 42.1618 119.744 42.1064C119.549 42.0479 119.345 42.0186 119.134 42.0186Z" fill="#FAFFFE"/>
<path d="M141.183 48L143.863 42.1406H140.343V40.8711H145.465V41.8184L142.765 48H141.183ZM148.785 43.4395C149.475 43.4395 150.024 43.6331 150.431 44.0205C150.841 44.4079 151.046 44.9385 151.046 45.6123C151.046 46.4098 150.8 47.0234 150.309 47.4531C149.817 47.8828 149.114 48.0977 148.199 48.0977C147.405 48.0977 146.764 47.9691 146.275 47.7119V46.4082C146.533 46.5449 146.832 46.6572 147.174 46.7451C147.516 46.8298 147.84 46.8721 148.146 46.8721C149.067 46.8721 149.527 46.4945 149.527 45.7393C149.527 45.0199 149.05 44.6602 148.097 44.6602C147.924 44.6602 147.734 44.6781 147.525 44.7139C147.317 44.7464 147.148 44.7822 147.018 44.8213L146.417 44.499L146.686 40.8613H150.558V42.1406H148.009L147.877 43.542L148.048 43.5078C148.246 43.4622 148.492 43.4395 148.785 43.4395ZM156.852 44.4307C156.852 45.6774 156.646 46.6003 156.236 47.1992C155.829 47.7982 155.201 48.0977 154.352 48.0977C153.528 48.0977 152.906 47.7884 152.486 47.1699C152.07 46.5514 151.861 45.6383 151.861 44.4307C151.861 43.1709 152.065 42.2432 152.472 41.6475C152.879 41.0485 153.505 40.749 154.352 40.749C155.175 40.749 155.797 41.0615 156.217 41.6865C156.64 42.3115 156.852 43.2262 156.852 44.4307ZM153.36 44.4307C153.36 45.3063 153.435 45.9346 153.585 46.3154C153.738 46.693 153.993 46.8818 154.352 46.8818C154.703 46.8818 154.957 46.6898 155.113 46.3057C155.27 45.9215 155.348 45.2965 155.348 44.4307C155.348 43.555 155.268 42.9268 155.108 42.5459C154.952 42.1618 154.7 41.9697 154.352 41.9697C153.997 41.9697 153.743 42.1618 153.59 42.5459C153.437 42.9268 153.36 43.555 153.36 44.4307ZM161.134 42.0186C160.737 42.0186 160.41 42.1341 160.152 42.3652C159.895 42.5931 159.729 42.9251 159.654 43.3613H161.622V44.2207H159.581L159.571 44.3916V44.6211L159.581 44.7822H161.314V45.6514H159.664C159.83 46.4424 160.353 46.8379 161.231 46.8379C161.697 46.8379 162.145 46.7451 162.574 46.5596V47.8096C162.197 48.0016 161.72 48.0977 161.144 48.0977C160.346 48.0977 159.69 47.8812 159.176 47.4482C158.661 47.0153 158.338 46.4163 158.204 45.6514H157.535V44.7822H158.111C158.098 44.7074 158.092 44.6064 158.092 44.4795L158.102 44.2207H157.535V43.3613H158.185C158.305 42.5736 158.629 41.9518 159.156 41.4961C159.684 41.0371 160.343 40.8076 161.134 40.8076C161.746 40.8076 162.319 40.9411 162.853 41.208L162.374 42.3408C162.149 42.2399 161.939 42.1618 161.744 42.1064C161.549 42.0479 161.345 42.0186 161.134 42.0186Z" fill="#F8FDFC"/>
<path d="M184.849 48H183.34V43.8691L183.354 43.1904L183.379 42.4482C183.128 42.6989 182.954 42.8633 182.856 42.9414L182.036 43.6006L181.309 42.6924L183.608 40.8613H184.849V48ZM191.782 44.4307C191.782 45.6774 191.577 46.6003 191.167 47.1992C190.76 47.7982 190.132 48.0977 189.282 48.0977C188.459 48.0977 187.837 47.7884 187.417 47.1699C187 46.5514 186.792 45.6383 186.792 44.4307C186.792 43.1709 186.995 42.2432 187.402 41.6475C187.809 41.0485 188.436 40.749 189.282 40.749C190.106 40.749 190.728 41.0615 191.147 41.6865C191.571 42.3115 191.782 43.2262 191.782 44.4307ZM188.291 44.4307C188.291 45.3063 188.366 45.9346 188.516 46.3154C188.669 46.693 188.924 46.8818 189.282 46.8818C189.634 46.8818 189.888 46.6898 190.044 46.3057C190.2 45.9215 190.278 45.2965 190.278 44.4307C190.278 43.555 190.199 42.9268 190.039 42.5459C189.883 42.1618 189.631 41.9697 189.282 41.9697C188.927 41.9697 188.674 42.1618 188.521 42.5459C188.368 42.9268 188.291 43.555 188.291 44.4307ZM197.495 44.4307C197.495 45.6774 197.29 46.6003 196.88 47.1992C196.473 47.7982 195.845 48.0977 194.995 48.0977C194.172 48.0977 193.55 47.7884 193.13 47.1699C192.713 46.5514 192.505 45.6383 192.505 44.4307C192.505 43.1709 192.708 42.2432 193.115 41.6475C193.522 41.0485 194.149 40.749 194.995 40.749C195.819 40.749 196.44 41.0615 196.86 41.6865C197.284 42.3115 197.495 43.2262 197.495 44.4307ZM194.004 44.4307C194.004 45.3063 194.079 45.9346 194.229 46.3154C194.382 46.693 194.637 46.8818 194.995 46.8818C195.347 46.8818 195.601 46.6898 195.757 46.3057C195.913 45.9215 195.991 45.2965 195.991 44.4307C195.991 43.555 195.911 42.9268 195.752 42.5459C195.596 42.1618 195.343 41.9697 194.995 41.9697C194.64 41.9697 194.386 42.1618 194.233 42.5459C194.08 42.9268 194.004 43.555 194.004 44.4307ZM203.208 44.4307C203.208 45.6774 203.003 46.6003 202.593 47.1992C202.186 47.7982 201.558 48.0977 200.708 48.0977C199.884 48.0977 199.263 47.7884 198.843 47.1699C198.426 46.5514 198.218 45.6383 198.218 44.4307C198.218 43.1709 198.421 42.2432 198.828 41.6475C199.235 41.0485 199.862 40.749 200.708 40.749C201.532 40.749 202.153 41.0615 202.573 41.6865C202.996 42.3115 203.208 43.2262 203.208 44.4307ZM199.717 44.4307C199.717 45.3063 199.792 45.9346 199.941 46.3154C200.094 46.693 200.35 46.8818 200.708 46.8818C201.06 46.8818 201.313 46.6898 201.47 46.3057C201.626 45.9215 201.704 45.2965 201.704 44.4307C201.704 43.555 201.624 42.9268 201.465 42.5459C201.309 42.1618 201.056 41.9697 200.708 41.9697C200.353 41.9697 200.099 42.1618 199.946 42.5459C199.793 42.9268 199.717 43.555 199.717 44.4307ZM207.49 42.0186C207.093 42.0186 206.766 42.1341 206.509 42.3652C206.252 42.5931 206.086 42.9251 206.011 43.3613H207.979V44.2207H205.938L205.928 44.3916V44.6211L205.938 44.7822H207.671V45.6514H206.021C206.187 46.4424 206.709 46.8379 207.588 46.8379C208.053 46.8379 208.501 46.7451 208.931 46.5596V47.8096C208.553 48.0016 208.076 48.0977 207.5 48.0977C206.702 48.0977 206.047 47.8812 205.532 47.4482C205.018 47.0153 204.694 46.4163 204.561 45.6514H203.892V44.7822H204.468C204.455 44.7074 204.448 44.6064 204.448 44.4795L204.458 44.2207H203.892V43.3613H204.541C204.661 42.5736 204.985 41.9518 205.513 41.4961C206.04 41.0371 206.699 40.8076 207.49 40.8076C208.102 40.8076 208.675 40.9411 209.209 41.208L208.73 42.3408C208.506 42.2399 208.296 42.1618 208.101 42.1064C207.905 42.0479 207.702 42.0186 207.49 42.0186Z" fill="#F8FDFC"/>
<path d="M0 54V34H40.6101L46 43.6137L40.6101 54H0Z" fill="#C4C4C4"/>
<path d="M49.3216 43.5652L44 34H84.3176L90 43.5652L84.3176 54H44L49.3216 43.5652Z" fill="#C4C4C4"/>
<path d="M92.2059 43.5652L87 34H126.441L132 43.5652L126.441 54H87L92.2059 43.5652Z" fill="#C4C4C4"/>
<path d="M134.322 43.5652L129 34H169.318L175 43.5652L169.318 54H129L134.322 43.5652Z" fill="#C4C4C4"/>
<path d="M177.322 43.5652L172 34H212.318L218 43.5652L212.318 54H172L177.322 43.5652Z" fill="#C4C4C4"/>
<path d="M38.8713 37.8832C40.5957 36.0347 42.2739 32.329 40.6573 30.0503C39.5233 28.4451 37.2942 28.2618 34.0347 27.9763C32.9158 27.8785 31.4726 27.761 29.6366 28.1479C28.122 28.4572 24.6473 29.1725 24.2219 31.0354C23.772 32.9687 26.622 36.0551 29.5876 36.8427C31.0125 37.2253 32.5057 37.0838 33.8087 38.3241C34.4911 38.9824 34.5803 39.4832 35.2057 39.7007C36.6441 40.1826 38.4985 38.284 38.8713 37.8832Z" fill="#C4C4C4" stroke="#161616" stroke-width="0.230003" stroke-miterlimit="10"/>
<path d="M85.8713 37.8832C87.5957 36.0347 89.2739 32.329 87.6573 30.0503C86.5233 28.4451 84.2942 28.2618 81.0347 27.9763C79.9158 27.8785 78.4726 27.761 76.6366 28.1479C75.122 28.4572 71.6473 29.1725 71.2219 31.0354C70.772 32.9687 73.622 36.0551 76.5876 36.8427C78.0125 37.2253 79.5057 37.0838 80.8087 38.3241C81.4911 38.9824 81.5803 39.4832 82.2057 39.7007C83.6441 40.1826 85.4985 38.284 85.8713 37.8832Z" fill="#C4C4C4" stroke="#161616" stroke-width="0.230003" stroke-miterlimit="10"/>
<path d="M125.871 37.8832C127.596 36.0347 129.274 32.329 127.657 30.0503C126.523 28.4451 124.294 28.2618 121.035 27.9763C119.916 27.8785 118.473 27.761 116.637 28.1479C115.122 28.4572 111.647 29.1725 111.222 31.0354C110.772 32.9687 113.622 36.0551 116.588 36.8427C118.012 37.2253 119.506 37.0838 120.809 38.3241C121.491 38.9824 121.58 39.4832 122.206 39.7007C123.644 40.1826 125.499 38.284 125.871 37.8832Z" fill="#C4C4C4" stroke="#161616" stroke-width="0.230003" stroke-miterlimit="10"/>
<path d="M169.871 37.8832C171.596 36.0347 173.274 32.329 171.657 30.0503C170.523 28.4451 168.294 28.2618 165.035 27.9763C163.916 27.8785 162.473 27.761 160.637 28.1479C159.122 28.4572 155.647 29.1725 155.222 31.0354C154.772 32.9687 157.622 36.0551 160.588 36.8427C162.012 37.2253 163.506 37.0838 164.809 38.3241C165.491 38.9824 165.58 39.4832 166.206 39.7007C167.644 40.1826 169.499 38.284 169.871 37.8832Z" fill="#C4C4C4" stroke="#161616" stroke-width="0.230003" stroke-miterlimit="10"/>
<path d="M213.871 37.8832C215.596 36.0347 217.274 32.329 215.657 30.0503C214.523 28.4451 212.294 28.2618 209.035 27.9763C207.916 27.8785 206.473 27.761 204.637 28.1479C203.122 28.4572 199.647 29.1725 199.222 31.0354C198.772 32.9687 201.622 36.0551 204.588 36.8427C206.012 37.2253 207.506 37.0838 208.809 38.3241C209.491 38.9824 209.58 39.4832 210.206 39.7007C211.644 40.1826 213.499 38.284 213.871 37.8832Z" fill="#C4C4C4" stroke="#161616" stroke-width="0.230003" stroke-miterlimit="10"/>
<path d="M13.2051 48H11.6963V43.8691L11.7109 43.1904L11.7354 42.4482C11.4847 42.6989 11.3105 42.8633 11.2129 42.9414L10.3926 43.6006L9.66504 42.6924L11.9648 40.8613H13.2051V48ZM17.7852 43.4395C18.4753 43.4395 19.0238 43.6331 19.4307 44.0205C19.8408 44.4079 20.0459 44.9385 20.0459 45.6123C20.0459 46.4098 19.8001 47.0234 19.3086 47.4531C18.8171 47.8828 18.1139 48.0977 17.1992 48.0977C16.4049 48.0977 15.7637 47.9691 15.2754 47.7119V46.4082C15.5326 46.5449 15.832 46.6572 16.1738 46.7451C16.5156 46.8298 16.8395 46.8721 17.1455 46.8721C18.0667 46.8721 18.5273 46.4945 18.5273 45.7393C18.5273 45.0199 18.0505 44.6602 17.0967 44.6602C16.9242 44.6602 16.7337 44.6781 16.5254 44.7139C16.3171 44.7464 16.1478 44.7822 16.0176 44.8213L15.417 44.499L15.6855 40.8613H19.5576V42.1406H17.0088L16.877 43.542L17.0479 43.5078C17.2464 43.4622 17.4922 43.4395 17.7852 43.4395ZM25.8516 44.4307C25.8516 45.6774 25.6465 46.6003 25.2363 47.1992C24.8294 47.7982 24.2012 48.0977 23.3516 48.0977C22.528 48.0977 21.9062 47.7884 21.4863 47.1699C21.0697 46.5514 20.8613 45.6383 20.8613 44.4307C20.8613 43.1709 21.0648 42.2432 21.4717 41.6475C21.8786 41.0485 22.5052 40.749 23.3516 40.749C24.1751 40.749 24.7969 41.0615 25.2168 41.6865C25.64 42.3115 25.8516 43.2262 25.8516 44.4307ZM22.3604 44.4307C22.3604 45.3063 22.4352 45.9346 22.585 46.3154C22.738 46.693 22.9935 46.8818 23.3516 46.8818C23.7031 46.8818 23.957 46.6898 24.1133 46.3057C24.2695 45.9215 24.3477 45.2965 24.3477 44.4307C24.3477 43.555 24.2679 42.9268 24.1084 42.5459C23.9521 42.1618 23.6999 41.9697 23.3516 41.9697C22.9967 41.9697 22.7428 42.1618 22.5898 42.5459C22.4368 42.9268 22.3604 43.555 22.3604 44.4307ZM30.1338 42.0186C29.7367 42.0186 29.4095 42.1341 29.1523 42.3652C28.8952 42.5931 28.7292 42.9251 28.6543 43.3613H30.6221V44.2207H28.5811L28.5713 44.3916V44.6211L28.5811 44.7822H30.3145V45.6514H28.6641C28.8301 46.4424 29.3525 46.8379 30.2314 46.8379C30.6969 46.8379 31.1445 46.7451 31.5742 46.5596V47.8096C31.1966 48.0016 30.7197 48.0977 30.1436 48.0977C29.346 48.0977 28.6901 47.8812 28.1758 47.4482C27.6615 47.0153 27.3376 46.4163 27.2041 45.6514H26.5352V44.7822H27.1113C27.0983 44.7074 27.0918 44.6064 27.0918 44.4795L27.1016 44.2207H26.5352V43.3613H27.1846C27.305 42.5736 27.6289 41.9518 28.1562 41.4961C28.6836 41.0371 29.3428 40.8076 30.1338 40.8076C30.7458 40.8076 31.3187 40.9411 31.8525 41.208L31.374 42.3408C31.1494 42.2399 30.9395 42.1618 30.7441 42.1064C30.5488 42.0479 30.3454 42.0186 30.1338 42.0186Z" fill="#F5FDFC"/>
<path d="M61.1865 42.458C61.1865 42.904 61.0514 43.2832 60.7812 43.5957C60.5111 43.9082 60.1318 44.123 59.6436 44.2402V44.2695C60.2197 44.3411 60.6559 44.5169 60.9521 44.7969C61.2484 45.0736 61.3965 45.4479 61.3965 45.9199C61.3965 46.6068 61.1475 47.1423 60.6494 47.5264C60.1514 47.9072 59.4401 48.0977 58.5156 48.0977C57.7409 48.0977 57.054 47.9691 56.4551 47.7119V46.4277C56.7318 46.5677 57.0361 46.6816 57.3682 46.7695C57.7002 46.8574 58.029 46.9014 58.3545 46.9014C58.8525 46.9014 59.2204 46.8167 59.458 46.6475C59.6956 46.4782 59.8145 46.2064 59.8145 45.832C59.8145 45.4967 59.6777 45.2591 59.4043 45.1191C59.1309 44.9792 58.6947 44.9092 58.0957 44.9092H57.5537V43.752H58.1055C58.6589 43.752 59.0625 43.6803 59.3164 43.5371C59.5736 43.3906 59.7021 43.1416 59.7021 42.79C59.7021 42.2497 59.3636 41.9795 58.6865 41.9795C58.4521 41.9795 58.2129 42.0186 57.9688 42.0967C57.7279 42.1748 57.4593 42.3099 57.1631 42.502L56.4648 41.4619C57.1159 40.9932 57.8923 40.7588 58.7939 40.7588C59.5329 40.7588 60.1156 40.9085 60.542 41.208C60.9717 41.5075 61.1865 41.9242 61.1865 42.458ZM67.1387 44.4307C67.1387 45.6774 66.9336 46.6003 66.5234 47.1992C66.1165 47.7982 65.4883 48.0977 64.6387 48.0977C63.8151 48.0977 63.1934 47.7884 62.7734 47.1699C62.3568 46.5514 62.1484 45.6383 62.1484 44.4307C62.1484 43.1709 62.3519 42.2432 62.7588 41.6475C63.1657 41.0485 63.7923 40.749 64.6387 40.749C65.4622 40.749 66.084 41.0615 66.5039 41.6865C66.9271 42.3115 67.1387 43.2262 67.1387 44.4307ZM63.6475 44.4307C63.6475 45.3063 63.7223 45.9346 63.8721 46.3154C64.0251 46.693 64.2806 46.8818 64.6387 46.8818C64.9902 46.8818 65.2441 46.6898 65.4004 46.3057C65.5566 45.9215 65.6348 45.2965 65.6348 44.4307C65.6348 43.555 65.555 42.9268 65.3955 42.5459C65.2393 42.1618 64.987 41.9697 64.6387 41.9697C64.2839 41.9697 64.0299 42.1618 63.877 42.5459C63.724 42.9268 63.6475 43.555 63.6475 44.4307ZM72.8516 44.4307C72.8516 45.6774 72.6465 46.6003 72.2363 47.1992C71.8294 47.7982 71.2012 48.0977 70.3516 48.0977C69.528 48.0977 68.9062 47.7884 68.4863 47.1699C68.0697 46.5514 67.8613 45.6383 67.8613 44.4307C67.8613 43.1709 68.0648 42.2432 68.4717 41.6475C68.8786 41.0485 69.5052 40.749 70.3516 40.749C71.1751 40.749 71.7969 41.0615 72.2168 41.6865C72.64 42.3115 72.8516 43.2262 72.8516 44.4307ZM69.3604 44.4307C69.3604 45.3063 69.4352 45.9346 69.585 46.3154C69.738 46.693 69.9935 46.8818 70.3516 46.8818C70.7031 46.8818 70.957 46.6898 71.1133 46.3057C71.2695 45.9215 71.3477 45.2965 71.3477 44.4307C71.3477 43.555 71.2679 42.9268 71.1084 42.5459C70.9521 42.1618 70.6999 41.9697 70.3516 41.9697C69.9967 41.9697 69.7428 42.1618 69.5898 42.5459C69.4368 42.9268 69.3604 43.555 69.3604 44.4307ZM77.1338 42.0186C76.7367 42.0186 76.4095 42.1341 76.1523 42.3652C75.8952 42.5931 75.7292 42.9251 75.6543 43.3613H77.6221V44.2207H75.5811L75.5713 44.3916V44.6211L75.5811 44.7822H77.3145V45.6514H75.6641C75.8301 46.4424 76.3525 46.8379 77.2314 46.8379C77.6969 46.8379 78.1445 46.7451 78.5742 46.5596V47.8096C78.1966 48.0016 77.7197 48.0977 77.1436 48.0977C76.346 48.0977 75.6901 47.8812 75.1758 47.4482C74.6615 47.0153 74.3376 46.4163 74.2041 45.6514H73.5352V44.7822H74.1113C74.0983 44.7074 74.0918 44.6064 74.0918 44.4795L74.1016 44.2207H73.5352V43.3613H74.1846C74.305 42.5736 74.6289 41.9518 75.1562 41.4961C75.6836 41.0371 76.3428 40.8076 77.1338 40.8076C77.7458 40.8076 78.3187 40.9411 78.8525 41.208L78.374 42.3408C78.1494 42.2399 77.9395 42.1618 77.7441 42.1064C77.5488 42.0479 77.3454 42.0186 77.1338 42.0186Z" fill="#FEFFFF"/>
<path d="M101.072 43.4395C101.762 43.4395 102.311 43.6331 102.718 44.0205C103.128 44.4079 103.333 44.9385 103.333 45.6123C103.333 46.4098 103.087 47.0234 102.596 47.4531C102.104 47.8828 101.401 48.0977 100.486 48.0977C99.6921 48.0977 99.0508 47.9691 98.5625 47.7119V46.4082C98.8197 46.5449 99.1191 46.6572 99.4609 46.7451C99.8027 46.8298 100.127 46.8721 100.433 46.8721C101.354 46.8721 101.814 46.4945 101.814 45.7393C101.814 45.0199 101.338 44.6602 100.384 44.6602C100.211 44.6602 100.021 44.6781 99.8125 44.7139C99.6042 44.7464 99.4349 44.7822 99.3047 44.8213L98.7041 44.499L98.9727 40.8613H102.845V42.1406H100.296L100.164 43.542L100.335 43.5078C100.534 43.4622 100.779 43.4395 101.072 43.4395ZM109.139 44.4307C109.139 45.6774 108.934 46.6003 108.523 47.1992C108.117 47.7982 107.488 48.0977 106.639 48.0977C105.815 48.0977 105.193 47.7884 104.773 47.1699C104.357 46.5514 104.148 45.6383 104.148 44.4307C104.148 43.1709 104.352 42.2432 104.759 41.6475C105.166 41.0485 105.792 40.749 106.639 40.749C107.462 40.749 108.084 41.0615 108.504 41.6865C108.927 42.3115 109.139 43.2262 109.139 44.4307ZM105.647 44.4307C105.647 45.3063 105.722 45.9346 105.872 46.3154C106.025 46.693 106.281 46.8818 106.639 46.8818C106.99 46.8818 107.244 46.6898 107.4 46.3057C107.557 45.9215 107.635 45.2965 107.635 44.4307C107.635 43.555 107.555 42.9268 107.396 42.5459C107.239 42.1618 106.987 41.9697 106.639 41.9697C106.284 41.9697 106.03 42.1618 105.877 42.5459C105.724 42.9268 105.647 43.555 105.647 44.4307ZM114.852 44.4307C114.852 45.6774 114.646 46.6003 114.236 47.1992C113.829 47.7982 113.201 48.0977 112.352 48.0977C111.528 48.0977 110.906 47.7884 110.486 47.1699C110.07 46.5514 109.861 45.6383 109.861 44.4307C109.861 43.1709 110.065 42.2432 110.472 41.6475C110.879 41.0485 111.505 40.749 112.352 40.749C113.175 40.749 113.797 41.0615 114.217 41.6865C114.64 42.3115 114.852 43.2262 114.852 44.4307ZM111.36 44.4307C111.36 45.3063 111.435 45.9346 111.585 46.3154C111.738 46.693 111.993 46.8818 112.352 46.8818C112.703 46.8818 112.957 46.6898 113.113 46.3057C113.27 45.9215 113.348 45.2965 113.348 44.4307C113.348 43.555 113.268 42.9268 113.108 42.5459C112.952 42.1618 112.7 41.9697 112.352 41.9697C111.997 41.9697 111.743 42.1618 111.59 42.5459C111.437 42.9268 111.36 43.555 111.36 44.4307ZM119.134 42.0186C118.737 42.0186 118.41 42.1341 118.152 42.3652C117.895 42.5931 117.729 42.9251 117.654 43.3613H119.622V44.2207H117.581L117.571 44.3916V44.6211L117.581 44.7822H119.314V45.6514H117.664C117.83 46.4424 118.353 46.8379 119.231 46.8379C119.697 46.8379 120.145 46.7451 120.574 46.5596V47.8096C120.197 48.0016 119.72 48.0977 119.144 48.0977C118.346 48.0977 117.69 47.8812 117.176 47.4482C116.661 47.0153 116.338 46.4163 116.204 45.6514H115.535V44.7822H116.111C116.098 44.7074 116.092 44.6064 116.092 44.4795L116.102 44.2207H115.535V43.3613H116.185C116.305 42.5736 116.629 41.9518 117.156 41.4961C117.684 41.0371 118.343 40.8076 119.134 40.8076C119.746 40.8076 120.319 40.9411 120.853 41.208L120.374 42.3408C120.149 42.2399 119.939 42.1618 119.744 42.1064C119.549 42.0479 119.345 42.0186 119.134 42.0186Z" fill="#FAFFFE"/>
<path d="M141.183 48L143.863 42.1406H140.343V40.8711H145.465V41.8184L142.765 48H141.183ZM148.785 43.4395C149.475 43.4395 150.024 43.6331 150.431 44.0205C150.841 44.4079 151.046 44.9385 151.046 45.6123C151.046 46.4098 150.8 47.0234 150.309 47.4531C149.817 47.8828 149.114 48.0977 148.199 48.0977C147.405 48.0977 146.764 47.9691 146.275 47.7119V46.4082C146.533 46.5449 146.832 46.6572 147.174 46.7451C147.516 46.8298 147.84 46.8721 148.146 46.8721C149.067 46.8721 149.527 46.4945 149.527 45.7393C149.527 45.0199 149.05 44.6602 148.097 44.6602C147.924 44.6602 147.734 44.6781 147.525 44.7139C147.317 44.7464 147.148 44.7822 147.018 44.8213L146.417 44.499L146.686 40.8613H150.558V42.1406H148.009L147.877 43.542L148.048 43.5078C148.246 43.4622 148.492 43.4395 148.785 43.4395ZM156.852 44.4307C156.852 45.6774 156.646 46.6003 156.236 47.1992C155.829 47.7982 155.201 48.0977 154.352 48.0977C153.528 48.0977 152.906 47.7884 152.486 47.1699C152.07 46.5514 151.861 45.6383 151.861 44.4307C151.861 43.1709 152.065 42.2432 152.472 41.6475C152.879 41.0485 153.505 40.749 154.352 40.749C155.175 40.749 155.797 41.0615 156.217 41.6865C156.64 42.3115 156.852 43.2262 156.852 44.4307ZM153.36 44.4307C153.36 45.3063 153.435 45.9346 153.585 46.3154C153.738 46.693 153.993 46.8818 154.352 46.8818C154.703 46.8818 154.957 46.6898 155.113 46.3057C155.27 45.9215 155.348 45.2965 155.348 44.4307C155.348 43.555 155.268 42.9268 155.108 42.5459C154.952 42.1618 154.7 41.9697 154.352 41.9697C153.997 41.9697 153.743 42.1618 153.59 42.5459C153.437 42.9268 153.36 43.555 153.36 44.4307ZM161.134 42.0186C160.737 42.0186 160.41 42.1341 160.152 42.3652C159.895 42.5931 159.729 42.9251 159.654 43.3613H161.622V44.2207H159.581L159.571 44.3916V44.6211L159.581 44.7822H161.314V45.6514H159.664C159.83 46.4424 160.353 46.8379 161.231 46.8379C161.697 46.8379 162.145 46.7451 162.574 46.5596V47.8096C162.197 48.0016 161.72 48.0977 161.144 48.0977C160.346 48.0977 159.69 47.8812 159.176 47.4482C158.661 47.0153 158.338 46.4163 158.204 45.6514H157.535V44.7822H158.111C158.098 44.7074 158.092 44.6064 158.092 44.4795L158.102 44.2207H157.535V43.3613H158.185C158.305 42.5736 158.629 41.9518 159.156 41.4961C159.684 41.0371 160.343 40.8076 161.134 40.8076C161.746 40.8076 162.319 40.9411 162.853 41.208L162.374 42.3408C162.149 42.2399 161.939 42.1618 161.744 42.1064C161.549 42.0479 161.345 42.0186 161.134 42.0186Z" fill="#F8FDFC"/>
<path d="M184.849 48H183.34V43.8691L183.354 43.1904L183.379 42.4482C183.128 42.6989 182.954 42.8633 182.856 42.9414L182.036 43.6006L181.309 42.6924L183.608 40.8613H184.849V48ZM191.782 44.4307C191.782 45.6774 191.577 46.6003 191.167 47.1992C190.76 47.7982 190.132 48.0977 189.282 48.0977C188.459 48.0977 187.837 47.7884 187.417 47.1699C187 46.5514 186.792 45.6383 186.792 44.4307C186.792 43.1709 186.995 42.2432 187.402 41.6475C187.809 41.0485 188.436 40.749 189.282 40.749C190.106 40.749 190.728 41.0615 191.147 41.6865C191.571 42.3115 191.782 43.2262 191.782 44.4307ZM188.291 44.4307C188.291 45.3063 188.366 45.9346 188.516 46.3154C188.669 46.693 188.924 46.8818 189.282 46.8818C189.634 46.8818 189.888 46.6898 190.044 46.3057C190.2 45.9215 190.278 45.2965 190.278 44.4307C190.278 43.555 190.199 42.9268 190.039 42.5459C189.883 42.1618 189.631 41.9697 189.282 41.9697C188.927 41.9697 188.674 42.1618 188.521 42.5459C188.368 42.9268 188.291 43.555 188.291 44.4307ZM197.495 44.4307C197.495 45.6774 197.29 46.6003 196.88 47.1992C196.473 47.7982 195.845 48.0977 194.995 48.0977C194.172 48.0977 193.55 47.7884 193.13 47.1699C192.713 46.5514 192.505 45.6383 192.505 44.4307C192.505 43.1709 192.708 42.2432 193.115 41.6475C193.522 41.0485 194.149 40.749 194.995 40.749C195.819 40.749 196.44 41.0615 196.86 41.6865C197.284 42.3115 197.495 43.2262 197.495 44.4307ZM194.004 44.4307C194.004 45.3063 194.079 45.9346 194.229 46.3154C194.382 46.693 194.637 46.8818 194.995 46.8818C195.347 46.8818 195.601 46.6898 195.757 46.3057C195.913 45.9215 195.991 45.2965 195.991 44.4307C195.991 43.555 195.911 42.9268 195.752 42.5459C195.596 42.1618 195.343 41.9697 194.995 41.9697C194.64 41.9697 194.386 42.1618 194.233 42.5459C194.08 42.9268 194.004 43.555 194.004 44.4307ZM203.208 44.4307C203.208 45.6774 203.003 46.6003 202.593 47.1992C202.186 47.7982 201.558 48.0977 200.708 48.0977C199.884 48.0977 199.263 47.7884 198.843 47.1699C198.426 46.5514 198.218 45.6383 198.218 44.4307C198.218 43.1709 198.421 42.2432 198.828 41.6475C199.235 41.0485 199.862 40.749 200.708 40.749C201.532 40.749 202.153 41.0615 202.573 41.6865C202.996 42.3115 203.208 43.2262 203.208 44.4307ZM199.717 44.4307C199.717 45.3063 199.792 45.9346 199.941 46.3154C200.094 46.693 200.35 46.8818 200.708 46.8818C201.06 46.8818 201.313 46.6898 201.47 46.3057C201.626 45.9215 201.704 45.2965 201.704 44.4307C201.704 43.555 201.624 42.9268 201.465 42.5459C201.309 42.1618 201.056 41.9697 200.708 41.9697C200.353 41.9697 200.099 42.1618 199.946 42.5459C199.793 42.9268 199.717 43.555 199.717 44.4307ZM207.49 42.0186C207.093 42.0186 206.766 42.1341 206.509 42.3652C206.252 42.5931 206.086 42.9251 206.011 43.3613H207.979V44.2207H205.938L205.928 44.3916V44.6211L205.938 44.7822H207.671V45.6514H206.021C206.187 46.4424 206.709 46.8379 207.588 46.8379C208.053 46.8379 208.501 46.7451 208.931 46.5596V47.8096C208.553 48.0016 208.076 48.0977 207.5 48.0977C206.702 48.0977 206.047 47.8812 205.532 47.4482C205.018 47.0153 204.694 46.4163 204.561 45.6514H203.892V44.7822H204.468C204.455 44.7074 204.448 44.6064 204.448 44.4795L204.458 44.2207H203.892V43.3613H204.541C204.661 42.5736 204.985 41.9518 205.513 41.4961C206.04 41.0371 206.699 40.8076 207.49 40.8076C208.102 40.8076 208.675 40.9411 209.209 41.208L208.73 42.3408C208.506 42.2399 208.296 42.1618 208.101 42.1064C207.905 42.0479 207.702 42.0186 207.49 42.0186Z" fill="#F8FDFC"/>
<path d="M263.322 44.5652L258 35H298.318L304 44.5652L298.318 55H258L263.322 44.5652Z" fill="#C4C4C4"/>
<path d="M300.871 38.8832C302.596 37.0347 304.274 33.329 302.657 31.0503C301.523 29.4451 299.294 29.2618 296.035 28.9763C294.916 28.8785 293.473 28.761 291.637 29.1479C290.122 29.4572 286.647 30.1725 286.222 32.0354C285.772 33.9687 288.622 37.0551 291.588 37.8427C293.012 38.2253 294.506 38.0838 295.809 39.3241C296.491 39.9824 296.58 40.4832 297.206 40.7007C298.644 41.1826 300.499 39.284 300.871 38.8832Z" fill="#C4C4C4" stroke="black" stroke-width="0.230003" stroke-miterlimit="10"/>
<path d="M276.294 48.3018C276.294 48.0283 276.367 47.8216 276.514 47.6816C276.66 47.5417 276.873 47.4717 277.153 47.4717C277.424 47.4717 277.632 47.5433 277.778 47.6865C277.928 47.8298 278.003 48.0348 278.003 48.3018C278.003 48.5589 277.928 48.7624 277.778 48.9121C277.629 49.0586 277.42 49.1318 277.153 49.1318C276.88 49.1318 276.668 49.0602 276.519 48.917C276.369 48.7705 276.294 48.5654 276.294 48.3018ZM279.146 48.3018C279.146 48.0283 279.219 47.8216 279.365 47.6816C279.512 47.5417 279.725 47.4717 280.005 47.4717C280.275 47.4717 280.483 47.5433 280.63 47.6865C280.78 47.8298 280.854 48.0348 280.854 48.3018C280.854 48.5589 280.78 48.7624 280.63 48.9121C280.48 49.0586 280.272 49.1318 280.005 49.1318C279.731 49.1318 279.52 49.0602 279.37 48.917C279.22 48.7705 279.146 48.5654 279.146 48.3018ZM281.997 48.3018C281.997 48.0283 282.07 47.8216 282.217 47.6816C282.363 47.5417 282.576 47.4717 282.856 47.4717C283.127 47.4717 283.335 47.5433 283.481 47.6865C283.631 47.8298 283.706 48.0348 283.706 48.3018C283.706 48.5589 283.631 48.7624 283.481 48.9121C283.332 49.0586 283.123 49.1318 282.856 49.1318C282.583 49.1318 282.371 49.0602 282.222 48.917C282.072 48.7705 281.997 48.5654 281.997 48.3018Z" fill="#F8FDFC"/>
<path d="M220.322 44.5652L215 35H255.318L261 44.5652L255.318 55H215L220.322 44.5652Z" fill="#C4C4C4"/>
<path d="M256.871 38.8832C258.596 37.0347 260.274 33.329 258.657 31.0503C257.523 29.4451 255.294 29.2618 252.035 28.9763C250.916 28.8785 249.473 28.761 247.637 29.1479C246.122 29.4572 242.647 30.1725 242.222 32.0354C241.772 33.9687 244.622 37.0551 247.588 37.8427C249.012 38.2253 250.506 38.0838 251.809 39.3241C252.491 39.9824 252.58 40.4832 253.206 40.7007C254.644 41.1826 256.499 39.284 256.871 38.8832Z" fill="#C4C4C4" stroke="#C4C4C4" stroke-width="0.230003" stroke-miterlimit="10"/>
<path d="M232.187 43.458C232.187 43.904 232.051 44.2832 231.781 44.5957C231.511 44.9082 231.132 45.123 230.644 45.2402V45.2695C231.22 45.3411 231.656 45.5169 231.952 45.7969C232.248 46.0736 232.396 46.4479 232.396 46.9199C232.396 47.6068 232.147 48.1423 231.649 48.5264C231.151 48.9072 230.44 49.0977 229.516 49.0977C228.741 49.0977 228.054 48.9691 227.455 48.7119V47.4277C227.732 47.5677 228.036 47.6816 228.368 47.7695C228.7 47.8574 229.029 47.9014 229.354 47.9014C229.853 47.9014 230.22 47.8167 230.458 47.6475C230.696 47.4782 230.814 47.2064 230.814 46.832C230.814 46.4967 230.678 46.2591 230.404 46.1191C230.131 45.9792 229.695 45.9092 229.096 45.9092H228.554V44.752H229.105C229.659 44.752 230.062 44.6803 230.316 44.5371C230.574 44.3906 230.702 44.1416 230.702 43.79C230.702 43.2497 230.364 42.9795 229.687 42.9795C229.452 42.9795 229.213 43.0186 228.969 43.0967C228.728 43.1748 228.459 43.3099 228.163 43.502L227.465 42.4619C228.116 41.9932 228.892 41.7588 229.794 41.7588C230.533 41.7588 231.116 41.9085 231.542 42.208C231.972 42.5075 232.187 42.9242 232.187 43.458ZM238.139 45.4307C238.139 46.6774 237.934 47.6003 237.523 48.1992C237.117 48.7982 236.488 49.0977 235.639 49.0977C234.815 49.0977 234.193 48.7884 233.773 48.1699C233.357 47.5514 233.148 46.6383 233.148 45.4307C233.148 44.1709 233.352 43.2432 233.759 42.6475C234.166 42.0485 234.792 41.749 235.639 41.749C236.462 41.749 237.084 42.0615 237.504 42.6865C237.927 43.3115 238.139 44.2262 238.139 45.4307ZM234.647 45.4307C234.647 46.3063 234.722 46.9346 234.872 47.3154C235.025 47.693 235.281 47.8818 235.639 47.8818C235.99 47.8818 236.244 47.6898 236.4 47.3057C236.557 46.9215 236.635 46.2965 236.635 45.4307C236.635 44.555 236.555 43.9268 236.396 43.5459C236.239 43.1618 235.987 42.9697 235.639 42.9697C235.284 42.9697 235.03 43.1618 234.877 43.5459C234.724 43.9268 234.647 44.555 234.647 45.4307ZM243.852 45.4307C243.852 46.6774 243.646 47.6003 243.236 48.1992C242.829 48.7982 242.201 49.0977 241.352 49.0977C240.528 49.0977 239.906 48.7884 239.486 48.1699C239.07 47.5514 238.861 46.6383 238.861 45.4307C238.861 44.1709 239.065 43.2432 239.472 42.6475C239.879 42.0485 240.505 41.749 241.352 41.749C242.175 41.749 242.797 42.0615 243.217 42.6865C243.64 43.3115 243.852 44.2262 243.852 45.4307ZM240.36 45.4307C240.36 46.3063 240.435 46.9346 240.585 47.3154C240.738 47.693 240.993 47.8818 241.352 47.8818C241.703 47.8818 241.957 47.6898 242.113 47.3057C242.27 46.9215 242.348 46.2965 242.348 45.4307C242.348 44.555 242.268 43.9268 242.108 43.5459C241.952 43.1618 241.7 42.9697 241.352 42.9697C240.997 42.9697 240.743 43.1618 240.59 43.5459C240.437 43.9268 240.36 44.555 240.36 45.4307ZM248.134 43.0186C247.737 43.0186 247.41 43.1341 247.152 43.3652C246.895 43.5931 246.729 43.9251 246.654 44.3613H248.622V45.2207H246.581L246.571 45.3916V45.6211L246.581 45.7822H248.314V46.6514H246.664C246.83 47.4424 247.353 47.8379 248.231 47.8379C248.697 47.8379 249.145 47.7451 249.574 47.5596V48.8096C249.197 49.0016 248.72 49.0977 248.144 49.0977C247.346 49.0977 246.69 48.8812 246.176 48.4482C245.661 48.0153 245.338 47.4163 245.204 46.6514H244.535V45.7822H245.111C245.098 45.7074 245.092 45.6064 245.092 45.4795L245.102 45.2207H244.535V44.3613H245.185C245.305 43.5736 245.629 42.9518 246.156 42.4961C246.684 42.0371 247.343 41.8076 248.134 41.8076C248.746 41.8076 249.319 41.9411 249.853 42.208L249.374 43.3408C249.149 43.2399 248.939 43.1618 248.744 43.1064C248.549 43.0479 248.345 43.0186 248.134 43.0186Z" fill="#FEFFFF"/>
<path d="M220.322 44.5652L215 35H255.318L261 44.5652L255.318 55H215L220.322 44.5652Z" fill="#C4C4C4"/>
<path d="M256.871 38.8832C258.596 37.0347 260.274 33.329 258.657 31.0503C257.523 29.4451 255.294 29.2618 252.035 28.9763C250.916 28.8785 249.473 28.761 247.637 29.1479C246.122 29.4572 242.647 30.1725 242.222 32.0354C241.772 33.9687 244.622 37.0551 247.588 37.8427C249.012 38.2253 250.506 38.0838 251.809 39.3241C252.491 39.9824 252.58 40.4832 253.206 40.7007C254.644 41.1826 256.499 39.284 256.871 38.8832Z" fill="#C4C4C4" stroke="black" stroke-width="0.230003" stroke-miterlimit="10"/>
<path d="M228.349 49H226.84V44.8691L226.854 44.1904L226.879 43.4482C226.628 43.6989 226.454 43.8633 226.356 43.9414L225.536 44.6006L224.809 43.6924L227.108 41.8613H228.349V49ZM235.482 47.5205H234.623V49H233.148V47.5205H230.102V46.4707L233.231 41.8613H234.623V46.3486H235.482V47.5205ZM233.148 46.3486V45.1377C233.148 44.9359 233.157 44.6429 233.173 44.2588C233.189 43.8747 233.202 43.6517 233.212 43.5898H233.173C233.052 43.8568 232.908 44.1172 232.738 44.3711L231.43 46.3486H233.148ZM240.995 45.4307C240.995 46.6774 240.79 47.6003 240.38 48.1992C239.973 48.7982 239.345 49.0977 238.495 49.0977C237.672 49.0977 237.05 48.7884 236.63 48.1699C236.213 47.5514 236.005 46.6383 236.005 45.4307C236.005 44.1709 236.208 43.2432 236.615 42.6475C237.022 42.0485 237.649 41.749 238.495 41.749C239.319 41.749 239.94 42.0615 240.36 42.6865C240.784 43.3115 240.995 44.2262 240.995 45.4307ZM237.504 45.4307C237.504 46.3063 237.579 46.9346 237.729 47.3154C237.882 47.693 238.137 47.8818 238.495 47.8818C238.847 47.8818 239.101 47.6898 239.257 47.3057C239.413 46.9215 239.491 46.2965 239.491 45.4307C239.491 44.555 239.411 43.9268 239.252 43.5459C239.096 43.1618 238.843 42.9697 238.495 42.9697C238.14 42.9697 237.886 43.1618 237.733 43.5459C237.58 43.9268 237.504 44.555 237.504 45.4307ZM246.708 45.4307C246.708 46.6774 246.503 47.6003 246.093 48.1992C245.686 48.7982 245.058 49.0977 244.208 49.0977C243.384 49.0977 242.763 48.7884 242.343 48.1699C241.926 47.5514 241.718 46.6383 241.718 45.4307C241.718 44.1709 241.921 43.2432 242.328 42.6475C242.735 42.0485 243.362 41.749 244.208 41.749C245.032 41.749 245.653 42.0615 246.073 42.6865C246.496 43.3115 246.708 44.2262 246.708 45.4307ZM243.217 45.4307C243.217 46.3063 243.292 46.9346 243.441 47.3154C243.594 47.693 243.85 47.8818 244.208 47.8818C244.56 47.8818 244.813 47.6898 244.97 47.3057C245.126 46.9215 245.204 46.2965 245.204 45.4307C245.204 44.555 245.124 43.9268 244.965 43.5459C244.809 43.1618 244.556 42.9697 244.208 42.9697C243.853 42.9697 243.599 43.1618 243.446 43.5459C243.293 43.9268 243.217 44.555 243.217 45.4307ZM250.99 43.0186C250.593 43.0186 250.266 43.1341 250.009 43.3652C249.752 43.5931 249.586 43.9251 249.511 44.3613H251.479V45.2207H249.438L249.428 45.3916V45.6211L249.438 45.7822H251.171V46.6514H249.521C249.687 47.4424 250.209 47.8379 251.088 47.8379C251.553 47.8379 252.001 47.7451 252.431 47.5596V48.8096C252.053 49.0016 251.576 49.0977 251 49.0977C250.202 49.0977 249.547 48.8812 249.032 48.4482C248.518 48.0153 248.194 47.4163 248.061 46.6514H247.392V45.7822H247.968C247.955 45.7074 247.948 45.6064 247.948 45.4795L247.958 45.2207H247.392V44.3613H248.041C248.161 43.5736 248.485 42.9518 249.013 42.4961C249.54 42.0371 250.199 41.8076 250.99 41.8076C251.602 41.8076 252.175 41.9411 252.709 42.208L252.23 43.3408C252.006 43.2399 251.796 43.1618 251.601 43.1064C251.405 43.0479 251.202 43.0186 250.99 43.0186Z" fill="#FEFFFF"/>
<path d="M173.833 30.4167V18.25C173.833 8.17296 164.727 0 153.5 0C142.273 0 133.167 8.17296 133.167 18.25V30.4167H123V73H184V30.4167H173.833ZM156.889 53.9075V60.8333H150.111V53.9075C148.095 52.852 146.722 50.9145 146.722 48.6667C146.722 45.3087 149.759 42.5833 153.5 42.5833C157.241 42.5833 160.278 45.3087 160.278 48.6667C160.278 50.9114 158.909 52.852 156.889 53.9075ZM139.944 30.4167V18.25C139.944 11.5401 146.024 6.08333 153.5 6.08333C160.972 6.08333 167.056 11.5401 167.056 18.25V30.4167H139.944Z" fill="#716D6D"/>
</svg>
