<svg width="305" height="30" viewBox="0 0 305 30" fill="none" xmlns="http://www.w3.org/2000/svg">
<path d="M0 29V9H40.6101L46 18.6137L40.6101 29H0Z" fill="#98D0C8"/>
<path d="M49.3216 18.5652L44 9H84.3176L90 18.5652L84.3176 29H44L49.3216 18.5652Z" fill="#92DBA6"/>
<path d="M92.2059 18.5652L87 9H126.441L132 18.5652L126.441 29H87L92.2059 18.5652Z" fill="#9DE27C"/>
<path d="M134.322 18.5652L129 9H169.318L175 18.5652L169.318 29H129L134.322 18.5652Z" fill="#9ECB0A"/>
<path d="M177.322 18.5652L172 9H212.318L218 18.5652L212.318 29H172L177.322 18.5652Z" fill="#25AD32"/>
<path d="M38.8713 12.8832C40.5957 11.0347 42.2739 7.32904 40.6573 5.05035C39.5233 3.44512 37.2942 3.26184 34.0347 2.97629C32.9158 2.87845 31.4726 2.76096 29.6366 3.1479C28.122 3.45719 24.6473 4.17246 24.2219 6.03536C23.772 7.96873 26.622 11.0551 29.5876 11.8427C31.0125 12.2253 32.5057 12.0838 33.8087 13.3241C34.4911 13.9824 34.5803 14.4832 35.2057 14.7007C36.6441 15.1826 38.4985 13.284 38.8713 12.8832Z" fill="#98D0C8" stroke="#161616" stroke-width="0.230003" stroke-miterlimit="10"/>
<path d="M30.2085 9.55078V8.69629H32.0439V9.55078H30.2085ZM35.1475 11H34.0913V8.1084L34.1016 7.6333L34.1187 7.11377C33.9432 7.28923 33.8213 7.4043 33.7529 7.45898L33.1787 7.92041L32.6694 7.28467L34.2793 6.00293H35.1475V11Z" fill="white"/>
<path d="M85.8713 12.8832C87.5957 11.0347 89.2739 7.32904 87.6573 5.05035C86.5233 3.44512 84.2942 3.26184 81.0347 2.97629C79.9158 2.87845 78.4726 2.76096 76.6366 3.1479C75.122 3.45719 71.6473 4.17246 71.2219 6.03536C70.772 7.96873 73.622 11.0551 76.5876 11.8427C78.0125 12.2253 79.5057 12.0838 80.8087 13.3241C81.4911 13.9824 81.5803 14.4832 82.2057 14.7007C83.6441 15.1826 85.4985 13.284 85.8713 12.8832Z" fill="#92DBA6" stroke="#161616" stroke-width="0.230003" stroke-miterlimit="10"/>
<path d="M77.2085 9.55078V8.69629H79.0439V9.55078H77.2085ZM82.1475 11H81.0913V8.1084L81.1016 7.6333L81.1187 7.11377C80.9432 7.28923 80.8213 7.4043 80.7529 7.45898L80.1787 7.92041L79.6694 7.28467L81.2793 6.00293H82.1475V11Z" fill="white"/>
<path d="M125.871 12.8832C127.596 11.0347 129.274 7.32904 127.657 5.05035C126.523 3.44512 124.294 3.26184 121.035 2.97629C119.916 2.87845 118.473 2.76096 116.637 3.1479C115.122 3.45719 111.647 4.17246 111.222 6.03536C110.772 7.96873 113.622 11.0551 116.588 11.8427C118.012 12.2253 119.506 12.0838 120.809 13.3241C121.491 13.9824 121.58 14.4832 122.206 14.7007C123.644 15.1826 125.499 13.284 125.871 12.8832Z" fill="#9DE27C" stroke="#161616" stroke-width="0.230003" stroke-miterlimit="10"/>
<path d="M117.208 9.55078V8.69629H119.044V9.55078H117.208ZM123.029 11H119.536V10.2651L120.791 8.99707C121.162 8.61654 121.405 8.35335 121.519 8.20752C121.632 8.05941 121.715 7.92269 121.765 7.79736C121.815 7.67204 121.84 7.54215 121.84 7.40771C121.84 7.20719 121.784 7.05794 121.672 6.95996C121.563 6.86198 121.416 6.81299 121.231 6.81299C121.038 6.81299 120.85 6.85742 120.667 6.94629C120.485 7.03516 120.295 7.16162 120.097 7.32568L119.522 6.64551C119.769 6.43587 119.972 6.28776 120.134 6.20117C120.296 6.11458 120.473 6.0485 120.664 6.00293C120.855 5.95508 121.07 5.93115 121.307 5.93115C121.619 5.93115 121.895 5.98812 122.134 6.10205C122.373 6.21598 122.559 6.37549 122.691 6.58057C122.823 6.78564 122.889 7.02035 122.889 7.28467C122.889 7.51481 122.848 7.73128 122.766 7.93408C122.686 8.1346 122.561 8.34082 122.39 8.55273C122.222 8.76465 121.923 9.06657 121.495 9.4585L120.852 10.0635V10.1113H123.029V11Z" fill="white"/>
<path d="M169.871 12.8832C171.596 11.0347 173.274 7.32904 171.657 5.05035C170.523 3.44512 168.294 3.26184 165.035 2.97629C163.916 2.87845 162.473 2.76096 160.637 3.1479C159.122 3.45719 155.647 4.17246 155.222 6.03536C154.772 7.96873 157.622 11.0551 160.588 11.8427C162.012 12.2253 163.506 12.0838 164.809 13.3241C165.491 13.9824 165.58 14.4832 166.206 14.7007C167.644 15.1826 169.499 13.284 169.871 12.8832Z" fill="#9ECB0A" stroke="#161616" stroke-width="0.230003" stroke-miterlimit="10"/>
<path d="M161.208 9.55078V8.69629H163.044V9.55078H161.208ZM167.029 11H163.536V10.2651L164.791 8.99707C165.162 8.61654 165.405 8.35335 165.519 8.20752C165.632 8.05941 165.715 7.92269 165.765 7.79736C165.815 7.67204 165.84 7.54215 165.84 7.40771C165.84 7.20719 165.784 7.05794 165.672 6.95996C165.563 6.86198 165.416 6.81299 165.231 6.81299C165.038 6.81299 164.85 6.85742 164.667 6.94629C164.485 7.03516 164.295 7.16162 164.097 7.32568L163.522 6.64551C163.769 6.43587 163.972 6.28776 164.134 6.20117C164.296 6.11458 164.473 6.0485 164.664 6.00293C164.855 5.95508 165.07 5.93115 165.307 5.93115C165.619 5.93115 165.895 5.98812 166.134 6.10205C166.373 6.21598 166.559 6.37549 166.691 6.58057C166.823 6.78564 166.889 7.02035 166.889 7.28467C166.889 7.51481 166.848 7.73128 166.766 7.93408C166.686 8.1346 166.561 8.34082 166.39 8.55273C166.222 8.76465 165.923 9.06657 165.495 9.4585L164.852 10.0635V10.1113H167.029V11Z" fill="white"/>
<path d="M213.871 12.8832C215.596 11.0347 217.274 7.32904 215.657 5.05035C214.523 3.44512 212.294 3.26184 209.035 2.97629C207.916 2.87845 206.473 2.76096 204.637 3.1479C203.122 3.45719 199.647 4.17246 199.222 6.03536C198.772 7.96873 201.622 11.0551 204.588 11.8427C206.012 12.2253 207.506 12.0838 208.809 13.3241C209.491 13.9824 209.58 14.4832 210.206 14.7007C211.644 15.1826 213.499 13.284 213.871 12.8832Z" fill="#25AD32" stroke="#161616" stroke-width="0.230003" stroke-miterlimit="10"/>
<path d="M205.208 9.55078V8.69629H207.044V9.55078H205.208ZM210.834 7.12061C210.834 7.43278 210.74 7.69824 210.551 7.91699C210.362 8.13574 210.096 8.28613 209.754 8.36816V8.38867C210.158 8.4388 210.463 8.56185 210.67 8.75781C210.878 8.9515 210.981 9.21354 210.981 9.54395C210.981 10.0247 210.807 10.3996 210.458 10.6685C210.11 10.9351 209.612 11.0684 208.965 11.0684C208.423 11.0684 207.942 10.9784 207.522 10.7983V9.89941C207.716 9.9974 207.929 10.0771 208.162 10.1387C208.394 10.2002 208.624 10.231 208.852 10.231C209.201 10.231 209.458 10.1717 209.625 10.0532C209.791 9.93473 209.874 9.74447 209.874 9.48242C209.874 9.24772 209.778 9.08138 209.587 8.9834C209.396 8.88542 209.09 8.83643 208.671 8.83643H208.292V8.02637H208.678C209.065 8.02637 209.348 7.97624 209.525 7.87598C209.705 7.77344 209.795 7.59912 209.795 7.35303C209.795 6.97477 209.558 6.78564 209.084 6.78564C208.92 6.78564 208.753 6.81299 208.582 6.86768C208.413 6.92236 208.225 7.01693 208.018 7.15137L207.529 6.42334C207.985 6.09521 208.528 5.93115 209.16 5.93115C209.677 5.93115 210.085 6.03597 210.383 6.24561C210.684 6.45524 210.834 6.74691 210.834 7.12061Z" fill="white"/>
<path d="M13.2051 23H11.6963V18.8691L11.7109 18.1904L11.7354 17.4482C11.4847 17.6989 11.3105 17.8633 11.2129 17.9414L10.3926 18.6006L9.66504 17.6924L11.9648 15.8613H13.2051V23ZM17.7852 18.4395C18.4753 18.4395 19.0238 18.6331 19.4307 19.0205C19.8408 19.4079 20.0459 19.9385 20.0459 20.6123C20.0459 21.4098 19.8001 22.0234 19.3086 22.4531C18.8171 22.8828 18.1139 23.0977 17.1992 23.0977C16.4049 23.0977 15.7637 22.9691 15.2754 22.7119V21.4082C15.5326 21.5449 15.832 21.6572 16.1738 21.7451C16.5156 21.8298 16.8395 21.8721 17.1455 21.8721C18.0667 21.8721 18.5273 21.4945 18.5273 20.7393C18.5273 20.0199 18.0505 19.6602 17.0967 19.6602C16.9242 19.6602 16.7337 19.6781 16.5254 19.7139C16.3171 19.7464 16.1478 19.7822 16.0176 19.8213L15.417 19.499L15.6855 15.8613H19.5576V17.1406H17.0088L16.877 18.542L17.0479 18.5078C17.2464 18.4622 17.4922 18.4395 17.7852 18.4395ZM25.8516 19.4307C25.8516 20.6774 25.6465 21.6003 25.2363 22.1992C24.8294 22.7982 24.2012 23.0977 23.3516 23.0977C22.528 23.0977 21.9062 22.7884 21.4863 22.1699C21.0697 21.5514 20.8613 20.6383 20.8613 19.4307C20.8613 18.1709 21.0648 17.2432 21.4717 16.6475C21.8786 16.0485 22.5052 15.749 23.3516 15.749C24.1751 15.749 24.7969 16.0615 25.2168 16.6865C25.64 17.3115 25.8516 18.2262 25.8516 19.4307ZM22.3604 19.4307C22.3604 20.3063 22.4352 20.9346 22.585 21.3154C22.738 21.693 22.9935 21.8818 23.3516 21.8818C23.7031 21.8818 23.957 21.6898 24.1133 21.3057C24.2695 20.9215 24.3477 20.2965 24.3477 19.4307C24.3477 18.555 24.2679 17.9268 24.1084 17.5459C23.9521 17.1618 23.6999 16.9697 23.3516 16.9697C22.9967 16.9697 22.7428 17.1618 22.5898 17.5459C22.4368 17.9268 22.3604 18.555 22.3604 19.4307ZM30.1338 17.0186C29.7367 17.0186 29.4095 17.1341 29.1523 17.3652C28.8952 17.5931 28.7292 17.9251 28.6543 18.3613H30.6221V19.2207H28.5811L28.5713 19.3916V19.6211L28.5811 19.7822H30.3145V20.6514H28.6641C28.8301 21.4424 29.3525 21.8379 30.2314 21.8379C30.6969 21.8379 31.1445 21.7451 31.5742 21.5596V22.8096C31.1966 23.0016 30.7197 23.0977 30.1436 23.0977C29.346 23.0977 28.6901 22.8812 28.1758 22.4482C27.6615 22.0153 27.3376 21.4163 27.2041 20.6514H26.5352V19.7822H27.1113C27.0983 19.7074 27.0918 19.6064 27.0918 19.4795L27.1016 19.2207H26.5352V18.3613H27.1846C27.305 17.5736 27.6289 16.9518 28.1562 16.4961C28.6836 16.0371 29.3428 15.8076 30.1338 15.8076C30.7458 15.8076 31.3187 15.9411 31.8525 16.208L31.374 17.3408C31.1494 17.2399 30.9395 17.1618 30.7441 17.1064C30.5488 17.0479 30.3454 17.0186 30.1338 17.0186Z" fill="#F5FDFC"/>
<path d="M61.1865 17.458C61.1865 17.904 61.0514 18.2832 60.7812 18.5957C60.5111 18.9082 60.1318 19.123 59.6436 19.2402V19.2695C60.2197 19.3411 60.6559 19.5169 60.9521 19.7969C61.2484 20.0736 61.3965 20.4479 61.3965 20.9199C61.3965 21.6068 61.1475 22.1423 60.6494 22.5264C60.1514 22.9072 59.4401 23.0977 58.5156 23.0977C57.7409 23.0977 57.054 22.9691 56.4551 22.7119V21.4277C56.7318 21.5677 57.0361 21.6816 57.3682 21.7695C57.7002 21.8574 58.029 21.9014 58.3545 21.9014C58.8525 21.9014 59.2204 21.8167 59.458 21.6475C59.6956 21.4782 59.8145 21.2064 59.8145 20.832C59.8145 20.4967 59.6777 20.2591 59.4043 20.1191C59.1309 19.9792 58.6947 19.9092 58.0957 19.9092H57.5537V18.752H58.1055C58.6589 18.752 59.0625 18.6803 59.3164 18.5371C59.5736 18.3906 59.7021 18.1416 59.7021 17.79C59.7021 17.2497 59.3636 16.9795 58.6865 16.9795C58.4521 16.9795 58.2129 17.0186 57.9688 17.0967C57.7279 17.1748 57.4593 17.3099 57.1631 17.502L56.4648 16.4619C57.1159 15.9932 57.8923 15.7588 58.7939 15.7588C59.5329 15.7588 60.1156 15.9085 60.542 16.208C60.9717 16.5075 61.1865 16.9242 61.1865 17.458ZM67.1387 19.4307C67.1387 20.6774 66.9336 21.6003 66.5234 22.1992C66.1165 22.7982 65.4883 23.0977 64.6387 23.0977C63.8151 23.0977 63.1934 22.7884 62.7734 22.1699C62.3568 21.5514 62.1484 20.6383 62.1484 19.4307C62.1484 18.1709 62.3519 17.2432 62.7588 16.6475C63.1657 16.0485 63.7923 15.749 64.6387 15.749C65.4622 15.749 66.084 16.0615 66.5039 16.6865C66.9271 17.3115 67.1387 18.2262 67.1387 19.4307ZM63.6475 19.4307C63.6475 20.3063 63.7223 20.9346 63.8721 21.3154C64.0251 21.693 64.2806 21.8818 64.6387 21.8818C64.9902 21.8818 65.2441 21.6898 65.4004 21.3057C65.5566 20.9215 65.6348 20.2965 65.6348 19.4307C65.6348 18.555 65.555 17.9268 65.3955 17.5459C65.2393 17.1618 64.987 16.9697 64.6387 16.9697C64.2839 16.9697 64.0299 17.1618 63.877 17.5459C63.724 17.9268 63.6475 18.555 63.6475 19.4307ZM72.8516 19.4307C72.8516 20.6774 72.6465 21.6003 72.2363 22.1992C71.8294 22.7982 71.2012 23.0977 70.3516 23.0977C69.528 23.0977 68.9062 22.7884 68.4863 22.1699C68.0697 21.5514 67.8613 20.6383 67.8613 19.4307C67.8613 18.1709 68.0648 17.2432 68.4717 16.6475C68.8786 16.0485 69.5052 15.749 70.3516 15.749C71.1751 15.749 71.7969 16.0615 72.2168 16.6865C72.64 17.3115 72.8516 18.2262 72.8516 19.4307ZM69.3604 19.4307C69.3604 20.3063 69.4352 20.9346 69.585 21.3154C69.738 21.693 69.9935 21.8818 70.3516 21.8818C70.7031 21.8818 70.957 21.6898 71.1133 21.3057C71.2695 20.9215 71.3477 20.2965 71.3477 19.4307C71.3477 18.555 71.2679 17.9268 71.1084 17.5459C70.9521 17.1618 70.6999 16.9697 70.3516 16.9697C69.9967 16.9697 69.7428 17.1618 69.5898 17.5459C69.4368 17.9268 69.3604 18.555 69.3604 19.4307ZM77.1338 17.0186C76.7367 17.0186 76.4095 17.1341 76.1523 17.3652C75.8952 17.5931 75.7292 17.9251 75.6543 18.3613H77.6221V19.2207H75.5811L75.5713 19.3916V19.6211L75.5811 19.7822H77.3145V20.6514H75.6641C75.8301 21.4424 76.3525 21.8379 77.2314 21.8379C77.6969 21.8379 78.1445 21.7451 78.5742 21.5596V22.8096C78.1966 23.0016 77.7197 23.0977 77.1436 23.0977C76.346 23.0977 75.6901 22.8812 75.1758 22.4482C74.6615 22.0153 74.3376 21.4163 74.2041 20.6514H73.5352V19.7822H74.1113C74.0983 19.7074 74.0918 19.6064 74.0918 19.4795L74.1016 19.2207H73.5352V18.3613H74.1846C74.305 17.5736 74.6289 16.9518 75.1562 16.4961C75.6836 16.0371 76.3428 15.8076 77.1338 15.8076C77.7458 15.8076 78.3187 15.9411 78.8525 16.208L78.374 17.3408C78.1494 17.2399 77.9395 17.1618 77.7441 17.1064C77.5488 17.0479 77.3454 17.0186 77.1338 17.0186Z" fill="#FEFFFF"/>
<path d="M101.072 18.4395C101.762 18.4395 102.311 18.6331 102.718 19.0205C103.128 19.4079 103.333 19.9385 103.333 20.6123C103.333 21.4098 103.087 22.0234 102.596 22.4531C102.104 22.8828 101.401 23.0977 100.486 23.0977C99.6921 23.0977 99.0508 22.9691 98.5625 22.7119V21.4082C98.8197 21.5449 99.1191 21.6572 99.4609 21.7451C99.8027 21.8298 100.127 21.8721 100.433 21.8721C101.354 21.8721 101.814 21.4945 101.814 20.7393C101.814 20.0199 101.338 19.6602 100.384 19.6602C100.211 19.6602 100.021 19.6781 99.8125 19.7139C99.6042 19.7464 99.4349 19.7822 99.3047 19.8213L98.7041 19.499L98.9727 15.8613H102.845V17.1406H100.296L100.164 18.542L100.335 18.5078C100.534 18.4622 100.779 18.4395 101.072 18.4395ZM109.139 19.4307C109.139 20.6774 108.934 21.6003 108.523 22.1992C108.117 22.7982 107.488 23.0977 106.639 23.0977C105.815 23.0977 105.193 22.7884 104.773 22.1699C104.357 21.5514 104.148 20.6383 104.148 19.4307C104.148 18.1709 104.352 17.2432 104.759 16.6475C105.166 16.0485 105.792 15.749 106.639 15.749C107.462 15.749 108.084 16.0615 108.504 16.6865C108.927 17.3115 109.139 18.2262 109.139 19.4307ZM105.647 19.4307C105.647 20.3063 105.722 20.9346 105.872 21.3154C106.025 21.693 106.281 21.8818 106.639 21.8818C106.99 21.8818 107.244 21.6898 107.4 21.3057C107.557 20.9215 107.635 20.2965 107.635 19.4307C107.635 18.555 107.555 17.9268 107.396 17.5459C107.239 17.1618 106.987 16.9697 106.639 16.9697C106.284 16.9697 106.03 17.1618 105.877 17.5459C105.724 17.9268 105.647 18.555 105.647 19.4307ZM114.852 19.4307C114.852 20.6774 114.646 21.6003 114.236 22.1992C113.829 22.7982 113.201 23.0977 112.352 23.0977C111.528 23.0977 110.906 22.7884 110.486 22.1699C110.07 21.5514 109.861 20.6383 109.861 19.4307C109.861 18.1709 110.065 17.2432 110.472 16.6475C110.879 16.0485 111.505 15.749 112.352 15.749C113.175 15.749 113.797 16.0615 114.217 16.6865C114.64 17.3115 114.852 18.2262 114.852 19.4307ZM111.36 19.4307C111.36 20.3063 111.435 20.9346 111.585 21.3154C111.738 21.693 111.993 21.8818 112.352 21.8818C112.703 21.8818 112.957 21.6898 113.113 21.3057C113.27 20.9215 113.348 20.2965 113.348 19.4307C113.348 18.555 113.268 17.9268 113.108 17.5459C112.952 17.1618 112.7 16.9697 112.352 16.9697C111.997 16.9697 111.743 17.1618 111.59 17.5459C111.437 17.9268 111.36 18.555 111.36 19.4307ZM119.134 17.0186C118.737 17.0186 118.41 17.1341 118.152 17.3652C117.895 17.5931 117.729 17.9251 117.654 18.3613H119.622V19.2207H117.581L117.571 19.3916V19.6211L117.581 19.7822H119.314V20.6514H117.664C117.83 21.4424 118.353 21.8379 119.231 21.8379C119.697 21.8379 120.145 21.7451 120.574 21.5596V22.8096C120.197 23.0016 119.72 23.0977 119.144 23.0977C118.346 23.0977 117.69 22.8812 117.176 22.4482C116.661 22.0153 116.338 21.4163 116.204 20.6514H115.535V19.7822H116.111C116.098 19.7074 116.092 19.6064 116.092 19.4795L116.102 19.2207H115.535V18.3613H116.185C116.305 17.5736 116.629 16.9518 117.156 16.4961C117.684 16.0371 118.343 15.8076 119.134 15.8076C119.746 15.8076 120.319 15.9411 120.853 16.208L120.374 17.3408C120.149 17.2399 119.939 17.1618 119.744 17.1064C119.549 17.0479 119.345 17.0186 119.134 17.0186Z" fill="#FAFFFE"/>
<path d="M141.183 23L143.863 17.1406H140.343V15.8711H145.465V16.8184L142.765 23H141.183ZM148.785 18.4395C149.475 18.4395 150.024 18.6331 150.431 19.0205C150.841 19.4079 151.046 19.9385 151.046 20.6123C151.046 21.4098 150.8 22.0234 150.309 22.4531C149.817 22.8828 149.114 23.0977 148.199 23.0977C147.405 23.0977 146.764 22.9691 146.275 22.7119V21.4082C146.533 21.5449 146.832 21.6572 147.174 21.7451C147.516 21.8298 147.84 21.8721 148.146 21.8721C149.067 21.8721 149.527 21.4945 149.527 20.7393C149.527 20.0199 149.05 19.6602 148.097 19.6602C147.924 19.6602 147.734 19.6781 147.525 19.7139C147.317 19.7464 147.148 19.7822 147.018 19.8213L146.417 19.499L146.686 15.8613H150.558V17.1406H148.009L147.877 18.542L148.048 18.5078C148.246 18.4622 148.492 18.4395 148.785 18.4395ZM156.852 19.4307C156.852 20.6774 156.646 21.6003 156.236 22.1992C155.829 22.7982 155.201 23.0977 154.352 23.0977C153.528 23.0977 152.906 22.7884 152.486 22.1699C152.07 21.5514 151.861 20.6383 151.861 19.4307C151.861 18.1709 152.065 17.2432 152.472 16.6475C152.879 16.0485 153.505 15.749 154.352 15.749C155.175 15.749 155.797 16.0615 156.217 16.6865C156.64 17.3115 156.852 18.2262 156.852 19.4307ZM153.36 19.4307C153.36 20.3063 153.435 20.9346 153.585 21.3154C153.738 21.693 153.993 21.8818 154.352 21.8818C154.703 21.8818 154.957 21.6898 155.113 21.3057C155.27 20.9215 155.348 20.2965 155.348 19.4307C155.348 18.555 155.268 17.9268 155.108 17.5459C154.952 17.1618 154.7 16.9697 154.352 16.9697C153.997 16.9697 153.743 17.1618 153.59 17.5459C153.437 17.9268 153.36 18.555 153.36 19.4307ZM161.134 17.0186C160.737 17.0186 160.41 17.1341 160.152 17.3652C159.895 17.5931 159.729 17.9251 159.654 18.3613H161.622V19.2207H159.581L159.571 19.3916V19.6211L159.581 19.7822H161.314V20.6514H159.664C159.83 21.4424 160.353 21.8379 161.231 21.8379C161.697 21.8379 162.145 21.7451 162.574 21.5596V22.8096C162.197 23.0016 161.72 23.0977 161.144 23.0977C160.346 23.0977 159.69 22.8812 159.176 22.4482C158.661 22.0153 158.338 21.4163 158.204 20.6514H157.535V19.7822H158.111C158.098 19.7074 158.092 19.6064 158.092 19.4795L158.102 19.2207H157.535V18.3613H158.185C158.305 17.5736 158.629 16.9518 159.156 16.4961C159.684 16.0371 160.343 15.8076 161.134 15.8076C161.746 15.8076 162.319 15.9411 162.853 16.208L162.374 17.3408C162.149 17.2399 161.939 17.1618 161.744 17.1064C161.549 17.0479 161.345 17.0186 161.134 17.0186Z" fill="#F8FDFC"/>
<path d="M184.849 23H183.34V18.8691L183.354 18.1904L183.379 17.4482C183.128 17.6989 182.954 17.8633 182.856 17.9414L182.036 18.6006L181.309 17.6924L183.608 15.8613H184.849V23ZM191.782 19.4307C191.782 20.6774 191.577 21.6003 191.167 22.1992C190.76 22.7982 190.132 23.0977 189.282 23.0977C188.459 23.0977 187.837 22.7884 187.417 22.1699C187 21.5514 186.792 20.6383 186.792 19.4307C186.792 18.1709 186.995 17.2432 187.402 16.6475C187.809 16.0485 188.436 15.749 189.282 15.749C190.106 15.749 190.728 16.0615 191.147 16.6865C191.571 17.3115 191.782 18.2262 191.782 19.4307ZM188.291 19.4307C188.291 20.3063 188.366 20.9346 188.516 21.3154C188.669 21.693 188.924 21.8818 189.282 21.8818C189.634 21.8818 189.888 21.6898 190.044 21.3057C190.2 20.9215 190.278 20.2965 190.278 19.4307C190.278 18.555 190.199 17.9268 190.039 17.5459C189.883 17.1618 189.631 16.9697 189.282 16.9697C188.927 16.9697 188.674 17.1618 188.521 17.5459C188.368 17.9268 188.291 18.555 188.291 19.4307ZM197.495 19.4307C197.495 20.6774 197.29 21.6003 196.88 22.1992C196.473 22.7982 195.845 23.0977 194.995 23.0977C194.172 23.0977 193.55 22.7884 193.13 22.1699C192.713 21.5514 192.505 20.6383 192.505 19.4307C192.505 18.1709 192.708 17.2432 193.115 16.6475C193.522 16.0485 194.149 15.749 194.995 15.749C195.819 15.749 196.44 16.0615 196.86 16.6865C197.284 17.3115 197.495 18.2262 197.495 19.4307ZM194.004 19.4307C194.004 20.3063 194.079 20.9346 194.229 21.3154C194.382 21.693 194.637 21.8818 194.995 21.8818C195.347 21.8818 195.601 21.6898 195.757 21.3057C195.913 20.9215 195.991 20.2965 195.991 19.4307C195.991 18.555 195.911 17.9268 195.752 17.5459C195.596 17.1618 195.343 16.9697 194.995 16.9697C194.64 16.9697 194.386 17.1618 194.233 17.5459C194.08 17.9268 194.004 18.555 194.004 19.4307ZM203.208 19.4307C203.208 20.6774 203.003 21.6003 202.593 22.1992C202.186 22.7982 201.558 23.0977 200.708 23.0977C199.884 23.0977 199.263 22.7884 198.843 22.1699C198.426 21.5514 198.218 20.6383 198.218 19.4307C198.218 18.1709 198.421 17.2432 198.828 16.6475C199.235 16.0485 199.862 15.749 200.708 15.749C201.532 15.749 202.153 16.0615 202.573 16.6865C202.996 17.3115 203.208 18.2262 203.208 19.4307ZM199.717 19.4307C199.717 20.3063 199.792 20.9346 199.941 21.3154C200.094 21.693 200.35 21.8818 200.708 21.8818C201.06 21.8818 201.313 21.6898 201.47 21.3057C201.626 20.9215 201.704 20.2965 201.704 19.4307C201.704 18.555 201.624 17.9268 201.465 17.5459C201.309 17.1618 201.056 16.9697 200.708 16.9697C200.353 16.9697 200.099 17.1618 199.946 17.5459C199.793 17.9268 199.717 18.555 199.717 19.4307ZM207.49 17.0186C207.093 17.0186 206.766 17.1341 206.509 17.3652C206.252 17.5931 206.086 17.9251 206.011 18.3613H207.979V19.2207H205.938L205.928 19.3916V19.6211L205.938 19.7822H207.671V20.6514H206.021C206.187 21.4424 206.709 21.8379 207.588 21.8379C208.053 21.8379 208.501 21.7451 208.931 21.5596V22.8096C208.553 23.0016 208.076 23.0977 207.5 23.0977C206.702 23.0977 206.047 22.8812 205.532 22.4482C205.018 22.0153 204.694 21.4163 204.561 20.6514H203.892V19.7822H204.468C204.455 19.7074 204.448 19.6064 204.448 19.4795L204.458 19.2207H203.892V18.3613H204.541C204.661 17.5736 204.985 16.9518 205.513 16.4961C206.04 16.0371 206.699 15.8076 207.49 15.8076C208.102 15.8076 208.675 15.9411 209.209 16.208L208.73 17.3408C208.506 17.2399 208.296 17.1618 208.101 17.1064C207.905 17.0479 207.702 17.0186 207.49 17.0186Z" fill="#F8FDFC"/>
<path d="M0 29V9H40.6101L46 18.6137L40.6101 29H0Z" fill="#98D0C8"/>
<path d="M49.3216 18.5652L44 9H84.3176L90 18.5652L84.3176 29H44L49.3216 18.5652Z" fill="#92DBA6"/>
<path d="M92.2059 18.5652L87 9H126.441L132 18.5652L126.441 29H87L92.2059 18.5652Z" fill="#9DE27C"/>
<path d="M134.322 18.5652L129 9H169.318L175 18.5652L169.318 29H129L134.322 18.5652Z" fill="#9ECB0A"/>
<path d="M177.322 18.5652L172 9H212.318L218 18.5652L212.318 29H172L177.322 18.5652Z" fill="#25AD32"/>
<path d="M38.8713 12.8832C40.5957 11.0347 42.2739 7.32904 40.6573 5.05035C39.5233 3.44512 37.2942 3.26184 34.0347 2.97629C32.9158 2.87845 31.4726 2.76096 29.6366 3.1479C28.122 3.45719 24.6473 4.17246 24.2219 6.03536C23.772 7.96873 26.622 11.0551 29.5876 11.8427C31.0125 12.2253 32.5057 12.0838 33.8087 13.3241C34.4911 13.9824 34.5803 14.4832 35.2057 14.7007C36.6441 15.1826 38.4985 13.284 38.8713 12.8832Z" fill="#98D0C8" stroke="#161616" stroke-width="0.230003" stroke-miterlimit="10"/>
<path d="M30.2085 9.55078V8.69629H32.0439V9.55078H30.2085ZM35.1475 11H34.0913V8.1084L34.1016 7.6333L34.1187 7.11377C33.9432 7.28923 33.8213 7.4043 33.7529 7.45898L33.1787 7.92041L32.6694 7.28467L34.2793 6.00293H35.1475V11Z" fill="white"/>
<path d="M85.8713 12.8832C87.5957 11.0347 89.2739 7.32904 87.6573 5.05035C86.5233 3.44512 84.2942 3.26184 81.0347 2.97629C79.9158 2.87845 78.4726 2.76096 76.6366 3.1479C75.122 3.45719 71.6473 4.17246 71.2219 6.03536C70.772 7.96873 73.622 11.0551 76.5876 11.8427C78.0125 12.2253 79.5057 12.0838 80.8087 13.3241C81.4911 13.9824 81.5803 14.4832 82.2057 14.7007C83.6441 15.1826 85.4985 13.284 85.8713 12.8832Z" fill="#92DBA6" stroke="#161616" stroke-width="0.230003" stroke-miterlimit="10"/>
<path d="M77.2085 9.55078V8.69629H79.0439V9.55078H77.2085ZM82.1475 11H81.0913V8.1084L81.1016 7.6333L81.1187 7.11377C80.9432 7.28923 80.8213 7.4043 80.7529 7.45898L80.1787 7.92041L79.6694 7.28467L81.2793 6.00293H82.1475V11Z" fill="white"/>
<path d="M125.871 12.8832C127.596 11.0347 129.274 7.32904 127.657 5.05035C126.523 3.44512 124.294 3.26184 121.035 2.97629C119.916 2.87845 118.473 2.76096 116.637 3.1479C115.122 3.45719 111.647 4.17246 111.222 6.03536C110.772 7.96873 113.622 11.0551 116.588 11.8427C118.012 12.2253 119.506 12.0838 120.809 13.3241C121.491 13.9824 121.58 14.4832 122.206 14.7007C123.644 15.1826 125.499 13.284 125.871 12.8832Z" fill="#9DE27C" stroke="#161616" stroke-width="0.230003" stroke-miterlimit="10"/>
<path d="M117.208 9.55078V8.69629H119.044V9.55078H117.208ZM123.029 11H119.536V10.2651L120.791 8.99707C121.162 8.61654 121.405 8.35335 121.519 8.20752C121.632 8.05941 121.715 7.92269 121.765 7.79736C121.815 7.67204 121.84 7.54215 121.84 7.40771C121.84 7.20719 121.784 7.05794 121.672 6.95996C121.563 6.86198 121.416 6.81299 121.231 6.81299C121.038 6.81299 120.85 6.85742 120.667 6.94629C120.485 7.03516 120.295 7.16162 120.097 7.32568L119.522 6.64551C119.769 6.43587 119.972 6.28776 120.134 6.20117C120.296 6.11458 120.473 6.0485 120.664 6.00293C120.855 5.95508 121.07 5.93115 121.307 5.93115C121.619 5.93115 121.895 5.98812 122.134 6.10205C122.373 6.21598 122.559 6.37549 122.691 6.58057C122.823 6.78564 122.889 7.02035 122.889 7.28467C122.889 7.51481 122.848 7.73128 122.766 7.93408C122.686 8.1346 122.561 8.34082 122.39 8.55273C122.222 8.76465 121.923 9.06657 121.495 9.4585L120.852 10.0635V10.1113H123.029V11Z" fill="white"/>
<path d="M169.871 12.8832C171.596 11.0347 173.274 7.32904 171.657 5.05035C170.523 3.44512 168.294 3.26184 165.035 2.97629C163.916 2.87845 162.473 2.76096 160.637 3.1479C159.122 3.45719 155.647 4.17246 155.222 6.03536C154.772 7.96873 157.622 11.0551 160.588 11.8427C162.012 12.2253 163.506 12.0838 164.809 13.3241C165.491 13.9824 165.58 14.4832 166.206 14.7007C167.644 15.1826 169.499 13.284 169.871 12.8832Z" fill="#9ECB0A" stroke="#161616" stroke-width="0.230003" stroke-miterlimit="10"/>
<path d="M161.208 9.55078V8.69629H163.044V9.55078H161.208ZM167.029 11H163.536V10.2651L164.791 8.99707C165.162 8.61654 165.405 8.35335 165.519 8.20752C165.632 8.05941 165.715 7.92269 165.765 7.79736C165.815 7.67204 165.84 7.54215 165.84 7.40771C165.84 7.20719 165.784 7.05794 165.672 6.95996C165.563 6.86198 165.416 6.81299 165.231 6.81299C165.038 6.81299 164.85 6.85742 164.667 6.94629C164.485 7.03516 164.295 7.16162 164.097 7.32568L163.522 6.64551C163.769 6.43587 163.972 6.28776 164.134 6.20117C164.296 6.11458 164.473 6.0485 164.664 6.00293C164.855 5.95508 165.07 5.93115 165.307 5.93115C165.619 5.93115 165.895 5.98812 166.134 6.10205C166.373 6.21598 166.559 6.37549 166.691 6.58057C166.823 6.78564 166.889 7.02035 166.889 7.28467C166.889 7.51481 166.848 7.73128 166.766 7.93408C166.686 8.1346 166.561 8.34082 166.39 8.55273C166.222 8.76465 165.923 9.06657 165.495 9.4585L164.852 10.0635V10.1113H167.029V11Z" fill="white"/>
<path d="M213.871 12.8832C215.596 11.0347 217.274 7.32904 215.657 5.05035C214.523 3.44512 212.294 3.26184 209.035 2.97629C207.916 2.87845 206.473 2.76096 204.637 3.1479C203.122 3.45719 199.647 4.17246 199.222 6.03536C198.772 7.96873 201.622 11.0551 204.588 11.8427C206.012 12.2253 207.506 12.0838 208.809 13.3241C209.491 13.9824 209.58 14.4832 210.206 14.7007C211.644 15.1826 213.499 13.284 213.871 12.8832Z" fill="#25AD32" stroke="#161616" stroke-width="0.230003" stroke-miterlimit="10"/>
<path d="M205.208 9.55078V8.69629H207.044V9.55078H205.208ZM210.834 7.12061C210.834 7.43278 210.74 7.69824 210.551 7.91699C210.362 8.13574 210.096 8.28613 209.754 8.36816V8.38867C210.158 8.4388 210.463 8.56185 210.67 8.75781C210.878 8.9515 210.981 9.21354 210.981 9.54395C210.981 10.0247 210.807 10.3996 210.458 10.6685C210.11 10.9351 209.612 11.0684 208.965 11.0684C208.423 11.0684 207.942 10.9784 207.522 10.7983V9.89941C207.716 9.9974 207.929 10.0771 208.162 10.1387C208.394 10.2002 208.624 10.231 208.852 10.231C209.201 10.231 209.458 10.1717 209.625 10.0532C209.791 9.93473 209.874 9.74447 209.874 9.48242C209.874 9.24772 209.778 9.08138 209.587 8.9834C209.396 8.88542 209.09 8.83643 208.671 8.83643H208.292V8.02637H208.678C209.065 8.02637 209.348 7.97624 209.525 7.87598C209.705 7.77344 209.795 7.59912 209.795 7.35303C209.795 6.97477 209.558 6.78564 209.084 6.78564C208.92 6.78564 208.753 6.81299 208.582 6.86768C208.413 6.92236 208.225 7.01693 208.018 7.15137L207.529 6.42334C207.985 6.09521 208.528 5.93115 209.16 5.93115C209.677 5.93115 210.085 6.03597 210.383 6.24561C210.684 6.45524 210.834 6.74691 210.834 7.12061Z" fill="white"/>
<path d="M13.2051 23H11.6963V18.8691L11.7109 18.1904L11.7354 17.4482C11.4847 17.6989 11.3105 17.8633 11.2129 17.9414L10.3926 18.6006L9.66504 17.6924L11.9648 15.8613H13.2051V23ZM17.7852 18.4395C18.4753 18.4395 19.0238 18.6331 19.4307 19.0205C19.8408 19.4079 20.0459 19.9385 20.0459 20.6123C20.0459 21.4098 19.8001 22.0234 19.3086 22.4531C18.8171 22.8828 18.1139 23.0977 17.1992 23.0977C16.4049 23.0977 15.7637 22.9691 15.2754 22.7119V21.4082C15.5326 21.5449 15.832 21.6572 16.1738 21.7451C16.5156 21.8298 16.8395 21.8721 17.1455 21.8721C18.0667 21.8721 18.5273 21.4945 18.5273 20.7393C18.5273 20.0199 18.0505 19.6602 17.0967 19.6602C16.9242 19.6602 16.7337 19.6781 16.5254 19.7139C16.3171 19.7464 16.1478 19.7822 16.0176 19.8213L15.417 19.499L15.6855 15.8613H19.5576V17.1406H17.0088L16.877 18.542L17.0479 18.5078C17.2464 18.4622 17.4922 18.4395 17.7852 18.4395ZM25.8516 19.4307C25.8516 20.6774 25.6465 21.6003 25.2363 22.1992C24.8294 22.7982 24.2012 23.0977 23.3516 23.0977C22.528 23.0977 21.9062 22.7884 21.4863 22.1699C21.0697 21.5514 20.8613 20.6383 20.8613 19.4307C20.8613 18.1709 21.0648 17.2432 21.4717 16.6475C21.8786 16.0485 22.5052 15.749 23.3516 15.749C24.1751 15.749 24.7969 16.0615 25.2168 16.6865C25.64 17.3115 25.8516 18.2262 25.8516 19.4307ZM22.3604 19.4307C22.3604 20.3063 22.4352 20.9346 22.585 21.3154C22.738 21.693 22.9935 21.8818 23.3516 21.8818C23.7031 21.8818 23.957 21.6898 24.1133 21.3057C24.2695 20.9215 24.3477 20.2965 24.3477 19.4307C24.3477 18.555 24.2679 17.9268 24.1084 17.5459C23.9521 17.1618 23.6999 16.9697 23.3516 16.9697C22.9967 16.9697 22.7428 17.1618 22.5898 17.5459C22.4368 17.9268 22.3604 18.555 22.3604 19.4307ZM30.1338 17.0186C29.7367 17.0186 29.4095 17.1341 29.1523 17.3652C28.8952 17.5931 28.7292 17.9251 28.6543 18.3613H30.6221V19.2207H28.5811L28.5713 19.3916V19.6211L28.5811 19.7822H30.3145V20.6514H28.6641C28.8301 21.4424 29.3525 21.8379 30.2314 21.8379C30.6969 21.8379 31.1445 21.7451 31.5742 21.5596V22.8096C31.1966 23.0016 30.7197 23.0977 30.1436 23.0977C29.346 23.0977 28.6901 22.8812 28.1758 22.4482C27.6615 22.0153 27.3376 21.4163 27.2041 20.6514H26.5352V19.7822H27.1113C27.0983 19.7074 27.0918 19.6064 27.0918 19.4795L27.1016 19.2207H26.5352V18.3613H27.1846C27.305 17.5736 27.6289 16.9518 28.1562 16.4961C28.6836 16.0371 29.3428 15.8076 30.1338 15.8076C30.7458 15.8076 31.3187 15.9411 31.8525 16.208L31.374 17.3408C31.1494 17.2399 30.9395 17.1618 30.7441 17.1064C30.5488 17.0479 30.3454 17.0186 30.1338 17.0186Z" fill="#F5FDFC"/>
<path d="M61.1865 17.458C61.1865 17.904 61.0514 18.2832 60.7812 18.5957C60.5111 18.9082 60.1318 19.123 59.6436 19.2402V19.2695C60.2197 19.3411 60.6559 19.5169 60.9521 19.7969C61.2484 20.0736 61.3965 20.4479 61.3965 20.9199C61.3965 21.6068 61.1475 22.1423 60.6494 22.5264C60.1514 22.9072 59.4401 23.0977 58.5156 23.0977C57.7409 23.0977 57.054 22.9691 56.4551 22.7119V21.4277C56.7318 21.5677 57.0361 21.6816 57.3682 21.7695C57.7002 21.8574 58.029 21.9014 58.3545 21.9014C58.8525 21.9014 59.2204 21.8167 59.458 21.6475C59.6956 21.4782 59.8145 21.2064 59.8145 20.832C59.8145 20.4967 59.6777 20.2591 59.4043 20.1191C59.1309 19.9792 58.6947 19.9092 58.0957 19.9092H57.5537V18.752H58.1055C58.6589 18.752 59.0625 18.6803 59.3164 18.5371C59.5736 18.3906 59.7021 18.1416 59.7021 17.79C59.7021 17.2497 59.3636 16.9795 58.6865 16.9795C58.4521 16.9795 58.2129 17.0186 57.9688 17.0967C57.7279 17.1748 57.4593 17.3099 57.1631 17.502L56.4648 16.4619C57.1159 15.9932 57.8923 15.7588 58.7939 15.7588C59.5329 15.7588 60.1156 15.9085 60.542 16.208C60.9717 16.5075 61.1865 16.9242 61.1865 17.458ZM67.1387 19.4307C67.1387 20.6774 66.9336 21.6003 66.5234 22.1992C66.1165 22.7982 65.4883 23.0977 64.6387 23.0977C63.8151 23.0977 63.1934 22.7884 62.7734 22.1699C62.3568 21.5514 62.1484 20.6383 62.1484 19.4307C62.1484 18.1709 62.3519 17.2432 62.7588 16.6475C63.1657 16.0485 63.7923 15.749 64.6387 15.749C65.4622 15.749 66.084 16.0615 66.5039 16.6865C66.9271 17.3115 67.1387 18.2262 67.1387 19.4307ZM63.6475 19.4307C63.6475 20.3063 63.7223 20.9346 63.8721 21.3154C64.0251 21.693 64.2806 21.8818 64.6387 21.8818C64.9902 21.8818 65.2441 21.6898 65.4004 21.3057C65.5566 20.9215 65.6348 20.2965 65.6348 19.4307C65.6348 18.555 65.555 17.9268 65.3955 17.5459C65.2393 17.1618 64.987 16.9697 64.6387 16.9697C64.2839 16.9697 64.0299 17.1618 63.877 17.5459C63.724 17.9268 63.6475 18.555 63.6475 19.4307ZM72.8516 19.4307C72.8516 20.6774 72.6465 21.6003 72.2363 22.1992C71.8294 22.7982 71.2012 23.0977 70.3516 23.0977C69.528 23.0977 68.9062 22.7884 68.4863 22.1699C68.0697 21.5514 67.8613 20.6383 67.8613 19.4307C67.8613 18.1709 68.0648 17.2432 68.4717 16.6475C68.8786 16.0485 69.5052 15.749 70.3516 15.749C71.1751 15.749 71.7969 16.0615 72.2168 16.6865C72.64 17.3115 72.8516 18.2262 72.8516 19.4307ZM69.3604 19.4307C69.3604 20.3063 69.4352 20.9346 69.585 21.3154C69.738 21.693 69.9935 21.8818 70.3516 21.8818C70.7031 21.8818 70.957 21.6898 71.1133 21.3057C71.2695 20.9215 71.3477 20.2965 71.3477 19.4307C71.3477 18.555 71.2679 17.9268 71.1084 17.5459C70.9521 17.1618 70.6999 16.9697 70.3516 16.9697C69.9967 16.9697 69.7428 17.1618 69.5898 17.5459C69.4368 17.9268 69.3604 18.555 69.3604 19.4307ZM77.1338 17.0186C76.7367 17.0186 76.4095 17.1341 76.1523 17.3652C75.8952 17.5931 75.7292 17.9251 75.6543 18.3613H77.6221V19.2207H75.5811L75.5713 19.3916V19.6211L75.5811 19.7822H77.3145V20.6514H75.6641C75.8301 21.4424 76.3525 21.8379 77.2314 21.8379C77.6969 21.8379 78.1445 21.7451 78.5742 21.5596V22.8096C78.1966 23.0016 77.7197 23.0977 77.1436 23.0977C76.346 23.0977 75.6901 22.8812 75.1758 22.4482C74.6615 22.0153 74.3376 21.4163 74.2041 20.6514H73.5352V19.7822H74.1113C74.0983 19.7074 74.0918 19.6064 74.0918 19.4795L74.1016 19.2207H73.5352V18.3613H74.1846C74.305 17.5736 74.6289 16.9518 75.1562 16.4961C75.6836 16.0371 76.3428 15.8076 77.1338 15.8076C77.7458 15.8076 78.3187 15.9411 78.8525 16.208L78.374 17.3408C78.1494 17.2399 77.9395 17.1618 77.7441 17.1064C77.5488 17.0479 77.3454 17.0186 77.1338 17.0186Z" fill="#FEFFFF"/>
<path d="M101.072 18.4395C101.762 18.4395 102.311 18.6331 102.718 19.0205C103.128 19.4079 103.333 19.9385 103.333 20.6123C103.333 21.4098 103.087 22.0234 102.596 22.4531C102.104 22.8828 101.401 23.0977 100.486 23.0977C99.6921 23.0977 99.0508 22.9691 98.5625 22.7119V21.4082C98.8197 21.5449 99.1191 21.6572 99.4609 21.7451C99.8027 21.8298 100.127 21.8721 100.433 21.8721C101.354 21.8721 101.814 21.4945 101.814 20.7393C101.814 20.0199 101.338 19.6602 100.384 19.6602C100.211 19.6602 100.021 19.6781 99.8125 19.7139C99.6042 19.7464 99.4349 19.7822 99.3047 19.8213L98.7041 19.499L98.9727 15.8613H102.845V17.1406H100.296L100.164 18.542L100.335 18.5078C100.534 18.4622 100.779 18.4395 101.072 18.4395ZM109.139 19.4307C109.139 20.6774 108.934 21.6003 108.523 22.1992C108.117 22.7982 107.488 23.0977 106.639 23.0977C105.815 23.0977 105.193 22.7884 104.773 22.1699C104.357 21.5514 104.148 20.6383 104.148 19.4307C104.148 18.1709 104.352 17.2432 104.759 16.6475C105.166 16.0485 105.792 15.749 106.639 15.749C107.462 15.749 108.084 16.0615 108.504 16.6865C108.927 17.3115 109.139 18.2262 109.139 19.4307ZM105.647 19.4307C105.647 20.3063 105.722 20.9346 105.872 21.3154C106.025 21.693 106.281 21.8818 106.639 21.8818C106.99 21.8818 107.244 21.6898 107.4 21.3057C107.557 20.9215 107.635 20.2965 107.635 19.4307C107.635 18.555 107.555 17.9268 107.396 17.5459C107.239 17.1618 106.987 16.9697 106.639 16.9697C106.284 16.9697 106.03 17.1618 105.877 17.5459C105.724 17.9268 105.647 18.555 105.647 19.4307ZM114.852 19.4307C114.852 20.6774 114.646 21.6003 114.236 22.1992C113.829 22.7982 113.201 23.0977 112.352 23.0977C111.528 23.0977 110.906 22.7884 110.486 22.1699C110.07 21.5514 109.861 20.6383 109.861 19.4307C109.861 18.1709 110.065 17.2432 110.472 16.6475C110.879 16.0485 111.505 15.749 112.352 15.749C113.175 15.749 113.797 16.0615 114.217 16.6865C114.64 17.3115 114.852 18.2262 114.852 19.4307ZM111.36 19.4307C111.36 20.3063 111.435 20.9346 111.585 21.3154C111.738 21.693 111.993 21.8818 112.352 21.8818C112.703 21.8818 112.957 21.6898 113.113 21.3057C113.27 20.9215 113.348 20.2965 113.348 19.4307C113.348 18.555 113.268 17.9268 113.108 17.5459C112.952 17.1618 112.7 16.9697 112.352 16.9697C111.997 16.9697 111.743 17.1618 111.59 17.5459C111.437 17.9268 111.36 18.555 111.36 19.4307ZM119.134 17.0186C118.737 17.0186 118.41 17.1341 118.152 17.3652C117.895 17.5931 117.729 17.9251 117.654 18.3613H119.622V19.2207H117.581L117.571 19.3916V19.6211L117.581 19.7822H119.314V20.6514H117.664C117.83 21.4424 118.353 21.8379 119.231 21.8379C119.697 21.8379 120.145 21.7451 120.574 21.5596V22.8096C120.197 23.0016 119.72 23.0977 119.144 23.0977C118.346 23.0977 117.69 22.8812 117.176 22.4482C116.661 22.0153 116.338 21.4163 116.204 20.6514H115.535V19.7822H116.111C116.098 19.7074 116.092 19.6064 116.092 19.4795L116.102 19.2207H115.535V18.3613H116.185C116.305 17.5736 116.629 16.9518 117.156 16.4961C117.684 16.0371 118.343 15.8076 119.134 15.8076C119.746 15.8076 120.319 15.9411 120.853 16.208L120.374 17.3408C120.149 17.2399 119.939 17.1618 119.744 17.1064C119.549 17.0479 119.345 17.0186 119.134 17.0186Z" fill="#FAFFFE"/>
<path d="M141.183 23L143.863 17.1406H140.343V15.8711H145.465V16.8184L142.765 23H141.183ZM148.785 18.4395C149.475 18.4395 150.024 18.6331 150.431 19.0205C150.841 19.4079 151.046 19.9385 151.046 20.6123C151.046 21.4098 150.8 22.0234 150.309 22.4531C149.817 22.8828 149.114 23.0977 148.199 23.0977C147.405 23.0977 146.764 22.9691 146.275 22.7119V21.4082C146.533 21.5449 146.832 21.6572 147.174 21.7451C147.516 21.8298 147.84 21.8721 148.146 21.8721C149.067 21.8721 149.527 21.4945 149.527 20.7393C149.527 20.0199 149.05 19.6602 148.097 19.6602C147.924 19.6602 147.734 19.6781 147.525 19.7139C147.317 19.7464 147.148 19.7822 147.018 19.8213L146.417 19.499L146.686 15.8613H150.558V17.1406H148.009L147.877 18.542L148.048 18.5078C148.246 18.4622 148.492 18.4395 148.785 18.4395ZM156.852 19.4307C156.852 20.6774 156.646 21.6003 156.236 22.1992C155.829 22.7982 155.201 23.0977 154.352 23.0977C153.528 23.0977 152.906 22.7884 152.486 22.1699C152.07 21.5514 151.861 20.6383 151.861 19.4307C151.861 18.1709 152.065 17.2432 152.472 16.6475C152.879 16.0485 153.505 15.749 154.352 15.749C155.175 15.749 155.797 16.0615 156.217 16.6865C156.64 17.3115 156.852 18.2262 156.852 19.4307ZM153.36 19.4307C153.36 20.3063 153.435 20.9346 153.585 21.3154C153.738 21.693 153.993 21.8818 154.352 21.8818C154.703 21.8818 154.957 21.6898 155.113 21.3057C155.27 20.9215 155.348 20.2965 155.348 19.4307C155.348 18.555 155.268 17.9268 155.108 17.5459C154.952 17.1618 154.7 16.9697 154.352 16.9697C153.997 16.9697 153.743 17.1618 153.59 17.5459C153.437 17.9268 153.36 18.555 153.36 19.4307ZM161.134 17.0186C160.737 17.0186 160.41 17.1341 160.152 17.3652C159.895 17.5931 159.729 17.9251 159.654 18.3613H161.622V19.2207H159.581L159.571 19.3916V19.6211L159.581 19.7822H161.314V20.6514H159.664C159.83 21.4424 160.353 21.8379 161.231 21.8379C161.697 21.8379 162.145 21.7451 162.574 21.5596V22.8096C162.197 23.0016 161.72 23.0977 161.144 23.0977C160.346 23.0977 159.69 22.8812 159.176 22.4482C158.661 22.0153 158.338 21.4163 158.204 20.6514H157.535V19.7822H158.111C158.098 19.7074 158.092 19.6064 158.092 19.4795L158.102 19.2207H157.535V18.3613H158.185C158.305 17.5736 158.629 16.9518 159.156 16.4961C159.684 16.0371 160.343 15.8076 161.134 15.8076C161.746 15.8076 162.319 15.9411 162.853 16.208L162.374 17.3408C162.149 17.2399 161.939 17.1618 161.744 17.1064C161.549 17.0479 161.345 17.0186 161.134 17.0186Z" fill="#F8FDFC"/>
<path d="M184.849 23H183.34V18.8691L183.354 18.1904L183.379 17.4482C183.128 17.6989 182.954 17.8633 182.856 17.9414L182.036 18.6006L181.309 17.6924L183.608 15.8613H184.849V23ZM191.782 19.4307C191.782 20.6774 191.577 21.6003 191.167 22.1992C190.76 22.7982 190.132 23.0977 189.282 23.0977C188.459 23.0977 187.837 22.7884 187.417 22.1699C187 21.5514 186.792 20.6383 186.792 19.4307C186.792 18.1709 186.995 17.2432 187.402 16.6475C187.809 16.0485 188.436 15.749 189.282 15.749C190.106 15.749 190.728 16.0615 191.147 16.6865C191.571 17.3115 191.782 18.2262 191.782 19.4307ZM188.291 19.4307C188.291 20.3063 188.366 20.9346 188.516 21.3154C188.669 21.693 188.924 21.8818 189.282 21.8818C189.634 21.8818 189.888 21.6898 190.044 21.3057C190.2 20.9215 190.278 20.2965 190.278 19.4307C190.278 18.555 190.199 17.9268 190.039 17.5459C189.883 17.1618 189.631 16.9697 189.282 16.9697C188.927 16.9697 188.674 17.1618 188.521 17.5459C188.368 17.9268 188.291 18.555 188.291 19.4307ZM197.495 19.4307C197.495 20.6774 197.29 21.6003 196.88 22.1992C196.473 22.7982 195.845 23.0977 194.995 23.0977C194.172 23.0977 193.55 22.7884 193.13 22.1699C192.713 21.5514 192.505 20.6383 192.505 19.4307C192.505 18.1709 192.708 17.2432 193.115 16.6475C193.522 16.0485 194.149 15.749 194.995 15.749C195.819 15.749 196.44 16.0615 196.86 16.6865C197.284 17.3115 197.495 18.2262 197.495 19.4307ZM194.004 19.4307C194.004 20.3063 194.079 20.9346 194.229 21.3154C194.382 21.693 194.637 21.8818 194.995 21.8818C195.347 21.8818 195.601 21.6898 195.757 21.3057C195.913 20.9215 195.991 20.2965 195.991 19.4307C195.991 18.555 195.911 17.9268 195.752 17.5459C195.596 17.1618 195.343 16.9697 194.995 16.9697C194.64 16.9697 194.386 17.1618 194.233 17.5459C194.08 17.9268 194.004 18.555 194.004 19.4307ZM203.208 19.4307C203.208 20.6774 203.003 21.6003 202.593 22.1992C202.186 22.7982 201.558 23.0977 200.708 23.0977C199.884 23.0977 199.263 22.7884 198.843 22.1699C198.426 21.5514 198.218 20.6383 198.218 19.4307C198.218 18.1709 198.421 17.2432 198.828 16.6475C199.235 16.0485 199.862 15.749 200.708 15.749C201.532 15.749 202.153 16.0615 202.573 16.6865C202.996 17.3115 203.208 18.2262 203.208 19.4307ZM199.717 19.4307C199.717 20.3063 199.792 20.9346 199.941 21.3154C200.094 21.693 200.35 21.8818 200.708 21.8818C201.06 21.8818 201.313 21.6898 201.47 21.3057C201.626 20.9215 201.704 20.2965 201.704 19.4307C201.704 18.555 201.624 17.9268 201.465 17.5459C201.309 17.1618 201.056 16.9697 200.708 16.9697C200.353 16.9697 200.099 17.1618 199.946 17.5459C199.793 17.9268 199.717 18.555 199.717 19.4307ZM207.49 17.0186C207.093 17.0186 206.766 17.1341 206.509 17.3652C206.252 17.5931 206.086 17.9251 206.011 18.3613H207.979V19.2207H205.938L205.928 19.3916V19.6211L205.938 19.7822H207.671V20.6514H206.021C206.187 21.4424 206.709 21.8379 207.588 21.8379C208.053 21.8379 208.501 21.7451 208.931 21.5596V22.8096C208.553 23.0016 208.076 23.0977 207.5 23.0977C206.702 23.0977 206.047 22.8812 205.532 22.4482C205.018 22.0153 204.694 21.4163 204.561 20.6514H203.892V19.7822H204.468C204.455 19.7074 204.448 19.6064 204.448 19.4795L204.458 19.2207H203.892V18.3613H204.541C204.661 17.5736 204.985 16.9518 205.513 16.4961C206.04 16.0371 206.699 15.8076 207.49 15.8076C208.102 15.8076 208.675 15.9411 209.209 16.208L208.73 17.3408C208.506 17.2399 208.296 17.1618 208.101 17.1064C207.905 17.0479 207.702 17.0186 207.49 17.0186Z" fill="#F8FDFC"/>
<path d="M263.322 19.5652L258 10H298.318L304 19.5652L298.318 30H258L263.322 19.5652Z" fill="#C4C4C4"/>
<path d="M300.871 13.8832C302.596 12.0347 304.274 8.32904 302.657 6.05035C301.523 4.44512 299.294 4.26184 296.035 3.97629C294.916 3.87845 293.473 3.76096 291.637 4.1479C290.122 4.45719 286.647 5.17246 286.222 7.03536C285.772 8.96873 288.622 12.0551 291.588 12.8427C293.012 13.2253 294.506 13.0838 295.809 14.3241C296.491 14.9824 296.58 15.4832 297.206 15.7007C298.644 16.1826 300.499 14.284 300.871 13.8832Z" fill="#C4C4C4" stroke="black" stroke-width="0.230003" stroke-miterlimit="10"/>
<path d="M276.294 23.3018C276.294 23.0283 276.367 22.8216 276.514 22.6816C276.66 22.5417 276.873 22.4717 277.153 22.4717C277.424 22.4717 277.632 22.5433 277.778 22.6865C277.928 22.8298 278.003 23.0348 278.003 23.3018C278.003 23.5589 277.928 23.7624 277.778 23.9121C277.629 24.0586 277.42 24.1318 277.153 24.1318C276.88 24.1318 276.668 24.0602 276.519 23.917C276.369 23.7705 276.294 23.5654 276.294 23.3018ZM279.146 23.3018C279.146 23.0283 279.219 22.8216 279.365 22.6816C279.512 22.5417 279.725 22.4717 280.005 22.4717C280.275 22.4717 280.483 22.5433 280.63 22.6865C280.78 22.8298 280.854 23.0348 280.854 23.3018C280.854 23.5589 280.78 23.7624 280.63 23.9121C280.48 24.0586 280.272 24.1318 280.005 24.1318C279.731 24.1318 279.52 24.0602 279.37 23.917C279.22 23.7705 279.146 23.5654 279.146 23.3018ZM281.997 23.3018C281.997 23.0283 282.07 22.8216 282.217 22.6816C282.363 22.5417 282.576 22.4717 282.856 22.4717C283.127 22.4717 283.335 22.5433 283.481 22.6865C283.631 22.8298 283.706 23.0348 283.706 23.3018C283.706 23.5589 283.631 23.7624 283.481 23.9121C283.332 24.0586 283.123 24.1318 282.856 24.1318C282.583 24.1318 282.371 24.0602 282.222 23.917C282.072 23.7705 281.997 23.5654 281.997 23.3018Z" fill="#F8FDFC"/>
<path d="M297.167 8.5V7.5C297.167 6.67175 296.42 6 295.5 6C294.58 6 293.833 6.67175 293.833 7.5V8.5H293V12H298V8.5H297.167ZM295.778 10.4307V11H295.222V10.4307C295.057 10.344 294.944 10.1848 294.944 10C294.944 9.724 295.193 9.5 295.5 9.5C295.807 9.5 296.056 9.724 296.056 10C296.056 10.1845 295.943 10.344 295.778 10.4307ZM294.389 8.5V7.5C294.389 6.9485 294.887 6.5 295.5 6.5C296.113 6.5 296.611 6.9485 296.611 7.5V8.5H294.389Z" fill="#FAFFFE"/>
<path d="M220.322 19.5652L215 10H255.318L261 19.5652L255.318 30H215L220.322 19.5652Z" fill="#92DBA6"/>
<path d="M256.871 13.8832C258.596 12.0347 260.274 8.32904 258.657 6.05035C257.523 4.44512 255.294 4.26184 252.035 3.97629C250.916 3.87845 249.473 3.76096 247.637 4.1479C246.122 4.45719 242.647 5.17246 242.222 7.03536C241.772 8.96873 244.622 12.0551 247.588 12.8427C249.012 13.2253 250.506 13.0838 251.809 14.3241C252.491 14.9824 252.58 15.4832 253.206 15.7007C254.644 16.1826 256.499 14.284 256.871 13.8832Z" fill="#92DBA6" stroke="#C4C4C4" stroke-width="0.230003" stroke-miterlimit="10"/>
<path d="M248.208 10.5508V9.69629H250.044V10.5508H248.208ZM253.147 12H252.091V9.1084L252.102 8.6333L252.119 8.11377C251.943 8.28923 251.821 8.4043 251.753 8.45898L251.179 8.92041L250.669 8.28467L252.279 7.00293H253.147V12Z" fill="white"/>
<path d="M232.187 18.458C232.187 18.904 232.051 19.2832 231.781 19.5957C231.511 19.9082 231.132 20.123 230.644 20.2402V20.2695C231.22 20.3411 231.656 20.5169 231.952 20.7969C232.248 21.0736 232.396 21.4479 232.396 21.9199C232.396 22.6068 232.147 23.1423 231.649 23.5264C231.151 23.9072 230.44 24.0977 229.516 24.0977C228.741 24.0977 228.054 23.9691 227.455 23.7119V22.4277C227.732 22.5677 228.036 22.6816 228.368 22.7695C228.7 22.8574 229.029 22.9014 229.354 22.9014C229.853 22.9014 230.22 22.8167 230.458 22.6475C230.696 22.4782 230.814 22.2064 230.814 21.832C230.814 21.4967 230.678 21.2591 230.404 21.1191C230.131 20.9792 229.695 20.9092 229.096 20.9092H228.554V19.752H229.105C229.659 19.752 230.062 19.6803 230.316 19.5371C230.574 19.3906 230.702 19.1416 230.702 18.79C230.702 18.2497 230.364 17.9795 229.687 17.9795C229.452 17.9795 229.213 18.0186 228.969 18.0967C228.728 18.1748 228.459 18.3099 228.163 18.502L227.465 17.4619C228.116 16.9932 228.892 16.7588 229.794 16.7588C230.533 16.7588 231.116 16.9085 231.542 17.208C231.972 17.5075 232.187 17.9242 232.187 18.458ZM238.139 20.4307C238.139 21.6774 237.934 22.6003 237.523 23.1992C237.117 23.7982 236.488 24.0977 235.639 24.0977C234.815 24.0977 234.193 23.7884 233.773 23.1699C233.357 22.5514 233.148 21.6383 233.148 20.4307C233.148 19.1709 233.352 18.2432 233.759 17.6475C234.166 17.0485 234.792 16.749 235.639 16.749C236.462 16.749 237.084 17.0615 237.504 17.6865C237.927 18.3115 238.139 19.2262 238.139 20.4307ZM234.647 20.4307C234.647 21.3063 234.722 21.9346 234.872 22.3154C235.025 22.693 235.281 22.8818 235.639 22.8818C235.99 22.8818 236.244 22.6898 236.4 22.3057C236.557 21.9215 236.635 21.2965 236.635 20.4307C236.635 19.555 236.555 18.9268 236.396 18.5459C236.239 18.1618 235.987 17.9697 235.639 17.9697C235.284 17.9697 235.03 18.1618 234.877 18.5459C234.724 18.9268 234.647 19.555 234.647 20.4307ZM243.852 20.4307C243.852 21.6774 243.646 22.6003 243.236 23.1992C242.829 23.7982 242.201 24.0977 241.352 24.0977C240.528 24.0977 239.906 23.7884 239.486 23.1699C239.07 22.5514 238.861 21.6383 238.861 20.4307C238.861 19.1709 239.065 18.2432 239.472 17.6475C239.879 17.0485 240.505 16.749 241.352 16.749C242.175 16.749 242.797 17.0615 243.217 17.6865C243.64 18.3115 243.852 19.2262 243.852 20.4307ZM240.36 20.4307C240.36 21.3063 240.435 21.9346 240.585 22.3154C240.738 22.693 240.993 22.8818 241.352 22.8818C241.703 22.8818 241.957 22.6898 242.113 22.3057C242.27 21.9215 242.348 21.2965 242.348 20.4307C242.348 19.555 242.268 18.9268 242.108 18.5459C241.952 18.1618 241.7 17.9697 241.352 17.9697C240.997 17.9697 240.743 18.1618 240.59 18.5459C240.437 18.9268 240.36 19.555 240.36 20.4307ZM248.134 18.0186C247.737 18.0186 247.41 18.1341 247.152 18.3652C246.895 18.5931 246.729 18.9251 246.654 19.3613H248.622V20.2207H246.581L246.571 20.3916V20.6211L246.581 20.7822H248.314V21.6514H246.664C246.83 22.4424 247.353 22.8379 248.231 22.8379C248.697 22.8379 249.145 22.7451 249.574 22.5596V23.8096C249.197 24.0016 248.72 24.0977 248.144 24.0977C247.346 24.0977 246.69 23.8812 246.176 23.4482C245.661 23.0153 245.338 22.4163 245.204 21.6514H244.535V20.7822H245.111C245.098 20.7074 245.092 20.6064 245.092 20.4795L245.102 20.2207H244.535V19.3613H245.185C245.305 18.5736 245.629 17.9518 246.156 17.4961C246.684 17.0371 247.343 16.8076 248.134 16.8076C248.746 16.8076 249.319 16.9411 249.853 17.208L249.374 18.3408C249.149 18.2399 248.939 18.1618 248.744 18.1064C248.549 18.0479 248.345 18.0186 248.134 18.0186Z" fill="#FEFFFF"/>
<path d="M220.322 19.5652L215 10H255.318L261 19.5652L255.318 30H215L220.322 19.5652Z" fill="#A2C2F5"/>
<path d="M256.871 13.8832C258.596 12.0347 260.274 8.32904 258.657 6.05035C257.523 4.44512 255.294 4.26184 252.035 3.97629C250.916 3.87845 249.473 3.76096 247.637 4.1479C246.122 4.45719 242.647 5.17246 242.222 7.03536C241.772 8.96873 244.622 12.0551 247.588 12.8427C249.012 13.2253 250.506 13.0838 251.809 14.3241C252.491 14.9824 252.58 15.4832 253.206 15.7007C254.644 16.1826 256.499 14.284 256.871 13.8832Z" fill="#A2C2F5" stroke="black" stroke-width="0.230003" stroke-miterlimit="10"/>
<path d="M248.208 10.5508V9.69629H250.044V10.5508H248.208ZM253.834 8.12061C253.834 8.43278 253.74 8.69824 253.551 8.91699C253.362 9.13574 253.096 9.28613 252.754 9.36816V9.38867C253.158 9.4388 253.463 9.56185 253.67 9.75781C253.878 9.9515 253.981 10.2135 253.981 10.5439C253.981 11.0247 253.807 11.3996 253.458 11.6685C253.11 11.9351 252.612 12.0684 251.965 12.0684C251.423 12.0684 250.942 11.9784 250.522 11.7983V10.8994C250.716 10.9974 250.929 11.0771 251.162 11.1387C251.394 11.2002 251.624 11.231 251.852 11.231C252.201 11.231 252.458 11.1717 252.625 11.0532C252.791 10.9347 252.874 10.7445 252.874 10.4824C252.874 10.2477 252.778 10.0814 252.587 9.9834C252.396 9.88542 252.09 9.83643 251.671 9.83643H251.292V9.02637H251.678C252.065 9.02637 252.348 8.97624 252.525 8.87598C252.705 8.77344 252.795 8.59912 252.795 8.35303C252.795 7.97477 252.558 7.78564 252.084 7.78564C251.92 7.78564 251.753 7.81299 251.582 7.86768C251.413 7.92236 251.225 8.01693 251.018 8.15137L250.529 7.42334C250.985 7.09521 251.528 6.93115 252.16 6.93115C252.677 6.93115 253.085 7.03597 253.383 7.24561C253.684 7.45524 253.834 7.74691 253.834 8.12061Z" fill="white"/>
<path d="M228.349 24H226.84V19.8691L226.854 19.1904L226.879 18.4482C226.628 18.6989 226.454 18.8633 226.356 18.9414L225.536 19.6006L224.809 18.6924L227.108 16.8613H228.349V24ZM235.482 22.5205H234.623V24H233.148V22.5205H230.102V21.4707L233.231 16.8613H234.623V21.3486H235.482V22.5205ZM233.148 21.3486V20.1377C233.148 19.9359 233.157 19.6429 233.173 19.2588C233.189 18.8747 233.202 18.6517 233.212 18.5898H233.173C233.052 18.8568 232.908 19.1172 232.738 19.3711L231.43 21.3486H233.148ZM240.995 20.4307C240.995 21.6774 240.79 22.6003 240.38 23.1992C239.973 23.7982 239.345 24.0977 238.495 24.0977C237.672 24.0977 237.05 23.7884 236.63 23.1699C236.213 22.5514 236.005 21.6383 236.005 20.4307C236.005 19.1709 236.208 18.2432 236.615 17.6475C237.022 17.0485 237.649 16.749 238.495 16.749C239.319 16.749 239.94 17.0615 240.36 17.6865C240.784 18.3115 240.995 19.2262 240.995 20.4307ZM237.504 20.4307C237.504 21.3063 237.579 21.9346 237.729 22.3154C237.882 22.693 238.137 22.8818 238.495 22.8818C238.847 22.8818 239.101 22.6898 239.257 22.3057C239.413 21.9215 239.491 21.2965 239.491 20.4307C239.491 19.555 239.411 18.9268 239.252 18.5459C239.096 18.1618 238.843 17.9697 238.495 17.9697C238.14 17.9697 237.886 18.1618 237.733 18.5459C237.58 18.9268 237.504 19.555 237.504 20.4307ZM246.708 20.4307C246.708 21.6774 246.503 22.6003 246.093 23.1992C245.686 23.7982 245.058 24.0977 244.208 24.0977C243.384 24.0977 242.763 23.7884 242.343 23.1699C241.926 22.5514 241.718 21.6383 241.718 20.4307C241.718 19.1709 241.921 18.2432 242.328 17.6475C242.735 17.0485 243.362 16.749 244.208 16.749C245.032 16.749 245.653 17.0615 246.073 17.6865C246.496 18.3115 246.708 19.2262 246.708 20.4307ZM243.217 20.4307C243.217 21.3063 243.292 21.9346 243.441 22.3154C243.594 22.693 243.85 22.8818 244.208 22.8818C244.56 22.8818 244.813 22.6898 244.97 22.3057C245.126 21.9215 245.204 21.2965 245.204 20.4307C245.204 19.555 245.124 18.9268 244.965 18.5459C244.809 18.1618 244.556 17.9697 244.208 17.9697C243.853 17.9697 243.599 18.1618 243.446 18.5459C243.293 18.9268 243.217 19.555 243.217 20.4307ZM250.99 18.0186C250.593 18.0186 250.266 18.1341 250.009 18.3652C249.752 18.5931 249.586 18.9251 249.511 19.3613H251.479V20.2207H249.438L249.428 20.3916V20.6211L249.438 20.7822H251.171V21.6514H249.521C249.687 22.4424 250.209 22.8379 251.088 22.8379C251.553 22.8379 252.001 22.7451 252.431 22.5596V23.8096C252.053 24.0016 251.576 24.0977 251 24.0977C250.202 24.0977 249.547 23.8812 249.032 23.4482C248.518 23.0153 248.194 22.4163 248.061 21.6514H247.392V20.7822H247.968C247.955 20.7074 247.948 20.6064 247.948 20.4795L247.958 20.2207H247.392V19.3613H248.041C248.161 18.5736 248.485 17.9518 249.013 17.4961C249.54 17.0371 250.199 16.8076 250.99 16.8076C251.602 16.8076 252.175 16.9411 252.709 17.208L252.23 18.3408C252.006 18.2399 251.796 18.1618 251.601 18.1064C251.405 18.0479 251.202 18.0186 250.99 18.0186Z" fill="#FEFFFF"/>
</svg>
